<svg xmlns="http://www.w3.org/2000/svg" xmlns:xlink="http://www.w3.org/1999/xlink" contentStyleType="text/css" data-diagram-type="SEQUENCE" height="1313px" preserveAspectRatio="none" style="width:2009px;height:1313px;background:#FFFFFF;" version="1.1" viewBox="0 0 2009 1313" width="2009px" zoomAndPan="magnify"><title>TimeSlave Data Flow</title><defs/><g><text fill="#000000" font-family="Verdana" font-size="22" font-weight="bold" lengthAdjust="spacing" textLength="259.6816" x="873.426" y="35.4209">TimeSlave Data Flow</text><g><title>Network</title><rect fill="transparent" height="1162.9141" width="8" x="71.7539" y="99.2031"/><line style="stroke:#000000;stroke-width:1;" x1="75" x2="75" y1="99.2031" y2="1262.1172"/></g><g><title>RawSocket</title><rect fill="transparent" height="1162.9141" width="8" x="274.6182" y="99.2031"/><line style="stroke:#000000;stroke-width:1;" x1="278.0601" x2="278.0601" y1="99.2031" y2="1262.1172"/></g><g><title>FrameCodec</title><rect fill="transparent" height="1162.9141" width="8" x="481.7227" y="99.2031"/><line style="stroke:#000000;stroke-width:1;" x1="485.6343" x2="485.6343" y1="99.2031" y2="1262.1172"/></g><g><title>MessageParser</title><rect fill="transparent" height="1162.9141" width="8" x="622.7109" y="99.2031"/><line style="stroke:#000000;stroke-width:1;" x1="625.811" x2="625.811" y1="99.2031" y2="1262.1172"/></g><g><title>SyncStateMachine</title><rect fill="transparent" height="1162.9141" width="8" x="865.3052" y="99.2031"/><line style="stroke:#000000;stroke-width:1;" x1="868.603" x2="868.603" y1="99.2031" y2="1262.1172"/></g><g><title>PeerDelayMeasurer</title><rect fill="transparent" height="1162.9141" width="8" x="1117.812" y="99.2031"/><line style="stroke:#000000;stroke-width:1;" x1="1121.2441" x2="1121.2441" y1="99.2031" y2="1262.1172"/></g><g><title>PhcAdjuster</title><rect fill="transparent" height="1162.9141" width="8" x="1346.5215" y="99.2031"/><line style="stroke:#000000;stroke-width:1;" x1="1349.8257" x2="1349.8257" y1="99.2031" y2="1262.1172"/></g><g><title>GptpEngine</title><rect fill="transparent" height="1162.9141" width="8" x="1519.2725" y="99.2031"/><line style="stroke:#000000;stroke-width:1;" x1="1523.2261" x2="1523.2261" y1="99.2031" y2="1262.1172"/></g><g><title>GptpIpcPublisher</title><rect fill="transparent" height="1162.9141" width="8" x="1677.9888" y="99.2031"/><line style="stroke:#000000;stroke-width:1;" x1="1681.3179" x2="1681.3179" y1="99.2031" y2="1262.1172"/></g><g><title>SharedMemory</title><rect fill="transparent" height="1162.9141" width="8" x="1923.2681" y="99.2031"/><line style="stroke:#000000;stroke-width:1;" x1="1927.0024" x2="1927.0024" y1="99.2031" y2="1262.1172"/></g><rect fill="#F5F5DC" height="46.5938" rx="2.5" ry="2.5" style="stroke:#000000;stroke-width:1;" width="111.5078" x="20" y="51.6094"/><text fill="#000000" font-family="Verdana" font-size="14" lengthAdjust="spacing" textLength="58.4541" x="46.5269" y="71.6045">Network</text><text fill="#000000" font-family="Verdana" font-size="14" lengthAdjust="spacing" textLength="97.5078" x="27" y="87.9014">(gPTP Master)</text><rect fill="#F5F5DC" height="46.5938" rx="2.5" ry="2.5" style="stroke:#000000;stroke-width:1;" width="111.5078" x="20" y="1261.1172"/><text fill="#000000" font-family="Verdana" font-size="14" lengthAdjust="spacing" textLength="58.4541" x="46.5269" y="1281.1123">Network</text><text fill="#000000" font-family="Verdana" font-size="14" lengthAdjust="spacing" textLength="97.5078" x="27" y="1297.4092">(gPTP Master)</text><rect fill="#87CEFA" height="30.2969" rx="2.5" ry="2.5" style="stroke:#000000;stroke-width:1;" width="91.1162" x="233.0601" y="67.9063"/><text fill="#000000" font-family="Verdana" font-size="14" lengthAdjust="spacing" textLength="77.1162" x="240.0601" y="87.9014">RawSocket</text><rect fill="#87CEFA" height="30.2969" rx="2.5" ry="2.5" style="stroke:#000000;stroke-width:1;" width="91.1162" x="233.0601" y="1261.1172"/><text fill="#000000" font-family="Verdana" font-size="14" lengthAdjust="spacing" textLength="77.1162" x="240.0601" y="1281.1123">RawSocket</text><rect fill="#F5DEB3" height="30.2969" rx="2.5" ry="2.5" style="stroke:#000000;stroke-width:1;" width="102.1768" x="434.6343" y="67.9063"/><text fill="#000000" font-family="Verdana" font-size="14" lengthAdjust="spacing" textLength="88.1768" x="441.6343" y="87.9014">FrameCodec</text><rect fill="#F5DEB3" height="30.2969" rx="2.5" ry="2.5" style="stroke:#000000;stroke-width:1;" width="102.1768" x="434.6343" y="1261.1172"/><text fill="#000000" font-family="Verdana" font-size="14" lengthAdjust="spacing" textLength="88.1768" x="441.6343" y="1281.1123">FrameCodec</text><rect fill="#F5DEB3" height="30.2969" rx="2.5" ry="2.5" style="stroke:#000000;stroke-width:1;" width="119.7998" x="566.811" y="67.9063"/><text fill="#000000" font-family="Verdana" font-size="14" lengthAdjust="spacing" textLength="105.7998" x="573.811" y="87.9014">MessageParser</text><rect fill="#F5DEB3" height="30.2969" rx="2.5" ry="2.5" style="stroke:#000000;stroke-width:1;" width="119.7998" x="566.811" y="1261.1172"/><text fill="#000000" font-family="Verdana" font-size="14" lengthAdjust="spacing" textLength="105.7998" x="573.811" y="1281.1123">MessageParser</text><rect fill="#F5DEB3" height="30.2969" rx="2.5" ry="2.5" style="stroke:#000000;stroke-width:1;" width="143.4043" x="797.603" y="67.9063"/><text fill="#000000" font-family="Verdana" font-size="14" lengthAdjust="spacing" textLength="129.4043" x="804.603" y="87.9014">SyncStateMachine</text><rect fill="#F5DEB3" height="30.2969" rx="2.5" ry="2.5" style="stroke:#000000;stroke-width:1;" width="143.4043" x="797.603" y="1261.1172"/><text fill="#000000" font-family="Verdana" font-size="14" lengthAdjust="spacing" textLength="129.4043" x="804.603" y="1281.1123">SyncStateMachine</text><rect fill="#F5DEB3" height="30.2969" rx="2.5" ry="2.5" style="stroke:#000000;stroke-width:1;" width="151.1357" x="1046.2441" y="67.9063"/><text fill="#000000" font-family="Verdana" font-size="14" lengthAdjust="spacing" textLength="137.1357" x="1053.2441" y="87.9014">PeerDelayMeasurer</text><rect fill="#F5DEB3" height="30.2969" rx="2.5" ry="2.5" style="stroke:#000000;stroke-width:1;" width="151.1357" x="1046.2441" y="1261.1172"/><text fill="#000000" font-family="Verdana" font-size="14" lengthAdjust="spacing" textLength="137.1357" x="1053.2441" y="1281.1123">PeerDelayMeasurer</text><rect fill="#E6E6FA" height="30.2969" rx="2.5" ry="2.5" style="stroke:#000000;stroke-width:1;" width="97.3916" x="1301.8257" y="67.9063"/><text fill="#000000" font-family="Verdana" font-size="14" lengthAdjust="spacing" textLength="83.3916" x="1308.8257" y="87.9014">PhcAdjuster</text><rect fill="#E6E6FA" height="30.2969" rx="2.5" ry="2.5" style="stroke:#000000;stroke-width:1;" width="97.3916" x="1301.8257" y="1261.1172"/><text fill="#000000" font-family="Verdana" font-size="14" lengthAdjust="spacing" textLength="83.3916" x="1308.8257" y="1281.1123">PhcAdjuster</text><rect fill="#FFA07A" height="30.2969" rx="2.5" ry="2.5" style="stroke:#000000;stroke-width:1;" width="96.0928" x="1475.2261" y="67.9063"/><text fill="#000000" font-family="Verdana" font-size="14" lengthAdjust="spacing" textLength="82.0928" x="1482.2261" y="87.9014">GptpEngine</text><rect fill="#FFA07A" height="30.2969" rx="2.5" ry="2.5" style="stroke:#000000;stroke-width:1;" width="96.0928" x="1475.2261" y="1261.1172"/><text fill="#000000" font-family="Verdana" font-size="14" lengthAdjust="spacing" textLength="82.0928" x="1482.2261" y="1281.1123">GptpEngine</text><rect fill="#FFB6C1" height="30.2969" rx="2.5" ry="2.5" style="stroke:#000000;stroke-width:1;" width="133.3418" x="1615.3179" y="67.9063"/><text fill="#000000" font-family="Verdana" font-size="14" lengthAdjust="spacing" textLength="119.3418" x="1622.3179" y="87.9014">GptpIpcPublisher</text><rect fill="#FFB6C1" height="30.2969" rx="2.5" ry="2.5" style="stroke:#000000;stroke-width:1;" width="133.3418" x="1615.3179" y="1261.1172"/><text fill="#000000" font-family="Verdana" font-size="14" lengthAdjust="spacing" textLength="119.3418" x="1622.3179" y="1281.1123">GptpIpcPublisher</text><rect fill="#FFB6C1" height="30.2969" rx="2.5" ry="2.5" style="stroke:#000000;stroke-width:1;" width="120.5313" x="1867.0024" y="67.9063"/><text fill="#000000" font-family="Verdana" font-size="14" lengthAdjust="spacing" textLength="106.5313" x="1874.0024" y="87.9014">SharedMemory</text><rect fill="#FFB6C1" height="30.2969" rx="2.5" ry="2.5" style="stroke:#000000;stroke-width:1;" width="120.5313" x="1867.0024" y="1261.1172"/><text fill="#000000" font-family="Verdana" font-size="14" lengthAdjust="spacing" textLength="106.5313" x="1874.0024" y="1281.1123">SharedMemory</text><rect fill="#FFFFFF" height="3" style="stroke:#FFFFFF;stroke-width:1;" width="1997.5337" x="5" y="129.7695"/><line style="stroke:#000000;stroke-width:0.5;" x1="5" x2="2002.5337" y1="129.7695" y2="129.7695"/><line style="stroke:#000000;stroke-width:0.5;" x1="5" x2="2002.5337" y1="132.7695" y2="132.7695"/><rect fill="#FFFFFF" height="23.1328" style="stroke:#000000;stroke-width:1;" width="301.8853" x="852.8242" y="119.2031"/><text fill="#000000" font-family="Verdana" font-size="13" font-weight="bold" lengthAdjust="spacing" textLength="283.3594" x="858.8242" y="135.27">RxThread &#8212; Sync/FollowUp Processing</text><polygon fill="#000000" points="266.6182,184.6016,276.6182,188.6016,266.6182,192.6016,270.6182,188.6016" style="stroke:#000000;stroke-width:1;"/><line style="stroke:#000000;stroke-width:1;" x1="75.7539" x2="272.6182" y1="188.6016" y2="188.6016"/><text fill="#000000" font-family="Verdana" font-size="13" lengthAdjust="spacing" textLength="110.0176" x="82.7539" y="168.4028">gPTP Sync frame</text><text fill="#000000" font-family="Verdana" font-size="13" lengthAdjust="spacing" textLength="129.3081" x="82.7539" y="183.5356">(EtherType 0x88F7)</text><polygon fill="#000000" points="473.7227,213.7344,483.7227,217.7344,473.7227,221.7344,477.7227,217.7344" style="stroke:#000000;stroke-width:1;"/><line style="stroke:#000000;stroke-width:1;" x1="278.6182" x2="479.7227" y1="217.7344" y2="217.7344"/><text fill="#000000" font-family="Verdana" font-size="13" lengthAdjust="spacing" textLength="183.1045" x="285.6182" y="212.6685">raw buffer + HW timestamp</text><polygon fill="#000000" points="614.7109,242.8672,624.7109,246.8672,614.7109,250.8672,618.7109,246.8672" style="stroke:#000000;stroke-width:1;"/><line style="stroke:#000000;stroke-width:1;" x1="485.7227" x2="620.7109" y1="246.8672" y2="246.8672"/><text fill="#000000" font-family="Verdana" font-size="13" lengthAdjust="spacing" textLength="112.0552" x="492.7227" y="241.8013">Ethernet payload</text><polygon fill="#000000" points="857.3052,272,867.3052,276,857.3052,280,861.3052,276" style="stroke:#000000;stroke-width:1;"/><line style="stroke:#000000;stroke-width:1;" x1="626.7109" x2="863.3052" y1="276" y2="276"/><text fill="#000000" font-family="Verdana" font-size="13" lengthAdjust="spacing" textLength="140.5435" x="633.7109" y="270.9341">OnSync(PTPMessage)</text><line style="stroke:#000000;stroke-width:1;" x1="869.3052" x2="911.3052" y1="305.1328" y2="305.1328"/><line style="stroke:#000000;stroke-width:1;" x1="911.3052" x2="911.3052" y1="305.1328" y2="318.1328"/><line style="stroke:#000000;stroke-width:1;" x1="870.3052" x2="911.3052" y1="318.1328" y2="318.1328"/><polygon fill="#000000" points="880.3052,314.1328,870.3052,318.1328,880.3052,322.1328,876.3052,318.1328" style="stroke:#000000;stroke-width:1;"/><text fill="#000000" font-family="Verdana" font-size="13" lengthAdjust="spacing" textLength="142.8857" x="876.3052" y="300.0669">store Sync timestamp</text><polygon fill="#000000" points="266.6182,343.2656,276.6182,347.2656,266.6182,351.2656,270.6182,347.2656" style="stroke:#000000;stroke-width:1;"/><line style="stroke:#000000;stroke-width:1;" x1="75.7539" x2="272.6182" y1="347.2656" y2="347.2656"/><text fill="#000000" font-family="Verdana" font-size="13" lengthAdjust="spacing" textLength="137.6934" x="82.7539" y="342.1997">gPTP FollowUp frame</text><polygon fill="#000000" points="473.7227,372.3984,483.7227,376.3984,473.7227,380.3984,477.7227,376.3984" style="stroke:#000000;stroke-width:1;"/><line style="stroke:#000000;stroke-width:1;" x1="278.6182" x2="479.7227" y1="376.3984" y2="376.3984"/><text fill="#000000" font-family="Verdana" font-size="13" lengthAdjust="spacing" textLength="183.1045" x="285.6182" y="371.3325">raw buffer + HW timestamp</text><polygon fill="#000000" points="614.7109,401.5313,624.7109,405.5313,614.7109,409.5313,618.7109,405.5313" style="stroke:#000000;stroke-width:1;"/><line style="stroke:#000000;stroke-width:1;" x1="485.7227" x2="620.7109" y1="405.5313" y2="405.5313"/><text fill="#000000" font-family="Verdana" font-size="13" lengthAdjust="spacing" textLength="112.0552" x="492.7227" y="400.4653">Ethernet payload</text><polygon fill="#000000" points="857.3052,430.6641,867.3052,434.6641,857.3052,438.6641,861.3052,434.6641" style="stroke:#000000;stroke-width:1;"/><line style="stroke:#000000;stroke-width:1;" x1="626.7109" x2="863.3052" y1="434.6641" y2="434.6641"/><text fill="#000000" font-family="Verdana" font-size="13" lengthAdjust="spacing" textLength="168.2192" x="633.7109" y="429.5981">OnFollowUp(PTPMessage)</text><line style="stroke:#000000;stroke-width:1;" x1="869.3052" x2="911.3052" y1="463.7969" y2="463.7969"/><line style="stroke:#000000;stroke-width:1;" x1="911.3052" x2="911.3052" y1="463.7969" y2="476.7969"/><line style="stroke:#000000;stroke-width:1;" x1="870.3052" x2="911.3052" y1="476.7969" y2="476.7969"/><polygon fill="#000000" points="880.3052,472.7969,870.3052,476.7969,880.3052,480.7969,876.3052,476.7969" style="stroke:#000000;stroke-width:1;"/><text fill="#000000" font-family="Verdana" font-size="13" lengthAdjust="spacing" textLength="238.5068" x="876.3052" y="458.731">compute offset &amp; neighborRateRatio</text><polygon fill="#000000" points="637.7109,517.0625,627.7109,521.0625,637.7109,525.0625,633.7109,521.0625" style="stroke:#000000;stroke-width:1;"/><line style="stroke:#000000;stroke-width:1;stroke-dasharray:2.0,2.0;" x1="631.7109" x2="868.3052" y1="521.0625" y2="521.0625"/><text fill="#000000" font-family="Verdana" font-size="13" lengthAdjust="spacing" textLength="218.5942" x="643.7109" y="500.8638">SyncResult{master_ns, offset_ns,</text><text fill="#000000" font-family="Verdana" font-size="13" lengthAdjust="spacing" textLength="114.5879" x="643.7109" y="515.9966">time_jump_flags}</text><polygon fill="#000000" points="1511.2725,561.3281,1521.2725,565.3281,1511.2725,569.3281,1515.2725,565.3281" style="stroke:#000000;stroke-width:1;"/><line style="stroke:#000000;stroke-width:1;stroke-dasharray:2.0,2.0;" x1="626.7109" x2="1517.2725" y1="565.3281" y2="565.3281"/><text fill="#000000" font-family="Verdana" font-size="13" lengthAdjust="spacing" textLength="158.7739" x="633.7109" y="545.1294">update latest_snapshot_</text><text fill="#000000" font-family="Verdana" font-size="13" lengthAdjust="spacing" textLength="119.1074" x="633.7109" y="560.2622">(mutex protected)</text><rect fill="#FFFFFF" height="3" style="stroke:#FFFFFF;stroke-width:1;" width="1997.5337" x="5" y="593.8945"/><line style="stroke:#000000;stroke-width:0.5;" x1="5" x2="2002.5337" y1="593.8945" y2="593.8945"/><line style="stroke:#000000;stroke-width:0.5;" x1="5" x2="2002.5337" y1="596.8945" y2="596.8945"/><rect fill="#FFFFFF" height="23.1328" style="stroke:#000000;stroke-width:1;" width="325.873" x="840.8303" y="583.3281"/><text fill="#000000" font-family="Verdana" font-size="13" font-weight="bold" lengthAdjust="spacing" textLength="307.3472" x="846.8303" y="599.395">PdelayThread &#8212; Peer Delay Measurement</text><polygon fill="#000000" points="1132.812,633.5938,1122.812,637.5938,1132.812,641.5938,1128.812,637.5938" style="stroke:#000000;stroke-width:1;"/><line style="stroke:#000000;stroke-width:1;" x1="1126.812" x2="1522.2725" y1="637.5938" y2="637.5938"/><text fill="#000000" font-family="Verdana" font-size="13" lengthAdjust="spacing" textLength="96.2749" x="1138.812" y="632.5278">SendRequest()</text><polygon fill="#000000" points="289.6182,662.7266,279.6182,666.7266,289.6182,670.7266,285.6182,666.7266" style="stroke:#000000;stroke-width:1;"/><line style="stroke:#000000;stroke-width:1;" x1="283.6182" x2="1120.812" y1="666.7266" y2="666.7266"/><text fill="#000000" font-family="Verdana" font-size="13" lengthAdjust="spacing" textLength="113.0835" x="295.6182" y="661.6606">PDelayReq frame</text><polygon fill="#000000" points="266.6182,691.8594,276.6182,695.8594,266.6182,699.8594,270.6182,695.8594" style="stroke:#000000;stroke-width:1;"/><line style="stroke:#000000;stroke-width:1;stroke-dasharray:2.0,2.0;" x1="75.7539" x2="272.6182" y1="695.8594" y2="695.8594"/><text fill="#000000" font-family="Verdana" font-size="13" lengthAdjust="spacing" textLength="119.8564" x="82.7539" y="690.7935">PDelayResp frame</text><polygon fill="#000000" points="473.7227,720.9922,483.7227,724.9922,473.7227,728.9922,477.7227,724.9922" style="stroke:#000000;stroke-width:1;"/><line style="stroke:#000000;stroke-width:1;" x1="278.6182" x2="479.7227" y1="724.9922" y2="724.9922"/><text fill="#000000" font-family="Verdana" font-size="13" lengthAdjust="spacing" textLength="183.1045" x="285.6182" y="719.9263">raw buffer + HW timestamp</text><polygon fill="#000000" points="614.7109,750.125,624.7109,754.125,614.7109,758.125,618.7109,754.125" style="stroke:#000000;stroke-width:1;"/><line style="stroke:#000000;stroke-width:1;" x1="485.7227" x2="620.7109" y1="754.125" y2="754.125"/><text fill="#000000" font-family="Verdana" font-size="13" lengthAdjust="spacing" textLength="112.0552" x="492.7227" y="749.0591">Ethernet payload</text><polygon fill="#000000" points="1109.812,779.2578,1119.812,783.2578,1109.812,787.2578,1113.812,783.2578" style="stroke:#000000;stroke-width:1;"/><line style="stroke:#000000;stroke-width:1;" x1="626.7109" x2="1115.812" y1="783.2578" y2="783.2578"/><text fill="#000000" font-family="Verdana" font-size="13" lengthAdjust="spacing" textLength="119.3232" x="633.7109" y="778.1919">OnResponse(msg)</text><polygon fill="#000000" points="266.6182,808.3906,276.6182,812.3906,266.6182,816.3906,270.6182,812.3906" style="stroke:#000000;stroke-width:1;"/><line style="stroke:#000000;stroke-width:1;stroke-dasharray:2.0,2.0;" x1="75.7539" x2="272.6182" y1="812.3906" y2="812.3906"/><text fill="#000000" font-family="Verdana" font-size="13" lengthAdjust="spacing" textLength="178.8643" x="82.7539" y="807.3247">PDelayRespFollowUp frame</text><polygon fill="#000000" points="473.7227,837.5234,483.7227,841.5234,473.7227,845.5234,477.7227,841.5234" style="stroke:#000000;stroke-width:1;"/><line style="stroke:#000000;stroke-width:1;" x1="278.6182" x2="479.7227" y1="841.5234" y2="841.5234"/><text fill="#000000" font-family="Verdana" font-size="13" lengthAdjust="spacing" textLength="183.1045" x="285.6182" y="836.4575">raw buffer + HW timestamp</text><polygon fill="#000000" points="614.7109,866.6563,624.7109,870.6563,614.7109,874.6563,618.7109,870.6563" style="stroke:#000000;stroke-width:1;"/><line style="stroke:#000000;stroke-width:1;" x1="485.7227" x2="620.7109" y1="870.6563" y2="870.6563"/><text fill="#000000" font-family="Verdana" font-size="13" lengthAdjust="spacing" textLength="112.0552" x="492.7227" y="865.5903">Ethernet payload</text><polygon fill="#000000" points="1109.812,895.7891,1119.812,899.7891,1109.812,903.7891,1113.812,899.7891" style="stroke:#000000;stroke-width:1;"/><line style="stroke:#000000;stroke-width:1;" x1="626.7109" x2="1115.812" y1="899.7891" y2="899.7891"/><text fill="#000000" font-family="Verdana" font-size="13" lengthAdjust="spacing" textLength="178.3311" x="633.7109" y="894.7231">OnResponseFollowUp(msg)</text><line style="stroke:#000000;stroke-width:1;" x1="1121.812" x2="1163.812" y1="928.9219" y2="928.9219"/><line style="stroke:#000000;stroke-width:1;" x1="1163.812" x2="1163.812" y1="928.9219" y2="941.9219"/><line style="stroke:#000000;stroke-width:1;" x1="1122.812" x2="1163.812" y1="941.9219" y2="941.9219"/><polygon fill="#000000" points="1132.812,937.9219,1122.812,941.9219,1132.812,945.9219,1128.812,941.9219" style="stroke:#000000;stroke-width:1;"/><text fill="#000000" font-family="Verdana" font-size="13" lengthAdjust="spacing" textLength="214.7095" x="1128.812" y="923.856">path_delay = ((t2-t1)+(t4-t3c))/2</text><polygon fill="#000000" points="1511.2725,967.0547,1521.2725,971.0547,1511.2725,975.0547,1515.2725,971.0547" style="stroke:#000000;stroke-width:1;"/><line style="stroke:#000000;stroke-width:1;stroke-dasharray:2.0,2.0;" x1="1121.812" x2="1517.2725" y1="971.0547" y2="971.0547"/><text fill="#000000" font-family="Verdana" font-size="13" lengthAdjust="spacing" textLength="135.8081" x="1128.812" y="965.9888">update PDelayResult</text><rect fill="#FFFFFF" height="3" style="stroke:#FFFFFF;stroke-width:1;" width="1997.5337" x="5" y="999.6211"/><line style="stroke:#000000;stroke-width:0.5;" x1="5" x2="2002.5337" y1="999.6211" y2="999.6211"/><line style="stroke:#000000;stroke-width:0.5;" x1="5" x2="2002.5337" y1="1002.6211" y2="1002.6211"/><rect fill="#FFFFFF" height="23.1328" style="stroke:#000000;stroke-width:1;" width="137.8618" x="934.8359" y="989.0547"/><text fill="#000000" font-family="Verdana" font-size="13" font-weight="bold" lengthAdjust="spacing" textLength="119.3359" x="940.8359" y="1005.1216">PHC Adjustment</text><polygon fill="#000000" points="1361.5215,1039.3203,1351.5215,1043.3203,1361.5215,1047.3203,1357.5215,1043.3203" style="stroke:#000000;stroke-width:1;"/><line style="stroke:#000000;stroke-width:1;" x1="1355.5215" x2="1522.2725" y1="1043.3203" y2="1043.3203"/><text fill="#000000" font-family="Verdana" font-size="13" lengthAdjust="spacing" textLength="148.751" x="1367.5215" y="1038.2544">AdjustOffset(offset_ns)</text><line style="stroke:#000000;stroke-width:1;" x1="1350.5215" x2="1392.5215" y1="1072.4531" y2="1072.4531"/><line style="stroke:#000000;stroke-width:1;" x1="1392.5215" x2="1392.5215" y1="1072.4531" y2="1085.4531"/><line style="stroke:#000000;stroke-width:1;" x1="1351.5215" x2="1392.5215" y1="1085.4531" y2="1085.4531"/><polygon fill="#000000" points="1361.5215,1081.4531,1351.5215,1085.4531,1361.5215,1089.4531,1357.5215,1085.4531" style="stroke:#000000;stroke-width:1;"/><text fill="#000000" font-family="Verdana" font-size="13" lengthAdjust="spacing" textLength="148.3193" x="1357.5215" y="1067.3872">step or frequency slew</text><rect fill="#FFFFFF" height="3" style="stroke:#FFFFFF;stroke-width:1;" width="1997.5337" x="5" y="1114.0195"/><line style="stroke:#000000;stroke-width:0.5;" x1="5" x2="2002.5337" y1="1114.0195" y2="1114.0195"/><line style="stroke:#000000;stroke-width:0.5;" x1="5" x2="2002.5337" y1="1117.0195" y2="1117.0195"/><rect fill="#FFFFFF" height="23.1328" style="stroke:#000000;stroke-width:1;" width="276.4185" x="865.5576" y="1103.4531"/><text fill="#000000" font-family="Verdana" font-size="13" font-weight="bold" lengthAdjust="spacing" textLength="257.8926" x="871.5576" y="1119.52">Periodic Publish to Shared Memory</text><line style="stroke:#000000;stroke-width:1;" x1="1523.2725" x2="1565.2725" y1="1157.7188" y2="1157.7188"/><line style="stroke:#000000;stroke-width:1;" x1="1565.2725" x2="1565.2725" y1="1157.7188" y2="1170.7188"/><line style="stroke:#000000;stroke-width:1;" x1="1524.2725" x2="1565.2725" y1="1170.7188" y2="1170.7188"/><polygon fill="#000000" points="1534.2725,1166.7188,1524.2725,1170.7188,1534.2725,1174.7188,1530.2725,1170.7188" style="stroke:#000000;stroke-width:1;"/><text fill="#000000" font-family="Verdana" font-size="13" lengthAdjust="spacing" textLength="127.7847" x="1530.2725" y="1152.6528">ReadPTPSnapshot()</text><polygon fill="#000000" points="1669.9888,1195.8516,1679.9888,1199.8516,1669.9888,1203.8516,1673.9888,1199.8516" style="stroke:#000000;stroke-width:1;"/><line style="stroke:#000000;stroke-width:1;" x1="1523.2725" x2="1675.9888" y1="1199.8516" y2="1199.8516"/><text fill="#000000" font-family="Verdana" font-size="13" lengthAdjust="spacing" textLength="134.7163" x="1530.2725" y="1194.7856">Publish(PtpTimeInfo)</text><polygon fill="#000000" points="1915.2681,1240.1172,1925.2681,1244.1172,1915.2681,1248.1172,1919.2681,1244.1172" style="stroke:#000000;stroke-width:1;"/><line style="stroke:#000000;stroke-width:1;" x1="1681.9888" x2="1921.2681" y1="1244.1172" y2="1244.1172"/><text fill="#000000" font-family="Verdana" font-size="13" lengthAdjust="spacing" textLength="86.0806" x="1688.9888" y="1223.9185">seqlock write</text><text fill="#000000" font-family="Verdana" font-size="13" lengthAdjust="spacing" textLength="221.2793" x="1688.9888" y="1239.0513">(atomic seq++, memcpy, seq++)</text><!--SRC=[jLN1Jjj04BtxAwOWLRO2egMLYYAbKWc4e19Y9K5SaAB5diG6UtVP7JT4LQL-HB-mNzBPjHCWm8qU4YMUjpDlvxqPlwCCImHTY5m60ULK84po4iU5-85m94X0hr2B8D32K9xaMaY2hNEaXJAtLpASnvCO1i8IccWBX8Npumbi7s8-nwT7Hc8nLiajaaUDXztli7sMppCQtouFYse3tJEYnAvACV7mNXUsBpCKz1GrG6l576DXB1eF7CGl0iTBcOn940v4akKIQmxZmOlW6D4SOI6M0nIsCatc-EWLT9PyIsygru0QrsUkPzmycQ9v2ZtHf8_bV5N_v7ZL0L6KIZx7dkeahgwBt6Qht1U7pP4ubxSRLyo4mNI0fJBB-dhzmMDmqEd0w7wI6HGf_Ftz1rnFzdggO7KlDCH69TpDNCwXqma2f-BkrrgcDdYH7HvcJXUM_PXjOoPBZV3X_k2WzoKAF9IFi5HjC681rzLiXWPQqBy4OaTP4gKEECmWbgaDFeT40YsMXH9fm4zTJPQb3KFfweLSk16PAt1W7RUa3DQS7fA_H7jzGq_zxMckyhzEDL6bhWX1pMQMqxm7oTEHNIipOaFo9rSrVbNGNMg4jYheP-a7QohjJdFQ_RoIZkVqfYhrT5Q8kVqLU4vydYtLXagdd1WA_h8qjL9ecocQicebqxW7RHHXGfX6tXHnwhp-o1ZE_-0709e9A94Tvcp1-RcA6mMcoGuVuLt5HS8eSCyUEX_xunnjkkvrUHwsRwvAJMqeNMubBOQbdKUlb_zVvjYaiJQ9fzFqgWPfGTdKIm0T24FQtwMFKIkapxlqAOcYlVsWnc-ekxu3swIMaVTElOWsrUgxszIXeJTHkFOIS-bt7q1iDWtAS3UShZ9PWYrmKQT7awiqJw3PI40AwfK3zSvvLD7p7B6TU2J6ZVtO8WqTtc7jLPOm9ktUDgToffWBXvnAVJ_WU5Vm-m8M9YUtSGIfailpurPh1qei4xtSgVz6mJy0]--></g></svg>