<svg xmlns="http://www.w3.org/2000/svg" xmlns:xlink="http://www.w3.org/1999/xlink" contentStyleType="text/css" data-diagram-type="CLASS" height="775px" preserveAspectRatio="none" style="width:1928px;height:775px;background:#FFFFFF;" version="1.1" viewBox="0 0 1928 775" width="1928px" zoomAndPan="magnify"><title>gPTP Engine Internal Class Diagram</title><defs/><g><text fill="#000000" font-family="Verdana" font-size="22" font-weight="bold" lengthAdjust="spacing" textLength="446.123" x="736.4385" y="35.4209">gPTP Engine Internal Class Diagram</text><!--cluster score::ts::gptp--><g id="cluster_score::ts::gptp"><path d="M13.5,57.6094 L131.3262,57.6094 A3.75,3.75 0 0 1 133.8262,60.1094 L140.8262,79.9063 L708.5,79.9063 A2.5,2.5 0 0 1 711,82.4063 L711,758.1094 A2.5,2.5 0 0 1 708.5,760.6094 L13.5,760.6094 A2.5,2.5 0 0 1 11,758.1094 L11,60.1094 A2.5,2.5 0 0 1 13.5,57.6094 " fill="#FFFFFF" style="stroke:#000000;stroke-width:1;"/><line style="stroke:#000000;stroke-width:1;" x1="11" x2="140.8262" y1="79.9063" y2="79.9063"/><text fill="#000000" font-family="Verdana" font-size="14" font-weight="bold" lengthAdjust="spacing" textLength="116.8262" x="15" y="72.6045">score::ts::gptp</text></g><!--cluster score::ts::gptp::details--><g id="cluster_score::ts::gptp::details"><path d="M737.5,471.6094 L920.1104,471.6094 A3.75,3.75 0 0 1 922.6104,474.1094 L929.6104,493.9063 L1442.5,493.9063 A2.5,2.5 0 0 1 1445,496.4063 L1445,564.1094 A2.5,2.5 0 0 1 1442.5,566.6094 L737.5,566.6094 A2.5,2.5 0 0 1 735,564.1094 L735,474.1094 A2.5,2.5 0 0 1 737.5,471.6094 " fill="#FFFFFF" style="stroke:#000000;stroke-width:1;"/><line style="stroke:#000000;stroke-width:1;" x1="735" x2="929.6104" y1="493.9063" y2="493.9063"/><text fill="#000000" font-family="Verdana" font-size="14" font-weight="bold" lengthAdjust="spacing" textLength="181.6104" x="739" y="486.6045">score::ts::gptp::details</text></g><!--cluster score::ts::gptp::phc--><g id="cluster_score::ts::gptp::phc"><path d="M1471.5,471.6094 L1628.8105,471.6094 A3.75,3.75 0 0 1 1631.3105,474.1094 L1638.3105,493.9063 L1638.5,493.9063 A2.5,2.5 0 0 1 1641,496.4063 L1641,564.1094 A2.5,2.5 0 0 1 1638.5,566.6094 L1471.5,566.6094 A2.5,2.5 0 0 1 1469,564.1094 L1469,474.1094 A2.5,2.5 0 0 1 1471.5,471.6094 " fill="#FFFFFF" style="stroke:#000000;stroke-width:1;"/><line style="stroke:#000000;stroke-width:1;" x1="1469" x2="1638.3105" y1="493.9063" y2="493.9063"/><text fill="#000000" font-family="Verdana" font-size="14" font-weight="bold" lengthAdjust="spacing" textLength="156.3105" x="1473" y="486.6045">score::ts::gptp::phc</text></g><!--cluster score::ts::gptp::instrument--><g id="cluster_score::ts::gptp::instrument"><path d="M1667.5,447.1094 L1883.9277,447.1094 A3.75,3.75 0 0 1 1886.4277,449.6094 L1893.4277,469.4063 L1918.5,469.4063 A2.5,2.5 0 0 1 1921,471.9063 L1921,766.1094 A2.5,2.5 0 0 1 1918.5,768.6094 L1667.5,768.6094 A2.5,2.5 0 0 1 1665,766.1094 L1665,449.6094 A2.5,2.5 0 0 1 1667.5,447.1094 " fill="#FFFFFF" style="stroke:#000000;stroke-width:1;"/><line style="stroke:#000000;stroke-width:1;" x1="1665" x2="1893.4277" y1="469.4063" y2="469.4063"/><text fill="#000000" font-family="Verdana" font-size="14" font-weight="bold" lengthAdjust="spacing" textLength="215.4277" x="1669" y="462.1045">score::ts::gptp::instrument</text></g><!--class GptpEngine--><g id="elem_GptpEngine"><rect codeLine="7" fill="#FFFFFF" height="304.75" id="GptpEngine" rx="2.5" ry="2.5" style="stroke:#000000;stroke-width:1;" width="301.334" x="393.5" y="92.6094"/><ellipse cx="499.3706" cy="106.6094" fill="#FFFFFF" rx="9" ry="9" style="stroke:#000000;stroke-width:1;"/><path d="M502.3394,112.25 Q501.7612,112.5469 501.1206,112.6875 Q500.48,112.8438 499.7769,112.8438 Q497.2769,112.8438 495.9487,111.2031 Q494.6362,109.5469 494.6362,106.4219 Q494.6362,103.2969 495.9487,101.6406 Q497.2769,99.9844 499.7769,99.9844 Q500.48,99.9844 501.1206,100.1406 Q501.7769,100.2969 502.3394,100.5938 L502.3394,103.3125 Q501.7144,102.7344 501.1206,102.4688 Q500.5269,102.1875 499.9019,102.1875 Q498.5581,102.1875 497.8706,103.2656 Q497.1831,104.3281 497.1831,106.4219 Q497.1831,108.5156 497.8706,109.5938 Q498.5581,110.6563 499.9019,110.6563 Q500.5269,110.6563 501.1206,110.3906 Q501.7144,110.1094 502.3394,109.5313 L502.3394,112.25 Z " fill="#000000"/><text fill="#000000" font-family="Verdana" font-size="14" lengthAdjust="spacing" textLength="82.0928" x="516.8706" y="111.4561">GptpEngine</text><line style="stroke:#000000;stroke-width:1;" x1="394.5" x2="693.834" y1="120.6094" y2="120.6094"/><rect fill="transparent" height="6" style="stroke:#000000;stroke-width:1;" width="6" x="401.5" y="131.2578"/><text fill="#000000" font-family="Verdana" font-size="14" lengthAdjust="spacing" textLength="208.291" x="411.5" y="137.6045">options_ : GptpEngineOptions</text><rect fill="transparent" height="6" style="stroke:#000000;stroke-width:1;" width="6" x="401.5" y="147.5547"/><text fill="#000000" font-family="Verdana" font-size="14" lengthAdjust="spacing" textLength="165.1563" x="411.5" y="153.9014">rx_thread_ : std::thread</text><rect fill="transparent" height="6" style="stroke:#000000;stroke-width:1;" width="6" x="401.5" y="163.8516"/><text fill="#000000" font-family="Verdana" font-size="14" lengthAdjust="spacing" textLength="198.2559" x="411.5" y="170.1982">pdelay_thread_ : std::thread</text><rect fill="transparent" height="6" style="stroke:#000000;stroke-width:1;" width="6" x="401.5" y="180.1484"/><text fill="#000000" font-family="Verdana" font-size="14" lengthAdjust="spacing" textLength="277.334" x="411.5" y="186.4951">socket_ : std::unique_ptr&lt;IRawSocket&gt;</text><rect fill="transparent" height="6" style="stroke:#000000;stroke-width:1;" width="6" x="401.5" y="196.4453"/><text fill="#000000" font-family="Verdana" font-size="14" lengthAdjust="spacing" textLength="150.2539" x="411.5" y="202.792">codec_ : FrameCodec</text><rect fill="transparent" height="6" style="stroke:#000000;stroke-width:1;" width="6" x="401.5" y="212.7422"/><text fill="#000000" font-family="Verdana" font-size="14" lengthAdjust="spacing" textLength="171.3018" x="411.5" y="219.0889">parser_ : MessageParser</text><rect fill="transparent" height="6" style="stroke:#000000;stroke-width:1;" width="6" x="401.5" y="229.0391"/><text fill="#000000" font-family="Verdana" font-size="14" lengthAdjust="spacing" textLength="210.1025" x="411.5" y="235.3857">sync_sm_ : SyncStateMachine</text><rect fill="transparent" height="6" style="stroke:#000000;stroke-width:1;" width="6" x="401.5" y="245.3359"/><text fill="#000000" font-family="Verdana" font-size="14" lengthAdjust="spacing" textLength="204.8936" x="411.5" y="251.6826">pdelay_ : PeerDelayMeasurer</text><rect fill="transparent" height="6" style="stroke:#000000;stroke-width:1;" width="6" x="401.5" y="261.6328"/><text fill="#000000" font-family="Verdana" font-size="14" lengthAdjust="spacing" textLength="129.4658" x="411.5" y="267.9795">phc_ : PhcAdjuster</text><rect fill="transparent" height="6" style="stroke:#000000;stroke-width:1;" width="6" x="401.5" y="277.9297"/><text fill="#000000" font-family="Verdana" font-size="14" lengthAdjust="spacing" textLength="198.2354" x="411.5" y="284.2764">probe_mgr_ : ProbeManager</text><rect fill="transparent" height="6" style="stroke:#000000;stroke-width:1;" width="6" x="401.5" y="294.2266"/><text fill="#000000" font-family="Verdana" font-size="14" lengthAdjust="spacing" textLength="143.876" x="411.5" y="300.5732">recorder_ : Recorder</text><rect fill="transparent" height="6" style="stroke:#000000;stroke-width:1;" width="6" x="401.5" y="310.5234"/><text fill="#000000" font-family="Verdana" font-size="14" lengthAdjust="spacing" textLength="212.3721" x="411.5" y="316.8701">snapshot_mutex_ : std::mutex</text><rect fill="transparent" height="6" style="stroke:#000000;stroke-width:1;" width="6" x="401.5" y="326.8203"/><text fill="#000000" font-family="Verdana" font-size="14" lengthAdjust="spacing" textLength="214.833" x="411.5" y="333.167">latest_snapshot_ : PtpTimeInfo</text><line style="stroke:#000000;stroke-width:1;" x1="394.5" x2="693.834" y1="340.4688" y2="340.4688"/><ellipse cx="404.5" cy="354.1172" fill="#FFFFFF" rx="3" ry="3" style="stroke:#000000;stroke-width:1;"/><text fill="#000000" font-family="Verdana" font-size="14" lengthAdjust="spacing" textLength="113.0391" x="411.5" y="357.4639">Initialize() : bool</text><ellipse cx="404.5" cy="370.4141" fill="#FFFFFF" rx="3" ry="3" style="stroke:#000000;stroke-width:1;"/><text fill="#000000" font-family="Verdana" font-size="14" lengthAdjust="spacing" textLength="131.9131" x="411.5" y="373.7607">Deinitialize() : void</text><ellipse cx="404.5" cy="386.7109" fill="#FFFFFF" rx="3" ry="3" style="stroke:#000000;stroke-width:1;"/><text fill="#000000" font-family="Verdana" font-size="14" lengthAdjust="spacing" textLength="235.2383" x="411.5" y="390.0576">ReadPTPSnapshot() : PtpTimeInfo</text></g><!--class IRawSocket--><g id="elem_IRawSocket"><rect codeLine="26" fill="#FFFFFF" height="141.7813" id="IRawSocket" rx="2.5" ry="2.5" style="stroke:#000000;stroke-width:1;" width="275.1523" x="127.5" y="457.6094"/><ellipse cx="220.7036" cy="471.6094" fill="#FFFFFF" rx="9" ry="9" style="stroke:#000000;stroke-width:1;"/><path d="M216.6255,467.375 L216.6255,465.2188 L224.0161,465.2188 L224.0161,467.375 L221.5474,467.375 L221.5474,475.4531 L224.0161,475.4531 L224.0161,477.6094 L216.6255,477.6094 L216.6255,475.4531 L219.0942,475.4531 L219.0942,467.375 L216.6255,467.375 Z " fill="#000000"/><text fill="#000000" font-family="Verdana" font-size="14" font-style="italic" lengthAdjust="spacing" textLength="81.2451" x="238.2036" y="476.4561">IRawSocket</text><line style="stroke:#000000;stroke-width:1;" x1="128.5" x2="401.6523" y1="485.6094" y2="485.6094"/><line style="stroke:#000000;stroke-width:1;" x1="128.5" x2="401.6523" y1="493.6094" y2="493.6094"/><ellipse cx="138.5" cy="507.2578" fill="#FFFFFF" rx="3" ry="3" style="stroke:#000000;stroke-width:1;"/><text fill="#000000" font-family="Verdana" font-size="14" lengthAdjust="spacing" textLength="125.5488" x="145.5" y="510.6045">Open(iface) : bool</text><ellipse cx="138.5" cy="523.5547" fill="#FFFFFF" rx="3" ry="3" style="stroke:#000000;stroke-width:1;"/><text fill="#000000" font-family="Verdana" font-size="14" lengthAdjust="spacing" textLength="224.3418" x="145.5" y="526.9014">EnableHwTimestamping() : bool</text><ellipse cx="138.5" cy="539.8516" fill="#FFFFFF" rx="3" ry="3" style="stroke:#000000;stroke-width:1;"/><text fill="#000000" font-family="Verdana" font-size="14" lengthAdjust="spacing" textLength="251.1523" x="145.5" y="543.1982">Recv(buf, timeout_ms) : RecvResult</text><ellipse cx="138.5" cy="556.1484" fill="#FFFFFF" rx="3" ry="3" style="stroke:#000000;stroke-width:1;"/><text fill="#000000" font-family="Verdana" font-size="14" lengthAdjust="spacing" textLength="161.4033" x="145.5" y="559.4951">Send(buf, hw_ts) : bool</text><ellipse cx="138.5" cy="572.4453" fill="#FFFFFF" rx="3" ry="3" style="stroke:#000000;stroke-width:1;"/><text fill="#000000" font-family="Verdana" font-size="14" lengthAdjust="spacing" textLength="84.6836" x="145.5" y="575.792">GetFd() : int</text><ellipse cx="138.5" cy="588.7422" fill="#FFFFFF" rx="3" ry="3" style="stroke:#000000;stroke-width:1;"/><text fill="#000000" font-family="Verdana" font-size="14" lengthAdjust="spacing" textLength="92.3057" x="145.5" y="592.0889">Close() : void</text></g><!--class LinuxSocket--><g id="elem_LinuxSocket"><rect codeLine="35" fill="#FFFFFF" height="74.8906" id="LinuxSocket" rx="2.5" ry="2.5" style="stroke:#000000;stroke-width:1;" width="245.1328" x="27.5" y="668.6094"/><ellipse cx="107.7583" cy="689.9063" fill="#FFFFFF" rx="9" ry="9" style="stroke:#000000;stroke-width:1;"/><path d="M110.7271,695.5469 Q110.1489,695.8438 109.5083,695.9844 Q108.8677,696.1406 108.1646,696.1406 Q105.6646,696.1406 104.3364,694.5 Q103.0239,692.8438 103.0239,689.7188 Q103.0239,686.5938 104.3364,684.9375 Q105.6646,683.2813 108.1646,683.2813 Q108.8677,683.2813 109.5083,683.4375 Q110.1646,683.5938 110.7271,683.8906 L110.7271,686.6094 Q110.1021,686.0313 109.5083,685.7656 Q108.9146,685.4844 108.2896,685.4844 Q106.9458,685.4844 106.2583,686.5625 Q105.5708,687.625 105.5708,689.7188 Q105.5708,691.8125 106.2583,692.8906 Q106.9458,693.9531 108.2896,693.9531 Q108.9146,693.9531 109.5083,693.6875 Q110.1021,693.4063 110.7271,692.8281 L110.7271,695.5469 Z " fill="#000000"/><text fill="#000000" font-family="Verdana" font-size="14" lengthAdjust="spacing" textLength="77.1162" x="125.2583" y="686.6045">RawSocket</text><text fill="#000000" font-family="Verdana" font-size="14" lengthAdjust="spacing" textLength="54.8516" x="136.3906" y="702.9014">&#171;Linux&#187;</text><line style="stroke:#000000;stroke-width:1;" x1="28.5" x2="271.6328" y1="711.2031" y2="711.2031"/><text fill="#000000" font-family="Verdana" font-size="14" lengthAdjust="spacing" textLength="233.1328" x="33.5" y="728.1982">AF_PACKET + SO_TIMESTAMPING</text><line style="stroke:#000000;stroke-width:1;" x1="28.5" x2="271.6328" y1="735.5" y2="735.5"/></g><!--class QnxSocket--><g id="elem_QnxSocket"><rect codeLine="39" fill="#FFFFFF" height="74.8906" id="QnxSocket" rx="2.5" ry="2.5" style="stroke:#000000;stroke-width:1;" width="162.2813" x="308" y="668.6094"/><ellipse cx="346.8325" cy="689.9063" fill="#FFFFFF" rx="9" ry="9" style="stroke:#000000;stroke-width:1;"/><path d="M349.8013,695.5469 Q349.2231,695.8438 348.5825,695.9844 Q347.9419,696.1406 347.2388,696.1406 Q344.7388,696.1406 343.4106,694.5 Q342.0981,692.8438 342.0981,689.7188 Q342.0981,686.5938 343.4106,684.9375 Q344.7388,683.2813 347.2388,683.2813 Q347.9419,683.2813 348.5825,683.4375 Q349.2388,683.5938 349.8013,683.8906 L349.8013,686.6094 Q349.1763,686.0313 348.5825,685.7656 Q347.9888,685.4844 347.3638,685.4844 Q346.02,685.4844 345.3325,686.5625 Q344.645,687.625 344.645,689.7188 Q344.645,691.8125 345.3325,692.8906 Q346.02,693.9531 347.3638,693.9531 Q347.9888,693.9531 348.5825,693.6875 Q349.1763,693.4063 349.8013,692.8281 L349.8013,695.5469 Z " fill="#000000"/><text fill="#000000" font-family="Verdana" font-size="14" lengthAdjust="spacing" textLength="77.1162" x="364.3325" y="686.6045">RawSocket</text><text fill="#000000" font-family="Verdana" font-size="14" lengthAdjust="spacing" textLength="48.2139" x="378.7837" y="702.9014">&#171;QNX&#187;</text><line style="stroke:#000000;stroke-width:1;" x1="309" x2="469.2813" y1="711.2031" y2="711.2031"/><text fill="#000000" font-family="Verdana" font-size="14" lengthAdjust="spacing" textLength="150.2813" x="314" y="728.1982">QNX raw-socket shim</text><line style="stroke:#000000;stroke-width:1;" x1="309" x2="469.2813" y1="735.5" y2="735.5"/></g><!--class INetworkIdentity--><g id="elem_INetworkIdentity"><rect codeLine="43" fill="#FFFFFF" height="76.5938" id="INetworkIdentity" rx="2.5" ry="2.5" style="stroke:#000000;stroke-width:1;" width="256.873" x="437.5" y="490.1094"/><ellipse cx="504.0674" cy="504.1094" fill="#FFFFFF" rx="9" ry="9" style="stroke:#000000;stroke-width:1;"/><path d="M499.9893,499.875 L499.9893,497.7188 L507.3799,497.7188 L507.3799,499.875 L504.9111,499.875 L504.9111,507.9531 L507.3799,507.9531 L507.3799,510.1094 L499.9893,510.1094 L499.9893,507.9531 L502.458,507.9531 L502.458,499.875 L499.9893,499.875 Z " fill="#000000"/><text fill="#000000" font-family="Verdana" font-size="14" font-style="italic" lengthAdjust="spacing" textLength="116.2383" x="521.5674" y="508.9561">INetworkIdentity</text><line style="stroke:#000000;stroke-width:1;" x1="438.5" x2="693.373" y1="518.1094" y2="518.1094"/><line style="stroke:#000000;stroke-width:1;" x1="438.5" x2="693.373" y1="526.1094" y2="526.1094"/><ellipse cx="448.5" cy="539.7578" fill="#FFFFFF" rx="3" ry="3" style="stroke:#000000;stroke-width:1;"/><text fill="#000000" font-family="Verdana" font-size="14" lengthAdjust="spacing" textLength="143.1445" x="455.5" y="543.1045">Resolve(iface) : bool</text><ellipse cx="448.5" cy="556.0547" fill="#FFFFFF" rx="3" ry="3" style="stroke:#000000;stroke-width:1;"/><text fill="#000000" font-family="Verdana" font-size="14" lengthAdjust="spacing" textLength="232.873" x="455.5" y="559.4014">GetClockIdentity() : ClockIdentity</text></g><!--class NetworkIdentity--><g id="elem_NetworkIdentity"><rect codeLine="48" fill="#FFFFFF" height="76.5938" id="NetworkIdentity" rx="2.5" ry="2.5" style="stroke:#000000;stroke-width:1;" width="188.9893" x="505.5" y="667.6094"/><ellipse cx="540.4959" cy="681.6094" fill="#FFFFFF" rx="9" ry="9" style="stroke:#000000;stroke-width:1;"/><path d="M543.4647,687.25 Q542.8866,687.5469 542.2459,687.6875 Q541.6053,687.8438 540.9022,687.8438 Q538.4022,687.8438 537.0741,686.2031 Q535.7616,684.5469 535.7616,681.4219 Q535.7616,678.2969 537.0741,676.6406 Q538.4022,674.9844 540.9022,674.9844 Q541.6053,674.9844 542.2459,675.1406 Q542.9022,675.2969 543.4647,675.5938 L543.4647,678.3125 Q542.8397,677.7344 542.2459,677.4688 Q541.6522,677.1875 541.0272,677.1875 Q539.6834,677.1875 538.9959,678.2656 Q538.3084,679.3281 538.3084,681.4219 Q538.3084,683.5156 538.9959,684.5938 Q539.6834,685.6563 541.0272,685.6563 Q541.6522,685.6563 542.2459,685.3906 Q542.8397,685.1094 543.4647,684.5313 L543.4647,687.25 Z " fill="#000000"/><text fill="#000000" font-family="Verdana" font-size="14" lengthAdjust="spacing" textLength="112.1094" x="557.3839" y="686.4561">NetworkIdentity</text><line style="stroke:#000000;stroke-width:1;" x1="506.5" x2="693.4893" y1="695.6094" y2="695.6094"/><line style="stroke:#000000;stroke-width:1;" x1="506.5" x2="693.4893" y1="703.6094" y2="703.6094"/><text fill="#000000" font-family="Verdana" font-size="14" lengthAdjust="spacing" textLength="176.9893" x="511.5" y="720.6045">Derives EUI-64 from MAC</text><text fill="#000000" font-family="Verdana" font-size="14" lengthAdjust="spacing" textLength="134.4219" x="511.5" y="736.9014">(inserts 0xFF 0xFE)</text></g><!--class FrameCodec--><g id="elem_FrameCodec"><rect codeLine="61" fill="#FFFFFF" height="44" id="FrameCodec" rx="2.5" ry="2.5" style="stroke:#000000;stroke-width:1;" width="116.1768" x="1313" y="506.6094"/><ellipse cx="1326" cy="520.6094" fill="#FFFFFF" rx="9" ry="9" style="stroke:#000000;stroke-width:1;"/><path d="M1328.9688,526.25 Q1328.3906,526.5469 1327.75,526.6875 Q1327.1094,526.8438 1326.4063,526.8438 Q1323.9063,526.8438 1322.5781,525.2031 Q1321.2656,523.5469 1321.2656,520.4219 Q1321.2656,517.2969 1322.5781,515.6406 Q1323.9063,513.9844 1326.4063,513.9844 Q1327.1094,513.9844 1327.75,514.1406 Q1328.4063,514.2969 1328.9688,514.5938 L1328.9688,517.3125 Q1328.3438,516.7344 1327.75,516.4688 Q1327.1563,516.1875 1326.5313,516.1875 Q1325.1875,516.1875 1324.5,517.2656 Q1323.8125,518.3281 1323.8125,520.4219 Q1323.8125,522.5156 1324.5,523.5938 Q1325.1875,524.6563 1326.5313,524.6563 Q1327.1563,524.6563 1327.75,524.3906 Q1328.3438,524.1094 1328.9688,523.5313 L1328.9688,526.25 Z " fill="#000000"/><text fill="#000000" font-family="Verdana" font-size="14" lengthAdjust="spacing" textLength="88.1768" x="1338" y="525.4561">FrameCodec</text><line style="stroke:#000000;stroke-width:1;" x1="1314" x2="1428.1768" y1="534.6094" y2="534.6094"/><line style="stroke:#000000;stroke-width:1;" x1="1314" x2="1428.1768" y1="542.6094" y2="542.6094"/></g><!--class MessageParser--><g id="elem_MessageParser"><rect codeLine="62" fill="#FFFFFF" height="44" id="MessageParser" rx="2.5" ry="2.5" style="stroke:#000000;stroke-width:1;" width="133.7998" x="1144" y="506.6094"/><ellipse cx="1157" cy="520.6094" fill="#FFFFFF" rx="9" ry="9" style="stroke:#000000;stroke-width:1;"/><path d="M1159.9688,526.25 Q1159.3906,526.5469 1158.75,526.6875 Q1158.1094,526.8438 1157.4063,526.8438 Q1154.9063,526.8438 1153.5781,525.2031 Q1152.2656,523.5469 1152.2656,520.4219 Q1152.2656,517.2969 1153.5781,515.6406 Q1154.9063,513.9844 1157.4063,513.9844 Q1158.1094,513.9844 1158.75,514.1406 Q1159.4063,514.2969 1159.9688,514.5938 L1159.9688,517.3125 Q1159.3438,516.7344 1158.75,516.4688 Q1158.1563,516.1875 1157.5313,516.1875 Q1156.1875,516.1875 1155.5,517.2656 Q1154.8125,518.3281 1154.8125,520.4219 Q1154.8125,522.5156 1155.5,523.5938 Q1156.1875,524.6563 1157.5313,524.6563 Q1158.1563,524.6563 1158.75,524.3906 Q1159.3438,524.1094 1159.9688,523.5313 L1159.9688,526.25 Z " fill="#000000"/><text fill="#000000" font-family="Verdana" font-size="14" lengthAdjust="spacing" textLength="105.7998" x="1169" y="525.4561">MessageParser</text><line style="stroke:#000000;stroke-width:1;" x1="1145" x2="1276.7998" y1="534.6094" y2="534.6094"/><line style="stroke:#000000;stroke-width:1;" x1="1145" x2="1276.7998" y1="542.6094" y2="542.6094"/></g><!--class SyncStateMachine--><g id="elem_SyncStateMachine"><rect codeLine="63" fill="#FFFFFF" height="44" id="SyncStateMachine" rx="2.5" ry="2.5" style="stroke:#000000;stroke-width:1;" width="157.4043" x="951.5" y="506.6094"/><ellipse cx="964.5" cy="520.6094" fill="#FFFFFF" rx="9" ry="9" style="stroke:#000000;stroke-width:1;"/><path d="M967.4688,526.25 Q966.8906,526.5469 966.25,526.6875 Q965.6094,526.8438 964.9063,526.8438 Q962.4063,526.8438 961.0781,525.2031 Q959.7656,523.5469 959.7656,520.4219 Q959.7656,517.2969 961.0781,515.6406 Q962.4063,513.9844 964.9063,513.9844 Q965.6094,513.9844 966.25,514.1406 Q966.9063,514.2969 967.4688,514.5938 L967.4688,517.3125 Q966.8438,516.7344 966.25,516.4688 Q965.6563,516.1875 965.0313,516.1875 Q963.6875,516.1875 963,517.2656 Q962.3125,518.3281 962.3125,520.4219 Q962.3125,522.5156 963,523.5938 Q963.6875,524.6563 965.0313,524.6563 Q965.6563,524.6563 966.25,524.3906 Q966.8438,524.1094 967.4688,523.5313 L967.4688,526.25 Z " fill="#000000"/><text fill="#000000" font-family="Verdana" font-size="14" lengthAdjust="spacing" textLength="129.4043" x="976.5" y="525.4561">SyncStateMachine</text><line style="stroke:#000000;stroke-width:1;" x1="952.5" x2="1107.9043" y1="534.6094" y2="534.6094"/><line style="stroke:#000000;stroke-width:1;" x1="952.5" x2="1107.9043" y1="542.6094" y2="542.6094"/></g><!--class PeerDelayMeasurer--><g id="elem_PeerDelayMeasurer"><rect codeLine="64" fill="#FFFFFF" height="44" id="PeerDelayMeasurer" rx="2.5" ry="2.5" style="stroke:#000000;stroke-width:1;" width="165.1357" x="751.5" y="506.6094"/><ellipse cx="764.5" cy="520.6094" fill="#FFFFFF" rx="9" ry="9" style="stroke:#000000;stroke-width:1;"/><path d="M767.4688,526.25 Q766.8906,526.5469 766.25,526.6875 Q765.6094,526.8438 764.9063,526.8438 Q762.4063,526.8438 761.0781,525.2031 Q759.7656,523.5469 759.7656,520.4219 Q759.7656,517.2969 761.0781,515.6406 Q762.4063,513.9844 764.9063,513.9844 Q765.6094,513.9844 766.25,514.1406 Q766.9063,514.2969 767.4688,514.5938 L767.4688,517.3125 Q766.8438,516.7344 766.25,516.4688 Q765.6563,516.1875 765.0313,516.1875 Q763.6875,516.1875 763,517.2656 Q762.3125,518.3281 762.3125,520.4219 Q762.3125,522.5156 763,523.5938 Q763.6875,524.6563 765.0313,524.6563 Q765.6563,524.6563 766.25,524.3906 Q766.8438,524.1094 767.4688,523.5313 L767.4688,526.25 Z " fill="#000000"/><text fill="#000000" font-family="Verdana" font-size="14" lengthAdjust="spacing" textLength="137.1357" x="776.5" y="525.4561">PeerDelayMeasurer</text><line style="stroke:#000000;stroke-width:1;" x1="752.5" x2="915.6357" y1="534.6094" y2="534.6094"/><line style="stroke:#000000;stroke-width:1;" x1="752.5" x2="915.6357" y1="542.6094" y2="542.6094"/></g><!--class PhcAdjuster--><g id="elem_PhcAdjuster"><rect codeLine="68" fill="#FFFFFF" height="44" id="PhcAdjuster" rx="2.5" ry="2.5" style="stroke:#000000;stroke-width:1;" width="111.3916" x="1484.5" y="506.6094"/><ellipse cx="1497.5" cy="520.6094" fill="#FFFFFF" rx="9" ry="9" style="stroke:#000000;stroke-width:1;"/><path d="M1500.4688,526.25 Q1499.8906,526.5469 1499.25,526.6875 Q1498.6094,526.8438 1497.9063,526.8438 Q1495.4063,526.8438 1494.0781,525.2031 Q1492.7656,523.5469 1492.7656,520.4219 Q1492.7656,517.2969 1494.0781,515.6406 Q1495.4063,513.9844 1497.9063,513.9844 Q1498.6094,513.9844 1499.25,514.1406 Q1499.9063,514.2969 1500.4688,514.5938 L1500.4688,517.3125 Q1499.8438,516.7344 1499.25,516.4688 Q1498.6563,516.1875 1498.0313,516.1875 Q1496.6875,516.1875 1496,517.2656 Q1495.3125,518.3281 1495.3125,520.4219 Q1495.3125,522.5156 1496,523.5938 Q1496.6875,524.6563 1498.0313,524.6563 Q1498.6563,524.6563 1499.25,524.3906 Q1499.8438,524.1094 1500.4688,523.5313 L1500.4688,526.25 Z " fill="#000000"/><text fill="#000000" font-family="Verdana" font-size="14" lengthAdjust="spacing" textLength="83.3916" x="1509.5" y="525.4561">PhcAdjuster</text><line style="stroke:#000000;stroke-width:1;" x1="1485.5" x2="1594.8916" y1="534.6094" y2="534.6094"/><line style="stroke:#000000;stroke-width:1;" x1="1485.5" x2="1594.8916" y1="542.6094" y2="542.6094"/></g><!--class ProbeManager--><g id="elem_ProbeManager"><rect codeLine="72" fill="#FFFFFF" height="92.8906" id="ProbeManager" rx="2.5" ry="2.5" style="stroke:#000000;stroke-width:1;" width="224.416" x="1681" y="482.1094"/><ellipse cx="1738.6431" cy="496.1094" fill="#FFFFFF" rx="9" ry="9" style="stroke:#000000;stroke-width:1;"/><path d="M1741.6118,501.75 Q1741.0337,502.0469 1740.3931,502.1875 Q1739.7524,502.3438 1739.0493,502.3438 Q1736.5493,502.3438 1735.2212,500.7031 Q1733.9087,499.0469 1733.9087,495.9219 Q1733.9087,492.7969 1735.2212,491.1406 Q1736.5493,489.4844 1739.0493,489.4844 Q1739.7524,489.4844 1740.3931,489.6406 Q1741.0493,489.7969 1741.6118,490.0938 L1741.6118,492.8125 Q1740.9868,492.2344 1740.3931,491.9688 Q1739.7993,491.6875 1739.1743,491.6875 Q1737.8306,491.6875 1737.1431,492.7656 Q1736.4556,493.8281 1736.4556,495.9219 Q1736.4556,498.0156 1737.1431,499.0938 Q1737.8306,500.1563 1739.1743,500.1563 Q1739.7993,500.1563 1740.3931,499.8906 Q1740.9868,499.6094 1741.6118,499.0313 L1741.6118,501.75 Z " fill="#000000"/><text fill="#000000" font-family="Verdana" font-size="14" lengthAdjust="spacing" textLength="101.6299" x="1756.1431" y="500.9561">ProbeManager</text><line style="stroke:#000000;stroke-width:1;" x1="1682" x2="1904.416" y1="510.1094" y2="510.1094"/><line style="stroke:#000000;stroke-width:1;" x1="1682" x2="1904.416" y1="518.1094" y2="518.1094"/><ellipse cx="1692" cy="531.7578" fill="#FFFFFF" rx="3" ry="3" style="stroke:#000000;stroke-width:1;"/><text fill="#000000" font-family="Verdana" font-size="14" lengthAdjust="spacing" text-decoration="underline" textLength="196.6357" x="1699" y="535.1045">Instance() : ProbeManager&amp;</text><ellipse cx="1692" cy="548.0547" fill="#FFFFFF" rx="3" ry="3" style="stroke:#000000;stroke-width:1;"/><text fill="#000000" font-family="Verdana" font-size="14" lengthAdjust="spacing" textLength="179.5527" x="1699" y="551.4014">Record(point, data) : void</text><ellipse cx="1692" cy="564.3516" fill="#FFFFFF" rx="3" ry="3" style="stroke:#000000;stroke-width:1;"/><text fill="#000000" font-family="Verdana" font-size="14" lengthAdjust="spacing" textLength="200.416" x="1699" y="567.6982">SetRecorder(recorder) : void</text></g><!--class Recorder--><g id="elem_Recorder"><rect codeLine="78" fill="#FFFFFF" height="92.8906" id="Recorder" rx="2.5" ry="2.5" style="stroke:#000000;stroke-width:1;" width="165.5176" x="1710" y="659.6094"/><ellipse cx="1757.2012" cy="673.6094" fill="#FFFFFF" rx="9" ry="9" style="stroke:#000000;stroke-width:1;"/><path d="M1760.1699,679.25 Q1759.5918,679.5469 1758.9512,679.6875 Q1758.3105,679.8438 1757.6074,679.8438 Q1755.1074,679.8438 1753.7793,678.2031 Q1752.4668,676.5469 1752.4668,673.4219 Q1752.4668,670.2969 1753.7793,668.6406 Q1755.1074,666.9844 1757.6074,666.9844 Q1758.3105,666.9844 1758.9512,667.1406 Q1759.6074,667.2969 1760.1699,667.5938 L1760.1699,670.3125 Q1759.5449,669.7344 1758.9512,669.4688 Q1758.3574,669.1875 1757.7324,669.1875 Q1756.3887,669.1875 1755.7012,670.2656 Q1755.0137,671.3281 1755.0137,673.4219 Q1755.0137,675.5156 1755.7012,676.5938 Q1756.3887,677.6563 1757.7324,677.6563 Q1758.3574,677.6563 1758.9512,677.3906 Q1759.5449,677.1094 1760.1699,676.5313 L1760.1699,679.25 Z " fill="#000000"/><text fill="#000000" font-family="Verdana" font-size="14" lengthAdjust="spacing" textLength="63.6152" x="1774.7012" y="678.4561">Recorder</text><line style="stroke:#000000;stroke-width:1;" x1="1711" x2="1874.5176" y1="687.6094" y2="687.6094"/><rect fill="transparent" height="6" style="stroke:#000000;stroke-width:1;" width="6" x="1718" y="698.2578"/><text fill="#000000" font-family="Verdana" font-size="14" lengthAdjust="spacing" textLength="135.9053" x="1728" y="704.6045">file_ : std::ofstream</text><rect fill="transparent" height="6" style="stroke:#000000;stroke-width:1;" width="6" x="1718" y="714.5547"/><text fill="#000000" font-family="Verdana" font-size="14" lengthAdjust="spacing" textLength="141.5176" x="1728" y="720.9014">mutex_ : std::mutex</text><line style="stroke:#000000;stroke-width:1;" x1="1711" x2="1874.5176" y1="728.2031" y2="728.2031"/><ellipse cx="1721" cy="741.8516" fill="#FFFFFF" rx="3" ry="3" style="stroke:#000000;stroke-width:1;"/><text fill="#000000" font-family="Verdana" font-size="14" lengthAdjust="spacing" textLength="140.4307" x="1728" y="745.1982">Record(entry) : void</text></g><!--reverse link IRawSocket to LinuxSocket--><g id="link_IRawSocket_LinuxSocket"><path codeLine="52" d="M209.1855,614.7857 C193.7955,638.2757 187.12,648.4594 174.09,668.3494 " fill="transparent" id="IRawSocket-backto-LinuxSocket" style="stroke:#000000;stroke-width:1;stroke-dasharray:7.0,7.0;"/><polygon fill="transparent" points="219.05,599.7294,204.1668,611.4975,214.2043,618.0738,219.05,599.7294" style="stroke:#000000;stroke-width:1;"/></g><!--reverse link IRawSocket to QnxSocket--><g id="link_IRawSocket_QnxSocket"><path codeLine="53" d="M324.9282,614.4292 C341.5282,637.9192 348.97,648.4594 363.03,668.3494 " fill="transparent" id="IRawSocket-backto-QnxSocket" style="stroke:#000000;stroke-width:1;stroke-dasharray:7.0,7.0;"/><polygon fill="transparent" points="314.54,599.7294,320.0282,617.892,329.8281,610.9665,314.54,599.7294" style="stroke:#000000;stroke-width:1;"/></g><!--reverse link INetworkIdentity to NetworkIdentity--><g id="link_INetworkIdentity_NetworkIdentity"><path codeLine="54" d="M576.7156,584.9304 C582.4556,614.5404 586.98,637.9294 592.72,667.5194 " fill="transparent" id="INetworkIdentity-backto-NetworkIdentity" style="stroke:#000000;stroke-width:1;stroke-dasharray:7.0,7.0;"/><polygon fill="transparent" points="573.29,567.2594,570.8252,586.0723,582.6059,583.7885,573.29,567.2594" style="stroke:#000000;stroke-width:1;"/></g><!--reverse link GptpEngine to IRawSocket--><g id="link_GptpEngine_IRawSocket"><path codeLine="56" d="M385.0338,406.5035 C364.4438,427.2835 352.62,439.2094 334.48,457.5094 " fill="transparent" id="GptpEngine-backto-IRawSocket" style="stroke:#000000;stroke-width:1;"/><polygon fill="#000000" points="393.48,397.9794,386.4155,399.426,385.0338,406.5035,392.0983,405.0569,393.48,397.9794" style="stroke:#000000;stroke-width:1;"/></g><!--reverse link GptpEngine to INetworkIdentity--><g id="link_GptpEngine_INetworkIdentity"><path codeLine="57" d="M556.8053,409.9429 C559.4853,444.2229 561.16,465.6494 563.06,489.9594 " fill="transparent" id="GptpEngine-backto-INetworkIdentity" style="stroke:#000000;stroke-width:1;"/><polygon fill="#000000" points="555.87,397.9794,552.3498,404.2729,556.8053,409.9429,560.3255,403.6494,555.87,397.9794" style="stroke:#000000;stroke-width:1;"/></g><!--link ProbeManager to Recorder--><g id="link_ProbeManager_Recorder"><path codeLine="84" d="M1793,575.2594 C1793,601.1594 1793,627.4694 1793,653.3794 " fill="transparent" id="ProbeManager-to-Recorder" style="stroke:#000000;stroke-width:1;"/><polygon fill="#000000" points="1793,659.3794,1797,650.3794,1793,654.3794,1789,650.3794,1793,659.3794" style="stroke:#000000;stroke-width:1;"/></g><!--reverse link GptpEngine to FrameCodec--><g id="link_GptpEngine_FrameCodec"><path codeLine="87" d="M706.7229,259.0775 C866.5929,277.2875 1109.37,322.2294 1296,439.1094 C1323.14,456.1094 1345.5,486.1294 1358.55,506.4394 " fill="transparent" id="GptpEngine-backto-FrameCodec" style="stroke:#000000;stroke-width:1;"/><polygon fill="#000000" points="694.8,257.7194,700.3088,262.3727,706.7229,259.0775,701.2141,254.4241,694.8,257.7194" style="stroke:#000000;stroke-width:1;"/></g><!--reverse link GptpEngine to MessageParser--><g id="link_GptpEngine_MessageParser"><path codeLine="88" d="M706.3541,277.6215 C829.2841,305.9215 992.19,354.6794 1126,439.1094 C1154.47,457.0694 1180.17,486.5694 1195.68,506.5294 " fill="transparent" id="GptpEngine-backto-MessageParser" style="stroke:#000000;stroke-width:1;"/><polygon fill="#000000" points="694.66,274.9294,699.6097,280.1735,706.3541,277.6215,701.4044,272.3774,694.66,274.9294" style="stroke:#000000;stroke-width:1;"/></g><!--reverse link GptpEngine to SyncStateMachine--><g id="link_GptpEngine_SyncStateMachine"><path codeLine="89" d="M705.8662,313.551 C780.6062,347.491 859.6,387.9794 934,439.1094 C962.96,459.0094 992.04,487.2594 1010.48,506.4494 " fill="transparent" id="GptpEngine-backto-SyncStateMachine" style="stroke:#000000;stroke-width:1;"/><polygon fill="#000000" points="694.94,308.5894,698.7492,314.7123,705.8662,313.551,702.057,307.4281,694.94,308.5894" style="stroke:#000000;stroke-width:1;"/></g><!--reverse link GptpEngine to PeerDelayMeasurer--><g id="link_GptpEngine_PeerDelayMeasurer"><path codeLine="90" d="M703.1307,400.5774 C749.4707,445.5574 786.45,481.4494 812.31,506.5594 " fill="transparent" id="GptpEngine-backto-PeerDelayMeasurer" style="stroke:#000000;stroke-width:1;"/><polygon fill="#000000" points="694.52,392.2194,696.0394,399.2686,703.1307,400.5774,701.6113,393.5281,694.52,392.2194" style="stroke:#000000;stroke-width:1;"/></g><!--reverse link GptpEngine to PhcAdjuster--><g id="link_GptpEngine_PhcAdjuster"><path codeLine="91" d="M706.5414,254.8512 C892.4614,269.8012 1201.89,312.3894 1445,439.1094 C1476.78,455.6794 1505.73,485.7994 1523.11,506.2594 " fill="transparent" id="GptpEngine-backto-PhcAdjuster" style="stroke:#000000;stroke-width:1;"/><polygon fill="#000000" points="694.58,253.8894,700.2401,258.3574,706.5414,254.8512,700.8813,250.3832,694.58,253.8894" style="stroke:#000000;stroke-width:1;"/></g><!--reverse link GptpEngine to ProbeManager--><g id="link_GptpEngine_ProbeManager"><path codeLine="92" d="M706.6809,261.5352 C916.2809,284.1252 1293.83,335.4894 1611,439.1094 C1644.9,450.1794 1680.53,466.3894 1711.18,481.9194 " fill="transparent" id="GptpEngine-backto-ProbeManager" style="stroke:#000000;stroke-width:1;"/><polygon fill="#000000" points="694.75,260.2494,700.2868,264.8693,706.6809,261.5352,701.1441,256.9153,694.75,260.2494" style="stroke:#000000;stroke-width:1;"/></g><!--SRC=[XLNBRjf05Dtp5LCM5Mb2rKNL1K98Y4UAMX87gDH596kmBtWQUyQTkURHb7_ljKtSyOE41VBSStpVS_mE0uY0nI4NijL2WI6mhRDos4HkXGGsamXQyf2DGcuC6mk-rJngjMBkFV4jiBRnb8PU3qsljuqnRhFdLelHpylujsGwUthEpEclorICGadZifx5kC-D5aqVN0mqS3yb6lGfJ7QqAB4F8J- -IJFAUm8iy4IAtmcuCUh-RC7tommTM7nF-U2bz2bL2wFqP0Vbse1EuJaOGsrmCeCTxoWzrqGfPKcFI-G8S-u5L6OzUI8v07gS7kR0JQ9Blk8WoyG9lA7_Ap5O1hLQWnjjisoSz33daZAoEHfeHdwUyEByRESgUMm2XMwK81oA7cKdYnPI2GRTWft6mtWb8fZ9ZIg8rxGo0WKFnH_eN15fhLHeeMCGPNodX6_X2neSxT_o72QZLEESyXKJwMvkk4TRMWpHMhDhTX-3x8YKqP38HF9r25_tgMU3F8g5t3ObJ1tRTTR9veOXCLL2VJ9NUITt2p19Y1Pv2TBFoS7UHTFWxXPmwcTnA7tBFWgLgJJaPD-aTb7Ye-ptlmkP70Q3DkE6PS-rweTJrncElarMQLRtxcesdonNmxapkxjzo_d3tS-pwmTPTqmeqtpVpQyKCu68BWpb3d2lzDFC1qd2SYoDXZgdmXrSd0wrYJhY5IzddIbPwbLSZZS6BNPWsEJ7hFlbCzje5R7vSFH8so7fug9XdmxJQVetkRBzMdlL__lneztgHhpeLuvM4yeu5MCUoDB93zskvRSHhReuNTRZNiy7v28qxNCxybPLP2qtriKijpSgM0xLTUlLN4ZAoddOelRgcpGdr4b41LSSM99NMh1dkjCel1F94Jr9BxzRDlrz-PAJB7PYHUjxmtoEl46Qbe0lyjbvqTJB5_Q5MlhmRKG8XSAg3TK4FBBmroIuo9AQe8zDWKlDw7O7_zMU29KbiZQWWfJNe0BMTg62rnUYIh0cNeNipzS_]--></g></svg>