<svg xmlns="http://www.w3.org/2000/svg" xmlns:xlink="http://www.w3.org/1999/xlink" contentStyleType="text/css" data-diagram-type="CLASS" height="898px" preserveAspectRatio="none" style="width:1928px;height:898px;background:#FFFFFF;" version="1.1" viewBox="0 0 1928 898" width="1928px" zoomAndPan="magnify"><title>gPTP Engine Internal Class Diagram</title><defs/><g><text fill="#000000" font-family="Verdana" font-size="22" font-weight="bold" lengthAdjust="spacing" textLength="446.123" x="736.4385" y="35.4209">gPTP Engine Internal Class Diagram</text><rect fill="transparent" height="111.7813" id="_legend" rx="7.5" ry="7.5" style="stroke:#000000;stroke-width:1;" width="283.2666" x="10" y="56.6094"/><text fill="#000000" font-family="Verdana" font-size="14" font-weight="bold" lengthAdjust="spacing" textLength="41.2139" x="19.874" y="76.6045">Color</text><text fill="#000000" font-family="Verdana" font-size="14" font-weight="bold" lengthAdjust="spacing" textLength="90.5488" x="114.7021" y="76.6045">Description</text><rect fill="#FFA07A" height="16.2969" style="stroke:transparent;stroke-width:1;" width="94.8281" x="15" y="79.9063"/><text fill="#000000" font-family="Verdana" font-size="14" lengthAdjust="spacing" textLength="8.9004" x="15" y="92.9014">&#160;&#160;</text><text fill="#000000" font-family="Verdana" font-size="14" lengthAdjust="spacing" textLength="121.8369" x="114.2783" y="92.9014">gPTP Engine core</text><rect fill="#F5DEB3" height="16.2969" style="stroke:transparent;stroke-width:1;" width="94.8281" x="15" y="96.2031"/><text fill="#000000" font-family="Verdana" font-size="14" lengthAdjust="spacing" textLength="35.6016" x="15" y="109.1982">&#160;&#160;&#160;&#160;&#160;&#160;&#160;&#160;</text><text fill="#000000" font-family="Verdana" font-size="14" lengthAdjust="spacing" textLength="137.1768" x="114.2783" y="109.1982">Protocol processing</text><rect fill="#E6E6FA" height="16.2969" style="stroke:transparent;stroke-width:1;" width="94.8281" x="15" y="112.5"/><text fill="#000000" font-family="Verdana" font-size="14" lengthAdjust="spacing" textLength="22.251" x="15" y="125.4951">&#160;&#160;&#160;&#160;&#160;</text><text fill="#000000" font-family="Verdana" font-size="14" lengthAdjust="spacing" textLength="112.8203" x="114.2783" y="125.4951">PHC adjustment</text><rect fill="#87CEFA" height="16.2969" style="stroke:transparent;stroke-width:1;" width="94.8281" x="15" y="128.7969"/><text fill="#000000" font-family="Verdana" font-size="14" lengthAdjust="spacing" textLength="4.4502" x="15" y="141.792">&#160;</text><text fill="#000000" font-family="Verdana" font-size="14" lengthAdjust="spacing" textLength="142.8369" x="114.2783" y="141.792">Platform abstraction</text><rect fill="#F5F5DC" height="16.2969" style="stroke:transparent;stroke-width:1;" width="94.8281" x="15" y="145.0938"/><text fill="#000000" font-family="Verdana" font-size="14" lengthAdjust="spacing" textLength="35.6016" x="15" y="158.0889">&#160;&#160;&#160;&#160;&#160;&#160;&#160;&#160;</text><text fill="#000000" font-family="Verdana" font-size="14" lengthAdjust="spacing" textLength="112.4238" x="114.2783" y="158.0889">Instrumentation</text><line style="stroke:#000000;stroke-width:1;" x1="15" x2="288.2666" y1="63.6094" y2="63.6094"/><line style="stroke:#000000;stroke-width:1;" x1="15" x2="288.2666" y1="79.9063" y2="79.9063"/><line style="stroke:#000000;stroke-width:1;" x1="15" x2="288.2666" y1="96.2031" y2="96.2031"/><line style="stroke:#000000;stroke-width:1;" x1="15" x2="288.2666" y1="112.5" y2="112.5"/><line style="stroke:#000000;stroke-width:1;" x1="15" x2="288.2666" y1="128.7969" y2="128.7969"/><line style="stroke:#000000;stroke-width:1;" x1="15" x2="288.2666" y1="145.0938" y2="145.0938"/><line style="stroke:#000000;stroke-width:1;" x1="15" x2="288.2666" y1="161.3906" y2="161.3906"/><line style="stroke:#000000;stroke-width:1;" x1="15" x2="15" y1="63.6094" y2="161.3906"/><line style="stroke:#000000;stroke-width:1;" x1="109.8281" x2="109.8281" y1="63.6094" y2="161.3906"/><line style="stroke:#000000;stroke-width:1;" x1="288.2666" x2="288.2666" y1="63.6094" y2="161.3906"/><!--cluster score::ts::gptp--><g id="cluster_score::ts::gptp"><path d="M13.5,180.3906 L131.3262,180.3906 A3.75,3.75 0 0 1 133.8262,182.8906 L140.8262,202.6875 L708.5,202.6875 A2.5,2.5 0 0 1 711,205.1875 L711,880.8906 A2.5,2.5 0 0 1 708.5,883.3906 L13.5,883.3906 A2.5,2.5 0 0 1 11,880.8906 L11,182.8906 A2.5,2.5 0 0 1 13.5,180.3906 " fill="#FFFFFF" style="stroke:#000000;stroke-width:1;"/><line style="stroke:#000000;stroke-width:1;" x1="11" x2="140.8262" y1="202.6875" y2="202.6875"/><text fill="#000000" font-family="Verdana" font-size="14" font-weight="bold" lengthAdjust="spacing" textLength="116.8262" x="15" y="195.3857">score::ts::gptp</text></g><!--cluster score::ts::gptp::details--><g id="cluster_score::ts::gptp::details"><path d="M737.5,594.3906 L920.1104,594.3906 A3.75,3.75 0 0 1 922.6104,596.8906 L929.6104,616.6875 L1442.5,616.6875 A2.5,2.5 0 0 1 1445,619.1875 L1445,686.8906 A2.5,2.5 0 0 1 1442.5,689.3906 L737.5,689.3906 A2.5,2.5 0 0 1 735,686.8906 L735,596.8906 A2.5,2.5 0 0 1 737.5,594.3906 " fill="#FFFFFF" style="stroke:#000000;stroke-width:1;"/><line style="stroke:#000000;stroke-width:1;" x1="735" x2="929.6104" y1="616.6875" y2="616.6875"/><text fill="#000000" font-family="Verdana" font-size="14" font-weight="bold" lengthAdjust="spacing" textLength="181.6104" x="739" y="609.3857">score::ts::gptp::details</text></g><!--cluster score::ts::gptp::phc--><g id="cluster_score::ts::gptp::phc"><path d="M1471.5,594.3906 L1628.8105,594.3906 A3.75,3.75 0 0 1 1631.3105,596.8906 L1638.3105,616.6875 L1638.5,616.6875 A2.5,2.5 0 0 1 1641,619.1875 L1641,686.8906 A2.5,2.5 0 0 1 1638.5,689.3906 L1471.5,689.3906 A2.5,2.5 0 0 1 1469,686.8906 L1469,596.8906 A2.5,2.5 0 0 1 1471.5,594.3906 " fill="#FFFFFF" style="stroke:#000000;stroke-width:1;"/><line style="stroke:#000000;stroke-width:1;" x1="1469" x2="1638.3105" y1="616.6875" y2="616.6875"/><text fill="#000000" font-family="Verdana" font-size="14" font-weight="bold" lengthAdjust="spacing" textLength="156.3105" x="1473" y="609.3857">score::ts::gptp::phc</text></g><!--cluster score::ts::gptp::instrument--><g id="cluster_score::ts::gptp::instrument"><path d="M1667.5,569.8906 L1883.9277,569.8906 A3.75,3.75 0 0 1 1886.4277,572.3906 L1893.4277,592.1875 L1918.5,592.1875 A2.5,2.5 0 0 1 1921,594.6875 L1921,888.8906 A2.5,2.5 0 0 1 1918.5,891.3906 L1667.5,891.3906 A2.5,2.5 0 0 1 1665,888.8906 L1665,572.3906 A2.5,2.5 0 0 1 1667.5,569.8906 " fill="#FFFFFF" style="stroke:#000000;stroke-width:1;"/><line style="stroke:#000000;stroke-width:1;" x1="1665" x2="1893.4277" y1="592.1875" y2="592.1875"/><text fill="#000000" font-family="Verdana" font-size="14" font-weight="bold" lengthAdjust="spacing" textLength="215.4277" x="1669" y="584.8857">score::ts::gptp::instrument</text></g><!--class GptpEngine--><g id="elem_GptpEngine"><rect codeLine="16" fill="#FFA07A" height="304.75" id="GptpEngine" rx="2.5" ry="2.5" style="stroke:#000000;stroke-width:1;" width="301.334" x="393.5" y="215.3906"/><ellipse cx="499.3706" cy="229.3906" fill="#FFFFFF" rx="9" ry="9" style="stroke:#000000;stroke-width:1;"/><path d="M502.3394,235.0313 Q501.7612,235.3281 501.1206,235.4688 Q500.48,235.625 499.7769,235.625 Q497.2769,235.625 495.9487,233.9844 Q494.6362,232.3281 494.6362,229.2031 Q494.6362,226.0781 495.9487,224.4219 Q497.2769,222.7656 499.7769,222.7656 Q500.48,222.7656 501.1206,222.9219 Q501.7769,223.0781 502.3394,223.375 L502.3394,226.0938 Q501.7144,225.5156 501.1206,225.25 Q500.5269,224.9688 499.9019,224.9688 Q498.5581,224.9688 497.8706,226.0469 Q497.1831,227.1094 497.1831,229.2031 Q497.1831,231.2969 497.8706,232.375 Q498.5581,233.4375 499.9019,233.4375 Q500.5269,233.4375 501.1206,233.1719 Q501.7144,232.8906 502.3394,232.3125 L502.3394,235.0313 Z " fill="#000000"/><text fill="#000000" font-family="Verdana" font-size="14" lengthAdjust="spacing" textLength="82.0928" x="516.8706" y="234.2373">GptpEngine</text><line style="stroke:#000000;stroke-width:1;" x1="394.5" x2="693.834" y1="243.3906" y2="243.3906"/><rect fill="transparent" height="6" style="stroke:#000000;stroke-width:1;" width="6" x="401.5" y="254.0391"/><text fill="#000000" font-family="Verdana" font-size="14" lengthAdjust="spacing" textLength="208.291" x="411.5" y="260.3857">options_ : GptpEngineOptions</text><rect fill="transparent" height="6" style="stroke:#000000;stroke-width:1;" width="6" x="401.5" y="270.3359"/><text fill="#000000" font-family="Verdana" font-size="14" lengthAdjust="spacing" textLength="165.1563" x="411.5" y="276.6826">rx_thread_ : std::thread</text><rect fill="transparent" height="6" style="stroke:#000000;stroke-width:1;" width="6" x="401.5" y="286.6328"/><text fill="#000000" font-family="Verdana" font-size="14" lengthAdjust="spacing" textLength="198.2559" x="411.5" y="292.9795">pdelay_thread_ : std::thread</text><rect fill="transparent" height="6" style="stroke:#000000;stroke-width:1;" width="6" x="401.5" y="302.9297"/><text fill="#000000" font-family="Verdana" font-size="14" lengthAdjust="spacing" textLength="277.334" x="411.5" y="309.2764">socket_ : std::unique_ptr&lt;IRawSocket&gt;</text><rect fill="transparent" height="6" style="stroke:#000000;stroke-width:1;" width="6" x="401.5" y="319.2266"/><text fill="#000000" font-family="Verdana" font-size="14" lengthAdjust="spacing" textLength="150.2539" x="411.5" y="325.5732">codec_ : FrameCodec</text><rect fill="transparent" height="6" style="stroke:#000000;stroke-width:1;" width="6" x="401.5" y="335.5234"/><text fill="#000000" font-family="Verdana" font-size="14" lengthAdjust="spacing" textLength="171.3018" x="411.5" y="341.8701">parser_ : MessageParser</text><rect fill="transparent" height="6" style="stroke:#000000;stroke-width:1;" width="6" x="401.5" y="351.8203"/><text fill="#000000" font-family="Verdana" font-size="14" lengthAdjust="spacing" textLength="210.1025" x="411.5" y="358.167">sync_sm_ : SyncStateMachine</text><rect fill="transparent" height="6" style="stroke:#000000;stroke-width:1;" width="6" x="401.5" y="368.1172"/><text fill="#000000" font-family="Verdana" font-size="14" lengthAdjust="spacing" textLength="204.8936" x="411.5" y="374.4639">pdelay_ : PeerDelayMeasurer</text><rect fill="transparent" height="6" style="stroke:#000000;stroke-width:1;" width="6" x="401.5" y="384.4141"/><text fill="#000000" font-family="Verdana" font-size="14" lengthAdjust="spacing" textLength="129.4658" x="411.5" y="390.7607">phc_ : PhcAdjuster</text><rect fill="transparent" height="6" style="stroke:#000000;stroke-width:1;" width="6" x="401.5" y="400.7109"/><text fill="#000000" font-family="Verdana" font-size="14" lengthAdjust="spacing" textLength="198.2354" x="411.5" y="407.0576">probe_mgr_ : ProbeManager</text><rect fill="transparent" height="6" style="stroke:#000000;stroke-width:1;" width="6" x="401.5" y="417.0078"/><text fill="#000000" font-family="Verdana" font-size="14" lengthAdjust="spacing" textLength="143.876" x="411.5" y="423.3545">recorder_ : Recorder</text><rect fill="transparent" height="6" style="stroke:#000000;stroke-width:1;" width="6" x="401.5" y="433.3047"/><text fill="#000000" font-family="Verdana" font-size="14" lengthAdjust="spacing" textLength="212.3721" x="411.5" y="439.6514">snapshot_mutex_ : std::mutex</text><rect fill="transparent" height="6" style="stroke:#000000;stroke-width:1;" width="6" x="401.5" y="449.6016"/><text fill="#000000" font-family="Verdana" font-size="14" lengthAdjust="spacing" textLength="214.833" x="411.5" y="455.9482">latest_snapshot_ : PtpTimeInfo</text><line style="stroke:#000000;stroke-width:1;" x1="394.5" x2="693.834" y1="463.25" y2="463.25"/><ellipse cx="404.5" cy="476.8984" fill="#FFFFFF" rx="3" ry="3" style="stroke:#000000;stroke-width:1;"/><text fill="#000000" font-family="Verdana" font-size="14" lengthAdjust="spacing" textLength="113.0391" x="411.5" y="480.2451">Initialize() : bool</text><ellipse cx="404.5" cy="493.1953" fill="#FFFFFF" rx="3" ry="3" style="stroke:#000000;stroke-width:1;"/><text fill="#000000" font-family="Verdana" font-size="14" lengthAdjust="spacing" textLength="131.9131" x="411.5" y="496.542">Deinitialize() : void</text><ellipse cx="404.5" cy="509.4922" fill="#FFFFFF" rx="3" ry="3" style="stroke:#000000;stroke-width:1;"/><text fill="#000000" font-family="Verdana" font-size="14" lengthAdjust="spacing" textLength="235.2383" x="411.5" y="512.8389">ReadPTPSnapshot() : PtpTimeInfo</text></g><!--class IRawSocket--><g id="elem_IRawSocket"><rect codeLine="35" fill="#87CEFA" height="141.7813" id="IRawSocket" rx="2.5" ry="2.5" style="stroke:#000000;stroke-width:1;" width="275.1523" x="127.5" y="580.3906"/><ellipse cx="220.7036" cy="594.3906" fill="#FFFFFF" rx="9" ry="9" style="stroke:#000000;stroke-width:1;"/><path d="M216.6255,590.1563 L216.6255,588 L224.0161,588 L224.0161,590.1563 L221.5474,590.1563 L221.5474,598.2344 L224.0161,598.2344 L224.0161,600.3906 L216.6255,600.3906 L216.6255,598.2344 L219.0942,598.2344 L219.0942,590.1563 L216.6255,590.1563 Z " fill="#000000"/><text fill="#000000" font-family="Verdana" font-size="14" font-style="italic" lengthAdjust="spacing" textLength="81.2451" x="238.2036" y="599.2373">IRawSocket</text><line style="stroke:#000000;stroke-width:1;" x1="128.5" x2="401.6523" y1="608.3906" y2="608.3906"/><line style="stroke:#000000;stroke-width:1;" x1="128.5" x2="401.6523" y1="616.3906" y2="616.3906"/><ellipse cx="138.5" cy="630.0391" fill="#FFFFFF" rx="3" ry="3" style="stroke:#000000;stroke-width:1;"/><text fill="#000000" font-family="Verdana" font-size="14" lengthAdjust="spacing" textLength="125.5488" x="145.5" y="633.3857">Open(iface) : bool</text><ellipse cx="138.5" cy="646.3359" fill="#FFFFFF" rx="3" ry="3" style="stroke:#000000;stroke-width:1;"/><text fill="#000000" font-family="Verdana" font-size="14" lengthAdjust="spacing" textLength="224.3418" x="145.5" y="649.6826">EnableHwTimestamping() : bool</text><ellipse cx="138.5" cy="662.6328" fill="#FFFFFF" rx="3" ry="3" style="stroke:#000000;stroke-width:1;"/><text fill="#000000" font-family="Verdana" font-size="14" lengthAdjust="spacing" textLength="251.1523" x="145.5" y="665.9795">Recv(buf, timeout_ms) : RecvResult</text><ellipse cx="138.5" cy="678.9297" fill="#FFFFFF" rx="3" ry="3" style="stroke:#000000;stroke-width:1;"/><text fill="#000000" font-family="Verdana" font-size="14" lengthAdjust="spacing" textLength="161.4033" x="145.5" y="682.2764">Send(buf, hw_ts) : bool</text><ellipse cx="138.5" cy="695.2266" fill="#FFFFFF" rx="3" ry="3" style="stroke:#000000;stroke-width:1;"/><text fill="#000000" font-family="Verdana" font-size="14" lengthAdjust="spacing" textLength="84.6836" x="145.5" y="698.5732">GetFd() : int</text><ellipse cx="138.5" cy="711.5234" fill="#FFFFFF" rx="3" ry="3" style="stroke:#000000;stroke-width:1;"/><text fill="#000000" font-family="Verdana" font-size="14" lengthAdjust="spacing" textLength="92.3057" x="145.5" y="714.8701">Close() : void</text></g><!--class LinuxSocket--><g id="elem_LinuxSocket"><rect codeLine="44" fill="#87CEFA" height="74.8906" id="LinuxSocket" rx="2.5" ry="2.5" style="stroke:#000000;stroke-width:1;" width="245.1328" x="27.5" y="791.3906"/><ellipse cx="107.7583" cy="812.6875" fill="#FFFFFF" rx="9" ry="9" style="stroke:#000000;stroke-width:1;"/><path d="M110.7271,818.3281 Q110.1489,818.625 109.5083,818.7656 Q108.8677,818.9219 108.1646,818.9219 Q105.6646,818.9219 104.3364,817.2813 Q103.0239,815.625 103.0239,812.5 Q103.0239,809.375 104.3364,807.7188 Q105.6646,806.0625 108.1646,806.0625 Q108.8677,806.0625 109.5083,806.2188 Q110.1646,806.375 110.7271,806.6719 L110.7271,809.3906 Q110.1021,808.8125 109.5083,808.5469 Q108.9146,808.2656 108.2896,808.2656 Q106.9458,808.2656 106.2583,809.3438 Q105.5708,810.4063 105.5708,812.5 Q105.5708,814.5938 106.2583,815.6719 Q106.9458,816.7344 108.2896,816.7344 Q108.9146,816.7344 109.5083,816.4688 Q110.1021,816.1875 110.7271,815.6094 L110.7271,818.3281 Z " fill="#000000"/><text fill="#000000" font-family="Verdana" font-size="14" lengthAdjust="spacing" textLength="77.1162" x="125.2583" y="809.3857">RawSocket</text><text fill="#000000" font-family="Verdana" font-size="14" lengthAdjust="spacing" textLength="54.8516" x="136.3906" y="825.6826">&#171;Linux&#187;</text><line style="stroke:#000000;stroke-width:1;" x1="28.5" x2="271.6328" y1="833.9844" y2="833.9844"/><text fill="#000000" font-family="Verdana" font-size="14" lengthAdjust="spacing" textLength="233.1328" x="33.5" y="850.9795">AF_PACKET + SO_TIMESTAMPING</text><line style="stroke:#000000;stroke-width:1;" x1="28.5" x2="271.6328" y1="858.2813" y2="858.2813"/></g><!--class QnxSocket--><g id="elem_QnxSocket"><rect codeLine="48" fill="#87CEFA" height="74.8906" id="QnxSocket" rx="2.5" ry="2.5" style="stroke:#000000;stroke-width:1;" width="162.2813" x="308" y="791.3906"/><ellipse cx="346.8325" cy="812.6875" fill="#FFFFFF" rx="9" ry="9" style="stroke:#000000;stroke-width:1;"/><path d="M349.8013,818.3281 Q349.2231,818.625 348.5825,818.7656 Q347.9419,818.9219 347.2388,818.9219 Q344.7388,818.9219 343.4106,817.2813 Q342.0981,815.625 342.0981,812.5 Q342.0981,809.375 343.4106,807.7188 Q344.7388,806.0625 347.2388,806.0625 Q347.9419,806.0625 348.5825,806.2188 Q349.2388,806.375 349.8013,806.6719 L349.8013,809.3906 Q349.1763,808.8125 348.5825,808.5469 Q347.9888,808.2656 347.3638,808.2656 Q346.02,808.2656 345.3325,809.3438 Q344.645,810.4063 344.645,812.5 Q344.645,814.5938 345.3325,815.6719 Q346.02,816.7344 347.3638,816.7344 Q347.9888,816.7344 348.5825,816.4688 Q349.1763,816.1875 349.8013,815.6094 L349.8013,818.3281 Z " fill="#000000"/><text fill="#000000" font-family="Verdana" font-size="14" lengthAdjust="spacing" textLength="77.1162" x="364.3325" y="809.3857">RawSocket</text><text fill="#000000" font-family="Verdana" font-size="14" lengthAdjust="spacing" textLength="48.2139" x="378.7837" y="825.6826">&#171;QNX&#187;</text><line style="stroke:#000000;stroke-width:1;" x1="309" x2="469.2813" y1="833.9844" y2="833.9844"/><text fill="#000000" font-family="Verdana" font-size="14" lengthAdjust="spacing" textLength="150.2813" x="314" y="850.9795">QNX raw-socket shim</text><line style="stroke:#000000;stroke-width:1;" x1="309" x2="469.2813" y1="858.2813" y2="858.2813"/></g><!--class INetworkIdentity--><g id="elem_INetworkIdentity"><rect codeLine="52" fill="#87CEFA" height="76.5938" id="INetworkIdentity" rx="2.5" ry="2.5" style="stroke:#000000;stroke-width:1;" width="256.873" x="437.5" y="612.8906"/><ellipse cx="504.0674" cy="626.8906" fill="#FFFFFF" rx="9" ry="9" style="stroke:#000000;stroke-width:1;"/><path d="M499.9893,622.6563 L499.9893,620.5 L507.3799,620.5 L507.3799,622.6563 L504.9111,622.6563 L504.9111,630.7344 L507.3799,630.7344 L507.3799,632.8906 L499.9893,632.8906 L499.9893,630.7344 L502.458,630.7344 L502.458,622.6563 L499.9893,622.6563 Z " fill="#000000"/><text fill="#000000" font-family="Verdana" font-size="14" font-style="italic" lengthAdjust="spacing" textLength="116.2383" x="521.5674" y="631.7373">INetworkIdentity</text><line style="stroke:#000000;stroke-width:1;" x1="438.5" x2="693.373" y1="640.8906" y2="640.8906"/><line style="stroke:#000000;stroke-width:1;" x1="438.5" x2="693.373" y1="648.8906" y2="648.8906"/><ellipse cx="448.5" cy="662.5391" fill="#FFFFFF" rx="3" ry="3" style="stroke:#000000;stroke-width:1;"/><text fill="#000000" font-family="Verdana" font-size="14" lengthAdjust="spacing" textLength="143.1445" x="455.5" y="665.8857">Resolve(iface) : bool</text><ellipse cx="448.5" cy="678.8359" fill="#FFFFFF" rx="3" ry="3" style="stroke:#000000;stroke-width:1;"/><text fill="#000000" font-family="Verdana" font-size="14" lengthAdjust="spacing" textLength="232.873" x="455.5" y="682.1826">GetClockIdentity() : ClockIdentity</text></g><!--class NetworkIdentity--><g id="elem_NetworkIdentity"><rect codeLine="57" fill="#87CEFA" height="76.5938" id="NetworkIdentity" rx="2.5" ry="2.5" style="stroke:#000000;stroke-width:1;" width="188.9893" x="505.5" y="790.3906"/><ellipse cx="540.4959" cy="804.3906" fill="#FFFFFF" rx="9" ry="9" style="stroke:#000000;stroke-width:1;"/><path d="M543.4647,810.0313 Q542.8866,810.3281 542.2459,810.4688 Q541.6053,810.625 540.9022,810.625 Q538.4022,810.625 537.0741,808.9844 Q535.7616,807.3281 535.7616,804.2031 Q535.7616,801.0781 537.0741,799.4219 Q538.4022,797.7656 540.9022,797.7656 Q541.6053,797.7656 542.2459,797.9219 Q542.9022,798.0781 543.4647,798.375 L543.4647,801.0938 Q542.8397,800.5156 542.2459,800.25 Q541.6522,799.9688 541.0272,799.9688 Q539.6834,799.9688 538.9959,801.0469 Q538.3084,802.1094 538.3084,804.2031 Q538.3084,806.2969 538.9959,807.375 Q539.6834,808.4375 541.0272,808.4375 Q541.6522,808.4375 542.2459,808.1719 Q542.8397,807.8906 543.4647,807.3125 L543.4647,810.0313 Z " fill="#000000"/><text fill="#000000" font-family="Verdana" font-size="14" lengthAdjust="spacing" textLength="112.1094" x="557.3839" y="809.2373">NetworkIdentity</text><line style="stroke:#000000;stroke-width:1;" x1="506.5" x2="693.4893" y1="818.3906" y2="818.3906"/><line style="stroke:#000000;stroke-width:1;" x1="506.5" x2="693.4893" y1="826.3906" y2="826.3906"/><text fill="#000000" font-family="Verdana" font-size="14" lengthAdjust="spacing" textLength="176.9893" x="511.5" y="843.3857">Derives EUI-64 from MAC</text><text fill="#000000" font-family="Verdana" font-size="14" lengthAdjust="spacing" textLength="134.4219" x="511.5" y="859.6826">(inserts 0xFF 0xFE)</text></g><!--class FrameCodec--><g id="elem_FrameCodec"><rect codeLine="70" fill="#F5DEB3" height="44" id="FrameCodec" rx="2.5" ry="2.5" style="stroke:#000000;stroke-width:1;" width="116.1768" x="1313" y="629.3906"/><ellipse cx="1326" cy="643.3906" fill="#FFFFFF" rx="9" ry="9" style="stroke:#000000;stroke-width:1;"/><path d="M1328.9688,649.0313 Q1328.3906,649.3281 1327.75,649.4688 Q1327.1094,649.625 1326.4063,649.625 Q1323.9063,649.625 1322.5781,647.9844 Q1321.2656,646.3281 1321.2656,643.2031 Q1321.2656,640.0781 1322.5781,638.4219 Q1323.9063,636.7656 1326.4063,636.7656 Q1327.1094,636.7656 1327.75,636.9219 Q1328.4063,637.0781 1328.9688,637.375 L1328.9688,640.0938 Q1328.3438,639.5156 1327.75,639.25 Q1327.1563,638.9688 1326.5313,638.9688 Q1325.1875,638.9688 1324.5,640.0469 Q1323.8125,641.1094 1323.8125,643.2031 Q1323.8125,645.2969 1324.5,646.375 Q1325.1875,647.4375 1326.5313,647.4375 Q1327.1563,647.4375 1327.75,647.1719 Q1328.3438,646.8906 1328.9688,646.3125 L1328.9688,649.0313 Z " fill="#000000"/><text fill="#000000" font-family="Verdana" font-size="14" lengthAdjust="spacing" textLength="88.1768" x="1338" y="648.2373">FrameCodec</text><line style="stroke:#000000;stroke-width:1;" x1="1314" x2="1428.1768" y1="657.3906" y2="657.3906"/><line style="stroke:#000000;stroke-width:1;" x1="1314" x2="1428.1768" y1="665.3906" y2="665.3906"/></g><!--class MessageParser--><g id="elem_MessageParser"><rect codeLine="71" fill="#F5DEB3" height="44" id="MessageParser" rx="2.5" ry="2.5" style="stroke:#000000;stroke-width:1;" width="133.7998" x="1144" y="629.3906"/><ellipse cx="1157" cy="643.3906" fill="#FFFFFF" rx="9" ry="9" style="stroke:#000000;stroke-width:1;"/><path d="M1159.9688,649.0313 Q1159.3906,649.3281 1158.75,649.4688 Q1158.1094,649.625 1157.4063,649.625 Q1154.9063,649.625 1153.5781,647.9844 Q1152.2656,646.3281 1152.2656,643.2031 Q1152.2656,640.0781 1153.5781,638.4219 Q1154.9063,636.7656 1157.4063,636.7656 Q1158.1094,636.7656 1158.75,636.9219 Q1159.4063,637.0781 1159.9688,637.375 L1159.9688,640.0938 Q1159.3438,639.5156 1158.75,639.25 Q1158.1563,638.9688 1157.5313,638.9688 Q1156.1875,638.9688 1155.5,640.0469 Q1154.8125,641.1094 1154.8125,643.2031 Q1154.8125,645.2969 1155.5,646.375 Q1156.1875,647.4375 1157.5313,647.4375 Q1158.1563,647.4375 1158.75,647.1719 Q1159.3438,646.8906 1159.9688,646.3125 L1159.9688,649.0313 Z " fill="#000000"/><text fill="#000000" font-family="Verdana" font-size="14" lengthAdjust="spacing" textLength="105.7998" x="1169" y="648.2373">MessageParser</text><line style="stroke:#000000;stroke-width:1;" x1="1145" x2="1276.7998" y1="657.3906" y2="657.3906"/><line style="stroke:#000000;stroke-width:1;" x1="1145" x2="1276.7998" y1="665.3906" y2="665.3906"/></g><!--class SyncStateMachine--><g id="elem_SyncStateMachine"><rect codeLine="72" fill="#F5DEB3" height="44" id="SyncStateMachine" rx="2.5" ry="2.5" style="stroke:#000000;stroke-width:1;" width="157.4043" x="951.5" y="629.3906"/><ellipse cx="964.5" cy="643.3906" fill="#FFFFFF" rx="9" ry="9" style="stroke:#000000;stroke-width:1;"/><path d="M967.4688,649.0313 Q966.8906,649.3281 966.25,649.4688 Q965.6094,649.625 964.9063,649.625 Q962.4063,649.625 961.0781,647.9844 Q959.7656,646.3281 959.7656,643.2031 Q959.7656,640.0781 961.0781,638.4219 Q962.4063,636.7656 964.9063,636.7656 Q965.6094,636.7656 966.25,636.9219 Q966.9063,637.0781 967.4688,637.375 L967.4688,640.0938 Q966.8438,639.5156 966.25,639.25 Q965.6563,638.9688 965.0313,638.9688 Q963.6875,638.9688 963,640.0469 Q962.3125,641.1094 962.3125,643.2031 Q962.3125,645.2969 963,646.375 Q963.6875,647.4375 965.0313,647.4375 Q965.6563,647.4375 966.25,647.1719 Q966.8438,646.8906 967.4688,646.3125 L967.4688,649.0313 Z " fill="#000000"/><text fill="#000000" font-family="Verdana" font-size="14" lengthAdjust="spacing" textLength="129.4043" x="976.5" y="648.2373">SyncStateMachine</text><line style="stroke:#000000;stroke-width:1;" x1="952.5" x2="1107.9043" y1="657.3906" y2="657.3906"/><line style="stroke:#000000;stroke-width:1;" x1="952.5" x2="1107.9043" y1="665.3906" y2="665.3906"/></g><!--class PeerDelayMeasurer--><g id="elem_PeerDelayMeasurer"><rect codeLine="73" fill="#F5DEB3" height="44" id="PeerDelayMeasurer" rx="2.5" ry="2.5" style="stroke:#000000;stroke-width:1;" width="165.1357" x="751.5" y="629.3906"/><ellipse cx="764.5" cy="643.3906" fill="#FFFFFF" rx="9" ry="9" style="stroke:#000000;stroke-width:1;"/><path d="M767.4688,649.0313 Q766.8906,649.3281 766.25,649.4688 Q765.6094,649.625 764.9063,649.625 Q762.4063,649.625 761.0781,647.9844 Q759.7656,646.3281 759.7656,643.2031 Q759.7656,640.0781 761.0781,638.4219 Q762.4063,636.7656 764.9063,636.7656 Q765.6094,636.7656 766.25,636.9219 Q766.9063,637.0781 767.4688,637.375 L767.4688,640.0938 Q766.8438,639.5156 766.25,639.25 Q765.6563,638.9688 765.0313,638.9688 Q763.6875,638.9688 763,640.0469 Q762.3125,641.1094 762.3125,643.2031 Q762.3125,645.2969 763,646.375 Q763.6875,647.4375 765.0313,647.4375 Q765.6563,647.4375 766.25,647.1719 Q766.8438,646.8906 767.4688,646.3125 L767.4688,649.0313 Z " fill="#000000"/><text fill="#000000" font-family="Verdana" font-size="14" lengthAdjust="spacing" textLength="137.1357" x="776.5" y="648.2373">PeerDelayMeasurer</text><line style="stroke:#000000;stroke-width:1;" x1="752.5" x2="915.6357" y1="657.3906" y2="657.3906"/><line style="stroke:#000000;stroke-width:1;" x1="752.5" x2="915.6357" y1="665.3906" y2="665.3906"/></g><!--class PhcAdjuster--><g id="elem_PhcAdjuster"><rect codeLine="77" fill="#E6E6FA" height="44" id="PhcAdjuster" rx="2.5" ry="2.5" style="stroke:#000000;stroke-width:1;" width="111.3916" x="1484.5" y="629.3906"/><ellipse cx="1497.5" cy="643.3906" fill="#FFFFFF" rx="9" ry="9" style="stroke:#000000;stroke-width:1;"/><path d="M1500.4688,649.0313 Q1499.8906,649.3281 1499.25,649.4688 Q1498.6094,649.625 1497.9063,649.625 Q1495.4063,649.625 1494.0781,647.9844 Q1492.7656,646.3281 1492.7656,643.2031 Q1492.7656,640.0781 1494.0781,638.4219 Q1495.4063,636.7656 1497.9063,636.7656 Q1498.6094,636.7656 1499.25,636.9219 Q1499.9063,637.0781 1500.4688,637.375 L1500.4688,640.0938 Q1499.8438,639.5156 1499.25,639.25 Q1498.6563,638.9688 1498.0313,638.9688 Q1496.6875,638.9688 1496,640.0469 Q1495.3125,641.1094 1495.3125,643.2031 Q1495.3125,645.2969 1496,646.375 Q1496.6875,647.4375 1498.0313,647.4375 Q1498.6563,647.4375 1499.25,647.1719 Q1499.8438,646.8906 1500.4688,646.3125 L1500.4688,649.0313 Z " fill="#000000"/><text fill="#000000" font-family="Verdana" font-size="14" lengthAdjust="spacing" textLength="83.3916" x="1509.5" y="648.2373">PhcAdjuster</text><line style="stroke:#000000;stroke-width:1;" x1="1485.5" x2="1594.8916" y1="657.3906" y2="657.3906"/><line style="stroke:#000000;stroke-width:1;" x1="1485.5" x2="1594.8916" y1="665.3906" y2="665.3906"/></g><!--class ProbeManager--><g id="elem_ProbeManager"><rect codeLine="81" fill="#F5F5DC" height="92.8906" id="ProbeManager" rx="2.5" ry="2.5" style="stroke:#000000;stroke-width:1;" width="224.416" x="1681" y="604.8906"/><ellipse cx="1738.6431" cy="618.8906" fill="#FFFFFF" rx="9" ry="9" style="stroke:#000000;stroke-width:1;"/><path d="M1741.6118,624.5313 Q1741.0337,624.8281 1740.3931,624.9688 Q1739.7524,625.125 1739.0493,625.125 Q1736.5493,625.125 1735.2212,623.4844 Q1733.9087,621.8281 1733.9087,618.7031 Q1733.9087,615.5781 1735.2212,613.9219 Q1736.5493,612.2656 1739.0493,612.2656 Q1739.7524,612.2656 1740.3931,612.4219 Q1741.0493,612.5781 1741.6118,612.875 L1741.6118,615.5938 Q1740.9868,615.0156 1740.3931,614.75 Q1739.7993,614.4688 1739.1743,614.4688 Q1737.8306,614.4688 1737.1431,615.5469 Q1736.4556,616.6094 1736.4556,618.7031 Q1736.4556,620.7969 1737.1431,621.875 Q1737.8306,622.9375 1739.1743,622.9375 Q1739.7993,622.9375 1740.3931,622.6719 Q1740.9868,622.3906 1741.6118,621.8125 L1741.6118,624.5313 Z " fill="#000000"/><text fill="#000000" font-family="Verdana" font-size="14" lengthAdjust="spacing" textLength="101.6299" x="1756.1431" y="623.7373">ProbeManager</text><line style="stroke:#000000;stroke-width:1;" x1="1682" x2="1904.416" y1="632.8906" y2="632.8906"/><line style="stroke:#000000;stroke-width:1;" x1="1682" x2="1904.416" y1="640.8906" y2="640.8906"/><ellipse cx="1692" cy="654.5391" fill="#FFFFFF" rx="3" ry="3" style="stroke:#000000;stroke-width:1;"/><text fill="#000000" font-family="Verdana" font-size="14" lengthAdjust="spacing" text-decoration="underline" textLength="196.6357" x="1699" y="657.8857">Instance() : ProbeManager&amp;</text><ellipse cx="1692" cy="670.8359" fill="#FFFFFF" rx="3" ry="3" style="stroke:#000000;stroke-width:1;"/><text fill="#000000" font-family="Verdana" font-size="14" lengthAdjust="spacing" textLength="179.5527" x="1699" y="674.1826">Record(point, data) : void</text><ellipse cx="1692" cy="687.1328" fill="#FFFFFF" rx="3" ry="3" style="stroke:#000000;stroke-width:1;"/><text fill="#000000" font-family="Verdana" font-size="14" lengthAdjust="spacing" textLength="200.416" x="1699" y="690.4795">SetRecorder(recorder) : void</text></g><!--class Recorder--><g id="elem_Recorder"><rect codeLine="87" fill="#F5F5DC" height="92.8906" id="Recorder" rx="2.5" ry="2.5" style="stroke:#000000;stroke-width:1;" width="165.5176" x="1710" y="782.3906"/><ellipse cx="1757.2012" cy="796.3906" fill="#FFFFFF" rx="9" ry="9" style="stroke:#000000;stroke-width:1;"/><path d="M1760.1699,802.0313 Q1759.5918,802.3281 1758.9512,802.4688 Q1758.3105,802.625 1757.6074,802.625 Q1755.1074,802.625 1753.7793,800.9844 Q1752.4668,799.3281 1752.4668,796.2031 Q1752.4668,793.0781 1753.7793,791.4219 Q1755.1074,789.7656 1757.6074,789.7656 Q1758.3105,789.7656 1758.9512,789.9219 Q1759.6074,790.0781 1760.1699,790.375 L1760.1699,793.0938 Q1759.5449,792.5156 1758.9512,792.25 Q1758.3574,791.9688 1757.7324,791.9688 Q1756.3887,791.9688 1755.7012,793.0469 Q1755.0137,794.1094 1755.0137,796.2031 Q1755.0137,798.2969 1755.7012,799.375 Q1756.3887,800.4375 1757.7324,800.4375 Q1758.3574,800.4375 1758.9512,800.1719 Q1759.5449,799.8906 1760.1699,799.3125 L1760.1699,802.0313 Z " fill="#000000"/><text fill="#000000" font-family="Verdana" font-size="14" lengthAdjust="spacing" textLength="63.6152" x="1774.7012" y="801.2373">Recorder</text><line style="stroke:#000000;stroke-width:1;" x1="1711" x2="1874.5176" y1="810.3906" y2="810.3906"/><rect fill="transparent" height="6" style="stroke:#000000;stroke-width:1;" width="6" x="1718" y="821.0391"/><text fill="#000000" font-family="Verdana" font-size="14" lengthAdjust="spacing" textLength="135.9053" x="1728" y="827.3857">file_ : std::ofstream</text><rect fill="transparent" height="6" style="stroke:#000000;stroke-width:1;" width="6" x="1718" y="837.3359"/><text fill="#000000" font-family="Verdana" font-size="14" lengthAdjust="spacing" textLength="141.5176" x="1728" y="843.6826">mutex_ : std::mutex</text><line style="stroke:#000000;stroke-width:1;" x1="1711" x2="1874.5176" y1="850.9844" y2="850.9844"/><ellipse cx="1721" cy="864.6328" fill="#FFFFFF" rx="3" ry="3" style="stroke:#000000;stroke-width:1;"/><text fill="#000000" font-family="Verdana" font-size="14" lengthAdjust="spacing" textLength="140.4307" x="1728" y="867.9795">Record(entry) : void</text></g><!--reverse link IRawSocket to LinuxSocket--><g id="link_IRawSocket_LinuxSocket"><path codeLine="61" d="M209.1855,737.5669 C193.7955,761.0569 187.12,771.2406 174.09,791.1306 " fill="transparent" id="IRawSocket-backto-LinuxSocket" style="stroke:#000000;stroke-width:1;stroke-dasharray:7.0,7.0;"/><polygon fill="transparent" points="219.05,722.5106,204.1668,734.2788,214.2043,740.8551,219.05,722.5106" style="stroke:#000000;stroke-width:1;"/></g><!--reverse link IRawSocket to QnxSocket--><g id="link_IRawSocket_QnxSocket"><path codeLine="62" d="M324.9282,737.2105 C341.5282,760.7005 348.97,771.2406 363.03,791.1306 " fill="transparent" id="IRawSocket-backto-QnxSocket" style="stroke:#000000;stroke-width:1;stroke-dasharray:7.0,7.0;"/><polygon fill="transparent" points="314.54,722.5106,320.0282,740.6732,329.8281,733.7478,314.54,722.5106" style="stroke:#000000;stroke-width:1;"/></g><!--reverse link INetworkIdentity to NetworkIdentity--><g id="link_INetworkIdentity_NetworkIdentity"><path codeLine="63" d="M576.7156,707.7117 C582.4556,737.3217 586.98,760.7106 592.72,790.3006 " fill="transparent" id="INetworkIdentity-backto-NetworkIdentity" style="stroke:#000000;stroke-width:1;stroke-dasharray:7.0,7.0;"/><polygon fill="transparent" points="573.29,690.0406,570.8252,708.8535,582.6059,706.5698,573.29,690.0406" style="stroke:#000000;stroke-width:1;"/></g><!--reverse link GptpEngine to IRawSocket--><g id="link_GptpEngine_IRawSocket"><path codeLine="65" d="M385.0338,529.2848 C364.4438,550.0648 352.62,561.9906 334.48,580.2906 " fill="transparent" id="GptpEngine-backto-IRawSocket" style="stroke:#000000;stroke-width:1;"/><polygon fill="#000000" points="393.48,520.7606,386.4155,522.2073,385.0338,529.2848,392.0983,527.8381,393.48,520.7606" style="stroke:#000000;stroke-width:1;"/></g><!--reverse link GptpEngine to INetworkIdentity--><g id="link_GptpEngine_INetworkIdentity"><path codeLine="66" d="M556.8053,532.7241 C559.4853,567.0041 561.16,588.4306 563.06,612.7406 " fill="transparent" id="GptpEngine-backto-INetworkIdentity" style="stroke:#000000;stroke-width:1;"/><polygon fill="#000000" points="555.87,520.7606,552.3498,527.0541,556.8053,532.7241,560.3255,526.4306,555.87,520.7606" style="stroke:#000000;stroke-width:1;"/></g><!--link ProbeManager to Recorder--><g id="link_ProbeManager_Recorder"><path codeLine="93" d="M1793,698.0406 C1793,723.9406 1793,750.2506 1793,776.1606 " fill="transparent" id="ProbeManager-to-Recorder" style="stroke:#000000;stroke-width:1;"/><polygon fill="#000000" points="1793,782.1606,1797,773.1606,1793,777.1606,1789,773.1606,1793,782.1606" style="stroke:#000000;stroke-width:1;"/></g><!--reverse link GptpEngine to FrameCodec--><g id="link_GptpEngine_FrameCodec"><path codeLine="96" d="M706.7229,381.8587 C866.5929,400.0687 1109.37,445.0106 1296,561.8906 C1323.14,578.8906 1345.5,608.9106 1358.55,629.2206 " fill="transparent" id="GptpEngine-backto-FrameCodec" style="stroke:#000000;stroke-width:1;"/><polygon fill="#000000" points="694.8,380.5006,700.3088,385.154,706.7229,381.8587,701.2141,377.2054,694.8,380.5006" style="stroke:#000000;stroke-width:1;"/></g><!--reverse link GptpEngine to MessageParser--><g id="link_GptpEngine_MessageParser"><path codeLine="97" d="M706.3541,400.4028 C829.2841,428.7028 992.19,477.4606 1126,561.8906 C1154.47,579.8506 1180.17,609.3506 1195.68,629.3106 " fill="transparent" id="GptpEngine-backto-MessageParser" style="stroke:#000000;stroke-width:1;"/><polygon fill="#000000" points="694.66,397.7106,699.6097,402.9547,706.3541,400.4028,701.4044,395.1587,694.66,397.7106" style="stroke:#000000;stroke-width:1;"/></g><!--reverse link GptpEngine to SyncStateMachine--><g id="link_GptpEngine_SyncStateMachine"><path codeLine="98" d="M705.8662,436.3323 C780.6062,470.2723 859.6,510.7606 934,561.8906 C962.96,581.7906 992.04,610.0406 1010.48,629.2306 " fill="transparent" id="GptpEngine-backto-SyncStateMachine" style="stroke:#000000;stroke-width:1;"/><polygon fill="#000000" points="694.94,431.3706,698.7492,437.4935,705.8662,436.3323,702.057,430.2094,694.94,431.3706" style="stroke:#000000;stroke-width:1;"/></g><!--reverse link GptpEngine to PeerDelayMeasurer--><g id="link_GptpEngine_PeerDelayMeasurer"><path codeLine="99" d="M703.1307,523.3586 C749.4707,568.3386 786.45,604.2306 812.31,629.3406 " fill="transparent" id="GptpEngine-backto-PeerDelayMeasurer" style="stroke:#000000;stroke-width:1;"/><polygon fill="#000000" points="694.52,515.0006,696.0394,522.0498,703.1307,523.3586,701.6113,516.3094,694.52,515.0006" style="stroke:#000000;stroke-width:1;"/></g><!--reverse link GptpEngine to PhcAdjuster--><g id="link_GptpEngine_PhcAdjuster"><path codeLine="100" d="M706.5414,377.6325 C892.4614,392.5825 1201.89,435.1706 1445,561.8906 C1476.78,578.4606 1505.73,608.5806 1523.11,629.0406 " fill="transparent" id="GptpEngine-backto-PhcAdjuster" style="stroke:#000000;stroke-width:1;"/><polygon fill="#000000" points="694.58,376.6706,700.2401,381.1387,706.5414,377.6325,700.8813,373.1644,694.58,376.6706" style="stroke:#000000;stroke-width:1;"/></g><!--reverse link GptpEngine to ProbeManager--><g id="link_GptpEngine_ProbeManager"><path codeLine="101" d="M706.6809,384.3165 C916.2809,406.9065 1293.83,458.2706 1611,561.8906 C1644.9,572.9606 1680.53,589.1706 1711.18,604.7006 " fill="transparent" id="GptpEngine-backto-ProbeManager" style="stroke:#000000;stroke-width:1;"/><polygon fill="#000000" points="694.75,383.0306,700.2868,387.6505,706.6809,384.3165,701.1441,379.6966,694.75,383.0306" style="stroke:#000000;stroke-width:1;"/></g><!--SRC=[ZLNVRzis47xtNt5pWS5Pws8FGnyCpu3h7wcnEb5Z3-j30O6MpX8RYjH8oexNv7_VIR8LIbQSwi4mxpxoZjyTl_l5nfWWf89nsUbORWL2vAqzcCc8IuI5jAWb4p0Hp1YOSXPfbdGw0YEK8LYLWi2jxG1zZt_2H0cbeVh8CaKJQ9vQhYJKliTo3mpVVEPHR5TC94gESeiRFr0QMpVz4oEpeyeEdbPM1Kf0gbM0nd0PjKHYEyeQzUYqwTC4MFWzCpP1QI-cTt_uA38SvPi4irkb4s0ROpKBdAizR_g8F48dlOKaR9P7OKqg7ZkKKybdfvEou9v525sJttmmi6OmY5ARTk57fpWyAEfmJQOZGovz13gTsWTLa6vy63ZmszBemFI3RsEDBCo1neOKirWwa3H4mGwlmemAxj5M_apoVpFqKwk7YpksNnNUaOCFL8X13fzJI-4aNxb1cJQeS_UIoacSU8N1ZNUGWM-I7BAYlokY5fSiYEcQvyaJo4FKqtonH6OoNJihZOjCl3WO5_rGTsgrGJ-9YcoyVB5aaZ9oCHgfO66PyDtnlvkhPAc9bVMJpE93nL6nSc3KMcYiNw7pU3PTymGNSgigu5lg9suv4_m_x5qHQAEKSBnJv7N_Jl7GyTzHuUYHhOvX2aWppbFPRpmNW2qBI0gg8aBjJJXDznPkKvGzdkDRqff9jX7uQP_7CPObAJtIjlI9lrrlastVWIMaoeWrSrNokhj3amdhW5VqRafmlFUjQJdk6kqyBEBGPHpxH2ZJeEV9VMJTwiBVv73ucSliOJJg0ZDG_7-5Y_7SzyQJlsRhFCTRVxrOpbRhyT9Rt5o_5khBpTTZe2_ojJ241Sts_VBnWObvyaBvRj3kbRvVX2H2t1uk594uLcA7BzQH22NkWkgeWiEQvVo6FnjzYfhlqC3ixqN_mn-mrIg1vNZoZRfAqlEt1dv_cC_pdzcL6yNfpk7Z-_TkYLhz5REbjvbUWMaOoq2EzFxMxpldjdgRHpozBF63GOYMSM6wHpfAufx54SgXv_XgodZkRghYEU9C4a-GYtcIMDPpT6GJgY5x-GnU3SJ6KOwyGZb6Qxtvm-GJD7Wg9YgJGVc0tLs_rfM4bBYNAde7xo1abhMeuGhjIR5x9nb_MHLEqFFa-h3b0YjjLrkw8RB4yLyI_ofPeaGVskBNgEdtHyzpXW2DndD6QiDJdwODvzaSRVZFHsWJu0pGfiiTdFy3]--></g></svg>