<svg xmlns="http://www.w3.org/2000/svg" xmlns:xlink="http://www.w3.org/1999/xlink" contentStyleType="text/css" data-diagram-type="CLASS" height="567px" preserveAspectRatio="none" style="width:726px;height:567px;background:#FFFFFF;" version="1.1" viewBox="0 0 726 567" width="726px" zoomAndPan="magnify"><title>libTSClient Shared Memory IPC</title><defs/><g><text fill="#000000" font-family="Verdana" font-size="22" font-weight="bold" lengthAdjust="spacing" textLength="385.3545" x="166.0593" y="35.4209">libTSClient Shared Memory IPC</text><rect fill="transparent" height="62.8906" id="_legend" rx="7.5" ry="7.5" style="stroke:#000000;stroke-width:1;" width="302.0039" x="10" y="56.6094"/><text fill="#000000" font-family="Verdana" font-size="14" font-weight="bold" lengthAdjust="spacing" textLength="41.2139" x="19.874" y="76.6045">Color</text><text fill="#000000" font-family="Verdana" font-size="14" font-weight="bold" lengthAdjust="spacing" textLength="90.5488" x="114.7021" y="76.6045">Description</text><rect fill="#FFB6C1" height="16.2969" style="stroke:transparent;stroke-width:1;" width="94.8281" x="15" y="79.9063"/><text fill="#000000" font-family="Verdana" font-size="14" lengthAdjust="spacing" textLength="17.8008" x="15" y="92.9014">&#160;&#160;&#160;&#160;</text><text fill="#000000" font-family="Verdana" font-size="14" lengthAdjust="spacing" textLength="113.292" x="114.2783" y="92.9014">IPC components</text><rect fill="#E0FFFF" height="16.2969" style="stroke:transparent;stroke-width:1;" width="94.8281" x="15" y="96.2031"/><text fill="#000000" font-family="Verdana" font-size="14" lengthAdjust="spacing" textLength="17.8008" x="15" y="109.1982">&#160;&#160;&#160;&#160;</text><text fill="#000000" font-family="Verdana" font-size="14" lengthAdjust="spacing" textLength="161.5742" x="114.2783" y="109.1982">Shared memory region</text><line style="stroke:#000000;stroke-width:1;" x1="15" x2="307.0039" y1="63.6094" y2="63.6094"/><line style="stroke:#000000;stroke-width:1;" x1="15" x2="307.0039" y1="79.9063" y2="79.9063"/><line style="stroke:#000000;stroke-width:1;" x1="15" x2="307.0039" y1="96.2031" y2="96.2031"/><line style="stroke:#000000;stroke-width:1;" x1="15" x2="307.0039" y1="112.5" y2="112.5"/><line style="stroke:#000000;stroke-width:1;" x1="15" x2="15" y1="63.6094" y2="112.5"/><line style="stroke:#000000;stroke-width:1;" x1="109.8281" x2="109.8281" y1="63.6094" y2="112.5"/><line style="stroke:#000000;stroke-width:1;" x1="307.0039" x2="307.0039" y1="63.6094" y2="112.5"/><!--cluster TimeSlave Process--><g id="cluster_TimeSlave Process"><path d="M13.5,131.5 L161.999,131.5 A3.75,3.75 0 0 1 164.499,134 L171.499,153.7969 L240.5,153.7969 A2.5,2.5 0 0 1 243,156.2969 L243,305 A2.5,2.5 0 0 1 240.5,307.5 L13.5,307.5 A2.5,2.5 0 0 1 11,305 L11,134 A2.5,2.5 0 0 1 13.5,131.5 " fill="#FFFFFF" style="stroke:#000000;stroke-width:1;"/><line style="stroke:#000000;stroke-width:1;" x1="11" x2="171.499" y1="153.7969" y2="153.7969"/><text fill="#000000" font-family="Verdana" font-size="14" font-weight="bold" lengthAdjust="spacing" textLength="147.499" x="15" y="146.4951">TimeSlave Process</text></g><!--cluster Shared Memory--><g id="cluster_Shared Memory"><path d="M84.5,371.5 L209.9551,371.5 A3.75,3.75 0 0 1 212.4551,374 L219.4551,393.7969 L359.5,393.7969 A2.5,2.5 0 0 1 362,396.2969 L362,558 A2.5,2.5 0 0 1 359.5,560.5 L84.5,560.5 A2.5,2.5 0 0 1 82,558 L82,374 A2.5,2.5 0 0 1 84.5,371.5 " fill="#FFFFFF" style="stroke:#000000;stroke-width:1;"/><line style="stroke:#000000;stroke-width:1;" x1="82" x2="219.4551" y1="393.7969" y2="393.7969"/><text fill="#000000" font-family="Verdana" font-size="14" font-weight="bold" lengthAdjust="spacing" textLength="124.4551" x="86" y="386.4951">Shared Memory</text></g><!--cluster TimeDaemon Process--><g id="cluster_TimeDaemon Process"><path d="M269.5,131.5 L439.7852,131.5 A3.75,3.75 0 0 1 442.2852,134 L449.2852,153.7969 L596.5,153.7969 A2.5,2.5 0 0 1 599,156.2969 L599,305 A2.5,2.5 0 0 1 596.5,307.5 L269.5,307.5 A2.5,2.5 0 0 1 267,305 L267,134 A2.5,2.5 0 0 1 269.5,131.5 " fill="#FFFFFF" style="stroke:#000000;stroke-width:1;"/><line style="stroke:#000000;stroke-width:1;" x1="267" x2="449.2852" y1="153.7969" y2="153.7969"/><text fill="#000000" font-family="Verdana" font-size="14" font-weight="bold" lengthAdjust="spacing" textLength="169.2852" x="271" y="146.4951">TimeDaemon Process</text></g><!--class GptpIpcPublisher--><g id="elem_GptpIpcPublisher"><rect codeLine="12" fill="#FFB6C1" height="125.4844" id="GptpIpcPublisher" rx="2.5" ry="2.5" style="stroke:#000000;stroke-width:1;" width="199.5811" x="27" y="166.5"/><ellipse cx="63.5077" cy="180.5" fill="#FFFFFF" rx="9" ry="9" style="stroke:#000000;stroke-width:1;"/><path d="M66.4764,186.1406 Q65.8983,186.4375 65.2577,186.5781 Q64.617,186.7344 63.9139,186.7344 Q61.4139,186.7344 60.0858,185.0938 Q58.7733,183.4375 58.7733,180.3125 Q58.7733,177.1875 60.0858,175.5313 Q61.4139,173.875 63.9139,173.875 Q64.617,173.875 65.2577,174.0313 Q65.9139,174.1875 66.4764,174.4844 L66.4764,177.2031 Q65.8514,176.625 65.2577,176.3594 Q64.6639,176.0781 64.0389,176.0781 Q62.6952,176.0781 62.0077,177.1563 Q61.3202,178.2188 61.3202,180.3125 Q61.3202,182.4063 62.0077,183.4844 Q62.6952,184.5469 64.0389,184.5469 Q64.6639,184.5469 65.2577,184.2813 Q65.8514,184 66.4764,183.4219 L66.4764,186.1406 Z " fill="#000000"/><text fill="#000000" font-family="Verdana" font-size="14" lengthAdjust="spacing" textLength="119.3418" x="80.7316" y="185.3467">GptpIpcPublisher</text><line style="stroke:#000000;stroke-width:1;" x1="28" x2="225.5811" y1="194.5" y2="194.5"/><rect fill="transparent" height="6" style="stroke:#000000;stroke-width:1;" width="6" x="35" y="205.1484"/><text fill="#000000" font-family="Verdana" font-size="14" lengthAdjust="spacing" textLength="175.5811" x="45" y="211.4951">region_ : GptpIpcRegion*</text><rect fill="transparent" height="6" style="stroke:#000000;stroke-width:1;" width="6" x="35" y="221.4453"/><text fill="#000000" font-family="Verdana" font-size="14" lengthAdjust="spacing" textLength="52.6846" x="45" y="227.792">fd_ : int</text><line style="stroke:#000000;stroke-width:1;" x1="28" x2="225.5811" y1="235.0938" y2="235.0938"/><ellipse cx="38" cy="248.7422" fill="#FFFFFF" rx="3" ry="3" style="stroke:#000000;stroke-width:1;"/><text fill="#000000" font-family="Verdana" font-size="14" lengthAdjust="spacing" textLength="116.5322" x="45" y="252.0889">Init(name) : bool</text><ellipse cx="38" cy="265.0391" fill="#FFFFFF" rx="3" ry="3" style="stroke:#000000;stroke-width:1;"/><text fill="#000000" font-family="Verdana" font-size="14" lengthAdjust="spacing" textLength="130.5732" x="45" y="268.3857">Publish(info) : void</text><ellipse cx="38" cy="281.3359" fill="#FFFFFF" rx="3" ry="3" style="stroke:#000000;stroke-width:1;"/><text fill="#000000" font-family="Verdana" font-size="14" lengthAdjust="spacing" textLength="108.9512" x="45" y="284.6826">Destroy() : void</text></g><!--class GptpIpcRegion--><g id="elem_GptpIpcRegion"><rect codeLine="22" fill="#E0FFFF" height="137.75" id="GptpIpcRegion" rx="2.5" ry="2.5" style="stroke:#000000;stroke-width:1;" width="246.8174" x="98.5" y="406.5"/><ellipse cx="166.4688" cy="426.6328" fill="#FFFFFF" rx="9" ry="9" style="stroke:#000000;stroke-width:1;"/><path d="M169.4375,432.2734 Q168.8594,432.5703 168.2188,432.7109 Q167.5781,432.8672 166.875,432.8672 Q164.375,432.8672 163.0469,431.2266 Q161.7344,429.5703 161.7344,426.4453 Q161.7344,423.3203 163.0469,421.6641 Q164.375,420.0078 166.875,420.0078 Q167.5781,420.0078 168.2188,420.1641 Q168.875,420.3203 169.4375,420.6172 L169.4375,423.3359 Q168.8125,422.7578 168.2188,422.4922 Q167.625,422.2109 167,422.2109 Q165.6563,422.2109 164.9688,423.2891 Q164.2813,424.3516 164.2813,426.4453 Q164.2813,428.5391 164.9688,429.6172 Q165.6563,430.6797 167,430.6797 Q167.625,430.6797 168.2188,430.4141 Q168.8125,430.1328 169.4375,429.5547 L169.4375,432.2734 Z " fill="#000000"/><text fill="#000000" font-family="Verdana" font-size="12" font-style="italic" lengthAdjust="spacing" textLength="83.6895" x="193.814" y="422.6387">&#171;aligned(64)&#187;</text><text fill="#000000" font-family="Verdana" font-size="14" lengthAdjust="spacing" textLength="103.3799" x="183.9688" y="438.4639">GptpIpcRegion</text><line style="stroke:#000000;stroke-width:1;" x1="99.5" x2="344.3174" y1="446.7656" y2="446.7656"/><ellipse cx="109.5" cy="460.4141" fill="transparent" rx="3" ry="3" style="stroke:#000000;stroke-width:1;"/><text fill="#000000" font-family="Verdana" font-size="14" lengthAdjust="spacing" textLength="222.8174" x="116.5" y="463.7607">magic : uint32_t = 0x47505440</text><ellipse cx="109.5" cy="476.7109" fill="transparent" rx="3" ry="3" style="stroke:#000000;stroke-width:1;"/><text fill="#000000" font-family="Verdana" font-size="14" lengthAdjust="spacing" textLength="198.2627" x="116.5" y="480.0576">seq : std::atomic&lt;uint32_t&gt;</text><ellipse cx="109.5" cy="493.0078" fill="transparent" rx="3" ry="3" style="stroke:#000000;stroke-width:1;"/><text fill="#000000" font-family="Verdana" font-size="14" lengthAdjust="spacing" textLength="129.1582" x="116.5" y="496.3545">data : PtpTimeInfo</text><line style="stroke:#000000;stroke-width:1;" x1="99.5" x2="344.3174" y1="503.6563" y2="503.6563"/><text fill="#000000" font-family="Verdana" font-size="14" lengthAdjust="spacing" textLength="133.9092" x="104.5" y="520.6514">64-byte aligned for</text><text fill="#000000" font-family="Verdana" font-size="14" lengthAdjust="spacing" textLength="143.042" x="104.5" y="536.9482">cache line efficiency</text></g><!--class GptpIpcReceiver--><g id="elem_GptpIpcReceiver"><rect codeLine="32" fill="#FFB6C1" height="125.4844" id="GptpIpcReceiver" rx="2.5" ry="2.5" style="stroke:#000000;stroke-width:1;" width="299.29" x="283.5" y="166.5"/><ellipse cx="371.3853" cy="180.5" fill="#FFFFFF" rx="9" ry="9" style="stroke:#000000;stroke-width:1;"/><path d="M374.354,186.1406 Q373.7759,186.4375 373.1353,186.5781 Q372.4946,186.7344 371.7915,186.7344 Q369.2915,186.7344 367.9634,185.0938 Q366.6509,183.4375 366.6509,180.3125 Q366.6509,177.1875 367.9634,175.5313 Q369.2915,173.875 371.7915,173.875 Q372.4946,173.875 373.1353,174.0313 Q373.7915,174.1875 374.354,174.4844 L374.354,177.2031 Q373.729,176.625 373.1353,176.3594 Q372.5415,176.0781 371.9165,176.0781 Q370.5728,176.0781 369.8853,177.1563 Q369.1978,178.2188 369.1978,180.3125 Q369.1978,182.4063 369.8853,183.4844 Q370.5728,184.5469 371.9165,184.5469 Q372.5415,184.5469 373.1353,184.2813 Q373.729,184 374.354,183.4219 L374.354,186.1406 Z " fill="#000000"/><text fill="#000000" font-family="Verdana" font-size="14" lengthAdjust="spacing" textLength="116.0195" x="388.8853" y="185.3467">GptpIpcReceiver</text><line style="stroke:#000000;stroke-width:1;" x1="284.5" x2="581.79" y1="194.5" y2="194.5"/><rect fill="transparent" height="6" style="stroke:#000000;stroke-width:1;" width="6" x="291.5" y="205.1484"/><text fill="#000000" font-family="Verdana" font-size="14" lengthAdjust="spacing" textLength="217.9502" x="301.5" y="211.4951">region_ : const GptpIpcRegion*</text><rect fill="transparent" height="6" style="stroke:#000000;stroke-width:1;" width="6" x="291.5" y="221.4453"/><text fill="#000000" font-family="Verdana" font-size="14" lengthAdjust="spacing" textLength="52.6846" x="301.5" y="227.792">fd_ : int</text><line style="stroke:#000000;stroke-width:1;" x1="284.5" x2="581.79" y1="235.0938" y2="235.0938"/><ellipse cx="294.5" cy="248.7422" fill="#FFFFFF" rx="3" ry="3" style="stroke:#000000;stroke-width:1;"/><text fill="#000000" font-family="Verdana" font-size="14" lengthAdjust="spacing" textLength="116.5322" x="301.5" y="252.0889">Init(name) : bool</text><ellipse cx="294.5" cy="265.0391" fill="#FFFFFF" rx="3" ry="3" style="stroke:#000000;stroke-width:1;"/><text fill="#000000" font-family="Verdana" font-size="14" lengthAdjust="spacing" textLength="275.29" x="301.5" y="268.3857">Receive() : std::optional&lt;PtpTimeInfo&gt;</text><ellipse cx="294.5" cy="281.3359" fill="#FFFFFF" rx="3" ry="3" style="stroke:#000000;stroke-width:1;"/><text fill="#000000" font-family="Verdana" font-size="14" lengthAdjust="spacing" textLength="92.3057" x="301.5" y="284.6826">Close() : void</text></g><g id="elem_GMN10"><path d="M380.5,440 L380.5,471.5 L345.64,475.5 L380.5,479.5 L380.5,510.5313 A0,0 0 0 0 380.5,510.5313 L719.4731,510.5313 A0,0 0 0 0 719.4731,510.5313 L719.4731,450 L709.4731,440 L380.5,440 A0,0 0 0 0 380.5,440 " fill="#FFFFFF" style="stroke:#000000;stroke-width:1;"/><path d="M709.4731,440 L709.4731,450 L719.4731,450 L709.4731,440 " fill="#FFFFFF" style="stroke:#000000;stroke-width:1;"/><text fill="#000000" font-family="Verdana" font-size="13" font-weight="bold" lengthAdjust="spacing" textLength="128.0576" x="386.5" y="457.0669">Seqlock Protocol:</text><text fill="#000000" font-family="Verdana" font-size="13" lengthAdjust="spacing" textLength="233.1113" x="386.5" y="472.1997">Writer: seq++ &#8594; memcpy &#8594; seq++</text><text fill="#000000" font-family="Verdana" font-size="13" lengthAdjust="spacing" textLength="317.9731" x="386.5" y="487.3325">Reader: read seq (even) &#8594; memcpy &#8594; check seq</text><text fill="#000000" font-family="Verdana" font-size="13" lengthAdjust="spacing" textLength="218.7085" x="386.5" y="502.4653">Retry up to 20 times on torn read</text></g><!--link GptpIpcPublisher to GptpIpcRegion--><g id="link_GptpIpcPublisher_GptpIpcRegion"><path codeLine="41" d="M150.97,291.7 C164.55,326.64 179.3867,364.8174 193.3567,400.7674 " fill="transparent" id="GptpIpcPublisher-to-GptpIpcRegion" style="stroke:#000000;stroke-width:1;"/><polygon fill="#000000" points="195.53,406.36,195.9985,396.5223,193.719,401.6995,188.5417,399.42,195.53,406.36" style="stroke:#000000;stroke-width:1;"/><text fill="#000000" font-family="Verdana" font-size="13" lengthAdjust="spacing" textLength="136.6523" x="175" y="336.5669">shm_open(O_CREAT)</text><text fill="#000000" font-family="Verdana" font-size="13" lengthAdjust="spacing" textLength="135.1099" x="175.7712" y="351.6997">mmap(PROT_WRITE)</text></g><!--link GptpIpcReceiver to GptpIpcRegion--><g id="link_GptpIpcReceiver_GptpIpcRegion"><path codeLine="42" d="M379.76,291.7 C349.6,326.64 315.7504,365.868 284.7204,401.818 " fill="transparent" id="GptpIpcReceiver-to-GptpIpcRegion" style="stroke:#000000;stroke-width:1;"/><polygon fill="#000000" points="280.8,406.36,289.7087,402.1606,284.067,402.575,283.6526,396.9333,280.8,406.36" style="stroke:#000000;stroke-width:1;"/><text fill="#000000" font-family="Verdana" font-size="13" lengthAdjust="spacing" textLength="147.6782" x="347" y="336.5669">shm_open(O_RDONLY)</text><text fill="#000000" font-family="Verdana" font-size="13" lengthAdjust="spacing" textLength="129.3843" x="356.147" y="351.6997">mmap(PROT_READ)</text></g><!--SRC=[hLJDQXin4BxlKqpTozh6O58d1UCOYXsA8QtDsX0A0IDhPzSYMacHP5DJvve7w2FsIJfQR-9r6j8Ugiiky_FDpFUDzCwliK0maWaLHLvuYI35QZ4VIO7AmtpDBARm1GjjTp2PZQ98Oeug1QyDICny17Jsbp3IKbjuFcGPe-DM62-qWfEpF-J0uFsroDT-9jJTy62X0i1rORIYukwjfD6EgIgfwh4uz6WnFnRSHzJgeU4eCepViHoXiH05pYNR8ioivkXS0twKw5mov-2pyMPY-6opaiAjqSAnpIekd4vLQGdzfuoaDBHg8LaQt4BvPriR9ahuMB42c-HQQIrhlgfcB5IcWtkhHLfp4wFUwbryudg87cgpdGZswbo7Bc4mO5Ba2jFuejSS3k58Qst8DXGi5vpARMY83sTB3vVG_TxxUDuzx_MwjJY7znJbVDhlCwyBmGTF6SDQLCeyex2PDq632Krv9Alp_7lHwwns7g5g439jRnLdV1rsKo5WbWbEwybthn0GWCUCnbTlgfiWHx7z5t6vLix_FuchmgM69Lswl25C3cgir3aRIUtm5Sd_MDDEP_X2upuqtBfOQeCgdYv7oTMdHVDM5GKpyIoPBfOtoMHnrMn4Bpdv6r8oddwz_dO2HTXZGegK9k5ie1HqTWf2hRTQSxoNcjy5RRpcMlPRWSmRAppQVjYYTXj-FVuCjvcRNVbR6YaeGPQ684lVSjzYtA9glWodDI5yyfSfdfw4ZQ7N2iwwu8bU1pIErrQLEE5zWD1pz1i0]--></g></svg>