<svg xmlns="http://www.w3.org/2000/svg" xmlns:xlink="http://www.w3.org/1999/xlink" contentStyleType="text/css" data-diagram-type="DESCRIPTION" height="1037px" preserveAspectRatio="none" style="width:1397px;height:1037px;background:#FFFFFF;" version="1.1" viewBox="0 0 1397 1037" width="1397px" zoomAndPan="magnify"><title>TimeSlave Deployment View</title><defs/><g><text fill="#000000" font-family="Verdana" font-size="22" font-weight="bold" lengthAdjust="spacing" textLength="352.9668" x="517.5166" y="35.4209">TimeSlave Deployment View</text><!--cluster ECU--><g id="cluster_ECU"><polygon fill="#FFFFFF" points="21,67.6094,31,57.6094,1380,57.6094,1380,890.6094,1370,900.6094,21,900.6094,21,67.6094" style="stroke:#000000;stroke-width:1;"/><line style="stroke:#000000;stroke-width:1;" x1="1370" x2="1380" y1="67.6094" y2="57.6094"/><line style="stroke:#000000;stroke-width:1;" x1="21" x2="1370" y1="67.6094" y2="67.6094"/><line style="stroke:#000000;stroke-width:1;" x1="1370" x2="1370" y1="67.6094" y2="900.6094"/><text fill="#000000" font-family="Verdana" font-size="14" font-weight="bold" lengthAdjust="spacing" textLength="31.2061" x="680.897" y="83.6045">ECU</text></g><!--cluster TSP--><g id="cluster_TSP"><path d="M318.5,105.6094 L466.999,105.6094 A3.75,3.75 0 0 1 469.499,108.1094 L476.499,127.9063 L1353.5,127.9063 A2.5,2.5 0 0 1 1356,130.4063 L1356,729.1094 A2.5,2.5 0 0 1 1353.5,731.6094 L318.5,731.6094 A2.5,2.5 0 0 1 316,729.1094 L316,108.1094 A2.5,2.5 0 0 1 318.5,105.6094 " fill="#FFFFFF" style="stroke:#000000;stroke-width:1;"/><line style="stroke:#000000;stroke-width:1;" x1="316" x2="476.499" y1="127.9063" y2="127.9063"/><text fill="#000000" font-family="Verdana" font-size="14" font-weight="bold" lengthAdjust="spacing" textLength="147.499" x="320" y="120.6045">TimeSlave Process</text></g><!--cluster RXT--><g id="cluster_RXT"><path d="M818.5,257.6094 L894.6953,257.6094 A3.75,3.75 0 0 1 897.1953,260.1094 L904.1953,279.9063 L1037.5,279.9063 A2.5,2.5 0 0 1 1040,282.4063 L1040,697.1094 A2.5,2.5 0 0 1 1037.5,699.6094 L818.5,699.6094 A2.5,2.5 0 0 1 816,697.1094 L816,260.1094 A2.5,2.5 0 0 1 818.5,257.6094 " fill="#FFFFFF" style="stroke:#000000;stroke-width:1;"/><line style="stroke:#000000;stroke-width:1;" x1="816" x2="904.1953" y1="279.9063" y2="279.9063"/><text fill="#000000" font-family="Verdana" font-size="14" font-weight="bold" lengthAdjust="spacing" textLength="75.1953" x="820" y="272.6045">RxThread</text></g><!--cluster PDT--><g id="cluster_PDT"><path d="M1082.5,586.6094 L1192.0342,586.6094 A3.75,3.75 0 0 1 1194.5342,589.1094 L1201.5342,608.9063 L1321.5,608.9063 A2.5,2.5 0 0 1 1324,611.4063 L1324,697.1094 A2.5,2.5 0 0 1 1321.5,699.6094 L1082.5,699.6094 A2.5,2.5 0 0 1 1080,697.1094 L1080,589.1094 A2.5,2.5 0 0 1 1082.5,586.6094 " fill="#FFFFFF" style="stroke:#000000;stroke-width:1;"/><line style="stroke:#000000;stroke-width:1;" x1="1080" x2="1201.5342" y1="608.9063" y2="608.9063"/><text fill="#000000" font-family="Verdana" font-size="14" font-weight="bold" lengthAdjust="spacing" textLength="108.5342" x="1084" y="601.6045">PdelayThread</text></g><!--cluster TDP--><g id="cluster_TDP"><path d="M47.5,265.6094 L217.7852,265.6094 A3.75,3.75 0 0 1 220.2852,268.1094 L227.2852,287.9063 L230.5,287.9063 A2.5,2.5 0 0 1 233,290.4063 L233,360.1094 A2.5,2.5 0 0 1 230.5,362.6094 L47.5,362.6094 A2.5,2.5 0 0 1 45,360.1094 L45,268.1094 A2.5,2.5 0 0 1 47.5,265.6094 " fill="#FFFFFF" style="stroke:#000000;stroke-width:1;"/><line style="stroke:#000000;stroke-width:1;" x1="45" x2="227.2852" y1="287.9063" y2="287.9063"/><text fill="#000000" font-family="Verdana" font-size="14" font-weight="bold" lengthAdjust="spacing" textLength="169.2852" x="49" y="280.6045">TimeDaemon Process</text></g><!--entity SHM--><g id="elem_SHM"><path d="M37.5,449.6094 C37.5,439.6094 102.9907,439.6094 102.9907,439.6094 C102.9907,439.6094 168.4814,439.6094 168.4814,449.6094 L168.4814,491.2031 C168.4814,501.2031 102.9907,501.2031 102.9907,501.2031 C102.9907,501.2031 37.5,501.2031 37.5,491.2031 L37.5,449.6094 " fill="#FFFFFF" style="stroke:#000000;stroke-width:1;"/><path d="M37.5,449.6094 C37.5,459.6094 102.9907,459.6094 102.9907,459.6094 C102.9907,459.6094 168.4814,459.6094 168.4814,449.6094 " fill="transparent" style="stroke:#000000;stroke-width:1;"/><text fill="#000000" font-family="Verdana" font-size="14" lengthAdjust="spacing" textLength="110.9814" x="47.5" y="476.6045">Shared Memory</text><text fill="#000000" font-family="Verdana" font-size="14" lengthAdjust="spacing" textLength="100.3857" x="47.5" y="492.9014">/gptp_ptp_info</text></g><!--entity SOCK--><g id="elem_SOCK"><ellipse cx="931" cy="839.6094" fill="#FFFFFF" rx="8" ry="8" style="stroke:#000000;stroke-width:1;"/><text fill="#000000" font-family="Verdana" font-size="14" lengthAdjust="spacing" textLength="81.5664" x="886.0366" y="869.6045">Raw Socket</text><text fill="#000000" font-family="Verdana" font-size="14" lengthAdjust="spacing" textLength="89.9268" x="886.0366" y="885.9014">(AF_PACKET)</text></g><!--entity PHCDEV--><g id="elem_PHCDEV"><ellipse cx="252" cy="470.6094" fill="#FFFFFF" rx="8" ry="8" style="stroke:#000000;stroke-width:1;"/><text fill="#000000" font-family="Verdana" font-size="14" lengthAdjust="spacing" textLength="81.0742" x="211.4629" y="500.6045">PHC Device</text><text fill="#000000" font-family="Verdana" font-size="14" lengthAdjust="spacing" textLength="79.8779" x="211.4629" y="516.9014">(/dev/ptpN)</text></g><!--entity GE--><g id="elem_GE"><rect fill="#FFA07A" height="46.2969" rx="2.5" ry="2.5" style="stroke:#000000;stroke-width:1;" width="122.0928" x="703" y="140.6094"/><rect fill="#FFA07A" height="10" style="stroke:#000000;stroke-width:1;" width="15" x="805.0928" y="145.6094"/><rect fill="#FFA07A" height="2" style="stroke:#000000;stroke-width:1;" width="4" x="803.0928" y="147.6094"/><rect fill="#FFA07A" height="2" style="stroke:#000000;stroke-width:1;" width="4" x="803.0928" y="151.6094"/><text fill="#000000" font-family="Verdana" font-size="14" lengthAdjust="spacing" textLength="82.0928" x="718" y="173.6045">GptpEngine</text></g><!--entity PUB--><g id="elem_PUB"><rect fill="#FFB6C1" height="46.2969" rx="2.5" ry="2.5" style="stroke:#000000;stroke-width:1;" width="159.3418" x="471.5" y="300.6094"/><rect fill="#FFB6C1" height="10" style="stroke:#000000;stroke-width:1;" width="15" x="610.8418" y="305.6094"/><rect fill="#FFB6C1" height="2" style="stroke:#000000;stroke-width:1;" width="4" x="608.8418" y="307.6094"/><rect fill="#FFB6C1" height="2" style="stroke:#000000;stroke-width:1;" width="4" x="608.8418" y="311.6094"/><text fill="#000000" font-family="Verdana" font-size="14" lengthAdjust="spacing" textLength="119.3418" x="486.5" y="333.6045">GptpIpcPublisher</text></g><!--entity PHC--><g id="elem_PHC"><rect fill="#E6E6FA" height="46.2969" rx="2.5" ry="2.5" style="stroke:#000000;stroke-width:1;" width="123.3916" x="665.5" y="300.6094"/><rect fill="#E6E6FA" height="10" style="stroke:#000000;stroke-width:1;" width="15" x="768.8916" y="305.6094"/><rect fill="#E6E6FA" height="2" style="stroke:#000000;stroke-width:1;" width="4" x="766.8916" y="307.6094"/><rect fill="#E6E6FA" height="2" style="stroke:#000000;stroke-width:1;" width="4" x="766.8916" y="311.6094"/><text fill="#000000" font-family="Verdana" font-size="14" lengthAdjust="spacing" textLength="83.3916" x="680.5" y="333.6045">PhcAdjuster</text></g><!--entity PM--><g id="elem_PM"><rect fill="#F5F5DC" height="46.2969" rx="2.5" ry="2.5" style="stroke:#000000;stroke-width:1;" width="141.6299" x="332" y="140.6094"/><rect fill="#F5F5DC" height="10" style="stroke:#000000;stroke-width:1;" width="15" x="453.6299" y="145.6094"/><rect fill="#F5F5DC" height="2" style="stroke:#000000;stroke-width:1;" width="4" x="451.6299" y="147.6094"/><rect fill="#F5F5DC" height="2" style="stroke:#000000;stroke-width:1;" width="4" x="451.6299" y="151.6094"/><text fill="#000000" font-family="Verdana" font-size="14" lengthAdjust="spacing" textLength="101.6299" x="347" y="173.6045">ProbeManager</text></g><!--entity REC--><g id="elem_REC"><rect fill="#F5F5DC" height="46.2969" rx="2.5" ry="2.5" style="stroke:#000000;stroke-width:1;" width="103.6152" x="332" y="300.6094"/><rect fill="#F5F5DC" height="10" style="stroke:#000000;stroke-width:1;" width="15" x="415.6152" y="305.6094"/><rect fill="#F5F5DC" height="2" style="stroke:#000000;stroke-width:1;" width="4" x="413.6152" y="307.6094"/><rect fill="#F5F5DC" height="2" style="stroke:#000000;stroke-width:1;" width="4" x="413.6152" y="311.6094"/><text fill="#000000" font-family="Verdana" font-size="14" lengthAdjust="spacing" textLength="63.6152" x="347" y="333.6045">Recorder</text></g><!--entity FC--><g id="elem_FC"><rect fill="#F5DEB3" height="46.2969" rx="2.5" ry="2.5" style="stroke:#000000;stroke-width:1;" width="128.1768" x="874" y="300.6094"/><rect fill="#F5DEB3" height="10" style="stroke:#000000;stroke-width:1;" width="15" x="982.1768" y="305.6094"/><rect fill="#F5DEB3" height="2" style="stroke:#000000;stroke-width:1;" width="4" x="980.1768" y="307.6094"/><rect fill="#F5DEB3" height="2" style="stroke:#000000;stroke-width:1;" width="4" x="980.1768" y="311.6094"/><text fill="#000000" font-family="Verdana" font-size="14" lengthAdjust="spacing" textLength="88.1768" x="889" y="333.6045">FrameCodec</text></g><!--entity MP--><g id="elem_MP"><rect fill="#F5DEB3" height="46.2969" rx="2.5" ry="2.5" style="stroke:#000000;stroke-width:1;" width="145.7998" x="865" y="447.6094"/><rect fill="#F5DEB3" height="10" style="stroke:#000000;stroke-width:1;" width="15" x="990.7998" y="452.6094"/><rect fill="#F5DEB3" height="2" style="stroke:#000000;stroke-width:1;" width="4" x="988.7998" y="454.6094"/><rect fill="#F5DEB3" height="2" style="stroke:#000000;stroke-width:1;" width="4" x="988.7998" y="458.6094"/><text fill="#000000" font-family="Verdana" font-size="14" lengthAdjust="spacing" textLength="105.7998" x="880" y="480.6045">MessageParser</text></g><!--entity SSM--><g id="elem_SSM"><rect fill="#F5DEB3" height="46.2969" rx="2.5" ry="2.5" style="stroke:#000000;stroke-width:1;" width="169.4043" x="847.5" y="629.6094"/><rect fill="#F5DEB3" height="10" style="stroke:#000000;stroke-width:1;" width="15" x="996.9043" y="634.6094"/><rect fill="#F5DEB3" height="2" style="stroke:#000000;stroke-width:1;" width="4" x="994.9043" y="636.6094"/><rect fill="#F5DEB3" height="2" style="stroke:#000000;stroke-width:1;" width="4" x="994.9043" y="640.6094"/><text fill="#000000" font-family="Verdana" font-size="14" lengthAdjust="spacing" textLength="129.4043" x="862.5" y="662.6045">SyncStateMachine</text></g><!--entity PDM--><g id="elem_PDM"><rect fill="#F5DEB3" height="46.2969" rx="2.5" ry="2.5" style="stroke:#000000;stroke-width:1;" width="177.1357" x="1103.5" y="629.6094"/><rect fill="#F5DEB3" height="10" style="stroke:#000000;stroke-width:1;" width="15" x="1260.6357" y="634.6094"/><rect fill="#F5DEB3" height="2" style="stroke:#000000;stroke-width:1;" width="4" x="1258.6357" y="636.6094"/><rect fill="#F5DEB3" height="2" style="stroke:#000000;stroke-width:1;" width="4" x="1258.6357" y="640.6094"/><text fill="#000000" font-family="Verdana" font-size="14" lengthAdjust="spacing" textLength="137.1357" x="1118.5" y="662.6045">PeerDelayMeasurer</text></g><!--entity RCV--><g id="elem_RCV"><rect fill="#FFB6C1" height="46.2969" rx="2.5" ry="2.5" style="stroke:#000000;stroke-width:1;" width="156.0195" x="61" y="300.6094"/><rect fill="#FFB6C1" height="10" style="stroke:#000000;stroke-width:1;" width="15" x="197.0195" y="305.6094"/><rect fill="#FFB6C1" height="2" style="stroke:#000000;stroke-width:1;" width="4" x="195.0195" y="307.6094"/><rect fill="#FFB6C1" height="2" style="stroke:#000000;stroke-width:1;" width="4" x="195.0195" y="311.6094"/><text fill="#000000" font-family="Verdana" font-size="14" lengthAdjust="spacing" textLength="116.0195" x="76" y="333.6045">GptpIpcReceiver</text></g><!--entity NET--><g id="elem_NET"><path d="M895.6908,986.8539 C899.5246,979.7338 905.0404,980.8279 908.8029,986.9248 C911.6854,981.6768 915.5736,980.2586 920.2113,984.8999 C924.0684,979.6164 929.7373,978.4464 933.2736,985.2467 C936.0749,980.5582 940.664,980.4009 943.372,985.3447 C948.4405,980.2034 954.3445,980.4665 957.3954,987.642 C960.9684,982.8989 964.926,982.9384 968.1475,988.0264 C977.9113,989.4024 981.3106,995.6992 974.7744,1003.886 C981.1737,1011.5177 977.7376,1016.3894 969.404,1018.6688 C967.2616,1025.1785 962.4447,1026.5432 957.4308,1021.6964 C954.9094,1028.1162 949.1576,1029.0058 944.3785,1024.3592 C942.026,1030.3658 936.7391,1030.8152 932.4152,1026.6862 C926.748,1030.6862 922.6937,1029.0964 920.1933,1022.8929 C915.5515,1026.8505 910.865,1026.1902 908.7505,1020.0337 C904.2115,1026.1582 898.6652,1025.4871 895.314,1018.7891 C884.0504,1019.2251 879.5749,1011.4797 886.1935,1002.1272 C881.4336,993.8726 886.1729,986.2303 895.6908,986.8539 " fill="#FFFFFF" style="stroke:#000000;stroke-width:1;"/><text fill="#000000" font-family="Verdana" font-size="14" lengthAdjust="spacing" textLength="58.4541" x="902" y="1006.6045">Network</text></g><!--link GE to RXT--><g id="link_GE_RXT"><path d="M785.58,186.8194 C798.08,201.1994 812.74,221.0294 820,241.6094 C821.4513,245.7256 822.6097,250.0327 823.5249,254.4239 C823.6393,254.9728 823.75,255.523 823.8569,256.0744 C823.9103,256.35 823.9628,256.626 824.0145,256.9022 C824.0403,257.0403 822.9834,251.2769 823.0088,251.4151 " fill="transparent" id="GE-to-RXT" style="stroke:#000000;stroke-width:1;"/><polygon fill="#000000" points="824.0912,257.3166,826.4019,247.7427,823.1892,252.3987,818.5332,249.1859,824.0912,257.3166" style="stroke:#000000;stroke-width:1;"/></g><!--link GE to PDT--><g id="link_GE_PDT"><path d="M825.13,171.3994 C882.54,180.1394 968.83,199.5694 1032,241.6094 C1188.08,345.4794 1212.91,402.5494 1296,570.6094 C1297.99,574.6344 1299.7913,578.8723 1301.4203,583.2127 C1301.8276,584.2978 1300.2312,602.0267 1300.6172,603.1229 " fill="transparent" id="GE-to-PDT" style="stroke:#000000;stroke-width:1;"/><polygon fill="#000000" points="1302.61,608.7823,1303.3937,598.9646,1300.9493,604.0661,1295.8478,601.6218,1302.61,608.7823" style="stroke:#000000;stroke-width:1;"/></g><!--link GE to PHC--><g id="link_GE_PHC"><path d="M758.78,186.9094 C751.73,217.0294 740.5968,264.5271 733.5668,294.5771 " fill="transparent" id="GE-to-PHC" style="stroke:#000000;stroke-width:1;"/><polygon fill="#000000" points="732.2,300.4194,738.145,292.5672,733.339,295.5508,730.3553,290.7448,732.2,300.4194" style="stroke:#000000;stroke-width:1;"/></g><!--link GE to PUB--><g id="link_GE_PUB"><path d="M728.54,186.7094 C705.21,201.5994 674.25,222.0294 648,241.6094 C622.68,260.4994 599.6765,279.831 580.4365,296.571 " fill="transparent" id="GE-to-PUB" style="stroke:#000000;stroke-width:1;"/><polygon fill="#000000" points="575.91,300.5094,585.3253,297.6195,579.6821,297.2274,580.0742,291.5842,575.91,300.5094" style="stroke:#000000;stroke-width:1;"/></g><!--link FC to MP--><g id="link_FC_MP"><path d="M938,346.6294 C938,373.8894 938,414.0294 938,441.3794 " fill="transparent" id="FC-to-MP" style="stroke:#000000;stroke-width:1;"/><polygon fill="#000000" points="938,447.3794,942,438.3794,938,442.3794,934,438.3794,938,447.3794" style="stroke:#000000;stroke-width:1;"/></g><!--link MP to SSM--><g id="link_MP_SSM"><path d="M937.26,493.6794 C936.11,528.2294 934.1007,588.7027 932.9407,623.3627 " fill="transparent" id="MP-to-SSM" style="stroke:#000000;stroke-width:1;"/><polygon fill="#000000" points="932.74,629.3594,937.0388,620.4982,932.9072,624.3622,929.0433,620.2306,932.74,629.3594" style="stroke:#000000;stroke-width:1;"/></g><!--link MP to PDM--><g id="link_MP_PDM"><path d="M937.09,493.9994 C936.65,517.8094 937.66,553.3094 947,562.6094 C960.45,575.9894 1013.77,565.3394 1032,570.6094 C1077.91,583.8694 1121.1633,607.2322 1152.5433,626.3122 " fill="transparent" id="MP-to-PDM" style="stroke:#000000;stroke-width:1;"/><polygon fill="#000000" points="1157.67,629.4294,1152.0581,621.3358,1153.3977,626.8317,1147.9018,628.1714,1157.67,629.4294" style="stroke:#000000;stroke-width:1;"/></g><!--link PUB to SHM--><g id="link_PUB_SHM"><path d="M509.89,346.7894 C492.96,355.2094 472.91,364.2794 454,370.6094 C339.11,409.0694 301.11,384.8794 187,425.6094 C176.3,429.4294 170.6376,431.7082 160.2276,436.9082 " fill="transparent" id="PUB-to-SHM" style="stroke:#008000;stroke-width:1;"/><polygon fill="#008000" points="154.86,439.5894,164.6989,439.1459,159.333,437.355,161.1239,431.9892,154.86,439.5894" style="stroke:#008000;stroke-width:1;"/><text fill="#000000" font-family="Verdana" font-size="13" lengthAdjust="spacing" textLength="86.0806" x="428" y="391.6763">seqlock write</text></g><!--link RCV to SHM--><g id="link_RCV_SHM"><path d="M133.53,346.6294 C127.38,371.4294 118.7868,406.0464 111.9068,433.7364 " fill="transparent" id="RCV-to-SHM" style="stroke:#008000;stroke-width:1;"/><polygon fill="#008000" points="110.46,439.5594,116.5122,431.7895,111.6657,434.7069,108.7482,429.8604,110.46,439.5594" style="stroke:#008000;stroke-width:1;"/><text fill="#000000" font-family="Verdana" font-size="13" lengthAdjust="spacing" textLength="82.9575" x="126" y="391.6763">seqlock read</text></g><!--link RXT to SOCK--><g id="link_RXT_SOCK"><path d="M815.8502,407.0897 C815.544,409.4075 815.2329,411.7035 814.9175,413.9787 C814.2866,418.5289 813.6385,422.9955 812.9778,427.3841 C810.3349,444.9385 807.4911,461.2457 804.7497,476.6758 C799.2669,507.5359 794.1938,534.8875 791.9575,561.6906 C787.485,615.2969 794.36,666.7094 832,739.6094 C854.19,782.5894 896.7671,815.1537 916.8271,829.0437 " fill="transparent" id="RXT-to-SOCK" style="stroke:#0000FF;stroke-width:1;"/><polygon fill="#0000FF" points="921.76,832.4594,916.6378,824.0473,917.6493,829.613,912.0836,830.6245,921.76,832.4594" style="stroke:#0000FF;stroke-width:1;"/><text fill="#000000" font-family="Verdana" font-size="13" lengthAdjust="spacing" textLength="28.1836" x="794" y="558.6763">recv</text></g><!--link PDT to SOCK--><g id="link_PDT_SOCK"><path d="M1314.2917,700.0246 C1314.2643,700.1688 1314.2365,700.313 1314.2085,700.4573 C1314.1525,700.7459 1314.0953,701.0346 1314.0371,701.3235 C1313.1054,705.9455 1311.8902,710.5997 1310.3177,715.1313 C1307.1725,724.1944 1302.5975,732.7669 1296,739.6094 C1243.7,793.8394 997.7757,829.5938 946.1857,836.5838 " fill="transparent" id="PDT-to-SOCK" style="stroke:#0000FF;stroke-width:1;"/><polygon fill="#0000FF" points="940.24,837.3894,949.6956,840.1448,945.1947,836.7181,948.6215,832.2172,940.24,837.3894" style="stroke:#0000FF;stroke-width:1;"/><text fill="#000000" font-family="Verdana" font-size="13" lengthAdjust="spacing" textLength="63.8257" x="1283" y="760.6763">send/recv</text></g><!--link PHC to PHCDEV--><g id="link_PHC_PHCDEV"><path d="M693.85,346.7194 C680.11,355.1294 663.73,364.2094 648,370.6094 C499.96,430.7894 311.3959,460.8946 267.1559,467.4146 " fill="transparent" id="PHC-to-PHCDEV" style="stroke:#FFA500;stroke-width:1;"/><polygon fill="#FFA500" points="261.22,468.2894,270.707,470.9344,266.1666,467.5604,269.5406,463.0199,261.22,468.2894" style="stroke:#FFA500;stroke-width:1;"/><text fill="#000000" font-family="Verdana" font-size="13" lengthAdjust="spacing" textLength="89.0894" x="628" y="391.6763">clock_adjtime</text></g><!--link SOCK to NET--><g id="link_SOCK_NET"><path d="M931,848.7594 C931,872.5194 931,936.2494 931,972.3594 " fill="transparent" id="SOCK-to-NET" style="stroke:#0000FF;stroke-width:1;"/><polygon fill="#0000FF" points="931,978.3594,935,969.3594,931,973.3594,927,969.3594,931,978.3594" style="stroke:#0000FF;stroke-width:1;"/><text fill="#000000" font-family="Verdana" font-size="13" lengthAdjust="spacing" textLength="81.3262" x="950.9192" y="929.6763">gPTP frames</text><text fill="#000000" font-family="Verdana" font-size="13" lengthAdjust="spacing" textLength="119.1646" x="932" y="944.8091">EtherType 0x88F7</text></g><!--link PM to REC--><g id="link_PM_REC"><path d="M400.32,186.9094 C396.7,217.0294 390.9957,264.4122 387.3857,294.4622 " fill="transparent" id="PM-to-REC" style="stroke:#000000;stroke-width:1;"/><polygon fill="#000000" points="386.67,300.4194,391.7149,291.9607,387.2664,295.4551,383.772,291.0065,386.67,300.4194" style="stroke:#000000;stroke-width:1;"/><text fill="#000000" font-family="Verdana" font-size="13" lengthAdjust="spacing" textLength="85.7314" x="397" y="229.6763">probe events</text></g><!--SRC=[XLHHRzem47xth_3WPNj0x6rL7oQL99If3RD8O9DAXOnp92x1pXm3HTN- -yw1i9G1inJfbFk- - -ukd_F1Ph02MkHSAaAij3dGMAuWola6g0z5hdShK9PE96m9KJe1sWgySOk-4Ogdu6B9KtptbyIC5b2MBSfB6aVi07H7w5MXbQlsT5_O8b2fLF3iSFS1RJ_ADBCHprTQNM9yAmHRptDPPc0g7Xlt3aGcrP8SUSUsHgznPe0dLJUZdt6ZcvFwVSDNuE5yeghSzsZxHmRSNiA7E2DAC6xAGpCX-mybsYaHMMuXv2AhHu-Yy9Js-ymWB86Sxnh3CF_AC0p0-8uG0Y_NfjwMVqsgIS_4NVAoBcrD7E0s7l7ZgWJCMOBHSvnAOQi71YhrGAPm3Zq2eKroG8u2hmazDFJELpu7DCLxO_bNZ8KsGGcGcrh2cpHTqf19kELpNg9Eb7432GrHoUocgfjYdPbxf5heIZ8QX7kILBYN1HVENdnB8osMOAVgurr_nkwyXo3-jCT_znvEyMwHFcoa0CHt4zXqKMAunsFE3oO4EnEvNYUqDGIxrMPP9OT1J0ZUaaxdgxDn7Q89Zk70EuRZ7Y5eO1U7ZA0lNOH6gqCq0Y7kxdIUsga1KCykFmZfBItXLuu3qQsH5eZRt6MCyo8XxbOXPfwleOBWs8Wn83R4UVJVL8aswbPvulQ106suIYl8VWa84avXnfCNYmOWfA8sIk4-49IocD65kxZbL0NuApFnhW3w-VNcfly5guVxVQ73RcdXB4e1FMnByWS0]--></g></svg>