<svg xmlns="http://www.w3.org/2000/svg" xmlns:xlink="http://www.w3.org/1999/xlink" contentStyleType="text/css" data-diagram-type="CLASS" height="694px" preserveAspectRatio="none" style="width:840px;height:694px;background:#FFFFFF;" version="1.1" viewBox="0 0 840 694" width="840px" zoomAndPan="magnify"><title>IPC: Class Diagram</title><defs/><g><text fill="#000000" font-family="sans-serif" font-size="14" font-weight="bold" lengthAdjust="spacing" textLength="149.1055" x="338.8594" y="22.9951">IPC: Class Diagram</text><rect fill="#DDDDDD" height="62.8906" id="_legend" rx="7.5" ry="7.5" style="stroke:#000000;stroke-width:1;" width="297.7998" x="12" y="49.2969"/><text fill="#000000" font-family="sans-serif" font-size="14" font-weight="bold" lengthAdjust="spacing" textLength="41.2139" x="21.874" y="69.292">Color</text><text fill="#000000" font-family="sans-serif" font-size="14" font-weight="bold" lengthAdjust="spacing" textLength="90.5488" x="111.8281" y="69.292">Description</text><rect fill="#F5F5DC" height="16.2969" style="stroke:transparent;stroke-width:1;" width="89.9541" x="17" y="72.5938"/><text fill="#000000" font-family="sans-serif" font-size="14" lengthAdjust="spacing" textLength="31.1514" x="17" y="85.5889">&#160;&#160;&#160;&#160;&#160;&#160;&#160;</text><text fill="#000000" font-family="sans-serif" font-size="14" lengthAdjust="spacing" textLength="89.2021" x="111.4043" y="85.5889">Base classes</text><rect fill="#FFB6C1" height="16.2969" style="stroke:transparent;stroke-width:1;" width="89.9541" x="17" y="88.8906"/><text fill="#000000" font-family="sans-serif" font-size="14" lengthAdjust="spacing" textLength="13.3506" x="17" y="101.8857">&#160;&#160;&#160;</text><text fill="#000000" font-family="sans-serif" font-size="14" lengthAdjust="spacing" textLength="113.292" x="111.4043" y="101.8857">IPC components</text><line style="stroke:#000000;stroke-width:1;" x1="17" x2="304.7998" y1="56.2969" y2="56.2969"/><line style="stroke:#000000;stroke-width:1;" x1="17" x2="304.7998" y1="72.5938" y2="72.5938"/><line style="stroke:#000000;stroke-width:1;" x1="17" x2="304.7998" y1="88.8906" y2="88.8906"/><line style="stroke:#000000;stroke-width:1;" x1="17" x2="304.7998" y1="105.1875" y2="105.1875"/><line style="stroke:#000000;stroke-width:1;" x1="17" x2="17" y1="56.2969" y2="105.1875"/><line style="stroke:#000000;stroke-width:1;" x1="106.9541" x2="106.9541" y1="56.2969" y2="105.1875"/><line style="stroke:#000000;stroke-width:1;" x1="304.7998" x2="304.7998" y1="56.2969" y2="105.1875"/><!--class time_info--><g id="elem_time_info"><rect codeLine="10" fill="#F5F5DC" height="96.8906" id="time_info" rx="2.5" ry="2.5" style="stroke:#181818;stroke-width:0.5;" width="151.3574" x="244.5" y="590.1875"/><ellipse cx="275.4078" cy="606.1875" fill="#ADD1B2" rx="11" ry="11" style="stroke:#181818;stroke-width:1;"/><path d="M278.3765,611.8281 Q277.7984,612.125 277.1578,612.2656 Q276.5171,612.4219 275.814,612.4219 Q273.314,612.4219 271.9859,610.7813 Q270.6734,609.125 270.6734,606 Q270.6734,602.875 271.9859,601.2188 Q273.314,599.5625 275.814,599.5625 Q276.5171,599.5625 277.1578,599.7188 Q277.814,599.875 278.3765,600.1719 L278.3765,602.8906 Q277.7515,602.3125 277.1578,602.0469 Q276.564,601.7656 275.939,601.7656 Q274.5953,601.7656 273.9078,602.8438 Q273.2203,603.9063 273.2203,606 Q273.2203,608.0938 273.9078,609.1719 Q274.5953,610.2344 275.939,610.2344 Q276.564,610.2344 277.1578,609.9688 Q277.7515,609.6875 278.3765,609.1094 L278.3765,611.8281 Z " fill="#000000"/><text fill="#000000" font-family="sans-serif" font-size="14" lengthAdjust="spacing" textLength="84.0068" x="292.9428" y="611.0342">PtpTimeInfo</text><line style="stroke:#181818;stroke-width:0.5;" x1="245.5" x2="394.8574" y1="622.1875" y2="622.1875"/><ellipse cx="255.5" cy="635.8359" fill="transparent" rx="3" ry="3" style="stroke:#038048;stroke-width:1;"/><text fill="#000000" font-family="sans-serif" font-size="14" lengthAdjust="spacing" textLength="77.3691" x="264.5" y="639.1826">ptp: uint64</text><ellipse cx="255.5" cy="652.1328" fill="transparent" rx="3" ry="3" style="stroke:#038048;stroke-width:1;"/><text fill="#000000" font-family="sans-serif" font-size="14" lengthAdjust="spacing" textLength="125.3574" x="264.5" y="655.4795">local_time: uint64</text><ellipse cx="255.5" cy="668.4297" fill="transparent" rx="3" ry="3" style="stroke:#038048;stroke-width:1;"/><text fill="#000000" font-family="sans-serif" font-size="14" lengthAdjust="spacing" textLength="70.4375" x="264.5" y="671.7764">status: int</text><line style="stroke:#181818;stroke-width:0.5;" x1="245.5" x2="394.8574" y1="679.0781" y2="679.0781"/></g><!--class base_machine--><g id="elem_base_machine"><rect codeLine="16" fill="#F5F5DC" height="80.5938" id="base_machine" rx="2.5" ry="2.5" style="stroke:#181818;stroke-width:0.5;" width="152.5332" x="247.5" y="132.1875"/><ellipse cx="275.0271" cy="148.1875" fill="#A9DCDF" rx="11" ry="11" style="stroke:#181818;stroke-width:1;"/><path d="M275.1364,143.5313 L273.9802,148.6094 L276.3083,148.6094 L275.1364,143.5313 Z M273.6521,141.2969 L276.6364,141.2969 L279.9958,153.6875 L277.5427,153.6875 L276.7771,150.625 L273.4958,150.625 L272.7458,153.6875 L270.3083,153.6875 L273.6521,141.2969 Z " fill="#000000"/><text fill="#000000" font-family="sans-serif" font-size="14" font-style="italic" lengthAdjust="spacing" textLength="92.6953" x="291.8108" y="153.0342">BaseMachine</text><line style="stroke:#181818;stroke-width:0.5;" x1="248.5" x2="399.0332" y1="164.1875" y2="164.1875"/><line style="stroke:#181818;stroke-width:0.5;" x1="248.5" x2="399.0332" y1="172.1875" y2="172.1875"/><ellipse cx="258.5" cy="185.8359" fill="#84BE84" rx="3" ry="3" style="stroke:#038048;stroke-width:1;"/><text fill="#000000" font-family="sans-serif" font-size="14" lengthAdjust="spacing" textLength="126.5332" x="267.5" y="189.1826">GetName(): string</text><ellipse cx="258.5" cy="202.1328" fill="#84BE84" rx="3" ry="3" style="stroke:#038048;stroke-width:1;"/><text fill="#000000" font-family="sans-serif" font-size="14" lengthAdjust="spacing" textLength="72.3789" x="267.5" y="205.4795">Init(): bool</text></g><!--class reactive_machine--><g id="elem_reactive_machine"><rect codeLine="21" fill="#F5F5DC" height="48" id="reactive_machine" rx="2.5" ry="2.5" style="stroke:#181818;stroke-width:0.5;" width="151.499" x="248.5" y="290.6875"/><ellipse cx="263.5" cy="306.6875" fill="#A9DCDF" rx="11" ry="11" style="stroke:#181818;stroke-width:1;"/><path d="M263.6094,302.0313 L262.4531,307.1094 L264.7813,307.1094 L263.6094,302.0313 Z M262.125,299.7969 L265.1094,299.7969 L268.4688,312.1875 L266.0156,312.1875 L265.25,309.125 L261.9688,309.125 L261.2188,312.1875 L258.7813,312.1875 L262.125,299.7969 Z " fill="#000000"/><text fill="#000000" font-family="sans-serif" font-size="14" font-style="italic" lengthAdjust="spacing" textLength="119.499" x="277.5" y="311.5342">ReactiveMachine</text><line style="stroke:#181818;stroke-width:0.5;" x1="249.5" x2="398.999" y1="322.6875" y2="322.6875"/><line style="stroke:#181818;stroke-width:0.5;" x1="249.5" x2="398.999" y1="330.6875" y2="330.6875"/></g><!--class consumer--><g id="elem_consumer"><rect codeLine="24" fill="#F5F5DC" height="64.2969" id="consumer" rx="2.5" ry="2.5" style="stroke:#181818;stroke-width:0.5;" width="206.2227" x="7" y="282.6875"/><ellipse cx="64.5024" cy="298.6875" fill="#A9DCDF" rx="11" ry="11" style="stroke:#181818;stroke-width:1;"/><path d="M64.6118,294.0313 L63.4556,299.1094 L65.7837,299.1094 L64.6118,294.0313 Z M63.1274,291.7969 L66.1118,291.7969 L69.4712,304.1875 L67.0181,304.1875 L66.2524,301.125 L62.9712,301.125 L62.2212,304.1875 L59.7837,304.1875 L63.1274,291.7969 Z " fill="#000000"/><text fill="#000000" font-family="sans-serif" font-size="14" font-style="italic" lengthAdjust="spacing" textLength="71.3877" x="85.0024" y="303.5342">Consumer</text><rect fill="#FFFFFF" height="15.9688" style="stroke:#181818;stroke-width:1;stroke-dasharray:2.0,2.0;" width="9.3301" x="206.8926" y="279.6875"/><text fill="#000000" font-family="sans-serif" font-size="12" font-style="italic" lengthAdjust="spacing" textLength="7.3301" x="207.8926" y="291.8262">T</text><line style="stroke:#181818;stroke-width:0.5;" x1="8" x2="212.2227" y1="314.6875" y2="314.6875"/><line style="stroke:#181818;stroke-width:0.5;" x1="8" x2="212.2227" y1="322.6875" y2="322.6875"/><ellipse cx="18" cy="336.3359" fill="#84BE84" rx="3" ry="3" style="stroke:#038048;stroke-width:1;"/><text fill="#000000" font-family="sans-serif" font-size="14" lengthAdjust="spacing" textLength="180.2227" x="27" y="339.6826">OnMessage(data: T): void</text></g><!--class receiver--><g id="elem_receiver"><rect codeLine="28" fill="#F5F5DC" height="80.5938" id="receiver" rx="2.5" ry="2.5" style="stroke:#181818;stroke-width:0.5;" width="190.2813" x="542" y="274.1875"/><ellipse cx="596.6279" cy="290.1875" fill="#A9DCDF" rx="11" ry="11" style="stroke:#181818;stroke-width:1;"/><path d="M596.7373,285.5313 L595.5811,290.6094 L597.9092,290.6094 L596.7373,285.5313 Z M595.2529,283.2969 L598.2373,283.2969 L601.5967,295.6875 L599.1436,295.6875 L598.3779,292.625 L595.0967,292.625 L594.3467,295.6875 L591.9092,295.6875 L595.2529,283.2969 Z " fill="#000000"/><text fill="#000000" font-family="sans-serif" font-size="14" font-style="italic" lengthAdjust="spacing" textLength="61.1953" x="617.1279" y="295.0342">Receiver</text><rect fill="#FFFFFF" height="15.9688" style="stroke:#181818;stroke-width:1;stroke-dasharray:2.0,2.0;" width="9.3301" x="725.9512" y="271.1875"/><text fill="#000000" font-family="sans-serif" font-size="12" font-style="italic" lengthAdjust="spacing" textLength="7.3301" x="726.9512" y="283.3262">T</text><line style="stroke:#181818;stroke-width:0.5;" x1="543" x2="731.2813" y1="306.1875" y2="306.1875"/><line style="stroke:#181818;stroke-width:0.5;" x1="543" x2="731.2813" y1="314.1875" y2="314.1875"/><ellipse cx="553" cy="327.8359" fill="#84BE84" rx="3" ry="3" style="stroke:#038048;stroke-width:1;"/><text fill="#000000" font-family="sans-serif" font-size="14" lengthAdjust="spacing" textLength="72.3789" x="562" y="331.1826">Init(): bool</text><ellipse cx="553" cy="344.1328" fill="#84BE84" rx="3" ry="3" style="stroke:#038048;stroke-width:1;"/><text fill="#000000" font-family="sans-serif" font-size="14" lengthAdjust="spacing" textLength="164.2813" x="562" y="347.4795">Receive(): optional&lt;T&gt;</text></g><!--class publisher_impl--><g id="elem_publisher_impl"><rect codeLine="33" fill="#FFB6C1" height="96.8906" id="publisher_impl" rx="2.5" ry="2.5" style="stroke:#181818;stroke-width:0.5;" width="385.3242" x="24.5" y="416.1875"/><ellipse cx="134.3398" cy="432.1875" fill="#ADD1B2" rx="11" ry="11" style="stroke:#181818;stroke-width:1;"/><path d="M137.3086,437.8281 Q136.7305,438.125 136.0898,438.2656 Q135.4492,438.4219 134.7461,438.4219 Q132.2461,438.4219 130.918,436.7813 Q129.6055,435.125 129.6055,432 Q129.6055,428.875 130.918,427.2188 Q132.2461,425.5625 134.7461,425.5625 Q135.4492,425.5625 136.0898,425.7188 Q136.7461,425.875 137.3086,426.1719 L137.3086,428.8906 Q136.6836,428.3125 136.0898,428.0469 Q135.4961,427.7656 134.8711,427.7656 Q133.5273,427.7656 132.8398,428.8438 Q132.1523,429.9063 132.1523,432 Q132.1523,434.0938 132.8398,435.1719 Q133.5273,436.2344 134.8711,436.2344 Q135.4961,436.2344 136.0898,435.9688 Q136.6836,435.6875 137.3086,435.1094 L137.3086,437.8281 Z " fill="#000000"/><text fill="#000000" font-family="sans-serif" font-size="14" lengthAdjust="spacing" textLength="95.0605" x="154.8398" y="437.0342">PublisherImpl</text><rect fill="#FFFFFF" height="15.9688" style="stroke:#181818;stroke-width:1;stroke-dasharray:2.0,2.0;" width="60.084" x="352.7402" y="413.1875"/><text fill="#000000" font-family="sans-serif" font-size="12" font-style="italic" lengthAdjust="spacing" textLength="58.084" x="353.7402" y="425.3262">DataType</text><line style="stroke:#181818;stroke-width:0.5;" x1="25.5" x2="408.8242" y1="448.1875" y2="448.1875"/><rect fill="transparent" height="6" style="stroke:#C82930;stroke-width:1;" width="6" x="32.5" y="458.8359"/><text fill="#000000" font-family="sans-serif" font-size="14" lengthAdjust="spacing" textLength="359.3242" x="44.5" y="465.1826">shm_handler_: SharedMemoryHandler&lt;DataType&gt;</text><line style="stroke:#181818;stroke-width:0.5;" x1="25.5" x2="408.8242" y1="472.4844" y2="472.4844"/><ellipse cx="35.5" cy="486.1328" fill="#84BE84" rx="3" ry="3" style="stroke:#038048;stroke-width:1;"/><text fill="#000000" font-family="sans-serif" font-size="14" lengthAdjust="spacing" textLength="239.4355" x="44.5" y="489.4795">OnMessage(data: DataType): void</text><ellipse cx="35.5" cy="502.4297" fill="#84BE84" rx="3" ry="3" style="stroke:#038048;stroke-width:1;"/><text fill="#000000" font-family="sans-serif" font-size="14" lengthAdjust="spacing" textLength="72.3789" x="44.5" y="505.7764">Init(): bool</text></g><!--class receiver_impl--><g id="elem_receiver_impl"><rect codeLine="39" fill="#FFB6C1" height="96.8906" id="receiver_impl" rx="2.5" ry="2.5" style="stroke:#181818;stroke-width:0.5;" width="385.3242" x="444.5" y="416.1875"/><ellipse cx="556.001" cy="432.1875" fill="#ADD1B2" rx="11" ry="11" style="stroke:#181818;stroke-width:1;"/><path d="M558.9697,437.8281 Q558.3916,438.125 557.751,438.2656 Q557.1104,438.4219 556.4072,438.4219 Q553.9072,438.4219 552.5791,436.7813 Q551.2666,435.125 551.2666,432 Q551.2666,428.875 552.5791,427.2188 Q553.9072,425.5625 556.4072,425.5625 Q557.1104,425.5625 557.751,425.7188 Q558.4072,425.875 558.9697,426.1719 L558.9697,428.8906 Q558.3447,428.3125 557.751,428.0469 Q557.1572,427.7656 556.5322,427.7656 Q555.1885,427.7656 554.501,428.8438 Q553.8135,429.9063 553.8135,432 Q553.8135,434.0938 554.501,435.1719 Q555.1885,436.2344 556.5322,436.2344 Q557.1572,436.2344 557.751,435.9688 Q558.3447,435.6875 558.9697,435.1094 L558.9697,437.8281 Z " fill="#000000"/><text fill="#000000" font-family="sans-serif" font-size="14" lengthAdjust="spacing" textLength="91.7383" x="576.501" y="437.0342">ReceiverImpl</text><rect fill="#FFFFFF" height="15.9688" style="stroke:#181818;stroke-width:1;stroke-dasharray:2.0,2.0;" width="60.084" x="772.7402" y="413.1875"/><text fill="#000000" font-family="sans-serif" font-size="12" font-style="italic" lengthAdjust="spacing" textLength="58.084" x="773.7402" y="425.3262">DataType</text><line style="stroke:#181818;stroke-width:0.5;" x1="445.5" x2="828.8242" y1="448.1875" y2="448.1875"/><rect fill="transparent" height="6" style="stroke:#C82930;stroke-width:1;" width="6" x="452.5" y="458.8359"/><text fill="#000000" font-family="sans-serif" font-size="14" lengthAdjust="spacing" textLength="359.3242" x="464.5" y="465.1826">shm_handler_: SharedMemoryHandler&lt;DataType&gt;</text><line style="stroke:#181818;stroke-width:0.5;" x1="445.5" x2="828.8242" y1="472.4844" y2="472.4844"/><ellipse cx="455.5" cy="486.1328" fill="#84BE84" rx="3" ry="3" style="stroke:#038048;stroke-width:1;"/><text fill="#000000" font-family="sans-serif" font-size="14" lengthAdjust="spacing" textLength="72.3789" x="464.5" y="489.4795">Init(): bool</text><ellipse cx="455.5" cy="502.4297" fill="#84BE84" rx="3" ry="3" style="stroke:#038048;stroke-width:1;"/><text fill="#000000" font-family="sans-serif" font-size="14" lengthAdjust="spacing" textLength="223.4941" x="464.5" y="505.7764">Receive(): optional&lt;DataType&gt;</text></g><!--class shm_handler--><g id="elem_shm_handler"><rect codeLine="45" fill="#E0FFFF" height="96.8906" id="shm_handler" rx="2.5" ry="2.5" style="stroke:#181818;stroke-width:0.5;" width="204.9863" x="448.5" y="590.1875"/><ellipse cx="463.5" cy="606.1875" fill="#ADD1B2" rx="11" ry="11" style="stroke:#181818;stroke-width:1;"/><path d="M466.4688,611.8281 Q465.8906,612.125 465.25,612.2656 Q464.6094,612.4219 463.9063,612.4219 Q461.4063,612.4219 460.0781,610.7813 Q458.7656,609.125 458.7656,606 Q458.7656,602.875 460.0781,601.2188 Q461.4063,599.5625 463.9063,599.5625 Q464.6094,599.5625 465.25,599.7188 Q465.9063,599.875 466.4688,600.1719 L466.4688,602.8906 Q465.8438,602.3125 465.25,602.0469 Q464.6563,601.7656 464.0313,601.7656 Q462.6875,601.7656 462,602.8438 Q461.3125,603.9063 461.3125,606 Q461.3125,608.0938 462,609.1719 Q462.6875,610.2344 464.0313,610.2344 Q464.6563,610.2344 465.25,609.9688 Q465.8438,609.6875 466.4688,609.1094 L466.4688,611.8281 Z " fill="#000000"/><text fill="#000000" font-family="sans-serif" font-size="14" lengthAdjust="spacing" textLength="161.6563" x="477.5" y="611.0342">SharedMemoryHandler</text><rect fill="#FFFFFF" height="15.9688" style="stroke:#181818;stroke-width:1;stroke-dasharray:2.0,2.0;" width="9.3301" x="647.1563" y="587.1875"/><text fill="#000000" font-family="sans-serif" font-size="12" font-style="italic" lengthAdjust="spacing" textLength="7.3301" x="648.1563" y="599.3262">T</text><line style="stroke:#181818;stroke-width:0.5;" x1="449.5" x2="652.4863" y1="622.1875" y2="622.1875"/><line style="stroke:#181818;stroke-width:0.5;" x1="449.5" x2="652.4863" y1="630.1875" y2="630.1875"/><ellipse cx="459.5" cy="643.8359" fill="#84BE84" rx="3" ry="3" style="stroke:#038048;stroke-width:1;"/><text fill="#000000" font-family="sans-serif" font-size="14" lengthAdjust="spacing" textLength="72.3789" x="468.5" y="647.1826">Init(): bool</text><ellipse cx="459.5" cy="660.1328" fill="#84BE84" rx="3" ry="3" style="stroke:#038048;stroke-width:1;"/><text fill="#000000" font-family="sans-serif" font-size="14" lengthAdjust="spacing" textLength="134.2305" x="468.5" y="663.4795">Send(data: T): void</text><ellipse cx="459.5" cy="676.4297" fill="#84BE84" rx="3" ry="3" style="stroke:#038048;stroke-width:1;"/><text fill="#000000" font-family="sans-serif" font-size="14" lengthAdjust="spacing" textLength="164.2813" x="468.5" y="679.7764">Receive(): optional&lt;T&gt;</text></g><!--reverse link base_machine to reactive_machine--><g id="link_base_machine_reactive_machine"><path codeLine="51" d="M324,231.4275 C324,256.3275 324,269.5575 324,290.4775 " fill="transparent" id="base_machine-backto-reactive_machine" style="stroke:#181818;stroke-width:1;"/><polygon fill="transparent" points="324,213.4275,318,231.4275,330,231.4275,324,213.4275" style="stroke:#181818;stroke-width:1;"/></g><!--reverse link reactive_machine to publisher_impl--><g id="link_reactive_machine_publisher_impl"><path codeLine="52" d="M296.7347,353.395 C281.8647,373.965 270.19,390.1175 251.52,415.9475 " fill="transparent" id="reactive_machine-backto-publisher_impl" style="stroke:#181818;stroke-width:1;"/><polygon fill="transparent" points="307.28,338.8075,291.8722,349.8799,301.5972,356.9102,307.28,338.8075" style="stroke:#181818;stroke-width:1;"/></g><!--reverse link consumer to publisher_impl--><g id="link_consumer_publisher_impl"><path codeLine="53" d="M142.9773,361.3036 C157.4973,381.3836 166.15,393.3575 182.59,416.0875 " fill="transparent" id="consumer-backto-publisher_impl" style="stroke:#181818;stroke-width:1;stroke-dasharray:7.0,7.0;"/><polygon fill="transparent" points="132.43,346.7175,138.1153,364.8194,147.8393,357.7878,132.43,346.7175" style="stroke:#181818;stroke-width:1;"/></g><!--reverse link receiver to receiver_impl--><g id="link_receiver_receiver_impl"><path codeLine="54" d="M637,373.3475 C637,392.0175 637,396.4275 637,416.0075 " fill="transparent" id="receiver-backto-receiver_impl" style="stroke:#181818;stroke-width:1;"/><polygon fill="transparent" points="637,355.3475,631,373.3475,643,373.3475,637,355.3475" style="stroke:#181818;stroke-width:1;"/></g><!--link publisher_impl to shm_handler--><g id="link_publisher_impl_shm_handler"><path codeLine="56" d="M309.59,513.3675 C356.02,537.2775 406.7655,563.411 453.1855,587.311 " fill="transparent" id="publisher_impl-to-shm_handler" style="stroke:#181818;stroke-width:1;"/><polygon fill="#181818" points="458.52,590.0575,452.3493,582.3814,454.0746,587.7687,448.6873,589.494,458.52,590.0575" style="stroke:#181818;stroke-width:1;"/><text fill="#000000" font-family="sans-serif" font-size="13" lengthAdjust="spacing" textLength="29.7832" x="395" y="556.2544">uses</text></g><!--link receiver_impl to shm_handler--><g id="link_receiver_impl_shm_handler"><path codeLine="57" d="M613.04,513.5975 C601.12,537.4575 589.4224,560.8405 577.5124,584.6705 " fill="transparent" id="receiver_impl-to-shm_handler" style="stroke:#181818;stroke-width:1;"/><polygon fill="#181818" points="574.83,590.0375,582.4316,583.7752,577.0653,585.565,575.2756,580.1987,574.83,590.0375" style="stroke:#181818;stroke-width:1;"/><text fill="#000000" font-family="sans-serif" font-size="13" lengthAdjust="spacing" textLength="29.7832" x="597" y="556.2544">uses</text></g><!--link publisher_impl to time_info--><g id="link_publisher_impl_time_info"><path codeLine="59" d="M245.69,513.5975 C259.98,537.4575 274.1191,561.0589 288.3791,584.8889 " fill="transparent" id="publisher_impl-to-time_info" style="stroke:#181818;stroke-width:1;"/><polygon fill="#181818" points="291.46,590.0375,290.271,580.2607,288.8926,585.747,283.4062,584.3686,291.46,590.0375" style="stroke:#181818;stroke-width:1;"/><text fill="#000000" font-family="sans-serif" font-size="13" lengthAdjust="spacing" textLength="65.0127" x="273" y="556.2544">processes</text></g><!--link receiver_impl to time_info--><g id="link_receiver_impl_time_info"><path codeLine="60" d="M549.94,513.3875 C522.46,528.3975 491.98,545.0175 464,560.1875 C441.79,572.2275 422.8937,582.4246 400.8137,594.3046 " fill="transparent" id="receiver_impl-to-time_info" style="stroke:#181818;stroke-width:1;"/><polygon fill="#181818" points="395.53,597.1475,405.3509,596.4057,399.9331,594.7784,401.5604,589.3607,395.53,597.1475" style="stroke:#181818;stroke-width:1;"/><text fill="#000000" font-family="sans-serif" font-size="13" lengthAdjust="spacing" textLength="65.0127" x="493" y="556.2544">processes</text></g><!--SRC=[hLGzRzim4DtvAmx9ag9GfY23e7g83AG6ujHel0iqVP68yWia7S2e-zzBIPGLoKpReTpkaNVl7U-Hddk1iDgKEPI2EWTBJcjB9I42QrHxyDg0m5TF8ApJ5oYrq1Q65O0bEcQvyLmhIAnJdmZ5zGFo6XS330_K8R2M4zsV4vzutVWDLpyM7H340jFIQ8NAkrHYqDsh9wGZWAkDDrikSQLUzHLG1pu45GyHzBBWPyVssNYJmu4hVt_N0q8pAghs-1Htdlg3oo50v1SXTEUyfSn3v6kRMrFMS8KTtox4bUo16UKZ-cSgyUPJ3g46LtKFhnJtBRRJMgGOlcC8-Dk4nKRiaYbHeDJA7IJQOhleabcCP_A-gJKwHskysLDFSzW6JM-QxzEQ60RwSqaRurd9IMiT4XDRK7TEeYBKQ2c6-HrsWhi6xKeQKIo3aktHOCzYXhsAXqqOxHBvCjV8gg6j9soLmqj3BUxNABKzVktHiM2wvs5xQ3qveDaT98GEr_7VTFxRHOv9eyfKyJYqTogYnl98rSUpUmdlREwDlmnryXgAKvPTE9TSMBaxDXqrELksEDtUpZVFvei4x-wUa9bdicmnwJkyzV0haUd0FZYKgZL-BpaOgncwTBdqkTy0]--></g></svg>