<svg xmlns="http://www.w3.org/2000/svg" xmlns:xlink="http://www.w3.org/1999/xlink" contentStyleType="text/css" data-diagram-type="SEQUENCE" height="902px" preserveAspectRatio="none" style="width:799px;height:902px;background:#FFFFFF;" version="1.1" viewBox="0 0 799 902" width="799px" zoomAndPan="magnify"><title>PTPMachine: Initialization Sequence</title><defs/><g><text fill="#000000" font-family="sans-serif" font-size="14" font-weight="bold" lengthAdjust="spacing" textLength="287.3281" x="252.3049" y="27.9951">PTPMachine: Initialization Sequence</text><g><title>TimeBaseHandler</title><rect fill="#FFFFFF" height="122.8594" style="stroke:#181818;stroke-width:1;" width="10" x="68.9541" y="262.0469"/></g><g><title>TimeBaseHandler</title><rect fill="#FFFFFF" height="108.5313" style="stroke:#181818;stroke-width:1;" width="10" x="68.9541" y="457.1719"/></g><g><title>TimeBaseHandler</title><rect fill="#FFFFFF" height="87.3984" style="stroke:#181818;stroke-width:1;" width="10" x="68.9541" y="637.9688"/></g><g><title>TimeBaseHandler</title><rect fill="#FFFFFF" height="79.3984" style="stroke:#181818;stroke-width:1;" width="10" x="68.9541" y="797.6328"/></g><g><title>QGPTPMachine</title><rect fill="#FFFFFF" height="122.8594" style="stroke:#181818;stroke-width:1;" width="10" x="333.272" y="262.0469"/></g><g><title>QGPTPMachine</title><rect fill="#FFFFFF" height="108.5313" style="stroke:#181818;stroke-width:1;" width="10" x="333.272" y="457.1719"/></g><g><title>QGPTPMachine</title><rect fill="#FFFFFF" height="29.1328" style="stroke:#181818;stroke-width:1;" width="10" x="333.272" y="667.1016"/></g><g><title>QGPTPMachine</title><rect fill="#FFFFFF" height="79.3984" style="stroke:#181818;stroke-width:1;" width="10" x="333.272" y="797.6328"/></g><g><title>QGPTPEngine</title><rect fill="#FFFFFF" height="39.6992" style="stroke:#181818;stroke-width:1;" width="10" x="568.6631" y="496.8711"/></g><g><title>MessageBroker</title><rect fill="#FFFFFF" height="87.3984" style="stroke:#181818;stroke-width:1;" width="10" x="694.187" y="637.9688"/></g><g><title>TimeBaseHandler</title><rect fill="transparent" height="717.25" width="8" x="69.9541" y="177.7813"/><line style="stroke:#181818;stroke-width:0.5;stroke-dasharray:5.0,5.0;" x1="73" x2="73" y1="177.7813" y2="895.0313"/></g><g><title>QGPTPMachine</title><rect fill="transparent" height="633.4688" width="8" x="334.272" y="261.5625"/><line style="stroke:#181818;stroke-width:0.5;stroke-dasharray:5.0,5.0;" x1="337.3174" x2="337.3174" y1="261.5625" y2="895.0313"/></g><g><title>QGPTPEngine</title><rect fill="transparent" height="592.1719" width="8" x="569.6631" y="302.8594"/><line style="stroke:#181818;stroke-width:0.5;stroke-dasharray:5.0,5.0;" x1="573.02" x2="573.02" y1="302.8594" y2="895.0313"/></g><g><title>MessageBroker</title><rect fill="transparent" height="717.25" width="8" x="695.187" y="177.7813"/><line style="stroke:#181818;stroke-width:0.5;stroke-dasharray:5.0,5.0;" x1="698.3062" x2="698.3062" y1="177.7813" y2="895.0313"/></g><rect fill="#E0FFFF" height="30.2969" rx="2.5" ry="2.5" style="stroke:#181818;stroke-width:0.5;" width="137.9082" x="5" y="146.4844"/><text fill="#000000" font-family="sans-serif" font-size="14" lengthAdjust="spacing" textLength="123.9082" x="12" y="166.4795">TimeBaseHandler</text><rect fill="#AFEEEE" height="30.2969" rx="2.5" ry="2.5" style="stroke:#181818;stroke-width:0.5;" width="121.7617" x="638.3062" y="146.4844"/><text fill="#000000" font-family="sans-serif" font-size="14" lengthAdjust="spacing" textLength="107.7617" x="645.3062" y="166.4795">MessageBroker</text><g><title>TimeBaseHandler</title><rect fill="#FFFFFF" height="122.8594" style="stroke:#181818;stroke-width:1;" width="10" x="68.9541" y="262.0469"/></g><g><title>TimeBaseHandler</title><rect fill="#FFFFFF" height="108.5313" style="stroke:#181818;stroke-width:1;" width="10" x="68.9541" y="457.1719"/></g><g><title>TimeBaseHandler</title><rect fill="#FFFFFF" height="87.3984" style="stroke:#181818;stroke-width:1;" width="10" x="68.9541" y="637.9688"/></g><g><title>TimeBaseHandler</title><rect fill="#FFFFFF" height="79.3984" style="stroke:#181818;stroke-width:1;" width="10" x="68.9541" y="797.6328"/></g><g><title>QGPTPMachine</title><rect fill="#FFFFFF" height="122.8594" style="stroke:#181818;stroke-width:1;" width="10" x="333.272" y="262.0469"/></g><g><title>QGPTPMachine</title><rect fill="#FFFFFF" height="108.5313" style="stroke:#181818;stroke-width:1;" width="10" x="333.272" y="457.1719"/></g><g><title>QGPTPMachine</title><rect fill="#FFFFFF" height="29.1328" style="stroke:#181818;stroke-width:1;" width="10" x="333.272" y="667.1016"/></g><g><title>QGPTPMachine</title><rect fill="#FFFFFF" height="79.3984" style="stroke:#181818;stroke-width:1;" width="10" x="333.272" y="797.6328"/></g><g><title>QGPTPEngine</title><rect fill="#FFFFFF" height="39.6992" style="stroke:#181818;stroke-width:1;" width="10" x="568.6631" y="496.8711"/></g><g><title>MessageBroker</title><rect fill="#FFFFFF" height="87.3984" style="stroke:#181818;stroke-width:1;" width="10" x="694.187" y="637.9688"/></g><rect fill="#EEEEEE" height="3" style="stroke:#EEEEEE;stroke-width:1;" width="792.938" x="0" y="208.3477"/><line style="stroke:#000000;stroke-width:1;" x1="0" x2="792.938" y1="208.3477" y2="208.3477"/><line style="stroke:#000000;stroke-width:1;" x1="0" x2="792.938" y1="211.3477" y2="211.3477"/><rect fill="#EEEEEE" height="23.1328" style="stroke:#000000;stroke-width:2;" width="206.0801" x="293.429" y="197.7813"/><text fill="#000000" font-family="sans-serif" font-size="13" font-weight="bold" lengthAdjust="spacing" textLength="187.5542" x="299.429" y="213.8481">PTPMachine Construction</text><polygon fill="#181818" points="266.3174,248.0469,276.3174,252.0469,266.3174,256.0469,270.3174,252.0469" style="stroke:#181818;stroke-width:1;"/><line style="stroke:#181818;stroke-width:1;" x1="73.9541" x2="272.3174" y1="252.0469" y2="252.0469"/><text fill="#FF0000" font-family="sans-serif" font-size="13" font-weight="bold" lengthAdjust="spacing" textLength="29.9736" x="80.9541" y="246.981">[01]</text><text fill="#000000" font-family="sans-serif" font-size="13" lengthAdjust="spacing" textLength="146.3896" x="114.9277" y="246.981">create(name, interval)</text><rect fill="#F5DEB3" height="30.2969" rx="2.5" ry="2.5" style="stroke:#181818;stroke-width:0.5;" width="119.9092" x="278.3174" y="230.9141"/><text fill="#000000" font-family="sans-serif" font-size="14" lengthAdjust="spacing" textLength="105.9092" x="285.3174" y="250.9092">QGPTPMachine</text><polygon fill="#181818" points="507.02,289.3438,517.02,293.3438,507.02,297.3438,511.02,293.3438" style="stroke:#181818;stroke-width:1;"/><line style="stroke:#181818;stroke-width:1;" x1="343.272" x2="513.02" y1="293.3438" y2="293.3438"/><text fill="#FF0000" font-family="sans-serif" font-size="13" font-weight="bold" lengthAdjust="spacing" textLength="29.9736" x="350.272" y="288.2778">[02]</text><text fill="#000000" font-family="sans-serif" font-size="13" lengthAdjust="spacing" textLength="117.7744" x="384.2456" y="288.2778">create PTP engine</text><rect fill="#F5DEB3" height="30.2969" rx="2.5" ry="2.5" style="stroke:#181818;stroke-width:0.5;" width="109.2861" x="519.02" y="272.2109"/><text fill="#000000" font-family="sans-serif" font-size="14" lengthAdjust="spacing" textLength="95.2861" x="526.02" y="292.2061">QGPTPEngine</text><path d="M578,318.5078 L578,358.5078 L787,358.5078 L787,328.5078 L777,318.5078 L578,318.5078 " fill="#FEFFDD" style="stroke:#181818;stroke-width:0.5;"/><path d="M777,318.5078 L777,328.5078 L787,328.5078 L777,318.5078 " fill="#FEFFDD" style="stroke:#181818;stroke-width:0.5;"/><text fill="#000000" font-family="sans-serif" font-size="13" lengthAdjust="spacing" textLength="164.9883" x="584" y="335.5747">Initialize engine interface</text><text fill="#000000" font-family="sans-serif" font-size="13" lengthAdjust="spacing" textLength="188.938" x="584" y="350.7075">for PTP stack communication</text><polygon fill="#181818" points="84.9541,380.9063,74.9541,384.9063,84.9541,388.9063,80.9541,384.9063" style="stroke:#181818;stroke-width:1;"/><line style="stroke:#181818;stroke-width:1;stroke-dasharray:2.0,2.0;" x1="78.9541" x2="337.272" y1="384.9063" y2="384.9063"/><text fill="#FF0000" font-family="sans-serif" font-size="13" font-weight="bold" lengthAdjust="spacing" textLength="29.9736" x="90.9541" y="379.8403">[03]</text><text fill="#000000" font-family="sans-serif" font-size="13" lengthAdjust="spacing" textLength="4.1323" x="124.9277" y="379.8403">&#160;</text><rect fill="#EEEEEE" height="3" style="stroke:#EEEEEE;stroke-width:1;" width="792.938" x="0" y="413.4727"/><line style="stroke:#000000;stroke-width:1;" x1="0" x2="792.938" y1="413.4727" y2="413.4727"/><line style="stroke:#000000;stroke-width:1;" x1="0" x2="792.938" y1="416.4727" y2="416.4727"/><rect fill="#EEEEEE" height="23.1328" style="stroke:#000000;stroke-width:2;" width="204.271" x="294.3335" y="402.9063"/><text fill="#000000" font-family="sans-serif" font-size="13" font-weight="bold" lengthAdjust="spacing" textLength="185.7451" x="300.3335" y="418.9731">PTPMachine Initialization</text><polygon fill="#181818" points="321.272,453.1719,331.272,457.1719,321.272,461.1719,325.272,457.1719" style="stroke:#181818;stroke-width:1;"/><line style="stroke:#181818;stroke-width:1;" x1="78.9541" x2="327.272" y1="457.1719" y2="457.1719"/><text fill="#FF0000" font-family="sans-serif" font-size="13" font-weight="bold" lengthAdjust="spacing" textLength="29.9736" x="85.9541" y="452.106">[04]</text><text fill="#000000" font-family="sans-serif" font-size="13" lengthAdjust="spacing" textLength="30.9258" x="119.9277" y="452.106">Init()</text><polygon fill="#181818" points="556.6631,492.8711,566.6631,496.8711,556.6631,500.8711,560.6631,496.8711" style="stroke:#181818;stroke-width:1;"/><line style="stroke:#181818;stroke-width:1;" x1="343.272" x2="562.6631" y1="496.8711" y2="496.8711"/><text fill="#FF0000" font-family="sans-serif" font-size="13" font-weight="bold" lengthAdjust="spacing" textLength="29.9736" x="350.272" y="491.8052">[05]</text><text fill="#000000" font-family="sans-serif" font-size="13" lengthAdjust="spacing" textLength="64.5493" x="384.2456" y="491.8052">Initialize()</text><path d="M583,470.1719 L583,510.1719 L738,510.1719 L738,480.1719 L728,470.1719 L583,470.1719 " fill="#FEFFDD" style="stroke:#181818;stroke-width:0.5;"/><path d="M728,470.1719 L728,480.1719 L738,480.1719 L728,470.1719 " fill="#FEFFDD" style="stroke:#181818;stroke-width:0.5;"/><text fill="#000000" font-family="sans-serif" font-size="13" lengthAdjust="spacing" textLength="134.2974" x="589" y="487.2388">Establish connection</text><text fill="#000000" font-family="sans-serif" font-size="13" lengthAdjust="spacing" textLength="98.0078" x="589" y="502.3716">to PTP daemon</text><polygon fill="#181818" points="354.272,532.5703,344.272,536.5703,354.272,540.5703,350.272,536.5703" style="stroke:#181818;stroke-width:1;"/><line style="stroke:#181818;stroke-width:1;stroke-dasharray:2.0,2.0;" x1="348.272" x2="572.6631" y1="536.5703" y2="536.5703"/><text fill="#FF0000" font-family="sans-serif" font-size="13" font-weight="bold" lengthAdjust="spacing" textLength="29.9736" x="360.272" y="531.5044">[06]</text><text fill="#000000" font-family="sans-serif" font-size="13" lengthAdjust="spacing" textLength="4.1323" x="394.2456" y="531.5044">&#160;</text><polygon fill="#181818" points="84.9541,561.7031,74.9541,565.7031,84.9541,569.7031,80.9541,565.7031" style="stroke:#181818;stroke-width:1;"/><line style="stroke:#181818;stroke-width:1;stroke-dasharray:2.0,2.0;" x1="78.9541" x2="337.272" y1="565.7031" y2="565.7031"/><text fill="#FF0000" font-family="sans-serif" font-size="13" font-weight="bold" lengthAdjust="spacing" textLength="29.9736" x="90.9541" y="560.6372">[07]</text><text fill="#000000" font-family="sans-serif" font-size="13" lengthAdjust="spacing" textLength="4.1323" x="124.9277" y="560.6372">&#160;</text><rect fill="#EEEEEE" height="3" style="stroke:#EEEEEE;stroke-width:1;" width="792.938" x="0" y="594.2695"/><line style="stroke:#000000;stroke-width:1;" x1="0" x2="792.938" y1="594.2695" y2="594.2695"/><line style="stroke:#000000;stroke-width:1;" x1="0" x2="792.938" y1="597.2695" y2="597.2695"/><rect fill="#EEEEEE" height="23.1328" style="stroke:#000000;stroke-width:2;" width="132.3711" x="330.2834" y="583.7031"/><text fill="#000000" font-family="sans-serif" font-size="13" font-weight="bold" lengthAdjust="spacing" textLength="113.8452" x="336.2834" y="599.77">Setup Producer</text><polygon fill="#181818" points="682.187,633.9688,692.187,637.9688,682.187,641.9688,686.187,637.9688" style="stroke:#181818;stroke-width:1;"/><line style="stroke:#181818;stroke-width:1;" x1="78.9541" x2="688.187" y1="637.9688" y2="637.9688"/><text fill="#FF0000" font-family="sans-serif" font-size="13" font-weight="bold" lengthAdjust="spacing" textLength="29.9736" x="85.9541" y="632.9028">[08]</text><text fill="#000000" font-family="sans-serif" font-size="13" lengthAdjust="spacing" textLength="273.584" x="119.9277" y="632.9028">AddProducer("in_ptp_data", ptp_machine)</text><polygon fill="#181818" points="354.272,663.1016,344.272,667.1016,354.272,671.1016,350.272,667.1016" style="stroke:#181818;stroke-width:1;"/><line style="stroke:#181818;stroke-width:1;" x1="348.272" x2="693.187" y1="667.1016" y2="667.1016"/><text fill="#FF0000" font-family="sans-serif" font-size="13" font-weight="bold" lengthAdjust="spacing" textLength="29.9736" x="360.272" y="662.0356">[09]</text><text fill="#000000" font-family="sans-serif" font-size="13" lengthAdjust="spacing" textLength="262.2661" x="394.2456" y="662.0356">SetPublishCallback(broker::OnNewData)</text><polygon fill="#181818" points="682.187,692.2344,692.187,696.2344,682.187,700.2344,686.187,696.2344" style="stroke:#181818;stroke-width:1;"/><line style="stroke:#181818;stroke-width:1;stroke-dasharray:2.0,2.0;" x1="338.272" x2="688.187" y1="696.2344" y2="696.2344"/><text fill="#FF0000" font-family="sans-serif" font-size="13" font-weight="bold" lengthAdjust="spacing" textLength="29.9736" x="345.272" y="691.1685">[10]</text><text fill="#000000" font-family="sans-serif" font-size="13" lengthAdjust="spacing" textLength="4.1323" x="379.2456" y="691.1685">&#160;</text><polygon fill="#181818" points="84.9541,721.3672,74.9541,725.3672,84.9541,729.3672,80.9541,725.3672" style="stroke:#181818;stroke-width:1;"/><line style="stroke:#181818;stroke-width:1;stroke-dasharray:2.0,2.0;" x1="78.9541" x2="698.187" y1="725.3672" y2="725.3672"/><text fill="#FF0000" font-family="sans-serif" font-size="13" font-weight="bold" lengthAdjust="spacing" textLength="29.9736" x="90.9541" y="720.3013">[11]</text><text fill="#000000" font-family="sans-serif" font-size="13" lengthAdjust="spacing" textLength="4.1323" x="124.9277" y="720.3013">&#160;</text><rect fill="#EEEEEE" height="3" style="stroke:#EEEEEE;stroke-width:1;" width="792.938" x="0" y="753.9336"/><line style="stroke:#000000;stroke-width:1;" x1="0" x2="792.938" y1="753.9336" y2="753.9336"/><line style="stroke:#000000;stroke-width:1;" x1="0" x2="792.938" y1="756.9336" y2="756.9336"/><rect fill="#EEEEEE" height="23.1328" style="stroke:#000000;stroke-width:2;" width="197.3774" x="297.7803" y="743.3672"/><text fill="#000000" font-family="sans-serif" font-size="13" font-weight="bold" lengthAdjust="spacing" textLength="178.8516" x="303.7803" y="759.4341">Start Periodic Operation</text><polygon fill="#181818" points="321.272,793.6328,331.272,797.6328,321.272,801.6328,325.272,797.6328" style="stroke:#181818;stroke-width:1;"/><line style="stroke:#181818;stroke-width:1;" x1="78.9541" x2="327.272" y1="797.6328" y2="797.6328"/><text fill="#FF0000" font-family="sans-serif" font-size="13" font-weight="bold" lengthAdjust="spacing" textLength="29.9736" x="85.9541" y="792.5669">[12]</text><text fill="#000000" font-family="sans-serif" font-size="13" lengthAdjust="spacing" textLength="41.9009" x="119.9277" y="792.5669">Start()</text><line style="stroke:#181818;stroke-width:1;" x1="343.272" x2="385.272" y1="830.832" y2="830.832"/><line style="stroke:#181818;stroke-width:1;" x1="385.272" x2="385.272" y1="830.832" y2="843.832"/><line style="stroke:#181818;stroke-width:1;" x1="344.272" x2="385.272" y1="843.832" y2="843.832"/><polygon fill="#181818" points="354.272,839.832,344.272,843.832,354.272,847.832,350.272,843.832" style="stroke:#181818;stroke-width:1;"/><text fill="#FF0000" font-family="sans-serif" font-size="13" font-weight="bold" lengthAdjust="spacing" textLength="29.9736" x="350.272" y="825.7661">[13]</text><text fill="#000000" font-family="sans-serif" font-size="13" lengthAdjust="spacing" textLength="135.0908" x="384.2456" y="825.7661">Start periodic thread</text><path d="M541.0645,810.6328 L541.0645,850.6328 L683.0645,850.6328 L683.0645,820.6328 L673.0645,810.6328 L541.0645,810.6328 " fill="#FEFFDD" style="stroke:#181818;stroke-width:0.5;"/><path d="M673.0645,810.6328 L673.0645,820.6328 L683.0645,820.6328 L673.0645,810.6328 " fill="#FEFFDD" style="stroke:#181818;stroke-width:0.5;"/><text fill="#000000" font-family="sans-serif" font-size="13" lengthAdjust="spacing" textLength="121.0752" x="547.0645" y="827.6997">Begin periodic PTP</text><text fill="#000000" font-family="sans-serif" font-size="13" lengthAdjust="spacing" textLength="88.0801" x="547.0645" y="842.8325">data retrieval</text><polygon fill="#181818" points="84.9541,873.0313,74.9541,877.0313,84.9541,881.0313,80.9541,877.0313" style="stroke:#181818;stroke-width:1;"/><line style="stroke:#181818;stroke-width:1;stroke-dasharray:2.0,2.0;" x1="78.9541" x2="337.272" y1="877.0313" y2="877.0313"/><text fill="#FF0000" font-family="sans-serif" font-size="13" font-weight="bold" lengthAdjust="spacing" textLength="29.9736" x="90.9541" y="871.9653">[14]</text><text fill="#000000" font-family="sans-serif" font-size="13" lengthAdjust="spacing" textLength="4.1323" x="124.9277" y="871.9653">&#160;</text><rect fill="#DDDDDD" height="79.1875" id="_legend" rx="7.5" ry="7.5" style="stroke:#000000;stroke-width:1;" width="317.5625" x="12" y="54.2969"/><text fill="#000000" font-family="sans-serif" font-size="14" font-weight="bold" lengthAdjust="spacing" textLength="41.2139" x="21.874" y="74.292">Color</text><text fill="#000000" font-family="sans-serif" font-size="14" font-weight="bold" lengthAdjust="spacing" textLength="90.5488" x="106.9541" y="74.292">Description</text><rect fill="#E0FFFF" height="16.2969" style="stroke:transparent;stroke-width:1;" width="85.0801" x="17" y="77.5938"/><text fill="#000000" font-family="sans-serif" font-size="14" lengthAdjust="spacing" textLength="8.9004" x="17" y="90.5889">&#160;&#160;</text><text fill="#000000" font-family="sans-serif" font-size="14" lengthAdjust="spacing" textLength="164.6299" x="106.5303" y="90.5889">TimeDaemon members</text><rect fill="#AFEEEE" height="16.2969" style="stroke:transparent;stroke-width:1;" width="85.0801" x="17" y="93.8906"/><text fill="#000000" font-family="sans-serif" font-size="14" lengthAdjust="spacing" textLength="4.4502" x="17" y="106.8857">&#160;</text><text fill="#000000" font-family="sans-serif" font-size="14" lengthAdjust="spacing" textLength="107.7617" x="106.5303" y="106.8857">MessageBroker</text><rect fill="#F5DEB3" height="16.2969" style="stroke:transparent;stroke-width:1;" width="85.0801" x="17" y="110.1875"/><text fill="#000000" font-family="sans-serif" font-size="14" lengthAdjust="spacing" textLength="26.7012" x="17" y="123.1826">&#160;&#160;&#160;&#160;&#160;&#160;</text><text fill="#000000" font-family="sans-serif" font-size="14" lengthAdjust="spacing" textLength="81.4229" x="106.5303" y="123.1826">PtpMachine</text><line style="stroke:#000000;stroke-width:1;" x1="17" x2="324.5625" y1="61.2969" y2="61.2969"/><line style="stroke:#000000;stroke-width:1;" x1="17" x2="324.5625" y1="77.5938" y2="77.5938"/><line style="stroke:#000000;stroke-width:1;" x1="17" x2="324.5625" y1="93.8906" y2="93.8906"/><line style="stroke:#000000;stroke-width:1;" x1="17" x2="324.5625" y1="110.1875" y2="110.1875"/><line style="stroke:#000000;stroke-width:1;" x1="17" x2="324.5625" y1="126.4844" y2="126.4844"/><line style="stroke:#000000;stroke-width:1;" x1="17" x2="17" y1="61.2969" y2="126.4844"/><line style="stroke:#000000;stroke-width:1;" x1="102.0801" x2="102.0801" y1="61.2969" y2="126.4844"/><line style="stroke:#000000;stroke-width:1;" x1="324.5625" x2="324.5625" y1="61.2969" y2="126.4844"/><!--SRC=[hLHDRzim3BthLn3U9IrQeESWDh0anJPWNJqqm0x34CWs7Gkr9LUMkm_qnu-IxKPEdAr0gvD5aO-FZwIDC2L2l8blU5e8YNFu98KHl1H_k15AmXq-j2XJPAmG6KAkb4dKByPuQvHigmGr18jSIGEfAfKEDMRH8ec-Nrtz21WhSOSo0wDgA34t3EWyXR2ohj0Vkg-nIRMeNSAZyzH5mUBTPx4hpEetbv6zRqI5QuuLnLHeYJJJKJ4lSTFgXrQ91YCotM3Jy1qkjRf7VIhNjmAvYNehnARk1GAOOaX5TgKoLdDjH2fgJf84bkEID_YHMmST06_09DkYkyA-ed7Orm_xZhYOsjJRgYVGKPi8k9QxmH_TvwJhg7hdd7H2Z8LYB0ozkQ2MoSReDdKz2aF6l38ken71ytEOGwefCyuah_02X3Ie7tbvnZW1FDA3fyBUve4m7v3m-u8yQ4kkDpEfwAwjbg3omMWxyppCE20uAZbFk_USnj3YD8QdzpJ1LTLAaRh9jpq52pocGbmywXbEalVCdlE1eWUBzczDkxsSlLf0Rx_HHpiIqibpJReafMWAaaPATCrt3qOvsJAtVdkb-YINO_A-77sUjvJq3arRGwnLrgOatB6E_NpFuNsM3MwpGCYjnS-uuS65d-e_6dTeh0SzQXEnYLkdsOgNPK9ZDUjSv_DR-GL_hYdVsGiwzipxb203WPFg7OSV2cVelm0nQg4oaS9jZVfbe-W2Np6B4sXG3pHCGUkT7KxY4cbkzauqVCvikmSQZHP8lvUtNzc_]--></g></svg>