<svg xmlns="http://www.w3.org/2000/svg" xmlns:xlink="http://www.w3.org/1999/xlink" contentStyleType="text/css" data-diagram-type="DESCRIPTION" height="1007px" preserveAspectRatio="none" style="width:679px;height:1007px;background:#FFFFFF;" version="1.1" viewBox="0 0 679 1007" width="679px" zoomAndPan="magnify"><title>Deployment view</title><defs/><g><text fill="#000000" font-family="sans-serif" font-size="14" font-weight="bold" lengthAdjust="spacing" textLength="136.6504" x="264.5996" y="22.9951">Deployment view</text><!--cluster IPN1x--><g id="cluster_IPN1x"><polygon fill="transparent" points="16,221.2969,26,211.2969,546,211.2969,546,980.7969,536,990.7969,16,990.7969,16,221.2969" style="stroke:#181818;stroke-width:1;"/><line style="stroke:#181818;stroke-width:1;" x1="536" x2="546" y1="221.2969" y2="211.2969"/><line style="stroke:#181818;stroke-width:1;" x1="16" x2="536" y1="221.2969" y2="221.2969"/><line style="stroke:#181818;stroke-width:1;" x1="536" x2="536" y1="221.2969" y2="990.7969"/><text fill="#000000" font-family="sans-serif" font-size="14" font-weight="bold" lengthAdjust="spacing" textLength="45.958" x="254.021" y="237.292">IPN1x</text></g><!--cluster Application Layer--><g id="cluster_Application Layer"><polygon fill="transparent" points="40,734.7969,50,724.7969,254,724.7969,254,956.7969,244,966.7969,40,966.7969,40,734.7969" style="stroke:#181818;stroke-width:1;"/><line style="stroke:#181818;stroke-width:1;" x1="244" x2="254" y1="734.7969" y2="724.7969"/><line style="stroke:#181818;stroke-width:1;" x1="40" x2="244" y1="734.7969" y2="734.7969"/><line style="stroke:#181818;stroke-width:1;" x1="244" x2="244" y1="734.7969" y2="966.7969"/><text fill="#000000" font-family="sans-serif" font-size="14" font-weight="bold" lengthAdjust="spacing" textLength="138.0654" x="73.9673" y="750.792">Application Layer</text></g><!--cluster Diagnostic App Layer--><g id="cluster_Diagnostic App Layer"><polygon fill="transparent" points="278,734.7969,288,724.7969,522,724.7969,522,956.7969,512,966.7969,278,966.7969,278,734.7969" style="stroke:#181818;stroke-width:1;"/><line style="stroke:#181818;stroke-width:1;" x1="512" x2="522" y1="734.7969" y2="724.7969"/><line style="stroke:#181818;stroke-width:1;" x1="278" x2="512" y1="734.7969" y2="734.7969"/><line style="stroke:#181818;stroke-width:1;" x1="512" x2="512" y1="734.7969" y2="966.7969"/><text fill="#000000" font-family="sans-serif" font-size="14" font-weight="bold" lengthAdjust="spacing" textLength="168.1162" x="311.9419" y="750.792">Diagnostic App Layer</text></g><!--cluster PTP Daemon--><g id="cluster_PTP Daemon"><polygon fill="transparent" points="177,269.2969,187,259.2969,352,259.2969,352,368.2969,342,378.2969,177,378.2969,177,269.2969" style="stroke:#181818;stroke-width:1;"/><line style="stroke:#181818;stroke-width:1;" x1="342" x2="352" y1="269.2969" y2="259.2969"/><line style="stroke:#181818;stroke-width:1;" x1="177" x2="342" y1="269.2969" y2="269.2969"/><line style="stroke:#181818;stroke-width:1;" x1="342" x2="342" y1="269.2969" y2="378.2969"/><text fill="#000000" font-family="sans-serif" font-size="14" font-weight="bold" lengthAdjust="spacing" textLength="99.6816" x="210.6592" y="285.292">PTP Daemon</text></g><!--cluster VehicleTimeDaemon--><g id="cluster_VehicleTimeDaemon"><polygon fill="transparent" points="266,452.2969,276,442.2969,502,442.2969,502,665.7969,492,675.7969,266,675.7969,266,452.2969" style="stroke:#181818;stroke-width:1;"/><line style="stroke:#181818;stroke-width:1;" x1="492" x2="502" y1="452.2969" y2="442.2969"/><line style="stroke:#181818;stroke-width:1;" x1="266" x2="492" y1="452.2969" y2="452.2969"/><line style="stroke:#181818;stroke-width:1;" x1="492" x2="492" y1="452.2969" y2="675.7969"/><text fill="#000000" font-family="sans-serif" font-size="14" font-weight="bold" lengthAdjust="spacing" textLength="160.8564" x="299.5718" y="468.292">VehicleTimeDaemon</text></g><!--cluster Time Grand Master--><g id="cluster_Time Grand Master"><polygon fill="transparent" points="146,53.2969,156,43.2969,382,43.2969,382,152.2969,372,162.2969,146,162.2969,146,53.2969" style="stroke:#181818;stroke-width:1;"/><line style="stroke:#181818;stroke-width:1;" x1="372" x2="382" y1="53.2969" y2="43.2969"/><line style="stroke:#181818;stroke-width:1;" x1="146" x2="372" y1="53.2969" y2="53.2969"/><line style="stroke:#181818;stroke-width:1;" x1="372" x2="372" y1="53.2969" y2="162.2969"/><text fill="#000000" font-family="sans-serif" font-size="14" font-weight="bold" lengthAdjust="spacing" textLength="150.8145" x="184.5928" y="69.292">Time Grand Master</text></g><!--entity hw_counter--><g id="elem_hw_counter"><rect fill="#F1F1F1" height="62.5938" rx="2.5" ry="2.5" style="stroke:#181818;stroke-width:0.5;" width="120.0117" x="108" y="473.7969"/><rect fill="#F1F1F1" height="10" style="stroke:#181818;stroke-width:0.5;" width="15" x="208.0117" y="478.7969"/><rect fill="#F1F1F1" height="2" style="stroke:#181818;stroke-width:0.5;" width="4" x="206.0117" y="480.7969"/><rect fill="#F1F1F1" height="2" style="stroke:#181818;stroke-width:0.5;" width="4" x="206.0117" y="484.7969"/><text fill="#000000" font-family="sans-serif" font-size="14" font-style="italic" lengthAdjust="spacing" textLength="78.0117" x="124" y="506.792">&#171;hw clock&#187;</text><text fill="#000000" font-family="sans-serif" font-size="14" lengthAdjust="spacing" textLength="40.2773" x="142.8672" y="523.0889">EMAC</text></g><!--entity app_bl--><g id="elem_app_bl"><rect fill="#F1F1F1" height="46.2969" rx="2.5" ry="2.5" style="stroke:#181818;stroke-width:0.5;" width="139.1143" x="98.5" y="904.7969"/><rect fill="#F1F1F1" height="10" style="stroke:#181818;stroke-width:0.5;" width="15" x="217.6143" y="909.7969"/><rect fill="#F1F1F1" height="2" style="stroke:#181818;stroke-width:0.5;" width="4" x="215.6143" y="911.7969"/><rect fill="#F1F1F1" height="2" style="stroke:#181818;stroke-width:0.5;" width="4" x="215.6143" y="915.7969"/><text fill="#000000" font-family="sans-serif" font-size="14" lengthAdjust="spacing" textLength="99.1143" x="113.5" y="937.792">Business logic</text></g><!--entity mw--><g id="elem_mw"><rect fill="#F1F1F1" height="62.5938" rx="2.5" ry="2.5" style="stroke:#181818;stroke-width:0.5;" width="136.6533" x="99.5" y="764.7969"/><rect fill="#F1F1F1" height="10" style="stroke:#181818;stroke-width:0.5;" width="15" x="216.1533" y="769.7969"/><rect fill="#F1F1F1" height="2" style="stroke:#181818;stroke-width:0.5;" width="4" x="214.1533" y="771.7969"/><rect fill="#F1F1F1" height="2" style="stroke:#181818;stroke-width:0.5;" width="4" x="214.1533" y="775.7969"/><text fill="#000000" font-family="sans-serif" font-size="14" font-style="italic" lengthAdjust="spacing" textLength="62.3232" x="131.665" y="797.792">&#171;library&#187;</text><text fill="#000000" font-family="sans-serif" font-size="14" lengthAdjust="spacing" textLength="96.6533" x="114.5" y="814.0889">mw::time::svt</text></g><!--entity diag_bl--><g id="elem_diag_bl"><rect fill="#F1F1F1" height="46.2969" rx="2.5" ry="2.5" style="stroke:#181818;stroke-width:0.5;" width="208.0684" x="296" y="904.7969"/><rect fill="#F1F1F1" height="10" style="stroke:#181818;stroke-width:0.5;" width="15" x="484.0684" y="909.7969"/><rect fill="#F1F1F1" height="2" style="stroke:#181818;stroke-width:0.5;" width="4" x="482.0684" y="911.7969"/><rect fill="#F1F1F1" height="2" style="stroke:#181818;stroke-width:0.5;" width="4" x="482.0684" y="915.7969"/><text fill="#000000" font-family="sans-serif" font-size="14" lengthAdjust="spacing" textLength="168.0684" x="311" y="937.792">Diag jobs business logic</text></g><!--entity mw_ext--><g id="elem_mw_ext"><rect fill="#F1F1F1" height="62.5938" rx="2.5" ry="2.5" style="stroke:#181818;stroke-width:0.5;" width="168.4746" x="300" y="764.7969"/><rect fill="#F1F1F1" height="10" style="stroke:#181818;stroke-width:0.5;" width="15" x="448.4746" y="769.7969"/><rect fill="#F1F1F1" height="2" style="stroke:#181818;stroke-width:0.5;" width="4" x="446.4746" y="771.7969"/><rect fill="#F1F1F1" height="2" style="stroke:#181818;stroke-width:0.5;" width="4" x="446.4746" y="775.7969"/><text fill="#000000" font-family="sans-serif" font-size="14" font-style="italic" lengthAdjust="spacing" textLength="62.3232" x="348.0757" y="797.792">&#171;library&#187;</text><text fill="#000000" font-family="sans-serif" font-size="14" lengthAdjust="spacing" textLength="128.4746" x="315" y="814.0889">mw::time::svt::ext</text></g><!--entity qgptpd--><g id="elem_qgptpd"><rect fill="#F1F1F1" height="62.5938" rx="2.5" ry="2.5" style="stroke:#181818;stroke-width:0.5;" width="116.4365" x="206" y="299.2969"/><rect fill="#F1F1F1" height="10" style="stroke:#181818;stroke-width:0.5;" width="15" x="302.4365" y="304.2969"/><rect fill="#F1F1F1" height="2" style="stroke:#181818;stroke-width:0.5;" width="4" x="300.4365" y="306.2969"/><rect fill="#F1F1F1" height="2" style="stroke:#181818;stroke-width:0.5;" width="4" x="300.4365" y="310.2969"/><text fill="#000000" font-family="sans-serif" font-size="14" font-style="italic" lengthAdjust="spacing" textLength="74.4365" x="222" y="332.292">&#171;daemon&#187;</text><text fill="#000000" font-family="sans-serif" font-size="14" lengthAdjust="spacing" textLength="49.9229" x="234.2568" y="348.5889">qgptpd</text></g><!--entity verification_machine--><g id="elem_verification_machine"><rect fill="#F1F1F1" height="46.2969" rx="2.5" ry="2.5" style="stroke:#181818;stroke-width:0.5;" width="178.3525" x="295" y="613.7969"/><rect fill="#F1F1F1" height="10" style="stroke:#181818;stroke-width:0.5;" width="15" x="453.3525" y="618.7969"/><rect fill="#F1F1F1" height="2" style="stroke:#181818;stroke-width:0.5;" width="4" x="451.3525" y="620.7969"/><rect fill="#F1F1F1" height="2" style="stroke:#181818;stroke-width:0.5;" width="4" x="451.3525" y="624.7969"/><text fill="#000000" font-family="sans-serif" font-size="14" lengthAdjust="spacing" textLength="138.3525" x="310" y="646.792">VerificationMachine</text></g><!--entity ptp_machine--><g id="elem_ptp_machine"><rect fill="#F1F1F1" height="46.2969" rx="2.5" ry="2.5" style="stroke:#181818;stroke-width:0.5;" width="130.0498" x="295" y="482.2969"/><rect fill="#F1F1F1" height="10" style="stroke:#181818;stroke-width:0.5;" width="15" x="405.0498" y="487.2969"/><rect fill="#F1F1F1" height="2" style="stroke:#181818;stroke-width:0.5;" width="4" x="403.0498" y="489.2969"/><rect fill="#F1F1F1" height="2" style="stroke:#181818;stroke-width:0.5;" width="4" x="403.0498" y="493.2969"/><text fill="#000000" font-family="sans-serif" font-size="14" lengthAdjust="spacing" textLength="90.0498" x="310" y="515.292">PTP machine</text></g><!--entity ptp_gm--><g id="elem_ptp_gm"><rect fill="#F1F1F1" height="62.5938" rx="2.5" ry="2.5" style="stroke:#181818;stroke-width:0.5;" width="204.6846" x="161.5" y="83.2969"/><rect fill="#F1F1F1" height="10" style="stroke:#181818;stroke-width:0.5;" width="15" x="346.1846" y="88.2969"/><rect fill="#F1F1F1" height="2" style="stroke:#181818;stroke-width:0.5;" width="4" x="344.1846" y="90.2969"/><rect fill="#F1F1F1" height="2" style="stroke:#181818;stroke-width:0.5;" width="4" x="344.1846" y="94.2969"/><text fill="#000000" font-family="sans-serif" font-size="14" font-style="italic" lengthAdjust="spacing" textLength="63.2666" x="227.209" y="116.292">&#171;device&#187;</text><text fill="#000000" font-family="sans-serif" font-size="14" lengthAdjust="spacing" textLength="164.6846" x="176.5" y="132.5889">PTP Grandmaster Clock</text></g><!--entity dlt_records--><g id="elem_dlt_records"><rect fill="#F1F1F1" height="62.5938" rx="2.5" ry="2.5" style="stroke:#181818;stroke-width:0.5;" width="111.8496" x="562" y="764.7969"/><rect fill="#F1F1F1" height="10" style="stroke:#181818;stroke-width:0.5;" width="15" x="653.8496" y="769.7969"/><rect fill="#F1F1F1" height="2" style="stroke:#181818;stroke-width:0.5;" width="4" x="651.8496" y="771.7969"/><rect fill="#F1F1F1" height="2" style="stroke:#181818;stroke-width:0.5;" width="4" x="651.8496" y="775.7969"/><text fill="#000000" font-family="sans-serif" font-size="14" font-style="italic" lengthAdjust="spacing" textLength="69.8496" x="578" y="797.792">&#171;records&#187;</text><text fill="#000000" font-family="sans-serif" font-size="14" lengthAdjust="spacing" textLength="27.1318" x="599.3589" y="814.0889">DLT</text></g><!--link ptp_gm to qgptpd--><g id="link_ptp_gm_qgptpd"><path d="M264,146.4569 C264,187.1369 264,252.5369 264,293.1969 " fill="transparent" id="ptp_gm-to-qgptpd" style="stroke:#800080;stroke-width:1;"/><polygon fill="#800080" points="264,299.1969,268,290.1969,264,294.1969,260,290.1969,264,299.1969" style="stroke:#800080;stroke-width:1;"/><text fill="#000000" font-family="sans-serif" font-size="13" lengthAdjust="spacing" textLength="126.9341" x="265" y="191.3638">PTP sync messages</text></g><!--link qgptpd to hw_counter--><g id="link_qgptpd_hw_counter"><path d="M205.8,355.4069 C189.69,364.9669 174.13,377.7469 165,394.2969 C151.72,418.3869 153.11,444.3022 157.93,467.5122 " fill="transparent" id="qgptpd-to-hw_counter" style="stroke:#181818;stroke-width:1;stroke-dasharray:7.0,7.0;"/><polygon fill="#181818" points="159.15,473.3869,161.2365,463.7616,158.1333,468.4913,153.4036,465.3882,159.15,473.3869" style="stroke:#181818;stroke-width:1;"/><text fill="#000000" font-family="sans-serif" font-size="13" lengthAdjust="spacing" textLength="150.1284" x="166" y="414.8638">Updates local hw timer</text></g><!--link qgptpd to ptp_machine--><g id="link_qgptpd_ptp_machine"><path d="M296.54,362.5769 C305.34,372.1169 314.28,383.0869 321,394.2969 C337.88,422.4469 347.5234,453.204 353.4234,476.274 " fill="transparent" id="qgptpd-to-ptp_machine" style="stroke:#0000FF;stroke-width:1;"/><polygon fill="#0000FF" points="354.91,482.0869,356.5554,472.3764,353.6712,477.2428,348.8048,474.3586,354.91,482.0869" style="stroke:#0000FF;stroke-width:1;"/><text fill="#000000" font-family="sans-serif" font-size="13" lengthAdjust="spacing" textLength="113.8325" x="357.2871" y="407.3638">PTP time updates</text><text fill="#000000" font-family="sans-serif" font-size="13" lengthAdjust="spacing" textLength="154.4067" x="337" y="422.4966">(via shmem and devctl)</text></g><!--link ptp_machine to verification_machine--><g id="link_ptp_machine_verification_machine"><path d="M364.13,528.5569 C368.52,552.2769 374.346,583.7175 378.756,607.4975 " fill="transparent" id="ptp_machine-to-verification_machine" style="stroke:#008000;stroke-width:1;"/><polygon fill="#008000" points="379.85,613.3969,382.1419,603.8184,378.9383,608.4807,374.276,605.2771,379.85,613.3969" style="stroke:#008000;stroke-width:1;"/><text fill="#000000" font-family="sans-serif" font-size="13" lengthAdjust="spacing" textLength="111.6045" x="375" y="579.8638">Time information</text></g><!--link verification_machine to mw--><g id="link_verification_machine_mw"><path d="M321.67,659.8569 C301.97,668.2969 280.74,679.0269 263,691.7969 C234.69,712.1769 212.0897,737.369 194.3597,759.809 " fill="transparent" id="verification_machine-to-mw" style="stroke:#008000;stroke-width:1;"/><polygon fill="#008000" points="190.64,764.5169,199.3581,759.9349,193.7398,760.5937,193.081,754.9753,190.64,764.5169" style="stroke:#008000;stroke-width:1;"/><text fill="#000000" font-family="sans-serif" font-size="13" lengthAdjust="spacing" textLength="111.6045" x="264" y="704.8638">Time information</text></g><!--link verification_machine to mw_ext--><g id="link_verification_machine_mw_ext"><path d="M384,660.0269 C384,687.3369 384,727.7969 384,758.5169 " fill="transparent" id="verification_machine-to-mw_ext" style="stroke:#008000;stroke-width:1;"/><polygon fill="#008000" points="384,764.5169,388,755.5169,384,759.5169,380,755.5169,384,764.5169" style="stroke:#008000;stroke-width:1;"/><text fill="#000000" font-family="sans-serif" font-size="13" lengthAdjust="spacing" textLength="111.6045" x="385" y="704.8638">Time information</text></g><!--link verification_machine to dlt_records--><g id="link_verification_machine_dlt_records"><path d="M443.53,659.8469 C463.78,668.5069 486.05,679.3669 505,691.7969 C536.59,712.5169 563.7168,737.7956 585.3368,760.0256 " fill="transparent" id="verification_machine-to-dlt_records" style="stroke:#008000;stroke-width:1;"/><polygon fill="#008000" points="589.52,764.3269,586.1127,755.0862,586.034,760.7425,580.3777,760.6638,589.52,764.3269" style="stroke:#008000;stroke-width:1;"/><text fill="#000000" font-family="sans-serif" font-size="13" lengthAdjust="spacing" textLength="142.0225" x="526" y="704.8638">Data for post analysis</text></g><!--link mw to app_bl--><g id="link_mw_app_bl"><path d="M168,827.9869 C168,851.4769 168,877.3169 168,898.4269 " fill="transparent" id="mw-to-app_bl" style="stroke:#FFA500;stroke-width:1;"/><polygon fill="#FFA500" points="168,904.4269,172,895.4269,168,899.4269,164,895.4269,168,904.4269" style="stroke:#FFA500;stroke-width:1;"/><text fill="#000000" font-family="sans-serif" font-size="13" lengthAdjust="spacing" textLength="38.4541" x="169" y="870.8638">Now()</text></g><!--link mw_ext to diag_bl--><g id="link_mw_ext_diag_bl"><path d="M387.79,827.9869 C390.69,851.4769 393.8938,877.3622 396.5038,898.4722 " fill="transparent" id="mw_ext-to-diag_bl" style="stroke:#FFA500;stroke-width:1;"/><polygon fill="#FFA500" points="397.24,904.4269,400.1054,895.0041,396.6265,899.4647,392.1659,895.9857,397.24,904.4269" style="stroke:#FFA500;stroke-width:1;"/><text fill="#000000" font-family="sans-serif" font-size="13" lengthAdjust="spacing" textLength="118.7964" x="394" y="870.8638">Now(), Callbacks()</text></g><!--SRC=[dLDDQnin4BthLmpf9O4cqEiI3AbTIY4EFhYvkCPejPEr6drLqkvcAVdl7QtMU8tTItJKU_FUcnafogWG5kYKxJMQ2At4ZZ5ZAuIh7wkdBszNy9S1dNpru9oIWaTf3Jpo7lq1JcVpjGdIO0YWR2t55dW0xjokL4UAxeeYIer54TguXVjx9KlFVJ-R9RRk1kRxn74XUMriY580cLymJGJuRSi0vRbzHU3__Oi2tow5sD7rMP3LUWKBZjgQ4_i_jOkkIYBL06QDV7kcyOnxAHIkAS05gMVqycMSxfABFJMpXQJMJe2TpiYnB0NJ1pgnoVc4b0DilYqVvYdclWEXh7ZDGVVTJjZ6HFJiVLnxIWVVFJSLB7c8nt4FJWEWXtkO9vsXTMobmAoOx6jDQfl5upg17eNrLSXefU9kl62CPIxSRZwvnZk5szlPE3ee8Bc5tWZGj5DUOs0ZT7Stc-GcvazNyOXfxu8hWY1js1_ef5wgPj2UZ6OqI4neSlqlSzrA3c6lKKDgdzeIKTsmQHcfrHxH9BbBUobWc9yqBzRh0M6NQ2Swz2W_L9NUwKSg9qiew4r73bGCZduPjSrL7sHWkgCAIykkXydbVqn3UxBTzGtBtYUCyQiTA9zXpfKgkNWDnFy7]--></g></svg>