<svg xmlns="http://www.w3.org/2000/svg" xmlns:xlink="http://www.w3.org/1999/xlink" contentStyleType="text/css" data-diagram-type="CLASS" height="919px" preserveAspectRatio="none" style="width:1686px;height:919px;background:#FFFFFF;" version="1.1" viewBox="0 0 1686 919" width="1686px" zoomAndPan="magnify"><title>TimeDaemon: Class Diagram Overview</title><defs/><g><text fill="#000000" font-family="sans-serif" font-size="14" font-weight="bold" lengthAdjust="spacing" textLength="305.1836" x="683.7764" y="22.9951">TimeDaemon: Class Diagram Overview</text><rect fill="#DDDDDD" height="111.7813" id="_legend" rx="7.5" ry="7.5" style="stroke:#000000;stroke-width:1;" width="276.9844" x="12" y="49.2969"/><rect fill="#E0FFFF" height="16.2969" style="stroke:transparent;stroke-width:1;" width="44.502" x="17" y="56.2969"/><text fill="#000000" font-family="sans-serif" font-size="14" lengthAdjust="spacing" textLength="26.7012" x="17" y="69.292">&#160;&#160;&#160;&#160;&#160;&#160;</text><text fill="#000000" font-family="sans-serif" font-size="14" lengthAdjust="spacing" textLength="164.6299" x="65.9521" y="69.292">TimeDaemon members</text><rect fill="#F5DEB3" height="16.2969" style="stroke:transparent;stroke-width:1;" width="44.502" x="17" y="72.5938"/><text fill="#000000" font-family="sans-serif" font-size="14" lengthAdjust="spacing" textLength="44.502" x="17" y="85.5889">&#160;&#160;&#160;&#160;&#160;&#160;&#160;&#160;&#160;&#160;</text><text fill="#000000" font-family="sans-serif" font-size="14" lengthAdjust="spacing" textLength="81.4229" x="65.9521" y="85.5889">PtpMachine</text><rect fill="#ADD8E6" height="16.2969" style="stroke:transparent;stroke-width:1;" width="44.502" x="17" y="88.8906"/><text fill="#000000" font-family="sans-serif" font-size="14" lengthAdjust="spacing" textLength="26.7012" x="17" y="101.8857">&#160;&#160;&#160;&#160;&#160;&#160;</text><text fill="#000000" font-family="sans-serif" font-size="14" lengthAdjust="spacing" textLength="132.9727" x="65.9521" y="101.8857">ControlFlowDivider</text><rect fill="#E6E6FA" height="16.2969" style="stroke:transparent;stroke-width:1;" width="44.502" x="17" y="105.1875"/><text fill="#000000" font-family="sans-serif" font-size="14" lengthAdjust="spacing" textLength="31.1514" x="17" y="118.1826">&#160;&#160;&#160;&#160;&#160;&#160;&#160;</text><text fill="#000000" font-family="sans-serif" font-size="14" lengthAdjust="spacing" textLength="138.3525" x="65.9521" y="118.1826">VerificationMachine</text><rect fill="#FFB6C1" height="16.2969" style="stroke:transparent;stroke-width:1;" width="44.502" x="17" y="121.4844"/><text fill="#000000" font-family="sans-serif" font-size="14" lengthAdjust="spacing" textLength="26.7012" x="17" y="134.4795">&#160;&#160;&#160;&#160;&#160;&#160;</text><text fill="#000000" font-family="sans-serif" font-size="14" lengthAdjust="spacing" textLength="113.292" x="65.9521" y="134.4795">IPC components</text><rect fill="#F5F5DC" height="16.2969" style="stroke:transparent;stroke-width:1;" width="44.502" x="17" y="137.7813"/><text fill="#000000" font-family="sans-serif" font-size="14" lengthAdjust="spacing" textLength="44.502" x="17" y="150.7764">&#160;&#160;&#160;&#160;&#160;&#160;&#160;&#160;&#160;&#160;</text><text fill="#000000" font-family="sans-serif" font-size="14" lengthAdjust="spacing" textLength="89.2021" x="65.9521" y="150.7764">Base classes</text><line style="stroke:#000000;stroke-width:1;" x1="17" x2="283.9844" y1="56.2969" y2="56.2969"/><line style="stroke:#000000;stroke-width:1;" x1="17" x2="283.9844" y1="72.5938" y2="72.5938"/><line style="stroke:#000000;stroke-width:1;" x1="17" x2="283.9844" y1="88.8906" y2="88.8906"/><line style="stroke:#000000;stroke-width:1;" x1="17" x2="283.9844" y1="105.1875" y2="105.1875"/><line style="stroke:#000000;stroke-width:1;" x1="17" x2="283.9844" y1="121.4844" y2="121.4844"/><line style="stroke:#000000;stroke-width:1;" x1="17" x2="283.9844" y1="137.7813" y2="137.7813"/><line style="stroke:#000000;stroke-width:1;" x1="17" x2="283.9844" y1="154.0781" y2="154.0781"/><line style="stroke:#000000;stroke-width:1;" x1="17" x2="17" y1="56.2969" y2="154.0781"/><line style="stroke:#000000;stroke-width:1;" x1="61.502" x2="61.502" y1="56.2969" y2="154.0781"/><line style="stroke:#000000;stroke-width:1;" x1="283.9844" x2="283.9844" y1="56.2969" y2="154.0781"/><!--class time_info--><g id="elem_time_info"><rect codeLine="13" fill="#F5F5DC" height="129.4844" id="time_info" rx="2.5" ry="2.5" style="stroke:#181818;stroke-width:0.5;" width="250.4648" x="183" y="181.0781"/><ellipse cx="261.979" cy="197.0781" fill="#ADD1B2" rx="11" ry="11" style="stroke:#181818;stroke-width:1;"/><path d="M264.9478,202.7188 Q264.3696,203.0156 263.729,203.1563 Q263.0884,203.3125 262.3853,203.3125 Q259.8853,203.3125 258.5571,201.6719 Q257.2446,200.0156 257.2446,196.8906 Q257.2446,193.7656 258.5571,192.1094 Q259.8853,190.4531 262.3853,190.4531 Q263.0884,190.4531 263.729,190.6094 Q264.3853,190.7656 264.9478,191.0625 L264.9478,193.7813 Q264.3228,193.2031 263.729,192.9375 Q263.1353,192.6563 262.5103,192.6563 Q261.1665,192.6563 260.479,193.7344 Q259.7915,194.7969 259.7915,196.8906 Q259.7915,198.9844 260.479,200.0625 Q261.1665,201.125 262.5103,201.125 Q263.1353,201.125 263.729,200.8594 Q264.3228,200.5781 264.9478,200 L264.9478,202.7188 Z " fill="#000000"/><text fill="#000000" font-family="sans-serif" font-size="14" lengthAdjust="spacing" textLength="84.0068" x="282.479" y="201.9248">PtpTimeInfo</text><line style="stroke:#181818;stroke-width:0.5;" x1="184" x2="432.4648" y1="213.0781" y2="213.0781"/><text fill="#000000" font-family="sans-serif" font-size="14" lengthAdjust="spacing" textLength="224.4648" x="203" y="230.0732">Time information data structure</text><text fill="#000000" font-family="sans-serif" font-size="14" lengthAdjust="spacing" textLength="13.3506" x="203" y="246.3701">...</text><ellipse cx="194" cy="259.3203" fill="transparent" rx="3" ry="3" style="stroke:#038048;stroke-width:1;"/><text fill="#000000" font-family="sans-serif" font-size="14" lengthAdjust="spacing" textLength="77.3691" x="203" y="262.667">ptp: uint64</text><ellipse cx="194" cy="275.6172" fill="transparent" rx="3" ry="3" style="stroke:#038048;stroke-width:1;"/><text fill="#000000" font-family="sans-serif" font-size="14" lengthAdjust="spacing" textLength="125.3574" x="203" y="278.9639">local_time: uint64</text><ellipse cx="194" cy="291.9141" fill="transparent" rx="3" ry="3" style="stroke:#038048;stroke-width:1;"/><text fill="#000000" font-family="sans-serif" font-size="14" lengthAdjust="spacing" textLength="70.4375" x="203" y="295.2607">status: int</text><line style="stroke:#181818;stroke-width:0.5;" x1="184" x2="432.4648" y1="302.5625" y2="302.5625"/></g><!--class tb_handler--><g id="elem_tb_handler"><rect codeLine="21" fill="#E0FFFF" height="113.1875" id="tb_handler" rx="2.5" ry="2.5" style="stroke:#181818;stroke-width:0.5;" width="289.751" x="605" y="387.0781"/><ellipse cx="683.6714" cy="403.0781" fill="#ADD1B2" rx="11" ry="11" style="stroke:#181818;stroke-width:1;"/><path d="M686.6401,408.7188 Q686.062,409.0156 685.4214,409.1563 Q684.7808,409.3125 684.0776,409.3125 Q681.5776,409.3125 680.2495,407.6719 Q678.937,406.0156 678.937,402.8906 Q678.937,399.7656 680.2495,398.1094 Q681.5776,396.4531 684.0776,396.4531 Q684.7808,396.4531 685.4214,396.6094 Q686.0776,396.7656 686.6401,397.0625 L686.6401,399.7813 Q686.0151,399.2031 685.4214,398.9375 Q684.8276,398.6563 684.2026,398.6563 Q682.8589,398.6563 682.1714,399.7344 Q681.4839,400.7969 681.4839,402.8906 Q681.4839,404.9844 682.1714,406.0625 Q682.8589,407.125 684.2026,407.125 Q684.8276,407.125 685.4214,406.8594 Q686.0151,406.5781 686.6401,406 L686.6401,408.7188 Z " fill="#000000"/><text fill="#000000" font-family="sans-serif" font-size="14" lengthAdjust="spacing" textLength="123.9082" x="704.1714" y="407.9248">TimeBaseHandler</text><line style="stroke:#181818;stroke-width:0.5;" x1="606" x2="893.751" y1="419.0781" y2="419.0781"/><text fill="#000000" font-family="sans-serif" font-size="14" lengthAdjust="spacing" textLength="277.751" x="611" y="436.0732">Main handler managing all components</text><text fill="#000000" font-family="sans-serif" font-size="14" lengthAdjust="spacing" textLength="13.3506" x="611" y="452.3701">...</text><line style="stroke:#181818;stroke-width:0.5;" x1="606" x2="893.751" y1="459.6719" y2="459.6719"/><ellipse cx="616" cy="473.3203" fill="#84BE84" rx="3" ry="3" style="stroke:#038048;stroke-width:1;"/><text fill="#000000" font-family="sans-serif" font-size="14" lengthAdjust="spacing" textLength="108.3086" x="625" y="476.667">Initialize(): void</text><ellipse cx="616" cy="489.6172" fill="#84BE84" rx="3" ry="3" style="stroke:#038048;stroke-width:1;"/><text fill="#000000" font-family="sans-serif" font-size="14" lengthAdjust="spacing" textLength="113.3945" x="625" y="492.9639">RunOnce(): void</text></g><!--class msg_broker--><g id="elem_msg_broker"><rect codeLine="28" fill="#AFEEEE" height="129.4844" id="msg_broker" rx="2.5" ry="2.5" style="stroke:#181818;stroke-width:0.5;" width="293.9824" x="603" y="783.0781"/><ellipse cx="686.1953" cy="799.0781" fill="#ADD1B2" rx="11" ry="11" style="stroke:#181818;stroke-width:1;"/><path d="M689.1641,804.7188 Q688.5859,805.0156 687.9453,805.1563 Q687.3047,805.3125 686.6016,805.3125 Q684.1016,805.3125 682.7734,803.6719 Q681.4609,802.0156 681.4609,798.8906 Q681.4609,795.7656 682.7734,794.1094 Q684.1016,792.4531 686.6016,792.4531 Q687.3047,792.4531 687.9453,792.6094 Q688.6016,792.7656 689.1641,793.0625 L689.1641,795.7813 Q688.5391,795.2031 687.9453,794.9375 Q687.3516,794.6563 686.7266,794.6563 Q685.3828,794.6563 684.6953,795.7344 Q684.0078,796.7969 684.0078,798.8906 Q684.0078,800.9844 684.6953,802.0625 Q685.3828,803.125 686.7266,803.125 Q687.3516,803.125 687.9453,802.8594 Q688.5391,802.5781 689.1641,802 L689.1641,804.7188 Z " fill="#000000"/><text fill="#000000" font-family="sans-serif" font-size="14" lengthAdjust="spacing" textLength="107.7617" x="706.6953" y="803.9248">MessageBroker</text><rect fill="#FFFFFF" height="15.9688" style="stroke:#181818;stroke-width:1;stroke-dasharray:2.0,2.0;" width="9.3301" x="890.6523" y="780.0781"/><text fill="#000000" font-family="sans-serif" font-size="12" font-style="italic" lengthAdjust="spacing" textLength="7.3301" x="891.6523" y="792.2168">T</text><line style="stroke:#181818;stroke-width:0.5;" x1="604" x2="895.9824" y1="815.0781" y2="815.0781"/><text fill="#000000" font-family="sans-serif" font-size="14" lengthAdjust="spacing" textLength="194.7764" x="609" y="832.0732">Central communication hub</text><text fill="#000000" font-family="sans-serif" font-size="14" lengthAdjust="spacing" textLength="13.3506" x="609" y="848.3701">...</text><line style="stroke:#181818;stroke-width:0.5;" x1="604" x2="895.9824" y1="855.6719" y2="855.6719"/><ellipse cx="614" cy="869.3203" fill="#84BE84" rx="3" ry="3" style="stroke:#038048;stroke-width:1;"/><text fill="#000000" font-family="sans-serif" font-size="14" lengthAdjust="spacing" textLength="267.9824" x="623" y="872.667">AddSubscriber(topic, subscriber): void</text><ellipse cx="614" cy="885.6172" fill="#84BE84" rx="3" ry="3" style="stroke:#038048;stroke-width:1;"/><text fill="#000000" font-family="sans-serif" font-size="14" lengthAdjust="spacing" textLength="246.1211" x="623" y="888.9639">AddProducer(topic, producer): void</text><rect fill="#F24D5C" height="6" style="stroke:#C82930;stroke-width:1;" width="6" x="611" y="898.9141"/><text fill="#000000" font-family="sans-serif" font-size="14" lengthAdjust="spacing" textLength="174.8291" x="623" y="905.2607">Publish(topic, data): void</text></g><!--class base_machine--><g id="elem_base_machine"><rect codeLine="36" fill="#F5F5DC" height="113.1875" id="base_machine" rx="2.5" ry="2.5" style="stroke:#181818;stroke-width:0.5;" width="201.7109" x="468" y="189.0781"/><ellipse cx="518.2578" cy="205.0781" fill="#A9DCDF" rx="11" ry="11" style="stroke:#181818;stroke-width:1;"/><path d="M518.3672,200.4219 L517.2109,205.5 L519.5391,205.5 L518.3672,200.4219 Z M516.8828,198.1875 L519.8672,198.1875 L523.2266,210.5781 L520.7734,210.5781 L520.0078,207.5156 L516.7266,207.5156 L515.9766,210.5781 L513.5391,210.5781 L516.8828,198.1875 Z " fill="#000000"/><text fill="#000000" font-family="sans-serif" font-size="14" font-style="italic" lengthAdjust="spacing" textLength="92.6953" x="538.7578" y="209.9248">BaseMachine</text><line style="stroke:#181818;stroke-width:0.5;" x1="469" x2="668.7109" y1="221.0781" y2="221.0781"/><text fill="#000000" font-family="sans-serif" font-size="14" lengthAdjust="spacing" textLength="189.7109" x="474" y="238.0732">Base class for all machines</text><text fill="#000000" font-family="sans-serif" font-size="14" lengthAdjust="spacing" textLength="13.3506" x="474" y="254.3701">...</text><line style="stroke:#181818;stroke-width:0.5;" x1="469" x2="668.7109" y1="261.6719" y2="261.6719"/><ellipse cx="479" cy="275.3203" fill="#84BE84" rx="3" ry="3" style="stroke:#038048;stroke-width:1;"/><text fill="#000000" font-family="sans-serif" font-size="14" lengthAdjust="spacing" textLength="126.5332" x="488" y="278.667">GetName(): string</text><ellipse cx="479" cy="291.6172" fill="#84BE84" rx="3" ry="3" style="stroke:#038048;stroke-width:1;"/><text fill="#000000" font-family="sans-serif" font-size="14" lengthAdjust="spacing" textLength="72.3789" x="488" y="294.9639">Init(): bool</text></g><!--class consumer--><g id="elem_consumer"><rect codeLine="43" fill="#F5F5DC" height="96.8906" id="consumer" rx="2.5" ry="2.5" style="stroke:#181818;stroke-width:0.5;" width="206.2227" x="930" y="395.0781"/><ellipse cx="987.5024" cy="411.0781" fill="#A9DCDF" rx="11" ry="11" style="stroke:#181818;stroke-width:1;"/><path d="M987.6118,406.4219 L986.4556,411.5 L988.7837,411.5 L987.6118,406.4219 Z M986.1274,404.1875 L989.1118,404.1875 L992.4712,416.5781 L990.0181,416.5781 L989.2524,413.5156 L985.9712,413.5156 L985.2212,416.5781 L982.7837,416.5781 L986.1274,404.1875 Z " fill="#000000"/><text fill="#000000" font-family="sans-serif" font-size="14" font-style="italic" lengthAdjust="spacing" textLength="71.3877" x="1008.0024" y="415.9248">Consumer</text><rect fill="#FFFFFF" height="15.9688" style="stroke:#181818;stroke-width:1;stroke-dasharray:2.0,2.0;" width="9.3301" x="1129.8926" y="392.0781"/><text fill="#000000" font-family="sans-serif" font-size="12" font-style="italic" lengthAdjust="spacing" textLength="7.3301" x="1130.8926" y="404.2168">T</text><line style="stroke:#181818;stroke-width:0.5;" x1="931" x2="1135.2227" y1="427.0781" y2="427.0781"/><text fill="#000000" font-family="sans-serif" font-size="14" lengthAdjust="spacing" textLength="138.2773" x="936" y="444.0732">Consumer interface</text><text fill="#000000" font-family="sans-serif" font-size="14" lengthAdjust="spacing" textLength="13.3506" x="936" y="460.3701">...</text><line style="stroke:#181818;stroke-width:0.5;" x1="931" x2="1135.2227" y1="467.6719" y2="467.6719"/><ellipse cx="941" cy="481.3203" fill="#84BE84" rx="3" ry="3" style="stroke:#038048;stroke-width:1;"/><text fill="#000000" font-family="sans-serif" font-size="14" lengthAdjust="spacing" textLength="180.2227" x="950" y="484.667">OnMessage(data: T): void</text></g><!--class producer--><g id="elem_producer"><rect codeLine="49" fill="#F5F5DC" height="96.8906" id="producer" rx="2.5" ry="2.5" style="stroke:#181818;stroke-width:0.5;" width="265.5859" x="304" y="395.0781"/><ellipse cx="395.583" cy="411.0781" fill="#A9DCDF" rx="11" ry="11" style="stroke:#181818;stroke-width:1;"/><path d="M395.6924,406.4219 L394.5361,411.5 L396.8643,411.5 L395.6924,406.4219 Z M394.208,404.1875 L397.1924,404.1875 L400.5518,416.5781 L398.0986,416.5781 L397.333,413.5156 L394.0518,413.5156 L393.3018,416.5781 L390.8643,416.5781 L394.208,404.1875 Z " fill="#000000"/><text fill="#000000" font-family="sans-serif" font-size="14" font-style="italic" lengthAdjust="spacing" textLength="62.5898" x="416.083" y="415.9248">Producer</text><rect fill="#FFFFFF" height="15.9688" style="stroke:#181818;stroke-width:1;stroke-dasharray:2.0,2.0;" width="9.3301" x="563.2559" y="392.0781"/><text fill="#000000" font-family="sans-serif" font-size="12" font-style="italic" lengthAdjust="spacing" textLength="7.3301" x="564.2559" y="404.2168">T</text><line style="stroke:#181818;stroke-width:0.5;" x1="305" x2="568.5859" y1="427.0781" y2="427.0781"/><text fill="#000000" font-family="sans-serif" font-size="14" lengthAdjust="spacing" textLength="129.4795" x="310" y="444.0732">Producer interface</text><text fill="#000000" font-family="sans-serif" font-size="14" lengthAdjust="spacing" textLength="13.3506" x="310" y="460.3701">...</text><line style="stroke:#181818;stroke-width:0.5;" x1="305" x2="568.5859" y1="467.6719" y2="467.6719"/><ellipse cx="315" cy="481.3203" fill="#84BE84" rx="3" ry="3" style="stroke:#038048;stroke-width:1;"/><text fill="#000000" font-family="sans-serif" font-size="14" lengthAdjust="spacing" textLength="239.5859" x="324" y="484.667">SetPublishCallback(callback): void</text></g><!--class proactive_machine--><g id="elem_proactive_machine"><rect codeLine="55" fill="#F5F5DC" height="113.1875" id="proactive_machine" rx="2.5" ry="2.5" style="stroke:#181818;stroke-width:0.5;" width="262.0928" x="7" y="387.0781"/><ellipse cx="71.8354" cy="403.0781" fill="#A9DCDF" rx="11" ry="11" style="stroke:#181818;stroke-width:1;"/><path d="M71.9448,398.4219 L70.7886,403.5 L73.1167,403.5 L71.9448,398.4219 Z M70.4604,396.1875 L73.4448,396.1875 L76.8042,408.5781 L74.3511,408.5781 L73.5854,405.5156 L70.3042,405.5156 L69.5542,408.5781 L67.1167,408.5781 L70.4604,396.1875 Z " fill="#000000"/><text fill="#000000" font-family="sans-serif" font-size="14" font-style="italic" lengthAdjust="spacing" textLength="123.9219" x="92.3354" y="407.9248">ProactiveMachine</text><line style="stroke:#181818;stroke-width:0.5;" x1="8" x2="268.0928" y1="419.0781" y2="419.0781"/><text fill="#000000" font-family="sans-serif" font-size="14" lengthAdjust="spacing" textLength="250.0928" x="13" y="436.0732">Machine with own execution thread</text><text fill="#000000" font-family="sans-serif" font-size="14" lengthAdjust="spacing" textLength="13.3506" x="13" y="452.3701">...</text><line style="stroke:#181818;stroke-width:0.5;" x1="8" x2="268.0928" y1="459.6719" y2="459.6719"/><ellipse cx="18" cy="473.3203" fill="#84BE84" rx="3" ry="3" style="stroke:#038048;stroke-width:1;"/><text fill="#000000" font-family="sans-serif" font-size="14" lengthAdjust="spacing" textLength="83.918" x="27" y="476.667">Start(): void</text><ellipse cx="18" cy="489.6172" fill="#84BE84" rx="3" ry="3" style="stroke:#038048;stroke-width:1;"/><text fill="#000000" font-family="sans-serif" font-size="14" lengthAdjust="spacing" textLength="81.5459" x="27" y="492.9639">Stop(): void</text></g><!--class reactive_machine--><g id="elem_reactive_machine"><rect codeLine="62" fill="#F5F5DC" height="64.2969" id="reactive_machine" rx="2.5" ry="2.5" style="stroke:#181818;stroke-width:0.5;" width="202.9619" x="1171.5" y="411.5781"/><ellipse cx="1209.6583" cy="427.5781" fill="#A9DCDF" rx="11" ry="11" style="stroke:#181818;stroke-width:1;"/><path d="M1209.7677,422.9219 L1208.6114,428 L1210.9396,428 L1209.7677,422.9219 Z M1208.2833,420.6875 L1211.2677,420.6875 L1214.6271,433.0781 L1212.1739,433.0781 L1211.4083,430.0156 L1208.1271,430.0156 L1207.3771,433.0781 L1204.9396,433.0781 L1208.2833,420.6875 Z " fill="#000000"/><text fill="#000000" font-family="sans-serif" font-size="14" font-style="italic" lengthAdjust="spacing" textLength="119.499" x="1228.8046" y="432.4248">ReactiveMachine</text><line style="stroke:#181818;stroke-width:0.5;" x1="1172.5" x2="1373.4619" y1="443.5781" y2="443.5781"/><text fill="#000000" font-family="sans-serif" font-size="14" lengthAdjust="spacing" textLength="190.9619" x="1177.5" y="460.5732">Machine reacting to events</text><line style="stroke:#181818;stroke-width:0.5;" x1="1172.5" x2="1373.4619" y1="467.875" y2="467.875"/></g><!--class ptp_machine--><g id="elem_ptp_machine"><rect codeLine="66" fill="#F5DEB3" height="113.1875" id="ptp_machine" rx="2.5" ry="2.5" style="stroke:#181818;stroke-width:0.5;" width="229.7451" x="211" y="585.0781"/><ellipse cx="279.6021" cy="601.0781" fill="#ADD1B2" rx="11" ry="11" style="stroke:#181818;stroke-width:1;"/><path d="M282.5708,606.7188 Q281.9927,607.0156 281.3521,607.1563 Q280.7114,607.3125 280.0083,607.3125 Q277.5083,607.3125 276.1802,605.6719 Q274.8677,604.0156 274.8677,600.8906 Q274.8677,597.7656 276.1802,596.1094 Q277.5083,594.4531 280.0083,594.4531 Q280.7114,594.4531 281.3521,594.6094 Q282.0083,594.7656 282.5708,595.0625 L282.5708,597.7813 Q281.9458,597.2031 281.3521,596.9375 Q280.7583,596.6563 280.1333,596.6563 Q278.7896,596.6563 278.1021,597.7344 Q277.4146,598.7969 277.4146,600.8906 Q277.4146,602.9844 278.1021,604.0625 Q278.7896,605.125 280.1333,605.125 Q280.7583,605.125 281.3521,604.8594 Q281.9458,604.5781 282.5708,604 L282.5708,606.7188 Z " fill="#000000"/><text fill="#000000" font-family="sans-serif" font-size="14" lengthAdjust="spacing" textLength="84.041" x="300.1021" y="605.9248">PTPMachine</text><line style="stroke:#181818;stroke-width:0.5;" x1="212" x2="439.7451" y1="617.0781" y2="617.0781"/><text fill="#000000" font-family="sans-serif" font-size="14" lengthAdjust="spacing" textLength="217.7451" x="217" y="634.0732">Retrieves PTP time information</text><text fill="#000000" font-family="sans-serif" font-size="14" lengthAdjust="spacing" textLength="13.3506" x="217" y="650.3701">...</text><line style="stroke:#181818;stroke-width:0.5;" x1="212" x2="439.7451" y1="657.6719" y2="657.6719"/><ellipse cx="222" cy="671.3203" fill="#84BE84" rx="3" ry="3" style="stroke:#038048;stroke-width:1;"/><text fill="#000000" font-family="sans-serif" font-size="14" lengthAdjust="spacing" textLength="72.3789" x="231" y="674.667">Init(): bool</text><polygon fill="#FFFF44" points="222,682.6172,226,686.6172,222,690.6172,218,686.6172" style="stroke:#B38D22;stroke-width:1;"/><text fill="#000000" font-family="sans-serif" font-size="14" lengthAdjust="spacing" textLength="137.9902" x="231" y="690.9639">PeriodicTask(): void</text></g><!--class control_flow_divider--><g id="elem_control_flow_divider"><rect codeLine="73" fill="#ADD8E6" height="129.4844" id="control_flow_divider" rx="2.5" ry="2.5" style="stroke:#181818;stroke-width:0.5;" width="203.5977" x="476" y="577.0781"/><ellipse cx="503.2827" cy="593.0781" fill="#ADD1B2" rx="11" ry="11" style="stroke:#181818;stroke-width:1;"/><path d="M506.2515,598.7188 Q505.6733,599.0156 505.0327,599.1563 Q504.3921,599.3125 503.689,599.3125 Q501.189,599.3125 499.8608,597.6719 Q498.5483,596.0156 498.5483,592.8906 Q498.5483,589.7656 499.8608,588.1094 Q501.189,586.4531 503.689,586.4531 Q504.3921,586.4531 505.0327,586.6094 Q505.689,586.7656 506.2515,587.0625 L506.2515,589.7813 Q505.6265,589.2031 505.0327,588.9375 Q504.439,588.6563 503.814,588.6563 Q502.4702,588.6563 501.7827,589.7344 Q501.0952,590.7969 501.0952,592.8906 Q501.0952,594.9844 501.7827,596.0625 Q502.4702,597.125 503.814,597.125 Q504.439,597.125 505.0327,596.8594 Q505.6265,596.5781 506.2515,596 L506.2515,598.7188 Z " fill="#000000"/><text fill="#000000" font-family="sans-serif" font-size="14" lengthAdjust="spacing" textLength="132.9727" x="520.0122" y="597.9248">ControlFlowDivider</text><rect fill="#FFFFFF" height="15.9688" style="stroke:#181818;stroke-width:1;stroke-dasharray:2.0,2.0;" width="9.3301" x="673.2676" y="574.0781"/><text fill="#000000" font-family="sans-serif" font-size="12" font-style="italic" lengthAdjust="spacing" textLength="7.3301" x="674.2676" y="586.2168">T</text><line style="stroke:#181818;stroke-width:0.5;" x1="477" x2="678.5977" y1="609.0781" y2="609.0781"/><text fill="#000000" font-family="sans-serif" font-size="14" lengthAdjust="spacing" textLength="191.5977" x="482" y="626.0732">Decouples data flow timing</text><text fill="#000000" font-family="sans-serif" font-size="14" lengthAdjust="spacing" textLength="13.3506" x="482" y="642.3701">...</text><line style="stroke:#181818;stroke-width:0.5;" x1="477" x2="678.5977" y1="649.6719" y2="649.6719"/><ellipse cx="487" cy="663.3203" fill="#84BE84" rx="3" ry="3" style="stroke:#038048;stroke-width:1;"/><text fill="#000000" font-family="sans-serif" font-size="14" lengthAdjust="spacing" textLength="162.5039" x="496" y="666.667">OnMessage(data): void</text><polygon fill="#FFFF44" points="487,674.6172,491,678.6172,487,682.6172,483,678.6172" style="stroke:#B38D22;stroke-width:1;"/><text fill="#000000" font-family="sans-serif" font-size="14" lengthAdjust="spacing" textLength="109.7168" x="496" y="682.9639">OnEvent(): void</text><polygon fill="#FFFF44" points="487,690.9141,491,694.9141,487,698.9141,483,694.9141" style="stroke:#B38D22;stroke-width:1;"/><text fill="#000000" font-family="sans-serif" font-size="14" lengthAdjust="spacing" textLength="127.2305" x="496" y="699.2607">OnTimeout(): void</text></g><!--class ver_machine--><g id="elem_ver_machine"><rect codeLine="81" fill="#E6E6FA" height="96.8906" id="ver_machine" rx="2.5" ry="2.5" style="stroke:#181818;stroke-width:0.5;" width="242.9453" x="842.5" y="593.0781"/><ellipse cx="885.0682" cy="609.0781" fill="#ADD1B2" rx="11" ry="11" style="stroke:#181818;stroke-width:1;"/><path d="M888.037,614.7188 Q887.4588,615.0156 886.8182,615.1563 Q886.1776,615.3125 885.4745,615.3125 Q882.9745,615.3125 881.6463,613.6719 Q880.3338,612.0156 880.3338,608.8906 Q880.3338,605.7656 881.6463,604.1094 Q882.9745,602.4531 885.4745,602.4531 Q886.1776,602.4531 886.8182,602.6094 Q887.4745,602.7656 888.037,603.0625 L888.037,605.7813 Q887.412,605.2031 886.8182,604.9375 Q886.2245,604.6563 885.5995,604.6563 Q884.2557,604.6563 883.5682,605.7344 Q882.8807,606.7969 882.8807,608.8906 Q882.8807,610.9844 883.5682,612.0625 Q884.2557,613.125 885.5995,613.125 Q886.2245,613.125 886.8182,612.8594 Q887.412,612.5781 888.037,612 L888.037,614.7188 Z " fill="#000000"/><text fill="#000000" font-family="sans-serif" font-size="14" lengthAdjust="spacing" textLength="138.3525" x="905.1945" y="613.9248">VerificationMachine</text><rect fill="#FFFFFF" height="15.9688" style="stroke:#181818;stroke-width:1;stroke-dasharray:2.0,2.0;" width="9.3301" x="1079.1152" y="590.0781"/><text fill="#000000" font-family="sans-serif" font-size="12" font-style="italic" lengthAdjust="spacing" textLength="7.3301" x="1080.1152" y="602.2168">T</text><line style="stroke:#181818;stroke-width:0.5;" x1="843.5" x2="1084.4453" y1="625.0781" y2="625.0781"/><text fill="#000000" font-family="sans-serif" font-size="14" lengthAdjust="spacing" textLength="230.9453" x="848.5" y="642.0732">Validates and qualifies time data</text><text fill="#000000" font-family="sans-serif" font-size="14" lengthAdjust="spacing" textLength="13.3506" x="848.5" y="658.3701">...</text><line style="stroke:#181818;stroke-width:0.5;" x1="843.5" x2="1084.4453" y1="665.6719" y2="665.6719"/><ellipse cx="853.5" cy="679.3203" fill="#84BE84" rx="3" ry="3" style="stroke:#038048;stroke-width:1;"/><text fill="#000000" font-family="sans-serif" font-size="14" lengthAdjust="spacing" textLength="162.5039" x="862.5" y="682.667">OnMessage(data): void</text></g><!--class ipc_publisher--><g id="elem_ipc_publisher"><rect codeLine="87" fill="#FFB6C1" height="96.8906" id="ipc_publisher" rx="2.5" ry="2.5" style="stroke:#181818;stroke-width:0.5;" width="202.1211" x="1121" y="593.0781"/><ellipse cx="1169.5303" cy="609.0781" fill="#ADD1B2" rx="11" ry="11" style="stroke:#181818;stroke-width:1;"/><path d="M1172.499,614.7188 Q1171.9209,615.0156 1171.2803,615.1563 Q1170.6396,615.3125 1169.9365,615.3125 Q1167.4365,615.3125 1166.1084,613.6719 Q1164.7959,612.0156 1164.7959,608.8906 Q1164.7959,605.7656 1166.1084,604.1094 Q1167.4365,602.4531 1169.9365,602.4531 Q1170.6396,602.4531 1171.2803,602.6094 Q1171.9365,602.7656 1172.499,603.0625 L1172.499,605.7813 Q1171.874,605.2031 1171.2803,604.9375 Q1170.6865,604.6563 1170.0615,604.6563 Q1168.7178,604.6563 1168.0303,605.7344 Q1167.3428,606.7969 1167.3428,608.8906 Q1167.3428,610.9844 1168.0303,612.0625 Q1168.7178,613.125 1170.0615,613.125 Q1170.6865,613.125 1171.2803,612.8594 Q1171.874,612.5781 1172.499,612 L1172.499,614.7188 Z " fill="#000000"/><text fill="#000000" font-family="sans-serif" font-size="14" lengthAdjust="spacing" textLength="85.2305" x="1190.0303" y="613.9248">IpcPublisher</text><rect fill="#FFFFFF" height="15.9688" style="stroke:#181818;stroke-width:1;stroke-dasharray:2.0,2.0;" width="9.3301" x="1316.791" y="590.0781"/><text fill="#000000" font-family="sans-serif" font-size="12" font-style="italic" lengthAdjust="spacing" textLength="7.3301" x="1317.791" y="602.2168">T</text><line style="stroke:#181818;stroke-width:0.5;" x1="1122" x2="1322.1211" y1="625.0781" y2="625.0781"/><text fill="#000000" font-family="sans-serif" font-size="14" lengthAdjust="spacing" textLength="190.1211" x="1127" y="642.0732">Publishes time data via IPC</text><text fill="#000000" font-family="sans-serif" font-size="14" lengthAdjust="spacing" textLength="13.3506" x="1127" y="658.3701">...</text><line style="stroke:#181818;stroke-width:0.5;" x1="1122" x2="1322.1211" y1="665.6719" y2="665.6719"/><ellipse cx="1132" cy="679.3203" fill="#84BE84" rx="3" ry="3" style="stroke:#038048;stroke-width:1;"/><text fill="#000000" font-family="sans-serif" font-size="14" lengthAdjust="spacing" textLength="162.5039" x="1141" y="682.667">OnMessage(data): void</text></g><!--class ipc_receiver--><g id="elem_ipc_receiver"><rect codeLine="93" fill="#FFB6C1" height="96.8906" id="ipc_receiver" rx="2.5" ry="2.5" style="stroke:#181818;stroke-width:0.5;" width="265.7363" x="1410" y="395.0781"/><ellipse cx="1491.999" cy="411.0781" fill="#ADD1B2" rx="11" ry="11" style="stroke:#181818;stroke-width:1;"/><path d="M1494.9678,416.7188 Q1494.3896,417.0156 1493.749,417.1563 Q1493.1084,417.3125 1492.4053,417.3125 Q1489.9053,417.3125 1488.5771,415.6719 Q1487.2646,414.0156 1487.2646,410.8906 Q1487.2646,407.7656 1488.5771,406.1094 Q1489.9053,404.4531 1492.4053,404.4531 Q1493.1084,404.4531 1493.749,404.6094 Q1494.4053,404.7656 1494.9678,405.0625 L1494.9678,407.7813 Q1494.3428,407.2031 1493.749,406.9375 Q1493.1553,406.6563 1492.5303,406.6563 Q1491.1865,406.6563 1490.499,407.7344 Q1489.8115,408.7969 1489.8115,410.8906 Q1489.8115,412.9844 1490.499,414.0625 Q1491.1865,415.125 1492.5303,415.125 Q1493.1553,415.125 1493.749,414.8594 Q1494.3428,414.5781 1494.9678,414 L1494.9678,416.7188 Z " fill="#000000"/><text fill="#000000" font-family="sans-serif" font-size="14" lengthAdjust="spacing" textLength="81.9082" x="1512.499" y="415.9248">IpcReceiver</text><rect fill="#FFFFFF" height="15.9688" style="stroke:#181818;stroke-width:1;stroke-dasharray:2.0,2.0;" width="9.3301" x="1669.4063" y="392.0781"/><text fill="#000000" font-family="sans-serif" font-size="12" font-style="italic" lengthAdjust="spacing" textLength="7.3301" x="1670.4063" y="404.2168">T</text><line style="stroke:#181818;stroke-width:0.5;" x1="1411" x2="1674.7363" y1="427.0781" y2="427.0781"/><text fill="#000000" font-family="sans-serif" font-size="14" lengthAdjust="spacing" textLength="186.7988" x="1416" y="444.0732">Receives time data via IPC</text><text fill="#000000" font-family="sans-serif" font-size="14" lengthAdjust="spacing" textLength="13.3506" x="1416" y="460.3701">...</text><line style="stroke:#181818;stroke-width:0.5;" x1="1411" x2="1674.7363" y1="467.6719" y2="467.6719"/><ellipse cx="1421" cy="481.3203" fill="#84BE84" rx="3" ry="3" style="stroke:#038048;stroke-width:1;"/><text fill="#000000" font-family="sans-serif" font-size="14" lengthAdjust="spacing" textLength="239.7363" x="1430" y="484.667">Receive(): optional&lt;PtpTimeInfo&gt;</text></g><!--class mw_svt--><g id="elem_mw_svt"><rect codeLine="99" fill="#90EE90" height="96.8906" id="mw_svt" rx="2.5" ry="2.5" style="stroke:#181818;stroke-width:0.5;" width="155.8828" x="1465" y="197.0781"/><ellipse cx="1486.4762" cy="213.0781" fill="#ADD1B2" rx="11" ry="11" style="stroke:#181818;stroke-width:1;"/><path d="M1489.445,218.7188 Q1488.8668,219.0156 1488.2262,219.1563 Q1487.5856,219.3125 1486.8825,219.3125 Q1484.3825,219.3125 1483.0543,217.6719 Q1481.7418,216.0156 1481.7418,212.8906 Q1481.7418,209.7656 1483.0543,208.1094 Q1484.3825,206.4531 1486.8825,206.4531 Q1487.5856,206.4531 1488.2262,206.6094 Q1488.8825,206.7656 1489.445,207.0625 L1489.445,209.7813 Q1488.82,209.2031 1488.2262,208.9375 Q1487.6325,208.6563 1487.0075,208.6563 Q1485.6637,208.6563 1484.9762,209.7344 Q1484.2887,210.7969 1484.2887,212.8906 Q1484.2887,214.9844 1484.9762,216.0625 Q1485.6637,217.125 1487.0075,217.125 Q1487.6325,217.125 1488.2262,216.8594 Q1488.82,216.5781 1489.445,216 L1489.445,218.7188 Z " fill="#000000"/><text fill="#000000" font-family="sans-serif" font-size="14" lengthAdjust="spacing" textLength="109.4912" x="1501.9154" y="217.9248">score::time::svt</text><line style="stroke:#181818;stroke-width:0.5;" x1="1466" x2="1619.8828" y1="229.0781" y2="229.0781"/><text fill="#000000" font-family="sans-serif" font-size="14" lengthAdjust="spacing" textLength="143.3223" x="1471" y="246.0732">Middleware time API</text><text fill="#000000" font-family="sans-serif" font-size="14" lengthAdjust="spacing" textLength="13.3506" x="1471" y="262.3701">...</text><line style="stroke:#181818;stroke-width:0.5;" x1="1466" x2="1619.8828" y1="269.6719" y2="269.6719"/><ellipse cx="1476" cy="283.3203" fill="#84BE84" rx="3" ry="3" style="stroke:#038048;stroke-width:1;"/><text fill="#000000" font-family="sans-serif" font-size="14" lengthAdjust="spacing" textLength="129.8828" x="1485" y="286.667">Now(): TimeStatus</text></g><!--reverse link base_machine to proactive_machine--><g id="link_base_machine_proactive_machine"><path codeLine="105" d="M451.6211,309.4696 C445.6611,312.4596 455.81,307.2981 450,310.0781 C391.46,338.0581 325.48,366.5181 269.32,389.8481 " fill="transparent" id="base_machine-backto-proactive_machine" style="stroke:#181818;stroke-width:1;"/><polygon fill="transparent" points="467.71,301.3981,448.9306,304.1066,454.3116,314.8325,467.71,301.3981" style="stroke:#181818;stroke-width:1;"/></g><!--reverse link base_machine to reactive_machine--><g id="link_base_machine_reactive_machine"><path codeLine="106" d="M687.8618,267.9879 C805.7118,290.4479 987.65,329.5781 1153,387.0781 C1172.62,393.8981 1193.37,402.8381 1211.99,411.5381 " fill="transparent" id="base_machine-backto-reactive_machine" style="stroke:#181818;stroke-width:1;"/><polygon fill="transparent" points="670.18,264.6181,686.7385,273.8819,688.985,262.094,670.18,264.6181" style="stroke:#181818;stroke-width:1;"/></g><!--reverse link proactive_machine to ptp_machine--><g id="link_proactive_machine_ptp_machine"><path codeLine="108" d="M203.8303,513.2082 C229.2303,539.6882 247.08,558.2981 272.5,584.7981 " fill="transparent" id="proactive_machine-backto-ptp_machine" style="stroke:#181818;stroke-width:1;stroke-dasharray:7.0,7.0;"/><polygon fill="transparent" points="191.37,500.2181,199.5002,517.3616,208.1603,509.0548,191.37,500.2181" style="stroke:#181818;stroke-width:1;"/></g><!--reverse link proactive_machine to control_flow_divider--><g id="link_proactive_machine_control_flow_divider"><path codeLine="109" d="M285.9132,502.4015 C344.2732,525.9415 396.79,548.2881 458,577.0781 C463.87,579.8381 469.86,582.7381 475.88,585.7081 " fill="transparent" id="proactive_machine-backto-control_flow_divider" style="stroke:#181818;stroke-width:1;stroke-dasharray:7.0,7.0;"/><polygon fill="transparent" points="269.22,495.6681,283.6687,507.9659,288.1576,496.8371,269.22,495.6681" style="stroke:#181818;stroke-width:1;"/></g><!--reverse link reactive_machine to ver_machine--><g id="link_reactive_machine_ver_machine"><path codeLine="110" d="M1214.8553,486.0994 C1185.4353,506.8694 1160.18,524.1081 1124,547.0781 C1099.69,562.5081 1072.82,578.5881 1048.16,592.9581 " fill="transparent" id="reactive_machine-backto-ver_machine" style="stroke:#181818;stroke-width:1;stroke-dasharray:7.0,7.0;"/><polygon fill="transparent" points="1229.56,475.7181,1211.3948,481.1978,1218.3157,491.001,1229.56,475.7181" style="stroke:#181818;stroke-width:1;"/></g><!--reverse link reactive_machine to ipc_publisher--><g id="link_reactive_machine_ipc_publisher"><path codeLine="111" d="M1260.3881,493.0583 C1252.1881,524.5783 1243.91,556.3681 1234.42,592.8481 " fill="transparent" id="reactive_machine-backto-ipc_publisher" style="stroke:#181818;stroke-width:1;stroke-dasharray:7.0,7.0;"/><polygon fill="transparent" points="1264.92,475.6381,1254.5814,491.5477,1266.1948,494.5689,1264.92,475.6381" style="stroke:#181818;stroke-width:1;"/></g><!--reverse link consumer to control_flow_divider--><g id="link_consumer_control_flow_divider"><path codeLine="113" d="M981.1679,505.1164 C961.7479,525.3564 949.15,534.2281 922,547.0781 C834.8,588.3581 799.23,548.7481 707,577.0781 C698.17,579.7881 689.2,583.0481 680.31,586.6281 " fill="transparent" id="consumer-backto-control_flow_divider" style="stroke:#181818;stroke-width:1;stroke-dasharray:7.0,7.0;"/><polygon fill="transparent" points="993.63,492.1281,976.8385,500.9624,985.4973,509.2705,993.63,492.1281" style="stroke:#181818;stroke-width:1;"/></g><!--reverse link consumer to ver_machine--><g id="link_consumer_ver_machine"><path codeLine="114" d="M1010.2323,509.2566 C999.4623,539.8466 991.51,562.4381 980.75,593.0081 " fill="transparent" id="consumer-backto-ver_machine" style="stroke:#181818;stroke-width:1;stroke-dasharray:7.0,7.0;"/><polygon fill="transparent" points="1016.21,492.2781,1004.5728,507.264,1015.8918,511.2491,1016.21,492.2781" style="stroke:#181818;stroke-width:1;"/></g><!--reverse link consumer to ipc_publisher--><g id="link_consumer_ipc_publisher"><path codeLine="115" d="M1092.8421,505.2208 C1104.8721,517.4708 1105.14,517.8081 1117,530.0781 C1136.77,550.5381 1158.45,573.2981 1176.95,592.8181 " fill="transparent" id="consumer-backto-ipc_publisher" style="stroke:#181818;stroke-width:1;stroke-dasharray:7.0,7.0;"/><polygon fill="transparent" points="1080.23,492.3781,1088.5612,509.4249,1097.123,501.0168,1080.23,492.3781" style="stroke:#181818;stroke-width:1;"/></g><!--reverse link producer to ptp_machine--><g id="link_producer_ptp_machine"><path codeLine="117" d="M401.118,507.9398 C385.268,535.9198 374.03,555.7581 357.47,585.0081 " fill="transparent" id="producer-backto-ptp_machine" style="stroke:#181818;stroke-width:1;stroke-dasharray:7.0,7.0;"/><polygon fill="transparent" points="409.99,492.2781,395.8975,504.9825,406.3386,510.8971,409.99,492.2781" style="stroke:#181818;stroke-width:1;"/></g><!--reverse link producer to control_flow_divider--><g id="link_producer_control_flow_divider"><path codeLine="118" d="M452.8301,509.3366 C458.2901,527.5066 460.99,530.5781 472,547.0781 C479.02,557.5881 487.5,567.6581 496.57,577.0281 " fill="transparent" id="producer-backto-control_flow_divider" style="stroke:#181818;stroke-width:1;stroke-dasharray:7.0,7.0;"/><polygon fill="transparent" points="447.65,492.0981,447.0839,511.0633,458.5763,507.6099,447.65,492.0981" style="stroke:#181818;stroke-width:1;"/></g><!--reverse link producer to ver_machine--><g id="link_producer_ver_machine"><path codeLine="119" d="M578.4655,497.7711 C587.0955,500.5811 578.59,497.6681 587,500.0781 C650.26,518.2181 669.62,509.1081 732,530.0781 C781.58,546.7481 834.41,571.3281 877.12,593.0681 " fill="transparent" id="producer-backto-ver_machine" style="stroke:#181818;stroke-width:1;stroke-dasharray:7.0,7.0;"/><polygon fill="transparent" points="561.35,492.1981,576.6079,503.4763,580.3232,492.0659,561.35,492.1981" style="stroke:#181818;stroke-width:1;"/></g><!--link ptp_machine to msg_broker--><g id="link_ptp_machine_msg_broker"><path codeLine="121" d="M404.32,698.3381 C432.71,717.1481 465.55,737.3481 497,753.0781 C530.4,769.7881 561.9225,783.0502 597.2325,796.3002 " fill="transparent" id="ptp_machine-to-msg_broker" style="stroke:#181818;stroke-width:1;"/><polygon fill="#181818" points="602.85,798.4081,595.829,791.5012,598.1687,796.6515,593.0184,798.9912,602.85,798.4081" style="stroke:#181818;stroke-width:1;"/><text fill="#000000" font-family="sans-serif" font-size="13" lengthAdjust="spacing" textLength="77.1431" x="498" y="749.145">produces to</text></g><!--link control_flow_divider to msg_broker--><g id="link_control_flow_divider_msg_broker"><path codeLine="122" d="M576.31,706.2381 C578.4,722.5481 582.98,739.3381 592,753.0781 C599.26,764.1381 603.8159,770.0942 613.9059,778.9742 " fill="transparent" id="control_flow_divider-to-msg_broker" style="stroke:#181818;stroke-width:1;"/><polygon fill="#181818" points="618.41,782.9381,614.2965,773.9894,614.6566,779.6348,609.0112,779.9949,618.41,782.9381" style="stroke:#181818;stroke-width:1;"/><text fill="#000000" font-family="sans-serif" font-size="13" lengthAdjust="spacing" textLength="130.127" x="593" y="749.145">consumes/produces</text></g><!--link ver_machine to msg_broker--><g id="link_ver_machine_msg_broker"><path codeLine="123" d="M914.1,690.1481 C885.07,717.8181 852.4621,748.8974 820.9821,778.9174 " fill="transparent" id="ver_machine-to-msg_broker" style="stroke:#181818;stroke-width:1;"/><polygon fill="#181818" points="816.64,783.0581,825.9137,779.7418,820.2584,779.6075,820.3927,773.9522,816.64,783.0581" style="stroke:#181818;stroke-width:1;"/><text fill="#000000" font-family="sans-serif" font-size="13" lengthAdjust="spacing" textLength="130.127" x="865" y="749.145">consumes/produces</text></g><!--link ipc_publisher to msg_broker--><g id="link_ipc_publisher_msg_broker"><path codeLine="124" d="M1133.86,690.1981 C1123.5,695.6281 1113.04,701.0181 1103,706.0781 C1059.5,727.9981 1048.9,734.1981 1004,753.0781 C969.78,767.4681 938.1158,779.7924 902.9158,792.8424 " fill="transparent" id="ipc_publisher-to-msg_broker" style="stroke:#181818;stroke-width:1;"/><polygon fill="#181818" points="897.29,794.9281,907.1192,795.5501,901.9782,793.19,904.3383,788.049,897.29,794.9281" style="stroke:#181818;stroke-width:1;"/><text fill="#000000" font-family="sans-serif" font-size="13" lengthAdjust="spacing" textLength="100.458" x="1044" y="749.145">consumes from</text></g><!--reverse link mw_svt to ipc_receiver--><g id="link_mw_svt_ipc_receiver"><path codeLine="126" d="M1543,306.2781 C1543,336.8681 1543,364.4381 1543,395.0081 " fill="transparent" id="mw_svt-backto-ipc_receiver" style="stroke:#181818;stroke-width:1;"/><polygon fill="#181818" points="1543,294.2781,1539,300.2781,1543,306.2781,1547,300.2781,1543,294.2781" style="stroke:#181818;stroke-width:1;"/><text fill="#000000" font-family="sans-serif" font-size="13" lengthAdjust="spacing" textLength="29.7832" x="1544" y="353.145">uses</text></g><!--reverse link tb_handler to msg_broker--><g id="link_tb_handler_msg_broker"><path codeLine="128" d="M750,512.4781 C750,586.5781 750,705.0381 750,782.8681 " fill="transparent" id="tb_handler-backto-msg_broker" style="stroke:#181818;stroke-width:1;"/><polygon fill="#181818" points="750,500.4781,746,506.4781,750,512.4781,754,506.4781,750,500.4781" style="stroke:#181818;stroke-width:1;"/><text fill="#000000" font-family="sans-serif" font-size="13" lengthAdjust="spacing" textLength="55.0278" x="751" y="646.145">contains</text></g><!--reverse link tb_handler to ptp_machine--><g id="link_tb_handler_ptp_machine"><path codeLine="129" d="M614.8131,505.1562 C562.8531,528.6162 512.85,551.4481 458,577.0781 C452.47,579.6581 446.82,582.3181 441.11,585.0181 " fill="transparent" id="tb_handler-backto-ptp_machine" style="stroke:#181818;stroke-width:1;"/><polygon fill="#181818" points="625.75,500.2181,618.6355,499.0415,614.8131,505.1562,621.9276,506.3328,625.75,500.2181" style="stroke:#181818;stroke-width:1;"/><text fill="#000000" font-family="sans-serif" font-size="13" lengthAdjust="spacing" textLength="55.0278" x="556" y="543.145">contains</text></g><!--reverse link tb_handler to control_flow_divider--><g id="link_tb_handler_control_flow_divider"><path codeLine="130" d="M686.0479,509.1318 C676.7679,518.8618 675.64,520.3181 667,530.0781 C653.86,544.9281 640.18,561.3681 627.61,576.9281 " fill="transparent" id="tb_handler-backto-control_flow_divider" style="stroke:#181818;stroke-width:1;"/><polygon fill="#181818" points="694.33,500.4481,687.2944,502.0293,686.0479,509.1318,693.0835,507.5507,694.33,500.4481" style="stroke:#181818;stroke-width:1;"/><text fill="#000000" font-family="sans-serif" font-size="13" lengthAdjust="spacing" textLength="55.0278" x="668" y="543.145">contains</text></g><!--reverse link tb_handler to ver_machine--><g id="link_tb_handler_ver_machine"><path codeLine="131" d="M819.5991,508.3233 C851.4791,537.5233 881.3,564.8281 911.81,592.7781 " fill="transparent" id="tb_handler-backto-ver_machine" style="stroke:#181818;stroke-width:1;"/><polygon fill="#181818" points="810.75,500.2181,812.4728,507.2204,819.5991,508.3233,817.8763,501.321,810.75,500.2181" style="stroke:#181818;stroke-width:1;"/><text fill="#000000" font-family="sans-serif" font-size="13" lengthAdjust="spacing" textLength="55.0278" x="858" y="543.145">contains</text></g><!--reverse link tb_handler to ipc_publisher--><g id="link_tb_handler_ipc_publisher"><path codeLine="132" d="M906.4368,498.2833 C970.8868,521.5533 1035.9,546.7381 1103,577.0781 C1113.78,581.9481 1124.93,587.3681 1135.9,592.9381 " fill="transparent" id="tb_handler-backto-ipc_publisher" style="stroke:#181818;stroke-width:1;"/><polygon fill="#181818" points="895.15,494.2081,899.435,500.008,906.4368,498.2833,902.1518,492.4834,895.15,494.2081" style="stroke:#181818;stroke-width:1;"/><text fill="#000000" font-family="sans-serif" font-size="13" lengthAdjust="spacing" textLength="55.0278" x="1029" y="543.145">contains</text></g><!--SRC=[bLPBR-Cs4BxhLmms5_TXzrBqO1W6DawxDT1iXCJO7WsA6jj4959BKdOVxd_lKA8iqfRIL1URmu_ylXdDGrRO0c4ZIdnWM2evXrN1Z847mVQQbV1qH7qKU4gI0lSeSx2gWW9tDW5wph2u-qti3tRr9vDBWDRMtmObbXbg0y5plfpy_O3CBeCTI6troFX1I8I1vnnptXSrNZXNIbgjYbyATNeGHv6Z7Zd9ZkG5wkM5ymjgiHESMQ7aBVaLPohawuLpdQw0gx9I4gKrushlKUmnylEU6GJk0erco4-Is8OxIHeKVA38kB2kvKvz06R0qc8hQ0NjzV1tG-SmuCowR1o2d5a6nkgQsrfZWvdDPitlTvMjvb0BQN_wiJKKYhDYwwwExSOoMvivNMoJVowI79Tpv5VcrEfMLhOzj4le4yDhUsH2GhTRCidsGkw15KKGn5ZWMWehM27-miatSpWgaRVsvre-ITuRUqsFQ0pRuxrMhwWNcsKZgZJxRTPOu2vb1Mvg_RLMmdH1Mn6pPesCifO-5U1GPx6QZtd-KcU6Qq4fFQ4w4FnxC1TBf92mgLPvpNjavTSXRfhMMI7CeSEujnKunJ9wSunRyDwvQFiKRHpBQBqjVSv6UT0d650kD47skAiGVqBxcPLDA8cBNaWVUMVBb2g6b52vcRhiGypzEbRHeLpYeDunVfM0JzA_hubpV0wRDtplmjanTk6C6JlK6ECBMX_o5SKaO_nrmlsVjxbf9OvHyAlEEFm6kbPo4lO0wYG1_q1UDvbb3nfPVYNCCctZB7-Xf9YyeUePRqLfV8-c5aN5PnNWiQcxleJIJHgvQQl-igPZ-ykUaVA5JXkW4qq_2XlFRI5VqibPxbBgkYeNVCFCwq0TtxRp8DFSpdP7MzlSj_f-87Xn3yXLNHKahcc03kmaTlazae5X-E-UvCykD9Che-jwghO3cWS6IIUQXcWVn6u4UQbVgC4HEKcbrWXVQrhk1BOTlb7_7iMzYdN5VORtCHCLtrQT4Vf9rXMDtmeuuIYOcs__c_iPELB-HTJQsswPFVe_YJtE1LrLBhwiM0GJSHbeC5nfdC-R8JOtHzjEWDEM_dh-JnhnCfD4JkFen3Is4ZwcwvZvipevLiVqqan1HnNrtSLvEhrj1WEOwzfCajiMiZZFPc79ZK66gY2vAVu66kJU229A3mfarxN7cM98o13lNDrywTb3RWOxWvmn9EHCmXurdIx3WJ_l1WNbc4e6cyVD2U-3-Q4xceJr-mvuN6-Z1s2dLPaaFZc_fHI9geM-mUZpC4c2Rog7kRxAqcULkGQ54Hb73OPZ71v6OHmLEn_W_WK0]--></g></svg>