<svg xmlns="http://www.w3.org/2000/svg" xmlns:xlink="http://www.w3.org/1999/xlink" contentStyleType="text/css" data-diagram-type="DESCRIPTION" height="882px" preserveAspectRatio="none" style="width:378px;height:882px;background:#FFFFFF;" version="1.1" viewBox="0 0 378 882" width="378px" zoomAndPan="magnify"><title>Deployment view</title><defs/><g><text fill="#000000" font-family="sans-serif" font-size="14" font-weight="bold" lengthAdjust="spacing" textLength="136.6504" x="113.6748" y="22.9951">Deployment view</text><!--cluster Application Layer--><g id="cluster_Application Layer"><polygon fill="transparent" points="26,633.2969,36,623.2969,240,623.2969,240,855.2969,230,865.2969,26,865.2969,26,633.2969" style="stroke:#181818;stroke-width:1;"/><line style="stroke:#181818;stroke-width:1;" x1="230" x2="240" y1="633.2969" y2="623.2969"/><line style="stroke:#181818;stroke-width:1;" x1="26" x2="230" y1="633.2969" y2="633.2969"/><line style="stroke:#181818;stroke-width:1;" x1="230" x2="230" y1="633.2969" y2="865.2969"/><text fill="#000000" font-family="sans-serif" font-size="14" font-weight="bold" lengthAdjust="spacing" textLength="138.0654" x="59.9673" y="649.292">Application Layer</text></g><!--cluster PTP Daemon--><g id="cluster_PTP Daemon"><polygon fill="transparent" points="20,53.2969,30,43.2969,195,43.2969,195,152.2969,185,162.2969,20,162.2969,20,53.2969" style="stroke:#181818;stroke-width:1;"/><line style="stroke:#181818;stroke-width:1;" x1="185" x2="195" y1="53.2969" y2="43.2969"/><line style="stroke:#181818;stroke-width:1;" x1="20" x2="185" y1="53.2969" y2="53.2969"/><line style="stroke:#181818;stroke-width:1;" x1="185" x2="185" y1="53.2969" y2="162.2969"/><text fill="#000000" font-family="sans-serif" font-size="14" font-weight="bold" lengthAdjust="spacing" textLength="99.6816" x="53.6592" y="69.292">PTP Daemon</text></g><!--cluster VehicleTimeDaemon--><g id="cluster_VehicleTimeDaemon"><polygon fill="transparent" points="16,236.2969,26,226.2969,361,226.2969,361,564.2969,351,574.2969,16,574.2969,16,236.2969" style="stroke:#181818;stroke-width:1;"/><line style="stroke:#181818;stroke-width:1;" x1="351" x2="361" y1="236.2969" y2="226.2969"/><line style="stroke:#181818;stroke-width:1;" x1="16" x2="351" y1="236.2969" y2="236.2969"/><line style="stroke:#181818;stroke-width:1;" x1="351" x2="351" y1="236.2969" y2="574.2969"/><text fill="#000000" font-family="sans-serif" font-size="14" font-weight="bold" lengthAdjust="spacing" textLength="160.8564" x="104.0718" y="252.292">VehicleTimeDaemon</text></g><!--entity app_bl--><g id="elem_app_bl"><rect fill="#F1F1F1" height="46.2969" rx="2.5" ry="2.5" style="stroke:#181818;stroke-width:0.5;" width="139.1143" x="51.5" y="803.2969"/><rect fill="#F1F1F1" height="10" style="stroke:#181818;stroke-width:0.5;" width="15" x="170.6143" y="808.2969"/><rect fill="#F1F1F1" height="2" style="stroke:#181818;stroke-width:0.5;" width="4" x="168.6143" y="810.2969"/><rect fill="#F1F1F1" height="2" style="stroke:#181818;stroke-width:0.5;" width="4" x="168.6143" y="814.2969"/><text fill="#000000" font-family="sans-serif" font-size="14" lengthAdjust="spacing" textLength="99.1143" x="66.5" y="836.292">Business logic</text></g><!--entity mw--><g id="elem_mw"><rect fill="#F1F1F1" height="62.5938" rx="2.5" ry="2.5" style="stroke:#181818;stroke-width:0.5;" width="136.6533" x="52.5" y="663.2969"/><rect fill="#F1F1F1" height="10" style="stroke:#181818;stroke-width:0.5;" width="15" x="169.1533" y="668.2969"/><rect fill="#F1F1F1" height="2" style="stroke:#181818;stroke-width:0.5;" width="4" x="167.1533" y="670.2969"/><rect fill="#F1F1F1" height="2" style="stroke:#181818;stroke-width:0.5;" width="4" x="167.1533" y="674.2969"/><text fill="#000000" font-family="sans-serif" font-size="14" font-style="italic" lengthAdjust="spacing" textLength="62.3232" x="84.665" y="696.292">&#171;library&#187;</text><text fill="#000000" font-family="sans-serif" font-size="14" lengthAdjust="spacing" textLength="96.6533" x="67.5" y="712.5889">mw::time::svt</text></g><!--entity qgptpd--><g id="elem_qgptpd"><rect fill="#F1F1F1" height="62.5938" rx="2.5" ry="2.5" style="stroke:#181818;stroke-width:0.5;" width="116.4365" x="39" y="83.2969"/><rect fill="#F1F1F1" height="10" style="stroke:#181818;stroke-width:0.5;" width="15" x="135.4365" y="88.2969"/><rect fill="#F1F1F1" height="2" style="stroke:#181818;stroke-width:0.5;" width="4" x="133.4365" y="90.2969"/><rect fill="#F1F1F1" height="2" style="stroke:#181818;stroke-width:0.5;" width="4" x="133.4365" y="94.2969"/><text fill="#000000" font-family="sans-serif" font-size="14" font-style="italic" lengthAdjust="spacing" textLength="74.4365" x="55" y="116.292">&#171;daemon&#187;</text><text fill="#000000" font-family="sans-serif" font-size="14" lengthAdjust="spacing" textLength="49.9229" x="67.2568" y="132.5889">qgptpd</text></g><!--entity msg_broker--><g id="elem_msg_broker"><rect fill="#F1F1F1" height="46.2969" rx="2.5" ry="2.5" style="stroke:#181818;stroke-width:0.5;" width="147.7617" x="197" y="266.2969"/><rect fill="#F1F1F1" height="10" style="stroke:#181818;stroke-width:0.5;" width="15" x="324.7617" y="271.2969"/><rect fill="#F1F1F1" height="2" style="stroke:#181818;stroke-width:0.5;" width="4" x="322.7617" y="273.2969"/><rect fill="#F1F1F1" height="2" style="stroke:#181818;stroke-width:0.5;" width="4" x="322.7617" y="277.2969"/><text fill="#000000" font-family="sans-serif" font-size="14" lengthAdjust="spacing" textLength="107.7617" x="212" y="299.292">MessageBroker</text></g><!--entity verification_machine--><g id="elem_verification_machine"><rect fill="#F1F1F1" height="46.2969" rx="2.5" ry="2.5" style="stroke:#181818;stroke-width:0.5;" width="178.3525" x="32" y="389.2969"/><rect fill="#F1F1F1" height="10" style="stroke:#181818;stroke-width:0.5;" width="15" x="190.3525" y="394.2969"/><rect fill="#F1F1F1" height="2" style="stroke:#181818;stroke-width:0.5;" width="4" x="188.3525" y="396.2969"/><rect fill="#F1F1F1" height="2" style="stroke:#181818;stroke-width:0.5;" width="4" x="188.3525" y="400.2969"/><text fill="#000000" font-family="sans-serif" font-size="14" lengthAdjust="spacing" textLength="138.3525" x="47" y="422.292">VerificationMachine</text></g><!--entity ptp_machine--><g id="elem_ptp_machine"><rect fill="#F1F1F1" height="46.2969" rx="2.5" ry="2.5" style="stroke:#181818;stroke-width:0.5;" width="130.0498" x="32" y="266.2969"/><rect fill="#F1F1F1" height="10" style="stroke:#181818;stroke-width:0.5;" width="15" x="142.0498" y="271.2969"/><rect fill="#F1F1F1" height="2" style="stroke:#181818;stroke-width:0.5;" width="4" x="140.0498" y="273.2969"/><rect fill="#F1F1F1" height="2" style="stroke:#181818;stroke-width:0.5;" width="4" x="140.0498" y="277.2969"/><text fill="#000000" font-family="sans-serif" font-size="14" lengthAdjust="spacing" textLength="90.0498" x="47" y="299.292">PTP machine</text></g><!--entity ipc--><g id="elem_ipc"><rect fill="#F1F1F1" height="46.2969" rx="2.5" ry="2.5" style="stroke:#181818;stroke-width:0.5;" width="62.3467" x="90" y="512.2969"/><rect fill="#F1F1F1" height="10" style="stroke:#181818;stroke-width:0.5;" width="15" x="132.3467" y="517.2969"/><rect fill="#F1F1F1" height="2" style="stroke:#181818;stroke-width:0.5;" width="4" x="130.3467" y="519.2969"/><rect fill="#F1F1F1" height="2" style="stroke:#181818;stroke-width:0.5;" width="4" x="130.3467" y="523.2969"/><text fill="#000000" font-family="sans-serif" font-size="14" lengthAdjust="spacing" textLength="22.3467" x="105" y="545.292">IPC</text></g><!--link qgptpd to ptp_machine--><g id="link_qgptpd_ptp_machine"><path d="M97,146.6369 C97,181.0369 97,229.8369 97,260.2069 " fill="transparent" id="qgptpd-to-ptp_machine" style="stroke:#0000FF;stroke-width:1;"/><polygon fill="#0000FF" points="97,266.2069,101,257.2069,97,261.2069,93,257.2069,97,266.2069" style="stroke:#0000FF;stroke-width:1;"/><text fill="#000000" font-family="sans-serif" font-size="13" lengthAdjust="spacing" textLength="113.8325" x="118.2871" y="191.3638">PTP time updates</text><text fill="#000000" font-family="sans-serif" font-size="13" lengthAdjust="spacing" textLength="154.4067" x="98" y="206.4966">(via shmem and devctl)</text></g><!--link ptp_machine to verification_machine--><g id="link_ptp_machine_verification_machine"><path d="M101.4,312.4869 C105.73,334.3269 111.1432,361.5714 115.4632,383.3614 " fill="transparent" id="ptp_machine-to-verification_machine" style="stroke:#008000;stroke-width:1;"/><polygon fill="#008000" points="116.63,389.2469,118.8034,379.6408,115.6576,384.3423,110.9561,381.1966,116.63,389.2469" style="stroke:#008000;stroke-width:1;"/><text fill="#000000" font-family="sans-serif" font-size="13" lengthAdjust="spacing" textLength="111.6045" x="111" y="355.3638">Time information</text></g><!--link verification_machine to ipc--><g id="link_verification_machine_ipc"><path d="M121,435.4869 C121,457.3269 121,484.4569 121,506.2469 " fill="transparent" id="verification_machine-to-ipc" style="stroke:#008000;stroke-width:1;"/><polygon fill="#008000" points="121,512.2469,125,503.2469,121,507.2469,117,503.2469,121,512.2469" style="stroke:#008000;stroke-width:1;"/><text fill="#000000" font-family="sans-serif" font-size="13" lengthAdjust="spacing" textLength="111.6045" x="122" y="478.3638">Time information</text></g><!--link ipc to mw--><g id="link_ipc_mw"><path d="M121,558.5269 C121,585.8369 121,626.2969 121,657.0169 " fill="transparent" id="ipc-to-mw" style="stroke:#008000;stroke-width:1;"/><polygon fill="#008000" points="121,663.0169,125,654.0169,121,658.0169,117,654.0169,121,663.0169" style="stroke:#008000;stroke-width:1;"/><text fill="#000000" font-family="sans-serif" font-size="13" lengthAdjust="spacing" textLength="111.6045" x="122" y="603.3638">Time information</text></g><!--link mw to app_bl--><g id="link_mw_app_bl"><path d="M121,726.4869 C121,749.9769 121,775.8169 121,796.9269 " fill="transparent" id="mw-to-app_bl" style="stroke:#FFA500;stroke-width:1;"/><polygon fill="#FFA500" points="121,802.9269,125,793.9269,121,797.9269,117,793.9269,121,802.9269" style="stroke:#FFA500;stroke-width:1;"/><text fill="#000000" font-family="sans-serif" font-size="13" lengthAdjust="spacing" textLength="38.4541" x="122" y="769.3638">Now()</text></g><!--SRC=[RP7DRi8m48JlVeeLlS215uWGKYcNIgNYWBZG23d94bRrNssJ25LzzwxZ5a5BRl5yCpjhHueAOObEsRD64w4Zx8Kmja4OFJgdg9QHh84NUKO_Way1_EqMfq06Gm1bMwfBa06aS_jAPLdtHH59Or64BfOmcocglFJd-JoHkXTVFnFMcpKi9MfhBj4VhOkkIQPc4B8ddrvyMpnIhN33C_xOLznAjhZmzXrz2SEyqEwhuJyZM_Hq-Dbh9UiZRvB1xahOwwnaI-gfVr4ckSmjyBn-6WHoDPSKkIvCTm-LEc4vdLyxe82Kbou8JgwH4SER6NSa8HmrQf2cWGQxEgg9kBPnMkiHJOgxLxM0T1z0vc2z7XHn3xl9uRvtR7nwG_5x_eTqpuZrqhJ3WldzURTNsuyduXi0]--></g></svg>