<svg xmlns="http://www.w3.org/2000/svg" xmlns:xlink="http://www.w3.org/1999/xlink" contentStyleType="text/css" data-diagram-type="SEQUENCE" height="1142px" preserveAspectRatio="none" style="width:1865px;height:1142px;background:#FFFFFF;" version="1.1" viewBox="0 0 1865 1142" width="1865px" zoomAndPan="magnify"><title>TimeDaemon: Data and Control Flow</title><defs/><g><text fill="#000000" font-family="sans-serif" font-size="14" font-weight="bold" lengthAdjust="spacing" textLength="289.6934" x="789.4001" y="27.9951">TimeDaemon: Data and Control Flow</text><rect fill="#FFFFE0" height="901.0156" style="stroke:#181818;stroke-width:0.5;" width="1149.2729" x="16" y="228.9688"/><text fill="#000000" font-family="sans-serif" font-size="13" font-weight="bold" lengthAdjust="spacing" textLength="95.7988" x="540.4741" y="241.0356">TimeDaemon</text><rect fill="#E6FFE6" height="901.0156" style="stroke:#181818;stroke-width:0.5;" width="461.7808" x="1391.7129" y="228.9688"/><text fill="#000000" font-family="sans-serif" font-size="13" font-weight="bold" lengthAdjust="spacing" textLength="82.9194" x="1578.8806" y="241.0356">Application</text><g><title>PTPMachine</title><rect fill="#FFFFFF" height="167.7305" style="stroke:#181818;stroke-width:1;" width="10" x="64.0205" y="346.7305"/></g><g><title>MessageBroker</title><rect fill="#FFFFFF" height="129.5313" style="stroke:#181818;stroke-width:1;" width="10" x="328.3545" y="384.9297"/></g><g><title>MessageBroker</title><rect fill="#FFFFFF" height="246.0625" style="stroke:#181818;stroke-width:1;" width="10" x="328.3545" y="616.8594"/></g><g><title>ControlFlowDivider</title><rect fill="#FFFFFF" height="71.2656" style="stroke:#181818;stroke-width:1;" width="10" x="592.6885" y="414.0625"/></g><g><title>ControlFlowDivider</title><rect fill="#FFFFFF" height="280.1953" style="stroke:#181818;stroke-width:1;" width="10" x="592.6885" y="582.7266"/></g><g><title>VerificationMachine</title><rect fill="#FFFFFF" height="71.2656" style="stroke:#181818;stroke-width:1;" width="10" x="874.083" y="645.9922"/></g><g><title>IpcPublisher</title><rect fill="#FFFFFF" height="87.3984" style="stroke:#181818;stroke-width:1;" width="10" x="1106.6577" y="746.3906"/></g><g><title>SharedMemory</title><rect fill="#FFFFFF" height="29.1328" style="stroke:#181818;stroke-width:1;" width="10" x="1292.687" y="775.5234"/></g><g><title>SharedMemory</title><rect fill="#FFFFFF" height="29.1328" style="stroke:#181818;stroke-width:1;" width="10" x="1292.687" y="981.4531"/></g><g><title>IpcReceiver</title><rect fill="#FFFFFF" height="87.3984" style="stroke:#181818;stroke-width:1;" width="10" x="1438.667" y="952.3203"/></g><g><title>score::time::svt</title><rect fill="#FFFFFF" height="187.7969" style="stroke:#181818;stroke-width:1;" width="10" x="1584.647" y="923.1875"/></g><g><title>Application</title><rect fill="#FFFFFF" height="187.7969" style="stroke:#181818;stroke-width:1;" width="10" x="1798.3818" y="923.1875"/></g><rect fill="transparent" height="226.0625" style="stroke:#000000;stroke-width:1.5;" width="869.083" x="10" y="296.3984"/><rect fill="transparent" height="334.4609" style="stroke:#000000;stroke-width:1.5;" width="1105.479" x="262.4736" y="536.4609"/><rect fill="transparent" height="234.0625" style="stroke:#000000;stroke-width:1.5;" width="632.0723" x="1227.4214" y="884.9219"/><g><title>PTPMachine</title><rect fill="transparent" height="856.5859" width="8" x="65.0205" y="279.3984"/><line style="stroke:#181818;stroke-width:0.5;stroke-dasharray:5.0,5.0;" x1="69" x2="69" y1="279.3984" y2="1135.9844"/></g><g><title>MessageBroker</title><rect fill="transparent" height="856.5859" width="8" x="329.3545" y="279.3984"/><line style="stroke:#181818;stroke-width:0.5;stroke-dasharray:5.0,5.0;" x1="332.4736" x2="332.4736" y1="279.3984" y2="1135.9844"/></g><g><title>ControlFlowDivider</title><rect fill="transparent" height="856.5859" width="8" x="593.6885" y="279.3984"/><line style="stroke:#181818;stroke-width:0.5;stroke-dasharray:5.0,5.0;" x1="597.2021" x2="597.2021" y1="279.3984" y2="1135.9844"/></g><g><title>VerificationMachine</title><rect fill="transparent" height="856.5859" width="8" x="875.083" y="279.3984"/><line style="stroke:#181818;stroke-width:0.5;stroke-dasharray:5.0,5.0;" x1="878.9067" x2="878.9067" y1="279.3984" y2="1135.9844"/></g><g><title>IpcPublisher</title><rect fill="transparent" height="856.5859" width="8" x="1107.6577" y="279.3984"/><line style="stroke:#181818;stroke-width:0.5;stroke-dasharray:5.0,5.0;" x1="1111.0425" x2="1111.0425" y1="279.3984" y2="1135.9844"/></g><g><title>SharedMemory</title><rect fill="transparent" height="856.5859" width="8" x="1293.687" y="279.3984"/><line style="stroke:#181818;stroke-width:0.5;stroke-dasharray:5.0,5.0;" x1="1297.4214" x2="1297.4214" y1="279.3984" y2="1135.9844"/></g><g><title>IpcReceiver</title><rect fill="transparent" height="856.5859" width="8" x="1439.667" y="279.3984"/><line style="stroke:#181818;stroke-width:0.5;stroke-dasharray:5.0,5.0;" x1="1442.7129" x2="1442.7129" y1="279.3984" y2="1135.9844"/></g><g><title>score::time::svt</title><rect fill="transparent" height="856.5859" width="8" x="1585.647" y="279.3984"/><line style="stroke:#181818;stroke-width:0.5;stroke-dasharray:5.0,5.0;" x1="1588.9014" x2="1588.9014" y1="279.3984" y2="1135.9844"/></g><g><title>Application</title><rect fill="transparent" height="856.5859" width="8" x="1799.3818" y="279.3984"/><line style="stroke:#181818;stroke-width:0.5;stroke-dasharray:5.0,5.0;" x1="1803.27" x2="1803.27" y1="279.3984" y2="1135.9844"/></g><rect fill="#F5DEB3" height="30.2969" rx="2.5" ry="2.5" style="stroke:#181818;stroke-width:0.5;" width="98.041" x="20" y="248.1016"/><text fill="#000000" font-family="sans-serif" font-size="14" lengthAdjust="spacing" textLength="84.041" x="27" y="268.0967">PTPMachine</text><rect fill="#AFEEEE" height="30.2969" rx="2.5" ry="2.5" style="stroke:#181818;stroke-width:0.5;" width="121.7617" x="272.4736" y="248.1016"/><text fill="#000000" font-family="sans-serif" font-size="14" lengthAdjust="spacing" textLength="107.7617" x="279.4736" y="268.0967">MessageBroker</text><rect fill="#ADD8E6" height="30.2969" rx="2.5" ry="2.5" style="stroke:#181818;stroke-width:0.5;" width="146.9727" x="524.2021" y="248.1016"/><text fill="#000000" font-family="sans-serif" font-size="14" lengthAdjust="spacing" textLength="132.9727" x="531.2021" y="268.0967">ControlFlowDivider</text><rect fill="#E6E6FA" height="30.2969" rx="2.5" ry="2.5" style="stroke:#181818;stroke-width:0.5;" width="152.3525" x="802.9067" y="248.1016"/><text fill="#000000" font-family="sans-serif" font-size="14" lengthAdjust="spacing" textLength="138.3525" x="809.9067" y="268.0967">VerificationMachine</text><rect fill="#FFB6C1" height="30.2969" rx="2.5" ry="2.5" style="stroke:#181818;stroke-width:0.5;" width="99.2305" x="1062.0425" y="248.1016"/><text fill="#000000" font-family="sans-serif" font-size="14" lengthAdjust="spacing" textLength="85.2305" x="1069.0425" y="268.0967">IpcPublisher</text><rect fill="#F5F5F5" height="30.2969" rx="2.5" ry="2.5" style="stroke:#181818;stroke-width:0.5;" width="120.5313" x="1237.4214" y="248.1016"/><text fill="#000000" font-family="sans-serif" font-size="14" lengthAdjust="spacing" textLength="106.5313" x="1244.4214" y="268.0967">SharedMemory</text><rect fill="#FFB6C1" height="30.2969" rx="2.5" ry="2.5" style="stroke:#181818;stroke-width:0.5;" width="95.9082" x="1395.7129" y="248.1016"/><text fill="#000000" font-family="sans-serif" font-size="14" lengthAdjust="spacing" textLength="81.9082" x="1402.7129" y="268.0967">IpcReceiver</text><rect fill="#90EE90" height="30.2969" rx="2.5" ry="2.5" style="stroke:#181818;stroke-width:0.5;" width="123.4912" x="1527.9014" y="248.1016"/><text fill="#000000" font-family="sans-serif" font-size="14" lengthAdjust="spacing" textLength="109.4912" x="1534.9014" y="268.0967">score::time::svt</text><rect fill="#FFA07A" height="30.2969" rx="2.5" ry="2.5" style="stroke:#181818;stroke-width:0.5;" width="92.2236" x="1757.27" y="248.1016"/><text fill="#000000" font-family="sans-serif" font-size="14" lengthAdjust="spacing" textLength="78.2236" x="1764.27" y="268.0967">Application</text><g><title>PTPMachine</title><rect fill="#FFFFFF" height="167.7305" style="stroke:#181818;stroke-width:1;" width="10" x="64.0205" y="346.7305"/></g><g><title>MessageBroker</title><rect fill="#FFFFFF" height="129.5313" style="stroke:#181818;stroke-width:1;" width="10" x="328.3545" y="384.9297"/></g><g><title>MessageBroker</title><rect fill="#FFFFFF" height="246.0625" style="stroke:#181818;stroke-width:1;" width="10" x="328.3545" y="616.8594"/></g><g><title>ControlFlowDivider</title><rect fill="#FFFFFF" height="71.2656" style="stroke:#181818;stroke-width:1;" width="10" x="592.6885" y="414.0625"/></g><g><title>ControlFlowDivider</title><rect fill="#FFFFFF" height="280.1953" style="stroke:#181818;stroke-width:1;" width="10" x="592.6885" y="582.7266"/></g><g><title>VerificationMachine</title><rect fill="#FFFFFF" height="71.2656" style="stroke:#181818;stroke-width:1;" width="10" x="874.083" y="645.9922"/></g><g><title>IpcPublisher</title><rect fill="#FFFFFF" height="87.3984" style="stroke:#181818;stroke-width:1;" width="10" x="1106.6577" y="746.3906"/></g><g><title>SharedMemory</title><rect fill="#FFFFFF" height="29.1328" style="stroke:#181818;stroke-width:1;" width="10" x="1292.687" y="775.5234"/></g><g><title>SharedMemory</title><rect fill="#FFFFFF" height="29.1328" style="stroke:#181818;stroke-width:1;" width="10" x="1292.687" y="981.4531"/></g><g><title>IpcReceiver</title><rect fill="#FFFFFF" height="87.3984" style="stroke:#181818;stroke-width:1;" width="10" x="1438.667" y="952.3203"/></g><g><title>score::time::svt</title><rect fill="#FFFFFF" height="187.7969" style="stroke:#181818;stroke-width:1;" width="10" x="1584.647" y="923.1875"/></g><g><title>Application</title><rect fill="#FFFFFF" height="187.7969" style="stroke:#181818;stroke-width:1;" width="10" x="1798.3818" y="923.1875"/></g><path d="M10,296.3984 L263.6665,296.3984 L263.6665,303.5313 L253.6665,313.5313 L10,313.5313 L10,296.3984 " fill="#EEEEEE" style="stroke:#000000;stroke-width:1.5;"/><rect fill="transparent" height="226.0625" style="stroke:#000000;stroke-width:1.5;" width="869.083" x="10" y="296.3984"/><text fill="#000000" font-family="sans-serif" font-size="13" font-weight="bold" lengthAdjust="spacing" textLength="208.6665" x="25" y="309.4653">PTP data retrieval (periodic)</text><line style="stroke:#181818;stroke-width:1;" x1="69.0205" x2="116.0205" y1="333.7305" y2="333.7305"/><line style="stroke:#181818;stroke-width:1;" x1="116.0205" x2="116.0205" y1="333.7305" y2="346.7305"/><line style="stroke:#181818;stroke-width:1;" x1="75.0205" x2="116.0205" y1="346.7305" y2="346.7305"/><polygon fill="#181818" points="85.0205,342.7305,75.0205,346.7305,85.0205,350.7305,81.0205,346.7305" style="stroke:#181818;stroke-width:1;"/><text fill="#FF0000" font-family="sans-serif" font-size="13" font-weight="bold" lengthAdjust="spacing" textLength="29.9736" x="81.0205" y="328.6646">[01]</text><text fill="#000000" font-family="sans-serif" font-size="13" lengthAdjust="spacing" textLength="92.1108" x="114.9941" y="328.6646">PeriodicTask()</text><path d="M219.0845,318.5313 L219.0845,358.5313 L369.0845,358.5313 L369.0845,328.5313 L359.0845,318.5313 L219.0845,318.5313 " fill="#FEFFDD" style="stroke:#181818;stroke-width:0.5;"/><path d="M359.0845,318.5313 L359.0845,328.5313 L369.0845,328.5313 L359.0845,318.5313 " fill="#FEFFDD" style="stroke:#181818;stroke-width:0.5;"/><text fill="#000000" font-family="sans-serif" font-size="13" lengthAdjust="spacing" textLength="129.1748" x="225.0845" y="335.5981">Read PTP time from</text><text fill="#000000" font-family="sans-serif" font-size="13" lengthAdjust="spacing" textLength="72.0903" x="225.0845" y="350.731">PTP engine</text><polygon fill="#181818" points="316.3545,380.9297,326.3545,384.9297,316.3545,388.9297,320.3545,384.9297" style="stroke:#181818;stroke-width:1;"/><line style="stroke:#181818;stroke-width:1;" x1="74.0205" x2="322.3545" y1="384.9297" y2="384.9297"/><text fill="#FF0000" font-family="sans-serif" font-size="13" font-weight="bold" lengthAdjust="spacing" textLength="29.9736" x="81.0205" y="379.8638">[02]</text><text fill="#000000" font-family="sans-serif" font-size="13" lengthAdjust="spacing" textLength="201.3604" x="114.9941" y="379.8638">publish_callback_(PtpTimeInfo)</text><polygon fill="#181818" points="580.6885,410.0625,590.6885,414.0625,580.6885,418.0625,584.6885,414.0625" style="stroke:#181818;stroke-width:1;"/><line style="stroke:#181818;stroke-width:1;" x1="338.3545" x2="586.6885" y1="414.0625" y2="414.0625"/><text fill="#FF0000" font-family="sans-serif" font-size="13" font-weight="bold" lengthAdjust="spacing" textLength="29.9736" x="345.3545" y="408.9966">[03]</text><text fill="#000000" font-family="sans-serif" font-size="13" lengthAdjust="spacing" textLength="163.5981" x="379.3281" y="408.9966">OnMessage(PtpTimeInfo)</text><line style="stroke:#181818;stroke-width:1;" x1="602.6885" x2="644.6885" y1="443.1953" y2="443.1953"/><line style="stroke:#181818;stroke-width:1;" x1="644.6885" x2="644.6885" y1="443.1953" y2="456.1953"/><line style="stroke:#181818;stroke-width:1;" x1="603.6885" x2="644.6885" y1="456.1953" y2="456.1953"/><polygon fill="#181818" points="613.6885,452.1953,603.6885,456.1953,613.6885,460.1953,609.6885,456.1953" style="stroke:#181818;stroke-width:1;"/><text fill="#FF0000" font-family="sans-serif" font-size="13" font-weight="bold" lengthAdjust="spacing" textLength="29.9736" x="609.6885" y="438.1294">[04]</text><text fill="#000000" font-family="sans-serif" font-size="13" lengthAdjust="spacing" textLength="213.4209" x="643.6621" y="438.1294">Buffer and notify with new event</text><polygon fill="#181818" points="349.3545,481.3281,339.3545,485.3281,349.3545,489.3281,345.3545,485.3281" style="stroke:#181818;stroke-width:1;"/><line style="stroke:#181818;stroke-width:1;stroke-dasharray:2.0,2.0;" x1="343.3545" x2="596.6885" y1="485.3281" y2="485.3281"/><text fill="#FF0000" font-family="sans-serif" font-size="13" font-weight="bold" lengthAdjust="spacing" textLength="29.9736" x="355.3545" y="480.2622">[05]</text><text fill="#000000" font-family="sans-serif" font-size="13" lengthAdjust="spacing" textLength="4.1323" x="389.3281" y="480.2622">&#160;</text><polygon fill="#181818" points="80.0205,510.4609,70.0205,514.4609,80.0205,518.4609,76.0205,514.4609" style="stroke:#181818;stroke-width:1;"/><line style="stroke:#181818;stroke-width:1;stroke-dasharray:2.0,2.0;" x1="74.0205" x2="332.3545" y1="514.4609" y2="514.4609"/><text fill="#FF0000" font-family="sans-serif" font-size="13" font-weight="bold" lengthAdjust="spacing" textLength="29.9736" x="86.0205" y="509.395">[06]</text><text fill="#000000" font-family="sans-serif" font-size="13" lengthAdjust="spacing" textLength="4.1323" x="119.9941" y="509.395">&#160;</text><path d="M262.4736,536.4609 L536.313,536.4609 L536.313,543.5938 L526.313,553.5938 L262.4736,553.5938 L262.4736,536.4609 " fill="#EEEEEE" style="stroke:#000000;stroke-width:1.5;"/><rect fill="transparent" height="334.4609" style="stroke:#000000;stroke-width:1.5;" width="1105.479" x="262.4736" y="536.4609"/><text fill="#000000" font-family="sans-serif" font-size="13" font-weight="bold" lengthAdjust="spacing" textLength="228.8394" x="277.4736" y="549.5278">Data processing (event-driven)</text><line style="stroke:#181818;stroke-width:1;" x1="597.6885" x2="644.6885" y1="569.7266" y2="569.7266"/><line style="stroke:#181818;stroke-width:1;" x1="644.6885" x2="644.6885" y1="569.7266" y2="582.7266"/><line style="stroke:#181818;stroke-width:1;" x1="603.6885" x2="644.6885" y1="582.7266" y2="582.7266"/><polygon fill="#181818" points="613.6885,578.7266,603.6885,582.7266,613.6885,586.7266,609.6885,582.7266" style="stroke:#181818;stroke-width:1;"/><text fill="#FF0000" font-family="sans-serif" font-size="13" font-weight="bold" lengthAdjust="spacing" textLength="29.9736" x="609.6885" y="564.6606">[07]</text><text fill="#000000" font-family="sans-serif" font-size="13" lengthAdjust="spacing" textLength="65.8569" x="643.6621" y="564.6606">OnEvent()</text><polygon fill="#181818" points="349.3545,612.8594,339.3545,616.8594,349.3545,620.8594,345.3545,616.8594" style="stroke:#181818;stroke-width:1;"/><line style="stroke:#181818;stroke-width:1;" x1="343.3545" x2="591.6885" y1="616.8594" y2="616.8594"/><text fill="#FF0000" font-family="sans-serif" font-size="13" font-weight="bold" lengthAdjust="spacing" textLength="29.9736" x="355.3545" y="611.7935">[08]</text><text fill="#000000" font-family="sans-serif" font-size="13" lengthAdjust="spacing" textLength="201.3604" x="389.3281" y="611.7935">publish_callback_(PtpTimeInfo)</text><polygon fill="#181818" points="862.083,641.9922,872.083,645.9922,862.083,649.9922,866.083,645.9922" style="stroke:#181818;stroke-width:1;"/><line style="stroke:#181818;stroke-width:1;" x1="338.3545" x2="868.083" y1="645.9922" y2="645.9922"/><text fill="#FF0000" font-family="sans-serif" font-size="13" font-weight="bold" lengthAdjust="spacing" textLength="29.9736" x="345.3545" y="640.9263">[09]</text><text fill="#000000" font-family="sans-serif" font-size="13" lengthAdjust="spacing" textLength="163.5981" x="379.3281" y="640.9263">OnMessage(PtpTimeInfo)</text><line style="stroke:#181818;stroke-width:1;" x1="884.083" x2="926.083" y1="675.125" y2="675.125"/><line style="stroke:#181818;stroke-width:1;" x1="926.083" x2="926.083" y1="675.125" y2="688.125"/><line style="stroke:#181818;stroke-width:1;" x1="885.083" x2="926.083" y1="688.125" y2="688.125"/><polygon fill="#181818" points="895.083,684.125,885.083,688.125,895.083,692.125,891.083,688.125" style="stroke:#181818;stroke-width:1;"/><text fill="#FF0000" font-family="sans-serif" font-size="13" font-weight="bold" lengthAdjust="spacing" textLength="29.9736" x="891.083" y="670.0591">[10]</text><text fill="#000000" font-family="sans-serif" font-size="13" lengthAdjust="spacing" textLength="164.6011" x="925.0566" y="670.0591">Validate through pipeline</text><polygon fill="#181818" points="349.3545,713.2578,339.3545,717.2578,349.3545,721.2578,345.3545,717.2578" style="stroke:#181818;stroke-width:1;"/><line style="stroke:#181818;stroke-width:1;" x1="343.3545" x2="878.083" y1="717.2578" y2="717.2578"/><text fill="#FF0000" font-family="sans-serif" font-size="13" font-weight="bold" lengthAdjust="spacing" textLength="29.9736" x="355.3545" y="712.1919">[11]</text><text fill="#000000" font-family="sans-serif" font-size="13" lengthAdjust="spacing" textLength="201.3604" x="389.3281" y="712.1919">publish_callback_(PtpTimeInfo)</text><polygon fill="#181818" points="1094.6577,742.3906,1104.6577,746.3906,1094.6577,750.3906,1098.6577,746.3906" style="stroke:#181818;stroke-width:1;"/><line style="stroke:#181818;stroke-width:1;" x1="338.3545" x2="1100.6577" y1="746.3906" y2="746.3906"/><text fill="#FF0000" font-family="sans-serif" font-size="13" font-weight="bold" lengthAdjust="spacing" textLength="29.9736" x="345.3545" y="741.3247">[12]</text><text fill="#000000" font-family="sans-serif" font-size="13" lengthAdjust="spacing" textLength="163.5981" x="379.3281" y="741.3247">OnMessage(PtpTimeInfo)</text><polygon fill="#181818" points="1280.687,771.5234,1290.687,775.5234,1280.687,779.5234,1284.687,775.5234" style="stroke:#181818;stroke-width:1;"/><line style="stroke:#181818;stroke-width:1;" x1="1116.6577" x2="1286.687" y1="775.5234" y2="775.5234"/><text fill="#FF0000" font-family="sans-serif" font-size="13" font-weight="bold" lengthAdjust="spacing" textLength="29.9736" x="1123.6577" y="770.4575">[13]</text><text fill="#000000" font-family="sans-serif" font-size="13" lengthAdjust="spacing" textLength="123.0557" x="1157.6313" y="770.4575">Write(PtpTimeInfo)</text><polygon fill="#181818" points="1127.6577,800.6563,1117.6577,804.6563,1127.6577,808.6563,1123.6577,804.6563" style="stroke:#181818;stroke-width:1;"/><line style="stroke:#181818;stroke-width:1;stroke-dasharray:2.0,2.0;" x1="1121.6577" x2="1296.687" y1="804.6563" y2="804.6563"/><text fill="#FF0000" font-family="sans-serif" font-size="13" font-weight="bold" lengthAdjust="spacing" textLength="29.9736" x="1133.6577" y="799.5903">[14]</text><text fill="#000000" font-family="sans-serif" font-size="13" lengthAdjust="spacing" textLength="4.1323" x="1167.6313" y="799.5903">&#160;</text><polygon fill="#181818" points="349.3545,829.7891,339.3545,833.7891,349.3545,837.7891,345.3545,833.7891" style="stroke:#181818;stroke-width:1;"/><line style="stroke:#181818;stroke-width:1;stroke-dasharray:2.0,2.0;" x1="343.3545" x2="1110.6577" y1="833.7891" y2="833.7891"/><text fill="#FF0000" font-family="sans-serif" font-size="13" font-weight="bold" lengthAdjust="spacing" textLength="29.9736" x="355.3545" y="828.7231">[15]</text><text fill="#000000" font-family="sans-serif" font-size="13" lengthAdjust="spacing" textLength="4.1323" x="389.3281" y="828.7231">&#160;</text><polygon fill="#181818" points="585.6885,858.9219,595.6885,862.9219,585.6885,866.9219,589.6885,862.9219" style="stroke:#181818;stroke-width:1;"/><line style="stroke:#181818;stroke-width:1;stroke-dasharray:2.0,2.0;" x1="333.3545" x2="591.6885" y1="862.9219" y2="862.9219"/><text fill="#FF0000" font-family="sans-serif" font-size="13" font-weight="bold" lengthAdjust="spacing" textLength="29.9736" x="340.3545" y="857.856">[16]</text><text fill="#000000" font-family="sans-serif" font-size="13" lengthAdjust="spacing" textLength="4.1323" x="374.3281" y="857.856">&#160;</text><path d="M1227.4214,884.9219 L1515.416,884.9219 L1515.416,892.0547 L1505.416,902.0547 L1227.4214,902.0547 L1227.4214,884.9219 " fill="#EEEEEE" style="stroke:#000000;stroke-width:1.5;"/><rect fill="transparent" height="234.0625" style="stroke:#000000;stroke-width:1.5;" width="632.0723" x="1227.4214" y="884.9219"/><text fill="#000000" font-family="sans-serif" font-size="13" font-weight="bold" lengthAdjust="spacing" textLength="242.9946" x="1242.4214" y="897.9888">Application request (on-demand)</text><polygon fill="#181818" points="1605.647,919.1875,1595.647,923.1875,1605.647,927.1875,1601.647,923.1875" style="stroke:#181818;stroke-width:1;"/><line style="stroke:#181818;stroke-width:1;" x1="1599.647" x2="1797.3818" y1="923.1875" y2="923.1875"/><text fill="#FF0000" font-family="sans-serif" font-size="13" font-weight="bold" lengthAdjust="spacing" textLength="29.9736" x="1611.647" y="918.1216">[17]</text><text fill="#000000" font-family="sans-serif" font-size="13" lengthAdjust="spacing" textLength="38.4541" x="1645.6206" y="918.1216">Now()</text><polygon fill="#181818" points="1459.667,948.3203,1449.667,952.3203,1459.667,956.3203,1455.667,952.3203" style="stroke:#181818;stroke-width:1;"/><line style="stroke:#181818;stroke-width:1;" x1="1453.667" x2="1583.647" y1="952.3203" y2="952.3203"/><text fill="#FF0000" font-family="sans-serif" font-size="13" font-weight="bold" lengthAdjust="spacing" textLength="29.9736" x="1465.667" y="947.2544">[18]</text><text fill="#000000" font-family="sans-serif" font-size="13" lengthAdjust="spacing" textLength="61.623" x="1499.6406" y="947.2544">Receive()</text><polygon fill="#181818" points="1313.687,977.4531,1303.687,981.4531,1313.687,985.4531,1309.687,981.4531" style="stroke:#181818;stroke-width:1;"/><line style="stroke:#181818;stroke-width:1;" x1="1307.687" x2="1437.667" y1="981.4531" y2="981.4531"/><text fill="#FF0000" font-family="sans-serif" font-size="13" font-weight="bold" lengthAdjust="spacing" textLength="29.9736" x="1319.687" y="976.3872">[19]</text><text fill="#000000" font-family="sans-serif" font-size="13" lengthAdjust="spacing" textLength="61.623" x="1353.6606" y="976.3872">Receive()</text><polygon fill="#181818" points="1426.667,1006.5859,1436.667,1010.5859,1426.667,1014.5859,1430.667,1010.5859" style="stroke:#181818;stroke-width:1;"/><line style="stroke:#181818;stroke-width:1;stroke-dasharray:2.0,2.0;" x1="1297.687" x2="1432.667" y1="1010.5859" y2="1010.5859"/><text fill="#FF0000" font-family="sans-serif" font-size="13" font-weight="bold" lengthAdjust="spacing" textLength="29.9736" x="1304.687" y="1005.52">[20]</text><text fill="#000000" font-family="sans-serif" font-size="13" lengthAdjust="spacing" textLength="78.0063" x="1338.6606" y="1005.52">PtpTimeInfo</text><polygon fill="#181818" points="1572.647,1035.7188,1582.647,1039.7188,1572.647,1043.7188,1576.647,1039.7188" style="stroke:#181818;stroke-width:1;"/><line style="stroke:#181818;stroke-width:1;stroke-dasharray:2.0,2.0;" x1="1443.667" x2="1578.647" y1="1039.7188" y2="1039.7188"/><text fill="#FF0000" font-family="sans-serif" font-size="13" font-weight="bold" lengthAdjust="spacing" textLength="29.9736" x="1450.667" y="1034.6528">[21]</text><text fill="#000000" font-family="sans-serif" font-size="13" lengthAdjust="spacing" textLength="78.0063" x="1484.6406" y="1034.6528">PtpTimeInfo</text><line style="stroke:#181818;stroke-width:1;" x1="1594.647" x2="1636.647" y1="1068.8516" y2="1068.8516"/><line style="stroke:#181818;stroke-width:1;" x1="1636.647" x2="1636.647" y1="1068.8516" y2="1081.8516"/><line style="stroke:#181818;stroke-width:1;" x1="1595.647" x2="1636.647" y1="1081.8516" y2="1081.8516"/><polygon fill="#181818" points="1605.647,1077.8516,1595.647,1081.8516,1605.647,1085.8516,1601.647,1081.8516" style="stroke:#181818;stroke-width:1;"/><text fill="#FF0000" font-family="sans-serif" font-size="13" font-weight="bold" lengthAdjust="spacing" textLength="29.9736" x="1601.647" y="1063.7856">[22]</text><text fill="#000000" font-family="sans-serif" font-size="13" lengthAdjust="spacing" textLength="145.7612" x="1635.6206" y="1063.7856">Calculate current time</text><polygon fill="#181818" points="1791.3818,1106.9844,1801.3818,1110.9844,1791.3818,1114.9844,1795.3818,1110.9844" style="stroke:#181818;stroke-width:1;"/><line style="stroke:#181818;stroke-width:1;stroke-dasharray:2.0,2.0;" x1="1589.647" x2="1797.3818" y1="1110.9844" y2="1110.9844"/><text fill="#FF0000" font-family="sans-serif" font-size="13" font-weight="bold" lengthAdjust="spacing" textLength="29.9736" x="1596.647" y="1105.9185">[23]</text><text fill="#000000" font-family="sans-serif" font-size="13" lengthAdjust="spacing" textLength="137.3188" x="1630.6206" y="1105.9185">Current Vehicle Time</text><rect fill="#DDDDDD" height="160.6719" id="_legend" rx="7.5" ry="7.5" style="stroke:#000000;stroke-width:1;" width="311.1709" x="12" y="54.2969"/><text fill="#000000" font-family="sans-serif" font-size="14" font-weight="bold" lengthAdjust="spacing" textLength="41.2139" x="21.874" y="74.292">Color</text><text fill="#000000" font-family="sans-serif" font-size="14" font-weight="bold" lengthAdjust="spacing" textLength="90.5488" x="106.9541" y="74.292">Description</text><rect fill="#AFEEEE" height="16.2969" style="stroke:transparent;stroke-width:1;" width="85.0801" x="17" y="77.5938"/><text fill="#000000" font-family="sans-serif" font-size="14" lengthAdjust="spacing" textLength="4.4502" x="17" y="90.5889">&#160;</text><text fill="#000000" font-family="sans-serif" font-size="14" lengthAdjust="spacing" textLength="107.7617" x="106.5303" y="90.5889">MessageBroker</text><rect fill="#F5DEB3" height="16.2969" style="stroke:transparent;stroke-width:1;" width="85.0801" x="17" y="93.8906"/><text fill="#000000" font-family="sans-serif" font-size="14" lengthAdjust="spacing" textLength="31.1514" x="17" y="106.8857">&#160;&#160;&#160;&#160;&#160;&#160;&#160;</text><text fill="#000000" font-family="sans-serif" font-size="14" lengthAdjust="spacing" textLength="81.4229" x="106.5303" y="106.8857">PtpMachine</text><rect fill="#ADD8E6" height="16.2969" style="stroke:transparent;stroke-width:1;" width="85.0801" x="17" y="110.1875"/><text fill="#000000" font-family="sans-serif" font-size="14" lengthAdjust="spacing" textLength="13.3506" x="17" y="123.1826">&#160;&#160;&#160;</text><text fill="#000000" font-family="sans-serif" font-size="14" lengthAdjust="spacing" textLength="132.9727" x="106.5303" y="123.1826">ControlFlowDivider</text><rect fill="#E6E6FA" height="16.2969" style="stroke:transparent;stroke-width:1;" width="85.0801" x="17" y="126.4844"/><text fill="#000000" font-family="sans-serif" font-size="14" lengthAdjust="spacing" textLength="17.8008" x="17" y="139.4795">&#160;&#160;&#160;&#160;</text><text fill="#000000" font-family="sans-serif" font-size="14" lengthAdjust="spacing" textLength="138.3525" x="106.5303" y="139.4795">VerificationMachine</text><rect fill="#FFB6C1" height="16.2969" style="stroke:transparent;stroke-width:1;" width="85.0801" x="17" y="142.7813"/><text fill="#000000" font-family="sans-serif" font-size="14" lengthAdjust="spacing" textLength="13.3506" x="17" y="155.7764">&#160;&#160;&#160;</text><text fill="#000000" font-family="sans-serif" font-size="14" lengthAdjust="spacing" textLength="113.292" x="106.5303" y="155.7764">IPC components</text><rect fill="#F5F5F5" height="16.2969" style="stroke:transparent;stroke-width:1;" width="85.0801" x="17" y="159.0781"/><text fill="#000000" font-family="sans-serif" font-size="14" lengthAdjust="spacing" textLength="8.9004" x="17" y="172.0732">&#160;&#160;</text><text fill="#000000" font-family="sans-serif" font-size="14" lengthAdjust="spacing" textLength="110.9814" x="106.5303" y="172.0732">Shared Memory</text><rect fill="#90EE90" height="16.2969" style="stroke:transparent;stroke-width:1;" width="85.0801" x="17" y="175.375"/><text fill="#000000" font-family="sans-serif" font-size="14" lengthAdjust="spacing" textLength="8.9004" x="17" y="188.3701">&#160;&#160;</text><text fill="#000000" font-family="sans-serif" font-size="14" lengthAdjust="spacing" textLength="171.5889" x="106.5303" y="188.3701">Middleware components</text><rect fill="#FFA07A" height="16.2969" style="stroke:transparent;stroke-width:1;" width="85.0801" x="17" y="191.6719"/><text fill="#000000" font-family="sans-serif" font-size="14" lengthAdjust="spacing" textLength="4.4502" x="17" y="204.667">&#160;</text><text fill="#000000" font-family="sans-serif" font-size="14" lengthAdjust="spacing" textLength="123.2041" x="106.5303" y="204.667">Client Application</text><line style="stroke:#000000;stroke-width:1;" x1="17" x2="318.1709" y1="61.2969" y2="61.2969"/><line style="stroke:#000000;stroke-width:1;" x1="17" x2="318.1709" y1="77.5938" y2="77.5938"/><line style="stroke:#000000;stroke-width:1;" x1="17" x2="318.1709" y1="93.8906" y2="93.8906"/><line style="stroke:#000000;stroke-width:1;" x1="17" x2="318.1709" y1="110.1875" y2="110.1875"/><line style="stroke:#000000;stroke-width:1;" x1="17" x2="318.1709" y1="126.4844" y2="126.4844"/><line style="stroke:#000000;stroke-width:1;" x1="17" x2="318.1709" y1="142.7813" y2="142.7813"/><line style="stroke:#000000;stroke-width:1;" x1="17" x2="318.1709" y1="159.0781" y2="159.0781"/><line style="stroke:#000000;stroke-width:1;" x1="17" x2="318.1709" y1="175.375" y2="175.375"/><line style="stroke:#000000;stroke-width:1;" x1="17" x2="318.1709" y1="191.6719" y2="191.6719"/><line style="stroke:#000000;stroke-width:1;" x1="17" x2="318.1709" y1="207.9688" y2="207.9688"/><line style="stroke:#000000;stroke-width:1;" x1="17" x2="17" y1="61.2969" y2="207.9688"/><line style="stroke:#000000;stroke-width:1;" x1="102.0801" x2="102.0801" y1="61.2969" y2="207.9688"/><line style="stroke:#000000;stroke-width:1;" x1="318.1709" x2="318.1709" y1="61.2969" y2="207.9688"/><!--SRC=[hLRVJzim47xFNt5YB-K1YQSzHApIW6r26bi523HDK-KwbyR2iJt7QOV47x-puxPEqWAJbgVsVD_z-hwSuuIJ27UYnak6jLOvN3B7WAa2BhHoLaluBFKwoofH89HQkuN-asMiTLgrzG8j79sLv0XSIsq_M2ocPulfpzFJNqTP9d695CXf0n9Bbm4zpnyeCBb2VEZ_9JRS2kE4LZ1wdZlKsRiPatZNsj-j5WrEuHckiMdO4i-jVaHx2FLG8NFJZHLcpbmpNWc502_a-YgMbJkNBKu3Aax23-9Ih6WGTZ-AhQXTjDCkrprQKGhEV5_ZfFrSCw4UkrnNimkQPMsqGkKQEDoNS7XRK-jJZxgj68sUHb9h-_HANryieWgeQr4K4jS4tPUoZxfbakJXvtuX1Vd1HsDaxAwVYsRG4Pzbf9L4Mz15-e7IAyex6sQTuC8mYdSqkvl5CHq1Qy0uCw_Zs3eQnv2U109gqQcXhvOnSCneGFDoNaI2TneOe_Sm6-0hjBkIDseOmwyCdxKBAPegfXM6pyt60Zj5-552UDzw-8xiZkk0Ru9XNdVi9zhe64YPUeVlonBVxotg1ZcALLAJZOQqf16muTfYdZkYES-RbGleUZsddv08RWnCoWeOPWoaMjjrlxIwDK3wWC8l9ulE2bmn2HD3JEX2yECkV2APasdlRmwpw7h7ciT9vy-u4olcCFKC1qgJqVfIieskRv0LeGJVA9HMrziZRqMrt81zsJx0lfAYF7E8TCyvatB1-EDyGgl9lofNgjI3wZfGi4KyHKgaciDt5T-45wBi0C6Uu8VHpbkIY0rt0FKXoYTO2rU1mZKWQTgDyDl6mac1Xt9kgkzpCmJj3vK2mcxfH15kAsCrf_w5Mi8aL7XIMDAjEdwjq-_gatUV_Cke_X-5wRfu6uS98Xoa4KO1xvaKXKUvYaQrhC08W_80z5-wIbX92nfqrrzgR-klXmb7_IWKjh_hSdYmjEnU2Ddp3qVz22V3KeSjZWCCQZge_d7Ov0KOQEnL_IV-YVpJrMxnTukDWubM9mNMzFh6KT1UfOHn9UVmJQ-7WYUNlg5p3hQ8YsFQNWavnEjYieV3ZTTsN5lO7WOFn7ahSKb5YGhUnkAkh7H0BuGPDRURpXP-mIHlPU2ijTP_Alahe-TDxfuLyeqUzrW97Z_4XpaJBXAhfymBuIy0]--></g></svg>