<svg xmlns="http://www.w3.org/2000/svg" xmlns:xlink="http://www.w3.org/1999/xlink" contentStyleType="text/css" data-diagram-type="SEQUENCE" height="650px" preserveAspectRatio="none" style="width:1268px;height:650px;background:#FFFFFF;" version="1.1" viewBox="0 0 1268 650" width="1268px" zoomAndPan="magnify"><title>IPC Machine: Initialization</title><defs/><g><text fill="#000000" font-family="sans-serif" font-size="14" font-weight="bold" lengthAdjust="spacing" textLength="206.1787" x="527.9658" y="27.9951">IPC Machine: Initialization</text><rect fill="#FFFFE0" height="457.3203" style="stroke:#181818;stroke-width:0.5;" width="723.5044" x="1" y="180.0781"/><text fill="#000000" font-family="sans-serif" font-size="13" font-weight="bold" lengthAdjust="spacing" textLength="149.3667" x="285.8059" y="192.145">VehicleTimeDaemon</text><rect fill="#E6FFE6" height="457.3203" style="stroke:#181818;stroke-width:0.5;" width="408.6592" x="853.4512" y="180.0781"/><text fill="#000000" font-family="sans-serif" font-size="13" font-weight="bold" lengthAdjust="spacing" textLength="82.9194" x="1014.0581" y="192.145">Application</text><g><title>MessageBroker</title><rect fill="#FFFFFF" height="29.1328" style="stroke:#181818;stroke-width:1;" width="10" x="479.9937" y="390.3359"/></g><g><title>IPCMachine:publisher</title><rect fill="#FFFFFF" height="99.5625" style="stroke:#181818;stroke-width:1;" width="10" x="633.1895" y="261.6406"/></g><g><title>shmem</title><rect fill="#FFFFFF" height="29.1328" style="stroke:#181818;stroke-width:1;" width="10" x="770.7427" y="531"/></g><g><title>IPCMachine:receiver</title><rect fill="#FFFFFF" height="118.5313" style="stroke:#181818;stroke-width:1;" width="10" x="930.897" y="477.7344"/></g><g><title>mw::time::svt</title><rect fill="#FFFFFF" height="176.7969" style="stroke:#181818;stroke-width:1;" width="10" x="1074.6694" y="448.6016"/></g><rect fill="transparent" height="75.3984" style="stroke:#000000;stroke-width:1.5;" width="291.6279" x="732.7148" y="492.7344"/><g><title>Application</title><rect fill="transparent" height="412.8906" width="8" x="47.1118" y="230.5078"/><line style="stroke:#181818;stroke-width:0.5;stroke-dasharray:5.0,5.0;" x1="51" x2="51" y1="230.5078" y2="643.3984"/></g><g><title>MessageBroker</title><rect fill="transparent" height="412.8906" width="8" x="480.9937" y="230.5078"/><line style="stroke:#181818;stroke-width:0.5;stroke-dasharray:5.0,5.0;" x1="484.1128" x2="484.1128" y1="230.5078" y2="643.3984"/></g><g><title>IPCMachine:publisher</title><rect fill="transparent" height="412.8906" width="8" x="634.1895" y="230.5078"/><line style="stroke:#181818;stroke-width:0.5;stroke-dasharray:5.0,5.0;" x1="637.8745" x2="637.8745" y1="230.5078" y2="643.3984"/></g><g><title>shmem</title><rect fill="transparent" height="343.1094" width="8" x="771.7427" y="300.2891"/><line style="stroke:#181818;stroke-width:0.5;stroke-dasharray:5.0,5.0;" x1="775.7148" x2="775.7148" y1="300.2891" y2="643.3984"/></g><g><title>IPCMachine:receiver</title><rect fill="transparent" height="412.8906" width="8" x="931.897" y="230.5078"/><line style="stroke:#181818;stroke-width:0.5;stroke-dasharray:5.0,5.0;" x1="935.4512" x2="935.4512" y1="230.5078" y2="643.3984"/></g><g><title>mw::time::svt</title><rect fill="transparent" height="412.8906" width="8" x="1075.6694" y="230.5078"/><line style="stroke:#181818;stroke-width:0.5;stroke-dasharray:5.0,5.0;" x1="1079.3428" x2="1079.3428" y1="230.5078" y2="643.3984"/></g><g><title>Business logic</title><rect fill="transparent" height="412.8906" width="8" x="1197.5532" y="230.5078"/><line style="stroke:#181818;stroke-width:0.5;stroke-dasharray:5.0,5.0;" x1="1200.9961" x2="1200.9961" y1="230.5078" y2="643.3984"/></g><rect fill="#E0FFFF" height="30.2969" rx="2.5" ry="2.5" style="stroke:#181818;stroke-width:0.5;" width="92.2236" x="5" y="199.2109"/><text fill="#000000" font-family="sans-serif" font-size="14" lengthAdjust="spacing" textLength="78.2236" x="12" y="219.2061">Application</text><rect fill="#E0FFFF" height="30.2969" rx="2.5" ry="2.5" style="stroke:#181818;stroke-width:0.5;" width="121.7617" x="424.1128" y="199.2109"/><text fill="#000000" font-family="sans-serif" font-size="14" lengthAdjust="spacing" textLength="107.7617" x="431.1128" y="219.2061">MessageBroker</text><rect fill="#FFB6C1" height="30.2969" rx="2.5" ry="2.5" style="stroke:#181818;stroke-width:0.5;" width="164.6299" x="555.8745" y="199.2109"/><text fill="#000000" font-family="sans-serif" font-size="14" lengthAdjust="spacing" textLength="150.6299" x="562.8745" y="219.2061">IPCMachine:publisher</text><rect fill="#FFB6C1" height="30.2969" rx="2.5" ry="2.5" style="stroke:#181818;stroke-width:0.5;" width="156.8916" x="857.4512" y="199.2109"/><text fill="#000000" font-family="sans-serif" font-size="14" lengthAdjust="spacing" textLength="142.8916" x="864.4512" y="219.2061">IPCMachine:receiver</text><rect fill="#90EE90" height="30.2969" rx="2.5" ry="2.5" style="stroke:#181818;stroke-width:0.5;" width="110.6533" x="1024.3428" y="199.2109"/><text fill="#000000" font-family="sans-serif" font-size="14" lengthAdjust="spacing" textLength="96.6533" x="1031.3428" y="219.2061">mw::time::svt</text><rect fill="#FFA07A" height="30.2969" rx="2.5" ry="2.5" style="stroke:#181818;stroke-width:0.5;" width="113.1143" x="1144.9961" y="199.2109"/><text fill="#000000" font-family="sans-serif" font-size="14" lengthAdjust="spacing" textLength="99.1143" x="1151.9961" y="219.2061">Business logic</text><g><title>MessageBroker</title><rect fill="#FFFFFF" height="29.1328" style="stroke:#181818;stroke-width:1;" width="10" x="479.9937" y="390.3359"/></g><g><title>IPCMachine:publisher</title><rect fill="#FFFFFF" height="99.5625" style="stroke:#181818;stroke-width:1;" width="10" x="633.1895" y="261.6406"/></g><g><title>shmem</title><rect fill="#FFFFFF" height="29.1328" style="stroke:#181818;stroke-width:1;" width="10" x="770.7427" y="531"/></g><g><title>IPCMachine:receiver</title><rect fill="#FFFFFF" height="118.5313" style="stroke:#181818;stroke-width:1;" width="10" x="930.897" y="477.7344"/></g><g><title>mw::time::svt</title><rect fill="#FFFFFF" height="176.7969" style="stroke:#181818;stroke-width:1;" width="10" x="1074.6694" y="448.6016"/></g><polygon fill="#181818" points="621.1895,257.6406,631.1895,261.6406,621.1895,265.6406,625.1895,261.6406" style="stroke:#181818;stroke-width:1;"/><line style="stroke:#181818;stroke-width:1;" x1="51.1118" x2="627.1895" y1="261.6406" y2="261.6406"/><text fill="#FF0000" font-family="sans-serif" font-size="13" font-weight="bold" lengthAdjust="spacing" textLength="29.9736" x="58.1118" y="256.5747">[01]</text><text fill="#000000" font-family="sans-serif" font-size="13" lengthAdjust="spacing" textLength="51.6953" x="92.0854" y="256.5747">create()</text><polygon fill="#181818" points="730.7148,286.7734,740.7148,290.7734,730.7148,294.7734,734.7148,290.7734" style="stroke:#181818;stroke-width:1;"/><line style="stroke:#181818;stroke-width:1;" x1="643.1895" x2="736.7148" y1="290.7734" y2="290.7734"/><text fill="#FF0000" font-family="sans-serif" font-size="13" font-weight="bold" lengthAdjust="spacing" textLength="29.9736" x="650.1895" y="285.7075">[02]</text><text fill="#000000" font-family="sans-serif" font-size="13" lengthAdjust="spacing" textLength="41.5518" x="684.1631" y="285.7075">create</text><rect fill="#F5F5F5" height="30.2969" rx="2.5" ry="2.5" style="stroke:#181818;stroke-width:0.5;" width="66.0557" x="742.7148" y="269.6406"/><text fill="#000000" font-family="sans-serif" font-size="14" lengthAdjust="spacing" textLength="52.0557" x="749.7148" y="289.6357">shmem</text><polygon fill="#181818" points="654.1895,328.0703,644.1895,332.0703,654.1895,336.0703,650.1895,332.0703" style="stroke:#181818;stroke-width:1;"/><line style="stroke:#181818;stroke-width:1;stroke-dasharray:2.0,2.0;" x1="648.1895" x2="774.7427" y1="332.0703" y2="332.0703"/><text fill="#FF0000" font-family="sans-serif" font-size="13" font-weight="bold" lengthAdjust="spacing" textLength="29.9736" x="660.1895" y="327.0044">[03]</text><text fill="#000000" font-family="sans-serif" font-size="13" lengthAdjust="spacing" textLength="50.8511" x="694.1631" y="327.0044">success</text><polygon fill="#181818" points="62.1118,357.2031,52.1118,361.2031,62.1118,365.2031,58.1118,361.2031" style="stroke:#181818;stroke-width:1;"/><line style="stroke:#181818;stroke-width:1;stroke-dasharray:2.0,2.0;" x1="56.1118" x2="637.1895" y1="361.2031" y2="361.2031"/><text fill="#FF0000" font-family="sans-serif" font-size="13" font-weight="bold" lengthAdjust="spacing" textLength="29.9736" x="68.1118" y="356.1372">[04]</text><text fill="#000000" font-family="sans-serif" font-size="13" lengthAdjust="spacing" textLength="130.0254" x="102.0854" y="356.1372">ipc_publisher object</text><polygon fill="#181818" points="467.9937,386.3359,477.9937,390.3359,467.9937,394.3359,471.9937,390.3359" style="stroke:#181818;stroke-width:1;"/><line style="stroke:#181818;stroke-width:1;" x1="51.1118" x2="473.9937" y1="390.3359" y2="390.3359"/><text fill="#FF0000" font-family="sans-serif" font-size="13" font-weight="bold" lengthAdjust="spacing" textLength="29.9736" x="58.1118" y="385.27">[05]</text><text fill="#000000" font-family="sans-serif" font-size="13" lengthAdjust="spacing" textLength="375.9082" x="92.0854" y="385.27">subscribe("verified_ptp_data", ipc_publisher::onNewData)</text><polygon fill="#181818" points="62.1118,415.4688,52.1118,419.4688,62.1118,423.4688,58.1118,419.4688" style="stroke:#181818;stroke-width:1;"/><line style="stroke:#181818;stroke-width:1;stroke-dasharray:2.0,2.0;" x1="56.1118" x2="483.9937" y1="419.4688" y2="419.4688"/><text fill="#FF0000" font-family="sans-serif" font-size="13" font-weight="bold" lengthAdjust="spacing" textLength="29.9736" x="68.1118" y="414.4028">[06]</text><text fill="#000000" font-family="sans-serif" font-size="13" lengthAdjust="spacing" textLength="4.1323" x="102.0854" y="414.4028">&#160;</text><polygon fill="#181818" points="1095.6694,444.6016,1085.6694,448.6016,1095.6694,452.6016,1091.6694,448.6016" style="stroke:#181818;stroke-width:1;"/><line style="stroke:#181818;stroke-width:1;" x1="1089.6694" x2="1200.5532" y1="448.6016" y2="448.6016"/><text fill="#FF0000" font-family="sans-serif" font-size="13" font-weight="bold" lengthAdjust="spacing" textLength="29.9736" x="1101.6694" y="443.5356">[07]</text><text fill="#000000" font-family="sans-serif" font-size="13" lengthAdjust="spacing" textLength="51.6953" x="1135.6431" y="443.5356">create()</text><polygon fill="#181818" points="951.897,473.7344,941.897,477.7344,951.897,481.7344,947.897,477.7344" style="stroke:#181818;stroke-width:1;"/><line style="stroke:#181818;stroke-width:1;" x1="945.897" x2="1073.6694" y1="477.7344" y2="477.7344"/><text fill="#FF0000" font-family="sans-serif" font-size="13" font-weight="bold" lengthAdjust="spacing" textLength="29.9736" x="957.897" y="472.6685">[08]</text><text fill="#000000" font-family="sans-serif" font-size="13" lengthAdjust="spacing" textLength="51.6953" x="991.8706" y="472.6685">create()</text><path d="M732.7148,492.7344 L809.3389,492.7344 L809.3389,499.8672 L799.3389,509.8672 L732.7148,509.8672 L732.7148,492.7344 " fill="#EEEEEE" style="stroke:#000000;stroke-width:1.5;"/><rect fill="transparent" height="75.3984" style="stroke:#000000;stroke-width:1.5;" width="291.6279" x="732.7148" y="492.7344"/><text fill="#000000" font-family="sans-serif" font-size="13" font-weight="bold" lengthAdjust="spacing" textLength="31.624" x="747.7148" y="505.8013">loop</text><text fill="#000000" font-family="sans-serif" font-size="11" font-weight="bold" lengthAdjust="spacing" textLength="184.3789" x="824.3389" y="504.9448">[while try_open returns false]</text><polygon fill="#181818" points="791.7427,527,781.7427,531,791.7427,535,787.7427,531" style="stroke:#181818;stroke-width:1;"/><line style="stroke:#181818;stroke-width:1;" x1="785.7427" x2="929.897" y1="531" y2="531"/><text fill="#FF0000" font-family="sans-serif" font-size="13" font-weight="bold" lengthAdjust="spacing" textLength="29.9736" x="797.7427" y="525.9341">[09]</text><text fill="#000000" font-family="sans-serif" font-size="13" lengthAdjust="spacing" textLength="67.2217" x="831.7163" y="525.9341">try_open()</text><polygon fill="#181818" points="918.897,556.1328,928.897,560.1328,918.897,564.1328,922.897,560.1328" style="stroke:#181818;stroke-width:1;"/><line style="stroke:#181818;stroke-width:1;stroke-dasharray:2.0,2.0;" x1="775.7427" x2="924.897" y1="560.1328" y2="560.1328"/><text fill="#FF0000" font-family="sans-serif" font-size="13" font-weight="bold" lengthAdjust="spacing" textLength="29.9736" x="782.7427" y="555.0669">[10]</text><text fill="#000000" font-family="sans-serif" font-size="13" lengthAdjust="spacing" textLength="92.1807" x="816.7163" y="555.0669">success or fail</text><polygon fill="#181818" points="1062.6694,592.2656,1072.6694,596.2656,1062.6694,600.2656,1066.6694,596.2656" style="stroke:#181818;stroke-width:1;"/><line style="stroke:#181818;stroke-width:1;stroke-dasharray:2.0,2.0;" x1="935.897" x2="1068.6694" y1="596.2656" y2="596.2656"/><text fill="#FF0000" font-family="sans-serif" font-size="13" font-weight="bold" lengthAdjust="spacing" textLength="29.9736" x="942.897" y="591.1997">[11]</text><text fill="#000000" font-family="sans-serif" font-size="13" lengthAdjust="spacing" textLength="4.1323" x="976.8706" y="591.1997">&#160;</text><polygon fill="#181818" points="1189.5532,621.3984,1199.5532,625.3984,1189.5532,629.3984,1193.5532,625.3984" style="stroke:#181818;stroke-width:1;"/><line style="stroke:#181818;stroke-width:1;stroke-dasharray:2.0,2.0;" x1="1079.6694" x2="1195.5532" y1="625.3984" y2="625.3984"/><text fill="#FF0000" font-family="sans-serif" font-size="13" font-weight="bold" lengthAdjust="spacing" textLength="29.9736" x="1086.6694" y="620.3325">[12]</text><text fill="#000000" font-family="sans-serif" font-size="13" lengthAdjust="spacing" textLength="4.1323" x="1120.6431" y="620.3325">&#160;</text><rect fill="#DDDDDD" height="111.7813" id="_legend" rx="7.5" ry="7.5" style="stroke:#000000;stroke-width:1;" width="317.5625" x="12" y="54.2969"/><text fill="#000000" font-family="sans-serif" font-size="14" font-weight="bold" lengthAdjust="spacing" textLength="41.2139" x="21.874" y="74.292">Color</text><text fill="#000000" font-family="sans-serif" font-size="14" font-weight="bold" lengthAdjust="spacing" textLength="90.5488" x="106.9541" y="74.292">Description</text><rect fill="#E0FFFF" height="16.2969" style="stroke:transparent;stroke-width:1;" width="85.0801" x="17" y="77.5938"/><text fill="#000000" font-family="sans-serif" font-size="14" lengthAdjust="spacing" textLength="13.3506" x="17" y="90.5889">&#160;&#160;&#160;</text><text fill="#000000" font-family="sans-serif" font-size="14" lengthAdjust="spacing" textLength="164.6299" x="106.5303" y="90.5889">TimeDaemon members</text><rect fill="#FFB6C1" height="16.2969" style="stroke:transparent;stroke-width:1;" width="85.0801" x="17" y="93.8906"/><text fill="#000000" font-family="sans-serif" font-size="14" lengthAdjust="spacing" textLength="13.3506" x="17" y="106.8857">&#160;&#160;&#160;</text><text fill="#000000" font-family="sans-serif" font-size="14" lengthAdjust="spacing" textLength="113.292" x="106.5303" y="106.8857">IPC components</text><rect fill="#F5F5F5" height="16.2969" style="stroke:transparent;stroke-width:1;" width="85.0801" x="17" y="110.1875"/><text fill="#000000" font-family="sans-serif" font-size="14" lengthAdjust="spacing" textLength="8.9004" x="17" y="123.1826">&#160;&#160;</text><text fill="#000000" font-family="sans-serif" font-size="14" lengthAdjust="spacing" textLength="110.9814" x="106.5303" y="123.1826">Shared Memory</text><rect fill="#FFA07A" height="16.2969" style="stroke:transparent;stroke-width:1;" width="85.0801" x="17" y="126.4844"/><text fill="#000000" font-family="sans-serif" font-size="14" lengthAdjust="spacing" textLength="4.4502" x="17" y="139.4795">&#160;</text><text fill="#000000" font-family="sans-serif" font-size="14" lengthAdjust="spacing" textLength="123.2041" x="106.5303" y="139.4795">Client Application</text><rect fill="#90EE90" height="16.2969" style="stroke:transparent;stroke-width:1;" width="85.0801" x="17" y="142.7813"/><text fill="#000000" font-family="sans-serif" font-size="14" lengthAdjust="spacing" textLength="8.9004" x="17" y="155.7764">&#160;&#160;</text><text fill="#000000" font-family="sans-serif" font-size="14" lengthAdjust="spacing" textLength="171.5889" x="106.5303" y="155.7764">Middleware components</text><line style="stroke:#000000;stroke-width:1;" x1="17" x2="324.5625" y1="61.2969" y2="61.2969"/><line style="stroke:#000000;stroke-width:1;" x1="17" x2="324.5625" y1="77.5938" y2="77.5938"/><line style="stroke:#000000;stroke-width:1;" x1="17" x2="324.5625" y1="93.8906" y2="93.8906"/><line style="stroke:#000000;stroke-width:1;" x1="17" x2="324.5625" y1="110.1875" y2="110.1875"/><line style="stroke:#000000;stroke-width:1;" x1="17" x2="324.5625" y1="126.4844" y2="126.4844"/><line style="stroke:#000000;stroke-width:1;" x1="17" x2="324.5625" y1="142.7813" y2="142.7813"/><line style="stroke:#000000;stroke-width:1;" x1="17" x2="324.5625" y1="159.0781" y2="159.0781"/><line style="stroke:#000000;stroke-width:1;" x1="17" x2="17" y1="61.2969" y2="159.0781"/><line style="stroke:#000000;stroke-width:1;" x1="102.0801" x2="102.0801" y1="61.2969" y2="159.0781"/><line style="stroke:#000000;stroke-width:1;" x1="324.5625" x2="324.5625" y1="61.2969" y2="159.0781"/><!--SRC=[XLJHQjim57tNLrpIbxQiqAS-c3QmfZ0AooXqR8mnWgnSntUL9I4fpJBoyRkIdTfEsivFjdJFFUUU8ojIr0Zt3pEOIrMJmGBk3KMIclxAIDO8KTCIeR8sblQF478ThLat9NgON5VMH51MMt_ZSJczBgS_Boz_JNAHL96UPKH8FJIkq2mXMWSQgoY0dzqDp18KkeU_xp0eJoxnmj6pQr7N9vzfLSVPLfff-eQlrE2Tn8On3IPXuMtK0vcd5fL6LhPnrg29uKskxpL5V6pi4quJwh6MF2ZCcSrl_wFmKMhMD6NKJ1EJm4VdD2bvEDqOzSaZcimrf-LIuuO9NnEw4sneQwiGd0nymvgKne4RRSCVgBNTP0udVIH5JhAOoK3D16G0wHpqrXxNpp44kS9RprxuZ2ZpwxiWTdb_hjowr1Jg3ajEBLvMe0ydJGNve8twX9gZpS2G4rWqRGA3V5eNXXwVu5LLuTMxgZmgfEU1gFt2KDDHWsPJ596DBehm73EqsS0WlsF4xJemNGYWxOfKXgXyAXQzx-s1wHr8EnVJiLK5A8_yLvsUYR65N3YovlnyNoh6bbqSjmnhfLZROKSkJ1AAWx1i-HjLtAlh3a5gKgQVjyJJ2Tj75J6bYswnb55EFXnG5jPymSqTRvs9haD79yJ05rvYg_kHsULE_JwcmQQsVBjiQkBxBFhjmZequ36klGbGIHqmfpBA-D2quWN9_LBrwzRrv9rpmBTO9KcdxCIO8O-GXVDRFvhu1m00]--></g></svg>