<svg xmlns="http://www.w3.org/2000/svg" xmlns:xlink="http://www.w3.org/1999/xlink" contentStyleType="text/css" data-diagram-type="SEQUENCE" height="856px" preserveAspectRatio="none" style="width:1344px;height:856px;background:#FFFFFF;" version="1.1" viewBox="0 0 1344 856" width="1344px" zoomAndPan="magnify"><title>HT1 &#8212; HirsTime: Time Polling</title><defs/><g><text fill="#000000" font-family="sans-serif" font-size="14" font-weight="bold" lengthAdjust="spacing" textLength="232.9824" x="556.998" y="27.9951">HT1 &#8212; HirsTime: Time Polling</text><rect fill="#E6F0FF" height="680.0547" style="stroke:#181818;stroke-width:0.5;" width="100.2236" x="1" y="163.7813"/><text fill="#000000" font-family="sans-serif" font-size="13" font-weight="bold" lengthAdjust="spacing" textLength="82.9194" x="9.6521" y="175.8481">Application</text><rect fill="#F0FFF0" height="680.0547" style="stroke:#181818;stroke-width:0.5;" width="428.1812" x="387.4253" y="163.7813"/><text fill="#000000" font-family="sans-serif" font-size="13" font-weight="bold" lengthAdjust="spacing" textLength="83.0337" x="559.999" y="175.8481">score::time</text><rect fill="#FFF8F0" height="680.0547" style="stroke:#181818;stroke-width:0.5;" width="196.3027" x="955.6777" y="163.7813"/><text fill="#000000" font-family="sans-serif" font-size="13" font-weight="bold" lengthAdjust="spacing" textLength="190.3027" x="958.6777" y="175.8481">OS API (platform-specific)</text><g><title>HirsClock</title><rect fill="#FFFFFF" height="71.2656" style="stroke:#181818;stroke-width:1;" width="10" x="426.1763" y="261.6406"/></g><g><title>HirsClock</title><rect fill="#FFFFFF" height="377.3984" style="stroke:#181818;stroke-width:1;" width="10" x="426.1763" y="412.3047"/></g><g><title>HirsClockBackend</title><rect fill="#FFFFFF" height="319.1328" style="stroke:#181818;stroke-width:1;" width="10" x="736.6748" y="441.4375"/></g><g><title>OS API</title><rect fill="#FFFFFF" height="79.3984" style="stroke:#181818;stroke-width:1;" width="10" x="1048.8291" y="494.7031"/></g><g><title>OS API</title><rect fill="#FFFFFF" height="64.2656" style="stroke:#181818;stroke-width:1;" width="10" x="1048.8291" y="618.0391"/></g><rect fill="transparent" height="233.8672" style="stroke:#000000;stroke-width:1.5;" width="676.2354" x="661.7432" y="456.4375"/><g><title>Application</title><rect fill="transparent" height="619.3281" width="8" x="47.1118" y="230.5078"/><line style="stroke:#181818;stroke-width:0.5;stroke-dasharray:5.0,5.0;" x1="51" x2="51" y1="230.5078" y2="849.8359"/></g><g><title>HirsClock</title><rect fill="transparent" height="619.3281" width="8" x="427.1763" y="230.5078"/><line style="stroke:#181818;stroke-width:0.5;stroke-dasharray:5.0,5.0;" x1="430.4253" x2="430.4253" y1="230.5078" y2="849.8359"/></g><g><title>HirsClockBackend</title><rect fill="transparent" height="619.3281" width="8" x="737.6748" y="230.5078"/><line style="stroke:#181818;stroke-width:0.5;stroke-dasharray:5.0,5.0;" x1="740.7432" x2="740.7432" y1="230.5078" y2="849.8359"/></g><g><title>OS API</title><rect fill="transparent" height="619.3281" width="8" x="1049.8291" y="230.5078"/><line style="stroke:#181818;stroke-width:0.5;stroke-dasharray:5.0,5.0;" x1="1053.5767" x2="1053.5767" y1="230.5078" y2="849.8359"/></g><rect fill="#FFA07A" height="46.5938" rx="2.5" ry="2.5" style="stroke:#181818;stroke-width:0.5;" width="92.2236" x="5" y="182.9141"/><text fill="#000000" font-family="sans-serif" font-size="14" lengthAdjust="spacing" textLength="78.2236" x="12" y="202.9092">Application</text><text fill="#000000" font-family="sans-serif" font-size="14" lengthAdjust="spacing" textLength="33.7627" x="34.2305" y="219.2061">code</text><rect fill="#90EE90" height="30.2969" rx="2.5" ry="2.5" style="stroke:#181818;stroke-width:0.5;" width="79.502" x="391.4253" y="199.2109"/><text fill="#000000" font-family="sans-serif" font-size="14" lengthAdjust="spacing" textLength="65.502" x="398.4253" y="219.2061">HirsClock</text><rect fill="#F08080" height="30.2969" rx="2.5" ry="2.5" style="stroke:#181818;stroke-width:0.5;" width="139.8633" x="671.7432" y="199.2109"/><text fill="#000000" font-family="sans-serif" font-size="14" lengthAdjust="spacing" textLength="125.8633" x="678.7432" y="219.2061">HirsClockBackend</text><rect fill="#FFDEAD" height="30.2969" rx="2.5" ry="2.5" style="stroke:#181818;stroke-width:0.5;" width="60.5049" x="1023.5767" y="199.2109"/><text fill="#000000" font-family="sans-serif" font-size="14" lengthAdjust="spacing" textLength="46.5049" x="1030.5767" y="219.2061">OS API</text><g><title>HirsClock</title><rect fill="#FFFFFF" height="71.2656" style="stroke:#181818;stroke-width:1;" width="10" x="426.1763" y="261.6406"/></g><g><title>HirsClock</title><rect fill="#FFFFFF" height="377.3984" style="stroke:#181818;stroke-width:1;" width="10" x="426.1763" y="412.3047"/></g><g><title>HirsClockBackend</title><rect fill="#FFFFFF" height="319.1328" style="stroke:#181818;stroke-width:1;" width="10" x="736.6748" y="441.4375"/></g><g><title>OS API</title><rect fill="#FFFFFF" height="79.3984" style="stroke:#181818;stroke-width:1;" width="10" x="1048.8291" y="494.7031"/></g><g><title>OS API</title><rect fill="#FFFFFF" height="64.2656" style="stroke:#181818;stroke-width:1;" width="10" x="1048.8291" y="618.0391"/></g><polygon fill="#181818" points="414.1763,257.6406,424.1763,261.6406,414.1763,265.6406,418.1763,261.6406" style="stroke:#181818;stroke-width:1;"/><line style="stroke:#181818;stroke-width:1;" x1="51.1118" x2="420.1763" y1="261.6406" y2="261.6406"/><text fill="#000080" font-family="sans-serif" font-size="13" font-weight="bold" lengthAdjust="spacing" textLength="29.9736" x="58.1118" y="256.5747">[01]</text><text fill="#000000" font-family="sans-serif" font-size="13" lengthAdjust="spacing" textLength="158.1899" x="92.0854" y="256.5747">HirsClock::GetInstance()</text><line style="stroke:#181818;stroke-width:1;" x1="436.1763" x2="478.1763" y1="290.7734" y2="290.7734"/><line style="stroke:#181818;stroke-width:1;" x1="478.1763" x2="478.1763" y1="290.7734" y2="303.7734"/><line style="stroke:#181818;stroke-width:1;" x1="437.1763" x2="478.1763" y1="303.7734" y2="303.7734"/><polygon fill="#181818" points="447.1763,299.7734,437.1763,303.7734,447.1763,307.7734,443.1763,303.7734" style="stroke:#181818;stroke-width:1;"/><text fill="#000080" font-family="sans-serif" font-size="13" font-weight="bold" lengthAdjust="spacing" textLength="29.9736" x="443.1763" y="285.7075">[02]</text><text fill="#000000" font-family="sans-serif" font-size="13" lengthAdjust="spacing" textLength="147.5322" x="477.1499" y="285.7075">check cache / override</text><polygon fill="#181818" points="62.1118,328.9063,52.1118,332.9063,62.1118,336.9063,58.1118,332.9063" style="stroke:#181818;stroke-width:1;"/><line style="stroke:#181818;stroke-width:1;stroke-dasharray:2.0,2.0;" x1="56.1118" x2="430.1763" y1="332.9063" y2="332.9063"/><text fill="#000080" font-family="sans-serif" font-size="13" font-weight="bold" lengthAdjust="spacing" textLength="29.9736" x="68.1118" y="327.8403">[03]</text><text fill="#000000" font-family="sans-serif" font-size="13" lengthAdjust="spacing" textLength="163.2617" x="102.0854" y="327.8403">Clock&lt;HirsTime&gt; handle</text><path d="M56,345.9063 L56,385.9063 L243,385.9063 L243,355.9063 L233,345.9063 L56,345.9063 " fill="#FEFFDD" style="stroke:#181818;stroke-width:0.5;"/><path d="M233,345.9063 L233,355.9063 L243,355.9063 L233,345.9063 " fill="#FEFFDD" style="stroke:#181818;stroke-width:0.5;"/><text fill="#000000" font-family="sans-serif" font-size="13" lengthAdjust="spacing" textLength="129.0415" x="62" y="362.9731">No Init() required &#8212;</text><text fill="#000000" font-family="sans-serif" font-size="13" lengthAdjust="spacing" textLength="166.5308" x="62" y="378.106">HirsTime is always ready.</text><polygon fill="#181818" points="414.1763,408.3047,424.1763,412.3047,414.1763,416.3047,418.1763,412.3047" style="stroke:#181818;stroke-width:1;"/><line style="stroke:#181818;stroke-width:1;" x1="51.1118" x2="420.1763" y1="412.3047" y2="412.3047"/><text fill="#000080" font-family="sans-serif" font-size="13" font-weight="bold" lengthAdjust="spacing" textLength="29.9736" x="58.1118" y="407.2388">[04]</text><text fill="#000000" font-family="sans-serif" font-size="13" lengthAdjust="spacing" textLength="38.4541" x="92.0854" y="407.2388">Now()</text><polygon fill="#181818" points="724.6748,437.4375,734.6748,441.4375,724.6748,445.4375,728.6748,441.4375" style="stroke:#181818;stroke-width:1;"/><line style="stroke:#181818;stroke-width:1;" x1="436.1763" x2="730.6748" y1="441.4375" y2="441.4375"/><text fill="#000080" font-family="sans-serif" font-size="13" font-weight="bold" lengthAdjust="spacing" textLength="29.9736" x="443.1763" y="436.3716">[05]</text><text fill="#000000" font-family="sans-serif" font-size="13" lengthAdjust="spacing" textLength="38.4541" x="477.1499" y="436.3716">Now()</text><path d="M661.7432,456.4375 L726.186,456.4375 L726.186,463.5703 L716.186,473.5703 L661.7432,473.5703 L661.7432,456.4375 " fill="#EEEEEE" style="stroke:#000000;stroke-width:1.5;"/><rect fill="transparent" height="233.8672" style="stroke:#000000;stroke-width:1.5;" width="676.2354" x="661.7432" y="456.4375"/><text fill="#000000" font-family="sans-serif" font-size="13" font-weight="bold" lengthAdjust="spacing" textLength="19.4429" x="676.7432" y="469.5044">alt</text><text fill="#000000" font-family="sans-serif" font-size="11" font-weight="bold" lengthAdjust="spacing" textLength="37.0928" x="741.186" y="468.6479">[QNX]</text><polygon fill="#181818" points="1036.8291,490.7031,1046.8291,494.7031,1036.8291,498.7031,1040.8291,494.7031" style="stroke:#181818;stroke-width:1;"/><line style="stroke:#181818;stroke-width:1;" x1="746.6748" x2="1042.8291" y1="494.7031" y2="494.7031"/><text fill="#000080" font-family="sans-serif" font-size="13" font-weight="bold" lengthAdjust="spacing" textLength="29.9736" x="753.6748" y="489.6372">[06]</text><text fill="#000000" font-family="sans-serif" font-size="13" lengthAdjust="spacing" textLength="87.7627" x="787.6484" y="489.6372">ClockCycles()</text><path d="M1063,507.7031 L1063,547.7031 L1327,547.7031 L1327,517.7031 L1317,507.7031 L1063,507.7031 " fill="#FEFFDD" style="stroke:#181818;stroke-width:0.5;"/><path d="M1317,507.7031 L1317,517.7031 L1327,517.7031 L1317,507.7031 " fill="#FEFFDD" style="stroke:#181818;stroke-width:0.5;"/><text fill="#000000" font-family="sans-serif" font-size="13" lengthAdjust="spacing" textLength="243.9785" x="1069" y="524.77">reads hardware performance counter</text><text fill="#000000" font-family="sans-serif" font-size="13" lengthAdjust="spacing" textLength="143.1904" x="1069" y="539.9028">(raw CPU cycle count)</text><polygon fill="#181818" points="757.6748,570.1016,747.6748,574.1016,757.6748,578.1016,753.6748,574.1016" style="stroke:#181818;stroke-width:1;"/><line style="stroke:#181818;stroke-width:1;stroke-dasharray:2.0,2.0;" x1="751.6748" x2="1052.8291" y1="574.1016" y2="574.1016"/><text fill="#000080" font-family="sans-serif" font-size="13" font-weight="bold" lengthAdjust="spacing" textLength="29.9736" x="763.6748" y="569.0356">[07]</text><text fill="#000000" font-family="sans-serif" font-size="13" lengthAdjust="spacing" textLength="144.3774" x="797.6484" y="569.0356">cycle_count (uint64_t)</text><line style="stroke:#000000;stroke-width:1;stroke-dasharray:2.0,2.0;" x1="661.7432" x2="1337.9785" y1="583.1016" y2="583.1016"/><text fill="#000000" font-family="sans-serif" font-size="11" font-weight="bold" lengthAdjust="spacing" textLength="43.5918" x="666.7432" y="593.312">[Linux]</text><polygon fill="#181818" points="1036.8291,614.0391,1046.8291,618.0391,1036.8291,622.0391,1040.8291,618.0391" style="stroke:#181818;stroke-width:1;"/><line style="stroke:#181818;stroke-width:1;" x1="746.6748" x2="1042.8291" y1="618.0391" y2="618.0391"/><text fill="#000080" font-family="sans-serif" font-size="13" font-weight="bold" lengthAdjust="spacing" textLength="29.9736" x="753.6748" y="612.9731">[08]</text><text fill="#000000" font-family="sans-serif" font-size="13" lengthAdjust="spacing" textLength="185.2817" x="787.6484" y="612.9731">high_resolution_clock::now()</text><path d="M1063,631.0391 L1063,656.0391 L1302,656.0391 L1302,641.0391 L1292,631.0391 L1063,631.0391 " fill="#FEFFDD" style="stroke:#181818;stroke-width:0.5;"/><path d="M1292,631.0391 L1292,641.0391 L1302,641.0391 L1292,631.0391 " fill="#FEFFDD" style="stroke:#181818;stroke-width:0.5;"/><text fill="#000000" font-family="sans-serif" font-size="13" lengthAdjust="spacing" textLength="218.1309" x="1069" y="648.106">delegates to CLOCK_MONOTONIC</text><polygon fill="#181818" points="757.6748,678.3047,747.6748,682.3047,757.6748,686.3047,753.6748,682.3047" style="stroke:#181818;stroke-width:1;"/><line style="stroke:#181818;stroke-width:1;stroke-dasharray:2.0,2.0;" x1="751.6748" x2="1052.8291" y1="682.3047" y2="682.3047"/><text fill="#000080" font-family="sans-serif" font-size="13" font-weight="bold" lengthAdjust="spacing" textLength="29.9736" x="763.6748" y="677.2388">[09]</text><text fill="#000000" font-family="sans-serif" font-size="13" lengthAdjust="spacing" textLength="69.0244" x="797.6484" y="677.2388">time_point</text><line style="stroke:#181818;stroke-width:1;" x1="746.6748" x2="788.6748" y1="718.4375" y2="718.4375"/><line style="stroke:#181818;stroke-width:1;" x1="788.6748" x2="788.6748" y1="718.4375" y2="731.4375"/><line style="stroke:#181818;stroke-width:1;" x1="747.6748" x2="788.6748" y1="731.4375" y2="731.4375"/><polygon fill="#181818" points="757.6748,727.4375,747.6748,731.4375,757.6748,735.4375,753.6748,731.4375" style="stroke:#181818;stroke-width:1;"/><text fill="#000080" font-family="sans-serif" font-size="13" font-weight="bold" lengthAdjust="spacing" textLength="29.9736" x="753.6748" y="713.3716">[10]</text><text fill="#000000" font-family="sans-serif" font-size="13" lengthAdjust="spacing" textLength="180.1465" x="787.6484" y="713.3716">cast to HirsTime::Timepoint</text><polygon fill="#181818" points="447.1763,756.5703,437.1763,760.5703,447.1763,764.5703,443.1763,760.5703" style="stroke:#181818;stroke-width:1;"/><line style="stroke:#181818;stroke-width:1;stroke-dasharray:2.0,2.0;" x1="441.1763" x2="740.6748" y1="760.5703" y2="760.5703"/><text fill="#000080" font-family="sans-serif" font-size="13" font-weight="bold" lengthAdjust="spacing" textLength="29.9736" x="453.1763" y="755.5044">[11]</text><text fill="#000000" font-family="sans-serif" font-size="13" lengthAdjust="spacing" textLength="242.5249" x="487.1499" y="755.5044">ClockSnapshot{timepoint, NoStatus}</text><polygon fill="#181818" points="62.1118,785.7031,52.1118,789.7031,62.1118,793.7031,58.1118,789.7031" style="stroke:#181818;stroke-width:1;"/><line style="stroke:#181818;stroke-width:1;stroke-dasharray:2.0,2.0;" x1="56.1118" x2="430.1763" y1="789.7031" y2="789.7031"/><text fill="#000080" font-family="sans-serif" font-size="13" font-weight="bold" lengthAdjust="spacing" textLength="29.9736" x="68.1118" y="784.6372">[12]</text><text fill="#000000" font-family="sans-serif" font-size="13" lengthAdjust="spacing" textLength="317.0908" x="102.0854" y="784.6372">ClockSnapshot&lt;HirsTime::Timepoint, NoStatus&gt;</text><line style="stroke:#181818;stroke-width:1;" x1="51.1118" x2="93.1118" y1="818.8359" y2="818.8359"/><line style="stroke:#181818;stroke-width:1;" x1="93.1118" x2="93.1118" y1="818.8359" y2="831.8359"/><line style="stroke:#181818;stroke-width:1;" x1="52.1118" x2="93.1118" y1="831.8359" y2="831.8359"/><polygon fill="#181818" points="62.1118,827.8359,52.1118,831.8359,62.1118,835.8359,58.1118,831.8359" style="stroke:#181818;stroke-width:1;"/><text fill="#000080" font-family="sans-serif" font-size="13" font-weight="bold" lengthAdjust="spacing" textLength="29.9736" x="58.1118" y="813.77">[13]</text><text fill="#000000" font-family="sans-serif" font-size="13" lengthAdjust="spacing" textLength="138.5249" x="92.0854" y="813.77">snapshot.TimePoint()</text><rect fill="transparent" height="95.4844" id="_legend" rx="7.5" ry="7.5" style="stroke:#000000;stroke-width:1;" width="319.1826" x="12" y="54.2969"/><text fill="#000000" font-family="sans-serif" font-size="14" font-weight="bold" lengthAdjust="spacing" textLength="41.2139" x="21.874" y="74.292">Color</text><text fill="#000000" font-family="sans-serif" font-size="14" font-weight="bold" lengthAdjust="spacing" textLength="90.5488" x="141.0723" y="74.292">Description</text><rect fill="#FFA07A" height="16.2969" style="stroke:transparent;stroke-width:1;" width="119.1982" x="17" y="77.5938"/><text fill="#000000" font-family="sans-serif" font-size="14" lengthAdjust="spacing" textLength="35.6016" x="17" y="90.5889">&#160;&#160;&#160;&#160;&#160;&#160;&#160;&#160;</text><text fill="#000000" font-family="sans-serif" font-size="14" lengthAdjust="spacing" textLength="116.4365" x="140.6484" y="90.5889">Application code</text><rect fill="#90EE90" height="16.2969" style="stroke:transparent;stroke-width:1;" width="119.1982" x="17" y="93.8906"/><text fill="#000000" font-family="sans-serif" font-size="14" lengthAdjust="spacing" textLength="40.0518" x="17" y="106.8857">&#160;&#160;&#160;&#160;&#160;&#160;&#160;&#160;&#160;</text><text fill="#000000" font-family="sans-serif" font-size="14" lengthAdjust="spacing" textLength="158.833" x="140.6484" y="106.8857">score::time framework</text><rect fill="#F08080" height="16.2969" style="stroke:transparent;stroke-width:1;" width="119.1982" x="17" y="110.1875"/><text fill="#000000" font-family="sans-serif" font-size="14" lengthAdjust="spacing" textLength="40.0518" x="17" y="123.1826">&#160;&#160;&#160;&#160;&#160;&#160;&#160;&#160;&#160;</text><text fill="#000000" font-family="sans-serif" font-size="14" lengthAdjust="spacing" textLength="126.2529" x="140.6484" y="123.1826">HirsTime backend</text><rect fill="#FFDEAD" height="16.2969" style="stroke:transparent;stroke-width:1;" width="119.1982" x="17" y="126.4844"/><text fill="#000000" font-family="sans-serif" font-size="14" lengthAdjust="spacing" textLength="35.6016" x="17" y="139.4795">&#160;&#160;&#160;&#160;&#160;&#160;&#160;&#160;</text><text fill="#000000" font-family="sans-serif" font-size="14" lengthAdjust="spacing" textLength="179.5596" x="140.6484" y="139.4795">OS API (platform-specific)</text><line style="stroke:#000000;stroke-width:1;" x1="17" x2="326.1826" y1="61.2969" y2="61.2969"/><line style="stroke:#000000;stroke-width:1;" x1="17" x2="326.1826" y1="77.5938" y2="77.5938"/><line style="stroke:#000000;stroke-width:1;" x1="17" x2="326.1826" y1="93.8906" y2="93.8906"/><line style="stroke:#000000;stroke-width:1;" x1="17" x2="326.1826" y1="110.1875" y2="110.1875"/><line style="stroke:#000000;stroke-width:1;" x1="17" x2="326.1826" y1="126.4844" y2="126.4844"/><line style="stroke:#000000;stroke-width:1;" x1="17" x2="326.1826" y1="142.7813" y2="142.7813"/><line style="stroke:#000000;stroke-width:1;" x1="17" x2="17" y1="61.2969" y2="142.7813"/><line style="stroke:#000000;stroke-width:1;" x1="136.1982" x2="136.1982" y1="61.2969" y2="142.7813"/><line style="stroke:#000000;stroke-width:1;" x1="326.1826" x2="326.1826" y1="61.2969" y2="142.7813"/><!--SRC=[bLHXRzCm4FsUNt7gldGI6qL224LTfH6ahMAqHHq22L3bEavhwjh1TjfLWCIFu1VoIxXpcZJRiWdo8KtgU-_klRkBbru9kBn-1dz-_OPBQTsrN8iOw0uJevJKYoXoAwbpPjaQveol5jOKEasCCXQsI-b5j9IfWCmOFpSt4IkyqSLwBYnq-fdH7ZY5dccssGtwyy6dNkzB9ugKM0YTWZSvA97v2F3wSGObxUqB_tuj7BSozzBekuSbidzq9HTBFsLgRVIWFeJpF5UIim3a1ijy27bXXJW04UcuiIAEFJcHeNQnDNRLXaoCPQg9h6mCRf78bfmZjc5VpGUohr7jU0hdao5qSyLyPkpwnEM2oqpoOqGYKsbQ5A7Fq6b8wy2HU97riYpGOwkyv39dw7qpwhCc1ph07B0yXwPZH0xKlPAweHsfYJZhtQScdOaoV1KeEJr1myn70AzAOmAkCgbXvfrg7dQ5Yikobst5bQ2GmJXe-drW9nTE1llAOwZBY-CBuOVQUQQvw1v7Z7kvOLwKaL4Ptm3ofS1Vpl0NdeBP26jn8weu3AH4CGJkVZKT0rWowcYKYZlyaJRuRCaEC1c1WxoHWQ6MldiCLdmhf1KfBMqugYTEOclLbkqSnh1qTngq4jqziIEpVKHPrPHxSVi3f5CUteq-XlHLD0BHwxtGPCULS8YbY1flN7Y_hN3_9rrKjaDdRBfbLa0kB7MS-e3hMsWlR1tQjMmBoUGzSCfK7fVPQj7qWXMTt58KmcSX7Bg5rFx5yzaUs6W5rYIK4t0bTN7JgdA9vS-iS4OLj5qpNewE3eRzb-XKu69ZeCFF8IHNu-JDxEruDBuUZuR9FmYYDPtb1fMqYGZVYqFf3H-OyvIm_kh7T2zvQa1ZOa9NfvhbRcdyTr_5Fi4HcNhc2_UpEShLeBGkGSNIRybzu1kqhCP-YaikjwSv9V24mEZyNm00]--></g></svg>