<svg xmlns="http://www.w3.org/2000/svg" xmlns:xlink="http://www.w3.org/1999/xlink" contentStyleType="text/css" data-diagram-type="SEQUENCE" height="1553px" preserveAspectRatio="none" style="width:1663px;height:1553px;background:#FFFFFF;" version="1.1" viewBox="0 0 1663 1553" width="1663px" zoomAndPan="magnify"><title>VT3 &#8212; VehicleTime: Async PTP Event Subscription</title><defs/><g><text fill="#000000" font-family="sans-serif" font-size="14" font-weight="bold" lengthAdjust="spacing" textLength="396.0674" x="629.8901" y="27.9951">VT3 &#8212; VehicleTime: Async PTP Event Subscription</text><rect fill="#E6F0FF" height="1344.4375" style="stroke:#181818;stroke-width:0.5;" width="101.2012" x="1" y="196.375"/><text fill="#000000" font-family="sans-serif" font-size="13" font-weight="bold" lengthAdjust="spacing" textLength="82.9194" x="10.1409" y="208.4419">Application</text><rect fill="#F0FFF0" height="1344.4375" style="stroke:#181818;stroke-width:0.5;" width="497.1094" x="433.2461" y="196.375"/><text fill="#000000" font-family="sans-serif" font-size="13" font-weight="bold" lengthAdjust="spacing" textLength="83.0337" x="640.2839" y="208.4419">score::time</text><rect fill="#FFF8F0" height="1344.4375" style="stroke:#181818;stroke-width:0.5;" width="151.7993" x="1036.5586" y="196.375"/><text fill="#000000" font-family="sans-serif" font-size="13" font-weight="bold" lengthAdjust="spacing" textLength="145.7993" x="1039.5586" y="208.4419">score::TimeDaemon</text><rect fill="#FFFFF0" height="1344.4375" style="stroke:#181818;stroke-width:0.5;" width="135.5654" x="1299.0264" y="196.375"/><text fill="#000000" font-family="sans-serif" font-size="13" font-weight="bold" lengthAdjust="spacing" textLength="125.5693" x="1304.0244" y="208.4419">score::TimeSlave</text><rect fill="#F5F5F5" height="1344.4375" style="stroke:#181818;stroke-width:0.5;" width="104.5029" x="1551.3447" y="196.375"/><text fill="#000000" font-family="sans-serif" font-size="13" font-weight="bold" lengthAdjust="spacing" textLength="61.9087" x="1572.6418" y="208.4419">Network</text><g><title>VehicleClock</title><rect fill="#FFFFFF" height="145.6641" style="stroke:#181818;stroke-width:1;" width="10" x="483.8403" y="337.3672"/></g><g><title>VehicleClock</title><rect fill="#FFFFFF" height="145.6641" style="stroke:#181818;stroke-width:1;" width="10" x="483.8403" y="512.1641"/></g><g><title>VehicleClock</title><rect fill="#FFFFFF" height="145.6641" style="stroke:#181818;stroke-width:1;" width="10" x="483.8403" y="1208.3516"/></g><g><title>VehicleClock</title><rect fill="#FFFFFF" height="145.6641" style="stroke:#181818;stroke-width:1;" width="10" x="483.8403" y="1383.1484"/></g><g><title>VehicleClockBackend</title><rect fill="#FFFFFF" height="87.3984" style="stroke:#181818;stroke-width:1;" width="10" x="839.5806" y="366.5"/></g><g><title>VehicleClockBackend</title><rect fill="#FFFFFF" height="87.3984" style="stroke:#181818;stroke-width:1;" width="10" x="839.5806" y="541.2969"/></g><g><title>VehicleClockBackend</title><rect fill="#FFFFFF" height="29.1328" style="stroke:#181818;stroke-width:1;" width="10" x="839.5806" y="853.7578"/></g><g><title>VehicleClockBackend</title><rect fill="#FFFFFF" height="29.1328" style="stroke:#181818;stroke-width:1;" width="10" x="839.5806" y="1106.9531"/></g><g><title>VehicleClockBackend</title><rect fill="#FFFFFF" height="87.3984" style="stroke:#181818;stroke-width:1;" width="10" x="839.5806" y="1237.4844"/></g><g><title>VehicleClockBackend</title><rect fill="#FFFFFF" height="87.3984" style="stroke:#181818;stroke-width:1;" width="10" x="839.5806" y="1412.2813"/></g><g><title>TimeDaemon</title><rect fill="#FFFFFF" height="29.1328" style="stroke:#181818;stroke-width:1;" width="10" x="1107.4583" y="395.6328"/></g><g><title>TimeDaemon</title><rect fill="#FFFFFF" height="29.1328" style="stroke:#181818;stroke-width:1;" width="10" x="1107.4583" y="570.4297"/></g><g><title>TimeDaemon</title><rect fill="#FFFFFF" height="58.2656" style="stroke:#181818;stroke-width:1;" width="10" x="1107.4583" y="824.625"/></g><g><title>TimeDaemon</title><rect fill="#FFFFFF" height="58.2656" style="stroke:#181818;stroke-width:1;" width="10" x="1107.4583" y="1077.8203"/></g><g><title>TimeDaemon</title><rect fill="#FFFFFF" height="29.1328" style="stroke:#181818;stroke-width:1;" width="10" x="1107.4583" y="1266.6172"/></g><g><title>TimeDaemon</title><rect fill="#FFFFFF" height="29.1328" style="stroke:#181818;stroke-width:1;" width="10" x="1107.4583" y="1441.4141"/></g><g><title>PTP TimeSlave</title><rect fill="#FFFFFF" height="152.7969" style="stroke:#181818;stroke-width:1;" width="10" x="1361.8091" y="730.0938"/></g><g><title>PTP TimeSlave</title><rect fill="#FFFFFF" height="107.5313" style="stroke:#181818;stroke-width:1;" width="10" x="1361.8091" y="1028.5547"/></g><g><title>Application</title><rect fill="transparent" height="1283.7109" width="8" x="47.6006" y="263.1016"/><line style="stroke:#181818;stroke-width:0.5;stroke-dasharray:5.0,5.0;" x1="51" x2="51" y1="263.1016" y2="1546.8125"/></g><g><title>VehicleClock</title><rect fill="transparent" height="1283.7109" width="8" x="484.8403" y="263.1016"/><line style="stroke:#181818;stroke-width:0.5;stroke-dasharray:5.0,5.0;" x1="488.2461" x2="488.2461" y1="263.1016" y2="1546.8125"/></g><g><title>VehicleClockBackend</title><rect fill="transparent" height="1283.7109" width="8" x="840.5806" y="263.1016"/><line style="stroke:#181818;stroke-width:0.5;stroke-dasharray:5.0,5.0;" x1="843.8057" x2="843.8057" y1="263.1016" y2="1546.8125"/></g><g><title>TimeDaemon</title><rect fill="transparent" height="1283.7109" width="8" x="1108.4583" y="263.1016"/><line style="stroke:#181818;stroke-width:0.5;stroke-dasharray:5.0,5.0;" x1="1111.5876" x2="1111.5876" y1="263.1016" y2="1546.8125"/></g><g><title>PTP TimeSlave</title><rect fill="transparent" height="1283.7109" width="8" x="1362.8091" y="263.1016"/><line style="stroke:#181818;stroke-width:0.5;stroke-dasharray:5.0,5.0;" x1="1366.0264" x2="1366.0264" y1="263.1016" y2="1546.8125"/></g><g><title>PTP</title><rect fill="transparent" height="1283.7109" width="8" x="1599.5962" y="263.1016"/><line style="stroke:#181818;stroke-width:0.5;stroke-dasharray:5.0,5.0;" x1="1603.3447" x2="1603.3447" y1="263.1016" y2="1546.8125"/></g><rect fill="#FFA07A" height="46.5938" rx="2.5" ry="2.5" style="stroke:#181818;stroke-width:0.5;" width="93.2012" x="5" y="215.5078"/><text fill="#000000" font-family="sans-serif" font-size="14" lengthAdjust="spacing" textLength="78.2236" x="12.4888" y="235.5029">Application</text><text fill="#000000" font-family="sans-serif" font-size="14" lengthAdjust="spacing" textLength="79.2012" x="12" y="251.7998">component</text><rect fill="#90EE90" height="30.2969" rx="2.5" ry="2.5" style="stroke:#181818;stroke-width:0.5;" width="103.1885" x="437.2461" y="231.8047"/><text fill="#000000" font-family="sans-serif" font-size="14" lengthAdjust="spacing" textLength="89.1885" x="444.2461" y="251.7998">VehicleClock</text><rect fill="#F08080" height="30.2969" rx="2.5" ry="2.5" style="stroke:#181818;stroke-width:0.5;" width="163.5498" x="762.8057" y="231.8047"/><text fill="#000000" font-family="sans-serif" font-size="14" lengthAdjust="spacing" textLength="149.5498" x="769.8057" y="251.7998">VehicleClockBackend</text><rect fill="#FFDEAD" height="30.2969" rx="2.5" ry="2.5" style="stroke:#181818;stroke-width:0.5;" width="107.7412" x="1058.5876" y="231.8047"/><text fill="#000000" font-family="sans-serif" font-size="14" lengthAdjust="spacing" textLength="93.7412" x="1065.5876" y="251.7998">TimeDaemon</text><rect fill="#EEE8AA" height="46.5938" rx="2.5" ry="2.5" style="stroke:#181818;stroke-width:0.5;" width="127.5654" x="1303.0264" y="215.5078"/><text fill="#000000" font-family="sans-serif" font-size="14" lengthAdjust="spacing" textLength="102.833" x="1315.3926" y="235.5029">PTP TimeSlave</text><text fill="#000000" font-family="sans-serif" font-size="14" lengthAdjust="spacing" textLength="113.5654" x="1310.0264" y="251.7998">(qgptp daemon)</text><rect fill="#D3D3D3" height="46.5938" rx="2.5" ry="2.5" style="stroke:#181818;stroke-width:0.5;" width="96.5029" x="1555.3447" y="215.5078"/><text fill="#000000" font-family="sans-serif" font-size="14" lengthAdjust="spacing" textLength="25.4365" x="1590.8779" y="235.5029">PTP</text><text fill="#000000" font-family="sans-serif" font-size="14" lengthAdjust="spacing" textLength="82.5029" x="1562.3447" y="251.7998">TimeMaster</text><g><title>VehicleClock</title><rect fill="#FFFFFF" height="145.6641" style="stroke:#181818;stroke-width:1;" width="10" x="483.8403" y="337.3672"/></g><g><title>VehicleClock</title><rect fill="#FFFFFF" height="145.6641" style="stroke:#181818;stroke-width:1;" width="10" x="483.8403" y="512.1641"/></g><g><title>VehicleClock</title><rect fill="#FFFFFF" height="145.6641" style="stroke:#181818;stroke-width:1;" width="10" x="483.8403" y="1208.3516"/></g><g><title>VehicleClock</title><rect fill="#FFFFFF" height="145.6641" style="stroke:#181818;stroke-width:1;" width="10" x="483.8403" y="1383.1484"/></g><g><title>VehicleClockBackend</title><rect fill="#FFFFFF" height="87.3984" style="stroke:#181818;stroke-width:1;" width="10" x="839.5806" y="366.5"/></g><g><title>VehicleClockBackend</title><rect fill="#FFFFFF" height="87.3984" style="stroke:#181818;stroke-width:1;" width="10" x="839.5806" y="541.2969"/></g><g><title>VehicleClockBackend</title><rect fill="#FFFFFF" height="29.1328" style="stroke:#181818;stroke-width:1;" width="10" x="839.5806" y="853.7578"/></g><g><title>VehicleClockBackend</title><rect fill="#FFFFFF" height="29.1328" style="stroke:#181818;stroke-width:1;" width="10" x="839.5806" y="1106.9531"/></g><g><title>VehicleClockBackend</title><rect fill="#FFFFFF" height="87.3984" style="stroke:#181818;stroke-width:1;" width="10" x="839.5806" y="1237.4844"/></g><g><title>VehicleClockBackend</title><rect fill="#FFFFFF" height="87.3984" style="stroke:#181818;stroke-width:1;" width="10" x="839.5806" y="1412.2813"/></g><g><title>TimeDaemon</title><rect fill="#FFFFFF" height="29.1328" style="stroke:#181818;stroke-width:1;" width="10" x="1107.4583" y="395.6328"/></g><g><title>TimeDaemon</title><rect fill="#FFFFFF" height="29.1328" style="stroke:#181818;stroke-width:1;" width="10" x="1107.4583" y="570.4297"/></g><g><title>TimeDaemon</title><rect fill="#FFFFFF" height="58.2656" style="stroke:#181818;stroke-width:1;" width="10" x="1107.4583" y="824.625"/></g><g><title>TimeDaemon</title><rect fill="#FFFFFF" height="58.2656" style="stroke:#181818;stroke-width:1;" width="10" x="1107.4583" y="1077.8203"/></g><g><title>TimeDaemon</title><rect fill="#FFFFFF" height="29.1328" style="stroke:#181818;stroke-width:1;" width="10" x="1107.4583" y="1266.6172"/></g><g><title>TimeDaemon</title><rect fill="#FFFFFF" height="29.1328" style="stroke:#181818;stroke-width:1;" width="10" x="1107.4583" y="1441.4141"/></g><g><title>PTP TimeSlave</title><rect fill="#FFFFFF" height="152.7969" style="stroke:#181818;stroke-width:1;" width="10" x="1361.8091" y="730.0938"/></g><g><title>PTP TimeSlave</title><rect fill="#FFFFFF" height="107.5313" style="stroke:#181818;stroke-width:1;" width="10" x="1361.8091" y="1028.5547"/></g><rect fill="#EEEEEE" height="3" style="stroke:#EEEEEE;stroke-width:1;" width="1656.8477" x="0" y="293.668"/><line style="stroke:#000000;stroke-width:1;" x1="0" x2="1656.8477" y1="293.668" y2="293.668"/><line style="stroke:#000000;stroke-width:1;" x1="0" x2="1656.8477" y1="296.668" y2="296.668"/><rect fill="#EEEEEE" height="23.1328" style="stroke:#000000;stroke-width:2;" width="240.0337" x="708.407" y="283.1016"/><text fill="#000000" font-family="sans-serif" font-size="13" font-weight="bold" lengthAdjust="spacing" textLength="221.5078" x="714.407" y="299.1685">Register callbacks once at init</text><polygon fill="#181818" points="471.8403,333.3672,481.8403,337.3672,471.8403,341.3672,475.8403,337.3672" style="stroke:#181818;stroke-width:1;"/><line style="stroke:#181818;stroke-width:1;" x1="51.6006" x2="477.8403" y1="337.3672" y2="337.3672"/><text fill="#000080" font-family="sans-serif" font-size="13" font-weight="bold" lengthAdjust="spacing" textLength="29.9736" x="58.6006" y="332.3013">[01]</text><text fill="#000000" font-family="sans-serif" font-size="13" lengthAdjust="spacing" textLength="342.8052" x="92.5742" y="332.3013">Subscribe&lt;TimeSlaveSyncData&lt;VehicleTime&gt;&gt;(cb)</text><polygon fill="#181818" points="827.5806,362.5,837.5806,366.5,827.5806,370.5,831.5806,366.5" style="stroke:#181818;stroke-width:1;"/><line style="stroke:#181818;stroke-width:1;" x1="493.8403" x2="833.5806" y1="366.5" y2="366.5"/><text fill="#000080" font-family="sans-serif" font-size="13" font-weight="bold" lengthAdjust="spacing" textLength="29.9736" x="500.8403" y="361.4341">[02]</text><text fill="#000000" font-family="sans-serif" font-size="13" lengthAdjust="spacing" textLength="291.8906" x="534.814" y="361.4341">SetTimeSlaveSyncDataReceivedCallback(cb)</text><polygon fill="#181818" points="1095.4583,391.6328,1105.4583,395.6328,1095.4583,399.6328,1099.4583,395.6328" style="stroke:#181818;stroke-width:1;"/><line style="stroke:#181818;stroke-width:1;" x1="849.5806" x2="1101.4583" y1="395.6328" y2="395.6328"/><text fill="#000080" font-family="sans-serif" font-size="13" font-weight="bold" lengthAdjust="spacing" textLength="29.9736" x="856.5806" y="390.5669">[03]</text><text fill="#000000" font-family="sans-serif" font-size="13" lengthAdjust="spacing" textLength="170.625" x="890.5542" y="390.5669">register sync data listener</text><polygon fill="#181818" points="860.5806,420.7656,850.5806,424.7656,860.5806,428.7656,856.5806,424.7656" style="stroke:#181818;stroke-width:1;"/><line style="stroke:#181818;stroke-width:1;stroke-dasharray:2.0,2.0;" x1="854.5806" x2="1111.4583" y1="424.7656" y2="424.7656"/><text fill="#000080" font-family="sans-serif" font-size="13" font-weight="bold" lengthAdjust="spacing" textLength="29.9736" x="866.5806" y="419.6997">[04]</text><text fill="#000000" font-family="sans-serif" font-size="13" lengthAdjust="spacing" textLength="4.1323" x="900.5542" y="419.6997">&#160;</text><polygon fill="#181818" points="504.8403,449.8984,494.8403,453.8984,504.8403,457.8984,500.8403,453.8984" style="stroke:#181818;stroke-width:1;"/><line style="stroke:#181818;stroke-width:1;stroke-dasharray:2.0,2.0;" x1="498.8403" x2="843.5806" y1="453.8984" y2="453.8984"/><text fill="#000080" font-family="sans-serif" font-size="13" font-weight="bold" lengthAdjust="spacing" textLength="29.9736" x="510.8403" y="448.8325">[05]</text><text fill="#000000" font-family="sans-serif" font-size="13" lengthAdjust="spacing" textLength="4.1323" x="544.814" y="448.8325">&#160;</text><polygon fill="#181818" points="62.6006,479.0313,52.6006,483.0313,62.6006,487.0313,58.6006,483.0313" style="stroke:#181818;stroke-width:1;"/><line style="stroke:#181818;stroke-width:1;stroke-dasharray:2.0,2.0;" x1="56.6006" x2="487.8403" y1="483.0313" y2="483.0313"/><text fill="#000080" font-family="sans-serif" font-size="13" font-weight="bold" lengthAdjust="spacing" textLength="29.9736" x="68.6006" y="477.9653">[06]</text><text fill="#000000" font-family="sans-serif" font-size="13" lengthAdjust="spacing" textLength="4.1323" x="102.5742" y="477.9653">&#160;</text><polygon fill="#181818" points="471.8403,508.1641,481.8403,512.1641,471.8403,516.1641,475.8403,512.1641" style="stroke:#181818;stroke-width:1;"/><line style="stroke:#181818;stroke-width:1;" x1="51.6006" x2="477.8403" y1="512.1641" y2="512.1641"/><text fill="#000080" font-family="sans-serif" font-size="13" font-weight="bold" lengthAdjust="spacing" textLength="29.9736" x="58.6006" y="507.0981">[07]</text><text fill="#000000" font-family="sans-serif" font-size="13" lengthAdjust="spacing" textLength="378.3901" x="92.5742" y="507.0981">Subscribe&lt;PDelayMeasurementData&lt;VehicleTime&gt;&gt;(cb)</text><polygon fill="#181818" points="827.5806,537.2969,837.5806,541.2969,827.5806,545.2969,831.5806,541.2969" style="stroke:#181818;stroke-width:1;"/><line style="stroke:#181818;stroke-width:1;" x1="493.8403" x2="833.5806" y1="541.2969" y2="541.2969"/><text fill="#000080" font-family="sans-serif" font-size="13" font-weight="bold" lengthAdjust="spacing" textLength="29.9736" x="500.8403" y="536.231">[08]</text><text fill="#000000" font-family="sans-serif" font-size="13" lengthAdjust="spacing" textLength="290.9067" x="534.814" y="536.231">SetPDelayMeasurementFinishedCallback(cb)</text><polygon fill="#181818" points="1095.4583,566.4297,1105.4583,570.4297,1095.4583,574.4297,1099.4583,570.4297" style="stroke:#181818;stroke-width:1;"/><line style="stroke:#181818;stroke-width:1;" x1="849.5806" x2="1101.4583" y1="570.4297" y2="570.4297"/><text fill="#000080" font-family="sans-serif" font-size="13" font-weight="bold" lengthAdjust="spacing" textLength="29.9736" x="856.5806" y="565.3638">[09]</text><text fill="#000000" font-family="sans-serif" font-size="13" lengthAdjust="spacing" textLength="151.1313" x="890.5542" y="565.3638">register pdelay listener</text><polygon fill="#181818" points="860.5806,595.5625,850.5806,599.5625,860.5806,603.5625,856.5806,599.5625" style="stroke:#181818;stroke-width:1;"/><line style="stroke:#181818;stroke-width:1;stroke-dasharray:2.0,2.0;" x1="854.5806" x2="1111.4583" y1="599.5625" y2="599.5625"/><text fill="#000080" font-family="sans-serif" font-size="13" font-weight="bold" lengthAdjust="spacing" textLength="29.9736" x="866.5806" y="594.4966">[10]</text><text fill="#000000" font-family="sans-serif" font-size="13" lengthAdjust="spacing" textLength="4.1323" x="900.5542" y="594.4966">&#160;</text><polygon fill="#181818" points="504.8403,624.6953,494.8403,628.6953,504.8403,632.6953,500.8403,628.6953" style="stroke:#181818;stroke-width:1;"/><line style="stroke:#181818;stroke-width:1;stroke-dasharray:2.0,2.0;" x1="498.8403" x2="843.5806" y1="628.6953" y2="628.6953"/><text fill="#000080" font-family="sans-serif" font-size="13" font-weight="bold" lengthAdjust="spacing" textLength="29.9736" x="510.8403" y="623.6294">[11]</text><text fill="#000000" font-family="sans-serif" font-size="13" lengthAdjust="spacing" textLength="4.1323" x="544.814" y="623.6294">&#160;</text><polygon fill="#181818" points="62.6006,653.8281,52.6006,657.8281,62.6006,661.8281,58.6006,657.8281" style="stroke:#181818;stroke-width:1;"/><line style="stroke:#181818;stroke-width:1;stroke-dasharray:2.0,2.0;" x1="56.6006" x2="487.8403" y1="657.8281" y2="657.8281"/><text fill="#000080" font-family="sans-serif" font-size="13" font-weight="bold" lengthAdjust="spacing" textLength="29.9736" x="68.6006" y="652.7622">[12]</text><text fill="#000000" font-family="sans-serif" font-size="13" lengthAdjust="spacing" textLength="4.1323" x="102.5742" y="652.7622">&#160;</text><rect fill="#EEEEEE" height="3" style="stroke:#EEEEEE;stroke-width:1;" width="1656.8477" x="0" y="686.3945"/><line style="stroke:#000000;stroke-width:1;" x1="0" x2="1656.8477" y1="686.3945" y2="686.3945"/><line style="stroke:#000000;stroke-width:1;" x1="0" x2="1656.8477" y1="689.3945" y2="689.3945"/><rect fill="#EEEEEE" height="23.1328" style="stroke:#000000;stroke-width:2;" width="339.4063" x="658.7207" y="675.8281"/><text fill="#000000" font-family="sans-serif" font-size="13" font-weight="bold" lengthAdjust="spacing" textLength="320.8804" x="664.7207" y="691.895">Event: PTP Sync (called on backend thread)</text><polygon fill="#181818" points="1382.8091,726.0938,1372.8091,730.0938,1382.8091,734.0938,1378.8091,730.0938" style="stroke:#181818;stroke-width:1;"/><line style="stroke:#181818;stroke-width:1;" x1="1376.8091" x2="1602.5962" y1="730.0938" y2="730.0938"/><text fill="#000080" font-family="sans-serif" font-size="13" font-weight="bold" lengthAdjust="spacing" textLength="29.9736" x="1388.8091" y="725.0278">[13]</text><text fill="#000000" font-family="sans-serif" font-size="13" lengthAdjust="spacing" textLength="178.8135" x="1422.7827" y="725.0278">Sync / Follow_Up messages</text><path d="M1376,743.0938 L1376,783.0938 L1632,783.0938 L1632,753.0938 L1622,743.0938 L1376,743.0938 " fill="#FEFFDD" style="stroke:#181818;stroke-width:0.5;"/><path d="M1622,743.0938 L1622,753.0938 L1632,753.0938 L1622,743.0938 " fill="#FEFFDD" style="stroke:#181818;stroke-width:0.5;"/><text fill="#000000" font-family="sans-serif" font-size="13" lengthAdjust="spacing" textLength="205.6895" x="1382" y="760.1606">TimeSlave computes offset and</text><text fill="#000000" font-family="sans-serif" font-size="13" lengthAdjust="spacing" textLength="235.8408" x="1382" y="775.2935">rate correction from Sync messages</text><polygon fill="#181818" points="1128.4583,820.625,1118.4583,824.625,1128.4583,828.625,1124.4583,824.625" style="stroke:#181818;stroke-width:1;"/><line style="stroke:#181818;stroke-width:1;" x1="1122.4583" x2="1360.8091" y1="824.625" y2="824.625"/><text fill="#000080" font-family="sans-serif" font-size="13" font-weight="bold" lengthAdjust="spacing" textLength="29.9736" x="1134.4583" y="811.9927">[14]</text><text fill="#000000" font-family="sans-serif" font-size="13" lengthAdjust="spacing" textLength="130.1079" x="1168.4319" y="804.4263">TimeSlaveSyncData</text><text fill="#000000" font-family="sans-serif" font-size="13" lengthAdjust="spacing" textLength="173.3481" x="1168.4319" y="819.5591">{offset, rate, timestamps}</text><polygon fill="#181818" points="860.5806,849.7578,850.5806,853.7578,860.5806,857.7578,856.5806,853.7578" style="stroke:#181818;stroke-width:1;"/><line style="stroke:#181818;stroke-width:1;" x1="854.5806" x2="1106.4583" y1="853.7578" y2="853.7578"/><text fill="#000080" font-family="sans-serif" font-size="13" font-weight="bold" lengthAdjust="spacing" textLength="29.9736" x="866.5806" y="848.6919">[15]</text><text fill="#000000" font-family="sans-serif" font-size="13" lengthAdjust="spacing" textLength="112.8804" x="900.5542" y="848.6919">fire sync callback</text><polygon fill="#181818" points="62.6006,878.8906,52.6006,882.8906,62.6006,886.8906,58.6006,882.8906" style="stroke:#181818;stroke-width:1;"/><line style="stroke:#181818;stroke-width:1;" x1="56.6006" x2="843.5806" y1="882.8906" y2="882.8906"/><text fill="#000080" font-family="sans-serif" font-size="13" font-weight="bold" lengthAdjust="spacing" textLength="29.9736" x="68.6006" y="877.8247">[16]</text><text fill="#000000" font-family="sans-serif" font-size="13" lengthAdjust="spacing" textLength="257.1499" x="102.5742" y="877.8247">cb(TimeSlaveSyncData&lt;VehicleTime&gt;)</text><path d="M849,895.8906 L849,935.8906 L1059,935.8906 L1059,905.8906 L1049,895.8906 L849,895.8906 " fill="#FEFFDD" style="stroke:#181818;stroke-width:0.5;"/><path d="M1049,895.8906 L1049,905.8906 L1059,905.8906 L1049,895.8906 " fill="#FEFFDD" style="stroke:#181818;stroke-width:0.5;"/><text fill="#000000" font-family="sans-serif" font-size="13" lengthAdjust="spacing" textLength="182.5903" x="855" y="912.9575">called on backend thread &#8212;</text><text fill="#000000" font-family="sans-serif" font-size="13" lengthAdjust="spacing" textLength="189.5537" x="855" y="928.0903">callback must be thread-safe</text><rect fill="#EEEEEE" height="3" style="stroke:#EEEEEE;stroke-width:1;" width="1656.8477" x="0" y="961.7227"/><line style="stroke:#000000;stroke-width:1;" x1="0" x2="1656.8477" y1="961.7227" y2="961.7227"/><line style="stroke:#000000;stroke-width:1;" x1="0" x2="1656.8477" y1="964.7227" y2="964.7227"/><rect fill="#EEEEEE" height="23.1328" style="stroke:#000000;stroke-width:2;" width="456.6665" x="600.0906" y="951.1563"/><text fill="#000000" font-family="sans-serif" font-size="13" font-weight="bold" lengthAdjust="spacing" textLength="438.1406" x="606.0906" y="967.2231">Event: Peer-delay measurement (called on backend thread)</text><line style="stroke:#181818;stroke-width:1;" x1="1366.8091" x2="1413.8091" y1="1015.5547" y2="1015.5547"/><line style="stroke:#181818;stroke-width:1;" x1="1413.8091" x2="1413.8091" y1="1015.5547" y2="1028.5547"/><line style="stroke:#181818;stroke-width:1;" x1="1372.8091" x2="1413.8091" y1="1028.5547" y2="1028.5547"/><polygon fill="#181818" points="1382.8091,1024.5547,1372.8091,1028.5547,1382.8091,1032.5547,1378.8091,1028.5547" style="stroke:#181818;stroke-width:1;"/><text fill="#000080" font-family="sans-serif" font-size="13" font-weight="bold" lengthAdjust="spacing" textLength="29.9736" x="1378.8091" y="1002.9224">[17]</text><text fill="#000000" font-family="sans-serif" font-size="13" lengthAdjust="spacing" textLength="169.7046" x="1412.7827" y="995.356">Pdelay_Req / Pdelay_Resp</text><text fill="#000000" font-family="sans-serif" font-size="13" lengthAdjust="spacing" textLength="128.9717" x="1412.7827" y="1010.4888">exchange with peer</text><polygon fill="#181818" points="1128.4583,1073.8203,1118.4583,1077.8203,1128.4583,1081.8203,1124.4583,1077.8203" style="stroke:#181818;stroke-width:1;"/><line style="stroke:#181818;stroke-width:1;" x1="1122.4583" x2="1360.8091" y1="1077.8203" y2="1077.8203"/><text fill="#000080" font-family="sans-serif" font-size="13" font-weight="bold" lengthAdjust="spacing" textLength="29.9736" x="1134.4583" y="1065.188">[18]</text><text fill="#000000" font-family="sans-serif" font-size="13" lengthAdjust="spacing" textLength="165.6929" x="1168.4319" y="1057.6216">PDelayMeasurementData</text><text fill="#000000" font-family="sans-serif" font-size="13" lengthAdjust="spacing" textLength="173.3164" x="1168.4319" y="1072.7544">{peer_delay, timestamps}</text><polygon fill="#181818" points="860.5806,1102.9531,850.5806,1106.9531,860.5806,1110.9531,856.5806,1106.9531" style="stroke:#181818;stroke-width:1;"/><line style="stroke:#181818;stroke-width:1;" x1="854.5806" x2="1106.4583" y1="1106.9531" y2="1106.9531"/><text fill="#000080" font-family="sans-serif" font-size="13" font-weight="bold" lengthAdjust="spacing" textLength="29.9736" x="866.5806" y="1101.8872">[19]</text><text fill="#000000" font-family="sans-serif" font-size="13" lengthAdjust="spacing" textLength="126.8008" x="900.5542" y="1101.8872">fire pdelay callback</text><polygon fill="#181818" points="62.6006,1132.0859,52.6006,1136.0859,62.6006,1140.0859,58.6006,1136.0859" style="stroke:#181818;stroke-width:1;"/><line style="stroke:#181818;stroke-width:1;" x1="56.6006" x2="843.5806" y1="1136.0859" y2="1136.0859"/><text fill="#000080" font-family="sans-serif" font-size="13" font-weight="bold" lengthAdjust="spacing" textLength="29.9736" x="68.6006" y="1131.02">[20]</text><text fill="#000000" font-family="sans-serif" font-size="13" lengthAdjust="spacing" textLength="292.7349" x="102.5742" y="1131.02">cb(PDelayMeasurementData&lt;VehicleTime&gt;)</text><rect fill="#EEEEEE" height="3" style="stroke:#EEEEEE;stroke-width:1;" width="1656.8477" x="0" y="1164.6523"/><line style="stroke:#000000;stroke-width:1;" x1="0" x2="1656.8477" y1="1164.6523" y2="1164.6523"/><line style="stroke:#000000;stroke-width:1;" x1="0" x2="1656.8477" y1="1167.6523" y2="1167.6523"/><rect fill="#EEEEEE" height="23.1328" style="stroke:#000000;stroke-width:2;" width="286.1875" x="685.3301" y="1154.0859"/><text fill="#000000" font-family="sans-serif" font-size="13" font-weight="bold" lengthAdjust="spacing" textLength="267.6616" x="691.3301" y="1170.1528">Unsubscribe when no longer needed</text><polygon fill="#181818" points="471.8403,1204.3516,481.8403,1208.3516,471.8403,1212.3516,475.8403,1208.3516" style="stroke:#181818;stroke-width:1;"/><line style="stroke:#181818;stroke-width:1;" x1="51.6006" x2="477.8403" y1="1208.3516" y2="1208.3516"/><text fill="#000080" font-family="sans-serif" font-size="13" font-weight="bold" lengthAdjust="spacing" textLength="29.9736" x="58.6006" y="1203.2856">[21]</text><text fill="#000000" font-family="sans-serif" font-size="13" lengthAdjust="spacing" textLength="343.6812" x="92.5742" y="1203.2856">Unsubscribe&lt;TimeSlaveSyncData&lt;VehicleTime&gt;&gt;()</text><polygon fill="#181818" points="827.5806,1233.4844,837.5806,1237.4844,827.5806,1241.4844,831.5806,1237.4844" style="stroke:#181818;stroke-width:1;"/><line style="stroke:#181818;stroke-width:1;" x1="493.8403" x2="833.5806" y1="1237.4844" y2="1237.4844"/><text fill="#000080" font-family="sans-serif" font-size="13" font-weight="bold" lengthAdjust="spacing" textLength="29.9736" x="500.8403" y="1232.4185">[22]</text><text fill="#000000" font-family="sans-serif" font-size="13" lengthAdjust="spacing" textLength="292.7666" x="534.814" y="1232.4185">UnsetTimeSlaveSyncDataReceivedCallback()</text><polygon fill="#181818" points="1095.4583,1262.6172,1105.4583,1266.6172,1095.4583,1270.6172,1099.4583,1266.6172" style="stroke:#181818;stroke-width:1;"/><line style="stroke:#181818;stroke-width:1;" x1="849.5806" x2="1101.4583" y1="1266.6172" y2="1266.6172"/><text fill="#000080" font-family="sans-serif" font-size="13" font-weight="bold" lengthAdjust="spacing" textLength="29.9736" x="856.5806" y="1261.5513">[23]</text><text fill="#000000" font-family="sans-serif" font-size="13" lengthAdjust="spacing" textLength="186.875" x="890.5542" y="1261.5513">deregister sync data listener</text><polygon fill="#181818" points="860.5806,1291.75,850.5806,1295.75,860.5806,1299.75,856.5806,1295.75" style="stroke:#181818;stroke-width:1;"/><line style="stroke:#181818;stroke-width:1;stroke-dasharray:2.0,2.0;" x1="854.5806" x2="1111.4583" y1="1295.75" y2="1295.75"/><text fill="#000080" font-family="sans-serif" font-size="13" font-weight="bold" lengthAdjust="spacing" textLength="29.9736" x="866.5806" y="1290.6841">[24]</text><text fill="#000000" font-family="sans-serif" font-size="13" lengthAdjust="spacing" textLength="4.1323" x="900.5542" y="1290.6841">&#160;</text><polygon fill="#181818" points="504.8403,1320.8828,494.8403,1324.8828,504.8403,1328.8828,500.8403,1324.8828" style="stroke:#181818;stroke-width:1;"/><line style="stroke:#181818;stroke-width:1;stroke-dasharray:2.0,2.0;" x1="498.8403" x2="843.5806" y1="1324.8828" y2="1324.8828"/><text fill="#000080" font-family="sans-serif" font-size="13" font-weight="bold" lengthAdjust="spacing" textLength="29.9736" x="510.8403" y="1319.8169">[25]</text><text fill="#000000" font-family="sans-serif" font-size="13" lengthAdjust="spacing" textLength="4.1323" x="544.814" y="1319.8169">&#160;</text><polygon fill="#181818" points="62.6006,1350.0156,52.6006,1354.0156,62.6006,1358.0156,58.6006,1354.0156" style="stroke:#181818;stroke-width:1;"/><line style="stroke:#181818;stroke-width:1;stroke-dasharray:2.0,2.0;" x1="56.6006" x2="487.8403" y1="1354.0156" y2="1354.0156"/><text fill="#000080" font-family="sans-serif" font-size="13" font-weight="bold" lengthAdjust="spacing" textLength="29.9736" x="68.6006" y="1348.9497">[26]</text><text fill="#000000" font-family="sans-serif" font-size="13" lengthAdjust="spacing" textLength="4.1323" x="102.5742" y="1348.9497">&#160;</text><polygon fill="#181818" points="471.8403,1379.1484,481.8403,1383.1484,471.8403,1387.1484,475.8403,1383.1484" style="stroke:#181818;stroke-width:1;"/><line style="stroke:#181818;stroke-width:1;" x1="51.6006" x2="477.8403" y1="1383.1484" y2="1383.1484"/><text fill="#000080" font-family="sans-serif" font-size="13" font-weight="bold" lengthAdjust="spacing" textLength="29.9736" x="58.6006" y="1378.0825">[27]</text><text fill="#000000" font-family="sans-serif" font-size="13" lengthAdjust="spacing" textLength="379.2661" x="92.5742" y="1378.0825">Unsubscribe&lt;PDelayMeasurementData&lt;VehicleTime&gt;&gt;()</text><polygon fill="#181818" points="827.5806,1408.2813,837.5806,1412.2813,827.5806,1416.2813,831.5806,1412.2813" style="stroke:#181818;stroke-width:1;"/><line style="stroke:#181818;stroke-width:1;" x1="493.8403" x2="833.5806" y1="1412.2813" y2="1412.2813"/><text fill="#000080" font-family="sans-serif" font-size="13" font-weight="bold" lengthAdjust="spacing" textLength="29.9736" x="500.8403" y="1407.2153">[28]</text><text fill="#000000" font-family="sans-serif" font-size="13" lengthAdjust="spacing" textLength="291.7827" x="534.814" y="1407.2153">UnsetPDelayMeasurementFinishedCallback()</text><polygon fill="#181818" points="1095.4583,1437.4141,1105.4583,1441.4141,1095.4583,1445.4141,1099.4583,1441.4141" style="stroke:#181818;stroke-width:1;"/><line style="stroke:#181818;stroke-width:1;" x1="849.5806" x2="1101.4583" y1="1441.4141" y2="1441.4141"/><text fill="#000080" font-family="sans-serif" font-size="13" font-weight="bold" lengthAdjust="spacing" textLength="29.9736" x="856.5806" y="1436.3481">[29]</text><text fill="#000000" font-family="sans-serif" font-size="13" lengthAdjust="spacing" textLength="167.3813" x="890.5542" y="1436.3481">deregister pdelay listener</text><polygon fill="#181818" points="860.5806,1466.5469,850.5806,1470.5469,860.5806,1474.5469,856.5806,1470.5469" style="stroke:#181818;stroke-width:1;"/><line style="stroke:#181818;stroke-width:1;stroke-dasharray:2.0,2.0;" x1="854.5806" x2="1111.4583" y1="1470.5469" y2="1470.5469"/><text fill="#000080" font-family="sans-serif" font-size="13" font-weight="bold" lengthAdjust="spacing" textLength="29.9736" x="866.5806" y="1465.481">[30]</text><text fill="#000000" font-family="sans-serif" font-size="13" lengthAdjust="spacing" textLength="4.1323" x="900.5542" y="1465.481">&#160;</text><polygon fill="#181818" points="504.8403,1495.6797,494.8403,1499.6797,504.8403,1503.6797,500.8403,1499.6797" style="stroke:#181818;stroke-width:1;"/><line style="stroke:#181818;stroke-width:1;stroke-dasharray:2.0,2.0;" x1="498.8403" x2="843.5806" y1="1499.6797" y2="1499.6797"/><text fill="#000080" font-family="sans-serif" font-size="13" font-weight="bold" lengthAdjust="spacing" textLength="29.9736" x="510.8403" y="1494.6138">[31]</text><text fill="#000000" font-family="sans-serif" font-size="13" lengthAdjust="spacing" textLength="4.1323" x="544.814" y="1494.6138">&#160;</text><polygon fill="#181818" points="62.6006,1524.8125,52.6006,1528.8125,62.6006,1532.8125,58.6006,1528.8125" style="stroke:#181818;stroke-width:1;"/><line style="stroke:#181818;stroke-width:1;stroke-dasharray:2.0,2.0;" x1="56.6006" x2="487.8403" y1="1528.8125" y2="1528.8125"/><text fill="#000080" font-family="sans-serif" font-size="13" font-weight="bold" lengthAdjust="spacing" textLength="29.9736" x="68.6006" y="1523.7466">[32]</text><text fill="#000000" font-family="sans-serif" font-size="13" lengthAdjust="spacing" textLength="4.1323" x="102.5742" y="1523.7466">&#160;</text><rect fill="transparent" height="128.0781" id="_legend" rx="7.5" ry="7.5" style="stroke:#000000;stroke-width:1;" width="314.8008" x="12" y="54.2969"/><text fill="#000000" font-family="sans-serif" font-size="14" font-weight="bold" lengthAdjust="spacing" textLength="41.2139" x="21.874" y="74.292">Color</text><text fill="#000000" font-family="sans-serif" font-size="14" font-weight="bold" lengthAdjust="spacing" textLength="90.5488" x="141.0723" y="74.292">Description</text><rect fill="#FFA07A" height="16.2969" style="stroke:transparent;stroke-width:1;" width="119.1982" x="17" y="77.5938"/><text fill="#000000" font-family="sans-serif" font-size="14" lengthAdjust="spacing" textLength="35.6016" x="17" y="90.5889">&#160;&#160;&#160;&#160;&#160;&#160;&#160;&#160;</text><text fill="#000000" font-family="sans-serif" font-size="14" lengthAdjust="spacing" textLength="116.4365" x="140.6484" y="90.5889">Application code</text><rect fill="#90EE90" height="16.2969" style="stroke:transparent;stroke-width:1;" width="119.1982" x="17" y="93.8906"/><text fill="#000000" font-family="sans-serif" font-size="14" lengthAdjust="spacing" textLength="40.0518" x="17" y="106.8857">&#160;&#160;&#160;&#160;&#160;&#160;&#160;&#160;&#160;</text><text fill="#000000" font-family="sans-serif" font-size="14" lengthAdjust="spacing" textLength="158.833" x="140.6484" y="106.8857">score::time framework</text><rect fill="#F08080" height="16.2969" style="stroke:transparent;stroke-width:1;" width="119.1982" x="17" y="110.1875"/><text fill="#000000" font-family="sans-serif" font-size="14" lengthAdjust="spacing" textLength="40.0518" x="17" y="123.1826">&#160;&#160;&#160;&#160;&#160;&#160;&#160;&#160;&#160;</text><text fill="#000000" font-family="sans-serif" font-size="14" lengthAdjust="spacing" textLength="149.9395" x="140.6484" y="123.1826">VehicleTime backend</text><rect fill="#FFDEAD" height="16.2969" style="stroke:transparent;stroke-width:1;" width="119.1982" x="17" y="126.4844"/><text fill="#000000" font-family="sans-serif" font-size="14" lengthAdjust="spacing" textLength="35.6016" x="17" y="139.4795">&#160;&#160;&#160;&#160;&#160;&#160;&#160;&#160;</text><text fill="#000000" font-family="sans-serif" font-size="14" lengthAdjust="spacing" textLength="141.1006" x="140.6484" y="139.4795">score::TimeDaemon</text><rect fill="#EEE8AA" height="16.2969" style="stroke:transparent;stroke-width:1;" width="119.1982" x="17" y="142.7813"/><text fill="#000000" font-family="sans-serif" font-size="14" lengthAdjust="spacing" textLength="26.7012" x="17" y="155.7764">&#160;&#160;&#160;&#160;&#160;&#160;</text><text fill="#000000" font-family="sans-serif" font-size="14" lengthAdjust="spacing" textLength="120.3057" x="140.6484" y="155.7764">score::TimeSlave</text><rect fill="#D3D3D3" height="16.2969" style="stroke:transparent;stroke-width:1;" width="119.1982" x="17" y="159.0781"/><text fill="#000000" font-family="sans-serif" font-size="14" lengthAdjust="spacing" textLength="44.502" x="17" y="172.0732">&#160;&#160;&#160;&#160;&#160;&#160;&#160;&#160;&#160;&#160;</text><text fill="#000000" font-family="sans-serif" font-size="14" lengthAdjust="spacing" textLength="149.7686" x="140.6484" y="172.0732">Network / PTP Master</text><line style="stroke:#000000;stroke-width:1;" x1="17" x2="321.8008" y1="61.2969" y2="61.2969"/><line style="stroke:#000000;stroke-width:1;" x1="17" x2="321.8008" y1="77.5938" y2="77.5938"/><line style="stroke:#000000;stroke-width:1;" x1="17" x2="321.8008" y1="93.8906" y2="93.8906"/><line style="stroke:#000000;stroke-width:1;" x1="17" x2="321.8008" y1="110.1875" y2="110.1875"/><line style="stroke:#000000;stroke-width:1;" x1="17" x2="321.8008" y1="126.4844" y2="126.4844"/><line style="stroke:#000000;stroke-width:1;" x1="17" x2="321.8008" y1="142.7813" y2="142.7813"/><line style="stroke:#000000;stroke-width:1;" x1="17" x2="321.8008" y1="159.0781" y2="159.0781"/><line style="stroke:#000000;stroke-width:1;" x1="17" x2="321.8008" y1="175.375" y2="175.375"/><line style="stroke:#000000;stroke-width:1;" x1="17" x2="17" y1="61.2969" y2="175.375"/><line style="stroke:#000000;stroke-width:1;" x1="136.1982" x2="136.1982" y1="61.2969" y2="175.375"/><line style="stroke:#000000;stroke-width:1;" x1="321.8008" x2="321.8008" y1="61.2969" y2="175.375"/><!--SRC=[pLPDRnit4BtlhnWe5mk84GD5YqAG1AHsaaiJ2BQJ7gh2eBYp4cikkI4fEKOR83-Ylx2_f3FS3r7MsfRJGo8T92qvRsRUUnmggA0HFbp-0Fz- -GS-u4f9ZPUgn16yzBT6mkno1gysQ09Sh1TUEbK5PKsM-MjbAk542GiXhvVEhar-QhLrSBDI0RELoX4AQyF2Vih4EbYpBXVeO30kB859tZenOdCx7I-clv-S_378CerBD3a4Mu768cH0hxydKCFklkZn6NRbt5ch0yVFVbNBLRWGkhHcsYt2owhIIeeO9orLUK_W6uUuZQD0Bwt3qIWGEr1GvtXZtNLFuAbrGgU12QsHBMxoJiPtOYF-jBynTTEzZ1nu9h1C6kq2PqBZ6wjpDESsd_O4NcYnUQ17SJjD5k4TXjZLYoZyM-43kZQGoguLoZ8I5GO9aGDuXZyL9qKHqSaNGKbL2H8wtJKtqfQLDUIc0GWFegeW5Oap0Fkbna_u9dn6BqxsyHjoJxMLrn5LyZT8D7muvfTQa1ZQYfFes5_JLX6kh2X-xgiitKJWWN0JcUy7ZehLkBqTipBTlhav-hYiGWLvp3IiKtdODSQTP8tAdED7VlVcc1jEKbiWefQr6xREsQ9E9d2EInNNfT2QYVHWZKGG0PHH0IQJB6F1ZwUDGgDseYnmtBLpGJFdJ0GnJixCT7ea5yDCoA0s8c0TdjKWXDQAHdWOze3EKQBQO7xQLBKBrSHcBGR11KPoRJDn1kQ40veV67JRu91djFbuMqAMOxhOWROjf-jjIDC6RI5oqWrrnFsKpSvGYzktAFpQOKb7wl_GjWVscZJpgw-chSePxrjnHcwCLzOe3Z5s0XonAp4dItQDXvL3aG-ZCHjhSn-U6U6G5_3QQcrlhjvNKABtOea-QSHdnjAduyC0jk07V8gs8vTdtJeW7OEYy1X0KEMymyLAhNCeunrKE5lM6RiiN1wZPrHDo-sUi-VchnhvUOHy3ZmeVH1bvJ_l4PxgNIY7jR7Re_gWikp04SZ5qSE7T7Y7ZnQ9MxwFVFxJqMtW9IZNFi02c_LZBmhSij5ZXLttfB_yZWyGtN7joN9hyiTSqR3FZfZ5uAjp_CXNO_l3LtE3d-HAc2N2ZGehg737xJvLiFV4aeeSSnKXdwXXSygUfkBZSsFuDKI_DxuTJVGF40qf1jeIBmuCOauazrm0IT2ZLy0Xaupm3ha23fXaENwtLq1AsY6NmC74FNu9F8suRte9_0S0]--></g></svg>