<svg xmlns="http://www.w3.org/2000/svg" xmlns:xlink="http://www.w3.org/1999/xlink" contentStyleType="text/css" data-diagram-type="SEQUENCE" height="786px" preserveAspectRatio="none" style="width:736px;height:786px;background:#FFFFFF;" version="1.1" viewBox="0 0 736 786" width="736px" zoomAndPan="magnify"><title>UC2 &#8212; Availability Waiting at initialization phase</title><defs/><g><text fill="#000000" font-family="sans-serif" font-size="14" font-weight="bold" lengthAdjust="spacing" textLength="386.6611" x="176.1973" y="27.9951">UC2 &#8212; Availability Waiting at initialization phase</text><rect fill="#E6F0FF" height="626.3828" style="stroke:#181818;stroke-width:0.5;" width="88.9194" x="114" y="147.4844"/><text fill="#000000" font-family="sans-serif" font-size="13" font-weight="bold" lengthAdjust="spacing" textLength="82.9194" x="117" y="159.5513">Application</text><rect fill="#F0FFF0" height="626.3828" style="stroke:#181818;stroke-width:0.5;" width="395.3579" x="328.6978" y="147.4844"/><text fill="#000000" font-family="sans-serif" font-size="13" font-weight="bold" lengthAdjust="spacing" textLength="83.0337" x="484.8599" y="159.5513">score::time</text><g><title>VehicleClock</title><rect fill="#FFFFFF" height="29.1328" style="stroke:#181818;stroke-width:1;" width="10" x="413.8306" y="245.3438"/></g><g><title>VehicleClock</title><rect fill="#FFFFFF" height="87.3984" style="stroke:#181818;stroke-width:1;" width="10" x="413.8306" y="338.7422"/></g><g><title>VehicleClock</title><rect fill="#FFFFFF" height="118.5313" style="stroke:#181818;stroke-width:1;" width="10" x="413.8306" y="547.6719"/></g><g><title>VehicleClockIface</title><rect fill="#FFFFFF" height="29.1328" style="stroke:#181818;stroke-width:1;" width="10" x="646.4878" y="367.875"/></g><g><title>VehicleClockIface</title><rect fill="#FFFFFF" height="29.1328" style="stroke:#181818;stroke-width:1;" width="10" x="646.4878" y="600.9375"/></g><rect fill="transparent" height="75.3984" style="stroke:#000000;stroke-width:1.5;" width="407.3579" x="322.6978" y="562.6719"/><g><title>Business</title><rect fill="transparent" height="565.6563" width="8" x="154.4597" y="214.2109"/><line style="stroke:#181818;stroke-width:0.5;stroke-dasharray:5.0,5.0;" x1="157.592" x2="157.592" y1="214.2109" y2="779.8672"/></g><g><title>VehicleClock</title><rect fill="transparent" height="565.6563" width="8" x="414.8306" y="214.2109"/><line style="stroke:#181818;stroke-width:0.5;stroke-dasharray:5.0,5.0;" x1="418.6978" x2="418.6978" y1="214.2109" y2="779.8672"/></g><g><title>VehicleClockIface</title><rect fill="transparent" height="565.6563" width="8" x="647.4878" y="214.2109"/><line style="stroke:#181818;stroke-width:0.5;stroke-dasharray:5.0,5.0;" x1="650.9199" x2="650.9199" y1="214.2109" y2="779.8672"/></g><rect fill="#FFA07A" height="46.5938" rx="2.5" ry="2.5" style="stroke:#181818;stroke-width:0.5;" width="75.7354" x="120.592" y="166.6172"/><text fill="#000000" font-family="sans-serif" font-size="14" lengthAdjust="spacing" textLength="61.7354" x="127.592" y="186.6123">Business</text><text fill="#000000" font-family="sans-serif" font-size="14" lengthAdjust="spacing" textLength="32.9287" x="141.9954" y="202.9092">logic</text><rect fill="#90EE90" height="46.5938" rx="2.5" ry="2.5" style="stroke:#181818;stroke-width:0.5;" width="172.2656" x="332.6978" y="166.6172"/><text fill="#000000" font-family="sans-serif" font-size="14" lengthAdjust="spacing" textLength="89.1885" x="374.2363" y="186.6123">VehicleClock</text><text fill="#000000" font-family="sans-serif" font-size="14" lengthAdjust="spacing" textLength="158.2656" x="339.6978" y="202.9092">(Clock&lt;VehicleTime&gt;)</text><rect fill="#F08080" height="46.5938" rx="2.5" ry="2.5" style="stroke:#181818;stroke-width:0.5;" width="137.1357" x="582.9199" y="166.6172"/><text fill="#000000" font-family="sans-serif" font-size="14" lengthAdjust="spacing" textLength="123.1357" x="589.9199" y="186.6123">VehicleClockIface</text><text fill="#000000" font-family="sans-serif" font-size="14" lengthAdjust="spacing" textLength="71.2852" x="615.8452" y="202.9092">(Backend)</text><g><title>VehicleClock</title><rect fill="#FFFFFF" height="29.1328" style="stroke:#181818;stroke-width:1;" width="10" x="413.8306" y="245.3438"/></g><g><title>VehicleClock</title><rect fill="#FFFFFF" height="87.3984" style="stroke:#181818;stroke-width:1;" width="10" x="413.8306" y="338.7422"/></g><g><title>VehicleClock</title><rect fill="#FFFFFF" height="118.5313" style="stroke:#181818;stroke-width:1;" width="10" x="413.8306" y="547.6719"/></g><g><title>VehicleClockIface</title><rect fill="#FFFFFF" height="29.1328" style="stroke:#181818;stroke-width:1;" width="10" x="646.4878" y="367.875"/></g><g><title>VehicleClockIface</title><rect fill="#FFFFFF" height="29.1328" style="stroke:#181818;stroke-width:1;" width="10" x="646.4878" y="600.9375"/></g><polygon fill="#181818" points="401.8306,241.3438,411.8306,245.3438,401.8306,249.3438,405.8306,245.3438" style="stroke:#181818;stroke-width:1;"/><line style="stroke:#181818;stroke-width:1;" x1="158.4597" x2="407.8306" y1="245.3438" y2="245.3438"/><text fill="#000080" font-family="sans-serif" font-size="13" font-weight="bold" lengthAdjust="spacing" textLength="29.9736" x="165.4597" y="240.2778">[01]</text><text fill="#000000" font-family="sans-serif" font-size="13" lengthAdjust="spacing" textLength="88.6069" x="199.4333" y="240.2778">GetInstance()</text><polygon fill="#181818" points="169.4597,270.4766,159.4597,274.4766,169.4597,278.4766,165.4597,274.4766" style="stroke:#181818;stroke-width:1;"/><line style="stroke:#181818;stroke-width:1;stroke-dasharray:2.0,2.0;" x1="163.4597" x2="417.8306" y1="274.4766" y2="274.4766"/><text fill="#000080" font-family="sans-serif" font-size="13" font-weight="bold" lengthAdjust="spacing" textLength="29.9736" x="175.4597" y="269.4106">[02]</text><text fill="#000000" font-family="sans-serif" font-size="13" lengthAdjust="spacing" textLength="44.3066" x="209.4333" y="269.4106">handle</text><path d="M80,287.4766 L80,312.4766 L236,312.4766 L236,297.4766 L226,287.4766 L80,287.4766 " fill="#FEFFDD" style="stroke:#181818;stroke-width:0.5;"/><path d="M226,287.4766 L226,297.4766 L236,297.4766 L226,287.4766 " fill="#FEFFDD" style="stroke:#181818;stroke-width:0.5;"/><text fill="#000000" font-family="sans-serif" font-size="13" lengthAdjust="spacing" textLength="135.2559" x="86" y="304.5435">Non-blocking variant</text><polygon fill="#181818" points="401.8306,334.7422,411.8306,338.7422,401.8306,342.7422,405.8306,338.7422" style="stroke:#181818;stroke-width:1;"/><line style="stroke:#181818;stroke-width:1;" x1="158.4597" x2="407.8306" y1="338.7422" y2="338.7422"/><text fill="#000080" font-family="sans-serif" font-size="13" font-weight="bold" lengthAdjust="spacing" textLength="29.9736" x="165.4597" y="333.6763">[03]</text><text fill="#000000" font-family="sans-serif" font-size="13" lengthAdjust="spacing" textLength="80.355" x="199.4333" y="333.6763">IsAvailable()</text><polygon fill="#181818" points="634.4878,363.875,644.4878,367.875,634.4878,371.875,638.4878,367.875" style="stroke:#181818;stroke-width:1;"/><line style="stroke:#181818;stroke-width:1;" x1="423.8306" x2="640.4878" y1="367.875" y2="367.875"/><text fill="#000080" font-family="sans-serif" font-size="13" font-weight="bold" lengthAdjust="spacing" textLength="29.9736" x="430.8306" y="362.8091">[04]</text><text fill="#000000" font-family="sans-serif" font-size="13" lengthAdjust="spacing" textLength="80.355" x="464.8042" y="362.8091">IsAvailable()</text><polygon fill="#181818" points="434.8306,393.0078,424.8306,397.0078,434.8306,401.0078,430.8306,397.0078" style="stroke:#181818;stroke-width:1;"/><line style="stroke:#181818;stroke-width:1;stroke-dasharray:2.0,2.0;" x1="428.8306" x2="650.4878" y1="397.0078" y2="397.0078"/><text fill="#000080" font-family="sans-serif" font-size="13" font-weight="bold" lengthAdjust="spacing" textLength="29.9736" x="440.8306" y="391.9419">[05]</text><text fill="#000000" font-family="sans-serif" font-size="13" lengthAdjust="spacing" textLength="164.6836" x="474.8042" y="391.9419">false  (PTP not yet ready)</text><polygon fill="#181818" points="169.4597,422.1406,159.4597,426.1406,169.4597,430.1406,165.4597,426.1406" style="stroke:#181818;stroke-width:1;"/><line style="stroke:#181818;stroke-width:1;stroke-dasharray:2.0,2.0;" x1="163.4597" x2="417.8306" y1="426.1406" y2="426.1406"/><text fill="#000080" font-family="sans-serif" font-size="13" font-weight="bold" lengthAdjust="spacing" textLength="29.9736" x="175.4597" y="421.0747">[06]</text><text fill="#000000" font-family="sans-serif" font-size="13" lengthAdjust="spacing" textLength="30.9258" x="209.4333" y="421.0747">false</text><line style="stroke:#181818;stroke-width:1;" x1="158.4597" x2="200.4597" y1="455.2734" y2="455.2734"/><line style="stroke:#181818;stroke-width:1;" x1="200.4597" x2="200.4597" y1="455.2734" y2="468.2734"/><line style="stroke:#181818;stroke-width:1;" x1="159.4597" x2="200.4597" y1="468.2734" y2="468.2734"/><polygon fill="#181818" points="169.4597,464.2734,159.4597,468.2734,169.4597,472.2734,165.4597,468.2734" style="stroke:#181818;stroke-width:1;"/><text fill="#000080" font-family="sans-serif" font-size="13" font-weight="bold" lengthAdjust="spacing" textLength="29.9736" x="165.4597" y="450.2075">[07]</text><text fill="#000000" font-family="sans-serif" font-size="13" lengthAdjust="spacing" textLength="104.4888" x="199.4333" y="450.2075">... wait / retry ...</text><path d="M5,481.2734 L5,506.2734 L313,506.2734 L313,491.2734 L303,481.2734 L5,481.2734 " fill="#FEFFDD" style="stroke:#181818;stroke-width:0.5;"/><path d="M303,481.2734 L303,491.2734 L313,491.2734 L303,481.2734 " fill="#FEFFDD" style="stroke:#181818;stroke-width:0.5;"/><text fill="#000000" font-family="sans-serif" font-size="13" lengthAdjust="spacing" textLength="287.6377" x="11" y="498.3403">Blocking variant with stop_token + deadline</text><polygon fill="#181818" points="401.8306,543.6719,411.8306,547.6719,401.8306,551.6719,405.8306,547.6719" style="stroke:#181818;stroke-width:1;"/><line style="stroke:#181818;stroke-width:1;" x1="158.4597" x2="407.8306" y1="547.6719" y2="547.6719"/><text fill="#000080" font-family="sans-serif" font-size="13" font-weight="bold" lengthAdjust="spacing" textLength="29.9736" x="165.4597" y="535.0396">[08]</text><text fill="#000000" font-family="sans-serif" font-size="13" lengthAdjust="spacing" textLength="199.8052" x="199.4333" y="527.4731">WaitUntilAvailable(stop_token,</text><text fill="#000000" font-family="sans-serif" font-size="13" lengthAdjust="spacing" textLength="176.9409" x="207.698" y="542.606">steady_clock::now() + 30s)</text><path d="M322.6978,562.6719 L399.3218,562.6719 L399.3218,569.8047 L389.3218,579.8047 L322.6978,579.8047 L322.6978,562.6719 " fill="#EEEEEE" style="stroke:#000000;stroke-width:1.5;"/><rect fill="transparent" height="75.3984" style="stroke:#000000;stroke-width:1.5;" width="407.3579" x="322.6978" y="562.6719"/><text fill="#000000" font-family="sans-serif" font-size="13" font-weight="bold" lengthAdjust="spacing" textLength="31.624" x="337.6978" y="575.7388">loop</text><text fill="#000000" font-family="sans-serif" font-size="11" font-weight="bold" lengthAdjust="spacing" textLength="297.1128" x="414.3218" y="574.8823">[until available OR deadline OR stop requested]</text><polygon fill="#181818" points="634.4878,596.9375,644.4878,600.9375,634.4878,604.9375,638.4878,600.9375" style="stroke:#181818;stroke-width:1;"/><line style="stroke:#181818;stroke-width:1;" x1="423.8306" x2="640.4878" y1="600.9375" y2="600.9375"/><text fill="#000080" font-family="sans-serif" font-size="13" font-weight="bold" lengthAdjust="spacing" textLength="29.9736" x="430.8306" y="595.8716">[09]</text><text fill="#000000" font-family="sans-serif" font-size="13" lengthAdjust="spacing" textLength="80.355" x="464.8042" y="595.8716">IsAvailable()</text><polygon fill="#181818" points="434.8306,626.0703,424.8306,630.0703,434.8306,634.0703,430.8306,630.0703" style="stroke:#181818;stroke-width:1;"/><line style="stroke:#181818;stroke-width:1;stroke-dasharray:2.0,2.0;" x1="428.8306" x2="650.4878" y1="630.0703" y2="630.0703"/><text fill="#000080" font-family="sans-serif" font-size="13" font-weight="bold" lengthAdjust="spacing" textLength="29.9736" x="440.8306" y="625.0044">[10]</text><text fill="#000000" font-family="sans-serif" font-size="13" lengthAdjust="spacing" textLength="27.771" x="474.8042" y="625.0044">bool</text><polygon fill="#181818" points="169.4597,662.2031,159.4597,666.2031,169.4597,670.2031,165.4597,666.2031" style="stroke:#181818;stroke-width:1;"/><line style="stroke:#181818;stroke-width:1;stroke-dasharray:2.0,2.0;" x1="163.4597" x2="417.8306" y1="666.2031" y2="666.2031"/><text fill="#000080" font-family="sans-serif" font-size="13" font-weight="bold" lengthAdjust="spacing" textLength="29.9736" x="175.4597" y="661.1372">[11]</text><text fill="#000000" font-family="sans-serif" font-size="13" lengthAdjust="spacing" textLength="155.7905" x="209.4333" y="661.1372">true (became available)</text><path d="M18,679.2031 L18,764.2031 L298,764.2031 L298,689.2031 L288,679.2031 L18,679.2031 " fill="#FEFFDD" style="stroke:#181818;stroke-width:0.5;"/><path d="M288,679.2031 L288,689.2031 L298,689.2031 L288,679.2031 " fill="#FEFFDD" style="stroke:#181818;stroke-width:0.5;"/><text fill="#000000" font-family="sans-serif" font-size="13" lengthAdjust="spacing" textLength="256.2168" x="24" y="696.27">Only Clock&lt;Tag&gt; domains that require</text><text fill="#000000" font-family="sans-serif" font-size="13" lengthAdjust="spacing" textLength="201.9316" x="24" y="711.4028">async init expose IsAvailable().</text><text fill="#000000" font-family="sans-serif" font-size="13" lengthAdjust="spacing" textLength="244.0801" x="24" y="726.5356">HplsTime / SteadyTime / SystemTime</text><text fill="#000000" font-family="sans-serif" font-size="13" lengthAdjust="spacing" textLength="259.6636" x="24" y="741.6685">are always ready &#8212; calling IsAvailable()</text><text fill="#000000" font-family="sans-serif" font-size="13" lengthAdjust="spacing" textLength="176.5601" x="24" y="756.8013">on them is a compile error.</text><rect fill="transparent" height="79.1875" id="_legend" rx="7.5" ry="7.5" style="stroke:#000000;stroke-width:1;" width="332.54" x="12" y="54.2969"/><text fill="#000000" font-family="sans-serif" font-size="14" font-weight="bold" lengthAdjust="spacing" textLength="41.2139" x="21.874" y="74.292">Color</text><text fill="#000000" font-family="sans-serif" font-size="14" font-weight="bold" lengthAdjust="spacing" textLength="90.5488" x="141.0723" y="74.292">Description</text><rect fill="#FFA07A" height="16.2969" style="stroke:transparent;stroke-width:1;" width="119.1982" x="17" y="77.5938"/><text fill="#000000" font-family="sans-serif" font-size="14" lengthAdjust="spacing" textLength="35.6016" x="17" y="90.5889">&#160;&#160;&#160;&#160;&#160;&#160;&#160;&#160;</text><text fill="#000000" font-family="sans-serif" font-size="14" lengthAdjust="spacing" textLength="181.0703" x="140.6484" y="90.5889">Application business logic</text><rect fill="#90EE90" height="16.2969" style="stroke:transparent;stroke-width:1;" width="119.1982" x="17" y="93.8906"/><text fill="#000000" font-family="sans-serif" font-size="14" lengthAdjust="spacing" textLength="40.0518" x="17" y="106.8857">&#160;&#160;&#160;&#160;&#160;&#160;&#160;&#160;&#160;</text><text fill="#000000" font-family="sans-serif" font-size="14" lengthAdjust="spacing" textLength="158.833" x="140.6484" y="106.8857">score::time framework</text><rect fill="#F08080" height="16.2969" style="stroke:transparent;stroke-width:1;" width="119.1982" x="17" y="110.1875"/><text fill="#000000" font-family="sans-serif" font-size="14" lengthAdjust="spacing" textLength="40.0518" x="17" y="123.1826">&#160;&#160;&#160;&#160;&#160;&#160;&#160;&#160;&#160;</text><text fill="#000000" font-family="sans-serif" font-size="14" lengthAdjust="spacing" textLength="149.9395" x="140.6484" y="123.1826">VehicleTime backend</text><line style="stroke:#000000;stroke-width:1;" x1="17" x2="339.54" y1="61.2969" y2="61.2969"/><line style="stroke:#000000;stroke-width:1;" x1="17" x2="339.54" y1="77.5938" y2="77.5938"/><line style="stroke:#000000;stroke-width:1;" x1="17" x2="339.54" y1="93.8906" y2="93.8906"/><line style="stroke:#000000;stroke-width:1;" x1="17" x2="339.54" y1="110.1875" y2="110.1875"/><line style="stroke:#000000;stroke-width:1;" x1="17" x2="339.54" y1="126.4844" y2="126.4844"/><line style="stroke:#000000;stroke-width:1;" x1="17" x2="17" y1="61.2969" y2="126.4844"/><line style="stroke:#000000;stroke-width:1;" x1="136.1982" x2="136.1982" y1="61.2969" y2="126.4844"/><line style="stroke:#000000;stroke-width:1;" x1="339.54" x2="339.54" y1="61.2969" y2="126.4844"/><!--SRC=[XLNBRjim4BphAnREnKPhnsY17Wp7GE82QO2Y2PgaFJH5iA9M5X6AL4dQheeS-X7zmdv9bvGVIcodkbWYTsTdXikrbruHt4xVmD_VV-1qWL9XAfNqDNn5wQMU0NgGcbzHoL_efT5G5UWeITo3r1LQB255yJ2pPgwpgL76mhAGdf92PWIvCJurFnESUwFdPKeMEkFSQ0yYX9veNDIJSJhvDXn-xoI9eXdf3BofG57k4-3dyGGQsASFBxyd9woi8gcTvx597XzzbBF2NwCgZPviDk6qgfGKZQ1qxgGcvq2PcHIxoUUMQ9lBoKuOIwEHboKhP0TeQUp3WSfJOr6raxzG8OMYcv0Sd0k2sxJvkx4XITWvwBIOTk28tkN3F8yLs7mlXQoGtUoShJJSwIYY0-W0gmhQyWCqXDDeW5ig63Z0viDTu1NTgJBYuKvtu- -ufM7IYxL4M8UMNoyZNUGeYE7E6WCQZBKRBUEsb8EO_cHLPmJdv2-qywW5TNi92YyNwAdPJfgWFeU7h14K63nDCdeMbsZ3xsR1NSc1aV4de_jfs0ozlq0hcNea4K9tM5ourPrHXrbCDheEngy2adLWlrKYH-K8e7jrSnKuG4qUB65MzzfwrWZFbSViFS9NEfgWmM00IxxkSCp8tjPXOPytPyzyWQNq1JY-hVVUS7bu1LmfKzo8XoqBS-LMUwcsJcmHNj_nJNO-oBkF2QEHDijkZv7V3jsEmyhme9W7CC0r6bn-th08xm6SPVsO4-DcKST_3oO4xLWR5lSTK6gCYfjxZcFVaNWx9-Yc97XkR6dtNknEasyEuLAh6ffRU8Ep2MIcHAaT-09zr2ajDG9ShKMStK0_AyDDz4Ja80Pzg9IBa-WOhgFjwu-QtIh3HuDbcQfQOksQtej_5mAL2jsmwntFL5zG2P9d40_wif9yBcIjiODjO_m3]--></g></svg>