<svg xmlns="http://www.w3.org/2000/svg" xmlns:xlink="http://www.w3.org/1999/xlink" contentStyleType="text/css" data-diagram-type="SEQUENCE" height="681px" preserveAspectRatio="none" style="width:921px;height:681px;background:#FFFFFF;" version="1.1" viewBox="0 0 921 681" width="921px" zoomAndPan="magnify"><title>UC1 &#8212; Time Polling with Status Check</title><defs/><g><text fill="#000000" font-family="sans-serif" font-size="14" font-weight="bold" lengthAdjust="spacing" textLength="300.2754" x="309.2915" y="27.9951">UC1 &#8212; Time Polling with Status Check</text><rect fill="#E6F0FF" height="521.3906" style="stroke:#181818;stroke-width:0.5;" width="100.2236" x="16" y="147.4844"/><text fill="#000000" font-family="sans-serif" font-size="13" font-weight="bold" lengthAdjust="spacing" textLength="82.9194" x="24.6521" y="159.5513">Application</text><rect fill="#F0FFF0" height="521.3906" style="stroke:#181818;stroke-width:0.5;" width="454.042" x="351.6001" y="147.4844"/><text fill="#000000" font-family="sans-serif" font-size="13" font-weight="bold" lengthAdjust="spacing" textLength="83.0337" x="537.1042" y="159.5513">score::time</text><g><title>VehicleClock</title><rect fill="#FFFFFF" height="71.2656" style="stroke:#181818;stroke-width:1;" width="10" x="436.7329" y="245.3438"/></g><g><title>VehicleClock</title><rect fill="#FFFFFF" height="137.6641" style="stroke:#181818;stroke-width:1;" width="10" x="436.7329" y="345.7422"/></g><g><title>VehicleClockIface</title><rect fill="#FFFFFF" height="79.3984" style="stroke:#181818;stroke-width:1;" width="10" x="728.0742" y="374.875"/></g><rect fill="transparent" height="159.4688" style="stroke:#000000;stroke-width:1.5;" width="314.3096" x="10" y="498.4063"/><g><title>Application</title><rect fill="transparent" height="460.6641" width="8" x="62.1118" y="214.2109"/><line style="stroke:#181818;stroke-width:0.5;stroke-dasharray:5.0,5.0;" x1="66" x2="66" y1="214.2109" y2="674.875"/></g><g><title>VehicleClock</title><rect fill="transparent" height="460.6641" width="8" x="437.7329" y="214.2109"/><line style="stroke:#181818;stroke-width:0.5;stroke-dasharray:5.0,5.0;" x1="441.6001" x2="441.6001" y1="214.2109" y2="674.875"/></g><g><title>VehicleClockIface</title><rect fill="transparent" height="460.6641" width="8" x="729.0742" y="214.2109"/><line style="stroke:#181818;stroke-width:0.5;stroke-dasharray:5.0,5.0;" x1="732.5063" x2="732.5063" y1="214.2109" y2="674.875"/></g><rect fill="#FFA07A" height="46.5938" rx="2.5" ry="2.5" style="stroke:#181818;stroke-width:0.5;" width="92.2236" x="20" y="166.6172"/><text fill="#000000" font-family="sans-serif" font-size="14" lengthAdjust="spacing" textLength="78.2236" x="27" y="186.6123">Application</text><text fill="#000000" font-family="sans-serif" font-size="14" lengthAdjust="spacing" textLength="33.7627" x="49.2305" y="202.9092">code</text><rect fill="#90EE90" height="46.5938" rx="2.5" ry="2.5" style="stroke:#181818;stroke-width:0.5;" width="172.2656" x="355.6001" y="166.6172"/><text fill="#000000" font-family="sans-serif" font-size="14" lengthAdjust="spacing" textLength="89.1885" x="397.1387" y="186.6123">VehicleClock</text><text fill="#000000" font-family="sans-serif" font-size="14" lengthAdjust="spacing" textLength="158.2656" x="362.6001" y="202.9092">(Clock&lt;VehicleTime&gt;)</text><rect fill="#F08080" height="46.5938" rx="2.5" ry="2.5" style="stroke:#181818;stroke-width:0.5;" width="137.1357" x="664.5063" y="166.6172"/><text fill="#000000" font-family="sans-serif" font-size="14" lengthAdjust="spacing" textLength="123.1357" x="671.5063" y="186.6123">VehicleClockIface</text><text fill="#000000" font-family="sans-serif" font-size="14" lengthAdjust="spacing" textLength="71.2852" x="697.4316" y="202.9092">(Backend)</text><g><title>VehicleClock</title><rect fill="#FFFFFF" height="71.2656" style="stroke:#181818;stroke-width:1;" width="10" x="436.7329" y="245.3438"/></g><g><title>VehicleClock</title><rect fill="#FFFFFF" height="137.6641" style="stroke:#181818;stroke-width:1;" width="10" x="436.7329" y="345.7422"/></g><g><title>VehicleClockIface</title><rect fill="#FFFFFF" height="79.3984" style="stroke:#181818;stroke-width:1;" width="10" x="728.0742" y="374.875"/></g><polygon fill="#181818" points="424.7329,241.3438,434.7329,245.3438,424.7329,249.3438,428.7329,245.3438" style="stroke:#181818;stroke-width:1;"/><line style="stroke:#181818;stroke-width:1;" x1="66.1118" x2="430.7329" y1="245.3438" y2="245.3438"/><text fill="#000080" font-family="sans-serif" font-size="13" font-weight="bold" lengthAdjust="spacing" textLength="29.9736" x="73.1118" y="240.2778">[01]</text><text fill="#000000" font-family="sans-serif" font-size="13" lengthAdjust="spacing" textLength="180.1846" x="107.0854" y="240.2778">VehicleClock::GetInstance()</text><line style="stroke:#181818;stroke-width:1;" x1="446.7329" x2="488.7329" y1="274.4766" y2="274.4766"/><line style="stroke:#181818;stroke-width:1;" x1="488.7329" x2="488.7329" y1="274.4766" y2="287.4766"/><line style="stroke:#181818;stroke-width:1;" x1="447.7329" x2="488.7329" y1="287.4766" y2="287.4766"/><polygon fill="#181818" points="457.7329,283.4766,447.7329,287.4766,457.7329,291.4766,453.7329,287.4766" style="stroke:#181818;stroke-width:1;"/><text fill="#000080" font-family="sans-serif" font-size="13" font-weight="bold" lengthAdjust="spacing" textLength="29.9736" x="453.7329" y="269.4106">[02]</text><text fill="#000000" font-family="sans-serif" font-size="13" lengthAdjust="spacing" textLength="147.5322" x="487.7065" y="269.4106">check cache / override</text><polygon fill="#181818" points="77.1118,312.6094,67.1118,316.6094,77.1118,320.6094,73.1118,316.6094" style="stroke:#181818;stroke-width:1;"/><line style="stroke:#181818;stroke-width:1;stroke-dasharray:2.0,2.0;" x1="71.1118" x2="440.7329" y1="316.6094" y2="316.6094"/><text fill="#000080" font-family="sans-serif" font-size="13" font-weight="bold" lengthAdjust="spacing" textLength="29.9736" x="83.1118" y="311.5435">[03]</text><text fill="#000000" font-family="sans-serif" font-size="13" lengthAdjust="spacing" textLength="185.2563" x="117.0854" y="311.5435">Clock&lt;VehicleTime&gt; handle</text><polygon fill="#181818" points="424.7329,341.7422,434.7329,345.7422,424.7329,349.7422,428.7329,345.7422" style="stroke:#181818;stroke-width:1;"/><line style="stroke:#181818;stroke-width:1;" x1="66.1118" x2="430.7329" y1="345.7422" y2="345.7422"/><text fill="#000080" font-family="sans-serif" font-size="13" font-weight="bold" lengthAdjust="spacing" textLength="29.9736" x="73.1118" y="340.6763">[04]</text><text fill="#000000" font-family="sans-serif" font-size="13" lengthAdjust="spacing" textLength="38.4541" x="107.0854" y="340.6763">Now()</text><polygon fill="#181818" points="716.0742,370.875,726.0742,374.875,716.0742,378.875,720.0742,374.875" style="stroke:#181818;stroke-width:1;"/><line style="stroke:#181818;stroke-width:1;" x1="446.7329" x2="722.0742" y1="374.875" y2="374.875"/><text fill="#000080" font-family="sans-serif" font-size="13" font-weight="bold" lengthAdjust="spacing" textLength="29.9736" x="453.7329" y="369.8091">[05]</text><text fill="#000000" font-family="sans-serif" font-size="13" lengthAdjust="spacing" textLength="38.4541" x="487.7065" y="369.8091">Now()</text><path d="M743,387.875 L743,427.875 L914,427.875 L914,397.875 L904,387.875 L743,387.875 " fill="#FEFFDD" style="stroke:#181818;stroke-width:0.5;"/><path d="M904,387.875 L904,397.875 L914,397.875 L904,387.875 " fill="#FEFFDD" style="stroke:#181818;stroke-width:0.5;"/><text fill="#000000" font-family="sans-serif" font-size="13" lengthAdjust="spacing" textLength="150.8584" x="749" y="404.9419">reads PTP SHM seqlock</text><text fill="#000000" font-family="sans-serif" font-size="13" lengthAdjust="spacing" textLength="67.3232" x="749" y="420.0747">atomically</text><polygon fill="#181818" points="457.7329,450.2734,447.7329,454.2734,457.7329,458.2734,453.7329,454.2734" style="stroke:#181818;stroke-width:1;"/><line style="stroke:#181818;stroke-width:1;stroke-dasharray:2.0,2.0;" x1="451.7329" x2="732.0742" y1="454.2734" y2="454.2734"/><text fill="#000080" font-family="sans-serif" font-size="13" font-weight="bold" lengthAdjust="spacing" textLength="29.9736" x="463.7329" y="449.2075">[06]</text><text fill="#000000" font-family="sans-serif" font-size="13" lengthAdjust="spacing" textLength="223.3677" x="497.7065" y="449.2075">ClockSnapshot{timepoint, status}</text><polygon fill="#181818" points="77.1118,479.4063,67.1118,483.4063,77.1118,487.4063,73.1118,483.4063" style="stroke:#181818;stroke-width:1;"/><line style="stroke:#181818;stroke-width:1;stroke-dasharray:2.0,2.0;" x1="71.1118" x2="440.7329" y1="483.4063" y2="483.4063"/><text fill="#000080" font-family="sans-serif" font-size="13" font-weight="bold" lengthAdjust="spacing" textLength="29.9736" x="83.1118" y="478.3403">[07]</text><text fill="#000000" font-family="sans-serif" font-size="13" lengthAdjust="spacing" textLength="312.6475" x="117.0854" y="478.3403">ClockSnapshot&lt;Timepoint, VehicleTimeStatus&gt;</text><path d="M10,498.4063 L74.4429,498.4063 L74.4429,505.5391 L64.4429,515.5391 L10,515.5391 L10,498.4063 " fill="#EEEEEE" style="stroke:#000000;stroke-width:1.5;"/><rect fill="transparent" height="159.4688" style="stroke:#000000;stroke-width:1.5;" width="314.3096" x="10" y="498.4063"/><text fill="#000000" font-family="sans-serif" font-size="13" font-weight="bold" lengthAdjust="spacing" textLength="19.4429" x="25" y="511.4731">alt</text><text fill="#000000" font-family="sans-serif" font-size="11" font-weight="bold" lengthAdjust="spacing" textLength="229.8667" x="89.4429" y="510.6167">[snapshot.Status().IsSynchronized()]</text><line style="stroke:#181818;stroke-width:1;" x1="66.1118" x2="108.1118" y1="536.6719" y2="536.6719"/><line style="stroke:#181818;stroke-width:1;" x1="108.1118" x2="108.1118" y1="536.6719" y2="549.6719"/><line style="stroke:#181818;stroke-width:1;" x1="67.1118" x2="108.1118" y1="549.6719" y2="549.6719"/><polygon fill="#181818" points="77.1118,545.6719,67.1118,549.6719,77.1118,553.6719,73.1118,549.6719" style="stroke:#181818;stroke-width:1;"/><text fill="#000080" font-family="sans-serif" font-size="13" font-weight="bold" lengthAdjust="spacing" textLength="29.9736" x="73.1118" y="531.606">[08]</text><text fill="#000000" font-family="sans-serif" font-size="13" lengthAdjust="spacing" textLength="138.5249" x="107.0854" y="531.606">snapshot.TimePoint()</text><path d="M71,562.6719 L71,587.6719 L246,587.6719 L246,572.6719 L236,562.6719 L71,562.6719 " fill="#FEFFDD" style="stroke:#181818;stroke-width:0.5;"/><path d="M236,562.6719 L236,572.6719 L246,572.6719 L236,562.6719 " fill="#FEFFDD" style="stroke:#181818;stroke-width:0.5;"/><text fill="#000000" font-family="sans-serif" font-size="13" lengthAdjust="spacing" textLength="154.7749" x="77" y="579.7388">use the timepoint value</text><line style="stroke:#000000;stroke-width:1;stroke-dasharray:2.0,2.0;" x1="10" x2="324.3096" y1="593.8047" y2="593.8047"/><text fill="#000000" font-family="sans-serif" font-size="11" font-weight="bold" lengthAdjust="spacing" textLength="116.7515" x="15" y="604.0151">[not synchronized]</text><path d="M71,612.6094 L71,652.6094 L306,652.6094 L306,622.6094 L296,612.6094 L71,612.6094 " fill="#FEFFDD" style="stroke:#181818;stroke-width:0.5;"/><path d="M296,612.6094 L296,622.6094 L306,622.6094 L296,612.6094 " fill="#FEFFDD" style="stroke:#181818;stroke-width:0.5;"/><text fill="#000000" font-family="sans-serif" font-size="13" lengthAdjust="spacing" textLength="201.811" x="77" y="629.6763">time is not synchronized yet &#8212;</text><text fill="#000000" font-family="sans-serif" font-size="13" lengthAdjust="spacing" textLength="214.7285" x="77" y="644.8091">handle this case (e.g. retry later)</text><rect fill="transparent" height="79.1875" id="_legend" rx="7.5" ry="7.5" style="stroke:#000000;stroke-width:1;" width="319.1895" x="12" y="54.2969"/><text fill="#000000" font-family="sans-serif" font-size="14" font-weight="bold" lengthAdjust="spacing" textLength="41.2139" x="21.874" y="74.292">Color</text><text fill="#000000" font-family="sans-serif" font-size="14" font-weight="bold" lengthAdjust="spacing" textLength="90.5488" x="141.0723" y="74.292">Description</text><rect fill="#FFA07A" height="16.2969" style="stroke:transparent;stroke-width:1;" width="119.1982" x="17" y="77.5938"/><text fill="#000000" font-family="sans-serif" font-size="14" lengthAdjust="spacing" textLength="35.6016" x="17" y="90.5889">&#160;&#160;&#160;&#160;&#160;&#160;&#160;&#160;</text><text fill="#000000" font-family="sans-serif" font-size="14" lengthAdjust="spacing" textLength="181.0703" x="140.6484" y="90.5889">Application business logic</text><rect fill="#90EE90" height="16.2969" style="stroke:transparent;stroke-width:1;" width="119.1982" x="17" y="93.8906"/><text fill="#000000" font-family="sans-serif" font-size="14" lengthAdjust="spacing" textLength="40.0518" x="17" y="106.8857">&#160;&#160;&#160;&#160;&#160;&#160;&#160;&#160;&#160;</text><text fill="#000000" font-family="sans-serif" font-size="14" lengthAdjust="spacing" textLength="158.833" x="140.6484" y="106.8857">score::time framework</text><rect fill="#F08080" height="16.2969" style="stroke:transparent;stroke-width:1;" width="119.1982" x="17" y="110.1875"/><text fill="#000000" font-family="sans-serif" font-size="14" lengthAdjust="spacing" textLength="40.0518" x="17" y="123.1826">&#160;&#160;&#160;&#160;&#160;&#160;&#160;&#160;&#160;</text><text fill="#000000" font-family="sans-serif" font-size="14" lengthAdjust="spacing" textLength="149.9395" x="140.6484" y="123.1826">VehicleTime backend</text><line style="stroke:#000000;stroke-width:1;" x1="17" x2="326.1895" y1="61.2969" y2="61.2969"/><line style="stroke:#000000;stroke-width:1;" x1="17" x2="326.1895" y1="77.5938" y2="77.5938"/><line style="stroke:#000000;stroke-width:1;" x1="17" x2="326.1895" y1="93.8906" y2="93.8906"/><line style="stroke:#000000;stroke-width:1;" x1="17" x2="326.1895" y1="110.1875" y2="110.1875"/><line style="stroke:#000000;stroke-width:1;" x1="17" x2="326.1895" y1="126.4844" y2="126.4844"/><line style="stroke:#000000;stroke-width:1;" x1="17" x2="17" y1="61.2969" y2="126.4844"/><line style="stroke:#000000;stroke-width:1;" x1="136.1982" x2="136.1982" y1="61.2969" y2="126.4844"/><line style="stroke:#000000;stroke-width:1;" x1="326.1895" x2="326.1895" y1="61.2969" y2="126.4844"/><!--SRC=[XLJBZjCm5DtxAwuwcrPYIjcmg3gLe4X39K2LEh1XMBZEJMFLjODzqr8U4X_15_8bN2TDwcb7GpP9x7FElUVuGPeCmiVP2_Zx-m_SwIt2mXcZxHhscWfOagGgmAn0jH4YRBGjfPTRM4crMNjNsMpcZFEmBpIXA7I6a3j7A_TDo8gShROhzD2RvCuIg0YziN9tc4vMqy-ZqPUU40RNQ3CWLuB1d0Jmy_C66jc73m-_mQ2yBaaxUpxPC2TNx_IweAKqMsUdtIIyAakZbQo9gofeYo60SMkjpfYt7l54P6PGpkDuJ36RdBtZtldDOpLdpakJCZzXePN1EjKOMFJPTSi_ZNKXE2te9Gtsu0fVvgCyh-KvSD9Abv8JJ57tLhaCUo03oBA4r7SKXxW6ZNJYWAMZS3wwb3vsEpDERUvjltvF4WlJGLrBnN58idfQQPvBXIptkl7VQBHX9BcTMevchgV7EcD8nSRZMwIv3IIjmlv0I4Lw9maRi6We2LV5RGjAyXkUWzkXzxn3Mnm3OwqnN5g5GiRb4HcUbJZlxeFRFz57w_C2TvmGrl6FZo60oxlH6AX7cGLOt2rW-VOz1FnQAySPIMxBMy2OGvrPb11jeUkajThLqieo58v-nCKldRRq349zfd-bvjhAZoRJQapkJXf9MCqLCNqiAqCGZkHX0-iFXlEmF5XLU6VrTymubTfK4sjJjUD4-KKiU4GzZ8l1eZrFLK0WNkNE9koagR2Uxr92moZ-Wf0qy1_X-jZhS4630rAyCpjWisEu2GOhoONwE5mFUHt97y1mAdvmrWtd_Gy0]--></g></svg>