<svg xmlns="http://www.w3.org/2000/svg" xmlns:xlink="http://www.w3.org/1999/xlink" contentStyleType="text/css" data-diagram-type="SEQUENCE" height="708px" preserveAspectRatio="none" style="width:906px;height:708px;background:#FFFFFF;" version="1.1" viewBox="0 0 906 708" width="906px" zoomAndPan="magnify"><title>UC1 &#8212; Time Polling with Status Check</title><defs/><g><text fill="#000000" font-family="sans-serif" font-size="14" font-weight="bold" lengthAdjust="spacing" textLength="300.2754" x="301.7915" y="27.9951">UC1 &#8212; Time Polling with Status Check</text><rect fill="#E6F0FF" height="547.8516" style="stroke:#181818;stroke-width:0.5;" width="100.2236" x="1" y="147.4844"/><text fill="#000000" font-family="sans-serif" font-size="13" font-weight="bold" lengthAdjust="spacing" textLength="82.9194" x="9.6521" y="159.5513">Application</text><rect fill="#F0FFF0" height="547.8516" style="stroke:#181818;stroke-width:0.5;" width="180.2656" x="336.6001" y="147.4844"/><text fill="#000000" font-family="sans-serif" font-size="13" font-weight="bold" lengthAdjust="spacing" textLength="166.7593" x="343.3533" y="159.5513">score::time framework</text><rect fill="#FFF0E6" height="547.8516" style="stroke:#181818;stroke-width:0.5;" width="160.8037" x="637.6724" y="147.4844"/><text fill="#000000" font-family="sans-serif" font-size="13" font-weight="bold" lengthAdjust="spacing" textLength="62.4102" x="686.8691" y="159.5513">Backend</text><g><title>VehicleClock</title><rect fill="#FFFFFF" height="71.2656" style="stroke:#181818;stroke-width:1;" width="10" x="421.7329" y="245.3438"/></g><g><title>VehicleClock</title><rect fill="#FFFFFF" height="137.6641" style="stroke:#181818;stroke-width:1;" width="10" x="421.7329" y="345.7422"/></g><g><title>VehicleClockIface</title><rect fill="#FFFFFF" height="79.3984" style="stroke:#181818;stroke-width:1;" width="10" x="713.0742" y="374.875"/></g><g><title>Application</title><rect fill="transparent" height="487.125" width="8" x="47.1118" y="214.2109"/><line style="stroke:#181818;stroke-width:0.5;stroke-dasharray:5.0,5.0;" x1="51" x2="51" y1="214.2109" y2="701.3359"/></g><g><title>VehicleClock</title><rect fill="transparent" height="487.125" width="8" x="422.7329" y="214.2109"/><line style="stroke:#181818;stroke-width:0.5;stroke-dasharray:5.0,5.0;" x1="426.6001" x2="426.6001" y1="214.2109" y2="701.3359"/></g><g><title>VehicleClockIface</title><rect fill="transparent" height="487.125" width="8" x="714.0742" y="214.2109"/><line style="stroke:#181818;stroke-width:0.5;stroke-dasharray:5.0,5.0;" x1="717.6724" x2="717.6724" y1="214.2109" y2="701.3359"/></g><rect fill="#FFA07A" height="46.5938" rx="2.5" ry="2.5" style="stroke:#181818;stroke-width:0.5;" width="92.2236" x="5" y="166.6172"/><text fill="#000000" font-family="sans-serif" font-size="14" lengthAdjust="spacing" textLength="78.2236" x="12" y="186.6123">Application</text><text fill="#000000" font-family="sans-serif" font-size="14" lengthAdjust="spacing" textLength="33.7627" x="34.2305" y="202.9092">code</text><rect fill="#90EE90" height="46.5938" rx="2.5" ry="2.5" style="stroke:#181818;stroke-width:0.5;" width="172.2656" x="340.6001" y="166.6172"/><text fill="#000000" font-family="sans-serif" font-size="14" lengthAdjust="spacing" textLength="89.1885" x="382.1387" y="186.6123">VehicleClock</text><text fill="#000000" font-family="sans-serif" font-size="14" lengthAdjust="spacing" textLength="158.2656" x="347.6001" y="202.9092">(Clock&lt;VehicleTime&gt;)</text><rect fill="#F08080" height="46.5938" rx="2.5" ry="2.5" style="stroke:#181818;stroke-width:0.5;" width="152.8037" x="641.6724" y="166.6172"/><text fill="#000000" font-family="sans-serif" font-size="14" lengthAdjust="spacing" textLength="123.1357" x="656.5063" y="186.6123">VehicleClockIface</text><text fill="#000000" font-family="sans-serif" font-size="14" lengthAdjust="spacing" textLength="138.8037" x="648.6724" y="202.9092">(prod / stub / mock)</text><g><title>VehicleClock</title><rect fill="#FFFFFF" height="71.2656" style="stroke:#181818;stroke-width:1;" width="10" x="421.7329" y="245.3438"/></g><g><title>VehicleClock</title><rect fill="#FFFFFF" height="137.6641" style="stroke:#181818;stroke-width:1;" width="10" x="421.7329" y="345.7422"/></g><g><title>VehicleClockIface</title><rect fill="#FFFFFF" height="79.3984" style="stroke:#181818;stroke-width:1;" width="10" x="713.0742" y="374.875"/></g><polygon fill="#181818" points="409.7329,241.3438,419.7329,245.3438,409.7329,249.3438,413.7329,245.3438" style="stroke:#181818;stroke-width:1;"/><line style="stroke:#181818;stroke-width:1;" x1="51.1118" x2="415.7329" y1="245.3438" y2="245.3438"/><text fill="#000080" font-family="sans-serif" font-size="13" font-weight="bold" lengthAdjust="spacing" textLength="29.9736" x="58.1118" y="240.2778">[01]</text><text fill="#000000" font-family="sans-serif" font-size="13" lengthAdjust="spacing" textLength="180.1846" x="92.0854" y="240.2778">VehicleClock::GetInstance()</text><line style="stroke:#181818;stroke-width:1;" x1="431.7329" x2="473.7329" y1="274.4766" y2="274.4766"/><line style="stroke:#181818;stroke-width:1;" x1="473.7329" x2="473.7329" y1="274.4766" y2="287.4766"/><line style="stroke:#181818;stroke-width:1;" x1="432.7329" x2="473.7329" y1="287.4766" y2="287.4766"/><polygon fill="#181818" points="442.7329,283.4766,432.7329,287.4766,442.7329,291.4766,438.7329,287.4766" style="stroke:#181818;stroke-width:1;"/><text fill="#000080" font-family="sans-serif" font-size="13" font-weight="bold" lengthAdjust="spacing" textLength="29.9736" x="438.7329" y="269.4106">[02]</text><text fill="#000000" font-family="sans-serif" font-size="13" lengthAdjust="spacing" textLength="147.5322" x="472.7065" y="269.4106">check cache / override</text><polygon fill="#181818" points="62.1118,312.6094,52.1118,316.6094,62.1118,320.6094,58.1118,316.6094" style="stroke:#181818;stroke-width:1;"/><line style="stroke:#181818;stroke-width:1;stroke-dasharray:2.0,2.0;" x1="56.1118" x2="425.7329" y1="316.6094" y2="316.6094"/><text fill="#000080" font-family="sans-serif" font-size="13" font-weight="bold" lengthAdjust="spacing" textLength="29.9736" x="68.1118" y="311.5435">[03]</text><text fill="#000000" font-family="sans-serif" font-size="13" lengthAdjust="spacing" textLength="185.2563" x="102.0854" y="311.5435">Clock&lt;VehicleTime&gt; handle</text><polygon fill="#181818" points="409.7329,341.7422,419.7329,345.7422,409.7329,349.7422,413.7329,345.7422" style="stroke:#181818;stroke-width:1;"/><line style="stroke:#181818;stroke-width:1;" x1="51.1118" x2="415.7329" y1="345.7422" y2="345.7422"/><text fill="#000080" font-family="sans-serif" font-size="13" font-weight="bold" lengthAdjust="spacing" textLength="29.9736" x="58.1118" y="340.6763">[04]</text><text fill="#000000" font-family="sans-serif" font-size="13" lengthAdjust="spacing" textLength="38.4541" x="92.0854" y="340.6763">Now()</text><polygon fill="#181818" points="701.0742,370.875,711.0742,374.875,701.0742,378.875,705.0742,374.875" style="stroke:#181818;stroke-width:1;"/><line style="stroke:#181818;stroke-width:1;" x1="431.7329" x2="707.0742" y1="374.875" y2="374.875"/><text fill="#000080" font-family="sans-serif" font-size="13" font-weight="bold" lengthAdjust="spacing" textLength="29.9736" x="438.7329" y="369.8091">[05]</text><text fill="#000000" font-family="sans-serif" font-size="13" lengthAdjust="spacing" textLength="38.4541" x="472.7065" y="369.8091">Now()</text><path d="M728,387.875 L728,427.875 L899,427.875 L899,397.875 L889,387.875 L728,387.875 " fill="#FEFFDD" style="stroke:#181818;stroke-width:0.5;"/><path d="M889,387.875 L889,397.875 L899,397.875 L889,387.875 " fill="#FEFFDD" style="stroke:#181818;stroke-width:0.5;"/><text fill="#000000" font-family="sans-serif" font-size="13" lengthAdjust="spacing" textLength="150.8584" x="734" y="404.9419">reads PTP SHM seqlock</text><text fill="#000000" font-family="sans-serif" font-size="13" lengthAdjust="spacing" textLength="67.3232" x="734" y="420.0747">atomically</text><polygon fill="#181818" points="442.7329,450.2734,432.7329,454.2734,442.7329,458.2734,438.7329,454.2734" style="stroke:#181818;stroke-width:1;"/><line style="stroke:#181818;stroke-width:1;stroke-dasharray:2.0,2.0;" x1="436.7329" x2="717.0742" y1="454.2734" y2="454.2734"/><text fill="#000080" font-family="sans-serif" font-size="13" font-weight="bold" lengthAdjust="spacing" textLength="29.9736" x="448.7329" y="449.2075">[06]</text><text fill="#000000" font-family="sans-serif" font-size="13" lengthAdjust="spacing" textLength="223.3677" x="482.7065" y="449.2075">ClockSnapshot{timepoint, status}</text><polygon fill="#181818" points="62.1118,479.4063,52.1118,483.4063,62.1118,487.4063,58.1118,483.4063" style="stroke:#181818;stroke-width:1;"/><line style="stroke:#181818;stroke-width:1;stroke-dasharray:2.0,2.0;" x1="56.1118" x2="425.7329" y1="483.4063" y2="483.4063"/><text fill="#000080" font-family="sans-serif" font-size="13" font-weight="bold" lengthAdjust="spacing" textLength="29.9736" x="68.1118" y="478.3403">[07]</text><text fill="#000000" font-family="sans-serif" font-size="13" lengthAdjust="spacing" textLength="312.6475" x="102.0854" y="478.3403">ClockSnapshot&lt;Timepoint, VehicleTimeStatus&gt;</text><line style="stroke:#181818;stroke-width:1;" x1="51.1118" x2="93.1118" y1="512.5391" y2="512.5391"/><line style="stroke:#181818;stroke-width:1;" x1="93.1118" x2="93.1118" y1="512.5391" y2="525.5391"/><line style="stroke:#181818;stroke-width:1;" x1="52.1118" x2="93.1118" y1="525.5391" y2="525.5391"/><polygon fill="#181818" points="62.1118,521.5391,52.1118,525.5391,62.1118,529.5391,58.1118,525.5391" style="stroke:#181818;stroke-width:1;"/><text fill="#000080" font-family="sans-serif" font-size="13" font-weight="bold" lengthAdjust="spacing" textLength="29.9736" x="58.1118" y="507.4731">[08]</text><text fill="#000000" font-family="sans-serif" font-size="13" lengthAdjust="spacing" textLength="227.6714" x="92.0854" y="507.4731">snapshot.Status().IsSynchronized()</text><path d="M56,538.5391 L56,608.5391 L287,608.5391 L287,548.5391 L277,538.5391 L56,538.5391 " fill="#FEFFDD" style="stroke:#181818;stroke-width:0.5;"/><path d="M277,538.5391 L277,548.5391 L287,548.5391 L277,538.5391 " fill="#FEFFDD" style="stroke:#181818;stroke-width:0.5;"/><text fill="#000000" font-family="sans-serif" font-size="13" lengthAdjust="spacing" textLength="202.0522" x="62" y="555.606">true  &#8594; kSynchronized set AND</text><text fill="#000000" font-family="sans-serif" font-size="13" lengthAdjust="spacing" textLength="177.4741" x="95.0586" y="570.7388">kTimeOut / kLeap* NOT set</text><text fill="#000000" font-family="sans-serif" font-size="13" lengthAdjust="spacing" textLength="4.1323" x="62" y="585.8716">&#160;</text><text fill="#000000" font-family="sans-serif" font-size="13" lengthAdjust="spacing" textLength="162.3096" x="62" y="601.0044">false &#8594; use local fallback</text><line style="stroke:#181818;stroke-width:1;" x1="51.1118" x2="93.1118" y1="635.2031" y2="635.2031"/><line style="stroke:#181818;stroke-width:1;" x1="93.1118" x2="93.1118" y1="635.2031" y2="648.2031"/><line style="stroke:#181818;stroke-width:1;" x1="52.1118" x2="93.1118" y1="648.2031" y2="648.2031"/><polygon fill="#181818" points="62.1118,644.2031,52.1118,648.2031,62.1118,652.2031,58.1118,648.2031" style="stroke:#181818;stroke-width:1;"/><text fill="#000080" font-family="sans-serif" font-size="13" font-weight="bold" lengthAdjust="spacing" textLength="29.9736" x="58.1118" y="630.1372">[09]</text><text fill="#000000" font-family="sans-serif" font-size="13" lengthAdjust="spacing" textLength="138.5249" x="92.0854" y="630.1372">snapshot.TimePoint()</text><path d="M56,661.2031 L56,686.2031 L423,686.2031 L423,671.2031 L413,661.2031 L56,661.2031 " fill="#FEFFDD" style="stroke:#181818;stroke-width:0.5;"/><path d="M413,661.2031 L413,671.2031 L423,671.2031 L413,661.2031 " fill="#FEFFDD" style="stroke:#181818;stroke-width:0.5;"/><text fill="#000000" font-family="sans-serif" font-size="13" lengthAdjust="spacing" textLength="346.8423" x="62" y="678.27">std::chrono::time_point&lt;VehicleTime, nanoseconds&gt;</text><rect fill="transparent" height="79.1875" id="_legend" rx="7.5" ry="7.5" style="stroke:#000000;stroke-width:1;" width="296.9316" x="12" y="54.2969"/><text fill="#000000" font-family="sans-serif" font-size="14" font-weight="bold" lengthAdjust="spacing" textLength="41.2139" x="21.874" y="74.292">Color</text><text fill="#000000" font-family="sans-serif" font-size="14" font-weight="bold" lengthAdjust="spacing" textLength="90.5488" x="141.0723" y="74.292">Description</text><rect fill="#FFA07A" height="16.2969" style="stroke:transparent;stroke-width:1;" width="119.1982" x="17" y="77.5938"/><text fill="#000000" font-family="sans-serif" font-size="14" lengthAdjust="spacing" textLength="35.6016" x="17" y="90.5889">&#160;&#160;&#160;&#160;&#160;&#160;&#160;&#160;</text><text fill="#000000" font-family="sans-serif" font-size="14" lengthAdjust="spacing" textLength="116.4365" x="140.6484" y="90.5889">Application code</text><rect fill="#90EE90" height="16.2969" style="stroke:transparent;stroke-width:1;" width="119.1982" x="17" y="93.8906"/><text fill="#000000" font-family="sans-serif" font-size="14" lengthAdjust="spacing" textLength="40.0518" x="17" y="106.8857">&#160;&#160;&#160;&#160;&#160;&#160;&#160;&#160;&#160;</text><text fill="#000000" font-family="sans-serif" font-size="14" lengthAdjust="spacing" textLength="158.833" x="140.6484" y="106.8857">score::time framework</text><rect fill="#F08080" height="16.2969" style="stroke:transparent;stroke-width:1;" width="119.1982" x="17" y="110.1875"/><text fill="#000000" font-family="sans-serif" font-size="14" lengthAdjust="spacing" textLength="40.0518" x="17" y="123.1826">&#160;&#160;&#160;&#160;&#160;&#160;&#160;&#160;&#160;</text><text fill="#000000" font-family="sans-serif" font-size="14" lengthAdjust="spacing" textLength="151.2178" x="140.6484" y="123.1826">Backend (production)</text><line style="stroke:#000000;stroke-width:1;" x1="17" x2="303.9316" y1="61.2969" y2="61.2969"/><line style="stroke:#000000;stroke-width:1;" x1="17" x2="303.9316" y1="77.5938" y2="77.5938"/><line style="stroke:#000000;stroke-width:1;" x1="17" x2="303.9316" y1="93.8906" y2="93.8906"/><line style="stroke:#000000;stroke-width:1;" x1="17" x2="303.9316" y1="110.1875" y2="110.1875"/><line style="stroke:#000000;stroke-width:1;" x1="17" x2="303.9316" y1="126.4844" y2="126.4844"/><line style="stroke:#000000;stroke-width:1;" x1="17" x2="17" y1="61.2969" y2="126.4844"/><line style="stroke:#000000;stroke-width:1;" x1="136.1982" x2="136.1982" y1="61.2969" y2="126.4844"/><line style="stroke:#000000;stroke-width:1;" x1="303.9316" x2="303.9316" y1="61.2969" y2="126.4844"/><!--SRC=[VLJBRjim4BppAnREnIwIrBtaO3W6KWT80wI90RkzD4L1KokB4CrLIIfk-W1wwWSK_S9yIPUI7JFEGnT2ozsPsU6IGGU3y67y1kv-_uEPNY9Co1Xj5x3IeO1faA7sC2vGbKBuKjjAEhc4kLJbmb5jip4PSh0gT41Hw0mX9mfp-YPa7SZMopaww0npiW5KJ3ssykPsD9oFFlNxdpj265oWpI1G1GRp882_dyVGmZxyE7oANZbT1KqsYRT5mxqBlIZ2L9ebsT7z9fnKbT5ADZMAME4JHMSESLl3HLwHmy4WH4ToxXXNvCgTeZ4vQTAYj-nARAPRESfg5HbxaObZRPj2i3FGIHHrO0-FydwUDyXiRj1ALvBTIhEkRHJU0Ub1LXMaZKPmY7wtq4_gPf98aVSVatp4GYk3OqEglBRTPXskWt4SHhs6LSKu95xjqAuxZqHCWqSl4vtdKY6pHPlWDVXGptbPyaxBDb_xcDYyvOi678pMYWQGuWu6PnZEhG_IAkpsXEGZk941ssJHbYIrAeurACahyzCDEiSJlCdZnCWrWCUcG27ZaOeCToXsrLtIwWKTcpuVvQqtX2N-ST44eFm-6hrrA3CFaza4fk_UWyUl3NBSaO6MF3R6t3QUHGYn8Jf8f3LTJQsiV47XHnoOYhGD-tmSySx_IflRC3_fp0PZEDjY96QrJyZeUQzQABz6EMppkxt3Sp-zjQfmPFLtpDYUXsvmMTDlS3LVwRi_Vw5CyzcJ02UNfo9zGSeewAeEVDhb1Shg5LnUpMAcQD9oQJmsK3MlB5AQ63En_QsPp-YEq9FO_RDAVSW6WqOWjJVqI-DMEbdxOAKbZufinfxTS_u7]--></g></svg>