<svg xmlns="http://www.w3.org/2000/svg" xmlns:xlink="http://www.w3.org/1999/xlink" contentStyleType="text/css" data-diagram-type="CLASS" height="1196px" preserveAspectRatio="none" style="width:1545px;height:1196px;background:#FFFFFF;" version="1.1" viewBox="0 0 1545 1196" width="1545px" zoomAndPan="magnify"><title>score::time &#8212; Class Overview</title><defs/><g><text fill="#000000" font-family="sans-serif" font-size="14" font-weight="bold" lengthAdjust="spacing" textLength="233.0098" x="649.083" y="22.9951">score::time &#8212; Class Overview</text><rect fill="transparent" height="79.1875" id="_legend" rx="7.5" ry="7.5" style="stroke:#000000;stroke-width:1;" width="301.7236" x="12" y="49.2969"/><rect fill="#90EE90" height="16.2969" style="stroke:transparent;stroke-width:1;" width="40.0518" x="17" y="56.2969"/><text fill="#000000" font-family="sans-serif" font-size="14" lengthAdjust="spacing" textLength="17.8008" x="17" y="69.292">&#160;&#160;&#160;&#160;</text><text fill="#000000" font-family="sans-serif" font-size="14" lengthAdjust="spacing" textLength="164.541" x="61.502" y="69.292">Public framework types</text><rect fill="#F5DEB3" height="16.2969" style="stroke:transparent;stroke-width:1;" width="40.0518" x="17" y="72.5938"/><text fill="#000000" font-family="sans-serif" font-size="14" lengthAdjust="spacing" textLength="40.0518" x="17" y="85.5889">&#160;&#160;&#160;&#160;&#160;&#160;&#160;&#160;&#160;</text><text fill="#000000" font-family="sans-serif" font-size="14" lengthAdjust="spacing" textLength="229.4209" x="61.502" y="85.5889">Time-domain tag structs (public)</text><rect fill="#ADD8E6" height="16.2969" style="stroke:transparent;stroke-width:1;" width="40.0518" x="17" y="88.8906"/><text fill="#000000" font-family="sans-serif" font-size="14" lengthAdjust="spacing" textLength="22.251" x="17" y="101.8857">&#160;&#160;&#160;&#160;&#160;</text><text fill="#000000" font-family="sans-serif" font-size="14" lengthAdjust="spacing" textLength="209.1318" x="61.502" y="101.8857">PTP notification types (public)</text><rect fill="#F08080" height="16.2969" style="stroke:transparent;stroke-width:1;" width="40.0518" x="17" y="105.1875"/><text fill="#000000" font-family="sans-serif" font-size="14" lengthAdjust="spacing" textLength="17.8008" x="17" y="118.1826">&#160;&#160;&#160;&#160;</text><text fill="#000000" font-family="sans-serif" font-size="14" lengthAdjust="spacing" textLength="195.1182" x="61.502" y="118.1826">Internal interfaces (details/)</text><line style="stroke:#000000;stroke-width:1;" x1="17" x2="308.7236" y1="56.2969" y2="56.2969"/><line style="stroke:#000000;stroke-width:1;" x1="17" x2="308.7236" y1="72.5938" y2="72.5938"/><line style="stroke:#000000;stroke-width:1;" x1="17" x2="308.7236" y1="88.8906" y2="88.8906"/><line style="stroke:#000000;stroke-width:1;" x1="17" x2="308.7236" y1="105.1875" y2="105.1875"/><line style="stroke:#000000;stroke-width:1;" x1="17" x2="308.7236" y1="121.4844" y2="121.4844"/><line style="stroke:#000000;stroke-width:1;" x1="17" x2="17" y1="56.2969" y2="121.4844"/><line style="stroke:#000000;stroke-width:1;" x1="57.0518" x2="57.0518" y1="56.2969" y2="121.4844"/><line style="stroke:#000000;stroke-width:1;" x1="308.7236" x2="308.7236" y1="56.2969" y2="121.4844"/><!--class clock--><g id="elem_clock"><rect codeLine="16" fill="#90EE90" height="194.6719" id="clock" rx="2.5" ry="2.5" style="stroke:#888888;stroke-width:0.5;" width="428.124" x="911.5" y="325.4844"/><ellipse cx="1089.144" cy="341.4844" fill="#ADD1B2" rx="11" ry="11" style="stroke:#181818;stroke-width:1;"/><path d="M1092.1128,347.125 Q1091.5347,347.4219 1090.894,347.5625 Q1090.2534,347.7188 1089.5503,347.7188 Q1087.0503,347.7188 1085.7222,346.0781 Q1084.4097,344.4219 1084.4097,341.2969 Q1084.4097,338.1719 1085.7222,336.5156 Q1087.0503,334.8594 1089.5503,334.8594 Q1090.2534,334.8594 1090.894,335.0156 Q1091.5503,335.1719 1092.1128,335.4688 L1092.1128,338.1875 Q1091.4878,337.6094 1090.894,337.3438 Q1090.3003,337.0625 1089.6753,337.0625 Q1088.3315,337.0625 1087.644,338.1406 Q1086.9565,339.2031 1086.9565,341.2969 Q1086.9565,343.3906 1087.644,344.4688 Q1088.3315,345.5313 1089.6753,345.5313 Q1090.3003,345.5313 1090.894,345.2656 Q1091.4878,344.9844 1092.1128,344.4063 L1092.1128,347.125 Z " fill="#000000"/><text fill="#000000" font-family="sans-serif" font-size="14" lengthAdjust="spacing" textLength="38.0352" x="1109.644" y="346.3311">Clock</text><rect fill="#FAFAFA" height="15.9688" style="stroke:#888888;stroke-width:1;stroke-dasharray:2.0,2.0;" width="24.3008" x="1318.3232" y="322.4844"/><text fill="#000000" font-family="sans-serif" font-size="12" font-style="italic" lengthAdjust="spacing" textLength="22.3008" x="1319.3232" y="334.623">Tag</text><line style="stroke:#888888;stroke-width:0.5;" x1="912.5" x2="1338.624" y1="357.4844" y2="357.4844"/><ellipse cx="922.5" cy="371.1328" fill="#84BE84" rx="3" ry="3" style="stroke:#038048;stroke-width:1;"/><text fill="#000000" font-family="sans-serif" font-size="14" lengthAdjust="spacing" text-decoration="underline" textLength="196.5537" x="931.5" y="374.4795">GetInstance() : Clock&lt;Tag&gt;</text><ellipse cx="922.5" cy="387.4297" fill="#84BE84" rx="3" ry="3" style="stroke:#038048;stroke-width:1;"/><text fill="#000000" font-family="sans-serif" font-size="14" lengthAdjust="spacing" textLength="120.4766" x="931.5" y="390.7764">Now() : Snapshot</text><ellipse cx="922.5" cy="403.7266" fill="#84BE84" rx="3" ry="3" style="stroke:#038048;stroke-width:1;"/><text fill="#000000" font-family="sans-serif" font-size="14" lengthAdjust="spacing" textLength="237.4395" x="931.5" y="407.0732">Subscribe&lt;EventType&gt;(cb) : void</text><ellipse cx="922.5" cy="420.0234" fill="#84BE84" rx="3" ry="3" style="stroke:#038048;stroke-width:1;"/><text fill="#000000" font-family="sans-serif" font-size="14" lengthAdjust="spacing" textLength="238.3828" x="931.5" y="423.3701">Unsubscribe&lt;EventType&gt;() : void</text><ellipse cx="922.5" cy="436.3203" fill="#84BE84" rx="3" ry="3" style="stroke:#038048;stroke-width:1;"/><text fill="#000000" font-family="sans-serif" font-size="14" lengthAdjust="spacing" textLength="269.7939" x="931.5" y="439.667">IsAvailable() : bool  [VehicleTime only]</text><ellipse cx="922.5" cy="452.6172" fill="#84BE84" rx="3" ry="3" style="stroke:#038048;stroke-width:1;"/><text fill="#000000" font-family="sans-serif" font-size="14" lengthAdjust="spacing" textLength="402.124" x="931.5" y="455.9639">WaitUntilAvailable(token, until) : bool  [VehicleTime only]</text><line style="stroke:#888888;stroke-width:1;" x1="912.5" x2="1338.624" y1="463.2656" y2="463.2656"/><rect fill="transparent" height="6" style="stroke:#C82930;stroke-width:1;" width="6" x="919.5" y="473.9141"/><text fill="#000000" font-family="sans-serif" font-size="14" lengthAdjust="spacing" textLength="209.877" x="931.5" y="480.2607">impl_ : shared_ptr&lt;Backend&gt;</text><rect fill="transparent" height="6" style="stroke:#C82930;stroke-width:1;" width="6" x="919.5" y="490.2109"/><text fill="#000000" font-family="sans-serif" font-size="14" lengthAdjust="spacing" text-decoration="underline" textLength="276.0898" x="931.5" y="496.5576">instance_cache_ : weak_ptr&lt;Backend&gt;</text><rect fill="transparent" height="6" style="stroke:#C82930;stroke-width:1;" width="6" x="919.5" y="506.5078"/><text fill="#000000" font-family="sans-serif" font-size="14" lengthAdjust="spacing" text-decoration="underline" textLength="304.2471" x="931.5" y="512.8545">instance_override_ : shared_ptr&lt;Backend&gt;</text></g><!--class guard--><g id="elem_guard"><rect codeLine="29" fill="#90EE90" height="96.8906" id="guard" rx="2.5" ry="2.5" style="stroke:#888888;stroke-width:0.5;" width="399.5566" x="711.5" y="151.4844"/><ellipse cx="782.3052" cy="167.4844" fill="#ADD1B2" rx="11" ry="11" style="stroke:#181818;stroke-width:1;"/><path d="M785.2739,173.125 Q784.6958,173.4219 784.0552,173.5625 Q783.4146,173.7188 782.7114,173.7188 Q780.2114,173.7188 778.8833,172.0781 Q777.5708,170.4219 777.5708,167.2969 Q777.5708,164.1719 778.8833,162.5156 Q780.2114,160.8594 782.7114,160.8594 Q783.4146,160.8594 784.0552,161.0156 Q784.7114,161.1719 785.2739,161.4688 L785.2739,164.1875 Q784.6489,163.6094 784.0552,163.3438 Q783.4614,163.0625 782.8364,163.0625 Q781.4927,163.0625 780.8052,164.1406 Q780.1177,165.2031 780.1177,167.2969 Q780.1177,169.3906 780.8052,170.4688 Q781.4927,171.5313 782.8364,171.5313 Q783.4614,171.5313 784.0552,171.2656 Q784.6489,170.9844 785.2739,170.4063 L785.2739,173.125 Z " fill="#000000"/><text fill="#000000" font-family="sans-serif" font-size="14" lengthAdjust="spacing" textLength="223.1455" x="802.8052" y="172.3311">test_utils::ScopedClockOverride</text><rect fill="#FAFAFA" height="15.9688" style="stroke:#888888;stroke-width:1;stroke-dasharray:2.0,2.0;" width="24.3008" x="1089.7559" y="148.4844"/><text fill="#000000" font-family="sans-serif" font-size="12" font-style="italic" lengthAdjust="spacing" textLength="22.3008" x="1090.7559" y="160.623">Tag</text><line style="stroke:#888888;stroke-width:0.5;" x1="712.5" x2="1110.0566" y1="183.4844" y2="183.4844"/><ellipse cx="722.5" cy="197.1328" fill="#84BE84" rx="3" ry="3" style="stroke:#038048;stroke-width:1;"/><text fill="#000000" font-family="sans-serif" font-size="14" lengthAdjust="spacing" textLength="373.5566" x="731.5" y="200.4795">ScopedClockOverride(const shared_ptr&lt;Backend&gt;&amp;)</text><ellipse cx="722.5" cy="213.4297" fill="#84BE84" rx="3" ry="3" style="stroke:#038048;stroke-width:1;"/><text fill="#000000" font-family="sans-serif" font-size="14" lengthAdjust="spacing" textLength="173.0449" x="731.5" y="216.7764">~ScopedClockOverride()</text><line style="stroke:#888888;stroke-width:1;" x1="712.5" x2="1110.0566" y1="224.0781" y2="224.0781"/><text fill="#000000" font-family="sans-serif" font-size="14" lengthAdjust="spacing" textLength="185.124" x="717.5" y="241.0732">move-only, non-re-entrant</text></g><!--class factory--><g id="elem_factory"><rect codeLine="36" fill="#90EE90" height="80.5938" id="factory" rx="2.5" ry="2.5" style="stroke:#888888;stroke-width:0.5;" width="387.6758" x="1146.5" y="159.4844"/><ellipse cx="1226.356" cy="175.4844" fill="#ADD1B2" rx="11" ry="11" style="stroke:#181818;stroke-width:1;"/><path d="M1229.3247,181.125 Q1228.7466,181.4219 1228.106,181.5625 Q1227.4653,181.7188 1226.7622,181.7188 Q1224.2622,181.7188 1222.9341,180.0781 Q1221.6216,178.4219 1221.6216,175.2969 Q1221.6216,172.1719 1222.9341,170.5156 Q1224.2622,168.8594 1226.7622,168.8594 Q1227.4653,168.8594 1228.106,169.0156 Q1228.7622,169.1719 1229.3247,169.4688 L1229.3247,172.1875 Q1228.6997,171.6094 1228.106,171.3438 Q1227.5122,171.0625 1226.8872,171.0625 Q1225.5435,171.0625 1224.856,172.1406 Q1224.1685,173.2031 1224.1685,175.2969 Q1224.1685,177.3906 1224.856,178.4688 Q1225.5435,179.5313 1226.8872,179.5313 Q1227.5122,179.5313 1228.106,179.2656 Q1228.6997,178.9844 1229.3247,178.4063 L1229.3247,181.125 Z " fill="#000000"/><text fill="#000000" font-family="sans-serif" font-size="14" lengthAdjust="spacing" textLength="193.1631" x="1246.856" y="180.3311">test_utils::ClockTestFactory</text><rect fill="#FAFAFA" height="15.9688" style="stroke:#888888;stroke-width:1;stroke-dasharray:2.0,2.0;" width="24.3008" x="1512.875" y="156.4844"/><text fill="#000000" font-family="sans-serif" font-size="12" font-style="italic" lengthAdjust="spacing" textLength="22.3008" x="1513.875" y="168.623">Tag</text><line style="stroke:#888888;stroke-width:0.5;" x1="1147.5" x2="1533.1758" y1="191.4844" y2="191.4844"/><ellipse cx="1157.5" cy="205.1328" fill="#84BE84" rx="3" ry="3" style="stroke:#038048;stroke-width:1;"/><text fill="#000000" font-family="sans-serif" font-size="14" lengthAdjust="spacing" text-decoration="underline" textLength="361.6758" x="1166.5" y="208.4795">Make(const shared_ptr&lt;Backend&gt;&amp;) : Clock&lt;Tag&gt;</text><line style="stroke:#888888;stroke-width:1;" x1="1147.5" x2="1533.1758" y1="215.7813" y2="215.7813"/><text fill="#000000" font-family="sans-serif" font-size="14" lengthAdjust="spacing" textLength="173.25" x="1152.5" y="232.7764">all-static, no global state</text></g><!--class snapshot--><g id="elem_snapshot"><rect codeLine="42" fill="#90EE90" height="80.5938" id="snapshot" rx="2.5" ry="2.5" style="stroke:#888888;stroke-width:0.5;" width="260.3496" x="120.5" y="637.9844"/><ellipse cx="135.5" cy="653.9844" fill="#ADD1B2" rx="11" ry="11" style="stroke:#181818;stroke-width:1;"/><path d="M138.4688,659.625 Q137.8906,659.9219 137.25,660.0625 Q136.6094,660.2188 135.9063,660.2188 Q133.4063,660.2188 132.0781,658.5781 Q130.7656,656.9219 130.7656,653.7969 Q130.7656,650.6719 132.0781,649.0156 Q133.4063,647.3594 135.9063,647.3594 Q136.6094,647.3594 137.25,647.5156 Q137.9063,647.6719 138.4688,647.9688 L138.4688,650.6875 Q137.8438,650.1094 137.25,649.8438 Q136.6563,649.5625 136.0313,649.5625 Q134.6875,649.5625 134,650.6406 Q133.3125,651.7031 133.3125,653.7969 Q133.3125,655.8906 134,656.9688 Q134.6875,658.0313 136.0313,658.0313 Q136.6563,658.0313 137.25,657.7656 Q137.8438,657.4844 138.4688,656.9063 L138.4688,659.625 Z " fill="#000000"/><text fill="#000000" font-family="sans-serif" font-size="14" lengthAdjust="spacing" textLength="103.4824" x="149.5" y="658.8311">ClockSnapshot</text><rect fill="#FAFAFA" height="15.9688" style="stroke:#888888;stroke-width:1;stroke-dasharray:2.0,2.0;" width="122.8672" x="260.9824" y="634.9844"/><text fill="#000000" font-family="sans-serif" font-size="12" font-style="italic" lengthAdjust="spacing" textLength="120.8672" x="261.9824" y="647.123">TimepointT, StatusT</text><line style="stroke:#888888;stroke-width:0.5;" x1="121.5" x2="379.8496" y1="669.9844" y2="669.9844"/><line style="stroke:#888888;stroke-width:0.5;" x1="121.5" x2="379.8496" y1="677.9844" y2="677.9844"/><ellipse cx="131.5" cy="691.6328" fill="#84BE84" rx="3" ry="3" style="stroke:#038048;stroke-width:1;"/><text fill="#000000" font-family="sans-serif" font-size="14" lengthAdjust="spacing" textLength="173.4414" x="140.5" y="694.9795">TimePoint() : TimepointT</text><ellipse cx="131.5" cy="707.9297" fill="#84BE84" rx="3" ry="3" style="stroke:#038048;stroke-width:1;"/><text fill="#000000" font-family="sans-serif" font-size="14" lengthAdjust="spacing" textLength="122.3154" x="140.5" y="711.2764">Status() : StatusT</text></g><!--class status--><g id="elem_status"><rect codeLine="47" fill="#90EE90" height="145.7813" id="status" rx="2.5" ry="2.5" style="stroke:#888888;stroke-width:0.5;" width="392.0234" x="54.5" y="1043.4844"/><ellipse cx="169.4287" cy="1059.4844" fill="#ADD1B2" rx="11" ry="11" style="stroke:#181818;stroke-width:1;"/><path d="M172.3975,1065.125 Q171.8193,1065.4219 171.1787,1065.5625 Q170.5381,1065.7188 169.835,1065.7188 Q167.335,1065.7188 166.0068,1064.0781 Q164.6943,1062.4219 164.6943,1059.2969 Q164.6943,1056.1719 166.0068,1054.5156 Q167.335,1052.8594 169.835,1052.8594 Q170.5381,1052.8594 171.1787,1053.0156 Q171.835,1053.1719 172.3975,1053.4688 L172.3975,1056.1875 Q171.7725,1055.6094 171.1787,1055.3438 Q170.585,1055.0625 169.96,1055.0625 Q168.6162,1055.0625 167.9287,1056.1406 Q167.2412,1057.2031 167.2412,1059.2969 Q167.2412,1061.3906 167.9287,1062.4688 Q168.6162,1063.5313 169.96,1063.5313 Q170.585,1063.5313 171.1787,1063.2656 Q171.7725,1062.9844 172.3975,1062.4063 L172.3975,1065.125 Z " fill="#000000"/><text fill="#000000" font-family="sans-serif" font-size="14" lengthAdjust="spacing" textLength="82.6465" x="189.9287" y="1064.3311">ClockStatus</text><rect fill="#FAFAFA" height="15.9688" style="stroke:#888888;stroke-width:1;stroke-dasharray:2.0,2.0;" width="69.0195" x="380.5039" y="1040.4844"/><text fill="#000000" font-family="sans-serif" font-size="12" font-style="italic" lengthAdjust="spacing" textLength="67.0195" x="381.5039" y="1052.623">FlagEnumT</text><line style="stroke:#888888;stroke-width:0.5;" x1="55.5" x2="445.5234" y1="1075.4844" y2="1075.4844"/><line style="stroke:#888888;stroke-width:0.5;" x1="55.5" x2="445.5234" y1="1083.4844" y2="1083.4844"/><ellipse cx="65.5" cy="1097.1328" fill="#84BE84" rx="3" ry="3" style="stroke:#038048;stroke-width:1;"/><text fill="#000000" font-family="sans-serif" font-size="14" lengthAdjust="spacing" textLength="165.1152" x="74.5" y="1100.4795">IsFlagActive(flag) : bool</text><ellipse cx="65.5" cy="1113.4297" fill="#84BE84" rx="3" ry="3" style="stroke:#038048;stroke-width:1;"/><text fill="#000000" font-family="sans-serif" font-size="14" lengthAdjust="spacing" textLength="222.3867" x="74.5" y="1116.7764">IsAnyOfFlagsActive(flags) : bool</text><ellipse cx="65.5" cy="1129.7266" fill="#84BE84" rx="3" ry="3" style="stroke:#038048;stroke-width:1;"/><text fill="#000000" font-family="sans-serif" font-size="14" lengthAdjust="spacing" textLength="366.0234" x="74.5" y="1133.0732">IsSynchronized() : bool  [VehicleTime specialization]</text><ellipse cx="65.5" cy="1146.0234" fill="#84BE84" rx="3" ry="3" style="stroke:#038048;stroke-width:1;"/><text fill="#000000" font-family="sans-serif" font-size="14" lengthAdjust="spacing" textLength="341.8994" x="74.5" y="1149.3701">IsValid() : bool          [VehicleTime specialization]</text><ellipse cx="65.5" cy="1162.3203" fill="#84BE84" rx="3" ry="3" style="stroke:#038048;stroke-width:1;"/><text fill="#000000" font-family="sans-serif" font-size="14" lengthAdjust="spacing" textLength="137.2109" x="74.5" y="1165.667">AddFlag(flag) : void</text><ellipse cx="65.5" cy="1178.6172" fill="#84BE84" rx="3" ry="3" style="stroke:#038048;stroke-width:1;"/><text fill="#000000" font-family="sans-serif" font-size="14" lengthAdjust="spacing" textLength="146.4736" x="74.5" y="1181.9639">ClearFlag(flag) : void</text></g><!--class vtag--><g id="elem_vtag"><rect codeLine="57" fill="#F5DEB3" height="129.4844" id="vtag" rx="2.5" ry="2.5" style="stroke:#888888;stroke-width:0.5;" width="368.002" x="415.5" y="613.9844"/><ellipse cx="552.3281" cy="629.9844" fill="#ADD1B2" rx="11" ry="11" style="stroke:#181818;stroke-width:1;"/><path d="M555.2969,635.625 Q554.7188,635.9219 554.0781,636.0625 Q553.4375,636.2188 552.7344,636.2188 Q550.2344,636.2188 548.9063,634.5781 Q547.5938,632.9219 547.5938,629.7969 Q547.5938,626.6719 548.9063,625.0156 Q550.2344,623.3594 552.7344,623.3594 Q553.4375,623.3594 554.0781,623.5156 Q554.7344,623.6719 555.2969,623.9688 L555.2969,626.6875 Q554.6719,626.1094 554.0781,625.8438 Q553.4844,625.5625 552.8594,625.5625 Q551.5156,625.5625 550.8281,626.6406 Q550.1406,627.7031 550.1406,629.7969 Q550.1406,631.8906 550.8281,632.9688 Q551.5156,634.0313 552.8594,634.0313 Q553.4844,634.0313 554.0781,633.7656 Q554.6719,633.4844 555.2969,632.9063 L555.2969,635.625 Z " fill="#000000"/><text fill="#000000" font-family="sans-serif" font-size="14" lengthAdjust="spacing" textLength="85.8457" x="572.8281" y="634.8311">VehicleTime</text><line style="stroke:#888888;stroke-width:0.5;" x1="416.5" x2="782.502" y1="645.9844" y2="645.9844"/><ellipse cx="426.5" cy="659.6328" fill="transparent" rx="3" ry="3" style="stroke:#038048;stroke-width:1;"/><text fill="#000000" font-family="sans-serif" font-size="14" lengthAdjust="spacing" textLength="118.4668" x="435.5" y="662.9795">enum StatusFlag</text><ellipse cx="426.5" cy="675.9297" fill="transparent" rx="3" ry="3" style="stroke:#038048;stroke-width:1;"/><text fill="#000000" font-family="sans-serif" font-size="14" lengthAdjust="spacing" textLength="215.8174" x="435.5" y="679.2764">using Duration = nanoseconds</text><ellipse cx="426.5" cy="692.2266" fill="transparent" rx="3" ry="3" style="stroke:#038048;stroke-width:1;"/><text fill="#000000" font-family="sans-serif" font-size="14" lengthAdjust="spacing" textLength="342.002" x="435.5" y="695.5732">using Timepoint = time_point&lt;VehicleTime, ns&gt;</text><ellipse cx="426.5" cy="708.5234" fill="transparent" rx="3" ry="3" style="stroke:#038048;stroke-width:1;"/><text fill="#000000" font-family="sans-serif" font-size="14" lengthAdjust="spacing" textLength="306.1133" x="435.5" y="711.8701">using TimeSlaveSyncDataReceivedCallback</text><ellipse cx="426.5" cy="724.8203" fill="transparent" rx="3" ry="3" style="stroke:#038048;stroke-width:1;"/><text fill="#000000" font-family="sans-serif" font-size="14" lengthAdjust="spacing" textLength="305.0537" x="435.5" y="728.167">using PDelayMeasurementFinishedCallback</text><line style="stroke:#888888;stroke-width:0.5;" x1="416.5" x2="782.502" y1="735.4688" y2="735.4688"/></g><!--class vstatus--><g id="elem_vstatus"><rect codeLine="65" fill="#F5DEB3" height="129.4844" id="vstatus" rx="2.5" ry="2.5" style="stroke:#888888;stroke-width:0.5;" width="348.6016" x="76" y="844.9844"/><ellipse cx="180.8223" cy="860.9844" fill="#ADD1B2" rx="11" ry="11" style="stroke:#181818;stroke-width:1;"/><path d="M183.791,866.625 Q183.2129,866.9219 182.5723,867.0625 Q181.9316,867.2188 181.2285,867.2188 Q178.7285,867.2188 177.4004,865.5781 Q176.0879,863.9219 176.0879,860.7969 Q176.0879,857.6719 177.4004,856.0156 Q178.7285,854.3594 181.2285,854.3594 Q181.9316,854.3594 182.5723,854.5156 Q183.2285,854.6719 183.791,854.9688 L183.791,857.6875 Q183.166,857.1094 182.5723,856.8438 Q181.9785,856.5625 181.3535,856.5625 Q180.0098,856.5625 179.3223,857.6406 Q178.6348,858.7031 178.6348,860.7969 Q178.6348,862.8906 179.3223,863.9688 Q180.0098,865.0313 181.3535,865.0313 Q181.9785,865.0313 182.5723,864.7656 Q183.166,864.4844 183.791,863.9063 L183.791,866.625 Z " fill="#000000"/><text fill="#000000" font-family="sans-serif" font-size="14" lengthAdjust="spacing" textLength="130.457" x="201.3223" y="865.8311">VehicleTimeStatus</text><line style="stroke:#888888;stroke-width:0.5;" x1="77" x2="423.6016" y1="876.9844" y2="876.9844"/><ellipse cx="87" cy="890.6328" fill="transparent" rx="3" ry="3" style="stroke:#038048;stroke-width:1;"/><text fill="#000000" font-family="sans-serif" font-size="14" lengthAdjust="spacing" textLength="322.6016" x="96" y="893.9795">flags : ClockStatus&lt;VehicleTime::StatusFlag&gt;</text><ellipse cx="87" cy="906.9297" fill="transparent" rx="3" ry="3" style="stroke:#038048;stroke-width:1;"/><text fill="#000000" font-family="sans-serif" font-size="14" lengthAdjust="spacing" textLength="161.8408" x="96" y="910.2764">rate_deviation : double</text><line style="stroke:#888888;stroke-width:0.5;" x1="77" x2="423.6016" y1="917.5781" y2="917.5781"/><ellipse cx="87" cy="931.2266" fill="#84BE84" rx="3" ry="3" style="stroke:#038048;stroke-width:1;"/><text fill="#000000" font-family="sans-serif" font-size="14" lengthAdjust="spacing" textLength="160.4189" x="96" y="934.5732">IsSynchronized() : bool</text><ellipse cx="87" cy="947.5234" fill="#84BE84" rx="3" ry="3" style="stroke:#038048;stroke-width:1;"/><text fill="#000000" font-family="sans-serif" font-size="14" lengthAdjust="spacing" textLength="100.6934" x="96" y="950.8701">IsValid() : bool</text><ellipse cx="87" cy="963.8203" fill="#84BE84" rx="3" ry="3" style="stroke:#038048;stroke-width:1;"/><text fill="#000000" font-family="sans-serif" font-size="14" lengthAdjust="spacing" textLength="165.1152" x="96" y="967.167">IsFlagActive(flag) : bool</text></g><!--class htag--><g id="elem_htag"><rect codeLine="73" fill="#F5DEB3" height="80.5938" id="htag" rx="2.5" ry="2.5" style="stroke:#888888;stroke-width:0.5;" width="347.4463" x="7" y="159.4844"/><ellipse cx="143.8281" cy="175.4844" fill="#ADD1B2" rx="11" ry="11" style="stroke:#181818;stroke-width:1;"/><path d="M146.7969,181.125 Q146.2188,181.4219 145.5781,181.5625 Q144.9375,181.7188 144.2344,181.7188 Q141.7344,181.7188 140.4063,180.0781 Q139.0938,178.4219 139.0938,175.2969 Q139.0938,172.1719 140.4063,170.5156 Q141.7344,168.8594 144.2344,168.8594 Q144.9375,168.8594 145.5781,169.0156 Q146.2344,169.1719 146.7969,169.4688 L146.7969,172.1875 Q146.1719,171.6094 145.5781,171.3438 Q144.9844,171.0625 144.3594,171.0625 Q143.0156,171.0625 142.3281,172.1406 Q141.6406,173.2031 141.6406,175.2969 Q141.6406,177.3906 142.3281,178.4688 Q143.0156,179.5313 144.3594,179.5313 Q144.9844,179.5313 145.5781,179.2656 Q146.1719,178.9844 146.7969,178.4063 L146.7969,181.125 Z " fill="#000000"/><text fill="#000000" font-family="sans-serif" font-size="14" lengthAdjust="spacing" textLength="65.29" x="164.3281" y="180.3311">HplsTime</text><line style="stroke:#888888;stroke-width:0.5;" x1="8" x2="353.4463" y1="191.4844" y2="191.4844"/><ellipse cx="18" cy="205.1328" fill="transparent" rx="3" ry="3" style="stroke:#038048;stroke-width:1;"/><text fill="#000000" font-family="sans-serif" font-size="14" lengthAdjust="spacing" textLength="215.8174" x="27" y="208.4795">using Duration = nanoseconds</text><ellipse cx="18" cy="221.4297" fill="transparent" rx="3" ry="3" style="stroke:#038048;stroke-width:1;"/><text fill="#000000" font-family="sans-serif" font-size="14" lengthAdjust="spacing" textLength="321.4463" x="27" y="224.7764">using Timepoint = time_point&lt;HplsTime, ns&gt;</text><line style="stroke:#888888;stroke-width:0.5;" x1="8" x2="353.4463" y1="232.0781" y2="232.0781"/></g><g id="elem_ntag"><path d="M389,164.4844 L389,195.9844 L354.09,199.9844 L389,203.9844 L389,235.0156 A0,0 0 0 0 389,235.0156 L675.5605,235.0156 A0,0 0 0 0 675.5605,235.0156 L675.5605,174.4844 L665.5605,164.4844 L389,164.4844 A0,0 0 0 0 389,164.4844 " fill="#FEFFDD" style="stroke:#181818;stroke-width:0.5;"/><path d="M665.5605,164.4844 L665.5605,174.4844 L675.5605,174.4844 L665.5605,164.4844 " fill="#FEFFDD" style="stroke:#181818;stroke-width:0.5;"/><text fill="#000000" font-family="sans-serif" font-size="13" lengthAdjust="spacing" textLength="194.7778" x="395" y="181.5513">std::chrono::steady_clock and</text><text fill="#000000" font-family="sans-serif" font-size="13" lengthAdjust="spacing" textLength="225.2847" x="395" y="196.6841">std::chrono::system_clock are also</text><text fill="#000000" font-family="sans-serif" font-size="13" lengthAdjust="spacing" textLength="265.5605" x="395" y="211.8169">valid Tag types &#8212; built-in specializations</text><text fill="#000000" font-family="sans-serif" font-size="13" lengthAdjust="spacing" textLength="167.7178" x="395" y="226.9497">provided by clock_traits.h</text></g><!--class tss--><g id="elem_tss"><rect codeLine="86" fill="#ADD8E6" height="96.8906" id="tss" rx="2.5" ry="2.5" style="stroke:#888888;stroke-width:0.5;" width="198.417" x="460.5" y="860.9844"/><ellipse cx="475.5" cy="876.9844" fill="#ADD1B2" rx="11" ry="11" style="stroke:#181818;stroke-width:1;"/><path d="M478.4688,882.625 Q477.8906,882.9219 477.25,883.0625 Q476.6094,883.2188 475.9063,883.2188 Q473.4063,883.2188 472.0781,881.5781 Q470.7656,879.9219 470.7656,876.7969 Q470.7656,873.6719 472.0781,872.0156 Q473.4063,870.3594 475.9063,870.3594 Q476.6094,870.3594 477.25,870.5156 Q477.9063,870.6719 478.4688,870.9688 L478.4688,873.6875 Q477.8438,873.1094 477.25,872.8438 Q476.6563,872.5625 476.0313,872.5625 Q474.6875,872.5625 474,873.6406 Q473.3125,874.7031 473.3125,876.7969 Q473.3125,878.8906 474,879.9688 Q474.6875,881.0313 476.0313,881.0313 Q476.6563,881.0313 477.25,880.7656 Q477.8438,880.4844 478.4688,879.9063 L478.4688,882.625 Z " fill="#000000"/><text fill="#000000" font-family="sans-serif" font-size="14" lengthAdjust="spacing" textLength="140.1162" x="489.5" y="881.8311">TimeSlaveSyncData</text><rect fill="#FAFAFA" height="15.9688" style="stroke:#888888;stroke-width:1;stroke-dasharray:2.0,2.0;" width="24.3008" x="637.6162" y="857.9844"/><text fill="#000000" font-family="sans-serif" font-size="12" font-style="italic" lengthAdjust="spacing" textLength="22.3008" x="638.6162" y="870.123">Tag</text><line style="stroke:#888888;stroke-width:0.5;" x1="461.5" x2="657.917" y1="892.9844" y2="892.9844"/><ellipse cx="471.5" cy="906.6328" fill="transparent" rx="3" ry="3" style="stroke:#038048;stroke-width:1;"/><text fill="#000000" font-family="sans-serif" font-size="14" lengthAdjust="spacing" textLength="152.9746" x="480.5" y="909.9795">time_slave_sync_data</text><ellipse cx="471.5" cy="922.9297" fill="transparent" rx="3" ry="3" style="stroke:#038048;stroke-width:1;"/><text fill="#000000" font-family="sans-serif" font-size="14" lengthAdjust="spacing" textLength="89.1133" x="480.5" y="926.2764">port_identity</text><ellipse cx="471.5" cy="939.2266" fill="transparent" rx="3" ry="3" style="stroke:#038048;stroke-width:1;"/><text fill="#000000" font-family="sans-serif" font-size="14" lengthAdjust="spacing" textLength="75.5166" x="480.5" y="942.5732">timestamp</text><line style="stroke:#888888;stroke-width:0.5;" x1="461.5" x2="657.917" y1="949.875" y2="949.875"/></g><!--class pdm--><g id="elem_pdm"><rect codeLine="92" fill="#ADD8E6" height="80.5938" id="pdm" rx="2.5" ry="2.5" style="stroke:#888888;stroke-width:0.5;" width="236.7393" x="694" y="868.9844"/><ellipse cx="709" cy="884.9844" fill="#ADD1B2" rx="11" ry="11" style="stroke:#181818;stroke-width:1;"/><path d="M711.9688,890.625 Q711.3906,890.9219 710.75,891.0625 Q710.1094,891.2188 709.4063,891.2188 Q706.9063,891.2188 705.5781,889.5781 Q704.2656,887.9219 704.2656,884.7969 Q704.2656,881.6719 705.5781,880.0156 Q706.9063,878.3594 709.4063,878.3594 Q710.1094,878.3594 710.75,878.5156 Q711.4063,878.6719 711.9688,878.9688 L711.9688,881.6875 Q711.3438,881.1094 710.75,880.8438 Q710.1563,880.5625 709.5313,880.5625 Q708.1875,880.5625 707.5,881.6406 Q706.8125,882.7031 706.8125,884.7969 Q706.8125,886.8906 707.5,887.9688 Q708.1875,889.0313 709.5313,889.0313 Q710.1563,889.0313 710.75,888.7656 Q711.3438,888.4844 711.9688,887.9063 L711.9688,890.625 Z " fill="#000000"/><text fill="#000000" font-family="sans-serif" font-size="14" lengthAdjust="spacing" textLength="178.4385" x="723" y="889.8311">PDelayMeasurementData</text><rect fill="#FAFAFA" height="15.9688" style="stroke:#888888;stroke-width:1;stroke-dasharray:2.0,2.0;" width="24.3008" x="909.4385" y="865.9844"/><text fill="#000000" font-family="sans-serif" font-size="12" font-style="italic" lengthAdjust="spacing" textLength="22.3008" x="910.4385" y="878.123">Tag</text><line style="stroke:#888888;stroke-width:0.5;" x1="695" x2="929.7393" y1="900.9844" y2="900.9844"/><ellipse cx="705" cy="914.6328" fill="transparent" rx="3" ry="3" style="stroke:#038048;stroke-width:1;"/><text fill="#000000" font-family="sans-serif" font-size="14" lengthAdjust="spacing" textLength="94.0557" x="714" y="917.9795">pdelay_result</text><ellipse cx="705" cy="930.9297" fill="transparent" rx="3" ry="3" style="stroke:#038048;stroke-width:1;"/><text fill="#000000" font-family="sans-serif" font-size="14" lengthAdjust="spacing" textLength="89.1133" x="714" y="934.2764">port_identity</text><line style="stroke:#888888;stroke-width:0.5;" x1="695" x2="929.7393" y1="941.5781" y2="941.5781"/></g><!--class viface--><g id="elem_viface"><rect codeLine="98" fill="#F08080" height="162.0781" id="viface" rx="2.5" ry="2.5" style="stroke:#888888;stroke-width:0.5;" width="341.2871" x="955" y="597.4844"/><ellipse cx="1059.8257" cy="613.4844" fill="#A9DCDF" rx="11" ry="11" style="stroke:#181818;stroke-width:1;"/><path d="M1059.9351,608.8281 L1058.7788,613.9063 L1061.1069,613.9063 L1059.9351,608.8281 Z M1058.4507,606.5938 L1061.4351,606.5938 L1064.7944,618.9844 L1062.3413,618.9844 L1061.5757,615.9219 L1058.2944,615.9219 L1057.5444,618.9844 L1055.1069,618.9844 L1058.4507,606.5938 Z " fill="#000000"/><text fill="#000000" font-family="sans-serif" font-size="14" font-style="italic" lengthAdjust="spacing" textLength="123.1357" x="1080.3257" y="618.3311">VehicleClockIface</text><line style="stroke:#888888;stroke-width:0.5;" x1="956" x2="1295.2871" y1="629.4844" y2="629.4844"/><line style="stroke:#888888;stroke-width:0.5;" x1="956" x2="1295.2871" y1="637.4844" y2="637.4844"/><ellipse cx="966" cy="651.1328" fill="#84BE84" rx="3" ry="3" style="stroke:#038048;stroke-width:1;"/><text fill="#000000" font-family="sans-serif" font-size="14" font-style="italic" lengthAdjust="spacing" textLength="120.4766" x="975" y="654.4795">Now() : Snapshot</text><ellipse cx="966" cy="667.4297" fill="#84BE84" rx="3" ry="3" style="stroke:#038048;stroke-width:1;"/><text fill="#000000" font-family="sans-serif" font-size="14" font-style="italic" lengthAdjust="spacing" textLength="130.0605" x="975" y="670.7764">IsAvailable() : bool</text><ellipse cx="966" cy="683.7266" fill="#84BE84" rx="3" ry="3" style="stroke:#038048;stroke-width:1;"/><text fill="#000000" font-family="sans-serif" font-size="14" font-style="italic" lengthAdjust="spacing" textLength="262.3906" x="975" y="687.0732">WaitUntilAvailable(token, until) : bool</text><ellipse cx="966" cy="700.0234" fill="#84BE84" rx="3" ry="3" style="stroke:#038048;stroke-width:1;"/><text fill="#000000" font-family="sans-serif" font-size="14" font-style="italic" lengthAdjust="spacing" textLength="314.3438" x="975" y="703.3701">SetTimeSlaveSyncDataReceivedCallback(cb)</text><ellipse cx="966" cy="716.3203" fill="#84BE84" rx="3" ry="3" style="stroke:#038048;stroke-width:1;"/><text fill="#000000" font-family="sans-serif" font-size="14" font-style="italic" lengthAdjust="spacing" textLength="315.2871" x="975" y="719.667">UnsetTimeSlaveSyncDataReceivedCallback()</text><ellipse cx="966" cy="732.6172" fill="#84BE84" rx="3" ry="3" style="stroke:#038048;stroke-width:1;"/><text fill="#000000" font-family="sans-serif" font-size="14" font-style="italic" lengthAdjust="spacing" textLength="313.2842" x="975" y="735.9639">SetPDelayMeasurementFinishedCallback(cb)</text><ellipse cx="966" cy="748.9141" fill="#84BE84" rx="3" ry="3" style="stroke:#038048;stroke-width:1;"/><text fill="#000000" font-family="sans-serif" font-size="14" font-style="italic" lengthAdjust="spacing" textLength="314.2275" x="975" y="752.2607">UnsetPDelayMeasurementFinishedCallback()</text></g><!--class hiface--><g id="elem_hiface"><rect codeLine="108" fill="#F08080" height="64.2969" id="hiface" rx="2.5" ry="2.5" style="stroke:#888888;stroke-width:0.5;" width="146.4766" x="1331.5" y="646.4844"/><ellipse cx="1351.8534" cy="662.4844" fill="#A9DCDF" rx="11" ry="11" style="stroke:#181818;stroke-width:1;"/><path d="M1351.9628,657.8281 L1350.8065,662.9063 L1353.1347,662.9063 L1351.9628,657.8281 Z M1350.4784,655.5938 L1353.4628,655.5938 L1356.8222,667.9844 L1354.369,667.9844 L1353.6034,664.9219 L1350.3222,664.9219 L1349.5722,667.9844 L1347.1347,667.9844 L1350.4784,655.5938 Z " fill="#000000"/><text fill="#000000" font-family="sans-serif" font-size="14" font-style="italic" lengthAdjust="spacing" textLength="102.5801" x="1367.0431" y="667.3311">HplsClockIface</text><line style="stroke:#888888;stroke-width:0.5;" x1="1332.5" x2="1476.9766" y1="678.4844" y2="678.4844"/><line style="stroke:#888888;stroke-width:0.5;" x1="1332.5" x2="1476.9766" y1="686.4844" y2="686.4844"/><ellipse cx="1342.5" cy="700.1328" fill="#84BE84" rx="3" ry="3" style="stroke:#038048;stroke-width:1;"/><text fill="#000000" font-family="sans-serif" font-size="14" font-style="italic" lengthAdjust="spacing" textLength="120.4766" x="1351.5" y="703.4795">Now() : Snapshot</text></g><!--class vmock--><g id="elem_vmock"><rect codeLine="112" fill="#F08080" height="145.7813" id="vmock" rx="2.5" ry="2.5" style="stroke:#888888;stroke-width:0.5;" width="320.8135" x="966" y="836.4844"/><ellipse cx="1059.3379" cy="852.4844" fill="#ADD1B2" rx="11" ry="11" style="stroke:#181818;stroke-width:1;"/><path d="M1062.3066,858.125 Q1061.7285,858.4219 1061.0879,858.5625 Q1060.4473,858.7188 1059.7441,858.7188 Q1057.2441,858.7188 1055.916,857.0781 Q1054.6035,855.4219 1054.6035,852.2969 Q1054.6035,849.1719 1055.916,847.5156 Q1057.2441,845.8594 1059.7441,845.8594 Q1060.4473,845.8594 1061.0879,846.0156 Q1061.7441,846.1719 1062.3066,846.4688 L1062.3066,849.1875 Q1061.6816,848.6094 1061.0879,848.3438 Q1060.4941,848.0625 1059.8691,848.0625 Q1058.5254,848.0625 1057.8379,849.1406 Q1057.1504,850.2031 1057.1504,852.2969 Q1057.1504,854.3906 1057.8379,855.4688 Q1058.5254,856.5313 1059.8691,856.5313 Q1060.4941,856.5313 1061.0879,856.2656 Q1061.6816,855.9844 1062.3066,855.4063 L1062.3066,858.125 Z " fill="#000000"/><text fill="#000000" font-family="sans-serif" font-size="14" lengthAdjust="spacing" textLength="125.6377" x="1079.8379" y="857.3311">VehicleClockMock</text><line style="stroke:#888888;stroke-width:0.5;" x1="967" x2="1285.8135" y1="868.4844" y2="868.4844"/><text fill="#000000" font-family="sans-serif" font-size="14" lengthAdjust="spacing" textLength="239.4766" x="972" y="885.4795">MOCK_METHOD: Now, IsAvailable,</text><text fill="#000000" font-family="sans-serif" font-size="14" lengthAdjust="spacing" textLength="132.8291" x="972" y="901.7764">WaitUntilAvailable,</text><text fill="#000000" font-family="sans-serif" font-size="14" lengthAdjust="spacing" textLength="291.2861" x="972" y="918.0732">SetTimeSlaveSyncDataReceivedCallback,</text><text fill="#000000" font-family="sans-serif" font-size="14" lengthAdjust="spacing" textLength="308.8135" x="972" y="934.3701">UnsetTimeSlaveSyncDataReceivedCallback,</text><text fill="#000000" font-family="sans-serif" font-size="14" lengthAdjust="spacing" textLength="290.2266" x="972" y="950.667">SetPDelayMeasurementFinishedCallback,</text><text fill="#000000" font-family="sans-serif" font-size="14" lengthAdjust="spacing" textLength="303.3037" x="972" y="966.9639">UnsetPDelayMeasurementFinishedCallback</text><line style="stroke:#888888;stroke-width:0.5;" x1="967" x2="1285.8135" y1="974.2656" y2="974.2656"/></g><!--class hmock--><g id="elem_hmock"><rect codeLine="121" fill="#F08080" height="64.2969" id="hmock" rx="2.5" ry="2.5" style="stroke:#888888;stroke-width:0.5;" width="162.5137" x="1323" y="877.4844"/><ellipse cx="1349.4442" cy="893.4844" fill="#ADD1B2" rx="11" ry="11" style="stroke:#181818;stroke-width:1;"/><path d="M1352.413,899.125 Q1351.8349,899.4219 1351.1942,899.5625 Q1350.5536,899.7188 1349.8505,899.7188 Q1347.3505,899.7188 1346.0224,898.0781 Q1344.7099,896.4219 1344.7099,893.2969 Q1344.7099,890.1719 1346.0224,888.5156 Q1347.3505,886.8594 1349.8505,886.8594 Q1350.5536,886.8594 1351.1942,887.0156 Q1351.8505,887.1719 1352.413,887.4688 L1352.413,890.1875 Q1351.788,889.6094 1351.1942,889.3438 Q1350.6005,889.0625 1349.9755,889.0625 Q1348.6317,889.0625 1347.9442,890.1406 Q1347.2567,891.2031 1347.2567,893.2969 Q1347.2567,895.3906 1347.9442,896.4688 Q1348.6317,897.5313 1349.9755,897.5313 Q1350.6005,897.5313 1351.1942,897.2656 Q1351.788,896.9844 1352.413,896.4063 L1352.413,899.125 Z " fill="#000000"/><text fill="#000000" font-family="sans-serif" font-size="14" lengthAdjust="spacing" textLength="105.082" x="1365.9874" y="898.3311">HplsClockMock</text><line style="stroke:#888888;stroke-width:0.5;" x1="1324" x2="1484.5137" y1="909.4844" y2="909.4844"/><text fill="#000000" font-family="sans-serif" font-size="14" lengthAdjust="spacing" textLength="150.5137" x="1329" y="926.4795">MOCK_METHOD: Now</text><line style="stroke:#888888;stroke-width:0.5;" x1="1324" x2="1484.5137" y1="933.7813" y2="933.7813"/></g><!--link clock to viface--><g id="link_clock_viface"><path codeLine="126" d="M1125.5,532.5444 C1125.5,557.8744 1125.5,566.9044 1125.5,591.2744 " fill="transparent" id="clock-viface" style="stroke:#181818;stroke-width:1;"/><polygon fill="#181818" points="1125.5,520.5444,1121.5,526.5444,1125.5,532.5444,1129.5,526.5444,1125.5,520.5444" style="stroke:#181818;stroke-width:1;"/><polygon fill="#181818" points="1125.5,597.2744,1129.5,588.2744,1125.5,592.2744,1121.5,588.2744,1125.5,597.2744" style="stroke:#181818;stroke-width:1;"/><text fill="#000000" font-family="sans-serif" font-size="13" lengthAdjust="spacing" textLength="128.6289" x="1126.5" y="563.5513">impl_ (VehicleTime)</text><text fill="#000000" font-family="sans-serif" font-size="13" lengthAdjust="spacing" textLength="8.271" x="1117.2116" y="540.3435">1</text><text fill="#000000" font-family="sans-serif" font-size="13" lengthAdjust="spacing" textLength="8.271" x="1117.143" y="586.443">1</text></g><!--link clock to hiface--><g id="link_clock_hiface"><path codeLine="127" d="M1240.6514,528.6141 C1289.7814,573.2541 1331.4198,611.0789 1365.8698,642.3889 " fill="transparent" id="clock-hiface" style="stroke:#181818;stroke-width:1;"/><polygon fill="#181818" points="1231.77,520.5444,1233.5208,527.5397,1240.6514,528.6141,1238.9006,521.6188,1231.77,520.5444" style="stroke:#181818;stroke-width:1;"/><polygon fill="#181818" points="1370.31,646.4244,1366.3401,637.4111,1366.6099,643.0615,1360.9594,643.3313,1370.31,646.4244" style="stroke:#181818;stroke-width:1;"/><text fill="#000000" font-family="sans-serif" font-size="13" lengthAdjust="spacing" textLength="109.5415" x="1282.5" y="563.5513">impl_ (HplsTime)</text><text fill="#000000" font-family="sans-serif" font-size="13" lengthAdjust="spacing" textLength="8.271" x="1231.2858" y="540.3435">1</text><text fill="#000000" font-family="sans-serif" font-size="13" lengthAdjust="spacing" textLength="8.271" x="1354.4121" y="635.3151">1</text></g><!--link guard to clock--><g id="link_guard_clock"><path codeLine="128" d="M957.67,248.6644 C979.42,271.1244 1002.0161,294.4641 1027.7361,321.0241 " fill="transparent" id="guard-to-clock" style="stroke:#181818;stroke-width:1;stroke-dasharray:7.0,7.0;"/><polygon fill="#181818" points="1031.91,325.3344,1028.5226,316.0864,1028.4317,321.7425,1022.7756,321.6516,1031.91,325.3344" style="stroke:#181818;stroke-width:1;"/><text fill="#000000" font-family="sans-serif" font-size="13" lengthAdjust="spacing" textLength="211.0786" x="1000.5" y="291.5513">OverrideForTest / ResetOverride</text></g><!--link factory to clock--><g id="link_factory_clock"><path codeLine="129" d="M1302.06,240.4944 C1278.99,264.2044 1252.7433,291.1832 1223.6633,321.0832 " fill="transparent" id="factory-to-clock" style="stroke:#181818;stroke-width:1;stroke-dasharray:7.0,7.0;"/><polygon fill="#181818" points="1219.48,325.3844,1228.6224,321.7214,1222.966,321.8,1222.8874,316.1437,1219.48,325.3844" style="stroke:#181818;stroke-width:1;"/><text fill="#000000" font-family="sans-serif" font-size="13" lengthAdjust="spacing" textLength="194.0542" x="1265.5" y="291.5513">Make() &#8212; private ctor (friend)</text></g><!--link clock to snapshot--><g id="link_clock_snapshot"><path codeLine="131" d="M911.18,459.5944 C763.74,487.8044 565.07,533.2244 397.5,597.4844 C369.29,608.3044 344.948,620.5725 319.808,634.8425 " fill="transparent" id="clock-to-snapshot" style="stroke:#181818;stroke-width:1;"/><polygon fill="#181818" points="314.59,637.8044,324.3916,636.8403,318.9383,635.3362,320.4424,629.8829,314.59,637.8044" style="stroke:#181818;stroke-width:1;"/><text fill="#000000" font-family="sans-serif" font-size="13" lengthAdjust="spacing" textLength="124.2935" x="534.5" y="563.5513">returns from Now()</text></g><!--reverse link snapshot to vstatus--><g id="link_snapshot_vstatus"><path codeLine="132" d="M250.5,731.1144 C250.5,765.6744 250.5,804.4444 250.5,844.7244 " fill="transparent" id="snapshot-backto-vstatus" style="stroke:#181818;stroke-width:1;"/><polygon fill="#181818" points="250.5,719.1144,246.5,725.1144,250.5,731.1144,254.5,725.1144,250.5,719.1144" style="stroke:#181818;stroke-width:1;"/><text fill="#000000" font-family="sans-serif" font-size="13" lengthAdjust="spacing" textLength="51.5684" x="251.5" y="802.5513">Status()</text></g><!--reverse link viface to vmock--><g id="link_viface_vmock"><path codeLine="134" d="M1125.9291,777.5742 C1126.0391,802.5942 1126.08,812.0344 1126.19,836.4644 " fill="transparent" id="viface-backto-vmock" style="stroke:#181818;stroke-width:1;"/><polygon fill="transparent" points="1125.85,759.5744,1119.9292,777.6006,1131.9291,777.5478,1125.85,759.5744" style="stroke:#181818;stroke-width:1;"/><text fill="#000000" font-family="sans-serif" font-size="13" lengthAdjust="spacing" textLength="73.4043" x="1126.5" y="802.5513">test double</text></g><!--reverse link hiface to hmock--><g id="link_hiface_hmock"><path codeLine="135" d="M1404.5,728.8444 C1404.5,772.5744 1404.5,833.4144 1404.5,877.1344 " fill="transparent" id="hiface-backto-hmock" style="stroke:#181818;stroke-width:1;"/><polygon fill="transparent" points="1404.5,710.8444,1398.5,728.8444,1410.5,728.8444,1404.5,710.8444" style="stroke:#181818;stroke-width:1;"/><text fill="#000000" font-family="sans-serif" font-size="13" lengthAdjust="spacing" textLength="73.4043" x="1405.5" y="802.5513">test double</text></g><!--link vtag to vstatus--><g id="link_vtag_vstatus"><path codeLine="137" d="M502.28,743.2744 C453.98,774.9744 400.7866,809.873 352.5166,841.543 " fill="transparent" id="vtag-to-vstatus" style="stroke:#181818;stroke-width:1;"/><polygon fill="#181818" points="347.5,844.8344,357.2192,843.2417,351.6805,842.0915,352.8307,836.5528,347.5,844.8344" style="stroke:#181818;stroke-width:1;"/></g><!--link vtag to tss--><g id="link_vtag_tss"><path codeLine="138" d="M588.36,743.2744 C581.86,780.4644 574.8308,820.6836 568.8908,854.7436 " fill="transparent" id="vtag-to-tss" style="stroke:#181818;stroke-width:1;"/><polygon fill="#181818" points="567.86,860.6544,573.3468,852.4754,568.719,855.7287,565.4657,851.101,567.86,860.6544" style="stroke:#181818;stroke-width:1;"/></g><!--link vtag to pdm--><g id="link_vtag_pdm"><path codeLine="139" d="M658.83,743.2744 C696.25,783.5044 739.3233,829.8113 771.4633,864.3613 " fill="transparent" id="vtag-to-pdm" style="stroke:#181818;stroke-width:1;"/><polygon fill="#181818" points="775.55,868.7544,772.3487,859.4403,772.1445,865.0935,766.4913,864.8892,775.55,868.7544" style="stroke:#181818;stroke-width:1;"/></g><!--reverse link vstatus to status--><g id="link_vstatus_status"><path codeLine="140" d="M250.5,986.2244 C250.5,1008.0844 250.5,1020.7044 250.5,1043.1944 " fill="transparent" id="vstatus-backto-status" style="stroke:#181818;stroke-width:1;"/><polygon fill="#181818" points="250.5,974.2244,246.5,980.2244,250.5,986.2244,254.5,980.2244,250.5,974.2244" style="stroke:#181818;stroke-width:1;"/></g><!--SRC=[fLVRRjis6BxNKn0fiDbRd69tW-0PI9sc3ROqGUss5qCXqD9lYp152YJbm6qpx27sX7kI_Jpeu4X9l4r148dy_lCnXXaEHATIGHmRLW3v-y-_o9nJhSdD3jIEmLqKwIqJ9LMq82kQRZTALYARIouLkSkPWSvzQYbVFG2zk3otFpsOL1ce0FdPFL74OGCY8qQMXCFQH0IVRsJwuZUsoSqR1I1c_kYsMd6MaZMoWpkfjiJiIz3auFdMa7_AWPfPUq6MQEiaamLbWXYw8TgeAZMQZ4h7Ttn8xgI_uXNC0ldjyfO8QTYQfTGmAOBqBlL3yhbKb0VbhuG19IWdpBwiQMffCp2KSVroN2kFZl3kYABloMGo8PUDiVWLEIUIapcNwNQwf9lP2Q4QNOkVfEClyjNfyIFvgWtgcjwJDs2k17w854PZ4fEMGq2-atVkOY5egNDfml6YMkbKiHLCN-z0c2MQF1kbAulSIPO5r0UXXt0FK5VwV8VMqXNtEgoav8Jy_X5obdAmqI5IyFtd0Fz4cVaW3ECjbP5R4AUaigVFSa1tkJ-45ILF4ArpgY1BIgEcDbtHoRE0QDp4We-IbAOvMA8xeDlZI2JMZc8PF2RgFgh3Pq2Rf48RT1mlKbb2vi9n4nYqWTrKL6M3WHqW6wKILHaI_TquKFqnH3RkUgj0AoRMXwUOwsAYO8BHL5IOHzHth9PuS4bJ8zM-rNtj3vvEoskwVLBlVgO6FIdd4y_4AaesNAwmjEm9T3Hrj7L6Jsr-b1BBRtbA5eYizDAhgWDYK5TBTMkfNCwsFEf0E4Q-T3pFddntFBtaTFDQL4KjqvqEIhpI5dkU6hQ3qHfVwrHlwqZiRzOMf3ietOCjzYBDbHJi2sIFLPmk8MMKio-kftrkQ3_YMPUeVeuWFiyogrkZUgS5p3bGrR-yhxiTXbbt6rr7cFFQplPjtzaRTm4wDVZUSWwdbMPYGougvNlrBqHG8JLWhcNw0D94535s6YRkOzgHZ1ccPpsQ1QSxi1w-e8Q-XnGm3jaSyzBEomFqxGLmkhy6gYi51TRJ9HDCvnrqcp4TiTuaRtQTBOUMkwZN9HBIhCC0cqlZbLf_T0Sa6UoOTqjCCedZ2vvEcKUIujbqRSrwMtBT134V2EB_3LSjmCSA1UEa1YjCc90IscHnx6oJSQmDq6oV-C59HJQ0s2Ecg14AUN4j7MnddM0pDIm0TdjQLOoR2UuLXnNXLI-Lt66ZpSXgxqTrWXsL6NsMst5lTmgeyz_k69vhfmXwsTOsMQFh5c8tbSQRpZ7QaYGQQP8CYS9LAPL9K1iSeMRVWME65MKdOhsaFHHSPiMGu3ApL8a2NN4pAB4fzMOVifRI5IvZE338OHcunBwokv8l0sPVIMUtQYTApU7-iKscWnXQHFge8_UFFk42pBCDmkvGVKhSeuwX7G_AVBRDF27pUTgnZTp3CDcgUn2Z_B_5gDS17Tjh_FMHBzeDjylq-cR-QtBzUldsvYAsJ4-xiJrra7uO_VanKVB8uwBIS7tMbnsk_sOqDCvkl98VwPMswDwZEDUOSbRMFSRoEFdfXFmmcSpSIoYpE2pEeyv86G_XymVukXUF8x-_dftDmhyeCQctpakfxDP8Ng9Aw8VwEAgtnYwDMnB7hi-MYkrmWX4B8gErOjX0nr5GokhJh78nKM0g9N0HLRBm2HSrjwXxCrJZPeUBec3wz9kzBxnuk-xMOpBltES3zv5RKAmYWNjxWAsw_S3s6TNohIu17BdHUARE_DZw1m00]--></g></svg>