<svg xmlns="http://www.w3.org/2000/svg" xmlns:xlink="http://www.w3.org/1999/xlink" contentStyleType="text/css" data-diagram-type="SEQUENCE" height="808px" preserveAspectRatio="none" style="width:1259px;height:808px;background:#FFFFFF;" version="1.1" viewBox="0 0 1259 808" width="1259px" zoomAndPan="magnify"><title>UC3 &#8212; Async PTP Event Subscription</title><defs/><g><text fill="#000000" font-family="sans-serif" font-size="14" font-weight="bold" lengthAdjust="spacing" textLength="290.7324" x="482.9768" y="27.9951">UC3 &#8212; Async PTP Event Subscription</text><rect fill="#E6F0FF" height="647.5938" style="stroke:#181818;stroke-width:0.5;" width="101.2012" x="155" y="147.4844"/><text fill="#000000" font-family="sans-serif" font-size="13" font-weight="bold" lengthAdjust="spacing" textLength="82.9194" x="164.1409" y="159.5513">Application</text><rect fill="#F0FFF0" height="647.5938" style="stroke:#181818;stroke-width:0.5;" width="111.1885" x="586.3701" y="147.4844"/><text fill="#000000" font-family="sans-serif" font-size="13" font-weight="bold" lengthAdjust="spacing" textLength="83.0337" x="600.4475" y="159.5513">score::time</text><rect fill="#FFF0E6" height="647.5938" style="stroke:#181818;stroke-width:0.5;" width="202.9678" x="918.7988" y="147.4844"/><text fill="#000000" font-family="sans-serif" font-size="13" font-weight="bold" lengthAdjust="spacing" textLength="196.9678" x="921.7988" y="159.5513">Backend (separate thread)</text><g><title>VehicleClock</title><rect fill="#FFFFFF" height="87.3984" style="stroke:#181818;stroke-width:1;" width="10" x="636.9644" y="338.7422"/></g><g><title>VehicleClock</title><rect fill="#FFFFFF" height="87.3984" style="stroke:#181818;stroke-width:1;" width="10" x="636.9644" y="455.2734"/></g><g><title>PTP backend</title><rect fill="#FFFFFF" height="29.1328" style="stroke:#181818;stroke-width:1;" width="10" x="1015.2827" y="367.875"/></g><g><title>PTP backend</title><rect fill="#FFFFFF" height="29.1328" style="stroke:#181818;stroke-width:1;" width="10" x="1015.2827" y="484.4063"/></g><g><title>Application</title><rect fill="transparent" height="336.4609" width="8" x="201.6006" y="214.2109"/><line style="stroke:#181818;stroke-width:0.5;stroke-dasharray:5.0,5.0;" x1="205" x2="205" y1="214.2109" y2="550.6719"/></g><line style="stroke:#A80036;stroke-width:1;stroke-dasharray:1.0,4.0;" x1="205" x2="205" y1="550.6719" y2="591.4766"/><g><title>Application</title><rect fill="transparent" height="79.3984" width="8" x="201.6006" y="591.4766"/><line style="stroke:#181818;stroke-width:0.5;stroke-dasharray:5.0,5.0;" x1="205" x2="205" y1="591.4766" y2="670.875"/></g><line style="stroke:#A80036;stroke-width:1;stroke-dasharray:1.0,4.0;" x1="205" x2="205" y1="670.875" y2="711.6797"/><g><title>Application</title><rect fill="transparent" height="89.3984" width="8" x="201.6006" y="711.6797"/><line style="stroke:#181818;stroke-width:0.5;stroke-dasharray:5.0,5.0;" x1="205" x2="205" y1="711.6797" y2="801.0781"/></g><g><title>VehicleClock</title><rect fill="transparent" height="336.4609" width="8" x="637.9644" y="214.2109"/><line style="stroke:#181818;stroke-width:0.5;stroke-dasharray:5.0,5.0;" x1="641.3701" x2="641.3701" y1="214.2109" y2="550.6719"/></g><line style="stroke:#A80036;stroke-width:1;stroke-dasharray:1.0,4.0;" x1="641.3701" x2="641.3701" y1="550.6719" y2="591.4766"/><g><title>VehicleClock</title><rect fill="transparent" height="79.3984" width="8" x="637.9644" y="591.4766"/><line style="stroke:#181818;stroke-width:0.5;stroke-dasharray:5.0,5.0;" x1="641.3701" x2="641.3701" y1="591.4766" y2="670.875"/></g><line style="stroke:#A80036;stroke-width:1;stroke-dasharray:1.0,4.0;" x1="641.3701" x2="641.3701" y1="670.875" y2="711.6797"/><g><title>VehicleClock</title><rect fill="transparent" height="89.3984" width="8" x="637.9644" y="711.6797"/><line style="stroke:#181818;stroke-width:0.5;stroke-dasharray:5.0,5.0;" x1="641.3701" x2="641.3701" y1="711.6797" y2="801.0781"/></g><g><title>PTP backend</title><rect fill="transparent" height="336.4609" width="8" x="1016.2827" y="214.2109"/><line style="stroke:#181818;stroke-width:0.5;stroke-dasharray:5.0,5.0;" x1="1020.2529" x2="1020.2529" y1="214.2109" y2="550.6719"/></g><line style="stroke:#A80036;stroke-width:1;stroke-dasharray:1.0,4.0;" x1="1020.2529" x2="1020.2529" y1="550.6719" y2="591.4766"/><g><title>PTP backend</title><rect fill="transparent" height="79.3984" width="8" x="1016.2827" y="591.4766"/><line style="stroke:#181818;stroke-width:0.5;stroke-dasharray:5.0,5.0;" x1="1020.2529" x2="1020.2529" y1="591.4766" y2="670.875"/></g><line style="stroke:#A80036;stroke-width:1;stroke-dasharray:1.0,4.0;" x1="1020.2529" x2="1020.2529" y1="670.875" y2="711.6797"/><g><title>PTP backend</title><rect fill="transparent" height="89.3984" width="8" x="1016.2827" y="711.6797"/><line style="stroke:#181818;stroke-width:0.5;stroke-dasharray:5.0,5.0;" x1="1020.2529" x2="1020.2529" y1="711.6797" y2="801.0781"/></g><rect fill="#FFA07A" height="46.5938" rx="2.5" ry="2.5" style="stroke:#181818;stroke-width:0.5;" width="93.2012" x="159" y="166.6172"/><text fill="#000000" font-family="sans-serif" font-size="14" lengthAdjust="spacing" textLength="78.2236" x="166.4888" y="186.6123">Application</text><text fill="#000000" font-family="sans-serif" font-size="14" lengthAdjust="spacing" textLength="79.2012" x="166" y="202.9092">component</text><rect fill="#90EE90" height="30.2969" rx="2.5" ry="2.5" style="stroke:#181818;stroke-width:0.5;" width="103.1885" x="590.3701" y="182.9141"/><text fill="#000000" font-family="sans-serif" font-size="14" lengthAdjust="spacing" textLength="89.1885" x="597.3701" y="202.9092">VehicleClock</text><rect fill="#F08080" height="46.5938" rx="2.5" ry="2.5" style="stroke:#181818;stroke-width:0.5;" width="148.0596" x="946.2529" y="166.6172"/><text fill="#000000" font-family="sans-serif" font-size="14" lengthAdjust="spacing" textLength="89.5303" x="975.5176" y="186.6123">PTP backend</text><text fill="#000000" font-family="sans-serif" font-size="14" lengthAdjust="spacing" textLength="134.0596" x="953.2529" y="202.9092">(VehicleClockIface)</text><g><title>VehicleClock</title><rect fill="#FFFFFF" height="87.3984" style="stroke:#181818;stroke-width:1;" width="10" x="636.9644" y="338.7422"/></g><g><title>VehicleClock</title><rect fill="#FFFFFF" height="87.3984" style="stroke:#181818;stroke-width:1;" width="10" x="636.9644" y="455.2734"/></g><g><title>PTP backend</title><rect fill="#FFFFFF" height="29.1328" style="stroke:#181818;stroke-width:1;" width="10" x="1015.2827" y="367.875"/></g><g><title>PTP backend</title><rect fill="#FFFFFF" height="29.1328" style="stroke:#181818;stroke-width:1;" width="10" x="1015.2827" y="484.4063"/></g><polygon fill="#181818" points="629.9644,241.3438,639.9644,245.3438,629.9644,249.3438,633.9644,245.3438" style="stroke:#181818;stroke-width:1;"/><line style="stroke:#181818;stroke-width:1;" x1="205.6006" x2="635.9644" y1="245.3438" y2="245.3438"/><text fill="#000080" font-family="sans-serif" font-size="13" font-weight="bold" lengthAdjust="spacing" textLength="29.9736" x="212.6006" y="240.2778">[01]</text><text fill="#000000" font-family="sans-serif" font-size="13" lengthAdjust="spacing" textLength="88.6069" x="246.5742" y="240.2778">GetInstance()</text><polygon fill="#181818" points="216.6006,270.4766,206.6006,274.4766,216.6006,278.4766,212.6006,274.4766" style="stroke:#181818;stroke-width:1;"/><line style="stroke:#181818;stroke-width:1;stroke-dasharray:2.0,2.0;" x1="210.6006" x2="640.9644" y1="274.4766" y2="274.4766"/><text fill="#000080" font-family="sans-serif" font-size="13" font-weight="bold" lengthAdjust="spacing" textLength="29.9736" x="222.6006" y="269.4106">[02]</text><text fill="#000000" font-family="sans-serif" font-size="13" lengthAdjust="spacing" textLength="44.3066" x="256.5742" y="269.4106">handle</text><path d="M97,287.4766 L97,312.4766 L313,312.4766 L313,297.4766 L303,287.4766 L97,287.4766 " fill="#FEFFDD" style="stroke:#181818;stroke-width:0.5;"/><path d="M303,287.4766 L303,297.4766 L313,297.4766 L303,287.4766 " fill="#FEFFDD" style="stroke:#181818;stroke-width:0.5;"/><text fill="#000000" font-family="sans-serif" font-size="13" lengthAdjust="spacing" textLength="195.603" x="103" y="304.5435">Register callbacks once at init</text><polygon fill="#181818" points="624.9644,334.7422,634.9644,338.7422,624.9644,342.7422,628.9644,338.7422" style="stroke:#181818;stroke-width:1;"/><line style="stroke:#181818;stroke-width:1;" x1="205.6006" x2="630.9644" y1="338.7422" y2="338.7422"/><text fill="#000080" font-family="sans-serif" font-size="13" font-weight="bold" lengthAdjust="spacing" textLength="29.9736" x="212.6006" y="333.6763">[03]</text><text fill="#000000" font-family="sans-serif" font-size="13" lengthAdjust="spacing" textLength="342.8052" x="246.5742" y="333.6763">Subscribe&lt;TimeSlaveSyncData&lt;VehicleTime&gt;&gt;(cb)</text><polygon fill="#181818" points="1003.2827,363.875,1013.2827,367.875,1003.2827,371.875,1007.2827,367.875" style="stroke:#181818;stroke-width:1;"/><line style="stroke:#181818;stroke-width:1;" x1="646.9644" x2="1009.2827" y1="367.875" y2="367.875"/><text fill="#000080" font-family="sans-serif" font-size="13" font-weight="bold" lengthAdjust="spacing" textLength="29.9736" x="653.9644" y="362.8091">[04]</text><text fill="#000000" font-family="sans-serif" font-size="13" lengthAdjust="spacing" textLength="291.8906" x="687.938" y="362.8091">SetTimeSlaveSyncDataReceivedCallback(cb)</text><polygon fill="#181818" points="657.9644,393.0078,647.9644,397.0078,657.9644,401.0078,653.9644,397.0078" style="stroke:#181818;stroke-width:1;"/><line style="stroke:#181818;stroke-width:1;stroke-dasharray:2.0,2.0;" x1="651.9644" x2="1019.2827" y1="397.0078" y2="397.0078"/><text fill="#000080" font-family="sans-serif" font-size="13" font-weight="bold" lengthAdjust="spacing" textLength="29.9736" x="663.9644" y="391.9419">[05]</text><text fill="#000000" font-family="sans-serif" font-size="13" lengthAdjust="spacing" textLength="4.1323" x="697.938" y="391.9419">&#160;</text><polygon fill="#181818" points="216.6006,422.1406,206.6006,426.1406,216.6006,430.1406,212.6006,426.1406" style="stroke:#181818;stroke-width:1;"/><line style="stroke:#181818;stroke-width:1;stroke-dasharray:2.0,2.0;" x1="210.6006" x2="640.9644" y1="426.1406" y2="426.1406"/><text fill="#000080" font-family="sans-serif" font-size="13" font-weight="bold" lengthAdjust="spacing" textLength="29.9736" x="222.6006" y="421.0747">[06]</text><text fill="#000000" font-family="sans-serif" font-size="13" lengthAdjust="spacing" textLength="4.1323" x="256.5742" y="421.0747">&#160;</text><polygon fill="#181818" points="624.9644,451.2734,634.9644,455.2734,624.9644,459.2734,628.9644,455.2734" style="stroke:#181818;stroke-width:1;"/><line style="stroke:#181818;stroke-width:1;" x1="205.6006" x2="630.9644" y1="455.2734" y2="455.2734"/><text fill="#000080" font-family="sans-serif" font-size="13" font-weight="bold" lengthAdjust="spacing" textLength="29.9736" x="212.6006" y="450.2075">[07]</text><text fill="#000000" font-family="sans-serif" font-size="13" lengthAdjust="spacing" textLength="378.3901" x="246.5742" y="450.2075">Subscribe&lt;PDelayMeasurementData&lt;VehicleTime&gt;&gt;(cb)</text><polygon fill="#181818" points="1003.2827,480.4063,1013.2827,484.4063,1003.2827,488.4063,1007.2827,484.4063" style="stroke:#181818;stroke-width:1;"/><line style="stroke:#181818;stroke-width:1;" x1="646.9644" x2="1009.2827" y1="484.4063" y2="484.4063"/><text fill="#000080" font-family="sans-serif" font-size="13" font-weight="bold" lengthAdjust="spacing" textLength="29.9736" x="653.9644" y="479.3403">[08]</text><text fill="#000000" font-family="sans-serif" font-size="13" lengthAdjust="spacing" textLength="290.9067" x="687.938" y="479.3403">SetPDelayMeasurementFinishedCallback(cb)</text><polygon fill="#181818" points="657.9644,509.5391,647.9644,513.5391,657.9644,517.5391,653.9644,513.5391" style="stroke:#181818;stroke-width:1;"/><line style="stroke:#181818;stroke-width:1;stroke-dasharray:2.0,2.0;" x1="651.9644" x2="1019.2827" y1="513.5391" y2="513.5391"/><text fill="#000080" font-family="sans-serif" font-size="13" font-weight="bold" lengthAdjust="spacing" textLength="29.9736" x="663.9644" y="508.4731">[09]</text><text fill="#000000" font-family="sans-serif" font-size="13" lengthAdjust="spacing" textLength="4.1323" x="697.938" y="508.4731">&#160;</text><polygon fill="#181818" points="216.6006,538.6719,206.6006,542.6719,216.6006,546.6719,212.6006,542.6719" style="stroke:#181818;stroke-width:1;"/><line style="stroke:#181818;stroke-width:1;stroke-dasharray:2.0,2.0;" x1="210.6006" x2="640.9644" y1="542.6719" y2="542.6719"/><text fill="#000080" font-family="sans-serif" font-size="13" font-weight="bold" lengthAdjust="spacing" textLength="29.9736" x="222.6006" y="537.606">[10]</text><text fill="#000000" font-family="sans-serif" font-size="13" lengthAdjust="spacing" textLength="4.1323" x="256.5742" y="537.606">&#160;</text><text fill="#000000" font-family="sans-serif" font-size="11" lengthAdjust="spacing" textLength="209.9937" x="507.9448" y="574.8823">PTP sync event arrives from hardware</text><polygon fill="#181818" points="216.6006,608.6094,206.6006,612.6094,216.6006,616.6094,212.6006,612.6094" style="stroke:#181818;stroke-width:1;"/><line style="stroke:#181818;stroke-width:1;" x1="210.6006" x2="1019.2827" y1="612.6094" y2="612.6094"/><text fill="#000080" font-family="sans-serif" font-size="13" font-weight="bold" lengthAdjust="spacing" textLength="29.9736" x="222.6006" y="607.5435">[11]</text><text fill="#000000" font-family="sans-serif" font-size="13" lengthAdjust="spacing" textLength="257.1499" x="256.5742" y="607.5435">cb(TimeSlaveSyncData&lt;VehicleTime&gt;)</text><path d="M1025,625.6094 L1025,665.6094 L1252,665.6094 L1252,635.6094 L1242,625.6094 L1025,625.6094 " fill="#FEFFDD" style="stroke:#181818;stroke-width:0.5;"/><path d="M1242,625.6094 L1242,635.6094 L1252,635.6094 L1242,625.6094 " fill="#FEFFDD" style="stroke:#181818;stroke-width:0.5;"/><text fill="#000000" font-family="sans-serif" font-size="13" lengthAdjust="spacing" textLength="165.458" x="1031" y="642.6763">called on backend thread</text><text fill="#000000" font-family="sans-serif" font-size="13" lengthAdjust="spacing" textLength="206.686" x="1031" y="657.8091">&#8212; callback must be thread-safe</text><text fill="#000000" font-family="sans-serif" font-size="11" lengthAdjust="spacing" textLength="223.6362" x="501.1235" y="695.0854">PTP peer-delay measurement completes</text><polygon fill="#181818" points="216.6006,728.8125,206.6006,732.8125,216.6006,736.8125,212.6006,732.8125" style="stroke:#181818;stroke-width:1;"/><line style="stroke:#181818;stroke-width:1;" x1="210.6006" x2="1019.2827" y1="732.8125" y2="732.8125"/><text fill="#000080" font-family="sans-serif" font-size="13" font-weight="bold" lengthAdjust="spacing" textLength="29.9736" x="222.6006" y="727.7466">[12]</text><text fill="#000000" font-family="sans-serif" font-size="13" lengthAdjust="spacing" textLength="292.7349" x="256.5742" y="727.7466">cb(PDelayMeasurementData&lt;VehicleTime&gt;)</text><path d="M5,745.8125 L5,785.8125 L407,785.8125 L407,755.8125 L397,745.8125 L5,745.8125 " fill="#FEFFDD" style="stroke:#181818;stroke-width:0.5;"/><path d="M397,745.8125 L397,755.8125 L407,755.8125 L397,745.8125 " fill="#FEFFDD" style="stroke:#181818;stroke-width:0.5;"/><text fill="#000000" font-family="sans-serif" font-size="13" lengthAdjust="spacing" textLength="169.584" x="11" y="762.8794">To remove a subscription:</text><text fill="#000000" font-family="sans-serif" font-size="13" lengthAdjust="spacing" textLength="381.2021" x="11" y="778.0122">clock.Unsubscribe&lt;TimeSlaveSyncData&lt;VehicleTime&gt;&gt;()</text><rect fill="transparent" height="79.1875" id="_legend" rx="7.5" ry="7.5" style="stroke:#000000;stroke-width:1;" width="314.7324" x="12" y="54.2969"/><text fill="#000000" font-family="sans-serif" font-size="14" font-weight="bold" lengthAdjust="spacing" textLength="41.2139" x="21.874" y="74.292">Color</text><text fill="#000000" font-family="sans-serif" font-size="14" font-weight="bold" lengthAdjust="spacing" textLength="90.5488" x="141.0723" y="74.292">Description</text><rect fill="#FFA07A" height="16.2969" style="stroke:transparent;stroke-width:1;" width="119.1982" x="17" y="77.5938"/><text fill="#000000" font-family="sans-serif" font-size="14" lengthAdjust="spacing" textLength="35.6016" x="17" y="90.5889">&#160;&#160;&#160;&#160;&#160;&#160;&#160;&#160;</text><text fill="#000000" font-family="sans-serif" font-size="14" lengthAdjust="spacing" textLength="116.4365" x="140.6484" y="90.5889">Application code</text><rect fill="#90EE90" height="16.2969" style="stroke:transparent;stroke-width:1;" width="119.1982" x="17" y="93.8906"/><text fill="#000000" font-family="sans-serif" font-size="14" lengthAdjust="spacing" textLength="40.0518" x="17" y="106.8857">&#160;&#160;&#160;&#160;&#160;&#160;&#160;&#160;&#160;</text><text fill="#000000" font-family="sans-serif" font-size="14" lengthAdjust="spacing" textLength="158.833" x="140.6484" y="106.8857">score::time framework</text><rect fill="#F08080" height="16.2969" style="stroke:transparent;stroke-width:1;" width="119.1982" x="17" y="110.1875"/><text fill="#000000" font-family="sans-serif" font-size="14" lengthAdjust="spacing" textLength="40.0518" x="17" y="123.1826">&#160;&#160;&#160;&#160;&#160;&#160;&#160;&#160;&#160;</text><text fill="#000000" font-family="sans-serif" font-size="14" lengthAdjust="spacing" textLength="140.1777" x="140.6484" y="123.1826">PTP backend thread</text><line style="stroke:#000000;stroke-width:1;" x1="17" x2="321.7324" y1="61.2969" y2="61.2969"/><line style="stroke:#000000;stroke-width:1;" x1="17" x2="321.7324" y1="77.5938" y2="77.5938"/><line style="stroke:#000000;stroke-width:1;" x1="17" x2="321.7324" y1="93.8906" y2="93.8906"/><line style="stroke:#000000;stroke-width:1;" x1="17" x2="321.7324" y1="110.1875" y2="110.1875"/><line style="stroke:#000000;stroke-width:1;" x1="17" x2="321.7324" y1="126.4844" y2="126.4844"/><line style="stroke:#000000;stroke-width:1;" x1="17" x2="17" y1="61.2969" y2="126.4844"/><line style="stroke:#000000;stroke-width:1;" x1="136.1982" x2="136.1982" y1="61.2969" y2="126.4844"/><line style="stroke:#000000;stroke-width:1;" x1="321.7324" x2="321.7324" y1="61.2969" y2="126.4844"/><!--SRC=[lLLDQnin4BthLmpEnNkmCHHoCCv2whGXq4A8arwQ7cQrirvXhRH8ijD03_qH_ONz9HtjXxs9axPGw9xCQEQzUKypSb114zmjty3Fxp_Wt3yQ2TUtr_1kHoR0QfjvwLGTb3L2-8qoDJgi84EvMJkxDVdIQklWeLI1HAboWiBQaDcl0hV1ccsLaOFHeh0C9cFgcS7TOxh8qi-psPUH49hMP788jWPDHH30txSpQ66VVXo-e7qxpyxQmiN91xKkmmfrPKswFuJpkjPAObCdBNVvIk6b8phKSQ6Nrj5y7bJ5obWvFLYtUQ5mQHtgOM7qCBhKY2iTONvWv5WhMmXs2aQ3xaPmGgV5h2WQT3OxAAbgPFU6MVT6sggsXgze1EW1wng6oYC3n4jeyGSY63-Y5xDZ_4zKAgbfgQtSDAWo_eA1CSzWttRonfxYL0JgX2QHX2dez9XaOCkz6GyfhmgKb3J4lMy3Qm_KKUiaxPgRmoM5A-C36adZHBJH2P_7j3cK6AqMmbZkpkvu5ZdUT7L3Q-K31oHg7GazMCO03A2C2WrVh3eYx5OYeyKj-xdIkACLByq51bnqUk91cevbbWYKGUsYDKrvtr-wbyXu58w0RaYIsb6-x7fx2jNLYXvZqdSdSZfAUkB8CA6jU5tTzGLfVFn8wBUEAfwqVr5u1FQUJVRbVr4udKwRRMoUDcgUDNIExVMyqRRY6N7v0pe2JXG7odw4P3R-_KKdxNIvEAjWYtrVSShYS57Ea_NiBMWEuuFRJnzKMnyWwrTeuh6WmGps6ceYDycZbr0Tp8Ju6cWAhEXL3N- -pkIbDRcrmEaS0WG_-3EOj_AYmzCxu_zw9vA3g5y0]--></g></svg>