<svg xmlns="http://www.w3.org/2000/svg" xmlns:xlink="http://www.w3.org/1999/xlink" contentStyleType="text/css" data-diagram-type="SEQUENCE" height="845px" preserveAspectRatio="none" style="width:790px;height:845px;background:#FFFFFF;" version="1.1" viewBox="0 0 790 845" width="790px" zoomAndPan="magnify"><title>UC2 &#8212; Availability Waiting at Startup</title><defs/><g><text fill="#000000" font-family="sans-serif" font-size="14" font-weight="bold" lengthAdjust="spacing" textLength="295.5586" x="248.9324" y="27.9951">UC2 &#8212; Availability Waiting at Startup</text><rect fill="#E6F0FF" height="684.6484" style="stroke:#181818;stroke-width:0.5;" width="88.9194" x="114" y="147.4844"/><text fill="#000000" font-family="sans-serif" font-size="13" font-weight="bold" lengthAdjust="spacing" textLength="82.9194" x="117" y="159.5513">Application</text><rect fill="#F0FFF0" height="684.6484" style="stroke:#181818;stroke-width:0.5;" width="111.1885" x="396.6865" y="147.4844"/><text fill="#000000" font-family="sans-serif" font-size="13" font-weight="bold" lengthAdjust="spacing" textLength="83.0337" x="410.7639" y="159.5513">score::time</text><rect fill="#FFF0E6" height="684.6484" style="stroke:#181818;stroke-width:0.5;" width="145.1357" x="612.3701" y="147.4844"/><text fill="#000000" font-family="sans-serif" font-size="13" font-weight="bold" lengthAdjust="spacing" textLength="62.4102" x="653.7329" y="159.5513">Backend</text><g><title>VehicleClock</title><rect fill="#FFFFFF" height="29.1328" style="stroke:#181818;stroke-width:1;" width="10" x="447.2808" y="245.3438"/></g><g><title>VehicleClock</title><rect fill="#FFFFFF" height="87.3984" style="stroke:#181818;stroke-width:1;" width="10" x="447.2808" y="338.7422"/></g><g><title>VehicleClock</title><rect fill="#FFFFFF" height="118.5313" style="stroke:#181818;stroke-width:1;" width="10" x="447.2808" y="547.6719"/></g><g><title>VehicleClock</title><rect fill="#FFFFFF" height="29.1328" style="stroke:#181818;stroke-width:1;" width="10" x="447.2808" y="695.3359"/></g><g><title>VehicleClockIface</title><rect fill="#FFFFFF" height="29.1328" style="stroke:#181818;stroke-width:1;" width="10" x="679.938" y="367.875"/></g><g><title>VehicleClockIface</title><rect fill="#FFFFFF" height="29.1328" style="stroke:#181818;stroke-width:1;" width="10" x="679.938" y="600.9375"/></g><rect fill="transparent" height="75.3984" style="stroke:#000000;stroke-width:1.5;" width="393.7368" x="390.6865" y="562.6719"/><g><title>Startup</title><rect fill="transparent" height="623.9219" width="8" x="154.4597" y="214.2109"/><line style="stroke:#181818;stroke-width:0.5;stroke-dasharray:5.0,5.0;" x1="157.4797" x2="157.4797" y1="214.2109" y2="838.1328"/></g><g><title>VehicleClock</title><rect fill="transparent" height="623.9219" width="8" x="448.2808" y="214.2109"/><line style="stroke:#181818;stroke-width:0.5;stroke-dasharray:5.0,5.0;" x1="451.6865" x2="451.6865" y1="214.2109" y2="838.1328"/></g><g><title>VehicleClockIface</title><rect fill="transparent" height="623.9219" width="8" x="680.938" y="214.2109"/><line style="stroke:#181818;stroke-width:0.5;stroke-dasharray:5.0,5.0;" x1="684.3701" x2="684.3701" y1="214.2109" y2="838.1328"/></g><rect fill="#FFA07A" height="46.5938" rx="2.5" ry="2.5" style="stroke:#181818;stroke-width:0.5;" width="65.96" x="125.4797" y="166.6172"/><text fill="#000000" font-family="sans-serif" font-size="14" lengthAdjust="spacing" textLength="51.96" x="132.4797" y="186.6123">Startup</text><text fill="#000000" font-family="sans-serif" font-size="14" lengthAdjust="spacing" textLength="33.7627" x="141.5784" y="202.9092">code</text><rect fill="#90EE90" height="30.2969" rx="2.5" ry="2.5" style="stroke:#181818;stroke-width:0.5;" width="103.1885" x="400.6865" y="182.9141"/><text fill="#000000" font-family="sans-serif" font-size="14" lengthAdjust="spacing" textLength="89.1885" x="407.6865" y="202.9092">VehicleClock</text><rect fill="#F08080" height="30.2969" rx="2.5" ry="2.5" style="stroke:#181818;stroke-width:0.5;" width="137.1357" x="616.3701" y="182.9141"/><text fill="#000000" font-family="sans-serif" font-size="14" lengthAdjust="spacing" textLength="123.1357" x="623.3701" y="202.9092">VehicleClockIface</text><g><title>VehicleClock</title><rect fill="#FFFFFF" height="29.1328" style="stroke:#181818;stroke-width:1;" width="10" x="447.2808" y="245.3438"/></g><g><title>VehicleClock</title><rect fill="#FFFFFF" height="87.3984" style="stroke:#181818;stroke-width:1;" width="10" x="447.2808" y="338.7422"/></g><g><title>VehicleClock</title><rect fill="#FFFFFF" height="118.5313" style="stroke:#181818;stroke-width:1;" width="10" x="447.2808" y="547.6719"/></g><g><title>VehicleClock</title><rect fill="#FFFFFF" height="29.1328" style="stroke:#181818;stroke-width:1;" width="10" x="447.2808" y="695.3359"/></g><g><title>VehicleClockIface</title><rect fill="#FFFFFF" height="29.1328" style="stroke:#181818;stroke-width:1;" width="10" x="679.938" y="367.875"/></g><g><title>VehicleClockIface</title><rect fill="#FFFFFF" height="29.1328" style="stroke:#181818;stroke-width:1;" width="10" x="679.938" y="600.9375"/></g><polygon fill="#181818" points="435.2808,241.3438,445.2808,245.3438,435.2808,249.3438,439.2808,245.3438" style="stroke:#181818;stroke-width:1;"/><line style="stroke:#181818;stroke-width:1;" x1="158.4597" x2="441.2808" y1="245.3438" y2="245.3438"/><text fill="#000080" font-family="sans-serif" font-size="13" font-weight="bold" lengthAdjust="spacing" textLength="29.9736" x="165.4597" y="240.2778">[01]</text><text fill="#000000" font-family="sans-serif" font-size="13" lengthAdjust="spacing" textLength="88.6069" x="199.4333" y="240.2778">GetInstance()</text><polygon fill="#181818" points="169.4597,270.4766,159.4597,274.4766,169.4597,278.4766,165.4597,274.4766" style="stroke:#181818;stroke-width:1;"/><line style="stroke:#181818;stroke-width:1;stroke-dasharray:2.0,2.0;" x1="163.4597" x2="451.2808" y1="274.4766" y2="274.4766"/><text fill="#000080" font-family="sans-serif" font-size="13" font-weight="bold" lengthAdjust="spacing" textLength="29.9736" x="175.4597" y="269.4106">[02]</text><text fill="#000000" font-family="sans-serif" font-size="13" lengthAdjust="spacing" textLength="44.3066" x="209.4333" y="269.4106">handle</text><path d="M80,287.4766 L80,312.4766 L236,312.4766 L236,297.4766 L226,287.4766 L80,287.4766 " fill="#FEFFDD" style="stroke:#181818;stroke-width:0.5;"/><path d="M226,287.4766 L226,297.4766 L236,297.4766 L226,287.4766 " fill="#FEFFDD" style="stroke:#181818;stroke-width:0.5;"/><text fill="#000000" font-family="sans-serif" font-size="13" lengthAdjust="spacing" textLength="135.2559" x="86" y="304.5435">Non-blocking variant</text><polygon fill="#181818" points="435.2808,334.7422,445.2808,338.7422,435.2808,342.7422,439.2808,338.7422" style="stroke:#181818;stroke-width:1;"/><line style="stroke:#181818;stroke-width:1;" x1="158.4597" x2="441.2808" y1="338.7422" y2="338.7422"/><text fill="#000080" font-family="sans-serif" font-size="13" font-weight="bold" lengthAdjust="spacing" textLength="29.9736" x="165.4597" y="333.6763">[03]</text><text fill="#000000" font-family="sans-serif" font-size="13" lengthAdjust="spacing" textLength="80.355" x="199.4333" y="333.6763">IsAvailable()</text><polygon fill="#181818" points="667.938,363.875,677.938,367.875,667.938,371.875,671.938,367.875" style="stroke:#181818;stroke-width:1;"/><line style="stroke:#181818;stroke-width:1;" x1="457.2808" x2="673.938" y1="367.875" y2="367.875"/><text fill="#000080" font-family="sans-serif" font-size="13" font-weight="bold" lengthAdjust="spacing" textLength="29.9736" x="464.2808" y="362.8091">[04]</text><text fill="#000000" font-family="sans-serif" font-size="13" lengthAdjust="spacing" textLength="80.355" x="498.2544" y="362.8091">IsAvailable()</text><polygon fill="#181818" points="468.2808,393.0078,458.2808,397.0078,468.2808,401.0078,464.2808,397.0078" style="stroke:#181818;stroke-width:1;"/><line style="stroke:#181818;stroke-width:1;stroke-dasharray:2.0,2.0;" x1="462.2808" x2="683.938" y1="397.0078" y2="397.0078"/><text fill="#000080" font-family="sans-serif" font-size="13" font-weight="bold" lengthAdjust="spacing" textLength="29.9736" x="474.2808" y="391.9419">[05]</text><text fill="#000000" font-family="sans-serif" font-size="13" lengthAdjust="spacing" textLength="164.6836" x="508.2544" y="391.9419">false  (PTP not yet ready)</text><polygon fill="#181818" points="169.4597,422.1406,159.4597,426.1406,169.4597,430.1406,165.4597,426.1406" style="stroke:#181818;stroke-width:1;"/><line style="stroke:#181818;stroke-width:1;stroke-dasharray:2.0,2.0;" x1="163.4597" x2="451.2808" y1="426.1406" y2="426.1406"/><text fill="#000080" font-family="sans-serif" font-size="13" font-weight="bold" lengthAdjust="spacing" textLength="29.9736" x="175.4597" y="421.0747">[06]</text><text fill="#000000" font-family="sans-serif" font-size="13" lengthAdjust="spacing" textLength="30.9258" x="209.4333" y="421.0747">false</text><line style="stroke:#181818;stroke-width:1;" x1="158.4597" x2="200.4597" y1="455.2734" y2="455.2734"/><line style="stroke:#181818;stroke-width:1;" x1="200.4597" x2="200.4597" y1="455.2734" y2="468.2734"/><line style="stroke:#181818;stroke-width:1;" x1="159.4597" x2="200.4597" y1="468.2734" y2="468.2734"/><polygon fill="#181818" points="169.4597,464.2734,159.4597,468.2734,169.4597,472.2734,165.4597,468.2734" style="stroke:#181818;stroke-width:1;"/><text fill="#000080" font-family="sans-serif" font-size="13" font-weight="bold" lengthAdjust="spacing" textLength="29.9736" x="165.4597" y="450.2075">[07]</text><text fill="#000000" font-family="sans-serif" font-size="13" lengthAdjust="spacing" textLength="104.4888" x="199.4333" y="450.2075">... wait / retry ...</text><path d="M5,481.2734 L5,506.2734 L313,506.2734 L313,491.2734 L303,481.2734 L5,481.2734 " fill="#FEFFDD" style="stroke:#181818;stroke-width:0.5;"/><path d="M303,481.2734 L303,491.2734 L313,491.2734 L303,481.2734 " fill="#FEFFDD" style="stroke:#181818;stroke-width:0.5;"/><text fill="#000000" font-family="sans-serif" font-size="13" lengthAdjust="spacing" textLength="287.6377" x="11" y="498.3403">Blocking variant with stop_token + deadline</text><polygon fill="#181818" points="435.2808,543.6719,445.2808,547.6719,435.2808,551.6719,439.2808,547.6719" style="stroke:#181818;stroke-width:1;"/><line style="stroke:#181818;stroke-width:1;" x1="158.4597" x2="441.2808" y1="547.6719" y2="547.6719"/><text fill="#000080" font-family="sans-serif" font-size="13" font-weight="bold" lengthAdjust="spacing" textLength="29.9736" x="165.4597" y="535.0396">[08]</text><text fill="#000000" font-family="sans-serif" font-size="13" lengthAdjust="spacing" textLength="199.8052" x="199.4333" y="527.4731">WaitUntilAvailable(stop_token,</text><text fill="#000000" font-family="sans-serif" font-size="13" lengthAdjust="spacing" textLength="176.9409" x="207.698" y="542.606">steady_clock::now() + 30s)</text><path d="M390.6865,562.6719 L467.3105,562.6719 L467.3105,569.8047 L457.3105,579.8047 L390.6865,579.8047 L390.6865,562.6719 " fill="#EEEEEE" style="stroke:#000000;stroke-width:1.5;"/><rect fill="transparent" height="75.3984" style="stroke:#000000;stroke-width:1.5;" width="393.7368" x="390.6865" y="562.6719"/><text fill="#000000" font-family="sans-serif" font-size="13" font-weight="bold" lengthAdjust="spacing" textLength="31.624" x="405.6865" y="575.7388">loop</text><text fill="#000000" font-family="sans-serif" font-size="11" font-weight="bold" lengthAdjust="spacing" textLength="297.1128" x="482.3105" y="574.8823">[until available OR deadline OR stop requested]</text><polygon fill="#181818" points="667.938,596.9375,677.938,600.9375,667.938,604.9375,671.938,600.9375" style="stroke:#181818;stroke-width:1;"/><line style="stroke:#181818;stroke-width:1;" x1="457.2808" x2="673.938" y1="600.9375" y2="600.9375"/><text fill="#000080" font-family="sans-serif" font-size="13" font-weight="bold" lengthAdjust="spacing" textLength="29.9736" x="464.2808" y="595.8716">[09]</text><text fill="#000000" font-family="sans-serif" font-size="13" lengthAdjust="spacing" textLength="80.355" x="498.2544" y="595.8716">IsAvailable()</text><polygon fill="#181818" points="468.2808,626.0703,458.2808,630.0703,468.2808,634.0703,464.2808,630.0703" style="stroke:#181818;stroke-width:1;"/><line style="stroke:#181818;stroke-width:1;stroke-dasharray:2.0,2.0;" x1="462.2808" x2="683.938" y1="630.0703" y2="630.0703"/><text fill="#000080" font-family="sans-serif" font-size="13" font-weight="bold" lengthAdjust="spacing" textLength="29.9736" x="474.2808" y="625.0044">[10]</text><text fill="#000000" font-family="sans-serif" font-size="13" lengthAdjust="spacing" textLength="27.771" x="508.2544" y="625.0044">bool</text><polygon fill="#181818" points="169.4597,662.2031,159.4597,666.2031,169.4597,670.2031,165.4597,666.2031" style="stroke:#181818;stroke-width:1;"/><line style="stroke:#181818;stroke-width:1;stroke-dasharray:2.0,2.0;" x1="163.4597" x2="451.2808" y1="666.2031" y2="666.2031"/><text fill="#000080" font-family="sans-serif" font-size="13" font-weight="bold" lengthAdjust="spacing" textLength="29.9736" x="175.4597" y="661.1372">[11]</text><text fill="#000000" font-family="sans-serif" font-size="13" lengthAdjust="spacing" textLength="155.7905" x="209.4333" y="661.1372">true (became available)</text><polygon fill="#181818" points="435.2808,691.3359,445.2808,695.3359,435.2808,699.3359,439.2808,695.3359" style="stroke:#181818;stroke-width:1;"/><line style="stroke:#181818;stroke-width:1;" x1="158.4597" x2="441.2808" y1="695.3359" y2="695.3359"/><text fill="#000080" font-family="sans-serif" font-size="13" font-weight="bold" lengthAdjust="spacing" textLength="29.9736" x="165.4597" y="690.27">[12]</text><text fill="#000000" font-family="sans-serif" font-size="13" lengthAdjust="spacing" textLength="38.4541" x="199.4333" y="690.27">Now()</text><polygon fill="#181818" points="169.4597,720.4688,159.4597,724.4688,169.4597,728.4688,165.4597,724.4688" style="stroke:#181818;stroke-width:1;"/><line style="stroke:#181818;stroke-width:1;stroke-dasharray:2.0,2.0;" x1="163.4597" x2="451.2808" y1="724.4688" y2="724.4688"/><text fill="#000080" font-family="sans-serif" font-size="13" font-weight="bold" lengthAdjust="spacing" textLength="29.9736" x="175.4597" y="719.4028">[13]</text><text fill="#000000" font-family="sans-serif" font-size="13" lengthAdjust="spacing" textLength="223.3677" x="209.4333" y="719.4028">ClockSnapshot{timepoint, status}</text><path d="M163,737.4688 L163,822.4688 L443,822.4688 L443,747.4688 L433,737.4688 L163,737.4688 " fill="#FEFFDD" style="stroke:#181818;stroke-width:0.5;"/><path d="M433,737.4688 L433,747.4688 L443,747.4688 L433,737.4688 " fill="#FEFFDD" style="stroke:#181818;stroke-width:0.5;"/><text fill="#000000" font-family="sans-serif" font-size="13" lengthAdjust="spacing" textLength="256.2168" x="169" y="754.5356">Only Clock&lt;Tag&gt; domains that require</text><text fill="#000000" font-family="sans-serif" font-size="13" lengthAdjust="spacing" textLength="201.9316" x="169" y="769.6685">async init expose IsAvailable().</text><text fill="#000000" font-family="sans-serif" font-size="13" lengthAdjust="spacing" textLength="244.0801" x="169" y="784.8013">HplsTime / SteadyTime / SystemTime</text><text fill="#000000" font-family="sans-serif" font-size="13" lengthAdjust="spacing" textLength="259.6636" x="169" y="799.9341">are always ready &#8212; calling IsAvailable()</text><text fill="#000000" font-family="sans-serif" font-size="13" lengthAdjust="spacing" textLength="176.5601" x="169" y="815.0669">on them is a compile error.</text><rect fill="transparent" height="79.1875" id="_legend" rx="7.5" ry="7.5" style="stroke:#000000;stroke-width:1;" width="332.54" x="12" y="54.2969"/><text fill="#000000" font-family="sans-serif" font-size="14" font-weight="bold" lengthAdjust="spacing" textLength="41.2139" x="21.874" y="74.292">Color</text><text fill="#000000" font-family="sans-serif" font-size="14" font-weight="bold" lengthAdjust="spacing" textLength="90.5488" x="141.0723" y="74.292">Description</text><rect fill="#FFA07A" height="16.2969" style="stroke:transparent;stroke-width:1;" width="119.1982" x="17" y="77.5938"/><text fill="#000000" font-family="sans-serif" font-size="14" lengthAdjust="spacing" textLength="35.6016" x="17" y="90.5889">&#160;&#160;&#160;&#160;&#160;&#160;&#160;&#160;</text><text fill="#000000" font-family="sans-serif" font-size="14" lengthAdjust="spacing" textLength="171.2539" x="140.6484" y="90.5889">Application startup code</text><rect fill="#90EE90" height="16.2969" style="stroke:transparent;stroke-width:1;" width="119.1982" x="17" y="93.8906"/><text fill="#000000" font-family="sans-serif" font-size="14" lengthAdjust="spacing" textLength="40.0518" x="17" y="106.8857">&#160;&#160;&#160;&#160;&#160;&#160;&#160;&#160;&#160;</text><text fill="#000000" font-family="sans-serif" font-size="14" lengthAdjust="spacing" textLength="158.833" x="140.6484" y="106.8857">score::time framework</text><rect fill="#F08080" height="16.2969" style="stroke:transparent;stroke-width:1;" width="119.1982" x="17" y="110.1875"/><text fill="#000000" font-family="sans-serif" font-size="14" lengthAdjust="spacing" textLength="40.0518" x="17" y="123.1826">&#160;&#160;&#160;&#160;&#160;&#160;&#160;&#160;&#160;</text><text fill="#000000" font-family="sans-serif" font-size="14" lengthAdjust="spacing" textLength="149.9395" x="140.6484" y="123.1826">VehicleTime backend</text><line style="stroke:#000000;stroke-width:1;" x1="17" x2="339.54" y1="61.2969" y2="61.2969"/><line style="stroke:#000000;stroke-width:1;" x1="17" x2="339.54" y1="77.5938" y2="77.5938"/><line style="stroke:#000000;stroke-width:1;" x1="17" x2="339.54" y1="93.8906" y2="93.8906"/><line style="stroke:#000000;stroke-width:1;" x1="17" x2="339.54" y1="110.1875" y2="110.1875"/><line style="stroke:#000000;stroke-width:1;" x1="17" x2="339.54" y1="126.4844" y2="126.4844"/><line style="stroke:#000000;stroke-width:1;" x1="17" x2="17" y1="61.2969" y2="126.4844"/><line style="stroke:#000000;stroke-width:1;" x1="136.1982" x2="136.1982" y1="61.2969" y2="126.4844"/><line style="stroke:#000000;stroke-width:1;" x1="339.54" x2="339.54" y1="61.2969" y2="126.4844"/><!--SRC=[XLLBRjim4Dth50DdOwEnOxH05uPZ8761D42H14tIBfeYe2JA8aoJB3co8pG5UeYUi2VfZEIFua-ZbKJEl9dtvYDKg2NSZz_2tzz_u6mkb1QnqWfB-2eKAZC1WN2BmcFXeYXCbN72Ynd48fbEl2rCEhRQUbZa2cMKgrH2PYt6zYaI1LfJp6BfeJNCh458sFJKY7av6iQZR_t-zrOKQJcH9WMq3hJCC09wda-XXdtvqF476HAl72fhOETvhfs7Hv_K9CTReMVMZDQNSEQSLeceV4DDYLAYZFSuNtWfDxxa71BhvM20QaOCIG6vi7vw8FBOUg6RpbzahX8jxzYPbMF2pRJfkvOXYaWvQ3KoRS6HV9_riwoAGEAZIfGJf6PhMPO7moHQ8088vw19de61Qr73DZWGB8Dc_LtOPR9ZRPDfXPhm6pHqsO8zhnan907Az_-7lCn4KcUxKg8XsWQPgNH7ozW3k91uQQXe9f7jJYGIL7E1ihwEQgCkcRFN07B1UaQftBABZALtEwUE9CCgpIjhkZ5VSglFXLUKRvK4c-vaSHcM8w8FPp5QypfelpI8LeRTHeXCw40TsRwvk-4Se9G8Negqx3Jvh12scLVUUuWlUTH6lLuF5ZJTS4B8w4i-sAVD-POki52Oq-HOzuYMmiCRe4YfLaOUbepNoBr1fJTAR12E7sYA0pAznyfXC31sqUuGyhj-s55OMreI1OE1MA71zUTr5lpEu4JhHo49Dwrul5eODjgHbW_t5IYsLbUNUygnhoJe2mdjM2QqCpPfTmuNQHNeYfLuhTMhaRermeNSua-UR6ULmMDUS5Y4NuU6mFF8WStMnRuskgpHXdTYCeBKpeGo0J0NMEcflAo52gL9G1dg7_daB3Nh2p5xbT57fqErxKxevy7bNNsKL9KPVzHOdYJH2r66kiUhlr0YjEQkswqHxMtCvGmKRJhQt3EdgFxIU-jxcmRy1m00]--></g></svg>