<svg xmlns="http://www.w3.org/2000/svg" xmlns:xlink="http://www.w3.org/1999/xlink" contentStyleType="text/css" data-diagram-type="SEQUENCE" height="956px" preserveAspectRatio="none" style="width:900px;height:956px;background:#FFFFFF;" version="1.1" viewBox="0 0 900 956" width="900px" zoomAndPan="magnify"><title>libTSClient Seqlock IPC Protocol</title><defs/><g><text fill="#000000" font-family="Verdana" font-size="22" font-weight="bold" lengthAdjust="spacing" textLength="397.6973" x="249.6763" y="35.4209">libTSClient Seqlock IPC Protocol</text><rect fill="#FFFFFF" height="322.8047" style="stroke:#000000;stroke-width:1;" width="540.6709" x="342.3789" y="564.9297"/><rect fill="#FFFFFF" height="262.5391" style="stroke:#000000;stroke-width:1;" width="520.6709" x="352.3789" y="618.1953"/><rect fill="#FFFFFF" height="203.2734" style="stroke:transparent;stroke-width:1;" width="520.6709" x="352.3789" y="677.4609"/><rect fill="#FFFFFF" height="116.2031" style="stroke:#000000;stroke-width:1;" width="231.8735" x="631.1763" y="757.5313"/><rect fill="#FFFFFF" height="56.9375" style="stroke:transparent;stroke-width:1;" width="231.8735" x="631.1763" y="816.7969"/><g><title>TimeSlave</title><rect fill="transparent" height="169.6641" width="8" x="88.1328" y="99.2031"/><line style="stroke:#000000;stroke-width:1;" x1="92" x2="92" y1="99.2031" y2="268.8672"/></g><line style="stroke:#000000;stroke-width:1;stroke-dasharray:1.0,4.0;" x1="92" x2="92" y1="268.8672" y2="296.8672"/><g><title>TimeSlave</title><rect fill="transparent" height="607.8672" width="8" x="88.1328" y="296.8672"/><line style="stroke:#000000;stroke-width:1;" x1="92" x2="92" y1="296.8672" y2="904.7344"/></g><g><title>SharedMemory</title><rect fill="transparent" height="169.6641" width="8" x="432.5308" y="99.2031"/><line style="stroke:#000000;stroke-width:1;" x1="436.3789" x2="436.3789" y1="99.2031" y2="268.8672"/></g><line style="stroke:#000000;stroke-width:1;stroke-dasharray:1.0,4.0;" x1="436.3789" x2="436.3789" y1="268.8672" y2="296.8672"/><g><title>SharedMemory</title><rect fill="transparent" height="607.8672" width="8" x="432.5308" y="296.8672"/><line style="stroke:#000000;stroke-width:1;" x1="436.3789" x2="436.3789" y1="296.8672" y2="904.7344"/></g><g><title>TimeDaemon</title><rect fill="transparent" height="169.6641" width="8" x="717.6479" y="99.2031"/><line style="stroke:#000000;stroke-width:1;" x1="721.1763" x2="721.1763" y1="99.2031" y2="268.8672"/></g><line style="stroke:#000000;stroke-width:1;stroke-dasharray:1.0,4.0;" x1="721.1763" x2="721.1763" y1="268.8672" y2="296.8672"/><g><title>TimeDaemon</title><rect fill="transparent" height="607.8672" width="8" x="717.6479" y="296.8672"/><line style="stroke:#000000;stroke-width:1;" x1="721.1763" x2="721.1763" y1="296.8672" y2="904.7344"/></g><rect fill="#FFB6C1" height="46.5938" rx="2.5" ry="2.5" style="stroke:#000000;stroke-width:1;" width="144.2656" x="20" y="51.6094"/><text fill="#000000" font-family="Verdana" font-size="14" lengthAdjust="spacing" textLength="72.9463" x="55.6597" y="71.6045">TimeSlave</text><text fill="#000000" font-family="Verdana" font-size="14" lengthAdjust="spacing" textLength="130.2656" x="27" y="87.9014">(GptpIpcPublisher)</text><rect fill="#FFB6C1" height="46.5938" rx="2.5" ry="2.5" style="stroke:#000000;stroke-width:1;" width="144.2656" x="20" y="903.7344"/><text fill="#000000" font-family="Verdana" font-size="14" lengthAdjust="spacing" textLength="72.9463" x="55.6597" y="923.7295">TimeSlave</text><text fill="#000000" font-family="Verdana" font-size="14" lengthAdjust="spacing" textLength="130.2656" x="27" y="940.0264">(GptpIpcPublisher)</text><rect fill="#E0FFFF" height="46.5938" rx="2.5" ry="2.5" style="stroke:#000000;stroke-width:1;" width="128.3037" x="372.3789" y="51.6094"/><text fill="#000000" font-family="Verdana" font-size="14" lengthAdjust="spacing" textLength="106.5313" x="383.2651" y="71.6045">SharedMemory</text><text fill="#000000" font-family="Verdana" font-size="14" lengthAdjust="spacing" textLength="114.3037" x="379.3789" y="87.9014">(GptpIpcRegion)</text><rect fill="#E0FFFF" height="46.5938" rx="2.5" ry="2.5" style="stroke:#000000;stroke-width:1;" width="128.3037" x="372.3789" y="903.7344"/><text fill="#000000" font-family="Verdana" font-size="14" lengthAdjust="spacing" textLength="106.5313" x="383.2651" y="923.7295">SharedMemory</text><text fill="#000000" font-family="Verdana" font-size="14" lengthAdjust="spacing" textLength="114.3037" x="379.3789" y="940.0264">(GptpIpcRegion)</text><rect fill="#FFB6C1" height="46.5938" rx="2.5" ry="2.5" style="stroke:#000000;stroke-width:1;" width="140.9434" x="651.1763" y="51.6094"/><text fill="#000000" font-family="Verdana" font-size="14" lengthAdjust="spacing" textLength="93.7412" x="674.7773" y="71.6045">TimeDaemon</text><text fill="#000000" font-family="Verdana" font-size="14" lengthAdjust="spacing" textLength="126.9434" x="658.1763" y="87.9014">(GptpIpcReceiver)</text><rect fill="#FFB6C1" height="46.5938" rx="2.5" ry="2.5" style="stroke:#000000;stroke-width:1;" width="140.9434" x="651.1763" y="903.7344"/><text fill="#000000" font-family="Verdana" font-size="14" lengthAdjust="spacing" textLength="93.7412" x="674.7773" y="923.7295">TimeDaemon</text><text fill="#000000" font-family="Verdana" font-size="14" lengthAdjust="spacing" textLength="126.9434" x="658.1763" y="940.0264">(GptpIpcReceiver)</text><rect fill="#FFFFFF" height="3" style="stroke:#FFFFFF;stroke-width:1;" width="888.0498" x="5" y="129.7695"/><line style="stroke:#000000;stroke-width:0.5;" x1="5" x2="893.0498" y1="129.7695" y2="129.7695"/><line style="stroke:#000000;stroke-width:0.5;" x1="5" x2="893.0498" y1="132.7695" y2="132.7695"/><rect fill="#FFFFFF" height="23.1328" style="stroke:#000000;stroke-width:1;" width="110.624" x="393.7129" y="119.2031"/><text fill="#000000" font-family="Verdana" font-size="13" font-weight="bold" lengthAdjust="spacing" textLength="92.0981" x="399.7129" y="135.27">Initialization</text><polygon fill="#000000" points="424.5308,169.4688,434.5308,173.4688,424.5308,177.4688,428.5308,173.4688" style="stroke:#000000;stroke-width:1;"/><line style="stroke:#000000;stroke-width:1;" x1="92.1328" x2="430.5308" y1="173.4688" y2="173.4688"/><text fill="#000000" font-family="Verdana" font-size="13" lengthAdjust="spacing" textLength="320.3979" x="99.1328" y="168.4028">shm_open("/gptp_ptp_info", O_CREAT | O_RDWR)</text><polygon fill="#000000" points="424.5308,198.6016,434.5308,202.6016,424.5308,206.6016,428.5308,202.6016" style="stroke:#000000;stroke-width:1;"/><line style="stroke:#000000;stroke-width:1;" x1="92.1328" x2="430.5308" y1="202.6016" y2="202.6016"/><text fill="#000000" font-family="Verdana" font-size="13" lengthAdjust="spacing" textLength="213.7256" x="99.1328" y="197.5356">ftruncate(sizeof(GptpIpcRegion))</text><polygon fill="#000000" points="424.5308,227.7344,434.5308,231.7344,424.5308,235.7344,428.5308,231.7344" style="stroke:#000000;stroke-width:1;"/><line style="stroke:#000000;stroke-width:1;" x1="92.1328" x2="430.5308" y1="231.7344" y2="231.7344"/><text fill="#000000" font-family="Verdana" font-size="13" lengthAdjust="spacing" textLength="225.4497" x="99.1328" y="226.6685">mmap(PROT_READ | PROT_WRITE)</text><polygon fill="#000000" points="424.5308,256.8672,434.5308,260.8672,424.5308,264.8672,428.5308,260.8672" style="stroke:#000000;stroke-width:1;"/><line style="stroke:#000000;stroke-width:1;" x1="92.1328" x2="430.5308" y1="260.8672" y2="260.8672"/><text fill="#000000" font-family="Verdana" font-size="13" lengthAdjust="spacing" textLength="177.7471" x="99.1328" y="255.8013">write magic = 0x47505440</text><polygon fill="#000000" points="447.5308,314,437.5308,318,447.5308,322,443.5308,318" style="stroke:#000000;stroke-width:1;"/><line style="stroke:#000000;stroke-width:1;" x1="441.5308" x2="720.6479" y1="318" y2="318"/><text fill="#000000" font-family="Verdana" font-size="13" lengthAdjust="spacing" textLength="261.1172" x="453.5308" y="312.9341">shm_open("/gptp_ptp_info", O_RDONLY)</text><polygon fill="#000000" points="447.5308,343.1328,437.5308,347.1328,447.5308,351.1328,443.5308,347.1328" style="stroke:#000000;stroke-width:1;"/><line style="stroke:#000000;stroke-width:1;" x1="441.5308" x2="720.6479" y1="347.1328" y2="347.1328"/><text fill="#000000" font-family="Verdana" font-size="13" lengthAdjust="spacing" textLength="129.3843" x="453.5308" y="342.0669">mmap(PROT_READ)</text><polygon fill="#000000" points="447.5308,372.2656,437.5308,376.2656,447.5308,380.2656,443.5308,376.2656" style="stroke:#000000;stroke-width:1;"/><line style="stroke:#000000;stroke-width:1;" x1="441.5308" x2="720.6479" y1="376.2656" y2="376.2656"/><text fill="#000000" font-family="Verdana" font-size="13" lengthAdjust="spacing" textLength="192.8735" x="453.5308" y="371.1997">verify magic == 0x47505440</text><rect fill="#FFFFFF" height="3" style="stroke:#FFFFFF;stroke-width:1;" width="888.0498" x="5" y="404.832"/><line style="stroke:#000000;stroke-width:0.5;" x1="5" x2="893.0498" y1="404.832" y2="404.832"/><line style="stroke:#000000;stroke-width:0.5;" x1="5" x2="893.0498" y1="407.832" y2="407.832"/><rect fill="#FFFFFF" height="23.1328" style="stroke:#000000;stroke-width:1;" width="172.0439" x="363.0029" y="394.2656"/><text fill="#000000" font-family="Verdana" font-size="13" font-weight="bold" lengthAdjust="spacing" textLength="153.5181" x="369.0029" y="410.3325">Publish (Writer Side)</text><polygon fill="#000000" points="424.5308,444.5313,434.5308,448.5313,424.5308,452.5313,428.5308,448.5313" style="stroke:#000000;stroke-width:1;"/><line style="stroke:#000000;stroke-width:1;" x1="92.1328" x2="430.5308" y1="448.5313" y2="448.5313"/><text fill="#000000" font-family="Verdana" font-size="13" lengthAdjust="spacing" textLength="301.2407" x="99.1328" y="443.4653">seq.fetch_add(1, release)  // seq becomes odd</text><polygon fill="#000000" points="424.5308,473.6641,434.5308,477.6641,424.5308,481.6641,428.5308,477.6641" style="stroke:#000000;stroke-width:1;"/><line style="stroke:#000000;stroke-width:1;" x1="92.1328" x2="430.5308" y1="477.6641" y2="477.6641"/><text fill="#000000" font-family="Verdana" font-size="13" lengthAdjust="spacing" textLength="184.6279" x="99.1328" y="472.5981">memcpy(data, &amp;info, sizeof)</text><polygon fill="#000000" points="424.5308,502.7969,434.5308,506.7969,424.5308,510.7969,428.5308,506.7969" style="stroke:#000000;stroke-width:1;"/><line style="stroke:#000000;stroke-width:1;" x1="92.1328" x2="430.5308" y1="506.7969" y2="506.7969"/><text fill="#000000" font-family="Verdana" font-size="13" lengthAdjust="spacing" textLength="308.7119" x="99.1328" y="501.731">seq.fetch_add(1, release)  // seq becomes even</text><rect fill="#FFFFFF" height="3" style="stroke:#FFFFFF;stroke-width:1;" width="888.0498" x="5" y="535.3633"/><line style="stroke:#000000;stroke-width:0.5;" x1="5" x2="893.0498" y1="535.3633" y2="535.3633"/><line style="stroke:#000000;stroke-width:0.5;" x1="5" x2="893.0498" y1="538.3633" y2="538.3633"/><rect fill="#FFFFFF" height="23.1328" style="stroke:#000000;stroke-width:1;" width="180.6323" x="358.7087" y="524.7969"/><text fill="#000000" font-family="Verdana" font-size="13" font-weight="bold" lengthAdjust="spacing" textLength="162.1064" x="364.7087" y="540.8638">Receive (Reader Side)</text><path d="M342.3789,564.9297 L419.0029,564.9297 L419.0029,572.0625 L409.0029,582.0625 L342.3789,582.0625 L342.3789,564.9297 " fill="#FFFFFF" style="stroke:#000000;stroke-width:1;"/><rect fill="transparent" height="322.8047" style="stroke:#000000;stroke-width:1;" width="540.6709" x="342.3789" y="564.9297"/><text fill="#000000" font-family="Verdana" font-size="13" font-weight="bold" lengthAdjust="spacing" textLength="31.624" x="357.3789" y="577.9966">loop</text><text fill="#000000" font-family="Verdana" font-size="11" font-weight="bold" lengthAdjust="spacing" textLength="106.7183" x="434.0029" y="577.1401">[up to 20 retries]</text><polygon fill="#000000" points="447.5308,599.1953,437.5308,603.1953,447.5308,607.1953,443.5308,603.1953" style="stroke:#000000;stroke-width:1;"/><line style="stroke:#000000;stroke-width:1;" x1="441.5308" x2="720.6479" y1="603.1953" y2="603.1953"/><text fill="#000000" font-family="Verdana" font-size="13" lengthAdjust="spacing" textLength="147.8433" x="453.5308" y="598.1294">s1 = seq.load(acquire)</text><path d="M352.3789,618.1953 L416.8218,618.1953 L416.8218,625.3281 L406.8218,635.3281 L352.3789,635.3281 L352.3789,618.1953 " fill="#FFFFFF" style="stroke:#000000;stroke-width:1;"/><rect fill="transparent" height="262.5391" style="stroke:#000000;stroke-width:1;" width="520.6709" x="352.3789" y="618.1953"/><text fill="#000000" font-family="Verdana" font-size="13" font-weight="bold" lengthAdjust="spacing" textLength="19.4429" x="367.3789" y="631.2622">alt</text><text fill="#000000" font-family="Verdana" font-size="11" font-weight="bold" lengthAdjust="spacing" textLength="185.4692" x="431.8218" y="630.4058">[s1 is odd (write in progress)]</text><line style="stroke:#000000;stroke-width:1;" x1="721.6479" x2="763.6479" y1="656.4609" y2="656.4609"/><line style="stroke:#000000;stroke-width:1;" x1="763.6479" x2="763.6479" y1="656.4609" y2="669.4609"/><line style="stroke:#000000;stroke-width:1;" x1="722.6479" x2="763.6479" y1="669.4609" y2="669.4609"/><polygon fill="#000000" points="732.6479,665.4609,722.6479,669.4609,732.6479,673.4609,728.6479,669.4609" style="stroke:#000000;stroke-width:1;"/><text fill="#000000" font-family="Verdana" font-size="13" lengthAdjust="spacing" textLength="31.478" x="728.6479" y="651.395">retry</text><line style="stroke:#000000;stroke-width:1;stroke-dasharray:2.0,2.0;" x1="352.3789" x2="873.0498" y1="678.4609" y2="678.4609"/><text fill="#000000" font-family="Verdana" font-size="11" font-weight="bold" lengthAdjust="spacing" textLength="72.1553" x="357.3789" y="688.6714">[s1 is even]</text><polygon fill="#000000" points="447.5308,709.3984,437.5308,713.3984,447.5308,717.3984,443.5308,713.3984" style="stroke:#000000;stroke-width:1;"/><line style="stroke:#000000;stroke-width:1;" x1="441.5308" x2="720.6479" y1="713.3984" y2="713.3984"/><text fill="#000000" font-family="Verdana" font-size="13" lengthAdjust="spacing" textLength="190.5376" x="453.5308" y="708.3325">memcpy(&amp;local, data, sizeof)</text><polygon fill="#000000" points="447.5308,738.5313,437.5308,742.5313,447.5308,746.5313,443.5308,742.5313" style="stroke:#000000;stroke-width:1;"/><line style="stroke:#000000;stroke-width:1;" x1="441.5308" x2="720.6479" y1="742.5313" y2="742.5313"/><text fill="#000000" font-family="Verdana" font-size="13" lengthAdjust="spacing" textLength="147.8433" x="453.5308" y="737.4653">s2 = seq.load(acquire)</text><path d="M631.1763,757.5313 L695.6191,757.5313 L695.6191,764.6641 L685.6191,774.6641 L631.1763,774.6641 L631.1763,757.5313 " fill="#FFFFFF" style="stroke:#000000;stroke-width:1;"/><rect fill="transparent" height="116.2031" style="stroke:#000000;stroke-width:1;" width="231.8735" x="631.1763" y="757.5313"/><text fill="#000000" font-family="Verdana" font-size="13" font-weight="bold" lengthAdjust="spacing" textLength="19.4429" x="646.1763" y="770.5981">alt</text><text fill="#000000" font-family="Verdana" font-size="11" font-weight="bold" lengthAdjust="spacing" textLength="64.5498" x="710.6191" y="769.7417">[s1 == s2]</text><line style="stroke:#000000;stroke-width:1;stroke-dasharray:2.0,2.0;" x1="721.6479" x2="763.6479" y1="795.7969" y2="795.7969"/><line style="stroke:#000000;stroke-width:1;stroke-dasharray:2.0,2.0;" x1="763.6479" x2="763.6479" y1="795.7969" y2="808.7969"/><line style="stroke:#000000;stroke-width:1;stroke-dasharray:2.0,2.0;" x1="722.6479" x2="763.6479" y1="808.7969" y2="808.7969"/><polygon fill="#000000" points="732.6479,804.7969,722.6479,808.7969,732.6479,812.7969,728.6479,808.7969" style="stroke:#000000;stroke-width:1;"/><text fill="#000000" font-family="Verdana" font-size="13" lengthAdjust="spacing" textLength="122.4019" x="728.6479" y="790.731">return PtpTimeInfo</text><line style="stroke:#000000;stroke-width:1;stroke-dasharray:2.0,2.0;" x1="631.1763" x2="863.0498" y1="817.7969" y2="817.7969"/><text fill="#000000" font-family="Verdana" font-size="11" font-weight="bold" lengthAdjust="spacing" textLength="132.3169" x="636.1763" y="828.0073">[s1 != s2 (torn read)]</text><line style="stroke:#000000;stroke-width:1;" x1="721.6479" x2="763.6479" y1="852.7344" y2="852.7344"/><line style="stroke:#000000;stroke-width:1;" x1="763.6479" x2="763.6479" y1="852.7344" y2="865.7344"/><line style="stroke:#000000;stroke-width:1;" x1="722.6479" x2="763.6479" y1="865.7344" y2="865.7344"/><polygon fill="#000000" points="732.6479,861.7344,722.6479,865.7344,732.6479,869.7344,728.6479,865.7344" style="stroke:#000000;stroke-width:1;"/><text fill="#000000" font-family="Verdana" font-size="13" lengthAdjust="spacing" textLength="31.478" x="728.6479" y="847.6685">retry</text><!--SRC=[dLD_Qzim5FnVd-8rWs93bgGXPL38O4lA5cWNOsSBWq5Gx9VuKLbI92LToZxyPEV7ugI3COEGRDsxktUohboE1O8Md2HZZfn043IV90D1A1qak18gVO9HD838AATI9HZJt3XAINEFQ4oem4Jm3VwGmIVjz4YdqNekoEPemWPm2z7NZ_3cWPQvYqW-rQkJd1lC7h5GPlk78CObARchJZu_xgi7MouljOVS5ylJsXHfSz2E1zzEjLc_3oD9ZhYW5-wy2FJxZ9KEtxwlfEx0viLCQPH1extqbBDoa5oeHXF6iq5y_s42l_mg7axZi5wvS6OjK-umiFI2Qd7MpXcwABWEedWycNdEeUUirjDuDBa_GpuRSWW5Nr8AVUZyxBsxxTpsUXt6MgqMOsMF_-O-7ew_F7mFwnLr7sURFaXQR0_QTN7_kZzf2AQbHGC9PHY-4YckMWjqQJxZMHRSDC6WG6uz5DhjSXVccAe2BQWiEqi9YrHlWumxteJhifCcxD8D_rS3DoWhz_jV1O8OULPpBvJIiDRW57GxdiaPGil0F_MmR_nvbC92yIpWwMfD1iCAnuKhjwbg2OBT4P84RTJIeBKxr0bZETrLKjjg2uN5FKDb-0nUI-VQNr8kch1BwH3FgnMs-rVB9xPzEBPx_7WaERMvDX8YfyihEFAdSWGVV5-L510uvN76vnjUqbqsNH78Z1tcSlm6]--></g></svg>