<svg xmlns="http://www.w3.org/2000/svg" xmlns:xlink="http://www.w3.org/1999/xlink" contentStyleType="text/css" data-diagram-type="SEQUENCE" height="966px" preserveAspectRatio="none" style="width:1028px;height:966px;background:#FFFFFF;" version="1.1" viewBox="0 0 1028 966" width="1028px" zoomAndPan="magnify"><title>UC6 &#8212; Unit Test with ClockOverrideGuard</title><defs/><g><text fill="#000000" font-family="sans-serif" font-size="14" font-weight="bold" lengthAdjust="spacing" textLength="329.8203" x="346.4021" y="27.9951">UC6 &#8212; Unit Test with ClockOverrideGuard</text><rect fill="#FAFAF0" height="790.0469" style="stroke:#181818;stroke-width:0.5;" width="67.7598" x="1" y="163.7813"/><text fill="#000000" font-family="sans-serif" font-size="13" font-weight="bold" lengthAdjust="spacing" textLength="31.6367" x="19.0615" y="175.8481">Test</text><rect fill="#F0FFF0" height="790.0469" style="stroke:#181818;stroke-width:0.5;" width="385.502" x="295.958" y="163.7813"/><text fill="#000000" font-family="sans-serif" font-size="13" font-weight="bold" lengthAdjust="spacing" textLength="83.0337" x="447.1921" y="175.8481">score::time</text><rect fill="#FFFFF0" height="790.0469" style="stroke:#181818;stroke-width:0.5;" width="144.2949" x="712.1831" y="163.7813"/><text fill="#000000" font-family="sans-serif" font-size="13" font-weight="bold" lengthAdjust="spacing" textLength="38.2192" x="765.2209" y="175.8481">Mock</text><rect fill="#E6F0FF" height="790.0469" style="stroke:#181818;stroke-width:0.5;" width="164.1465" x="858.478" y="163.7813"/><text fill="#000000" font-family="sans-serif" font-size="13" font-weight="bold" lengthAdjust="spacing" textLength="139.1851" x="870.9587" y="175.8481">System Under Test</text><g><title>ClockOverrideGuard</title><rect fill="#FFFFFF" height="621.9219" style="stroke:#181818;stroke-width:1;" width="10" x="372.8569" y="319.9063"/></g><g><title>VehicleClock</title><rect fill="#FFFFFF" height="79.3984" style="stroke:#181818;stroke-width:1;" width="10" x="586.3271" y="349.0391"/></g><g><title>VehicleClock</title><rect fill="#FFFFFF" height="64.2656" style="stroke:#181818;stroke-width:1;" width="10" x="586.3271" y="559.1016"/></g><g><title>VehicleClock</title><rect fill="#FFFFFF" height="87.3984" style="stroke:#181818;stroke-width:1;" width="10" x="586.3271" y="652.5"/></g><g><title>VehicleClock</title><rect fill="#FFFFFF" height="79.3984" style="stroke:#181818;stroke-width:1;" width="10" x="586.3271" y="862.4297"/></g><g><title>VehicleTimeMock</title><rect fill="#FFFFFF" height="680.1875" style="stroke:#181818;stroke-width:1;" width="10" x="779.3306" y="261.6406"/></g><g><title>VehicleTimeMock</title><rect fill="#FFFFFF" height="29.1328" style="stroke:#181818;stroke-width:1;" width="10" x="784.3306" y="681.6328"/></g><g><title>MyService</title><rect fill="#FFFFFF" height="239.0625" style="stroke:#181818;stroke-width:1;" width="10" x="935.5513" y="529.9688"/></g><g><title>TEST()</title><rect fill="transparent" height="729.3203" width="8" x="30.8799" y="230.5078"/><line style="stroke:#181818;stroke-width:0.5;stroke-dasharray:5.0,5.0;" x1="34" x2="34" y1="230.5078" y2="959.8281"/></g><g><title>ClockOverrideGuard</title><rect fill="transparent" height="729.3203" width="8" x="373.8569" y="230.5078"/><line style="stroke:#181818;stroke-width:0.5;stroke-dasharray:5.0,5.0;" x1="376.958" x2="376.958" y1="230.5078" y2="959.8281"/></g><g><title>VehicleClock</title><rect fill="transparent" height="729.3203" width="8" x="587.3271" y="230.5078"/><line style="stroke:#181818;stroke-width:0.5;stroke-dasharray:5.0,5.0;" x1="591.1943" x2="591.1943" y1="230.5078" y2="959.8281"/></g><g><title>VehicleTimeMock</title><rect fill="transparent" height="729.3203" width="8" x="780.3306" y="230.5078"/><line style="stroke:#181818;stroke-width:0.5;stroke-dasharray:5.0,5.0;" x1="784.1831" x2="784.1831" y1="230.5078" y2="959.8281"/></g><g><title>MyService</title><rect fill="transparent" height="729.3203" width="8" x="936.5513" y="230.5078"/><line style="stroke:#181818;stroke-width:0.5;stroke-dasharray:5.0,5.0;" x1="940.478" x2="940.478" y1="230.5078" y2="959.8281"/></g><rect fill="#FFA07A" height="30.2969" rx="2.5" ry="2.5" style="stroke:#181818;stroke-width:0.5;" width="59.7598" x="5" y="199.2109"/><text fill="#000000" font-family="sans-serif" font-size="14" lengthAdjust="spacing" textLength="45.7598" x="12" y="219.2061">TEST()</text><rect fill="#90EE90" height="46.5938" rx="2.5" ry="2.5" style="stroke:#181818;stroke-width:0.5;" width="155.7979" x="299.958" y="182.9141"/><text fill="#000000" font-family="sans-serif" font-size="14" lengthAdjust="spacing" textLength="141.7979" x="306.958" y="202.9092">ClockOverrideGuard</text><text fill="#000000" font-family="sans-serif" font-size="14" lengthAdjust="spacing" textLength="109.3066" x="323.2036" y="219.2061">&lt;VehicleTime&gt;</text><rect fill="#90EE90" height="46.5938" rx="2.5" ry="2.5" style="stroke:#181818;stroke-width:0.5;" width="172.2656" x="505.1943" y="182.9141"/><text fill="#000000" font-family="sans-serif" font-size="14" lengthAdjust="spacing" textLength="89.1885" x="546.7329" y="202.9092">VehicleClock</text><text fill="#000000" font-family="sans-serif" font-size="14" lengthAdjust="spacing" textLength="158.2656" x="512.1943" y="219.2061">(Clock&lt;VehicleTime&gt;)</text><rect fill="#EEE8AA" height="30.2969" rx="2.5" ry="2.5" style="stroke:#181818;stroke-width:0.5;" width="136.2949" x="716.1831" y="199.2109"/><text fill="#000000" font-family="sans-serif" font-size="14" lengthAdjust="spacing" textLength="122.2949" x="723.1831" y="219.2061">VehicleTimeMock</text><rect fill="#ADD8E6" height="46.5938" rx="2.5" ry="2.5" style="stroke:#181818;stroke-width:0.5;" width="156.1465" x="862.478" y="182.9141"/><text fill="#000000" font-family="sans-serif" font-size="14" lengthAdjust="spacing" textLength="72.1055" x="904.4985" y="202.9092">MyService</text><text fill="#000000" font-family="sans-serif" font-size="14" lengthAdjust="spacing" textLength="142.1465" x="869.478" y="219.2061">(calls GetInstance())</text><g><title>ClockOverrideGuard</title><rect fill="#FFFFFF" height="621.9219" style="stroke:#181818;stroke-width:1;" width="10" x="372.8569" y="319.9063"/></g><g><title>VehicleClock</title><rect fill="#FFFFFF" height="79.3984" style="stroke:#181818;stroke-width:1;" width="10" x="586.3271" y="349.0391"/></g><g><title>VehicleClock</title><rect fill="#FFFFFF" height="64.2656" style="stroke:#181818;stroke-width:1;" width="10" x="586.3271" y="559.1016"/></g><g><title>VehicleClock</title><rect fill="#FFFFFF" height="87.3984" style="stroke:#181818;stroke-width:1;" width="10" x="586.3271" y="652.5"/></g><g><title>VehicleClock</title><rect fill="#FFFFFF" height="79.3984" style="stroke:#181818;stroke-width:1;" width="10" x="586.3271" y="862.4297"/></g><g><title>VehicleTimeMock</title><rect fill="#FFFFFF" height="680.1875" style="stroke:#181818;stroke-width:1;" width="10" x="779.3306" y="261.6406"/></g><g><title>VehicleTimeMock</title><rect fill="#FFFFFF" height="29.1328" style="stroke:#181818;stroke-width:1;" width="10" x="784.3306" y="681.6328"/></g><g><title>MyService</title><rect fill="#FFFFFF" height="239.0625" style="stroke:#181818;stroke-width:1;" width="10" x="935.5513" y="529.9688"/></g><polygon fill="#181818" points="767.3306,257.6406,777.3306,261.6406,767.3306,265.6406,771.3306,261.6406" style="stroke:#181818;stroke-width:1;"/><line style="stroke:#181818;stroke-width:1;" x1="34.8799" x2="773.3306" y1="261.6406" y2="261.6406"/><text fill="#000080" font-family="sans-serif" font-size="13" font-weight="bold" lengthAdjust="spacing" textLength="29.9736" x="41.8799" y="256.5747">[01]</text><text fill="#000000" font-family="sans-serif" font-size="13" lengthAdjust="spacing" textLength="232.7178" x="75.8535" y="256.5747">make_shared&lt;VehicleTimeMock&gt;()</text><polygon fill="#181818" points="45.8799,286.7734,35.8799,290.7734,45.8799,294.7734,41.8799,290.7734" style="stroke:#181818;stroke-width:1;"/><line style="stroke:#181818;stroke-width:1;stroke-dasharray:2.0,2.0;" x1="39.8799" x2="778.3306" y1="290.7734" y2="290.7734"/><text fill="#000080" font-family="sans-serif" font-size="13" font-weight="bold" lengthAdjust="spacing" textLength="29.9736" x="51.8799" y="285.7075">[02]</text><text fill="#000000" font-family="sans-serif" font-size="13" lengthAdjust="spacing" textLength="205.1118" x="85.8535" y="285.7075">shared_ptr&lt;VehicleTimeMock&gt;</text><polygon fill="#181818" points="360.8569,315.9063,370.8569,319.9063,360.8569,323.9063,364.8569,319.9063" style="stroke:#181818;stroke-width:1;"/><line style="stroke:#181818;stroke-width:1;" x1="34.8799" x2="366.8569" y1="319.9063" y2="319.9063"/><text fill="#000080" font-family="sans-serif" font-size="13" font-weight="bold" lengthAdjust="spacing" textLength="29.9736" x="41.8799" y="314.8403">[03]</text><text fill="#000000" font-family="sans-serif" font-size="13" lengthAdjust="spacing" textLength="285.0034" x="75.8535" y="314.8403">ClockOverrideGuard&lt;VehicleTime&gt;{mock}</text><polygon fill="#181818" points="574.3271,345.0391,584.3271,349.0391,574.3271,353.0391,578.3271,349.0391" style="stroke:#181818;stroke-width:1;"/><line style="stroke:#181818;stroke-width:1;" x1="382.8569" x2="580.3271" y1="349.0391" y2="349.0391"/><text fill="#000080" font-family="sans-serif" font-size="13" font-weight="bold" lengthAdjust="spacing" textLength="29.9736" x="389.8569" y="343.9731">[04]</text><text fill="#000000" font-family="sans-serif" font-size="13" lengthAdjust="spacing" textLength="150.4966" x="423.8306" y="343.9731">OverrideForTest(mock)</text><path d="M601,362.0391 L601,402.0391 L834,402.0391 L834,372.0391 L824,362.0391 L601,362.0391 " fill="#FEFFDD" style="stroke:#181818;stroke-width:0.5;"/><path d="M824,362.0391 L824,372.0391 L834,372.0391 L824,362.0391 " fill="#FEFFDD" style="stroke:#181818;stroke-width:0.5;"/><text fill="#000000" font-family="sans-serif" font-size="13" lengthAdjust="spacing" textLength="154.9717" x="607" y="379.106">static override_ = mock</text><text fill="#000000" font-family="sans-serif" font-size="13" lengthAdjust="spacing" textLength="212.3608" x="607" y="394.2388">next GetInstance() returns mock</text><polygon fill="#181818" points="393.8569,424.4375,383.8569,428.4375,393.8569,432.4375,389.8569,428.4375" style="stroke:#181818;stroke-width:1;"/><line style="stroke:#181818;stroke-width:1;stroke-dasharray:2.0,2.0;" x1="387.8569" x2="590.3271" y1="428.4375" y2="428.4375"/><text fill="#000080" font-family="sans-serif" font-size="13" font-weight="bold" lengthAdjust="spacing" textLength="29.9736" x="399.8569" y="423.3716">[05]</text><text fill="#000000" font-family="sans-serif" font-size="13" lengthAdjust="spacing" textLength="4.1323" x="433.8306" y="423.3716">&#160;</text><line style="stroke:#181818;stroke-width:1;" x1="34.8799" x2="76.8799" y1="472.7031" y2="472.7031"/><line style="stroke:#181818;stroke-width:1;" x1="76.8799" x2="76.8799" y1="472.7031" y2="485.7031"/><line style="stroke:#181818;stroke-width:1;" x1="35.8799" x2="76.8799" y1="485.7031" y2="485.7031"/><polygon fill="#181818" points="45.8799,481.7031,35.8799,485.7031,45.8799,489.7031,41.8799,485.7031" style="stroke:#181818;stroke-width:1;"/><text fill="#000080" font-family="sans-serif" font-size="13" font-weight="bold" lengthAdjust="spacing" textLength="29.9736" x="41.8799" y="460.0708">[06]</text><text fill="#000000" font-family="sans-serif" font-size="13" lengthAdjust="spacing" textLength="187.8018" x="75.8535" y="452.5044">EXPECT_CALL(*mock, Now())</text><text fill="#000000" font-family="sans-serif" font-size="13" lengthAdjust="spacing" textLength="184.9707" x="84.1182" y="467.6372">.WillOnce(Return(snapshot))</text><polygon fill="#181818" points="923.5513,525.9688,933.5513,529.9688,923.5513,533.9688,927.5513,529.9688" style="stroke:#181818;stroke-width:1;"/><line style="stroke:#181818;stroke-width:1;" x1="34.8799" x2="929.5513" y1="529.9688" y2="529.9688"/><text fill="#000080" font-family="sans-serif" font-size="13" font-weight="bold" lengthAdjust="spacing" textLength="29.9736" x="41.8799" y="517.3364">[07]</text><text fill="#000000" font-family="sans-serif" font-size="13" lengthAdjust="spacing" textLength="84.2905" x="75.8535" y="509.77">MySvc svc{}</text><text fill="#000000" font-family="sans-serif" font-size="13" lengthAdjust="spacing" textLength="124.1602" x="75.8535" y="524.9028">svc.DoSomething()</text><polygon fill="#181818" points="607.3271,555.1016,597.3271,559.1016,607.3271,563.1016,603.3271,559.1016" style="stroke:#181818;stroke-width:1;"/><line style="stroke:#181818;stroke-width:1;" x1="601.3271" x2="934.5513" y1="559.1016" y2="559.1016"/><text fill="#000080" font-family="sans-serif" font-size="13" font-weight="bold" lengthAdjust="spacing" textLength="29.9736" x="613.3271" y="554.0356">[08]</text><text fill="#000000" font-family="sans-serif" font-size="13" lengthAdjust="spacing" textLength="180.1846" x="647.3008" y="554.0356">VehicleClock::GetInstance()</text><path d="M601,572.1016 L601,597.1016 L826,597.1016 L826,582.1016 L816,572.1016 L601,572.1016 " fill="#FEFFDD" style="stroke:#181818;stroke-width:0.5;"/><path d="M816,572.1016 L816,582.1016 L826,582.1016 L816,572.1016 " fill="#FEFFDD" style="stroke:#181818;stroke-width:0.5;"/><text fill="#000000" font-family="sans-serif" font-size="13" lengthAdjust="spacing" textLength="204.8325" x="607" y="589.1685">override_ is set &#8594; returns mock</text><polygon fill="#181818" points="923.5513,619.3672,933.5513,623.3672,923.5513,627.3672,927.5513,623.3672" style="stroke:#181818;stroke-width:1;"/><line style="stroke:#181818;stroke-width:1;stroke-dasharray:2.0,2.0;" x1="591.3271" x2="929.5513" y1="623.3672" y2="623.3672"/><text fill="#000080" font-family="sans-serif" font-size="13" font-weight="bold" lengthAdjust="spacing" textLength="29.9736" x="598.3271" y="618.3013">[09]</text><text fill="#000000" font-family="sans-serif" font-size="13" lengthAdjust="spacing" textLength="240.9253" x="632.3008" y="618.3013">Clock&lt;VehicleTime&gt; wrapping mock</text><polygon fill="#181818" points="607.3271,648.5,597.3271,652.5,607.3271,656.5,603.3271,652.5" style="stroke:#181818;stroke-width:1;"/><line style="stroke:#181818;stroke-width:1;" x1="601.3271" x2="934.5513" y1="652.5" y2="652.5"/><text fill="#000080" font-family="sans-serif" font-size="13" font-weight="bold" lengthAdjust="spacing" textLength="29.9736" x="613.3271" y="647.4341">[10]</text><text fill="#000000" font-family="sans-serif" font-size="13" lengthAdjust="spacing" textLength="38.4541" x="647.3008" y="647.4341">Now()</text><polygon fill="#181818" points="772.3306,677.6328,782.3306,681.6328,772.3306,685.6328,776.3306,681.6328" style="stroke:#181818;stroke-width:1;"/><line style="stroke:#181818;stroke-width:1;" x1="596.3271" x2="778.3306" y1="681.6328" y2="681.6328"/><text fill="#000080" font-family="sans-serif" font-size="13" font-weight="bold" lengthAdjust="spacing" textLength="29.9736" x="603.3271" y="676.5669">[11]</text><text fill="#000000" font-family="sans-serif" font-size="13" lengthAdjust="spacing" textLength="38.4541" x="637.3008" y="676.5669">Now()</text><polygon fill="#181818" points="607.3271,706.7656,597.3271,710.7656,607.3271,714.7656,603.3271,710.7656" style="stroke:#181818;stroke-width:1;"/><line style="stroke:#181818;stroke-width:1;stroke-dasharray:2.0,2.0;" x1="601.3271" x2="778.3306" y1="710.7656" y2="710.7656"/><text fill="#000080" font-family="sans-serif" font-size="13" font-weight="bold" lengthAdjust="spacing" textLength="29.9736" x="613.3271" y="705.6997">[12]</text><text fill="#000000" font-family="sans-serif" font-size="13" lengthAdjust="spacing" textLength="125.0298" x="647.3008" y="705.6997">ClockSnapshot{...}</text><polygon fill="#181818" points="923.5513,735.8984,933.5513,739.8984,923.5513,743.8984,927.5513,739.8984" style="stroke:#181818;stroke-width:1;"/><line style="stroke:#181818;stroke-width:1;stroke-dasharray:2.0,2.0;" x1="591.3271" x2="929.5513" y1="739.8984" y2="739.8984"/><text fill="#000080" font-family="sans-serif" font-size="13" font-weight="bold" lengthAdjust="spacing" textLength="29.9736" x="598.3271" y="734.8325">[13]</text><text fill="#000000" font-family="sans-serif" font-size="13" lengthAdjust="spacing" textLength="59.2935" x="632.3008" y="734.8325">snapshot</text><polygon fill="#181818" points="45.8799,765.0313,35.8799,769.0313,45.8799,773.0313,41.8799,769.0313" style="stroke:#181818;stroke-width:1;"/><line style="stroke:#181818;stroke-width:1;stroke-dasharray:2.0,2.0;" x1="39.8799" x2="939.5513" y1="769.0313" y2="769.0313"/><text fill="#000080" font-family="sans-serif" font-size="13" font-weight="bold" lengthAdjust="spacing" textLength="29.9736" x="51.8799" y="763.9653">[14]</text><text fill="#000000" font-family="sans-serif" font-size="13" lengthAdjust="spacing" textLength="4.1323" x="85.8535" y="763.9653">&#160;</text><path d="M288,782.0313 L288,807.0313 L466,807.0313 L466,792.0313 L456,782.0313 L288,782.0313 " fill="#FEFFDD" style="stroke:#181818;stroke-width:0.5;"/><path d="M456,782.0313 L456,792.0313 L466,792.0313 L456,782.0313 " fill="#FEFFDD" style="stroke:#181818;stroke-width:0.5;"/><text fill="#000000" font-family="sans-serif" font-size="13" lengthAdjust="spacing" textLength="157.5044" x="294" y="799.0981">guard goes out of scope</text><polygon fill="#181818" points="360.8569,829.2969,370.8569,833.2969,360.8569,837.2969,364.8569,833.2969" style="stroke:#181818;stroke-width:1;"/><line style="stroke:#181818;stroke-width:1;" x1="34.8799" x2="366.8569" y1="833.2969" y2="833.2969"/><text fill="#000080" font-family="sans-serif" font-size="13" font-weight="bold" lengthAdjust="spacing" textLength="29.9736" x="41.8799" y="828.231">[15]</text><text fill="#000000" font-family="sans-serif" font-size="13" lengthAdjust="spacing" textLength="77.3906" x="75.8535" y="828.231">(destructor)</text><polygon fill="#181818" points="574.3271,858.4297,584.3271,862.4297,574.3271,866.4297,578.3271,862.4297" style="stroke:#181818;stroke-width:1;"/><line style="stroke:#181818;stroke-width:1;" x1="382.8569" x2="580.3271" y1="862.4297" y2="862.4297"/><text fill="#000080" font-family="sans-serif" font-size="13" font-weight="bold" lengthAdjust="spacing" textLength="29.9736" x="389.8569" y="857.3638">[16]</text><text fill="#000000" font-family="sans-serif" font-size="13" lengthAdjust="spacing" textLength="103.5176" x="423.8306" y="857.3638">ResetOverride()</text><path d="M601,875.4297 L601,915.4297 L811,915.4297 L811,885.4297 L801,875.4297 L601,875.4297 " fill="#FEFFDD" style="stroke:#181818;stroke-width:0.5;"/><path d="M801,875.4297 L801,885.4297 L811,885.4297 L801,875.4297 " fill="#FEFFDD" style="stroke:#181818;stroke-width:0.5;"/><text fill="#000000" font-family="sans-serif" font-size="13" lengthAdjust="spacing" textLength="162.0747" x="607" y="892.4966">static override_ = nullptr</text><text fill="#000000" font-family="sans-serif" font-size="13" lengthAdjust="spacing" textLength="189.5283" x="607" y="907.6294">production backend resumes</text><polygon fill="#181818" points="388.8569,937.8281,378.8569,941.8281,388.8569,945.8281,384.8569,941.8281" style="stroke:#181818;stroke-width:1;"/><line style="stroke:#181818;stroke-width:1;stroke-dasharray:2.0,2.0;" x1="382.8569" x2="590.3271" y1="941.8281" y2="941.8281"/><text fill="#000080" font-family="sans-serif" font-size="13" font-weight="bold" lengthAdjust="spacing" textLength="29.9736" x="394.8569" y="936.7622">[17]</text><text fill="#000000" font-family="sans-serif" font-size="13" lengthAdjust="spacing" textLength="4.1323" x="428.8306" y="936.7622">&#160;</text><rect fill="transparent" height="95.4844" id="_legend" rx="7.5" ry="7.5" style="stroke:#000000;stroke-width:1;" width="341.3652" x="12" y="54.2969"/><text fill="#000000" font-family="sans-serif" font-size="14" font-weight="bold" lengthAdjust="spacing" textLength="41.2139" x="21.874" y="74.292">Color</text><text fill="#000000" font-family="sans-serif" font-size="14" font-weight="bold" lengthAdjust="spacing" textLength="90.5488" x="141.0723" y="74.292">Description</text><rect fill="#FFA07A" height="16.2969" style="stroke:transparent;stroke-width:1;" width="119.1982" x="17" y="77.5938"/><text fill="#000000" font-family="sans-serif" font-size="14" lengthAdjust="spacing" textLength="35.6016" x="17" y="90.5889">&#160;&#160;&#160;&#160;&#160;&#160;&#160;&#160;</text><text fill="#000000" font-family="sans-serif" font-size="14" lengthAdjust="spacing" textLength="68.1611" x="140.6484" y="90.5889">Test code</text><rect fill="#90EE90" height="16.2969" style="stroke:transparent;stroke-width:1;" width="119.1982" x="17" y="93.8906"/><text fill="#000000" font-family="sans-serif" font-size="14" lengthAdjust="spacing" textLength="40.0518" x="17" y="106.8857">&#160;&#160;&#160;&#160;&#160;&#160;&#160;&#160;&#160;</text><text fill="#000000" font-family="sans-serif" font-size="14" lengthAdjust="spacing" textLength="158.833" x="140.6484" y="106.8857">score::time framework</text><rect fill="#EEE8AA" height="16.2969" style="stroke:transparent;stroke-width:1;" width="119.1982" x="17" y="110.1875"/><text fill="#000000" font-family="sans-serif" font-size="14" lengthAdjust="spacing" textLength="26.7012" x="17" y="123.1826">&#160;&#160;&#160;&#160;&#160;&#160;</text><text fill="#000000" font-family="sans-serif" font-size="14" lengthAdjust="spacing" textLength="163.2148" x="140.6484" y="123.1826">Mock backend (GMock)</text><rect fill="#ADD8E6" height="16.2969" style="stroke:transparent;stroke-width:1;" width="119.1982" x="17" y="126.4844"/><text fill="#000000" font-family="sans-serif" font-size="14" lengthAdjust="spacing" textLength="44.502" x="17" y="139.4795">&#160;&#160;&#160;&#160;&#160;&#160;&#160;&#160;&#160;&#160;</text><text fill="#000000" font-family="sans-serif" font-size="14" lengthAdjust="spacing" textLength="159.4482" x="140.6484" y="139.4795">Application Under Test</text><line style="stroke:#000000;stroke-width:1;" x1="17" x2="348.3652" y1="61.2969" y2="61.2969"/><line style="stroke:#000000;stroke-width:1;" x1="17" x2="348.3652" y1="77.5938" y2="77.5938"/><line style="stroke:#000000;stroke-width:1;" x1="17" x2="348.3652" y1="93.8906" y2="93.8906"/><line style="stroke:#000000;stroke-width:1;" x1="17" x2="348.3652" y1="110.1875" y2="110.1875"/><line style="stroke:#000000;stroke-width:1;" x1="17" x2="348.3652" y1="126.4844" y2="126.4844"/><line style="stroke:#000000;stroke-width:1;" x1="17" x2="348.3652" y1="142.7813" y2="142.7813"/><line style="stroke:#000000;stroke-width:1;" x1="17" x2="17" y1="61.2969" y2="142.7813"/><line style="stroke:#000000;stroke-width:1;" x1="136.1982" x2="136.1982" y1="61.2969" y2="142.7813"/><line style="stroke:#000000;stroke-width:1;" x1="348.3652" x2="348.3652" y1="61.2969" y2="142.7813"/><!--SRC=[fLLDJnin4BtlhnY5owOg4ISEgn291XfLWe98Q2kL2Xdl9B7YjLTURm82f9xw0wh-Gdv9ntO-ThD1RTND8OazxytCUnwl5LOYNFSFuUNxBxXMmi882miBOQVGbvhFBkPeZ4XnK3AJHb4n4ofdXcLmn_XiOdIfqhwMsi1YAYn6Kmg5iTRsJjz7hBHQbTaT6cXrnrfPu2xqIB7vGwzxr_jwSF2j5KKI9wXIi3e7YMCR0JrFHn1ewmyjds31ZSYjq0eQprC0T_VEn6HgXqncMlNMcw4thgd4NKyTF3286oo12wuD9eaL6NL82k12craJVCaa3hHCKLtfjBS2dvEKNZBNQJnmVzklPNudI-nLDk4upwNWpBTyhLAIqpUo1XDdq32AI7PekTqMx8qPVGuyDLbc1HSv8mzQezFXA6wtW1LW7KzLBCS5phl0LEdP4HwCnxi8cmVbHdK_uLHmYIE2zdokYTk0YhXDeYN6yzses7_NY4BLtAtNcEfLEtLTkUFTvLO8GoHHPfwnvjqMwV2Xi9XLzASCUEWaQMOuVnYYcGkEr0HdKXOmGFj15POfZd4xT56KA-cTuPjitfFzNYWfWOpDyBQOCeDfTwloNjoE6BTYpYpwyCXZzWdiIH88kDlScWPsaoWOa-oOzvhsZuxyUPFGmw809fPWIW8hWlVQE9LYXwgKwSCYfUcdSRs37Y_Nd8ga4Aa8Uibn2qUXBxUdyDxMTGI3jZGgkES5TBnHg6H_rLcKubRsTUTBbKw_N9xsHxVzuxEp-8tZUWiVzO9ykg4hflDPI7dXybtvR76XM5vCjMstDqJEomJ8zZc7OiuVdsyKVNLEz51dQAT2JQfMKJJTfAMjobOz-abIQ_DlnTke9kXqeOMN7p__A56el3bfi30ipwdmW6ngk5M_5soxqcMQzLdU2geVsHMJhsMu5Fcnq-ayLxDd5Tvr-IjBNYjpQNLrstlWbNIoBK-AKp4Sw8d60dJf5QPBCCUDTjjZ4wUqO4fkjMatn-4AoOdLJCJ_CmYgb986ETmsHgUKqRqGLYyLWqMPOV4FOr1PQ4HucNy3]--></g></svg>