<svg xmlns="http://www.w3.org/2000/svg" xmlns:xlink="http://www.w3.org/1999/xlink" contentStyleType="text/css" data-diagram-type="SEQUENCE" height="511px" preserveAspectRatio="none" style="width:771px;height:511px;background:#FFFFFF;" version="1.1" viewBox="0 0 771 511" width="771px" zoomAndPan="magnify"><title>IPC Machine: Publishing new TimeInfo data</title><defs/><g><text fill="#000000" font-family="sans-serif" font-size="14" font-weight="bold" lengthAdjust="spacing" textLength="341.8721" x="216.5415" y="27.9951">IPC Machine: Publishing new TimeInfo data</text><rect fill="#FFFFE0" height="351.0234" style="stroke:#181818;stroke-width:0.5;" width="366.2549" x="1" y="147.4844"/><text fill="#000000" font-family="sans-serif" font-size="13" font-weight="bold" lengthAdjust="spacing" textLength="149.3667" x="107.1812" y="159.5513">VehicleTimeDaemon</text><g><title>IPCMachine:publisher</title><rect fill="#FFFFFF" height="266.4609" style="stroke:#181818;stroke-width:1;" width="10" x="275.9399" y="229.0469"/></g><g><title>IPCMachine:publisher</title><rect fill="#FFFFFF" height="196.1953" style="stroke:#181818;stroke-width:1;" width="10" x="280.9399" y="290.3125"/></g><g><title>shmem</title><rect fill="#FFFFFF" height="77.5313" style="stroke:#181818;stroke-width:1;" width="10" x="444.0415" y="372.8438"/></g><rect fill="transparent" height="214.3281" style="stroke:#000000;stroke-width:1.5;" width="577.3301" x="188.625" y="244.0469"/><g><title>MessageBroker</title><rect fill="transparent" height="306.5938" width="8" x="61.8809" y="197.9141"/><line style="stroke:#181818;stroke-width:0.5;stroke-dasharray:5.0,5.0;" x1="65" x2="65" y1="197.9141" y2="504.5078"/></g><g><title>IPCMachine:publisher</title><rect fill="transparent" height="306.5938" width="8" x="276.9399" y="197.9141"/><line style="stroke:#181818;stroke-width:0.5;stroke-dasharray:5.0,5.0;" x1="280.625" x2="280.625" y1="197.9141" y2="504.5078"/></g><g><title>shmem</title><rect fill="transparent" height="306.5938" width="8" x="445.0415" y="197.9141"/><line style="stroke:#181818;stroke-width:0.5;stroke-dasharray:5.0,5.0;" x1="449.0137" x2="449.0137" y1="197.9141" y2="504.5078"/></g><rect fill="#E0FFFF" height="30.2969" rx="2.5" ry="2.5" style="stroke:#181818;stroke-width:0.5;" width="121.7617" x="5" y="166.6172"/><text fill="#000000" font-family="sans-serif" font-size="14" lengthAdjust="spacing" textLength="107.7617" x="12" y="186.6123">MessageBroker</text><rect fill="#FFB6C1" height="30.2969" rx="2.5" ry="2.5" style="stroke:#181818;stroke-width:0.5;" width="164.6299" x="198.625" y="166.6172"/><text fill="#000000" font-family="sans-serif" font-size="14" lengthAdjust="spacing" textLength="150.6299" x="205.625" y="186.6123">IPCMachine:publisher</text><rect fill="#F5F5F5" height="30.2969" rx="2.5" ry="2.5" style="stroke:#181818;stroke-width:0.5;" width="66.0557" x="416.0137" y="166.6172"/><text fill="#000000" font-family="sans-serif" font-size="14" lengthAdjust="spacing" textLength="52.0557" x="423.0137" y="186.6123">shmem</text><g><title>IPCMachine:publisher</title><rect fill="#FFFFFF" height="266.4609" style="stroke:#181818;stroke-width:1;" width="10" x="275.9399" y="229.0469"/></g><g><title>IPCMachine:publisher</title><rect fill="#FFFFFF" height="196.1953" style="stroke:#181818;stroke-width:1;" width="10" x="280.9399" y="290.3125"/></g><g><title>shmem</title><rect fill="#FFFFFF" height="77.5313" style="stroke:#181818;stroke-width:1;" width="10" x="444.0415" y="372.8438"/></g><polygon fill="#181818" points="263.9399,225.0469,273.9399,229.0469,263.9399,233.0469,267.9399,229.0469" style="stroke:#181818;stroke-width:1;"/><line style="stroke:#181818;stroke-width:1;" x1="65.8809" x2="269.9399" y1="229.0469" y2="229.0469"/><text fill="#FF0000" font-family="sans-serif" font-size="13" font-weight="bold" lengthAdjust="spacing" textLength="29.9736" x="72.8809" y="223.981">[01]</text><text fill="#000000" font-family="sans-serif" font-size="13" lengthAdjust="spacing" textLength="157.0854" x="106.8545" y="223.981">newTimeData(TimeInfo)</text><path d="M188.625,244.0469 L253.0679,244.0469 L253.0679,251.1797 L243.0679,261.1797 L188.625,261.1797 L188.625,244.0469 " fill="#EEEEEE" style="stroke:#000000;stroke-width:1.5;"/><rect fill="transparent" height="214.3281" style="stroke:#000000;stroke-width:1.5;" width="577.3301" x="188.625" y="244.0469"/><text fill="#000000" font-family="sans-serif" font-size="13" font-weight="bold" lengthAdjust="spacing" textLength="19.4429" x="203.625" y="257.1138">alt</text><text fill="#000000" font-family="sans-serif" font-size="11" font-weight="bold" lengthAdjust="spacing" textLength="158.1841" x="268.0679" y="256.2573">[if the data was updated]</text><line style="stroke:#181818;stroke-width:1;" x1="285.9399" x2="332.9399" y1="277.3125" y2="277.3125"/><line style="stroke:#181818;stroke-width:1;" x1="332.9399" x2="332.9399" y1="277.3125" y2="290.3125"/><line style="stroke:#181818;stroke-width:1;" x1="291.9399" x2="332.9399" y1="290.3125" y2="290.3125"/><polygon fill="#181818" points="301.9399,286.3125,291.9399,290.3125,301.9399,294.3125,297.9399,290.3125" style="stroke:#181818;stroke-width:1;"/><text fill="#FF0000" font-family="sans-serif" font-size="13" font-weight="bold" lengthAdjust="spacing" textLength="29.9736" x="297.9399" y="272.2466">[02]</text><text fill="#000000" font-family="sans-serif" font-size="13" lengthAdjust="spacing" textLength="87.1533" x="331.9136" y="272.2466">serialize data</text><polygon fill="#181818" points="432.0415,368.8438,442.0415,372.8438,432.0415,376.8438,436.0415,372.8438" style="stroke:#181818;stroke-width:1;"/><line style="stroke:#181818;stroke-width:1;" x1="290.9399" x2="438.0415" y1="372.8438" y2="372.8438"/><text fill="#FF0000" font-family="sans-serif" font-size="13" font-weight="bold" lengthAdjust="spacing" textLength="29.9736" x="297.9399" y="367.7778">[03]</text><text fill="#000000" font-family="sans-serif" font-size="13" lengthAdjust="spacing" textLength="100.1279" x="331.9136" y="367.7778">store(TimeInfo)</text><path d="M459,308.3125 L459,423.3125 L755,423.3125 L755,318.3125 L745,308.3125 L459,308.3125 " fill="#FEFFDD" style="stroke:#181818;stroke-width:0.5;"/><path d="M745,308.3125 L745,318.3125 L755,318.3125 L745,308.3125 " fill="#FEFFDD" style="stroke:#181818;stroke-width:0.5;"/><text fill="#000000" font-family="sans-serif" font-size="13" lengthAdjust="spacing" textLength="275.9136" x="465" y="325.3794">All data, which is needed by the Apps, like</text><text fill="#000000" font-family="sans-serif" font-size="13" lengthAdjust="spacing" textLength="149.0811" x="465" y="340.5122">1. current Vehicle time</text><text fill="#000000" font-family="sans-serif" font-size="13" lengthAdjust="spacing" textLength="80.3296" x="465" y="355.645">2. local time</text><text fill="#000000" font-family="sans-serif" font-size="13" lengthAdjust="spacing" textLength="56.4814" x="465" y="370.7778">3. status</text><text fill="#000000" font-family="sans-serif" font-size="13" lengthAdjust="spacing" textLength="251.6909" x="465" y="385.9106">4. sync/fup and pdelay frames content</text><text fill="#000000" font-family="sans-serif" font-size="13" lengthAdjust="spacing" textLength="110.7158" x="465" y="401.0435">5. rate and so on</text><text fill="#000000" font-family="sans-serif" font-size="13" lengthAdjust="spacing" textLength="129.8477" x="465" y="416.1763">shall be stored here</text><polygon fill="#181818" points="301.9399,446.375,291.9399,450.375,301.9399,454.375,297.9399,450.375" style="stroke:#181818;stroke-width:1;"/><line style="stroke:#181818;stroke-width:1;stroke-dasharray:2.0,2.0;" x1="295.9399" x2="448.0415" y1="450.375" y2="450.375"/><text fill="#FF0000" font-family="sans-serif" font-size="13" font-weight="bold" lengthAdjust="spacing" textLength="29.9736" x="307.9399" y="445.3091">[04]</text><text fill="#000000" font-family="sans-serif" font-size="13" lengthAdjust="spacing" textLength="50.8511" x="341.9136" y="445.3091">success</text><polygon fill="#181818" points="76.8809,482.5078,66.8809,486.5078,76.8809,490.5078,72.8809,486.5078" style="stroke:#181818;stroke-width:1;"/><line style="stroke:#181818;stroke-width:1;stroke-dasharray:2.0,2.0;" x1="70.8809" x2="274.9399" y1="486.5078" y2="486.5078"/><text fill="#FF0000" font-family="sans-serif" font-size="13" font-weight="bold" lengthAdjust="spacing" textLength="29.9736" x="82.8809" y="481.4419">[05]</text><text fill="#000000" font-family="sans-serif" font-size="13" lengthAdjust="spacing" textLength="4.1323" x="116.8545" y="481.4419">&#160;</text><rect fill="#DDDDDD" height="79.1875" id="_legend" rx="7.5" ry="7.5" style="stroke:#000000;stroke-width:1;" width="302.9404" x="12" y="54.2969"/><text fill="#000000" font-family="sans-serif" font-size="14" font-weight="bold" lengthAdjust="spacing" textLength="41.2139" x="21.874" y="74.292">Color</text><text fill="#000000" font-family="sans-serif" font-size="14" font-weight="bold" lengthAdjust="spacing" textLength="90.5488" x="92.332" y="74.292">Description</text><rect fill="#E0FFFF" height="16.2969" style="stroke:transparent;stroke-width:1;" width="70.458" x="17" y="77.5938"/><text fill="#000000" font-family="sans-serif" font-size="14" lengthAdjust="spacing" textLength="4.4502" x="17" y="90.5889">&#160;</text><text fill="#000000" font-family="sans-serif" font-size="14" lengthAdjust="spacing" textLength="164.6299" x="91.9082" y="90.5889">TimeDaemon members</text><rect fill="#FFB6C1" height="16.2969" style="stroke:transparent;stroke-width:1;" width="70.458" x="17" y="93.8906"/><text fill="#000000" font-family="sans-serif" font-size="14" lengthAdjust="spacing" textLength="4.4502" x="17" y="106.8857">&#160;</text><text fill="#000000" font-family="sans-serif" font-size="14" lengthAdjust="spacing" textLength="113.292" x="91.9082" y="106.8857">IPC components</text><rect fill="#F5F5F5" height="16.2969" style="stroke:transparent;stroke-width:1;" width="70.458" x="17" y="110.1875"/><text fill="#000000" font-family="sans-serif" font-size="14" lengthAdjust="spacing" textLength="4.4502" x="17" y="123.1826">&#160;</text><text fill="#000000" font-family="sans-serif" font-size="14" lengthAdjust="spacing" textLength="110.9814" x="91.9082" y="123.1826">Shared Memory</text><line style="stroke:#000000;stroke-width:1;" x1="17" x2="309.9404" y1="61.2969" y2="61.2969"/><line style="stroke:#000000;stroke-width:1;" x1="17" x2="309.9404" y1="77.5938" y2="77.5938"/><line style="stroke:#000000;stroke-width:1;" x1="17" x2="309.9404" y1="93.8906" y2="93.8906"/><line style="stroke:#000000;stroke-width:1;" x1="17" x2="309.9404" y1="110.1875" y2="110.1875"/><line style="stroke:#000000;stroke-width:1;" x1="17" x2="309.9404" y1="126.4844" y2="126.4844"/><line style="stroke:#000000;stroke-width:1;" x1="17" x2="17" y1="61.2969" y2="126.4844"/><line style="stroke:#000000;stroke-width:1;" x1="87.458" x2="87.458" y1="61.2969" y2="126.4844"/><line style="stroke:#000000;stroke-width:1;" x1="309.9404" x2="309.9404" y1="61.2969" y2="126.4844"/><!--SRC=[TPDFQnin4CNl-XI3SsaXST9_b-0OKkSIgC6Gqb9A2Lhjh5T4AmbfjkuMV_YE9AzZrycUj5ezpVlDcoLD1k5-jO2bLAssU0shlZ8wydeD5ZVmLNTuRni7jIGfHAjhXCOvgjmV8MHFplPTXG4ciyPP0kMC2pS1w_cicl-ykleroOUa8lrR4eApGXXSews1d0U33GdWPti3YoI5tSiTHXMq9-qid3pR8fcTVT7hbXQ3jFDjDdediMD1XybIV5soqlQ99ObRkSuxYvRYgrM-jvhmeNDFo9g7LZ8TBBbG64ub35RmXE0EmJTijJ9uuAqO-876k4qku6KWhRINtBt94cEKQ_mSk5YOW8nGvIKyevwA66DCpvVmTbhjrUD-1vxHaql80HxT4rjkN1R63FdO5SY31Z1LyNCnFxxzEWrBmIJvPXoQjq8Q0jq0jPW723PyU-zvYNK6ERPuUcl4eANHVulyPScHMvQG2tXW8MciuzaBYL-CMTqQa-yyXmrdr8AEZ80rPriDsU-jz_4SZ6RgKVDk2geFWQTbJ1Q8w-o_lv-2SKgQuzqFK_OagO_xdO-yCrXrsVGU96VXQpHoW2R83YEFf2KkiJ_zQGeX_JlfP7Jf5ng_C3bJL5YOQ-26bB8fuCGiTgSEqhnueSczKZnuQIp4VztbmoLnyGy0]--></g></svg>