<svg xmlns="http://www.w3.org/2000/svg" xmlns:xlink="http://www.w3.org/1999/xlink" contentStyleType="text/css" data-diagram-type="SEQUENCE" height="771px" preserveAspectRatio="none" style="width:745px;height:771px;background:#FFFFFF;" version="1.1" viewBox="0 0 745 771" width="745px" zoomAndPan="magnify"><title>VT4 &#8212; VehicleTime: Status Flag Inspection</title><defs/><g><text fill="#000000" font-family="sans-serif" font-size="14" font-weight="bold" lengthAdjust="spacing" textLength="337.6611" x="201.084" y="27.9951">VT4 &#8212; VehicleTime: Status Flag Inspection</text><rect fill="#E6F0FF" height="611.0547" style="stroke:#181818;stroke-width:0.5;" width="103.2383" x="1" y="147.4844"/><text fill="#000000" font-family="sans-serif" font-size="13" font-weight="bold" lengthAdjust="spacing" textLength="82.9194" x="11.1594" y="159.5513">Application</text><rect fill="#F0FFF0" height="611.0547" style="stroke:#181818;stroke-width:0.5;" width="513.9033" x="225.9258" y="147.4844"/><text fill="#000000" font-family="sans-serif" font-size="13" font-weight="bold" lengthAdjust="spacing" textLength="83.0337" x="441.3606" y="159.5513">score::time</text><g><title>VehicleClock</title><rect fill="#FFFFFF" height="87.3984" style="stroke:#181818;stroke-width:1;" width="10" x="276.52" y="245.3438"/></g><g><title>VehicleClockBackend</title><rect fill="#FFFFFF" height="29.1328" style="stroke:#181818;stroke-width:1;" width="10" x="649.0542" y="274.4766"/></g><rect fill="transparent" height="230.1328" style="stroke:#000000;stroke-width:1.5;" width="369.3516" x="47" y="425.0078"/><g><title>Diagnostics</title><rect fill="transparent" height="550.3281" width="8" x="48.6191" y="214.2109"/><line style="stroke:#181818;stroke-width:0.5;stroke-dasharray:5.0,5.0;" x1="52" x2="52" y1="214.2109" y2="764.5391"/></g><g><title>VehicleClock</title><rect fill="transparent" height="550.3281" width="8" x="277.52" y="214.2109"/><line style="stroke:#181818;stroke-width:0.5;stroke-dasharray:5.0,5.0;" x1="280.9258" x2="280.9258" y1="214.2109" y2="764.5391"/></g><g><title>VehicleClockBackend</title><rect fill="transparent" height="550.3281" width="8" x="650.0542" y="214.2109"/><line style="stroke:#181818;stroke-width:0.5;stroke-dasharray:5.0,5.0;" x1="653.2793" x2="653.2793" y1="214.2109" y2="764.5391"/></g><rect fill="#FFA07A" height="46.5938" rx="2.5" ry="2.5" style="stroke:#181818;stroke-width:0.5;" width="95.2383" x="5" y="166.6172"/><text fill="#000000" font-family="sans-serif" font-size="14" lengthAdjust="spacing" textLength="81.2383" x="12" y="186.6123">Diagnostics</text><text fill="#000000" font-family="sans-serif" font-size="14" lengthAdjust="spacing" textLength="79.2012" x="13.0186" y="202.9092">component</text><rect fill="#90EE90" height="30.2969" rx="2.5" ry="2.5" style="stroke:#181818;stroke-width:0.5;" width="103.1885" x="229.9258" y="182.9141"/><text fill="#000000" font-family="sans-serif" font-size="14" lengthAdjust="spacing" textLength="89.1885" x="236.9258" y="202.9092">VehicleClock</text><rect fill="#F08080" height="30.2969" rx="2.5" ry="2.5" style="stroke:#181818;stroke-width:0.5;" width="163.5498" x="572.2793" y="182.9141"/><text fill="#000000" font-family="sans-serif" font-size="14" lengthAdjust="spacing" textLength="149.5498" x="579.2793" y="202.9092">VehicleClockBackend</text><g><title>VehicleClock</title><rect fill="#FFFFFF" height="87.3984" style="stroke:#181818;stroke-width:1;" width="10" x="276.52" y="245.3438"/></g><g><title>VehicleClockBackend</title><rect fill="#FFFFFF" height="29.1328" style="stroke:#181818;stroke-width:1;" width="10" x="649.0542" y="274.4766"/></g><polygon fill="#181818" points="264.52,241.3438,274.52,245.3438,264.52,249.3438,268.52,245.3438" style="stroke:#181818;stroke-width:1;"/><line style="stroke:#181818;stroke-width:1;" x1="52.6191" x2="270.52" y1="245.3438" y2="245.3438"/><text fill="#000080" font-family="sans-serif" font-size="13" font-weight="bold" lengthAdjust="spacing" textLength="29.9736" x="59.6191" y="240.2778">[01]</text><text fill="#000000" font-family="sans-serif" font-size="13" lengthAdjust="spacing" textLength="38.4541" x="93.5928" y="240.2778">Now()</text><polygon fill="#181818" points="637.0542,270.4766,647.0542,274.4766,637.0542,278.4766,641.0542,274.4766" style="stroke:#181818;stroke-width:1;"/><line style="stroke:#181818;stroke-width:1;" x1="286.52" x2="643.0542" y1="274.4766" y2="274.4766"/><text fill="#000080" font-family="sans-serif" font-size="13" font-weight="bold" lengthAdjust="spacing" textLength="29.9736" x="293.52" y="269.4106">[02]</text><text fill="#000000" font-family="sans-serif" font-size="13" lengthAdjust="spacing" textLength="38.4541" x="327.4937" y="269.4106">Now()</text><polygon fill="#181818" points="297.52,299.6094,287.52,303.6094,297.52,307.6094,293.52,303.6094" style="stroke:#181818;stroke-width:1;"/><line style="stroke:#181818;stroke-width:1;stroke-dasharray:2.0,2.0;" x1="291.52" x2="653.0542" y1="303.6094" y2="303.6094"/><text fill="#000080" font-family="sans-serif" font-size="13" font-weight="bold" lengthAdjust="spacing" textLength="29.9736" x="303.52" y="298.5435">[03]</text><text fill="#000000" font-family="sans-serif" font-size="13" lengthAdjust="spacing" textLength="304.5605" x="337.4937" y="298.5435">ClockSnapshot{timepoint, VehicleTimeStatus}</text><polygon fill="#181818" points="63.6191,328.7422,53.6191,332.7422,63.6191,336.7422,59.6191,332.7422" style="stroke:#181818;stroke-width:1;"/><line style="stroke:#181818;stroke-width:1;stroke-dasharray:2.0,2.0;" x1="57.6191" x2="280.52" y1="332.7422" y2="332.7422"/><text fill="#000080" font-family="sans-serif" font-size="13" font-weight="bold" lengthAdjust="spacing" textLength="29.9736" x="69.6191" y="327.6763">[04]</text><text fill="#000000" font-family="sans-serif" font-size="13" lengthAdjust="spacing" textLength="59.2935" x="103.5928" y="327.6763">snapshot</text><line style="stroke:#181818;stroke-width:1;" x1="52.6191" x2="94.6191" y1="361.875" y2="361.875"/><line style="stroke:#181818;stroke-width:1;" x1="94.6191" x2="94.6191" y1="361.875" y2="374.875"/><line style="stroke:#181818;stroke-width:1;" x1="53.6191" x2="94.6191" y1="374.875" y2="374.875"/><polygon fill="#181818" points="63.6191,370.875,53.6191,374.875,63.6191,378.875,59.6191,374.875" style="stroke:#181818;stroke-width:1;"/><text fill="#000080" font-family="sans-serif" font-size="13" font-weight="bold" lengthAdjust="spacing" textLength="29.9736" x="59.6191" y="356.8091">[05]</text><text fill="#000000" font-family="sans-serif" font-size="13" lengthAdjust="spacing" textLength="174.0972" x="93.5928" y="356.8091">status = snapshot.Status()</text><path d="M57,387.875 L57,412.875 L319,412.875 L319,397.875 L309,387.875 L57,387.875 " fill="#FEFFDD" style="stroke:#181818;stroke-width:0.5;"/><path d="M309,387.875 L309,397.875 L319,397.875 L309,387.875 " fill="#FEFFDD" style="stroke:#181818;stroke-width:0.5;"/><text fill="#000000" font-family="sans-serif" font-size="13" lengthAdjust="spacing" textLength="241.5029" x="63" y="404.9419">VehicleTimeStatus returned by value</text><path d="M47,425.0078 L111.4429,425.0078 L111.4429,432.1406 L101.4429,442.1406 L47,442.1406 L47,425.0078 " fill="#EEEEEE" style="stroke:#000000;stroke-width:1.5;"/><rect fill="transparent" height="230.1328" style="stroke:#000000;stroke-width:1.5;" width="369.3516" x="47" y="425.0078"/><text fill="#000000" font-family="sans-serif" font-size="13" font-weight="bold" lengthAdjust="spacing" textLength="19.4429" x="62" y="438.0747">alt</text><text fill="#000000" font-family="sans-serif" font-size="11" font-weight="bold" lengthAdjust="spacing" textLength="123.793" x="126.4429" y="437.2183">[status.IsReliable()]</text><path d="M57,447.1406 L57,502.1406 L406,502.1406 L406,457.1406 L396,447.1406 L57,447.1406 " fill="#FEFFDD" style="stroke:#181818;stroke-width:0.5;"/><path d="M396,447.1406 L396,457.1406 L406,457.1406 L396,447.1406 " fill="#FEFFDD" style="stroke:#181818;stroke-width:0.5;"/><text fill="#000000" font-family="sans-serif" font-size="13" lengthAdjust="spacing" textLength="241.3442" x="63" y="464.2075">kSynchronized set AND no fault flags</text><text fill="#000000" font-family="sans-serif" font-size="13" lengthAdjust="spacing" textLength="328.3516" x="63" y="479.3403">(kTimeOut / kTimeLeapFuture / kTimeLeapPast) &#8212;</text><text fill="#000000" font-family="sans-serif" font-size="13" lengthAdjust="spacing" textLength="163.1729" x="63" y="494.4731">time value is trustworthy</text><line style="stroke:#000000;stroke-width:1;stroke-dasharray:2.0,2.0;" x1="47" x2="416.3516" y1="508.5391" y2="508.5391"/><text fill="#000000" font-family="sans-serif" font-size="11" font-weight="bold" lengthAdjust="spacing" textLength="201.0615" x="52" y="518.7495">[status.HasBeenSynchronized()]</text><path d="M57,527.3438 L57,582.3438 L304,582.3438 L304,537.3438 L294,527.3438 L57,527.3438 " fill="#FEFFDD" style="stroke:#181818;stroke-width:0.5;"/><path d="M294,527.3438 L294,537.3438 L304,537.3438 L294,527.3438 " fill="#FEFFDD" style="stroke:#181818;stroke-width:0.5;"/><text fill="#000000" font-family="sans-serif" font-size="13" lengthAdjust="spacing" textLength="226.1416" x="63" y="544.4106">kSynchronized set but at least one</text><text fill="#000000" font-family="sans-serif" font-size="13" lengthAdjust="spacing" textLength="163.7632" x="63" y="559.5435">fault flag is also active &#8212;</text><text fill="#000000" font-family="sans-serif" font-size="13" lengthAdjust="spacing" textLength="107.1104" x="63" y="574.6763">use with caution</text><line style="stroke:#000000;stroke-width:1;stroke-dasharray:2.0,2.0;" x1="47" x2="416.3516" y1="588.7422" y2="588.7422"/><path d="M57,594.7422 L57,649.7422 L269,649.7422 L269,604.7422 L259,594.7422 L57,594.7422 " fill="#FEFFDD" style="stroke:#181818;stroke-width:0.5;"/><path d="M259,594.7422 L259,604.7422 L269,604.7422 L259,594.7422 " fill="#FEFFDD" style="stroke:#181818;stroke-width:0.5;"/><text fill="#000000" font-family="sans-serif" font-size="13" lengthAdjust="spacing" textLength="161.8779" x="63" y="611.8091">kSynchronized not set &#8212;</text><text fill="#000000" font-family="sans-serif" font-size="13" lengthAdjust="spacing" textLength="191.6104" x="63" y="626.9419">clock not yet synchronized or</text><text fill="#000000" font-family="sans-serif" font-size="13" lengthAdjust="spacing" textLength="172.1802" x="63" y="642.0747">TimeDaemon unreachable</text><line style="stroke:#181818;stroke-width:1;" x1="52.6191" x2="94.6191" y1="683.2734" y2="683.2734"/><line style="stroke:#181818;stroke-width:1;" x1="94.6191" x2="94.6191" y1="683.2734" y2="696.2734"/><line style="stroke:#181818;stroke-width:1;" x1="53.6191" x2="94.6191" y1="696.2734" y2="696.2734"/><polygon fill="#181818" points="63.6191,692.2734,53.6191,696.2734,63.6191,700.2734,59.6191,696.2734" style="stroke:#181818;stroke-width:1;"/><text fill="#000080" font-family="sans-serif" font-size="13" font-weight="bold" lengthAdjust="spacing" textLength="29.9736" x="59.6191" y="678.2075">[06]</text><text fill="#000000" font-family="sans-serif" font-size="13" lengthAdjust="spacing" textLength="180.9272" x="93.5928" y="678.2075">status.IsFlagActive(SvtFlag)</text><path d="M57,709.2734 L57,749.2734 L267,749.2734 L267,719.2734 L257,709.2734 L57,709.2734 " fill="#FEFFDD" style="stroke:#181818;stroke-width:0.5;"/><path d="M257,709.2734 L257,719.2734 L267,719.2734 L257,709.2734 " fill="#FEFFDD" style="stroke:#181818;stroke-width:0.5;"/><text fill="#000000" font-family="sans-serif" font-size="13" lengthAdjust="spacing" textLength="142.2065" x="63" y="726.3403">inspect individual bits</text><text fill="#000000" font-family="sans-serif" font-size="13" lengthAdjust="spacing" textLength="189.9536" x="63" y="741.4731">for DTC / diagnostic mapping</text><rect fill="transparent" height="79.1875" id="_legend" rx="7.5" ry="7.5" style="stroke:#000000;stroke-width:1;" width="319.1895" x="12" y="54.2969"/><text fill="#000000" font-family="sans-serif" font-size="14" font-weight="bold" lengthAdjust="spacing" textLength="41.2139" x="21.874" y="74.292">Color</text><text fill="#000000" font-family="sans-serif" font-size="14" font-weight="bold" lengthAdjust="spacing" textLength="90.5488" x="141.0723" y="74.292">Description</text><rect fill="#FFA07A" height="16.2969" style="stroke:transparent;stroke-width:1;" width="119.1982" x="17" y="77.5938"/><text fill="#000000" font-family="sans-serif" font-size="14" lengthAdjust="spacing" textLength="35.6016" x="17" y="90.5889">&#160;&#160;&#160;&#160;&#160;&#160;&#160;&#160;</text><text fill="#000000" font-family="sans-serif" font-size="14" lengthAdjust="spacing" textLength="116.4365" x="140.6484" y="90.5889">Application code</text><rect fill="#90EE90" height="16.2969" style="stroke:transparent;stroke-width:1;" width="119.1982" x="17" y="93.8906"/><text fill="#000000" font-family="sans-serif" font-size="14" lengthAdjust="spacing" textLength="40.0518" x="17" y="106.8857">&#160;&#160;&#160;&#160;&#160;&#160;&#160;&#160;&#160;</text><text fill="#000000" font-family="sans-serif" font-size="14" lengthAdjust="spacing" textLength="158.833" x="140.6484" y="106.8857">score::time framework</text><rect fill="#F08080" height="16.2969" style="stroke:transparent;stroke-width:1;" width="119.1982" x="17" y="110.1875"/><text fill="#000000" font-family="sans-serif" font-size="14" lengthAdjust="spacing" textLength="40.0518" x="17" y="123.1826">&#160;&#160;&#160;&#160;&#160;&#160;&#160;&#160;&#160;</text><text fill="#000000" font-family="sans-serif" font-size="14" lengthAdjust="spacing" textLength="149.9395" x="140.6484" y="123.1826">VehicleTime backend</text><line style="stroke:#000000;stroke-width:1;" x1="17" x2="326.1895" y1="61.2969" y2="61.2969"/><line style="stroke:#000000;stroke-width:1;" x1="17" x2="326.1895" y1="77.5938" y2="77.5938"/><line style="stroke:#000000;stroke-width:1;" x1="17" x2="326.1895" y1="93.8906" y2="93.8906"/><line style="stroke:#000000;stroke-width:1;" x1="17" x2="326.1895" y1="110.1875" y2="110.1875"/><line style="stroke:#000000;stroke-width:1;" x1="17" x2="326.1895" y1="126.4844" y2="126.4844"/><line style="stroke:#000000;stroke-width:1;" x1="17" x2="17" y1="61.2969" y2="126.4844"/><line style="stroke:#000000;stroke-width:1;" x1="136.1982" x2="136.1982" y1="61.2969" y2="126.4844"/><line style="stroke:#000000;stroke-width:1;" x1="326.1895" x2="326.1895" y1="61.2969" y2="126.4844"/><!--SRC=[dLJBRjim4BphAnRE9G6Qr8UY1oCsaDX86o18Yph8fUs1abOMOPeKo9LTzm7q8_g5_P8kILbcugH0guiaScPsThbSagGGxkzUmU-Vl-0UQrael9Ch7C6S1BKEhfHOmBLs3HOaZSuojvIw4LQi81V5Sc5DgykfKSR2ffQ4MIrBXCeOoisNJBHaTBlAqSBWl3AQeF3GiHRhxUGydtmS3ZyFiapX0dK9P1fGM546_7mVGvHz-F3o35rXPUFjFDwCpFEZ6xceQIxKokX9lmaNJQDa8GAnC6ppEUORYxWdCjCLnk9eH5mPg3Xtt1YxV8evDLQeb9dKD1JCvzd7v9-OUfPnjM2G61p04RwkXbKLvBdW90lP2AxWO2R5GXl72-wJBiogCHer3K0u44q3QV8-0lY3YFf96gplrQlXeNvdUQfCiGogXV-2f3H_vrp6D0Drbt9IdRqdx_PqqicFuDPiZayomNss5eHnEOkRZDef7U2wZMm7E4qaWv-v5esh3NtpUJT6QdgH7ajiz1zPYGUINN0Mz5P7u3gb51jjxdBfSF7kZ7l2MGp2jhLXZlN505DvUAZbWHsmIAtLo9NQmbge5aFPF9jZAUf2d5sx3wYao1MojbTwMjy_o_bM5xKrMdvbMOS45xSpnaCbMXQi-AAx7doyz5xUjGGl8NpUe6YkMlQ4wSfxuUZ4puwU6Av8C0pI0TdM4TyLghS1qUU0ok4kXxV2NN9JfVR-8vcSlGhY-S6MW6z43zsdvnq9vGo4myC7lblsiv5KGy4pom-w0xl_v8XnmLKQ8dQJtzdoZalXnlOeNzgPGBwyq6hBVLRxqtranq-C9pgEsy7FwukGtl5yJVxlkPwJSQZpkvHhMRP2GIufja35StTsD-MZBljX0ojcIhtOD-8V]--></g></svg>