<svg xmlns="http://www.w3.org/2000/svg" xmlns:xlink="http://www.w3.org/1999/xlink" contentStyleType="text/css" data-diagram-type="DESCRIPTION" height="650px" preserveAspectRatio="none" style="width:337px;height:650px;background:#FFFFFF;" version="1.1" viewBox="0 0 337 650" width="337px" zoomAndPan="magnify"><title>gPTP Protocol Stack</title><defs/><g><text fill="#000000" font-family="Verdana" font-size="22" font-weight="bold" lengthAdjust="spacing" textLength="250.6152" x="37.6924" y="35.4209">gPTP Protocol Stack</text><!--cluster Application Layer--><g id="cluster_Application Layer"><path d="M41.5,55.6094 L150.98,55.6094 A3.75,3.75 0 0 1 153.48,58.1094 L160.48,74.4141 L170.5,74.4141 A2.5,2.5 0 0 1 173,76.9141 L173,130.1094 A2.5,2.5 0 0 1 170.5,132.6094 L41.5,132.6094 A2.5,2.5 0 0 1 39,130.1094 L39,58.1094 A2.5,2.5 0 0 1 41.5,55.6094 " fill="#EBF5FB" style="stroke:#2E86C1;stroke-width:1;"/><line style="stroke:#2E86C1;stroke-width:1;" x1="39" x2="160.48" y1="74.4141" y2="74.4141"/><text fill="#1A5276" font-family="Verdana" font-size="11" font-weight="bold" lengthAdjust="spacing" textLength="108.48" x="43" y="67.8198">Application Layer</text></g><!--cluster gPTP Layer (IEEE 802.1AS)--><g id="cluster_gPTP Layer (IEEE 802.1AS)"><path d="M35.5,188.6094 L201.8975,188.6094 A3.75,3.75 0 0 1 204.3975,191.1094 L211.3975,207.4141 L242.5,207.4141 A2.5,2.5 0 0 1 245,209.9141 L245,275.1094 A2.5,2.5 0 0 1 242.5,277.6094 L35.5,277.6094 A2.5,2.5 0 0 1 33,275.1094 L33,191.1094 A2.5,2.5 0 0 1 35.5,188.6094 " fill="#EBF5FB" style="stroke:#2E86C1;stroke-width:1;"/><line style="stroke:#2E86C1;stroke-width:1;" x1="33" x2="211.3975" y1="207.4141" y2="207.4141"/><text fill="#1A5276" font-family="Verdana" font-size="11" font-weight="bold" lengthAdjust="spacing" textLength="165.3975" x="37" y="200.8198">gPTP Layer (IEEE 802.1AS)</text></g><!--cluster Ethernet Layer (IEEE 802.3)--><g id="cluster_Ethernet Layer (IEEE 802.3)"><path d="M71.5,310.6094 L243.999,310.6094 A3.75,3.75 0 0 1 246.499,313.1094 L253.499,329.4141 L253.5,329.4141 A2.5,2.5 0 0 1 256,331.9141 L256,397.1094 A2.5,2.5 0 0 1 253.5,399.6094 L71.5,399.6094 A2.5,2.5 0 0 1 69,397.1094 L69,313.1094 A2.5,2.5 0 0 1 71.5,310.6094 " fill="#EBF5FB" style="stroke:#2E86C1;stroke-width:1;"/><line style="stroke:#2E86C1;stroke-width:1;" x1="69" x2="253.499" y1="329.4141" y2="329.4141"/><text fill="#1A5276" font-family="Verdana" font-size="11" font-weight="bold" lengthAdjust="spacing" textLength="171.499" x="73" y="322.8198">Ethernet Layer (IEEE 802.3)</text></g><!--cluster Platform Shim--><g id="cluster_Platform Shim"><path d="M21.5,444.6094 L111.0586,444.6094 A3.75,3.75 0 0 1 113.5586,447.1094 L120.5586,463.4141 L327.5,463.4141 A2.5,2.5 0 0 1 330,465.9141 L330,531.1094 A2.5,2.5 0 0 1 327.5,533.6094 L21.5,533.6094 A2.5,2.5 0 0 1 19,531.1094 L19,447.1094 A2.5,2.5 0 0 1 21.5,444.6094 " fill="#EBF5FB" style="stroke:#2E86C1;stroke-width:1;"/><line style="stroke:#2E86C1;stroke-width:1;" x1="19" x2="120.5586" y1="463.4141" y2="463.4141"/><text fill="#1A5276" font-family="Verdana" font-size="11" font-weight="bold" lengthAdjust="spacing" textLength="88.5586" x="23" y="456.8198">Platform Shim</text></g><!--cluster Hardware--><g id="cluster_Hardware"><path d="M90.5,566.6094 L151.8979,566.6094 A3.75,3.75 0 0 1 154.3979,569.1094 L161.3979,585.4141 L243.5,585.4141 A2.5,2.5 0 0 1 246,587.9141 L246,641.1094 A2.5,2.5 0 0 1 243.5,643.6094 L90.5,643.6094 A2.5,2.5 0 0 1 88,641.1094 L88,569.1094 A2.5,2.5 0 0 1 90.5,566.6094 " fill="#EBF5FB" style="stroke:#2E86C1;stroke-width:1;"/><line style="stroke:#2E86C1;stroke-width:1;" x1="88" x2="161.3979" y1="585.4141" y2="585.4141"/><text fill="#1A5276" font-family="Verdana" font-size="11" font-weight="bold" lengthAdjust="spacing" textLength="60.3979" x="92" y="578.8198">Hardware</text></g><!--entity Engine--><g id="elem_Engine"><rect fill="#FEF9E7" height="45.6094" rx="2.5" ry="2.5" style="stroke:#D4AC0D;stroke-width:1;" width="118.0869" x="47" y="78.6094"/><text fill="#2C3E50" font-family="Verdana" font-size="11" lengthAdjust="spacing" textLength="91.4697" x="57" y="98.8198">TimeSyncEngine</text><text fill="#2C3E50" font-family="Verdana" font-size="11" lengthAdjust="spacing" textLength="98.0869" x="57" y="111.6245">PortSynchronize()</text></g><!--entity GPTP--><g id="elem_GPTP"><rect fill="#FEF9E7" height="58.4141" rx="2.5" ry="2.5" style="stroke:#D4AC0D;stroke-width:1;" width="195.5059" x="41" y="211.6094"/><text fill="#2C3E50" font-family="Verdana" font-size="11" lengthAdjust="spacing" textLength="75.8721" x="51" y="231.8198">gptp_protocol</text><text fill="#2C3E50" font-family="Verdana" font-size="11" lengthAdjust="spacing" textLength="107.2715" x="51" y="244.6245">SYNC / FOLLOW_UP</text><text fill="#2C3E50" font-family="Verdana" font-size="11" lengthAdjust="spacing" textLength="175.5059" x="51" y="257.4292">PDELAY_REQ / RESP / RESP_FUP</text></g><!--entity ETH--><g id="elem_ETH"><rect fill="#FEF9E7" height="58.4141" rx="2.5" ry="2.5" style="stroke:#D4AC0D;stroke-width:1;" width="144.4106" x="90" y="333.6094"/><text fill="#2C3E50" font-family="Verdana" font-size="11" lengthAdjust="spacing" textLength="68.6641" x="100" y="353.8198">eth_protocol</text><text fill="#2C3E50" font-family="Verdana" font-size="11" lengthAdjust="spacing" textLength="100.8315" x="100" y="366.6245">EtherType 0x88F7</text><text fill="#2C3E50" font-family="Verdana" font-size="11" lengthAdjust="spacing" textLength="124.4106" x="100" y="379.4292">Optional VLAN 0x8100</text></g><!--entity Linux--><g id="elem_Linux"><rect fill="#FEF9E7" height="58.4141" rx="2.5" ry="2.5" style="stroke:#D4AC0D;stroke-width:1;" width="124.8921" x="27.5" y="467.6094"/><text fill="#2C3E50" font-family="Verdana" font-size="11" lengthAdjust="spacing" textLength="84.2993" x="37.5" y="487.8198">linux_raw_shim</text><text fill="#2C3E50" font-family="Verdana" font-size="11" lengthAdjust="spacing" textLength="104.8921" x="37.5" y="500.6245">SO_TIMESTAMPING</text><text fill="#2C3E50" font-family="Verdana" font-size="11" lengthAdjust="spacing" textLength="104.0005" x="37.5" y="513.4292">clock_settime(phc)</text></g><!--entity QNX--><g id="elem_QNX"><rect fill="#FEF9E7" height="58.4141" rx="2.5" ry="2.5" style="stroke:#D4AC0D;stroke-width:1;" width="150.9741" x="170.5" y="467.6094"/><text fill="#2C3E50" font-family="Verdana" font-size="11" lengthAdjust="spacing" textLength="78.1978" x="180.5" y="487.8198">qnx_raw_shim</text><text fill="#2C3E50" font-family="Verdana" font-size="11" lengthAdjust="spacing" textLength="104.1938" x="180.5" y="500.6245">NPM timestamping</text><text fill="#2C3E50" font-family="Verdana" font-size="11" lengthAdjust="spacing" textLength="130.9741" x="180.5" y="513.4292">qnx_phc_adjtime_step()</text></g><!--entity NIC--><g id="elem_NIC"><rect fill="#FEF9E7" height="45.6094" rx="2.5" ry="2.5" style="stroke:#D4AC0D;stroke-width:1;" width="140.8228" x="96.5" y="589.6094"/><text fill="#2C3E50" font-family="Verdana" font-size="11" lengthAdjust="spacing" textLength="51.4766" x="106.5" y="609.8198">NIC / PHY</text><text fill="#2C3E50" font-family="Verdana" font-size="11" lengthAdjust="spacing" textLength="120.8228" x="106.5" y="622.6245">HW timestamps t1..t4</text></g><polygon fill="#555555" points="94.5551,211.4723,90.383,202.5507,90.7801,208.1936,85.1372,208.5907,94.5551,211.4723" style="stroke:#555555;stroke-width:1;"/><path d="M81.0409,124.7275 C76.5299,130.0893 72.4769,136.1546 70,142.6094 C63.9493,158.3772 62.9337,165.2698 70,180.6094 C75.4735,192.4912 80.1209,198.936 90.0251,207.5379 " fill="transparent" style="stroke:#555555;stroke-width:1;"/><text fill="#000000" font-family="Verdana" font-size="10" lengthAdjust="spacing" textLength="94.3652" x="72" y="159.3916">encode PTPHeader</text><text fill="#000000" font-family="Verdana" font-size="10" lengthAdjust="spacing" textLength="74.4531" x="81.9561" y="171.0322">correctionField</text><polygon fill="#555555" points="137.8992,333.3923,136.0157,323.7252,135.0322,329.2959,129.4615,328.3124,137.8992,333.3923" style="stroke:#555555;stroke-width:1;"/><path d="M124.3726,269.6367 C120.739,280.0282 118.7087,291.8895 122,302.6094 C125.3416,313.4931 128.0071,319.2584 134.4588,328.4766 " fill="transparent" style="stroke:#555555;stroke-width:1;"/><text fill="#000000" font-family="Verdana" font-size="10" lengthAdjust="spacing" textLength="82.71" x="124" y="298.8916">raw PTP payload</text><polygon fill="#555555" points="71.8135,467.5863,71.2992,457.7509,69.547,463.1296,64.1684,461.3773,71.8135,467.5863" style="stroke:#555555;stroke-width:1;"/><path d="M89.5502,387.4345 C80.6086,393.318 72.645,400.604 67,409.6094 C56.0003,427.1569 60.0978,444.5491 69.0937,462.2382 " fill="transparent" style="stroke:#555555;stroke-width:1;"/><text fill="#000000" font-family="Verdana" font-size="10" lengthAdjust="spacing" textLength="60.3809" x="73.0918" y="420.8916">frame bytes</text><text fill="#000000" font-family="Verdana" font-size="10" lengthAdjust="spacing" textLength="68.5645" x="69" y="432.5322">[!_QNX_PLAT]</text><polygon fill="#555555" points="212.4523,467.3123,208.8427,458.1488,208.8884,463.8055,203.2317,463.8512,212.4523,467.3123" style="stroke:#555555;stroke-width:1;"/><path d="M168.3678,391.6263 C172.3675,405.7952 178.4218,422.8559 187,436.6094 C193.8995,447.6714 198.9632,454.0393 208.1756,463.1041 " fill="transparent" style="stroke:#555555;stroke-width:1;"/><text fill="#000000" font-family="Verdana" font-size="10" lengthAdjust="spacing" textLength="60.3809" x="191.0874" y="420.8916">frame bytes</text><text fill="#000000" font-family="Verdana" font-size="10" lengthAdjust="spacing" textLength="64.5557" x="189" y="432.5322">[_QNX_PLAT]</text><polygon fill="#555555" points="130.9952,589.4246,126.3121,580.7604,127.0362,586.3707,121.4259,587.0948,130.9952,589.4246" style="stroke:#555555;stroke-width:1;"/><path d="M91.4682,525.7912 C93.0438,536.655 96.113,548.7994 102,558.6094 C109.1926,570.595 115.3805,577.3799 126.2444,585.7599 " fill="transparent" style="stroke:#555555;stroke-width:1;"/><polygon fill="#555555" points="182.3476,589.4621,190.7616,584.3431,185.1956,585.3525,184.1862,579.7864,182.3476,589.4621" style="stroke:#555555;stroke-width:1;"/><path d="M226.4719,525.7892 C212.8558,545.4378 198.3605,566.3551 185.7652,584.5305 " fill="transparent" style="stroke:#555555;stroke-width:1;"/><polygon fill="#555555" points="103.0903,525.6827,103.5819,535.5193,105.3465,530.1447,110.7211,531.9093,103.0903,525.6827" style="stroke:#555555;stroke-width:1;"/><path d="M105.7978,531.0371 C111.1658,541.653 115.0438,548.2992 122,558.6094 C129.2236,569.316 138.2702,580.3315 146.3538,589.5273 " fill="transparent" style="stroke:#555555;stroke-width:1;"/><text fill="#000000" font-family="Verdana" font-size="10" lengthAdjust="spacing" textLength="74.1064" x="124" y="554.8916">frame + HW ts</text><polygon fill="#555555" points="238.3011,525.9123,231.61,533.1392,236.6871,530.6446,239.1817,535.7217,238.3011,525.9123" style="stroke:#555555;stroke-width:1;"/><path d="M236.3643,531.5911 C232.6942,542.3516 229.5795,548.713 223,558.6094 C215.4406,569.9796 205.0149,580.703 195.2072,589.4901 " fill="transparent" style="stroke:#555555;stroke-width:1;"/><text fill="#000000" font-family="Verdana" font-size="10" lengthAdjust="spacing" textLength="74.1064" x="233" y="554.8916">frame + HW ts</text><polygon fill="#555555" points="155.8857,391.6734,149.7103,399.3457,154.6027,396.506,157.4425,401.3984,155.8857,391.6734" style="stroke:#555555;stroke-width:1;"/><path d="M154.3461,397.4725 C150.6239,411.4936 146.6326,422.6095 139,436.6094 C133.0726,447.4815 124.9851,458.2407 117.0893,467.5343 " fill="transparent" style="stroke:#555555;stroke-width:1;"/><polygon fill="#555555" points="234.3003,388.5868,239.4187,397.0012,238.4097,391.4351,243.9759,390.4261,234.3003,388.5868" style="stroke:#555555;stroke-width:1;"/><path d="M239.2316,392.0047 C247.4312,397.6879 249.7734,401.1931 255,409.6094 C265.6126,426.6984 262.6492,449.4602 257.4145,467.274 " fill="transparent" style="stroke:#555555;stroke-width:1;"/><polygon fill="#555555" points="193.5602,269.8198,197.6142,278.7956,197.2916,273.148,202.9392,272.8253,193.5602,269.8198" style="stroke:#555555;stroke-width:1;"/><path d="M198.0379,273.8136 C203.8101,278.9619 204.3995,280.8818 208,287.6094 C216.2799,303.0805 207.6113,319.7248 195.6538,333.3024 " fill="transparent" style="stroke:#555555;stroke-width:1;"/><text fill="#000000" font-family="Verdana" font-size="10" lengthAdjust="spacing" textLength="67.1289" x="214" y="298.8916">parsed frame</text><polygon fill="#555555" points="152.3049,124.6924,156.8664,133.4212,156.2208,127.8013,161.8407,127.1558,152.3049,124.6924" style="stroke:#555555;stroke-width:1;"/><path d="M157.004,128.4231 C163.3031,133.4242 164.2,135.6355 168,142.6094 C179.774,164.2173 169.9971,191.2015 158.7193,211.2195 " fill="transparent" style="stroke:#555555;stroke-width:1;"/><text fill="#000000" font-family="Verdana" font-size="10" lengthAdjust="spacing" textLength="54.5801" x="176.7739" y="153.8916">PTPHeader</text><text fill="#000000" font-family="Verdana" font-size="10" lengthAdjust="spacing" textLength="56.1279" x="176" y="165.5322">Timestamp</text><text fill="#000000" font-family="Verdana" font-size="10" lengthAdjust="spacing" textLength="28.4424" x="189.8428" y="177.1729">offset</text><!--SRC=[TLHTJzim57tFhp3bXMc29OL2nyEaK19QARI1X36qJ959t3J3iJt7LScc_VTT9oca7yjBTR_EEVVOxe5Qa88WGN7EZ0CXSLPWH775bmgL1L6OOQDyoPd04XVe6ISlcUHBbeuuvHAj5haYdNfAvdX9bSkP2lBV15bMfvZmGd16eAGgIf0a2Q1dj3jlIybN3VJXeFwsY-_Gfj6f2H26CuB-60Y-gosPXywLEt2lcXgNAP5jlkyCpqTMdTV0RTQo1_sByxTi8_UPqzJuks-T_v6wZllPkTWblJwpH-RrDcb_TEeCJ60mLAw0B_D37_cIAvvmYW85w8QnNhDd2q7p1AkSC-JXYiXUg-9TLI_C2n9KB75ObZCICPzBfUE5v0mSFFhGGxX4JLNple7Nr3KgEfeuZeE6Pl_4ieCFUqWoeKGiMfaH2vwc8_G9kJFFcpt63pwmNZkU_HJVEtUGltS2l_s9tGU_5d03R1lq3bn9oOZQaN2wJm1HYmv_FHjMWY3pTJXqBo8s4zeaJD5Npvxgh6MQpUBXU8FMfrZDkInGiCYBFKGqPylNME9LN483h3gBmycj4uJshJ-PtaGieJnvYKkY51X_91P9Ox2dvxR1Vh4krDI_HNgeLBWGESiYfkk04EFqfox4fIAYFR2xwRSDtMCiqnMMP8_awKGVXZz-YjZuyPsXHCewEL5dDHpqQBZc6g3ZbA_OyPVwKD0b8YpXAK4GZ0c66mnBSgaVBbZgvWHUHDsudW9BOGZsqXFm9YlASMhexBgZDWDwvl22u4rLYfGH-tuGmrAnxzdXZurkoExqTbeRi7MpNaGFT6D3Et2y53lC7v4sfEpKkrphQajGr_LrgU7Vebff7RLkmVz2IT86epMcQMwylUpw6AuF8s9yFeTBO_m3]--></g></svg>