<svg xmlns="http://www.w3.org/2000/svg" xmlns:xlink="http://www.w3.org/1999/xlink" contentStyleType="text/css" data-diagram-type="CLASS" height="493px" preserveAspectRatio="none" style="width:726px;height:493px;background:#FFFFFF;" version="1.1" viewBox="0 0 726 493" width="726px" zoomAndPan="magnify"><title>libTSClient Shared Memory IPC</title><defs/><g><text fill="#000000" font-family="Verdana" font-size="22" font-weight="bold" lengthAdjust="spacing" textLength="385.3545" x="166.0593" y="35.4209">libTSClient Shared Memory IPC</text><!--cluster TimeSlave Process--><g id="cluster_TimeSlave Process"><path d="M13.5,57.6094 L161.999,57.6094 A3.75,3.75 0 0 1 164.499,60.1094 L171.499,79.9063 L240.5,79.9063 A2.5,2.5 0 0 1 243,82.4063 L243,231.1094 A2.5,2.5 0 0 1 240.5,233.6094 L13.5,233.6094 A2.5,2.5 0 0 1 11,231.1094 L11,60.1094 A2.5,2.5 0 0 1 13.5,57.6094 " fill="#FFFFFF" style="stroke:#000000;stroke-width:1;"/><line style="stroke:#000000;stroke-width:1;" x1="11" x2="171.499" y1="79.9063" y2="79.9063"/><text fill="#000000" font-family="Verdana" font-size="14" font-weight="bold" lengthAdjust="spacing" textLength="147.499" x="15" y="72.6045">TimeSlave Process</text></g><!--cluster Shared Memory--><g id="cluster_Shared Memory"><path d="M84.5,297.6094 L209.9551,297.6094 A3.75,3.75 0 0 1 212.4551,300.1094 L219.4551,319.9063 L359.5,319.9063 A2.5,2.5 0 0 1 362,322.4063 L362,484.1094 A2.5,2.5 0 0 1 359.5,486.6094 L84.5,486.6094 A2.5,2.5 0 0 1 82,484.1094 L82,300.1094 A2.5,2.5 0 0 1 84.5,297.6094 " fill="#FFFFFF" style="stroke:#000000;stroke-width:1;"/><line style="stroke:#000000;stroke-width:1;" x1="82" x2="219.4551" y1="319.9063" y2="319.9063"/><text fill="#000000" font-family="Verdana" font-size="14" font-weight="bold" lengthAdjust="spacing" textLength="124.4551" x="86" y="312.6045">Shared Memory</text></g><!--cluster TimeDaemon Process--><g id="cluster_TimeDaemon Process"><path d="M269.5,57.6094 L439.7852,57.6094 A3.75,3.75 0 0 1 442.2852,60.1094 L449.2852,79.9063 L596.5,79.9063 A2.5,2.5 0 0 1 599,82.4063 L599,231.1094 A2.5,2.5 0 0 1 596.5,233.6094 L269.5,233.6094 A2.5,2.5 0 0 1 267,231.1094 L267,60.1094 A2.5,2.5 0 0 1 269.5,57.6094 " fill="#FFFFFF" style="stroke:#000000;stroke-width:1;"/><line style="stroke:#000000;stroke-width:1;" x1="267" x2="449.2852" y1="79.9063" y2="79.9063"/><text fill="#000000" font-family="Verdana" font-size="14" font-weight="bold" lengthAdjust="spacing" textLength="169.2852" x="271" y="72.6045">TimeDaemon Process</text></g><!--class GptpIpcPublisher--><g id="elem_GptpIpcPublisher"><rect codeLine="6" fill="#FFFFFF" height="125.4844" id="GptpIpcPublisher" rx="2.5" ry="2.5" style="stroke:#000000;stroke-width:1;" width="199.5811" x="27" y="92.6094"/><ellipse cx="63.5077" cy="106.6094" fill="#FFFFFF" rx="9" ry="9" style="stroke:#000000;stroke-width:1;"/><path d="M66.4764,112.25 Q65.8983,112.5469 65.2577,112.6875 Q64.617,112.8438 63.9139,112.8438 Q61.4139,112.8438 60.0858,111.2031 Q58.7733,109.5469 58.7733,106.4219 Q58.7733,103.2969 60.0858,101.6406 Q61.4139,99.9844 63.9139,99.9844 Q64.617,99.9844 65.2577,100.1406 Q65.9139,100.2969 66.4764,100.5938 L66.4764,103.3125 Q65.8514,102.7344 65.2577,102.4688 Q64.6639,102.1875 64.0389,102.1875 Q62.6952,102.1875 62.0077,103.2656 Q61.3202,104.3281 61.3202,106.4219 Q61.3202,108.5156 62.0077,109.5938 Q62.6952,110.6563 64.0389,110.6563 Q64.6639,110.6563 65.2577,110.3906 Q65.8514,110.1094 66.4764,109.5313 L66.4764,112.25 Z " fill="#000000"/><text fill="#000000" font-family="Verdana" font-size="14" lengthAdjust="spacing" textLength="119.3418" x="80.7316" y="111.4561">GptpIpcPublisher</text><line style="stroke:#000000;stroke-width:1;" x1="28" x2="225.5811" y1="120.6094" y2="120.6094"/><rect fill="transparent" height="6" style="stroke:#000000;stroke-width:1;" width="6" x="35" y="131.2578"/><text fill="#000000" font-family="Verdana" font-size="14" lengthAdjust="spacing" textLength="175.5811" x="45" y="137.6045">region_ : GptpIpcRegion*</text><rect fill="transparent" height="6" style="stroke:#000000;stroke-width:1;" width="6" x="35" y="147.5547"/><text fill="#000000" font-family="Verdana" font-size="14" lengthAdjust="spacing" textLength="52.6846" x="45" y="153.9014">fd_ : int</text><line style="stroke:#000000;stroke-width:1;" x1="28" x2="225.5811" y1="161.2031" y2="161.2031"/><ellipse cx="38" cy="174.8516" fill="#FFFFFF" rx="3" ry="3" style="stroke:#000000;stroke-width:1;"/><text fill="#000000" font-family="Verdana" font-size="14" lengthAdjust="spacing" textLength="116.5322" x="45" y="178.1982">Init(name) : bool</text><ellipse cx="38" cy="191.1484" fill="#FFFFFF" rx="3" ry="3" style="stroke:#000000;stroke-width:1;"/><text fill="#000000" font-family="Verdana" font-size="14" lengthAdjust="spacing" textLength="130.5732" x="45" y="194.4951">Publish(info) : void</text><ellipse cx="38" cy="207.4453" fill="#FFFFFF" rx="3" ry="3" style="stroke:#000000;stroke-width:1;"/><text fill="#000000" font-family="Verdana" font-size="14" lengthAdjust="spacing" textLength="108.9512" x="45" y="210.792">Destroy() : void</text></g><!--class GptpIpcRegion--><g id="elem_GptpIpcRegion"><rect codeLine="16" fill="#FFFFFF" height="137.75" id="GptpIpcRegion" rx="2.5" ry="2.5" style="stroke:#000000;stroke-width:1;" width="246.8174" x="98.5" y="332.6094"/><ellipse cx="166.4688" cy="352.7422" fill="#FFFFFF" rx="9" ry="9" style="stroke:#000000;stroke-width:1;"/><path d="M169.4375,358.3828 Q168.8594,358.6797 168.2188,358.8203 Q167.5781,358.9766 166.875,358.9766 Q164.375,358.9766 163.0469,357.3359 Q161.7344,355.6797 161.7344,352.5547 Q161.7344,349.4297 163.0469,347.7734 Q164.375,346.1172 166.875,346.1172 Q167.5781,346.1172 168.2188,346.2734 Q168.875,346.4297 169.4375,346.7266 L169.4375,349.4453 Q168.8125,348.8672 168.2188,348.6016 Q167.625,348.3203 167,348.3203 Q165.6563,348.3203 164.9688,349.3984 Q164.2813,350.4609 164.2813,352.5547 Q164.2813,354.6484 164.9688,355.7266 Q165.6563,356.7891 167,356.7891 Q167.625,356.7891 168.2188,356.5234 Q168.8125,356.2422 169.4375,355.6641 L169.4375,358.3828 Z " fill="#000000"/><text fill="#000000" font-family="Verdana" font-size="12" font-style="italic" lengthAdjust="spacing" textLength="83.6895" x="193.814" y="348.748">&#171;aligned(64)&#187;</text><text fill="#000000" font-family="Verdana" font-size="14" lengthAdjust="spacing" textLength="103.3799" x="183.9688" y="364.5732">GptpIpcRegion</text><line style="stroke:#000000;stroke-width:1;" x1="99.5" x2="344.3174" y1="372.875" y2="372.875"/><ellipse cx="109.5" cy="386.5234" fill="transparent" rx="3" ry="3" style="stroke:#000000;stroke-width:1;"/><text fill="#000000" font-family="Verdana" font-size="14" lengthAdjust="spacing" textLength="222.8174" x="116.5" y="389.8701">magic : uint32_t = 0x47505440</text><ellipse cx="109.5" cy="402.8203" fill="transparent" rx="3" ry="3" style="stroke:#000000;stroke-width:1;"/><text fill="#000000" font-family="Verdana" font-size="14" lengthAdjust="spacing" textLength="198.2627" x="116.5" y="406.167">seq : std::atomic&lt;uint32_t&gt;</text><ellipse cx="109.5" cy="419.1172" fill="transparent" rx="3" ry="3" style="stroke:#000000;stroke-width:1;"/><text fill="#000000" font-family="Verdana" font-size="14" lengthAdjust="spacing" textLength="129.1582" x="116.5" y="422.4639">data : PtpTimeInfo</text><line style="stroke:#000000;stroke-width:1;" x1="99.5" x2="344.3174" y1="429.7656" y2="429.7656"/><text fill="#000000" font-family="Verdana" font-size="14" lengthAdjust="spacing" textLength="133.9092" x="104.5" y="446.7607">64-byte aligned for</text><text fill="#000000" font-family="Verdana" font-size="14" lengthAdjust="spacing" textLength="143.042" x="104.5" y="463.0576">cache line efficiency</text></g><!--class GptpIpcReceiver--><g id="elem_GptpIpcReceiver"><rect codeLine="26" fill="#FFFFFF" height="125.4844" id="GptpIpcReceiver" rx="2.5" ry="2.5" style="stroke:#000000;stroke-width:1;" width="299.29" x="283.5" y="92.6094"/><ellipse cx="371.3853" cy="106.6094" fill="#FFFFFF" rx="9" ry="9" style="stroke:#000000;stroke-width:1;"/><path d="M374.354,112.25 Q373.7759,112.5469 373.1353,112.6875 Q372.4946,112.8438 371.7915,112.8438 Q369.2915,112.8438 367.9634,111.2031 Q366.6509,109.5469 366.6509,106.4219 Q366.6509,103.2969 367.9634,101.6406 Q369.2915,99.9844 371.7915,99.9844 Q372.4946,99.9844 373.1353,100.1406 Q373.7915,100.2969 374.354,100.5938 L374.354,103.3125 Q373.729,102.7344 373.1353,102.4688 Q372.5415,102.1875 371.9165,102.1875 Q370.5728,102.1875 369.8853,103.2656 Q369.1978,104.3281 369.1978,106.4219 Q369.1978,108.5156 369.8853,109.5938 Q370.5728,110.6563 371.9165,110.6563 Q372.5415,110.6563 373.1353,110.3906 Q373.729,110.1094 374.354,109.5313 L374.354,112.25 Z " fill="#000000"/><text fill="#000000" font-family="Verdana" font-size="14" lengthAdjust="spacing" textLength="116.0195" x="388.8853" y="111.4561">GptpIpcReceiver</text><line style="stroke:#000000;stroke-width:1;" x1="284.5" x2="581.79" y1="120.6094" y2="120.6094"/><rect fill="transparent" height="6" style="stroke:#000000;stroke-width:1;" width="6" x="291.5" y="131.2578"/><text fill="#000000" font-family="Verdana" font-size="14" lengthAdjust="spacing" textLength="217.9502" x="301.5" y="137.6045">region_ : const GptpIpcRegion*</text><rect fill="transparent" height="6" style="stroke:#000000;stroke-width:1;" width="6" x="291.5" y="147.5547"/><text fill="#000000" font-family="Verdana" font-size="14" lengthAdjust="spacing" textLength="52.6846" x="301.5" y="153.9014">fd_ : int</text><line style="stroke:#000000;stroke-width:1;" x1="284.5" x2="581.79" y1="161.2031" y2="161.2031"/><ellipse cx="294.5" cy="174.8516" fill="#FFFFFF" rx="3" ry="3" style="stroke:#000000;stroke-width:1;"/><text fill="#000000" font-family="Verdana" font-size="14" lengthAdjust="spacing" textLength="116.5322" x="301.5" y="178.1982">Init(name) : bool</text><ellipse cx="294.5" cy="191.1484" fill="#FFFFFF" rx="3" ry="3" style="stroke:#000000;stroke-width:1;"/><text fill="#000000" font-family="Verdana" font-size="14" lengthAdjust="spacing" textLength="275.29" x="301.5" y="194.4951">Receive() : std::optional&lt;PtpTimeInfo&gt;</text><ellipse cx="294.5" cy="207.4453" fill="#FFFFFF" rx="3" ry="3" style="stroke:#000000;stroke-width:1;"/><text fill="#000000" font-family="Verdana" font-size="14" lengthAdjust="spacing" textLength="92.3057" x="301.5" y="210.792">Close() : void</text></g><g id="elem_GMN10"><path d="M380.5,366.1094 L380.5,397.6094 L345.64,401.6094 L380.5,405.6094 L380.5,436.6406 A0,0 0 0 0 380.5,436.6406 L719.4731,436.6406 A0,0 0 0 0 719.4731,436.6406 L719.4731,376.1094 L709.4731,366.1094 L380.5,366.1094 A0,0 0 0 0 380.5,366.1094 " fill="#FFFFFF" style="stroke:#000000;stroke-width:1;"/><path d="M709.4731,366.1094 L709.4731,376.1094 L719.4731,376.1094 L709.4731,366.1094 " fill="#FFFFFF" style="stroke:#000000;stroke-width:1;"/><text fill="#000000" font-family="Verdana" font-size="13" font-weight="bold" lengthAdjust="spacing" textLength="128.0576" x="386.5" y="383.1763">Seqlock Protocol:</text><text fill="#000000" font-family="Verdana" font-size="13" lengthAdjust="spacing" textLength="233.1113" x="386.5" y="398.3091">Writer: seq++ &#8594; memcpy &#8594; seq++</text><text fill="#000000" font-family="Verdana" font-size="13" lengthAdjust="spacing" textLength="317.9731" x="386.5" y="413.4419">Reader: read seq (even) &#8594; memcpy &#8594; check seq</text><text fill="#000000" font-family="Verdana" font-size="13" lengthAdjust="spacing" textLength="218.7085" x="386.5" y="428.5747">Retry up to 20 times on torn read</text></g><!--link GptpIpcPublisher to GptpIpcRegion--><g id="link_GptpIpcPublisher_GptpIpcRegion"><path codeLine="35" d="M150.97,217.8094 C164.55,252.7494 179.3867,290.9268 193.3567,326.8768 " fill="transparent" id="GptpIpcPublisher-to-GptpIpcRegion" style="stroke:#000000;stroke-width:1;"/><polygon fill="#000000" points="195.53,332.4694,195.9985,322.6317,193.719,327.8089,188.5417,325.5293,195.53,332.4694" style="stroke:#000000;stroke-width:1;"/><text fill="#000000" font-family="Verdana" font-size="13" lengthAdjust="spacing" textLength="136.6523" x="175" y="262.6763">shm_open(O_CREAT)</text><text fill="#000000" font-family="Verdana" font-size="13" lengthAdjust="spacing" textLength="135.1099" x="175.7712" y="277.8091">mmap(PROT_WRITE)</text></g><!--link GptpIpcReceiver to GptpIpcRegion--><g id="link_GptpIpcReceiver_GptpIpcRegion"><path codeLine="36" d="M379.76,217.8094 C349.6,252.7494 315.7504,291.9773 284.7204,327.9273 " fill="transparent" id="GptpIpcReceiver-to-GptpIpcRegion" style="stroke:#000000;stroke-width:1;"/><polygon fill="#000000" points="280.8,332.4694,289.7087,328.2699,284.067,328.6843,283.6526,323.0427,280.8,332.4694" style="stroke:#000000;stroke-width:1;"/><text fill="#000000" font-family="Verdana" font-size="13" lengthAdjust="spacing" textLength="147.6782" x="347" y="262.6763">shm_open(O_RDONLY)</text><text fill="#000000" font-family="Verdana" font-size="13" lengthAdjust="spacing" textLength="129.3843" x="356.147" y="277.8091">mmap(PROT_READ)</text></g><!--SRC=[hLDTQnf157tVNt7hqwe8afeK5YiK3KLegwn220HadBth3fclp5obKlAQ7z2Vs5_IcOr9LslRbyxB3dFEdBdddhjlg4A5O2KJEab8a4IGOhrSZAL0JR2ecCC2FgCoRW_J-JX9BEFtR8FGMWg52ybs27DdE7hVWcy9XCKbynu-Mh9Jo-VRjHI-GdS0u-g1muqmUWNP2osl3peDIbb4M6XwFUl2L0jADLFO3j3Q6Dd03W-bGfScmZiZYWOyGK_ExDCZw35vR1WwCdlMp7ELC1moAJOQY_Hgq1wD6iwweDX6yF36DbJ-zc95y1xwNmVlBlkNWq6_mVFu45YUYYnZP9JWmvSRemQhOCG2RKusTdiQhFtgKEzrUpNehVU4SAWAIkFkD6UyYc5g12nBmKEUV7_6THIUiE1P_pN773cAtHzZv4Px-dzX7bwhqwfxP2m5IIQ7ZLOq6pMMnkEPS7-RmbvlT99c1YrVgPMngDFPQfnVVrYsxxHIpARpVBPStUJJvNMxbPmsubzA-MJsvTFjaLJGdWIbH9kGbXERYi2KnoAXz4vdWG_IyFiO21bkPDQ9pRnnWj1bSNIwNVZnz1qKAcxtzRO-3AGSMH59Bdph8KjnXxfzIW-p4VG3Nb-Xy7DlBP21YpvGQA-7O8UCqxLEWhg0M7Fo4m00]--></g></svg>