<svg xmlns="http://www.w3.org/2000/svg" xmlns:xlink="http://www.w3.org/1999/xlink" contentStyleType="text/css" data-diagram-type="SEQUENCE" height="1050px" preserveAspectRatio="none" style="width:1033px;height:1050px;background:#FFFFFF;" version="1.1" viewBox="0 0 1033 1050" width="1033px" zoomAndPan="magnify"><title>VT4 &#8212; VehicleTime: Synchronization Status Subscription</title><defs/><g><text fill="#000000" font-family="sans-serif" font-size="14" font-weight="bold" lengthAdjust="spacing" textLength="448.335" x="288.6511" y="27.9951">VT4 &#8212; VehicleTime: Synchronization Status Subscription</text><rect fill="#E6F0FF" height="873.5859" style="stroke:#181818;stroke-width:0.5;" width="101.2012" x="16" y="163.7813"/><text fill="#000000" font-family="sans-serif" font-size="13" font-weight="bold" lengthAdjust="spacing" textLength="82.9194" x="25.1409" y="175.8481">Application</text><rect fill="#F0FFF0" height="873.5859" style="stroke:#181818;stroke-width:0.5;" width="406.7188" x="302.1929" y="163.7813"/><text fill="#000000" font-family="sans-serif" font-size="13" font-weight="bold" lengthAdjust="spacing" textLength="83.0337" x="464.0354" y="175.8481">score::time</text><rect fill="#FFF8F0" height="873.5859" style="stroke:#181818;stroke-width:0.5;" width="151.7993" x="791.7935" y="163.7813"/><text fill="#000000" font-family="sans-serif" font-size="13" font-weight="bold" lengthAdjust="spacing" textLength="145.7993" x="794.7935" y="175.8481">score::TimeDaemon</text><g><title>Application</title><rect fill="#FFFFFF" height="30" style="stroke:#181818;stroke-width:1;" width="10" x="61.6006" y="575.9688"/></g><g><title>Application</title><rect fill="#FFFFFF" height="30" style="stroke:#181818;stroke-width:1;" width="10" x="61.6006" y="700.1719"/></g><g><title>VehicleClock</title><rect fill="#FFFFFF" height="145.6641" style="stroke:#181818;stroke-width:1;" width="10" x="352.7871" y="304.7734"/></g><g><title>VehicleClock</title><rect fill="#FFFFFF" height="145.6641" style="stroke:#181818;stroke-width:1;" width="10" x="352.7871" y="879.7031"/></g><g><title>VehicleClockBackend</title><rect fill="#FFFFFF" height="87.3984" style="stroke:#181818;stroke-width:1;" width="10" x="618.1367" y="333.9063"/></g><g><title>VehicleClockBackend</title><rect fill="#FFFFFF" height="292.7344" style="stroke:#181818;stroke-width:1;" width="10" x="618.1367" y="522.7031"/></g><g><title>VehicleClockBackend</title><rect fill="#FFFFFF" height="87.3984" style="stroke:#181818;stroke-width:1;" width="10" x="618.1367" y="908.8359"/></g><g><title>TimeDaemon</title><rect fill="#FFFFFF" height="29.1328" style="stroke:#181818;stroke-width:1;" width="10" x="862.6931" y="363.0391"/></g><g><title>TimeDaemon</title><rect fill="#FFFFFF" height="29.1328" style="stroke:#181818;stroke-width:1;" width="10" x="862.6931" y="937.9688"/></g><rect fill="transparent" height="235.6016" style="stroke:#000000;stroke-width:1.5;" width="704.9116" x="10" y="537.7031"/><g><title>Application</title><rect fill="transparent" height="812.8594" width="8" x="62.6006" y="230.5078"/><line style="stroke:#181818;stroke-width:0.5;stroke-dasharray:5.0,5.0;" x1="66" x2="66" y1="230.5078" y2="1043.3672"/></g><g><title>VehicleClock</title><rect fill="transparent" height="812.8594" width="8" x="353.7871" y="230.5078"/><line style="stroke:#181818;stroke-width:0.5;stroke-dasharray:5.0,5.0;" x1="357.1929" x2="357.1929" y1="230.5078" y2="1043.3672"/></g><g><title>VehicleClockBackend</title><rect fill="transparent" height="812.8594" width="8" x="619.1367" y="230.5078"/><line style="stroke:#181818;stroke-width:0.5;stroke-dasharray:5.0,5.0;" x1="622.3618" x2="622.3618" y1="230.5078" y2="1043.3672"/></g><g><title>TimeDaemon</title><rect fill="transparent" height="812.8594" width="8" x="863.6931" y="230.5078"/><line style="stroke:#181818;stroke-width:0.5;stroke-dasharray:5.0,5.0;" x1="866.8225" x2="866.8225" y1="230.5078" y2="1043.3672"/></g><rect fill="#FFA07A" height="46.5938" rx="2.5" ry="2.5" style="stroke:#181818;stroke-width:0.5;" width="93.2012" x="20" y="182.9141"/><text fill="#000000" font-family="sans-serif" font-size="14" lengthAdjust="spacing" textLength="78.2236" x="27.4888" y="202.9092">Application</text><text fill="#000000" font-family="sans-serif" font-size="14" lengthAdjust="spacing" textLength="79.2012" x="27" y="219.2061">component</text><rect fill="#90EE90" height="30.2969" rx="2.5" ry="2.5" style="stroke:#181818;stroke-width:0.5;" width="103.1885" x="306.1929" y="199.2109"/><text fill="#000000" font-family="sans-serif" font-size="14" lengthAdjust="spacing" textLength="89.1885" x="313.1929" y="219.2061">VehicleClock</text><rect fill="#F08080" height="30.2969" rx="2.5" ry="2.5" style="stroke:#181818;stroke-width:0.5;" width="163.5498" x="541.3618" y="199.2109"/><text fill="#000000" font-family="sans-serif" font-size="14" lengthAdjust="spacing" textLength="149.5498" x="548.3618" y="219.2061">VehicleClockBackend</text><rect fill="#FFDEAD" height="30.2969" rx="2.5" ry="2.5" style="stroke:#181818;stroke-width:0.5;" width="107.7412" x="813.8225" y="199.2109"/><text fill="#000000" font-family="sans-serif" font-size="14" lengthAdjust="spacing" textLength="93.7412" x="820.8225" y="219.2061">TimeDaemon</text><g><title>Application</title><rect fill="#FFFFFF" height="30" style="stroke:#181818;stroke-width:1;" width="10" x="61.6006" y="575.9688"/></g><g><title>Application</title><rect fill="#FFFFFF" height="30" style="stroke:#181818;stroke-width:1;" width="10" x="61.6006" y="700.1719"/></g><g><title>VehicleClock</title><rect fill="#FFFFFF" height="145.6641" style="stroke:#181818;stroke-width:1;" width="10" x="352.7871" y="304.7734"/></g><g><title>VehicleClock</title><rect fill="#FFFFFF" height="145.6641" style="stroke:#181818;stroke-width:1;" width="10" x="352.7871" y="879.7031"/></g><g><title>VehicleClockBackend</title><rect fill="#FFFFFF" height="87.3984" style="stroke:#181818;stroke-width:1;" width="10" x="618.1367" y="333.9063"/></g><g><title>VehicleClockBackend</title><rect fill="#FFFFFF" height="292.7344" style="stroke:#181818;stroke-width:1;" width="10" x="618.1367" y="522.7031"/></g><g><title>VehicleClockBackend</title><rect fill="#FFFFFF" height="87.3984" style="stroke:#181818;stroke-width:1;" width="10" x="618.1367" y="908.8359"/></g><g><title>TimeDaemon</title><rect fill="#FFFFFF" height="29.1328" style="stroke:#181818;stroke-width:1;" width="10" x="862.6931" y="363.0391"/></g><g><title>TimeDaemon</title><rect fill="#FFFFFF" height="29.1328" style="stroke:#181818;stroke-width:1;" width="10" x="862.6931" y="937.9688"/></g><rect fill="#EEEEEE" height="3" style="stroke:#EEEEEE;stroke-width:1;" width="1026.6372" x="0" y="261.0742"/><line style="stroke:#000000;stroke-width:1;" x1="0" x2="1026.6372" y1="261.0742" y2="261.0742"/><line style="stroke:#000000;stroke-width:1;" x1="0" x2="1026.6372" y1="264.0742" y2="264.0742"/><rect fill="#EEEEEE" height="23.1328" style="stroke:#000000;stroke-width:2;" width="232.2959" x="397.1707" y="250.5078"/><text fill="#000000" font-family="sans-serif" font-size="13" font-weight="bold" lengthAdjust="spacing" textLength="213.77" x="403.1707" y="266.5747">Register callback once at init</text><polygon fill="#181818" points="340.7871,300.7734,350.7871,304.7734,340.7871,308.7734,344.7871,304.7734" style="stroke:#181818;stroke-width:1;"/><line style="stroke:#181818;stroke-width:1;" x1="66.6006" x2="346.7871" y1="304.7734" y2="304.7734"/><text fill="#000080" font-family="sans-serif" font-size="13" font-weight="bold" lengthAdjust="spacing" textLength="29.9736" x="73.6006" y="299.7075">[01]</text><text fill="#000000" font-family="sans-serif" font-size="13" lengthAdjust="spacing" textLength="232.3369" x="107.5742" y="299.7075">Subscribe&lt;VehicleTimeStatus&gt;(cb)</text><polygon fill="#181818" points="606.1367,329.9063,616.1367,333.9063,606.1367,337.9063,610.1367,333.9063" style="stroke:#181818;stroke-width:1;"/><line style="stroke:#181818;stroke-width:1;" x1="362.7871" x2="612.1367" y1="333.9063" y2="333.9063"/><text fill="#000080" font-family="sans-serif" font-size="13" font-weight="bold" lengthAdjust="spacing" textLength="29.9736" x="369.7871" y="328.8403">[02]</text><text fill="#000000" font-family="sans-serif" font-size="13" lengthAdjust="spacing" textLength="201.5" x="403.7607" y="328.8403">SetStatusChangedCallback(cb)</text><polygon fill="#181818" points="850.6931,359.0391,860.6931,363.0391,850.6931,367.0391,854.6931,363.0391" style="stroke:#181818;stroke-width:1;"/><line style="stroke:#181818;stroke-width:1;" x1="628.1367" x2="856.6931" y1="363.0391" y2="363.0391"/><text fill="#000080" font-family="sans-serif" font-size="13" font-weight="bold" lengthAdjust="spacing" textLength="29.9736" x="635.1367" y="357.9731">[03]</text><text fill="#000000" font-family="sans-serif" font-size="13" lengthAdjust="spacing" textLength="147.3037" x="669.1104" y="357.9731">register status listener</text><polygon fill="#181818" points="639.1367,388.1719,629.1367,392.1719,639.1367,396.1719,635.1367,392.1719" style="stroke:#181818;stroke-width:1;"/><line style="stroke:#181818;stroke-width:1;stroke-dasharray:2.0,2.0;" x1="633.1367" x2="866.6931" y1="392.1719" y2="392.1719"/><text fill="#000080" font-family="sans-serif" font-size="13" font-weight="bold" lengthAdjust="spacing" textLength="29.9736" x="645.1367" y="387.106">[04]</text><text fill="#000000" font-family="sans-serif" font-size="13" lengthAdjust="spacing" textLength="4.1323" x="679.1104" y="387.106">&#160;</text><polygon fill="#181818" points="373.7871,417.3047,363.7871,421.3047,373.7871,425.3047,369.7871,421.3047" style="stroke:#181818;stroke-width:1;"/><line style="stroke:#181818;stroke-width:1;stroke-dasharray:2.0,2.0;" x1="367.7871" x2="622.1367" y1="421.3047" y2="421.3047"/><text fill="#000080" font-family="sans-serif" font-size="13" font-weight="bold" lengthAdjust="spacing" textLength="29.9736" x="379.7871" y="416.2388">[05]</text><text fill="#000000" font-family="sans-serif" font-size="13" lengthAdjust="spacing" textLength="4.1323" x="413.7607" y="416.2388">&#160;</text><polygon fill="#181818" points="77.6006,446.4375,67.6006,450.4375,77.6006,454.4375,73.6006,450.4375" style="stroke:#181818;stroke-width:1;"/><line style="stroke:#181818;stroke-width:1;stroke-dasharray:2.0,2.0;" x1="71.6006" x2="356.7871" y1="450.4375" y2="450.4375"/><text fill="#000080" font-family="sans-serif" font-size="13" font-weight="bold" lengthAdjust="spacing" textLength="29.9736" x="83.6006" y="445.3716">[06]</text><text fill="#000000" font-family="sans-serif" font-size="13" lengthAdjust="spacing" textLength="4.1323" x="117.5742" y="445.3716">&#160;</text><rect fill="#EEEEEE" height="3" style="stroke:#EEEEEE;stroke-width:1;" width="1026.6372" x="0" y="479.0039"/><line style="stroke:#000000;stroke-width:1;" x1="0" x2="1026.6372" y1="479.0039" y2="479.0039"/><line style="stroke:#000000;stroke-width:1;" x1="0" x2="1026.6372" y1="482.0039" y2="482.0039"/><rect fill="#EEEEEE" height="23.1328" style="stroke:#000000;stroke-width:2;" width="422.7002" x="301.9685" y="468.4375"/><text fill="#000000" font-family="sans-serif" font-size="13" font-weight="bold" lengthAdjust="spacing" textLength="404.1743" x="307.9685" y="484.5044">PTP status update received (called on backend thread)</text><polygon fill="#181818" points="639.1367,518.7031,629.1367,522.7031,639.1367,526.7031,635.1367,522.7031" style="stroke:#181818;stroke-width:1;"/><line style="stroke:#181818;stroke-width:1;" x1="633.1367" x2="866.6931" y1="522.7031" y2="522.7031"/><text fill="#000080" font-family="sans-serif" font-size="13" font-weight="bold" lengthAdjust="spacing" textLength="29.9736" x="645.1367" y="517.6372">[07]</text><text fill="#000000" font-family="sans-serif" font-size="13" lengthAdjust="spacing" textLength="154.9146" x="679.1104" y="517.6372">current status snapshot</text><path d="M10,537.7031 L74.4429,537.7031 L74.4429,544.8359 L64.4429,554.8359 L10,554.8359 L10,537.7031 " fill="#EEEEEE" style="stroke:#000000;stroke-width:1.5;"/><rect fill="transparent" height="235.6016" style="stroke:#000000;stroke-width:1.5;" width="704.9116" x="10" y="537.7031"/><text fill="#000000" font-family="sans-serif" font-size="13" font-weight="bold" lengthAdjust="spacing" textLength="19.4429" x="25" y="550.77">alt</text><text fill="#000000" font-family="sans-serif" font-size="11" font-weight="bold" lengthAdjust="spacing" textLength="195.0029" x="89.4429" y="549.9136">[first update after registration]</text><polygon fill="#181818" points="82.6006,571.9688,72.6006,575.9688,82.6006,579.9688,78.6006,575.9688" style="stroke:#181818;stroke-width:1;"/><line style="stroke:#181818;stroke-width:1;" x1="76.6006" x2="617.1367" y1="575.9688" y2="575.9688"/><text fill="#000080" font-family="sans-serif" font-size="13" font-weight="bold" lengthAdjust="spacing" textLength="29.9736" x="88.6006" y="570.9028">[08]</text><text fill="#000000" font-family="sans-serif" font-size="13" lengthAdjust="spacing" textLength="146.6816" x="122.5742" y="570.9028">cb(VehicleTimeStatus)</text><path d="M71,618.9688 L71,658.9688 L330,658.9688 L330,628.9688 L320,618.9688 L71,618.9688 " fill="#FEFFDD" style="stroke:#181818;stroke-width:0.5;"/><path d="M320,618.9688 L320,628.9688 L330,628.9688 L320,618.9688 " fill="#FEFFDD" style="stroke:#181818;stroke-width:0.5;"/><text fill="#000000" font-family="sans-serif" font-size="13" lengthAdjust="spacing" textLength="238.9956" x="77" y="636.0356">Unconditional &#8212; delivers the current</text><text fill="#000000" font-family="sans-serif" font-size="13" lengthAdjust="spacing" textLength="211.123" x="77" y="651.1685">flag state to the new subscriber.</text><line style="stroke:#000000;stroke-width:1;stroke-dasharray:2.0,2.0;" x1="10" x2="714.9116" y1="665.2344" y2="665.2344"/><text fill="#000000" font-family="sans-serif" font-size="11" font-weight="bold" lengthAdjust="spacing" textLength="234.5503" x="15" y="675.4448">[flag bits changed since last delivery]</text><polygon fill="#181818" points="82.6006,696.1719,72.6006,700.1719,82.6006,704.1719,78.6006,700.1719" style="stroke:#181818;stroke-width:1;"/><line style="stroke:#181818;stroke-width:1;" x1="76.6006" x2="617.1367" y1="700.1719" y2="700.1719"/><text fill="#000080" font-family="sans-serif" font-size="13" font-weight="bold" lengthAdjust="spacing" textLength="29.9736" x="88.6006" y="695.106">[09]</text><text fill="#000000" font-family="sans-serif" font-size="13" lengthAdjust="spacing" textLength="146.6816" x="122.5742" y="695.106">cb(VehicleTimeStatus)</text><path d="M71,743.1719 L71,768.1719 L412,768.1719 L412,753.1719 L402,743.1719 L71,743.1719 " fill="#FEFFDD" style="stroke:#181818;stroke-width:0.5;"/><path d="M402,743.1719 L402,753.1719 L412,753.1719 L402,743.1719 " fill="#FEFFDD" style="stroke:#181818;stroke-width:0.5;"/><text fill="#000000" font-family="sans-serif" font-size="13" lengthAdjust="spacing" textLength="320.6074" x="77" y="760.2388">Only when flags differ;\nrate_deviation excluded.</text><path d="M633,785.3047 L633,810.3047 L1021,810.3047 L1021,795.3047 L1011,785.3047 L633,785.3047 " fill="#FEFFDD" style="stroke:#181818;stroke-width:0.5;"/><path d="M1011,785.3047 L1011,795.3047 L1021,795.3047 L1011,785.3047 " fill="#FEFFDD" style="stroke:#181818;stroke-width:0.5;"/><text fill="#000000" font-family="sans-serif" font-size="13" lengthAdjust="spacing" textLength="367.6372" x="639" y="802.3716">Callback on backend thread &#8212;\ncb must be thread-safe.</text><rect fill="#EEEEEE" height="3" style="stroke:#EEEEEE;stroke-width:1;" width="1026.6372" x="0" y="836.0039"/><line style="stroke:#000000;stroke-width:1;" x1="0" x2="1026.6372" y1="836.0039" y2="836.0039"/><line style="stroke:#000000;stroke-width:1;" x1="0" x2="1026.6372" y1="839.0039" y2="839.0039"/><rect fill="#EEEEEE" height="23.1328" style="stroke:#000000;stroke-width:2;" width="286.1875" x="370.2249" y="825.4375"/><text fill="#000000" font-family="sans-serif" font-size="13" font-weight="bold" lengthAdjust="spacing" textLength="267.6616" x="376.2249" y="841.5044">Unsubscribe when no longer needed</text><polygon fill="#181818" points="340.7871,875.7031,350.7871,879.7031,340.7871,883.7031,344.7871,879.7031" style="stroke:#181818;stroke-width:1;"/><line style="stroke:#181818;stroke-width:1;" x1="66.6006" x2="346.7871" y1="879.7031" y2="879.7031"/><text fill="#000080" font-family="sans-serif" font-size="13" font-weight="bold" lengthAdjust="spacing" textLength="29.9736" x="73.6006" y="874.6372">[10]</text><text fill="#000000" font-family="sans-serif" font-size="13" lengthAdjust="spacing" textLength="233.2129" x="107.5742" y="874.6372">Unsubscribe&lt;VehicleTimeStatus&gt;()</text><polygon fill="#181818" points="606.1367,904.8359,616.1367,908.8359,606.1367,912.8359,610.1367,908.8359" style="stroke:#181818;stroke-width:1;"/><line style="stroke:#181818;stroke-width:1;" x1="362.7871" x2="612.1367" y1="908.8359" y2="908.8359"/><text fill="#000080" font-family="sans-serif" font-size="13" font-weight="bold" lengthAdjust="spacing" textLength="29.9736" x="369.7871" y="903.77">[11]</text><text fill="#000000" font-family="sans-serif" font-size="13" lengthAdjust="spacing" textLength="202.376" x="403.7607" y="903.77">UnsetStatusChangedCallback()</text><polygon fill="#181818" points="850.6931,933.9688,860.6931,937.9688,850.6931,941.9688,854.6931,937.9688" style="stroke:#181818;stroke-width:1;"/><line style="stroke:#181818;stroke-width:1;" x1="628.1367" x2="856.6931" y1="937.9688" y2="937.9688"/><text fill="#000080" font-family="sans-serif" font-size="13" font-weight="bold" lengthAdjust="spacing" textLength="29.9736" x="635.1367" y="932.9028">[12]</text><text fill="#000000" font-family="sans-serif" font-size="13" lengthAdjust="spacing" textLength="163.5537" x="669.1104" y="932.9028">deregister status listener</text><polygon fill="#181818" points="639.1367,963.1016,629.1367,967.1016,639.1367,971.1016,635.1367,967.1016" style="stroke:#181818;stroke-width:1;"/><line style="stroke:#181818;stroke-width:1;stroke-dasharray:2.0,2.0;" x1="633.1367" x2="866.6931" y1="967.1016" y2="967.1016"/><text fill="#000080" font-family="sans-serif" font-size="13" font-weight="bold" lengthAdjust="spacing" textLength="29.9736" x="645.1367" y="962.0356">[13]</text><text fill="#000000" font-family="sans-serif" font-size="13" lengthAdjust="spacing" textLength="4.1323" x="679.1104" y="962.0356">&#160;</text><polygon fill="#181818" points="373.7871,992.2344,363.7871,996.2344,373.7871,1000.2344,369.7871,996.2344" style="stroke:#181818;stroke-width:1;"/><line style="stroke:#181818;stroke-width:1;stroke-dasharray:2.0,2.0;" x1="367.7871" x2="622.1367" y1="996.2344" y2="996.2344"/><text fill="#000080" font-family="sans-serif" font-size="13" font-weight="bold" lengthAdjust="spacing" textLength="29.9736" x="379.7871" y="991.1685">[14]</text><text fill="#000000" font-family="sans-serif" font-size="13" lengthAdjust="spacing" textLength="4.1323" x="413.7607" y="991.1685">&#160;</text><polygon fill="#181818" points="77.6006,1021.3672,67.6006,1025.3672,77.6006,1029.3672,73.6006,1025.3672" style="stroke:#181818;stroke-width:1;"/><line style="stroke:#181818;stroke-width:1;stroke-dasharray:2.0,2.0;" x1="71.6006" x2="356.7871" y1="1025.3672" y2="1025.3672"/><text fill="#000080" font-family="sans-serif" font-size="13" font-weight="bold" lengthAdjust="spacing" textLength="29.9736" x="83.6006" y="1020.3013">[15]</text><text fill="#000000" font-family="sans-serif" font-size="13" lengthAdjust="spacing" textLength="4.1323" x="117.5742" y="1020.3013">&#160;</text><rect fill="transparent" height="95.4844" id="_legend" rx="7.5" ry="7.5" style="stroke:#000000;stroke-width:1;" width="314.8008" x="12" y="54.2969"/><text fill="#000000" font-family="sans-serif" font-size="14" font-weight="bold" lengthAdjust="spacing" textLength="41.2139" x="21.874" y="74.292">Color</text><text fill="#000000" font-family="sans-serif" font-size="14" font-weight="bold" lengthAdjust="spacing" textLength="90.5488" x="141.0723" y="74.292">Description</text><rect fill="#FFA07A" height="16.2969" style="stroke:transparent;stroke-width:1;" width="119.1982" x="17" y="77.5938"/><text fill="#000000" font-family="sans-serif" font-size="14" lengthAdjust="spacing" textLength="35.6016" x="17" y="90.5889">&#160;&#160;&#160;&#160;&#160;&#160;&#160;&#160;</text><text fill="#000000" font-family="sans-serif" font-size="14" lengthAdjust="spacing" textLength="116.4365" x="140.6484" y="90.5889">Application code</text><rect fill="#90EE90" height="16.2969" style="stroke:transparent;stroke-width:1;" width="119.1982" x="17" y="93.8906"/><text fill="#000000" font-family="sans-serif" font-size="14" lengthAdjust="spacing" textLength="40.0518" x="17" y="106.8857">&#160;&#160;&#160;&#160;&#160;&#160;&#160;&#160;&#160;</text><text fill="#000000" font-family="sans-serif" font-size="14" lengthAdjust="spacing" textLength="158.833" x="140.6484" y="106.8857">score::time framework</text><rect fill="#F08080" height="16.2969" style="stroke:transparent;stroke-width:1;" width="119.1982" x="17" y="110.1875"/><text fill="#000000" font-family="sans-serif" font-size="14" lengthAdjust="spacing" textLength="40.0518" x="17" y="123.1826">&#160;&#160;&#160;&#160;&#160;&#160;&#160;&#160;&#160;</text><text fill="#000000" font-family="sans-serif" font-size="14" lengthAdjust="spacing" textLength="149.9395" x="140.6484" y="123.1826">VehicleTime backend</text><rect fill="#FFDEAD" height="16.2969" style="stroke:transparent;stroke-width:1;" width="119.1982" x="17" y="126.4844"/><text fill="#000000" font-family="sans-serif" font-size="14" lengthAdjust="spacing" textLength="35.6016" x="17" y="139.4795">&#160;&#160;&#160;&#160;&#160;&#160;&#160;&#160;</text><text fill="#000000" font-family="sans-serif" font-size="14" lengthAdjust="spacing" textLength="141.1006" x="140.6484" y="139.4795">score::TimeDaemon</text><line style="stroke:#000000;stroke-width:1;" x1="17" x2="321.8008" y1="61.2969" y2="61.2969"/><line style="stroke:#000000;stroke-width:1;" x1="17" x2="321.8008" y1="77.5938" y2="77.5938"/><line style="stroke:#000000;stroke-width:1;" x1="17" x2="321.8008" y1="93.8906" y2="93.8906"/><line style="stroke:#000000;stroke-width:1;" x1="17" x2="321.8008" y1="110.1875" y2="110.1875"/><line style="stroke:#000000;stroke-width:1;" x1="17" x2="321.8008" y1="126.4844" y2="126.4844"/><line style="stroke:#000000;stroke-width:1;" x1="17" x2="321.8008" y1="142.7813" y2="142.7813"/><line style="stroke:#000000;stroke-width:1;" x1="17" x2="17" y1="61.2969" y2="142.7813"/><line style="stroke:#000000;stroke-width:1;" x1="136.1982" x2="136.1982" y1="61.2969" y2="142.7813"/><line style="stroke:#000000;stroke-width:1;" x1="321.8008" x2="321.8008" y1="61.2969" y2="142.7813"/><!--SRC=[pLHDRnCn4BtxLupIItjebGD2g3IH89Mu8AZe1mUAaDSUPqqTU-NrfYtgWH_1B-INCBFE9cwRebwGs4kozhmtyzxCRBB98LoSlO3VFt_11TPMEJop2po4qrklwXYy_I6J3HvEaqnT2wTTrQfe6puJehsolf5HBg2IwceUG-VrBBWGuRgs2KLjDO898LNXHiWk1TyjAemmEZB19r0SEl5oUJizggPVnkEl8o4Spj5hIA41XoO9eETk0fds_aF7nxWkvy5T1XxjlBVpEfrAjmX-khw4DqtZhChILA0gdm2-YuWR705R5I8U7YOo2Gmfn-iGhxO0Po5ALm8BTtktMEI3Z1_aKduFdzcwwQEC33oMk2Y4tWaYoNu9GHR3g90rWXryQSR6zEpKfMILRIJPNaPTUXKMJV3eqmXa2x9feBICCm1tB_CNwecVsStuCVzAwim5TTMpAlu7XQD_nxpDzlJGmQh2rUqrRVpXoenvjQsoCeZ84_4Mfc-89nFuX7FR9XfM9PtZAY1uXI0JM6yJJ2P2i5dxqvMwms4tAZmgUfttPhghgZqXLR9BcJ0ZHCOHmQ2HA31bmAoMVevwjifz7xwA5mEEA1AZur1ocvVLyPl7k44cBIXoVvDJQ2mlruo3hF9-WApgfX0oe0p823RlvEnaAA9hDDz5L6YNg66N_QHVckCXMweZIhtNUvhqVKTK5oCDvy3MUjcqTKYFpH3I9J0sjcb8AGrxaKs9_RJt0r6unWsa5DNkeuRjzQ7h92oK3tnWAJo94Cpwb9zpMYIlBMUHhl-SQdGaEDAKrJZ8M8SR9-Uz9h8zz14Uhw4T9YWUz95S9gViNmgZEJ6w5ZDDPHEjM1uOQ2rFgPDamwg0st-e-gDtj_IjHzzNqeAsnc1yVUd9R_ocSMdp9nPlbEiqwcV8ubRUJpXqcADdcsLyC3xiENtDAbXqfBt2rV5-AmqUY7NARGFD4tlkr-PdGJw02sHffCuWbRvjumlGjfr_piOJnLCx_uoDr_X_xFmV]--></g></svg>