<svg xmlns="http://www.w3.org/2000/svg" xmlns:xlink="http://www.w3.org/1999/xlink" contentStyleType="text/css" data-diagram-type="DESCRIPTION" height="815px" preserveAspectRatio="none" style="width:1036px;height:815px;background:#FFFFFF;" version="1.1" viewBox="0 0 1036 815" width="1036px" zoomAndPan="magnify"><title>tsyncd &#8212; Thread Architecture</title><defs/><g><text fill="#000000" font-family="Verdana" font-size="22" font-weight="bold" lengthAdjust="spacing" textLength="368.9619" x="236.269" y="35.4209">tsyncd &#8212; Thread Architecture</text><!--cluster tsyncd Process--><g id="cluster_tsyncd Process"><path d="M73.3364,185.6094 L167.4873,185.6094 A3.75,3.75 0 0 1 169.9873,188.1094 L176.9873,204.4141 L674.3364,204.4141 A2.5,2.5 0 0 1 676.8364,206.9141 L676.8364,700.1094 A2.5,2.5 0 0 1 674.3364,702.6094 L73.3364,702.6094 A2.5,2.5 0 0 1 70.8364,700.1094 L70.8364,188.1094 A2.5,2.5 0 0 1 73.3364,185.6094 " fill="#EBF5FB" style="stroke:#2E86C1;stroke-width:1;"/><line style="stroke:#2E86C1;stroke-width:1;" x1="70.8364" x2="176.9873" y1="204.4141" y2="204.4141"/><text fill="#1A5276" font-family="Verdana" font-size="11" font-weight="bold" lengthAdjust="spacing" textLength="93.1509" x="74.8364" y="197.8198">tsyncd Process</text></g><!--cluster Thread 1 ? RxLoop--><g id="cluster_Thread 1 &#8212; RxLoop"><path d="M81.3364,208.6094 L201.5586,208.6094 A3.75,3.75 0 0 1 204.0586,211.1094 L211.0586,227.4141 L238.3364,227.4141 A2.5,2.5 0 0 1 240.8364,229.9141 L240.8364,605.1094 A2.5,2.5 0 0 1 238.3364,607.6094 L81.3364,607.6094 A2.5,2.5 0 0 1 78.8364,605.1094 L78.8364,211.1094 A2.5,2.5 0 0 1 81.3364,208.6094 " fill="#EBF5FB" style="stroke:#2E86C1;stroke-width:1;"/><line style="stroke:#2E86C1;stroke-width:1;" x1="78.8364" x2="211.0586" y1="227.4141" y2="227.4141"/><text fill="#1A5276" font-family="Verdana" font-size="11" font-weight="bold" lengthAdjust="spacing" textLength="119.2222" x="82.8364" y="220.8198">Thread 1 &#8212; RxLoop</text></g><!--cluster Thread 2 ? PdelayLoop--><g id="cluster_Thread 2 &#8212; PdelayLoop"><path d="M251.3364,427.6094 L397.7534,427.6094 A3.75,3.75 0 0 1 400.2534,430.1094 L407.2534,446.4141 L446.3364,446.4141 A2.5,2.5 0 0 1 448.8364,448.9141 L448.8364,692.1094 A2.5,2.5 0 0 1 446.3364,694.6094 L251.3364,694.6094 A2.5,2.5 0 0 1 248.8364,692.1094 L248.8364,430.1094 A2.5,2.5 0 0 1 251.3364,427.6094 " fill="#EBF5FB" style="stroke:#2E86C1;stroke-width:1;"/><line style="stroke:#2E86C1;stroke-width:1;" x1="248.8364" x2="407.2534" y1="446.4141" y2="446.4141"/><text fill="#1A5276" font-family="Verdana" font-size="11" font-weight="bold" lengthAdjust="spacing" textLength="145.417" x="252.8364" y="439.8198">Thread 2 &#8212; PdelayLoop</text></g><!--cluster Thread 3 ? AbsLoop--><g id="cluster_Thread 3 &#8212; AbsLoop"><path d="M459.3364,427.6094 L586.9278,427.6094 A3.75,3.75 0 0 1 589.4278,430.1094 L596.4278,446.4141 L666.3364,446.4141 A2.5,2.5 0 0 1 668.8364,448.9141 L668.8364,605.1094 A2.5,2.5 0 0 1 666.3364,607.6094 L459.3364,607.6094 A2.5,2.5 0 0 1 456.8364,605.1094 L456.8364,430.1094 A2.5,2.5 0 0 1 459.3364,427.6094 " fill="#EBF5FB" style="stroke:#2E86C1;stroke-width:1;"/><line style="stroke:#2E86C1;stroke-width:1;" x1="456.8364" x2="596.4278" y1="446.4141" y2="446.4141"/><text fill="#1A5276" font-family="Verdana" font-size="11" font-weight="bold" lengthAdjust="spacing" textLength="126.5913" x="460.8364" y="439.8198">Thread 3 &#8212; AbsLoop</text></g><!--cluster gPTP Network--><g id="cluster_gPTP Network"><path d="M111.4735,73.7824 C114.1128,67.4126 118.4346,68.1092 122.6335,72.103 C127.1565,65.1798 131.891,64.2479 136.6605,71.8651 C139.4675,64.9414 144.495,63.5573 149.5471,69.6408 C154.1841,63.003 159.4897,64.1544 162.8775,70.8863 C166.3822,65.8543 170.3484,65.6822 174.272,70.3965 C178.8721,64.6806 184.6487,64.9977 187.3862,72.2763 C191.5769,66.8719 195.7087,67.2287 199.3574,72.864 C203.4947,66.9081 209.3615,67.4426 213.1126,73.3131 C220.3438,77.0377 221.8464,83.3761 214.2948,88.2691 C221.4685,91.438 222.1605,98.6812 216.4484,103.6539 C223.168,108.6957 222.1768,113.5985 215.1865,117.3799 C223.4771,122.9876 221.1535,131.3085 212.8946,134.73 C209.3199,140.5626 203.8525,140.4975 200.21,134.8047 C197.7381,141.2764 192.1826,142.4583 187.3812,137.3955 C183.6147,144.0744 178.8895,143.7498 174.3581,138.2109 C172.5606,144.907 166.9952,145.2736 163.0311,140.3169 C157.8521,147.1299 151.6665,145.0617 148.5577,138.136 C143.5256,144.4566 139.6367,142.985 135.8364,136.8753 C132.1818,141.7529 126.1482,142.1489 123.3981,135.867 C118.9357,140.2551 114.1996,139.9659 111.7131,133.6999 C103.093,129.427 103.7308,124.4852 110.3152,118.7871 C103.9228,114.0962 103.6789,109.3199 109.6778,104.0916 C103.7205,99.8038 102.9284,92.1655 110.9433,89.0534 C104.7593,84.7668 103.1686,77.566 111.4735,73.7824 " fill="#EBF5FB" style="stroke:#2E86C1;stroke-width:1;"/><text fill="#000000" font-family="Verdana" font-size="11" font-weight="bold" lengthAdjust="spacing" textLength="87.7153" x="116.9788" y="86.8198">gPTP Network</text></g><!--entity SHM--><g id="elem_SHM"><path d="M404.8364,753.6094 C404.8364,743.6094 476.7114,743.6094 476.7114,743.6094 C476.7114,743.6094 548.5864,743.6094 548.5864,753.6094 L548.5864,788.2188 C548.5864,798.2188 476.7114,798.2188 476.7114,798.2188 C476.7114,798.2188 404.8364,798.2188 404.8364,788.2188 L404.8364,753.6094 " fill="#E8F8F5" style="stroke:#1E8449;stroke-width:1;"/><path d="M404.8364,753.6094 C404.8364,763.6094 476.7114,763.6094 476.7114,763.6094 C476.7114,763.6094 548.5864,763.6094 548.5864,753.6094 " fill="transparent" style="stroke:#1E8449;stroke-width:1;"/><text fill="#1E8449" font-family="Verdana" font-size="11" lengthAdjust="spacing" textLength="123.75" x="414.8364" y="777.8198">POSIX Shared Memory</text><text fill="#1E8449" font-family="Verdana" font-size="11" lengthAdjust="spacing" textLength="76.667" x="414.8364" y="790.6245">(SharedState)</text></g><!--entity NTP--><g id="elem_NTP"><rect fill="#FEF9E7" height="32.8047" rx="2.5" ry="2.5" style="stroke:#D4AC0D;stroke-width:1;" width="86.8809" x="685.3364" y="341.1094"/><text fill="#2C3E50" font-family="Verdana" font-size="11" lengthAdjust="spacing" textLength="66.8809" x="695.3364" y="361.3198">NTP Servers</text></g><!--entity GNSS--><g id="elem_GNSS"><rect fill="#FEF9E7" height="45.6094" rx="2.5" ry="2.5" style="stroke:#D4AC0D;stroke-width:1;" width="107.248" x="790.3364" y="334.6094"/><text fill="#2C3E50" font-family="Verdana" font-size="11" lengthAdjust="spacing" textLength="87.248" x="800.3364" y="354.8198">GNSS / External</text><text fill="#2C3E50" font-family="Verdana" font-size="11" lengthAdjust="spacing" textLength="72.6279" x="800.3364" y="367.6245">(Unix socket)</text></g><!--entity Main--><g id="elem_Main"><rect fill="#FEF9E7" height="58.4141" rx="2.5" ry="2.5" style="stroke:#D4AC0D;stroke-width:1;" width="146.0703" x="255.8364" y="328.6094"/><text fill="#2C3E50" font-family="Verdana" font-size="11" lengthAdjust="spacing" textLength="36.0669" x="265.8364" y="348.8198">main()</text><text fill="#2C3E50" font-family="Verdana" font-size="11" lengthAdjust="spacing" textLength="126.0703" x="265.8364" y="361.6245">load config, init engine</text><text fill="#2C3E50" font-family="Verdana" font-size="11" lengthAdjust="spacing" textLength="116.8052" x="265.8364" y="374.4292">wait SIGTERM/SIGINT</text></g><!--entity Recv--><g id="elem_Recv"><rect fill="#FEF9E7" height="45.6094" rx="2.5" ry="2.5" style="stroke:#D4AC0D;stroke-width:1;" width="114.6924" x="103.3364" y="231.6094"/><text fill="#2C3E50" font-family="Verdana" font-size="11" lengthAdjust="spacing" textLength="83.7192" x="113.3364" y="251.8198">recv raw frame</text><text fill="#2C3E50" font-family="Verdana" font-size="11" lengthAdjust="spacing" textLength="94.6924" x="113.3364" y="264.6245">+ HW timestamp</text></g><!--entity Parse--><g id="elem_Parse"><rect fill="#FEF9E7" height="45.6094" rx="2.5" ry="2.5" style="stroke:#D4AC0D;stroke-width:1;" width="101.9307" x="109.8364" y="334.6094"/><text fill="#2C3E50" font-family="Verdana" font-size="11" lengthAdjust="spacing" textLength="81.8179" x="119.8364" y="354.8198">parse Ethernet</text><text fill="#2C3E50" font-family="Verdana" font-size="11" lengthAdjust="spacing" textLength="81.9307" x="119.8364" y="367.6245">+ gPTP header</text></g><!--entity StateMachine--><g id="elem_StateMachine"><rect fill="#FEF9E7" height="58.4141" rx="2.5" ry="2.5" style="stroke:#D4AC0D;stroke-width:1;" width="142.2944" x="89.8364" y="444.6094"/><text fill="#2C3E50" font-family="Verdana" font-size="11" lengthAdjust="spacing" textLength="51.2295" x="99.8364" y="464.8198">Sync/FUP</text><text fill="#2C3E50" font-family="Verdana" font-size="11" lengthAdjust="spacing" textLength="78.6328" x="99.8364" y="477.6245">state machine</text><text fill="#2C3E50" font-family="Verdana" font-size="11" lengthAdjust="spacing" textLength="122.2944" x="99.8364" y="490.4292">(kEmpty / kHaveSync)</text></g><!--entity Sync--><g id="elem_Sync"><rect fill="#FEF9E7" height="45.6094" rx="2.5" ry="2.5" style="stroke:#D4AC0D;stroke-width:1;" width="144.8618" x="87.3364" y="553.6094"/><text fill="#2C3E50" font-family="Verdana" font-size="11" lengthAdjust="spacing" textLength="98.0869" x="97.3364" y="573.8198">PortSynchronize()</text><text fill="#2C3E50" font-family="Verdana" font-size="11" lengthAdjust="spacing" textLength="124.8618" x="97.3364" y="586.6245">step PHC, publish SHM</text></g><!--entity PdSend--><g id="elem_PdSend"><rect fill="#FEF9E7" height="45.6094" rx="2.5" ry="2.5" style="stroke:#D4AC0D;stroke-width:1;" width="113.5322" x="271.8364" y="450.6094"/><text fill="#2C3E50" font-family="Verdana" font-size="11" lengthAdjust="spacing" textLength="93.5322" x="281.8364" y="470.8198">send Pdelay_Req</text><text fill="#2C3E50" font-family="Verdana" font-size="11" lengthAdjust="spacing" textLength="57.1538" x="281.8364" y="483.6245">capture t1</text></g><!--entity PdRecv--><g id="elem_PdRecv"><rect fill="#FEF9E7" height="45.6094" rx="2.5" ry="2.5" style="stroke:#D4AC0D;stroke-width:1;" width="128.5391" x="284.3364" y="553.6094"/><text fill="#2C3E50" font-family="Verdana" font-size="11" lengthAdjust="spacing" textLength="96.6582" x="294.3364" y="573.8198">recv Pdelay_Resp</text><text fill="#2C3E50" font-family="Verdana" font-size="11" lengthAdjust="spacing" textLength="108.5391" x="294.3364" y="586.6245">+ Pdelay_Resp_FUP</text></g><!--entity PdCalc--><g id="elem_PdCalc"><rect fill="#FEF9E7" height="50.2656" rx="2.5" ry="2.5" style="stroke:#D4AC0D;stroke-width:1;" width="182.9419" x="257.3364" y="636.6094"/><text fill="#2C3E50" font-family="Verdana" font-size="11" lengthAdjust="spacing" textLength="112.5889" x="267.3364" y="656.8198">compute path_delay</text><text fill="#2C3E50" font-family="Verdana" font-size="15" font-weight="bold" lengthAdjust="spacing" textLength="162.9419" x="267.3364" y="673.3374">((t2-t1)+(t4-t3)) / 2</text></g><!--entity NtpClient--><g id="elem_NtpClient"><rect fill="#FEF9E7" height="45.6094" rx="2.5" ry="2.5" style="stroke:#D4AC0D;stroke-width:1;" width="83.9268" x="464.8364" y="450.6094"/><text fill="#2C3E50" font-family="Verdana" font-size="11" lengthAdjust="spacing" textLength="56.8315" x="474.8364" y="470.8198">query NTP</text><text fill="#2C3E50" font-family="Verdana" font-size="11" lengthAdjust="spacing" textLength="63.9268" x="474.8364" y="483.6245">EWMA filter</text></g><!--entity ExtSrc--><g id="elem_ExtSrc"><rect fill="#FEF9E7" height="45.6094" rx="2.5" ry="2.5" style="stroke:#D4AC0D;stroke-width:1;" width="92.9932" x="567.3364" y="450.6094"/><text fill="#2C3E50" font-family="Verdana" font-size="11" lengthAdjust="spacing" textLength="72.9932" x="577.3364" y="470.8198">recv external</text><text fill="#2C3E50" font-family="Verdana" font-size="11" lengthAdjust="spacing" textLength="65.1191" x="577.3364" y="483.6245">time source</text></g><!--entity AbsPublish--><g id="elem_AbsPublish"><rect fill="#FEF9E7" height="45.6094" rx="2.5" ry="2.5" style="stroke:#D4AC0D;stroke-width:1;" width="115.1328" x="545.3364" y="553.6094"/><text fill="#2C3E50" font-family="Verdana" font-size="11" lengthAdjust="spacing" textLength="91.0508" x="555.3364" y="573.8198">publish abs time</text><text fill="#2C3E50" font-family="Verdana" font-size="11" lengthAdjust="spacing" textLength="95.1328" x="555.3364" y="586.6245">monitor timeouts</text></g><!--entity Master--><g id="elem_Master"><rect fill="#FEF9E7" height="45.6094" rx="2.5" ry="2.5" style="stroke:#D4AC0D;stroke-width:1;" width="102.1724" x="109.8364" y="86.6094"/><text fill="#2C3E50" font-family="Verdana" font-size="11" lengthAdjust="spacing" textLength="68.3203" x="119.8364" y="106.8198">Time Master</text><text fill="#2C3E50" font-family="Verdana" font-size="11" lengthAdjust="spacing" textLength="82.1724" x="119.8364" y="119.6245">(IEEE 802.1AS)</text></g><polygon fill="#555555" points="160.8364,334.6044,164.8364,325.6044,160.8364,329.6044,156.8364,325.6044,160.8364,334.6044" style="stroke:#555555;stroke-width:1;"/><path d="M160.8364,278.0245 C160.8364,294.8782 160.8364,311.8511 160.8364,328.6044 " fill="transparent" style="stroke:#555555;stroke-width:1;"/><polygon fill="#555555" points="160.8364,444.3427,164.8364,435.3427,160.8364,439.3427,156.8364,435.3427,160.8364,444.3427" style="stroke:#555555;stroke-width:1;"/><path d="M160.8364,380.8603 C160.8364,399.0035 160.8364,418.7422 160.8364,438.3427 " fill="transparent" style="stroke:#555555;stroke-width:1;"/><polygon fill="#555555" points="160.0565,553.3801,164.1454,544.4201,160.106,548.3803,156.1458,544.3409,160.0565,553.3801" style="stroke:#555555;stroke-width:1;"/><path d="M160.5579,502.7435 C160.3995,518.7367 160.2635,532.4807 160.1159,547.3803 " fill="transparent" style="stroke:#555555;stroke-width:1;"/><text fill="#000000" font-family="Verdana" font-size="10" lengthAdjust="spacing" textLength="66.4063" x="162.8364" y="531.8916">FUP matched</text><polygon fill="#555555" points="344.479,553.6044,346.6546,543.9988,343.5078,548.6996,338.807,545.5528,344.479,553.6044" style="stroke:#555555;stroke-width:1;"/><path d="M333.2751,497.0245 C336.6125,513.8782 339.9961,530.9654 343.3135,547.7186 " fill="transparent" style="stroke:#555555;stroke-width:1;"/><polygon fill="#555555" points="348.8364,636.5571,352.8364,627.5571,348.8364,631.5571,344.8364,627.5571,348.8364,636.5571" style="stroke:#555555;stroke-width:1;"/><path d="M348.8364,599.8519 C348.8364,611.1843 348.8364,618.9784 348.8364,630.5571 " fill="transparent" style="stroke:#555555;stroke-width:1;"/><polygon fill="#555555" points="581.9208,553.6044,578.6196,544.3252,578.4761,549.9803,572.8211,549.8367,581.9208,553.6044" style="stroke:#555555;stroke-width:1;"/><path d="M528.142,497.0245 C544.1613,513.8782 561.8633,532.5022 577.7872,549.2554 " fill="transparent" style="stroke:#555555;stroke-width:1;"/><polygon fill="#555555" points="605.233,553.6044,610.184,545.0904,605.7744,548.6338,602.231,544.2242,605.233,553.6044" style="stroke:#555555;stroke-width:1;"/><path d="M611.3952,497.0245 C609.5596,513.8782 607.7073,530.8864 605.8827,547.6396 " fill="transparent" style="stroke:#555555;stroke-width:1;"/><polygon fill="#555555" points="160.8364,231.3184,164.8364,222.3184,160.8364,226.3184,156.8364,222.3184,160.8364,231.3184" style="stroke:#555555;stroke-width:1;"/><path d="M160.8364,132.6397 C160.8364,159.4337 160.8364,198.4071 160.8364,225.3184 " fill="transparent" style="stroke:#555555;stroke-width:1;"/><text fill="#000000" font-family="Verdana" font-size="10" lengthAdjust="spacing" textLength="89.2285" x="167.9561" y="161.8916">Sync + Follow_Up</text><text fill="#000000" font-family="Verdana" font-size="10" lengthAdjust="spacing" textLength="99.4678" x="162.8364" y="173.5322">(EtherType 0x88F7)</text><polygon fill="#555555" points="125.4667,132.7573,115.7876,134.578,121.3518,135.5976,120.3322,141.1618,125.4667,132.7573" style="stroke:#555555;stroke-width:1;"/><path d="M120.5289,136.1657 C71.6839,169.8814 -3.6148,234.8108 13.8364,310.6094 C25.9223,363.1038 21.8244,390.0181 66.8364,419.6094 C83.3795,430.4849 225.7473,422.36 244.8364,427.6094 C262.7027,432.5225 281.0141,441.7499 295.9614,450.5762 " fill="transparent" style="stroke:#555555;stroke-width:1;"/><text fill="#000000" font-family="Verdana" font-size="10" lengthAdjust="spacing" textLength="57.8027" x="15.8364" y="306.8916">Pdelay_Req</text><polygon fill="#555555" points="413.3763,561.4783,423.0034,563.5562,418.2709,560.4573,421.3698,555.7247,413.3763,561.4783" style="stroke:#555555;stroke-width:1;"/><path d="M211.8541,114.6188 C384.1636,128.8341 933.8364,179.9537 933.8364,253.6094 C933.8364,253.6094 933.8364,253.6094 933.8364,474.6094 C933.8364,582.9303 559.2965,533.6174 452.8364,553.6094 C440.0491,556.0107 432.291,557.5326 419.2498,560.2531 " fill="transparent" style="stroke:#555555;stroke-width:1;"/><text fill="#000000" font-family="Verdana" font-size="10" lengthAdjust="spacing" textLength="91.8408" x="935.8364" y="361.3916">Pdelay_Resp / FUP</text><polygon fill="#555555" points="202.1776,444.5564,211.8709,442.8128,206.315,441.7489,207.3789,436.193,202.1776,444.5564" style="stroke:#555555;stroke-width:1;"/><path d="M287.3083,386.7892 C261.3647,404.3938 233.0508,423.6068 207.1425,441.1874 " fill="transparent" style="stroke:#555555;stroke-width:1;"/><text fill="#000000" font-family="Verdana" font-size="10" lengthAdjust="spacing" textLength="37.4121" x="262.8364" y="415.8916">spawns</text><polygon fill="#555555" points="328.8364,450.4621,332.8364,441.4621,328.8364,445.4621,324.8364,441.4621,328.8364,450.4621" style="stroke:#555555;stroke-width:1;"/><path d="M328.8364,386.7892 C328.8364,406.4378 328.8364,426.2866 328.8364,444.4621 " fill="transparent" style="stroke:#555555;stroke-width:1;"/><text fill="#000000" font-family="Verdana" font-size="10" lengthAdjust="spacing" textLength="37.4121" x="330.8364" y="415.8916">spawns</text><polygon fill="#555555" points="482.329,450.5347,478.0653,441.6566,478.5205,447.2951,472.882,447.7503,482.329,450.5347" style="stroke:#555555;stroke-width:1;"/><path d="M384.4835,386.7011 C406.3411,398.468 431.3019,412.8369 452.8364,427.6094 C462.8997,434.5127 468.7706,439.0017 477.7588,446.6472 " fill="transparent" style="stroke:#555555;stroke-width:1;"/><text fill="#000000" font-family="Verdana" font-size="10" lengthAdjust="spacing" textLength="37.4121" x="442.8364" y="415.8916">spawns</text><polygon fill="#555555" points="475.6466,743.3539,479.0872,734.1256,475.34,738.3633,471.1023,734.6161,475.6466,743.3539" style="stroke:#555555;stroke-width:1;"/><path d="M217.4362,599.6818 C226.5151,602.6531 235.8657,605.4244 244.8364,607.6094 C290.1802,618.6534 419.1935,604.2647 452.8364,636.6094 C467.7751,650.9715 473.149,702.6966 475.2787,737.3652 " fill="transparent" style="stroke:#555555;stroke-width:1;"/><text fill="#000000" font-family="Verdana" font-size="10" lengthAdjust="spacing" textLength="71.1914" x="487.9405" y="659.3916">WriteVehicle()</text><text fill="#000000" font-family="Verdana" font-size="10" lengthAdjust="spacing" textLength="99.3994" x="473.8364" y="671.0322">vehicle_seq seqlock</text><polygon fill="#555555" points="404.5958,761.8189,397.0389,755.5028,399.7878,760.4469,394.8437,763.1957,404.5958,761.8189" style="stroke:#555555;stroke-width:1;"/><path d="M341.4967,686.78 C339.1694,699.4435 338.9467,714.5695 346.8364,725.6094 C360.36,744.5325 376.6697,753.8499 398.8262,760.1725 " fill="transparent" style="stroke:#555555;stroke-width:1;"/><text fill="#000000" font-family="Verdana" font-size="10" lengthAdjust="spacing" textLength="112.2217" x="348.8364" y="721.8916">vehicle_path_delay_ns</text><polygon fill="#555555" points="538.4099,743.4824,548.1855,742.2834,542.6977,740.9105,544.0705,735.4228,538.4099,743.4824" style="stroke:#555555;stroke-width:1;"/><path d="M604.762,599.88 C605.9429,626.5075 604.2687,671.3841 583.8364,702.6094 C572.7122,719.6098 560.8027,730.0512 543.5553,740.3962 " fill="transparent" style="stroke:#555555;stroke-width:1;"/><text fill="#000000" font-family="Verdana" font-size="10" lengthAdjust="spacing" textLength="78.3594" x="608.3916" y="659.3916">WriteAbsolute()</text><text fill="#000000" font-family="Verdana" font-size="10" lengthAdjust="spacing" textLength="81.4697" x="606.8364" y="671.0322">abs_seq seqlock</text><polygon fill="#555555" points="525.9766,450.2596,535.1908,446.7812,529.5341,446.7461,529.5692,441.0893,525.9766,450.2596" style="stroke:#555555;stroke-width:1;"/><path d="M721.4027,374.223 C713.5458,388.7801 699.6775,409.6919 680.8364,419.6094 C656.5982,432.3678 583.1292,417.0953 557.8364,427.6094 C545.8425,432.5952 539.0086,437.3885 530.2455,446.0434 " fill="transparent" style="stroke:#555555;stroke-width:1;"/><text fill="#000000" font-family="Verdana" font-size="10" lengthAdjust="spacing" textLength="43.3154" x="700.8364" y="415.8916">UDP 123</text><polygon fill="#555555" points="660.5014,457.093,670.3223,457.8346,665.2104,455.4121,667.6329,450.3002,660.5014,457.093" style="stroke:#555555;stroke-width:1;"/><path d="M813.0351,380.8824 C795.1301,393.2396 771.8241,408.3403 749.8364,419.6094 C721.0835,434.3459 692.8871,445.5331 666.1522,455.076 " fill="transparent" style="stroke:#555555;stroke-width:1;"/><text fill="#000000" font-family="Verdana" font-size="10" lengthAdjust="spacing" textLength="58.2227" x="775.8364" y="415.8916">Unix socket</text><!--SRC=[VLNXRk964FxlfvZZ_e1oD3495ovgAn5YZaY5MZ5f-WC9BVO6MzYxpkuIe5MaFaIVi4_IsLrZ768EAGgxC_FDp3VVB9zKJ3CAUKeIvdpA1Lbc15Aousi5CgEACEB8LS9o8aW62nAkbeAlMJJWAHUmYHD5A_Q8FfDrgeQSgI3vYuBhLemXptBEA9hKBgKWQ8ZeoxGQtnU2Ropqvwxv71iFq1TEnPPZOMH9uMy7y7DxLEPdxtRO7TvQ6nSH5SLzn-jz7RZcNWCNjsw_sxd-MjxQSXSyZPotkdPE9Hrwms_UzSUaTrVzmSNTSTBEuDBhNhpB41555aIUxgetx0sx7nEuNk_gwjk7hkpjc-EeH653IkvO6C5___mBqrXG4Y71ePvdgDQ2EiwUqaRXw0iUKYaRHJM7zXiPQgVPch6K8qZ8sNEo_089InHGjamOdR4DmKDm_ttgFOpFyV_zPDe08c6iLMVWocn5BQufx67x6-VvFkLHMXJGAmYoWMSa2vESmUW9L99HgKYM6_m7TAaBHNwHLW-rBnXLEdJfJts8CJCL9jBN7dMX0P9nFdpqPmpJA0ePGT9qZysLb-Lg1-Um6f5NglrQ1YhGVcFhLeVeSw6qTomuGsLh9gMYEVYZmHV8ruiqaJ44ex45GySIHBS7xVQlHzMQaxclJLszj5w82JU0JM4tAenfP7pVwYVJCPFn8ugln0-c8ocB2g_v0tsPiP3aMbYWN4jm5A37oRcMaJBNuwaSvrXdWN1glFhh6cUJ4nNFJUIC_GBDfkgqbTiwQwghjhfijN1KdG9fGD83hROqI-px7FPOMCgO4qHT6gBw2_a3bbxMLEnWCaKvUK_ZFZmdgIeKE57v84tGwoH7T8k-ZAGpfbKFagz5I4sijrM126kLN-Y9BAJPbHdBK7KA7mXzmbTV6W2ishUU9KXPZsc_ni4chRE-wLUdVCqQ_k_1_PyGn4JG2COqumBdqxHd8yvYRqPZnmbJlewWOTPpGjM6YrND2pJL_Oy9her0f7lFyw1tqVd9xGUjuftH9br59GXPXu2ALofiptYkchzFWW0LufKaDnzPiaMMmnLL5bQxE8u5DtqRTTpOXJh3npTD-MR-Y0fkchTckiifN6nxlU5rQn_sSxkz5znDPL-gg8NgRgfRW9NX7kZa2VkmwkWgSx9Xyc0kKnmR3cCjROwftu2EndZz9F1NuGyQ9s5gNgTN-tKkwGlWNugCE7OTAa5xfyCEpX7w88nZVBJm59TM9q1nlWDtzAYEYtsyyy7jN3fcJjfOw0yjXpav_mC0]--></g></svg>