<svg xmlns="http://www.w3.org/2000/svg" xmlns:xlink="http://www.w3.org/1999/xlink" contentStyleType="text/css" data-diagram-type="CLASS" height="594px" preserveAspectRatio="none" style="width:725px;height:594px;background:#FFFFFF;" version="1.1" viewBox="0 0 725 594" width="725px" zoomAndPan="magnify"><title>SharedState &#8212; Shared Memory Layout</title><defs/><g><text fill="#000000" font-family="Verdana" font-size="22" font-weight="bold" lengthAdjust="spacing" textLength="479.5635" x="121.4683" y="35.4209">SharedState &#8212; Shared Memory Layout</text><!--class SharedState--><g id="elem_SharedState"><rect codeLine="23" fill="#EBF5FB" height="362.2969" id="SharedState" rx="2.5" ry="2.5" style="stroke:#2E86C1;stroke-width:1;" width="222.5645" x="245" y="63.6094"/><rect fill="#2E86C1" height="28" rx="2.5" ry="2.5" style="stroke:#2E86C1;stroke-width:1;" width="222.5645" x="245" y="63.6094"/><rect fill="#2E86C1" height="2.5" style="stroke:#2E86C1;stroke-width:1;" width="222.5645" x="245" y="89.1094"/><rect codeLine="23" fill="transparent" height="362.2969" id="SharedState" rx="2.5" ry="2.5" style="stroke:#2E86C1;stroke-width:1;" width="222.5645" x="245" y="63.6094"/><ellipse cx="321.585" cy="77.6094" fill="#FFFFFF" rx="9" ry="9" style="stroke:#000000;stroke-width:1;"/><path d="M322.8662,80.9063 Q322.5225,81.0781 322.1475,81.1563 Q321.7725,81.25 321.3506,81.25 Q319.8818,81.25 319.1006,80.2813 Q318.335,79.3125 318.335,77.4688 Q318.335,75.625 319.1006,74.6563 Q319.8818,73.6875 321.3506,73.6875 Q321.7725,73.6875 322.1475,73.7813 Q322.5381,73.8594 322.8662,74.0313 L322.8662,75.6406 Q322.4912,75.2969 322.1318,75.1406 Q321.7881,74.9844 321.4287,74.9844 Q320.6318,74.9844 320.2256,75.6094 Q319.8193,76.2344 319.8193,77.4688 Q319.8193,78.7031 320.2256,79.3281 Q320.6318,79.9531 321.4287,79.9531 Q321.7881,79.9531 322.1318,79.7969 Q322.4912,79.6406 322.8662,79.2969 L322.8662,80.9063 Z " fill="#000000"/><text fill="#2C3E50" font-family="Verdana" font-size="10" lengthAdjust="spacing" textLength="61.8945" x="339.085" y="81.0713">SharedState</text><line style="stroke:#2E86C1;stroke-width:1;" x1="246" x2="466.5645" y1="91.6094" y2="91.6094"/><ellipse cx="256" cy="118.5703" fill="transparent" rx="3" ry="3" style="stroke:#000000;stroke-width:1;"/><text fill="#2C3E50" font-family="Verdana" font-size="10" lengthAdjust="spacing" textLength="197.7295" x="263" y="120.5322">magic : uint32_t_atomic = 0x53434F52</text><ellipse cx="256" cy="130.2109" fill="transparent" rx="3" ry="3" style="stroke:#000000;stroke-width:1;"/><text fill="#2C3E50" font-family="Verdana" font-size="10" lengthAdjust="spacing" textLength="147.6563" x="263" y="132.1729">version : uint32_t_atomic = 4</text><ellipse cx="256" cy="141.8516" fill="transparent" rx="3" ry="3" style="stroke:#000000;stroke-width:1;"/><text fill="#2C3E50" font-family="Verdana" font-size="10" lengthAdjust="spacing" textLength="109.3213" x="263" y="143.8135">size : uint32_t_atomic</text><line style="stroke:#2E86C1;stroke-width:1;stroke-dasharray:1.0,2.0;" x1="246" x2="338.0767" y1="105.4297" y2="105.4297"/><text fill="#2C3E50" font-family="Verdana" font-size="10" lengthAdjust="spacing" textLength="36.4111" x="338.0767" y="108.3916">Header</text><line style="stroke:#2E86C1;stroke-width:1;stroke-dasharray:1.0,2.0;" x1="374.4878" x2="466.5645" y1="105.4297" y2="105.4297"/><ellipse cx="256" cy="169.1328" fill="transparent" rx="3" ry="3" style="stroke:#000000;stroke-width:1;"/><text fill="#2C3E50" font-family="Verdana" font-size="10" lengthAdjust="spacing" textLength="148.2568" x="263" y="171.0947">vehicle_seq : uint64_t_atomic</text><ellipse cx="256" cy="180.7734" fill="transparent" rx="3" ry="3" style="stroke:#000000;stroke-width:1;"/><text fill="#2C3E50" font-family="Verdana" font-size="10" lengthAdjust="spacing" textLength="125.4102" x="263" y="182.7354">vehicle_base_ns : int64_t</text><ellipse cx="256" cy="192.4141" fill="transparent" rx="3" ry="3" style="stroke:#000000;stroke-width:1;"/><text fill="#2C3E50" font-family="Verdana" font-size="10" lengthAdjust="spacing" textLength="158.7256" x="263" y="194.376">vehicle_base_mono_ns : int64_t</text><ellipse cx="256" cy="204.0547" fill="transparent" rx="3" ry="3" style="stroke:#000000;stroke-width:1;"/><text fill="#2C3E50" font-family="Verdana" font-size="10" lengthAdjust="spacing" textLength="194.9365" x="263" y="206.0166">vehicle_acc : AccuracyQualifier_atomic</text><ellipse cx="256" cy="215.6953" fill="transparent" rx="3" ry="3" style="stroke:#000000;stroke-width:1;"/><text fill="#2C3E50" font-family="Verdana" font-size="10" lengthAdjust="spacing" textLength="198.5645" x="263" y="217.6572">vehicle_tpq : TimePointQualifier_atomic</text><ellipse cx="256" cy="227.3359" fill="transparent" rx="3" ry="3" style="stroke:#000000;stroke-width:1;"/><text fill="#2C3E50" font-family="Verdana" font-size="10" lengthAdjust="spacing" textLength="153.0518" x="263" y="229.2979">vehicle_last_offset_ns : int64_t</text><ellipse cx="256" cy="238.9766" fill="transparent" rx="3" ry="3" style="stroke:#000000;stroke-width:1;"/><text fill="#2C3E50" font-family="Verdana" font-size="10" lengthAdjust="spacing" textLength="156.6309" x="263" y="240.9385">vehicle_path_delay_ns : int64_t</text><ellipse cx="256" cy="250.6172" fill="transparent" rx="3" ry="3" style="stroke:#000000;stroke-width:1;"/><text fill="#2C3E50" font-family="Verdana" font-size="10" lengthAdjust="spacing" textLength="175.7568" x="263" y="252.5791">vehicle_log_head : uint64_t_atomic</text><ellipse cx="256" cy="262.2578" fill="transparent" rx="3" ry="3" style="stroke:#000000;stroke-width:1;"/><text fill="#2C3E50" font-family="Verdana" font-size="10" lengthAdjust="spacing" textLength="161.2207" x="263" y="264.2197">vehicle_log : SyncLogEntry[256]</text><line style="stroke:#2E86C1;stroke-width:1;stroke-dasharray:1.0,2.0;" x1="246" x2="308.9214" y1="155.9922" y2="155.9922"/><text fill="#2C3E50" font-family="Verdana" font-size="10" lengthAdjust="spacing" textLength="94.7217" x="308.9214" y="158.9541">Vehicle Time Block</text><line style="stroke:#2E86C1;stroke-width:1;stroke-dasharray:1.0,2.0;" x1="403.6431" x2="466.5645" y1="155.9922" y2="155.9922"/><ellipse cx="256" cy="289.5391" fill="transparent" rx="3" ry="3" style="stroke:#000000;stroke-width:1;"/><text fill="#2C3E50" font-family="Verdana" font-size="10" lengthAdjust="spacing" textLength="130.3271" x="263" y="291.501">abs_seq : uint64_t_atomic</text><ellipse cx="256" cy="301.1797" fill="transparent" rx="3" ry="3" style="stroke:#000000;stroke-width:1;"/><text fill="#2C3E50" font-family="Verdana" font-size="10" lengthAdjust="spacing" textLength="128.2373" x="263" y="303.1416">abs_base_utc_ns : int64_t</text><ellipse cx="256" cy="312.8203" fill="transparent" rx="3" ry="3" style="stroke:#000000;stroke-width:1;"/><text fill="#2C3E50" font-family="Verdana" font-size="10" lengthAdjust="spacing" textLength="140.7959" x="263" y="314.7822">abs_base_mono_ns : int64_t</text><ellipse cx="256" cy="324.4609" fill="transparent" rx="3" ry="3" style="stroke:#000000;stroke-width:1;"/><text fill="#2C3E50" font-family="Verdana" font-size="10" lengthAdjust="spacing" textLength="195.4053" x="263" y="326.4229">abs_acc : AbsAccuracyQualifier_atomic</text><ellipse cx="256" cy="336.1016" fill="transparent" rx="3" ry="3" style="stroke:#000000;stroke-width:1;"/><text fill="#2C3E50" font-family="Verdana" font-size="10" lengthAdjust="spacing" textLength="190.376" x="263" y="338.0635">abs_sec : AbsSecurityQualifier_atomic</text><ellipse cx="256" cy="347.7422" fill="transparent" rx="3" ry="3" style="stroke:#000000;stroke-width:1;"/><text fill="#2C3E50" font-family="Verdana" font-size="10" lengthAdjust="spacing" textLength="137.876" x="263" y="349.7041">abs_inaccuracy_ns : int64_t</text><ellipse cx="256" cy="359.3828" fill="transparent" rx="3" ry="3" style="stroke:#000000;stroke-width:1;"/><text fill="#2C3E50" font-family="Verdana" font-size="10" lengthAdjust="spacing" textLength="132.3682" x="263" y="361.3447">abs_offset_ns_est : int64_t</text><ellipse cx="256" cy="371.0234" fill="transparent" rx="3" ry="3" style="stroke:#000000;stroke-width:1;"/><text fill="#2C3E50" font-family="Verdana" font-size="10" lengthAdjust="spacing" textLength="127.5879" x="263" y="372.9854">abs_jitter_ns_est : int64_t</text><ellipse cx="256" cy="382.6641" fill="transparent" rx="3" ry="3" style="stroke:#000000;stroke-width:1;"/><text fill="#2C3E50" font-family="Verdana" font-size="10" lengthAdjust="spacing" textLength="175.2295" x="263" y="384.626">abs_last_update_mono_ns : int64_t</text><ellipse cx="256" cy="394.3047" fill="transparent" rx="3" ry="3" style="stroke:#000000;stroke-width:1;"/><text fill="#2C3E50" font-family="Verdana" font-size="10" lengthAdjust="spacing" textLength="100.498" x="263" y="396.2666">abs_source : uint8_t</text><ellipse cx="256" cy="405.9453" fill="transparent" rx="3" ry="3" style="stroke:#000000;stroke-width:1;"/><text fill="#2C3E50" font-family="Verdana" font-size="10" lengthAdjust="spacing" textLength="157.8271" x="263" y="407.9072">abs_log_head : uint64_t_atomic</text><ellipse cx="256" cy="417.5859" fill="transparent" rx="3" ry="3" style="stroke:#000000;stroke-width:1;"/><text fill="#2C3E50" font-family="Verdana" font-size="10" lengthAdjust="spacing" textLength="143.291" x="263" y="419.5479">abs_log : SyncLogEntry[256]</text><line style="stroke:#2E86C1;stroke-width:1;stroke-dasharray:1.0,2.0;" x1="246" x2="305.3374" y1="276.3984" y2="276.3984"/><text fill="#2C3E50" font-family="Verdana" font-size="10" lengthAdjust="spacing" textLength="101.8896" x="305.3374" y="279.3604">Absolute Time Block</text><line style="stroke:#2E86C1;stroke-width:1;stroke-dasharray:1.0,2.0;" x1="407.2271" x2="466.5645" y1="276.3984" y2="276.3984"/></g><!--class SyncLogEntry--><g id="elem_SyncLogEntry"><rect codeLine="53" fill="#EBF5FB" height="102.2031" id="SyncLogEntry" rx="2.5" ry="2.5" style="stroke:#2E86C1;stroke-width:1;" width="132.9941" x="11" y="473.1094"/><rect fill="#2E86C1" height="28" rx="2.5" ry="2.5" style="stroke:#2E86C1;stroke-width:1;" width="132.9941" x="11" y="473.1094"/><rect fill="#2E86C1" height="2.5" style="stroke:#2E86C1;stroke-width:1;" width="132.9941" x="11" y="498.6094"/><rect codeLine="53" fill="transparent" height="102.2031" id="SyncLogEntry" rx="2.5" ry="2.5" style="stroke:#2E86C1;stroke-width:1;" width="132.9941" x="11" y="473.1094"/><ellipse cx="40.3121" cy="487.1094" fill="#FFFFFF" rx="9" ry="9" style="stroke:#000000;stroke-width:1;"/><path d="M41.5933,490.4063 Q41.2496,490.5781 40.8746,490.6563 Q40.4996,490.75 40.0777,490.75 Q38.6089,490.75 37.8277,489.7813 Q37.0621,488.8125 37.0621,486.9688 Q37.0621,485.125 37.8277,484.1563 Q38.6089,483.1875 40.0777,483.1875 Q40.4996,483.1875 40.8746,483.2813 Q41.2652,483.3594 41.5933,483.5313 L41.5933,485.1406 Q41.2183,484.7969 40.8589,484.6406 Q40.5152,484.4844 40.1558,484.4844 Q39.3589,484.4844 38.9527,485.1094 Q38.5464,485.7344 38.5464,486.9688 Q38.5464,488.2031 38.9527,488.8281 Q39.3589,489.4531 40.1558,489.4531 Q40.5152,489.4531 40.8589,489.2969 Q41.2183,489.1406 41.5933,488.7969 L41.5933,490.4063 Z " fill="#000000"/><text fill="#2C3E50" font-family="Verdana" font-size="10" lengthAdjust="spacing" textLength="68.7451" x="55.937" y="490.5713">SyncLogEntry</text><line style="stroke:#2E86C1;stroke-width:1;" x1="12" x2="142.9941" y1="501.1094" y2="501.1094"/><ellipse cx="22" cy="512.4297" fill="transparent" rx="3" ry="3" style="stroke:#000000;stroke-width:1;"/><text fill="#2C3E50" font-family="Verdana" font-size="10" lengthAdjust="spacing" textLength="107.6416" x="29" y="514.3916">seq : uint32_t_atomic</text><ellipse cx="22" cy="524.0703" fill="transparent" rx="3" ry="3" style="stroke:#000000;stroke-width:1;"/><text fill="#2C3E50" font-family="Verdana" font-size="10" lengthAdjust="spacing" textLength="108.9941" x="29" y="526.0322">event : SyncLogEvent</text><ellipse cx="22" cy="535.7109" fill="transparent" rx="3" ry="3" style="stroke:#000000;stroke-width:1;"/><text fill="#2C3E50" font-family="Verdana" font-size="10" lengthAdjust="spacing" textLength="89.2725" x="29" y="537.6729">mono_ns : int64_t</text><ellipse cx="22" cy="547.3516" fill="transparent" rx="3" ry="3" style="stroke:#000000;stroke-width:1;"/><text fill="#2C3E50" font-family="Verdana" font-size="10" lengthAdjust="spacing" textLength="78.0859" x="29" y="549.3135">value1 : int64_t</text><ellipse cx="22" cy="558.9922" fill="transparent" rx="3" ry="3" style="stroke:#000000;stroke-width:1;"/><text fill="#2C3E50" font-family="Verdana" font-size="10" lengthAdjust="spacing" textLength="78.0859" x="29" y="560.9541">value2 : int64_t</text><line style="stroke:#2E86C1;stroke-width:1;" x1="12" x2="142.9941" y1="567.3125" y2="567.3125"/></g><!--class AccuracyQualifier--><g id="elem_AccuracyQualifier"><rect codeLine="61" fill="#EBF5FB" height="102.2031" id="AccuracyQualifier" rx="2.5" ry="2.5" style="stroke:#2E86C1;stroke-width:1;" width="116.2861" x="162.5" y="473.1094"/><rect fill="#2E86C1" height="28" rx="2.5" ry="2.5" style="stroke:#2E86C1;stroke-width:1;" width="116.2861" x="162.5" y="473.1094"/><rect fill="#2E86C1" height="2.5" style="stroke:#2E86C1;stroke-width:1;" width="116.2861" x="162.5" y="498.6094"/><rect codeLine="61" fill="transparent" height="102.2031" id="AccuracyQualifier" rx="2.5" ry="2.5" style="stroke:#2E86C1;stroke-width:1;" width="116.2861" x="162.5" y="473.1094"/><ellipse cx="175.5" cy="487.1094" fill="#FFFFFF" rx="9" ry="9" style="stroke:#000000;stroke-width:1;"/><path d="M177.3594,490.6094 L172.8281,490.6094 L172.8281,483.3125 L177.3594,483.3125 L177.3594,484.5938 L174.2656,484.5938 L174.2656,486.1563 L177.0625,486.1563 L177.0625,487.4375 L174.2656,487.4375 L174.2656,489.3438 L177.3594,489.3438 L177.3594,490.6094 Z " fill="#000000"/><text fill="#2C3E50" font-family="Verdana" font-size="10" lengthAdjust="spacing" textLength="88.2861" x="187.5" y="490.5713">AccuracyQualifier</text><line style="stroke:#2E86C1;stroke-width:1;" x1="163.5" x2="277.7861" y1="501.1094" y2="501.1094"/><text fill="#2C3E50" font-family="Verdana" font-size="10" lengthAdjust="spacing" textLength="44.1699" x="168.5" y="514.3916">kNoTime</text><text fill="#2C3E50" font-family="Verdana" font-size="10" lengthAdjust="spacing" textLength="90.8447" x="168.5" y="526.0322">kNotSynchronized</text><text fill="#2C3E50" font-family="Verdana" font-size="10" lengthAdjust="spacing" textLength="73.3252" x="168.5" y="537.6729">kSynchronized</text><text fill="#2C3E50" font-family="Verdana" font-size="10" lengthAdjust="spacing" textLength="49.9854" x="168.5" y="549.3135">kUnstable</text><text fill="#2C3E50" font-family="Verdana" font-size="10" lengthAdjust="spacing" textLength="101.792" x="168.5" y="560.9541">kTimeJumpDetected</text><line style="stroke:#2E86C1;stroke-width:1;" x1="163.5" x2="277.7861" y1="567.3125" y2="567.3125"/></g><!--class TimePointQualifier--><g id="elem_TimePointQualifier"><rect codeLine="69" fill="#EBF5FB" height="67.2813" id="TimePointQualifier" rx="2.5" ry="2.5" style="stroke:#2E86C1;stroke-width:1;" width="120.4219" x="296.5" y="490.6094"/><rect fill="#2E86C1" height="28" rx="2.5" ry="2.5" style="stroke:#2E86C1;stroke-width:1;" width="120.4219" x="296.5" y="490.6094"/><rect fill="#2E86C1" height="2.5" style="stroke:#2E86C1;stroke-width:1;" width="120.4219" x="296.5" y="516.1094"/><rect codeLine="69" fill="transparent" height="67.2813" id="TimePointQualifier" rx="2.5" ry="2.5" style="stroke:#2E86C1;stroke-width:1;" width="120.4219" x="296.5" y="490.6094"/><ellipse cx="309.5" cy="504.6094" fill="#FFFFFF" rx="9" ry="9" style="stroke:#000000;stroke-width:1;"/><path d="M311.3594,508.1094 L306.8281,508.1094 L306.8281,500.8125 L311.3594,500.8125 L311.3594,502.0938 L308.2656,502.0938 L308.2656,503.6563 L311.0625,503.6563 L311.0625,504.9375 L308.2656,504.9375 L308.2656,506.8438 L311.3594,506.8438 L311.3594,508.1094 Z " fill="#000000"/><text fill="#2C3E50" font-family="Verdana" font-size="10" lengthAdjust="spacing" textLength="92.4219" x="321.5" y="508.0713">TimePointQualifier</text><line style="stroke:#2E86C1;stroke-width:1;" x1="297.5" x2="415.9219" y1="518.6094" y2="518.6094"/><text fill="#2C3E50" font-family="Verdana" font-size="10" lengthAdjust="spacing" textLength="22.29" x="302.5" y="531.8916">kQM</text><text fill="#2C3E50" font-family="Verdana" font-size="10" lengthAdjust="spacing" textLength="39.3604" x="302.5" y="543.5322">kASIL_B</text><line style="stroke:#2E86C1;stroke-width:1;" x1="297.5" x2="415.9219" y1="549.8906" y2="549.8906"/></g><!--class AbsAccuracyQualifier--><g id="elem_AbsAccuracyQualifier"><rect codeLine="74" fill="#EBF5FB" height="125.4844" id="AbsAccuracyQualifier" rx="2.5" ry="2.5" style="stroke:#2E86C1;stroke-width:1;" width="134.6846" x="435" y="461.6094"/><rect fill="#2E86C1" height="28" rx="2.5" ry="2.5" style="stroke:#2E86C1;stroke-width:1;" width="134.6846" x="435" y="461.6094"/><rect fill="#2E86C1" height="2.5" style="stroke:#2E86C1;stroke-width:1;" width="134.6846" x="435" y="487.1094"/><rect codeLine="74" fill="transparent" height="125.4844" id="AbsAccuracyQualifier" rx="2.5" ry="2.5" style="stroke:#2E86C1;stroke-width:1;" width="134.6846" x="435" y="461.6094"/><ellipse cx="448" cy="475.6094" fill="#FFFFFF" rx="9" ry="9" style="stroke:#000000;stroke-width:1;"/><path d="M449.8594,479.1094 L445.3281,479.1094 L445.3281,471.8125 L449.8594,471.8125 L449.8594,473.0938 L446.7656,473.0938 L446.7656,474.6563 L449.5625,474.6563 L449.5625,475.9375 L446.7656,475.9375 L446.7656,477.8438 L449.8594,477.8438 L449.8594,479.1094 Z " fill="#000000"/><text fill="#2C3E50" font-family="Verdana" font-size="10" lengthAdjust="spacing" textLength="106.6846" x="460" y="479.0713">AbsAccuracyQualifier</text><line style="stroke:#2E86C1;stroke-width:1;" x1="436" x2="568.6846" y1="489.6094" y2="489.6094"/><text fill="#2C3E50" font-family="Verdana" font-size="10" lengthAdjust="spacing" textLength="114.502" x="441" y="502.8916">kInaccGreaterThan24h</text><text fill="#2C3E50" font-family="Verdana" font-size="10" lengthAdjust="spacing" textLength="98.3203" x="441" y="514.5322">kInaccLessThan24h</text><text fill="#2C3E50" font-family="Verdana" font-size="10" lengthAdjust="spacing" textLength="91.958" x="441" y="526.1729">kInaccLessThan1h</text><text fill="#2C3E50" font-family="Verdana" font-size="10" lengthAdjust="spacing" textLength="104.4775" x="441" y="537.8135">kInaccLessThan1min</text><text fill="#2C3E50" font-family="Verdana" font-size="10" lengthAdjust="spacing" textLength="90.8301" x="441" y="549.4541">kInaccLessThan1s</text><text fill="#2C3E50" font-family="Verdana" font-size="10" lengthAdjust="spacing" textLength="113.2959" x="441" y="561.0947">kInaccLessThan100ms</text><text fill="#2C3E50" font-family="Verdana" font-size="10" lengthAdjust="spacing" textLength="106.9336" x="441" y="572.7354">kInaccLessThan10ms</text><line style="stroke:#2E86C1;stroke-width:1;" x1="436" x2="568.6846" y1="579.0938" y2="579.0938"/></g><!--class AbsSecurityQualifier--><g id="elem_AbsSecurityQualifier"><rect codeLine="84" fill="#EBF5FB" height="90.5625" id="AbsSecurityQualifier" rx="2.5" ry="2.5" style="stroke:#2E86C1;stroke-width:1;" width="129.9189" x="588.5" y="478.6094"/><rect fill="#2E86C1" height="28" rx="2.5" ry="2.5" style="stroke:#2E86C1;stroke-width:1;" width="129.9189" x="588.5" y="478.6094"/><rect fill="#2E86C1" height="2.5" style="stroke:#2E86C1;stroke-width:1;" width="129.9189" x="588.5" y="504.1094"/><rect codeLine="84" fill="transparent" height="90.5625" id="AbsSecurityQualifier" rx="2.5" ry="2.5" style="stroke:#2E86C1;stroke-width:1;" width="129.9189" x="588.5" y="478.6094"/><ellipse cx="601.5" cy="492.6094" fill="#FFFFFF" rx="9" ry="9" style="stroke:#000000;stroke-width:1;"/><path d="M603.3594,496.1094 L598.8281,496.1094 L598.8281,488.8125 L603.3594,488.8125 L603.3594,490.0938 L600.2656,490.0938 L600.2656,491.6563 L603.0625,491.6563 L603.0625,492.9375 L600.2656,492.9375 L600.2656,494.8438 L603.3594,494.8438 L603.3594,496.1094 Z " fill="#000000"/><text fill="#2C3E50" font-family="Verdana" font-size="10" lengthAdjust="spacing" textLength="101.9189" x="613.5" y="496.0713">AbsSecurityQualifier</text><line style="stroke:#2E86C1;stroke-width:1;" x1="589.5" x2="717.4189" y1="506.6094" y2="506.6094"/><text fill="#2C3E50" font-family="Verdana" font-size="10" lengthAdjust="spacing" textLength="90.0195" x="594.5" y="519.8916">kNoTimeAvailable</text><text fill="#2C3E50" font-family="Verdana" font-size="10" lengthAdjust="spacing" textLength="83.584" x="594.5" y="531.5322">kNotTrustworthy</text><text fill="#2C3E50" font-family="Verdana" font-size="10" lengthAdjust="spacing" textLength="66.0645" x="594.5" y="543.1729">kTrustworthy</text><text fill="#2C3E50" font-family="Verdana" font-size="10" lengthAdjust="spacing" textLength="89.0869" x="594.5" y="554.8135">kVeryTrustworthy</text><line style="stroke:#2E86C1;stroke-width:1;" x1="589.5" x2="717.4189" y1="561.1719" y2="561.1719"/></g><polygon fill="#555555" points="244.6276,356.8803,237.5528,358.2754,236.1195,365.3427,243.1943,363.9475,244.6276,356.8803" style="stroke:#555555;stroke-width:1;"/><path d="M236.1195,365.3427 C195.6419,405.6026 160.4396,440.6157 127.8758,473.0044 " fill="transparent" style="stroke:#555555;stroke-width:1;"/><text fill="#000000" font-family="Verdana" font-size="10" lengthAdjust="spacing" textLength="19.0869" x="107.8758" y="470.2866">512</text><text fill="#000000" font-family="Verdana" font-size="10" lengthAdjust="spacing" textLength="6.3623" x="237.6276" y="354.1625">1</text><polygon fill="#555555" points="245.1273,472.8587,252.6799,466.5374,247.3277,468.3689,245.4962,463.0168,245.1273,472.8587" style="stroke:#555555;stroke-width:1;"/><path d="M268.2573,425.6635 C259.9096,442.6964 254.6503,453.4278 247.7678,467.471 " fill="transparent" style="stroke:#555555;stroke-width:1;"/><polygon fill="#555555" points="356.5,490.4937,360.5,481.4937,356.5,485.4937,352.5,481.4937,356.5,490.4937" style="stroke:#555555;stroke-width:1;"/><path d="M356.5,425.6635 C356.5,450.3819 356.5,467.176 356.5,484.4937 " fill="transparent" style="stroke:#555555;stroke-width:1;"/><polygon fill="#555555" points="470.0359,461.4054,469.3853,451.578,467.7078,456.9804,462.3054,455.3029,470.0359,461.4054" style="stroke:#555555;stroke-width:1;"/><path d="M451.2312,425.6635 C457.843,438.2304 461.3994,444.9901 467.2422,456.0954 " fill="transparent" style="stroke:#555555;stroke-width:1;"/><polygon fill="#555555" points="605.7747,478.5176,601.9294,469.4504,602.1213,475.104,596.4677,475.2959,605.7747,478.5176" style="stroke:#555555;stroke-width:1;"/><path d="M468.3598,350.1248 C515.8814,394.5263 564.3584,439.8205 601.3906,474.4213 " fill="transparent" style="stroke:#555555;stroke-width:1;"/><!--SRC=[XLN1Rjf04BtxApRareW838vefLQ25DfKf6f4cajLMOizu2tsBjqTaz0gKZ-YNzWlwTfUWuaNumlupTkPvpSpzXb6a01PnvHnvsmjwJAX9APRaI9H2I3br54hnjTKqeJCQR1QIf7oy5h4GfB7Y25KuY4iQ1hZH72SiLz0kfrAS2YbU2pEdNlvvLIYGKoL8hyTeg_HYpBduz74cuoAc90XI8Exuy7LTJV7FmBLUEraXP6fAj7htjZhvEWGKR9vYb0FFrVa0K-Je-e6ay74gwlhZWVz_kicTHM6hRo336CWiuXA26T84SY_Ft_DFRc5HCWjcURDSfp2m2gta7jvQQhhVpbmGHAwP05vGrB6iUVww5CKYKRUaiwJr-lt-XFFDTGDICK4jvBxXgEoLjS8PV47Y5YWd-AUwJaRnI9OxOLiYfYluAT9SDK_JB3dpAa2dolDCpHRF15SD95ea3ttC0XIIOFjNKfZjc0WxHLndQdAT7yHEjq9jhOVVR5OAC0c1MkAaH-2Nh4cLYoMVgIxTj8LJTISsPO7Kx4SSvJRRwvtzRqqVpXN8jR3RNMVpbMZyrayTpN5m2Ps5p_cUaOmZi_L2TCBCOOx0yrbsCHbd9g4nohlUk63GYlZ1qFKkHiOULFJTQZNgV4fbKXbK2x1u335gLOQahMDpxkzheJCOkl5spNlvTvT4DW0nqhExBPS_sDBGkCKkdROhS1QLFuwh7NK25jz5jcubVynan19mVLh8Yp0ElALAwJps1pAZdzAa_LxG0XGSygIzMKiQzxT5h_3sStK7-qrMWQlF7AJZT072RgvyZwYtEr7bS0Kb3gETgrWeZ-Y5bZPm4udiUCQhgYlhSAXoSCDPV7UEEtslKmLFWg9qTQO-H9u0BcjWhfQzRFHwhR8gtQRjBokspeOl0DQk_skFW4rHhrXzIIM5jb8DIUS_m00]--></g></svg>