<svg xmlns="http://www.w3.org/2000/svg" xmlns:xlink="http://www.w3.org/1999/xlink" contentStyleType="text/css" data-diagram-type="DESCRIPTION" height="557px" preserveAspectRatio="none" style="width:481px;height:557px;background:#FFFFFF;" version="1.1" viewBox="0 0 481 557" width="481px" zoomAndPan="magnify"><defs/><g><!--cluster GptpNet--><g id="cluster_GptpNet"><path d="M291.137,19.173 C293.7763,12.8032 298.0982,13.4998 302.2971,17.4936 C306.82,10.5704 311.5545,9.6385 316.324,17.2557 C319.1311,10.332 324.1585,8.948 329.2106,15.0314 C333.8476,8.3937 339.1532,9.545 342.5411,16.2769 C346.0457,11.2449 350.012,11.0728 353.9355,15.7871 C358.5357,10.0712 364.3123,10.3883 367.0498,17.6669 C371.2404,12.2625 375.3723,12.6193 379.0209,18.2546 C383.1583,12.2987 389.025,12.8332 392.7762,18.7038 C400.0073,22.4283 401.5099,28.7667 393.9583,33.6597 C401.132,36.8286 401.8241,44.0719 396.1119,49.0445 C402.8315,54.0864 401.8404,58.9891 394.85,62.7705 C403.1407,68.3782 400.817,76.6991 392.5581,80.1206 C388.9834,85.9533 383.5161,85.8882 379.8736,80.1953 C377.4016,86.667 371.8461,87.8489 367.0447,82.7862 C363.2782,89.4651 358.5531,89.1404 354.0216,83.6015 C352.2241,90.2976 346.6588,90.6643 342.6947,85.7075 C337.5157,92.5206 331.3301,90.4523 328.2213,83.5266 C323.1891,89.8472 319.3002,88.3756 315.5,82.2659 C311.8453,87.1435 305.8118,87.5396 303.0617,81.2577 C298.5992,85.6457 293.8632,85.3565 291.3766,79.0905 C282.7565,74.8177 283.3944,69.8758 289.9787,64.1777 C283.5863,59.4869 283.3424,54.7106 289.3413,49.4822 C283.384,45.1944 282.5919,37.5561 290.6068,34.444 C284.4229,30.1574 282.8321,22.9566 291.137,19.173 " fill="#EBF5FB" style="stroke:#2E86C1;stroke-width:1;"/><text fill="#1A5276" font-family="Verdana" font-size="11" font-weight="bold" lengthAdjust="spacing" textLength="87.7153" x="296.6423" y="32.2104">gPTP Network</text></g><!--cluster ECU--><g id="cluster_ECU"><path d="M80,131 L105.519,131 A3.75,3.75 0 0 1 108.019,133.5 L115.019,149.8047 L449,149.8047 A2.5,2.5 0 0 1 451.5,152.3047 L451.5,547.5 A2.5,2.5 0 0 1 449,550 L80,550 A2.5,2.5 0 0 1 77.5,547.5 L77.5,133.5 A2.5,2.5 0 0 1 80,131 " fill="#EBF5FB" style="stroke:#2E86C1;stroke-width:1;"/><line style="stroke:#2E86C1;stroke-width:1;" x1="77.5" x2="115.019" y1="149.8047" y2="149.8047"/><text fill="#1A5276" font-family="Verdana" font-size="11" font-weight="bold" lengthAdjust="spacing" textLength="24.519" x="81.5" y="143.2104">ECU</text></g><!--cluster tsyncd daemon--><g id="cluster_tsyncd daemon"><path d="M88,154 L183.6387,154 A3.75,3.75 0 0 1 186.1387,156.5 L193.1387,172.8047 L441,172.8047 A2.5,2.5 0 0 1 443.5,175.3047 L443.5,312.5 A2.5,2.5 0 0 1 441,315 L88,315 A2.5,2.5 0 0 1 85.5,312.5 L85.5,156.5 A2.5,2.5 0 0 1 88,154 " fill="#EBF5FB" style="stroke:#2E86C1;stroke-width:1;"/><line style="stroke:#2E86C1;stroke-width:1;" x1="85.5" x2="193.1387" y1="172.8047" y2="172.8047"/><text fill="#1A5276" font-family="Verdana" font-size="11" font-weight="bold" lengthAdjust="spacing" textLength="94.6387" x="89.5" y="166.2104">tsyncd daemon</text></g><!--cluster Client Applications--><g id="cluster_Client Applications"><path d="M95,478 L212.7031,478 A3.75,3.75 0 0 1 215.2031,480.5 L222.2031,496.8047 L383,496.8047 A2.5,2.5 0 0 1 385.5,499.3047 L385.5,539.5 A2.5,2.5 0 0 1 383,542 L95,542 A2.5,2.5 0 0 1 92.5,539.5 L92.5,480.5 A2.5,2.5 0 0 1 95,478 " fill="#EBF5FB" style="stroke:#2E86C1;stroke-width:1;"/><line style="stroke:#2E86C1;stroke-width:1;" x1="92.5" x2="222.2031" y1="496.8047" y2="496.8047"/><text fill="#1A5276" font-family="Verdana" font-size="11" font-weight="bold" lengthAdjust="spacing" textLength="116.7031" x="96.5" y="490.2104">Client Applications</text></g><!--entity NTP--><g id="elem_NTP"><rect fill="#FEF9E7" height="32.8047" rx="2.5" ry="2.5" style="stroke:#D4AC0D;stroke-width:1;" width="86.8809" x="11" y="38.5"/><text fill="#2C3E50" font-family="Verdana" font-size="11" lengthAdjust="spacing" textLength="66.8809" x="21" y="58.7104">NTP Servers</text></g><!--entity GNSS--><g id="elem_GNSS"><rect fill="#FEF9E7" height="45.6094" rx="2.5" ry="2.5" style="stroke:#D4AC0D;stroke-width:1;" width="107.248" x="116" y="32"/><text fill="#2C3E50" font-family="Verdana" font-size="11" lengthAdjust="spacing" textLength="87.248" x="126" y="52.2104">GNSS / External</text><text fill="#2C3E50" font-family="Verdana" font-size="11" lengthAdjust="spacing" textLength="72.6279" x="126" y="65.0151">(Unix socket)</text></g><!--entity Master--><g id="elem_Master"><rect fill="#FEF9E7" height="45.6094" rx="2.5" ry="2.5" style="stroke:#D4AC0D;stroke-width:1;" width="102.1724" x="289.5" y="32"/><text fill="#2C3E50" font-family="Verdana" font-size="11" lengthAdjust="spacing" textLength="68.3203" x="299.5" y="52.2104">Time Master</text><text fill="#2C3E50" font-family="Verdana" font-size="11" lengthAdjust="spacing" textLength="82.1724" x="299.5" y="65.0151">(IEEE 802.1AS)</text></g><!--entity SHM--><g id="elem_SHM"><path d="M195,380 C195,370 274.4429,370 274.4429,370 C274.4429,370 353.8857,370 353.8857,380 L353.8857,414.6094 C353.8857,424.6094 274.4429,424.6094 274.4429,424.6094 C274.4429,424.6094 195,424.6094 195,414.6094 L195,380 " fill="#E8F8F5" style="stroke:#1E8449;stroke-width:1;"/><path d="M195,380 C195,390 274.4429,390 274.4429,390 C274.4429,390 353.8857,390 353.8857,380 " fill="transparent" style="stroke:#1E8449;stroke-width:1;"/><text fill="#1E8449" font-family="Verdana" font-size="11" lengthAdjust="spacing" textLength="87.1997" x="205" y="404.2104">Shared Memory</text><text fill="#1E8449" font-family="Verdana" font-size="11" lengthAdjust="spacing" textLength="138.8857" x="205" y="417.0151">/score_time_vehicle_time</text></g><!--entity RxLoop--><g id="elem_RxLoop"><rect fill="#FEF9E7" height="45.6094" rx="2.5" ry="2.5" style="stroke:#D4AC0D;stroke-width:1;" width="110.2773" x="219.5" y="177"/><text fill="#2C3E50" font-family="Verdana" font-size="11" lengthAdjust="spacing" textLength="40.7236" x="229.5" y="197.2104">RxLoop</text><text fill="#2C3E50" font-family="Verdana" font-size="11" lengthAdjust="spacing" textLength="90.2773" x="229.5" y="210.0151">(gPTP Sync/FUP)</text></g><!--entity PdelayLoop--><g id="elem_PdelayLoop"><rect fill="#FEF9E7" height="45.6094" rx="2.5" ry="2.5" style="stroke:#D4AC0D;stroke-width:1;" width="88.3149" x="347.5" y="177"/><text fill="#2C3E50" font-family="Verdana" font-size="11" lengthAdjust="spacing" textLength="63.2607" x="357.5" y="197.2104">PdelayLoop</text><text fill="#2C3E50" font-family="Verdana" font-size="11" lengthAdjust="spacing" textLength="68.3149" x="357.5" y="210.0151">(Peer Delay)</text></g><!--entity AbsLoop--><g id="elem_AbsLoop"><rect fill="#FEF9E7" height="45.6094" rx="2.5" ry="2.5" style="stroke:#D4AC0D;stroke-width:1;" width="106.6948" x="94" y="177"/><text fill="#2C3E50" font-family="Verdana" font-size="11" lengthAdjust="spacing" textLength="46.8091" x="104" y="197.2104">AbsLoop</text><text fill="#2C3E50" font-family="Verdana" font-size="11" lengthAdjust="spacing" textLength="86.6948" x="104" y="210.0151">(NTP / External)</text></g><!--entity Engine--><g id="elem_Engine"><rect fill="#FEF9E7" height="32.8047" rx="2.5" ry="2.5" style="stroke:#D4AC0D;stroke-width:1;" width="111.4697" x="219" y="274"/><text fill="#2C3E50" font-family="Verdana" font-size="11" lengthAdjust="spacing" textLength="91.4697" x="229" y="294.2104">TimeSyncEngine</text></g><!--entity Client1--><g id="elem_Client1"><rect fill="#FEF9E7" height="32.8047" rx="2.5" ry="2.5" style="stroke:#D4AC0D;stroke-width:1;" width="129.2534" x="101" y="501"/><text fill="#2C3E50" font-family="Verdana" font-size="11" lengthAdjust="spacing" textLength="109.2534" x="111" y="521.2104">libscore_time App A</text></g><!--entity Client2--><g id="elem_Client2"><rect fill="#FEF9E7" height="32.8047" rx="2.5" ry="2.5" style="stroke:#D4AC0D;stroke-width:1;" width="129.2749" x="248" y="501"/><text fill="#2C3E50" font-family="Verdana" font-size="11" lengthAdjust="spacing" textLength="109.2749" x="258" y="521.2104">libscore_time App B</text></g><polygon fill="#555555" points="266.1195,176.8193,267.2746,167.0384,264.6386,172.0436,259.6335,169.4077,266.1195,176.8193" style="stroke:#555555;stroke-width:1;"/><path d="M289.4233,74.6454 C280.6729,80.1639 272.7292,87.1719 267.5,96 C252.885,120.6734 257.4962,149.0086 264.3425,171.0884 " fill="transparent" style="stroke:#555555;stroke-width:1;"/><text fill="#555555" font-family="Verdana" font-size="10" lengthAdjust="spacing" textLength="89.2285" x="274.6196" y="107.2822">Sync + Follow_Up</text><text fill="#555555" font-family="Verdana" font-size="10" lengthAdjust="spacing" textLength="99.4678" x="269.5" y="118.9229">(EtherType 0x88F7)</text><polygon fill="#555555" points="362.9691,78.1962,365.5581,87.6986,366.1295,82.0707,371.7574,82.6421,362.9691,78.1962" style="stroke:#555555;stroke-width:1;"/><polygon fill="#555555" points="391.2278,176.6959,394.793,167.515,390.9888,171.7016,386.8021,167.8974,391.2278,176.6959" style="stroke:#555555;stroke-width:1;"/><path d="M366.7616,82.8456 C371.1995,88.2865 371.5871,89.7155 374.5,96 C386.5423,121.9805 389.9087,149.133 390.941,170.7028 " fill="transparent" style="stroke:#555555;stroke-width:1;"/><text fill="#555555" font-family="Verdana" font-size="10" lengthAdjust="spacing" textLength="85.8301" x="386.5" y="113.2822">Pdelay_Req/Resp</text><polygon fill="#555555" points="123.6001,176.8597,120.0528,167.6719,120.06,173.3287,114.4032,173.336,123.6001,176.8597" style="stroke:#555555;stroke-width:1;"/><path d="M58.5347,71.6397 C62.5738,85.7139 69.6123,106.6356 79.5,123 C91.586,143.0027 105.0394,158.3465 119.352,172.6225 " fill="transparent" style="stroke:#555555;stroke-width:1;"/><text fill="#555555" font-family="Verdana" font-size="10" lengthAdjust="spacing" textLength="73.916" x="81.5" y="113.2822">NTP (UDP 123)</text><polygon fill="#555555" points="150.9294,176.709,156.2514,168.4219,151.6897,171.7671,148.3444,167.2054,150.9294,176.709" style="stroke:#555555;stroke-width:1;"/><path d="M166.1107,78.0304 C161.9886,104.8244 155.9819,143.8675 151.8417,170.7788 " fill="transparent" style="stroke:#555555;stroke-width:1;"/><text fill="#555555" font-family="Verdana" font-size="10" lengthAdjust="spacing" textLength="52.0313" x="165.5" y="113.2822">UTC offset</text><polygon fill="#555555" points="274.5,273.869,278.5,264.869,274.5,268.869,270.5,264.869,274.5,273.869" style="stroke:#555555;stroke-width:1;"/><path d="M274.5,223.3323 C274.5,239.1037 274.5,253.8447 274.5,267.869 " fill="transparent" style="stroke:#555555;stroke-width:1;"/><text fill="#555555" font-family="Verdana" font-size="10" lengthAdjust="spacing" textLength="57.3047" x="276.5" y="252.2822">clock offset</text><polygon fill="#555555" points="309.8641,273.9997,319.6992,273.4788,314.3194,271.7302,316.068,266.3504,309.8641,273.9997" style="stroke:#555555;stroke-width:1;"/><path d="M373.7373,223.0518 C364.3177,233.847 352.1041,246.5242 339.5,256 C330.4688,262.7897 325.2072,266.184 315.2104,271.2763 " fill="transparent" style="stroke:#555555;stroke-width:1;"/><text fill="#555555" font-family="Verdana" font-size="10" lengthAdjust="spacing" textLength="53.2373" x="359.5" y="252.2822">path delay</text><polygon fill="#555555" points="218.872,275.8439,211.8782,268.9093,214.1976,274.0688,209.0382,276.3882,218.872,275.8439" style="stroke:#555555;stroke-width:1;"/><path d="M157.2359,223.0519 C163.1421,234.2456 171.6459,247.2829 182.5,256 C193.1025,264.5151 200.4537,268.8496 213.2628,273.7138 " fill="transparent" style="stroke:#555555;stroke-width:1;"/><text fill="#555555" font-family="Verdana" font-size="10" lengthAdjust="spacing" textLength="84.3701" x="184.5" y="252.2822">UTC / inaccuracy</text><polygon fill="#555555" points="274.5,369.7664,278.5,360.7664,274.5,364.7664,270.5,360.7664,274.5,369.7664" style="stroke:#555555;stroke-width:1;"/><path d="M274.5,307.4472 C274.5,323.9698 274.5,344.0813 274.5,363.7664 " fill="transparent" style="stroke:#555555;stroke-width:1;"/><text fill="#555555" font-family="Verdana" font-size="10" lengthAdjust="spacing" textLength="71.1914" x="280.084" y="336.2822">WriteVehicle()</text><text fill="#555555" font-family="Verdana" font-size="10" lengthAdjust="spacing" textLength="78.3594" x="276.5" y="347.9229">WriteAbsolute()</text><polygon fill="#555555" points="170.9876,500.9986,177.9879,494.0707,172.8067,496.3413,170.5362,491.1601,170.9876,500.9986" style="stroke:#555555;stroke-width:1;"/><path d="M225.2708,425.139 C217.7919,430.4535 210.5609,436.444 204.5,443 C188.614,460.1835 179.399,479.4635 173.1706,495.4098 " fill="transparent" style="stroke:#555555;stroke-width:1;"/><text fill="#555555" font-family="Verdana" font-size="10" lengthAdjust="spacing" textLength="69.917" x="210.084" y="454.2822">ReadVehicle()</text><text fill="#555555" font-family="Verdana" font-size="10" lengthAdjust="spacing" textLength="77.085" x="206.5" y="465.9229">ReadAbsolute()</text><polygon fill="#555555" points="307.4115,500.6989,308.4602,490.906,305.8788,495.9396,300.8453,493.3583,307.4115,500.6989" style="stroke:#555555;stroke-width:1;"/><path d="M283.1228,425.276 C290.6118,448.5313 299.3644,475.7104 305.5723,494.9877 " fill="transparent" style="stroke:#555555;stroke-width:1;"/><text fill="#555555" font-family="Verdana" font-size="10" lengthAdjust="spacing" textLength="69.917" x="303.084" y="454.2822">ReadVehicle()</text><text fill="#555555" font-family="Verdana" font-size="10" lengthAdjust="spacing" textLength="77.085" x="299.5" y="465.9229">ReadAbsolute()</text><!--SRC=[pLPTRzem57tth_3emq1JnqTBcrRJf12IRj9Q8GBRIoLa4XSYZ9qvfi2cIliH-uNx9RkEGt1fwJffbHRnW7tlEVVUu-F0ApMbSufJHXAENgMIJEO4Cx8M2uMpELM44vJD4fuIIUOu4lDKSCfLgDQCOaaZI9WmQgMCIJIRIB7WiIUOa7WvJPGTZ-aDMJ0L2219lb7SR5f1LqgnDBY3Tlxi1ZNkZmc6k87ipfbOnFWxml1qTbeyw9xuRk2Oc90nbSL-otTEl6Q-RzLjkktMwKcvQwGO2nQZExjY2bN8XEwhwNU2Tj3vnpNByzbNDV23C__qOTNkiUirkhjLMzwHtsxSBn4JHSOasp-N4pX1-s65fkyS7vyzcCliGeNN-DVF7_31_afHoGd3cLZ8Y6QugaIAuMHhHSPBV10o1gbCUeCUlg9gAUIiWac6BrALmheOTojmPP30lRaa6NHxpQiVVT_7JgFrjkc6jHneGdeq2tG5x26LjrHcUHAixV35LHZYUYa1y0vviW8beXbLXbQds6fvG_01o4_a-WNr-KinDzwlG7iLa2xNhjnKsPf7CJY9pWMl5ChkgDjVVH8Y1G7o0ma1K0-6FIE1YJs6wiKKtbq5iaUfn5szOM3Ru6DGTvmLE7r6spCms2Bw653xGFVdyqd2QPvjlkR9TsRsyjPKmYcHDCQNCBjSN_Dw5Wb9Hmf8HhTqcaJCB7AUyCFbZdGUItHHDqrP4X6L29xj4P0buosr1c0tvpGCpUT1EXQaLSnZtrLFS0w_0RgD_yLy6mkQwsTcF8p5aX- -nuLppEPvxYhy1bv7Z8dbQAZFteUVGpbOfnGtLeuJdDRkyRpR46sjf7dCQjIdN-jzcgL86sZpbAKB1nMbTKfrsEtXPkkeXl9h_pHWEF2mkBd9g4B8dg9CDvxRZ0PlisYs0TZTxibFYPhYF0tPTVTawsRgEE4aYXQIH6k4x7W90lkMEfpZBnB-27ms5g_Mhdc-XcA2BHHi86Idbno5NGkEFYMnHQ6N5iCJ1Ard4Vm6]--></g></svg>