<svg xmlns="http://www.w3.org/2000/svg" xmlns:xlink="http://www.w3.org/1999/xlink" contentStyleType="text/css" data-diagram-type="CLASS" height="1196px" preserveAspectRatio="none" style="width:1370px;height:1196px;background:#FFFFFF;" version="1.1" viewBox="0 0 1370 1196" width="1370px" zoomAndPan="magnify"><title>score::time &#8212; Class Overview</title><defs/><g><text fill="#000000" font-family="sans-serif" font-size="14" font-weight="bold" lengthAdjust="spacing" textLength="233.0098" x="561.7334" y="22.9951">score::time &#8212; Class Overview</text><rect fill="transparent" height="79.1875" id="_legend" rx="7.5" ry="7.5" style="stroke:#000000;stroke-width:1;" width="301.7236" x="12" y="49.2969"/><rect fill="#90EE90" height="16.2969" style="stroke:transparent;stroke-width:1;" width="40.0518" x="17" y="56.2969"/><text fill="#000000" font-family="sans-serif" font-size="14" lengthAdjust="spacing" textLength="17.8008" x="17" y="69.292">&#160;&#160;&#160;&#160;</text><text fill="#000000" font-family="sans-serif" font-size="14" lengthAdjust="spacing" textLength="164.541" x="61.502" y="69.292">Public framework types</text><rect fill="#F5DEB3" height="16.2969" style="stroke:transparent;stroke-width:1;" width="40.0518" x="17" y="72.5938"/><text fill="#000000" font-family="sans-serif" font-size="14" lengthAdjust="spacing" textLength="40.0518" x="17" y="85.5889">&#160;&#160;&#160;&#160;&#160;&#160;&#160;&#160;&#160;</text><text fill="#000000" font-family="sans-serif" font-size="14" lengthAdjust="spacing" textLength="229.4209" x="61.502" y="85.5889">Time-domain tag structs (public)</text><rect fill="#ADD8E6" height="16.2969" style="stroke:transparent;stroke-width:1;" width="40.0518" x="17" y="88.8906"/><text fill="#000000" font-family="sans-serif" font-size="14" lengthAdjust="spacing" textLength="22.251" x="17" y="101.8857">&#160;&#160;&#160;&#160;&#160;</text><text fill="#000000" font-family="sans-serif" font-size="14" lengthAdjust="spacing" textLength="209.1318" x="61.502" y="101.8857">PTP notification types (public)</text><rect fill="#F08080" height="16.2969" style="stroke:transparent;stroke-width:1;" width="40.0518" x="17" y="105.1875"/><text fill="#000000" font-family="sans-serif" font-size="14" lengthAdjust="spacing" textLength="17.8008" x="17" y="118.1826">&#160;&#160;&#160;&#160;</text><text fill="#000000" font-family="sans-serif" font-size="14" lengthAdjust="spacing" textLength="195.1182" x="61.502" y="118.1826">Internal interfaces (details/)</text><line style="stroke:#000000;stroke-width:1;" x1="17" x2="308.7236" y1="56.2969" y2="56.2969"/><line style="stroke:#000000;stroke-width:1;" x1="17" x2="308.7236" y1="72.5938" y2="72.5938"/><line style="stroke:#000000;stroke-width:1;" x1="17" x2="308.7236" y1="88.8906" y2="88.8906"/><line style="stroke:#000000;stroke-width:1;" x1="17" x2="308.7236" y1="105.1875" y2="105.1875"/><line style="stroke:#000000;stroke-width:1;" x1="17" x2="308.7236" y1="121.4844" y2="121.4844"/><line style="stroke:#000000;stroke-width:1;" x1="17" x2="17" y1="56.2969" y2="121.4844"/><line style="stroke:#000000;stroke-width:1;" x1="57.0518" x2="57.0518" y1="56.2969" y2="121.4844"/><line style="stroke:#000000;stroke-width:1;" x1="308.7236" x2="308.7236" y1="56.2969" y2="121.4844"/><!--class clock--><g id="elem_clock"><rect codeLine="16" fill="#90EE90" height="194.6719" id="clock" rx="2.5" ry="2.5" style="stroke:#888888;stroke-width:0.5;" width="428.124" x="797" y="325.4844"/><ellipse cx="974.644" cy="341.4844" fill="#ADD1B2" rx="11" ry="11" style="stroke:#181818;stroke-width:1;"/><path d="M977.6128,347.125 Q977.0347,347.4219 976.394,347.5625 Q975.7534,347.7188 975.0503,347.7188 Q972.5503,347.7188 971.2222,346.0781 Q969.9097,344.4219 969.9097,341.2969 Q969.9097,338.1719 971.2222,336.5156 Q972.5503,334.8594 975.0503,334.8594 Q975.7534,334.8594 976.394,335.0156 Q977.0503,335.1719 977.6128,335.4688 L977.6128,338.1875 Q976.9878,337.6094 976.394,337.3438 Q975.8003,337.0625 975.1753,337.0625 Q973.8315,337.0625 973.144,338.1406 Q972.4565,339.2031 972.4565,341.2969 Q972.4565,343.3906 973.144,344.4688 Q973.8315,345.5313 975.1753,345.5313 Q975.8003,345.5313 976.394,345.2656 Q976.9878,344.9844 977.6128,344.4063 L977.6128,347.125 Z " fill="#000000"/><text fill="#000000" font-family="sans-serif" font-size="14" lengthAdjust="spacing" textLength="38.0352" x="995.144" y="346.3311">Clock</text><rect fill="#FAFAFA" height="15.9688" style="stroke:#888888;stroke-width:1;stroke-dasharray:2.0,2.0;" width="24.3008" x="1203.8232" y="322.4844"/><text fill="#000000" font-family="sans-serif" font-size="12" font-style="italic" lengthAdjust="spacing" textLength="22.3008" x="1204.8232" y="334.623">Tag</text><line style="stroke:#888888;stroke-width:0.5;" x1="798" x2="1224.124" y1="357.4844" y2="357.4844"/><ellipse cx="808" cy="371.1328" fill="#84BE84" rx="3" ry="3" style="stroke:#038048;stroke-width:1;"/><text fill="#000000" font-family="sans-serif" font-size="14" lengthAdjust="spacing" text-decoration="underline" textLength="196.5537" x="817" y="374.4795">GetInstance() : Clock&lt;Tag&gt;</text><ellipse cx="808" cy="387.4297" fill="#84BE84" rx="3" ry="3" style="stroke:#038048;stroke-width:1;"/><text fill="#000000" font-family="sans-serif" font-size="14" lengthAdjust="spacing" textLength="120.4766" x="817" y="390.7764">Now() : Snapshot</text><ellipse cx="808" cy="403.7266" fill="#84BE84" rx="3" ry="3" style="stroke:#038048;stroke-width:1;"/><text fill="#000000" font-family="sans-serif" font-size="14" lengthAdjust="spacing" textLength="237.4395" x="817" y="407.0732">Subscribe&lt;EventType&gt;(cb) : void</text><ellipse cx="808" cy="420.0234" fill="#84BE84" rx="3" ry="3" style="stroke:#038048;stroke-width:1;"/><text fill="#000000" font-family="sans-serif" font-size="14" lengthAdjust="spacing" textLength="238.3828" x="817" y="423.3701">Unsubscribe&lt;EventType&gt;() : void</text><ellipse cx="808" cy="436.3203" fill="#84BE84" rx="3" ry="3" style="stroke:#038048;stroke-width:1;"/><text fill="#000000" font-family="sans-serif" font-size="14" lengthAdjust="spacing" textLength="269.7939" x="817" y="439.667">IsAvailable() : bool  [VehicleTime only]</text><ellipse cx="808" cy="452.6172" fill="#84BE84" rx="3" ry="3" style="stroke:#038048;stroke-width:1;"/><text fill="#000000" font-family="sans-serif" font-size="14" lengthAdjust="spacing" textLength="402.124" x="817" y="455.9639">WaitUntilAvailable(token, until) : bool  [VehicleTime only]</text><line style="stroke:#888888;stroke-width:1;" x1="798" x2="1224.124" y1="463.2656" y2="463.2656"/><rect fill="transparent" height="6" style="stroke:#C82930;stroke-width:1;" width="6" x="805" y="473.9141"/><text fill="#000000" font-family="sans-serif" font-size="14" lengthAdjust="spacing" textLength="209.877" x="817" y="480.2607">impl_ : shared_ptr&lt;Backend&gt;</text><rect fill="transparent" height="6" style="stroke:#C82930;stroke-width:1;" width="6" x="805" y="490.2109"/><text fill="#000000" font-family="sans-serif" font-size="14" lengthAdjust="spacing" text-decoration="underline" textLength="276.0898" x="817" y="496.5576">instance_cache_ : weak_ptr&lt;Backend&gt;</text><rect fill="transparent" height="6" style="stroke:#C82930;stroke-width:1;" width="6" x="805" y="506.5078"/><text fill="#000000" font-family="sans-serif" font-size="14" lengthAdjust="spacing" text-decoration="underline" textLength="304.2471" x="817" y="512.8545">instance_override_ : shared_ptr&lt;Backend&gt;</text></g><!--class guard--><g id="elem_guard"><rect codeLine="29" fill="#90EE90" height="96.8906" id="guard" rx="2.5" ry="2.5" style="stroke:#888888;stroke-width:0.5;" width="337.6777" x="842" y="151.4844"/><ellipse cx="922.5396" cy="167.4844" fill="#ADD1B2" rx="11" ry="11" style="stroke:#181818;stroke-width:1;"/><path d="M925.5083,173.125 Q924.9302,173.4219 924.2896,173.5625 Q923.6489,173.7188 922.9458,173.7188 Q920.4458,173.7188 919.1177,172.0781 Q917.8052,170.4219 917.8052,167.2969 Q917.8052,164.1719 919.1177,162.5156 Q920.4458,160.8594 922.9458,160.8594 Q923.6489,160.8594 924.2896,161.0156 Q924.9458,161.1719 925.5083,161.4688 L925.5083,164.1875 Q924.8833,163.6094 924.2896,163.3438 Q923.6958,163.0625 923.0708,163.0625 Q921.7271,163.0625 921.0396,164.1406 Q920.3521,165.2031 920.3521,167.2969 Q920.3521,169.3906 921.0396,170.4688 Q921.7271,171.5313 923.0708,171.5313 Q923.6958,171.5313 924.2896,171.2656 Q924.8833,170.9844 925.5083,170.4063 L925.5083,173.125 Z " fill="#000000"/><text fill="#000000" font-family="sans-serif" font-size="14" lengthAdjust="spacing" textLength="141.7979" x="943.0396" y="172.3311">ClockOverrideGuard</text><rect fill="#FAFAFA" height="15.9688" style="stroke:#888888;stroke-width:1;stroke-dasharray:2.0,2.0;" width="24.3008" x="1158.377" y="148.4844"/><text fill="#000000" font-family="sans-serif" font-size="12" font-style="italic" lengthAdjust="spacing" textLength="22.3008" x="1159.377" y="160.623">Tag</text><line style="stroke:#888888;stroke-width:0.5;" x1="843" x2="1178.6777" y1="183.4844" y2="183.4844"/><ellipse cx="853" cy="197.1328" fill="#84BE84" rx="3" ry="3" style="stroke:#038048;stroke-width:1;"/><text fill="#000000" font-family="sans-serif" font-size="14" lengthAdjust="spacing" textLength="311.6777" x="862" y="200.4795">ClockOverrideGuard(shared_ptr&lt;Backend&gt;)</text><ellipse cx="853" cy="213.4297" fill="#84BE84" rx="3" ry="3" style="stroke:#038048;stroke-width:1;"/><text fill="#000000" font-family="sans-serif" font-size="14" lengthAdjust="spacing" textLength="164.4521" x="862" y="216.7764">~ClockOverrideGuard()</text><line style="stroke:#888888;stroke-width:1;" x1="843" x2="1178.6777" y1="224.0781" y2="224.0781"/><text fill="#000000" font-family="sans-serif" font-size="14" lengthAdjust="spacing" textLength="185.124" x="848" y="241.0732">move-only, non-re-entrant</text></g><!--class snapshot--><g id="elem_snapshot"><rect codeLine="36" fill="#90EE90" height="80.5938" id="snapshot" rx="2.5" ry="2.5" style="stroke:#888888;stroke-width:0.5;" width="260.3496" x="73" y="637.9844"/><ellipse cx="88" cy="653.9844" fill="#ADD1B2" rx="11" ry="11" style="stroke:#181818;stroke-width:1;"/><path d="M90.9688,659.625 Q90.3906,659.9219 89.75,660.0625 Q89.1094,660.2188 88.4063,660.2188 Q85.9063,660.2188 84.5781,658.5781 Q83.2656,656.9219 83.2656,653.7969 Q83.2656,650.6719 84.5781,649.0156 Q85.9063,647.3594 88.4063,647.3594 Q89.1094,647.3594 89.75,647.5156 Q90.4063,647.6719 90.9688,647.9688 L90.9688,650.6875 Q90.3438,650.1094 89.75,649.8438 Q89.1563,649.5625 88.5313,649.5625 Q87.1875,649.5625 86.5,650.6406 Q85.8125,651.7031 85.8125,653.7969 Q85.8125,655.8906 86.5,656.9688 Q87.1875,658.0313 88.5313,658.0313 Q89.1563,658.0313 89.75,657.7656 Q90.3438,657.4844 90.9688,656.9063 L90.9688,659.625 Z " fill="#000000"/><text fill="#000000" font-family="sans-serif" font-size="14" lengthAdjust="spacing" textLength="103.4824" x="102" y="658.8311">ClockSnapshot</text><rect fill="#FAFAFA" height="15.9688" style="stroke:#888888;stroke-width:1;stroke-dasharray:2.0,2.0;" width="122.8672" x="213.4824" y="634.9844"/><text fill="#000000" font-family="sans-serif" font-size="12" font-style="italic" lengthAdjust="spacing" textLength="120.8672" x="214.4824" y="647.123">TimepointT, StatusT</text><line style="stroke:#888888;stroke-width:0.5;" x1="74" x2="332.3496" y1="669.9844" y2="669.9844"/><line style="stroke:#888888;stroke-width:0.5;" x1="74" x2="332.3496" y1="677.9844" y2="677.9844"/><ellipse cx="84" cy="691.6328" fill="#84BE84" rx="3" ry="3" style="stroke:#038048;stroke-width:1;"/><text fill="#000000" font-family="sans-serif" font-size="14" lengthAdjust="spacing" textLength="173.4414" x="93" y="694.9795">TimePoint() : TimepointT</text><ellipse cx="84" cy="707.9297" fill="#84BE84" rx="3" ry="3" style="stroke:#038048;stroke-width:1;"/><text fill="#000000" font-family="sans-serif" font-size="14" lengthAdjust="spacing" textLength="122.3154" x="93" y="711.2764">Status() : StatusT</text></g><!--class status--><g id="elem_status"><rect codeLine="41" fill="#90EE90" height="145.7813" id="status" rx="2.5" ry="2.5" style="stroke:#888888;stroke-width:0.5;" width="392.0234" x="7" y="1043.4844"/><ellipse cx="121.9287" cy="1059.4844" fill="#ADD1B2" rx="11" ry="11" style="stroke:#181818;stroke-width:1;"/><path d="M124.8975,1065.125 Q124.3193,1065.4219 123.6787,1065.5625 Q123.0381,1065.7188 122.335,1065.7188 Q119.835,1065.7188 118.5068,1064.0781 Q117.1943,1062.4219 117.1943,1059.2969 Q117.1943,1056.1719 118.5068,1054.5156 Q119.835,1052.8594 122.335,1052.8594 Q123.0381,1052.8594 123.6787,1053.0156 Q124.335,1053.1719 124.8975,1053.4688 L124.8975,1056.1875 Q124.2725,1055.6094 123.6787,1055.3438 Q123.085,1055.0625 122.46,1055.0625 Q121.1162,1055.0625 120.4287,1056.1406 Q119.7412,1057.2031 119.7412,1059.2969 Q119.7412,1061.3906 120.4287,1062.4688 Q121.1162,1063.5313 122.46,1063.5313 Q123.085,1063.5313 123.6787,1063.2656 Q124.2725,1062.9844 124.8975,1062.4063 L124.8975,1065.125 Z " fill="#000000"/><text fill="#000000" font-family="sans-serif" font-size="14" lengthAdjust="spacing" textLength="82.6465" x="142.4287" y="1064.3311">ClockStatus</text><rect fill="#FAFAFA" height="15.9688" style="stroke:#888888;stroke-width:1;stroke-dasharray:2.0,2.0;" width="69.0195" x="333.0039" y="1040.4844"/><text fill="#000000" font-family="sans-serif" font-size="12" font-style="italic" lengthAdjust="spacing" textLength="67.0195" x="334.0039" y="1052.623">FlagEnumT</text><line style="stroke:#888888;stroke-width:0.5;" x1="8" x2="398.0234" y1="1075.4844" y2="1075.4844"/><line style="stroke:#888888;stroke-width:0.5;" x1="8" x2="398.0234" y1="1083.4844" y2="1083.4844"/><ellipse cx="18" cy="1097.1328" fill="#84BE84" rx="3" ry="3" style="stroke:#038048;stroke-width:1;"/><text fill="#000000" font-family="sans-serif" font-size="14" lengthAdjust="spacing" textLength="165.1152" x="27" y="1100.4795">IsFlagActive(flag) : bool</text><ellipse cx="18" cy="1113.4297" fill="#84BE84" rx="3" ry="3" style="stroke:#038048;stroke-width:1;"/><text fill="#000000" font-family="sans-serif" font-size="14" lengthAdjust="spacing" textLength="222.3867" x="27" y="1116.7764">IsAnyOfFlagsActive(flags) : bool</text><ellipse cx="18" cy="1129.7266" fill="#84BE84" rx="3" ry="3" style="stroke:#038048;stroke-width:1;"/><text fill="#000000" font-family="sans-serif" font-size="14" lengthAdjust="spacing" textLength="366.0234" x="27" y="1133.0732">IsSynchronized() : bool  [VehicleTime specialization]</text><ellipse cx="18" cy="1146.0234" fill="#84BE84" rx="3" ry="3" style="stroke:#038048;stroke-width:1;"/><text fill="#000000" font-family="sans-serif" font-size="14" lengthAdjust="spacing" textLength="341.8994" x="27" y="1149.3701">IsValid() : bool          [VehicleTime specialization]</text><ellipse cx="18" cy="1162.3203" fill="#84BE84" rx="3" ry="3" style="stroke:#038048;stroke-width:1;"/><text fill="#000000" font-family="sans-serif" font-size="14" lengthAdjust="spacing" textLength="137.2109" x="27" y="1165.667">AddFlag(flag) : void</text><ellipse cx="18" cy="1178.6172" fill="#84BE84" rx="3" ry="3" style="stroke:#038048;stroke-width:1;"/><text fill="#000000" font-family="sans-serif" font-size="14" lengthAdjust="spacing" textLength="146.4736" x="27" y="1181.9639">ClearFlag(flag) : void</text></g><!--class vtag--><g id="elem_vtag"><rect codeLine="51" fill="#F5DEB3" height="129.4844" id="vtag" rx="2.5" ry="2.5" style="stroke:#888888;stroke-width:0.5;" width="368.002" x="368" y="613.9844"/><ellipse cx="504.8281" cy="629.9844" fill="#ADD1B2" rx="11" ry="11" style="stroke:#181818;stroke-width:1;"/><path d="M507.7969,635.625 Q507.2188,635.9219 506.5781,636.0625 Q505.9375,636.2188 505.2344,636.2188 Q502.7344,636.2188 501.4063,634.5781 Q500.0938,632.9219 500.0938,629.7969 Q500.0938,626.6719 501.4063,625.0156 Q502.7344,623.3594 505.2344,623.3594 Q505.9375,623.3594 506.5781,623.5156 Q507.2344,623.6719 507.7969,623.9688 L507.7969,626.6875 Q507.1719,626.1094 506.5781,625.8438 Q505.9844,625.5625 505.3594,625.5625 Q504.0156,625.5625 503.3281,626.6406 Q502.6406,627.7031 502.6406,629.7969 Q502.6406,631.8906 503.3281,632.9688 Q504.0156,634.0313 505.3594,634.0313 Q505.9844,634.0313 506.5781,633.7656 Q507.1719,633.4844 507.7969,632.9063 L507.7969,635.625 Z " fill="#000000"/><text fill="#000000" font-family="sans-serif" font-size="14" lengthAdjust="spacing" textLength="85.8457" x="525.3281" y="634.8311">VehicleTime</text><line style="stroke:#888888;stroke-width:0.5;" x1="369" x2="735.002" y1="645.9844" y2="645.9844"/><ellipse cx="379" cy="659.6328" fill="transparent" rx="3" ry="3" style="stroke:#038048;stroke-width:1;"/><text fill="#000000" font-family="sans-serif" font-size="14" lengthAdjust="spacing" textLength="118.4668" x="388" y="662.9795">enum StatusFlag</text><ellipse cx="379" cy="675.9297" fill="transparent" rx="3" ry="3" style="stroke:#038048;stroke-width:1;"/><text fill="#000000" font-family="sans-serif" font-size="14" lengthAdjust="spacing" textLength="215.8174" x="388" y="679.2764">using Duration = nanoseconds</text><ellipse cx="379" cy="692.2266" fill="transparent" rx="3" ry="3" style="stroke:#038048;stroke-width:1;"/><text fill="#000000" font-family="sans-serif" font-size="14" lengthAdjust="spacing" textLength="342.002" x="388" y="695.5732">using Timepoint = time_point&lt;VehicleTime, ns&gt;</text><ellipse cx="379" cy="708.5234" fill="transparent" rx="3" ry="3" style="stroke:#038048;stroke-width:1;"/><text fill="#000000" font-family="sans-serif" font-size="14" lengthAdjust="spacing" textLength="306.1133" x="388" y="711.8701">using TimeSlaveSyncDataReceivedCallback</text><ellipse cx="379" cy="724.8203" fill="transparent" rx="3" ry="3" style="stroke:#038048;stroke-width:1;"/><text fill="#000000" font-family="sans-serif" font-size="14" lengthAdjust="spacing" textLength="305.0537" x="388" y="728.167">using PDelayMeasurementFinishedCallback</text><line style="stroke:#888888;stroke-width:0.5;" x1="369" x2="735.002" y1="735.4688" y2="735.4688"/></g><!--class vstatus--><g id="elem_vstatus"><rect codeLine="59" fill="#F5DEB3" height="129.4844" id="vstatus" rx="2.5" ry="2.5" style="stroke:#888888;stroke-width:0.5;" width="348.6016" x="28.5" y="844.9844"/><ellipse cx="133.3223" cy="860.9844" fill="#ADD1B2" rx="11" ry="11" style="stroke:#181818;stroke-width:1;"/><path d="M136.291,866.625 Q135.7129,866.9219 135.0723,867.0625 Q134.4316,867.2188 133.7285,867.2188 Q131.2285,867.2188 129.9004,865.5781 Q128.5879,863.9219 128.5879,860.7969 Q128.5879,857.6719 129.9004,856.0156 Q131.2285,854.3594 133.7285,854.3594 Q134.4316,854.3594 135.0723,854.5156 Q135.7285,854.6719 136.291,854.9688 L136.291,857.6875 Q135.666,857.1094 135.0723,856.8438 Q134.4785,856.5625 133.8535,856.5625 Q132.5098,856.5625 131.8223,857.6406 Q131.1348,858.7031 131.1348,860.7969 Q131.1348,862.8906 131.8223,863.9688 Q132.5098,865.0313 133.8535,865.0313 Q134.4785,865.0313 135.0723,864.7656 Q135.666,864.4844 136.291,863.9063 L136.291,866.625 Z " fill="#000000"/><text fill="#000000" font-family="sans-serif" font-size="14" lengthAdjust="spacing" textLength="130.457" x="153.8223" y="865.8311">VehicleTimeStatus</text><line style="stroke:#888888;stroke-width:0.5;" x1="29.5" x2="376.1016" y1="876.9844" y2="876.9844"/><ellipse cx="39.5" cy="890.6328" fill="transparent" rx="3" ry="3" style="stroke:#038048;stroke-width:1;"/><text fill="#000000" font-family="sans-serif" font-size="14" lengthAdjust="spacing" textLength="322.6016" x="48.5" y="893.9795">flags : ClockStatus&lt;VehicleTime::StatusFlag&gt;</text><ellipse cx="39.5" cy="906.9297" fill="transparent" rx="3" ry="3" style="stroke:#038048;stroke-width:1;"/><text fill="#000000" font-family="sans-serif" font-size="14" lengthAdjust="spacing" textLength="161.8408" x="48.5" y="910.2764">rate_deviation : double</text><line style="stroke:#888888;stroke-width:0.5;" x1="29.5" x2="376.1016" y1="917.5781" y2="917.5781"/><ellipse cx="39.5" cy="931.2266" fill="#84BE84" rx="3" ry="3" style="stroke:#038048;stroke-width:1;"/><text fill="#000000" font-family="sans-serif" font-size="14" lengthAdjust="spacing" textLength="160.4189" x="48.5" y="934.5732">IsSynchronized() : bool</text><ellipse cx="39.5" cy="947.5234" fill="#84BE84" rx="3" ry="3" style="stroke:#038048;stroke-width:1;"/><text fill="#000000" font-family="sans-serif" font-size="14" lengthAdjust="spacing" textLength="100.6934" x="48.5" y="950.8701">IsValid() : bool</text><ellipse cx="39.5" cy="963.8203" fill="#84BE84" rx="3" ry="3" style="stroke:#038048;stroke-width:1;"/><text fill="#000000" font-family="sans-serif" font-size="14" lengthAdjust="spacing" textLength="165.1152" x="48.5" y="967.167">IsFlagActive(flag) : bool</text></g><!--class htag--><g id="elem_htag"><rect codeLine="67" fill="#F5DEB3" height="80.5938" id="htag" rx="2.5" ry="2.5" style="stroke:#888888;stroke-width:0.5;" width="347.4463" x="137.5" y="159.4844"/><ellipse cx="274.3281" cy="175.4844" fill="#ADD1B2" rx="11" ry="11" style="stroke:#181818;stroke-width:1;"/><path d="M277.2969,181.125 Q276.7188,181.4219 276.0781,181.5625 Q275.4375,181.7188 274.7344,181.7188 Q272.2344,181.7188 270.9063,180.0781 Q269.5938,178.4219 269.5938,175.2969 Q269.5938,172.1719 270.9063,170.5156 Q272.2344,168.8594 274.7344,168.8594 Q275.4375,168.8594 276.0781,169.0156 Q276.7344,169.1719 277.2969,169.4688 L277.2969,172.1875 Q276.6719,171.6094 276.0781,171.3438 Q275.4844,171.0625 274.8594,171.0625 Q273.5156,171.0625 272.8281,172.1406 Q272.1406,173.2031 272.1406,175.2969 Q272.1406,177.3906 272.8281,178.4688 Q273.5156,179.5313 274.8594,179.5313 Q275.4844,179.5313 276.0781,179.2656 Q276.6719,178.9844 277.2969,178.4063 L277.2969,181.125 Z " fill="#000000"/><text fill="#000000" font-family="sans-serif" font-size="14" lengthAdjust="spacing" textLength="65.29" x="294.8281" y="180.3311">HplsTime</text><line style="stroke:#888888;stroke-width:0.5;" x1="138.5" x2="483.9463" y1="191.4844" y2="191.4844"/><ellipse cx="148.5" cy="205.1328" fill="transparent" rx="3" ry="3" style="stroke:#038048;stroke-width:1;"/><text fill="#000000" font-family="sans-serif" font-size="14" lengthAdjust="spacing" textLength="215.8174" x="157.5" y="208.4795">using Duration = nanoseconds</text><ellipse cx="148.5" cy="221.4297" fill="transparent" rx="3" ry="3" style="stroke:#038048;stroke-width:1;"/><text fill="#000000" font-family="sans-serif" font-size="14" lengthAdjust="spacing" textLength="321.4463" x="157.5" y="224.7764">using Timepoint = time_point&lt;HplsTime, ns&gt;</text><line style="stroke:#888888;stroke-width:0.5;" x1="138.5" x2="483.9463" y1="232.0781" y2="232.0781"/></g><g id="elem_ntag"><path d="M519.5,164.4844 L519.5,195.9844 L484.59,199.9844 L519.5,203.9844 L519.5,235.0156 A0,0 0 0 0 519.5,235.0156 L806.0605,235.0156 A0,0 0 0 0 806.0605,235.0156 L806.0605,174.4844 L796.0605,164.4844 L519.5,164.4844 A0,0 0 0 0 519.5,164.4844 " fill="#FEFFDD" style="stroke:#181818;stroke-width:0.5;"/><path d="M796.0605,164.4844 L796.0605,174.4844 L806.0605,174.4844 L796.0605,164.4844 " fill="#FEFFDD" style="stroke:#181818;stroke-width:0.5;"/><text fill="#000000" font-family="sans-serif" font-size="13" lengthAdjust="spacing" textLength="194.7778" x="525.5" y="181.5513">std::chrono::steady_clock and</text><text fill="#000000" font-family="sans-serif" font-size="13" lengthAdjust="spacing" textLength="225.2847" x="525.5" y="196.6841">std::chrono::system_clock are also</text><text fill="#000000" font-family="sans-serif" font-size="13" lengthAdjust="spacing" textLength="265.5605" x="525.5" y="211.8169">valid Tag types &#8212; built-in specializations</text><text fill="#000000" font-family="sans-serif" font-size="13" lengthAdjust="spacing" textLength="167.7178" x="525.5" y="226.9497">provided by clock_traits.h</text></g><!--class tss--><g id="elem_tss"><rect codeLine="80" fill="#ADD8E6" height="96.8906" id="tss" rx="2.5" ry="2.5" style="stroke:#888888;stroke-width:0.5;" width="198.417" x="413" y="860.9844"/><ellipse cx="428" cy="876.9844" fill="#ADD1B2" rx="11" ry="11" style="stroke:#181818;stroke-width:1;"/><path d="M430.9688,882.625 Q430.3906,882.9219 429.75,883.0625 Q429.1094,883.2188 428.4063,883.2188 Q425.9063,883.2188 424.5781,881.5781 Q423.2656,879.9219 423.2656,876.7969 Q423.2656,873.6719 424.5781,872.0156 Q425.9063,870.3594 428.4063,870.3594 Q429.1094,870.3594 429.75,870.5156 Q430.4063,870.6719 430.9688,870.9688 L430.9688,873.6875 Q430.3438,873.1094 429.75,872.8438 Q429.1563,872.5625 428.5313,872.5625 Q427.1875,872.5625 426.5,873.6406 Q425.8125,874.7031 425.8125,876.7969 Q425.8125,878.8906 426.5,879.9688 Q427.1875,881.0313 428.5313,881.0313 Q429.1563,881.0313 429.75,880.7656 Q430.3438,880.4844 430.9688,879.9063 L430.9688,882.625 Z " fill="#000000"/><text fill="#000000" font-family="sans-serif" font-size="14" lengthAdjust="spacing" textLength="140.1162" x="442" y="881.8311">TimeSlaveSyncData</text><rect fill="#FAFAFA" height="15.9688" style="stroke:#888888;stroke-width:1;stroke-dasharray:2.0,2.0;" width="24.3008" x="590.1162" y="857.9844"/><text fill="#000000" font-family="sans-serif" font-size="12" font-style="italic" lengthAdjust="spacing" textLength="22.3008" x="591.1162" y="870.123">Tag</text><line style="stroke:#888888;stroke-width:0.5;" x1="414" x2="610.417" y1="892.9844" y2="892.9844"/><ellipse cx="424" cy="906.6328" fill="transparent" rx="3" ry="3" style="stroke:#038048;stroke-width:1;"/><text fill="#000000" font-family="sans-serif" font-size="14" lengthAdjust="spacing" textLength="152.9746" x="433" y="909.9795">time_slave_sync_data</text><ellipse cx="424" cy="922.9297" fill="transparent" rx="3" ry="3" style="stroke:#038048;stroke-width:1;"/><text fill="#000000" font-family="sans-serif" font-size="14" lengthAdjust="spacing" textLength="89.1133" x="433" y="926.2764">port_identity</text><ellipse cx="424" cy="939.2266" fill="transparent" rx="3" ry="3" style="stroke:#038048;stroke-width:1;"/><text fill="#000000" font-family="sans-serif" font-size="14" lengthAdjust="spacing" textLength="75.5166" x="433" y="942.5732">timestamp</text><line style="stroke:#888888;stroke-width:0.5;" x1="414" x2="610.417" y1="949.875" y2="949.875"/></g><!--class pdm--><g id="elem_pdm"><rect codeLine="86" fill="#ADD8E6" height="80.5938" id="pdm" rx="2.5" ry="2.5" style="stroke:#888888;stroke-width:0.5;" width="236.7393" x="646.5" y="868.9844"/><ellipse cx="661.5" cy="884.9844" fill="#ADD1B2" rx="11" ry="11" style="stroke:#181818;stroke-width:1;"/><path d="M664.4688,890.625 Q663.8906,890.9219 663.25,891.0625 Q662.6094,891.2188 661.9063,891.2188 Q659.4063,891.2188 658.0781,889.5781 Q656.7656,887.9219 656.7656,884.7969 Q656.7656,881.6719 658.0781,880.0156 Q659.4063,878.3594 661.9063,878.3594 Q662.6094,878.3594 663.25,878.5156 Q663.9063,878.6719 664.4688,878.9688 L664.4688,881.6875 Q663.8438,881.1094 663.25,880.8438 Q662.6563,880.5625 662.0313,880.5625 Q660.6875,880.5625 660,881.6406 Q659.3125,882.7031 659.3125,884.7969 Q659.3125,886.8906 660,887.9688 Q660.6875,889.0313 662.0313,889.0313 Q662.6563,889.0313 663.25,888.7656 Q663.8438,888.4844 664.4688,887.9063 L664.4688,890.625 Z " fill="#000000"/><text fill="#000000" font-family="sans-serif" font-size="14" lengthAdjust="spacing" textLength="178.4385" x="675.5" y="889.8311">PDelayMeasurementData</text><rect fill="#FAFAFA" height="15.9688" style="stroke:#888888;stroke-width:1;stroke-dasharray:2.0,2.0;" width="24.3008" x="861.9385" y="865.9844"/><text fill="#000000" font-family="sans-serif" font-size="12" font-style="italic" lengthAdjust="spacing" textLength="22.3008" x="862.9385" y="878.123">Tag</text><line style="stroke:#888888;stroke-width:0.5;" x1="647.5" x2="882.2393" y1="900.9844" y2="900.9844"/><ellipse cx="657.5" cy="914.6328" fill="transparent" rx="3" ry="3" style="stroke:#038048;stroke-width:1;"/><text fill="#000000" font-family="sans-serif" font-size="14" lengthAdjust="spacing" textLength="94.0557" x="666.5" y="917.9795">pdelay_result</text><ellipse cx="657.5" cy="930.9297" fill="transparent" rx="3" ry="3" style="stroke:#038048;stroke-width:1;"/><text fill="#000000" font-family="sans-serif" font-size="14" lengthAdjust="spacing" textLength="89.1133" x="666.5" y="934.2764">port_identity</text><line style="stroke:#888888;stroke-width:0.5;" x1="647.5" x2="882.2393" y1="941.5781" y2="941.5781"/></g><!--class viface--><g id="elem_viface"><rect codeLine="92" fill="#F08080" height="162.0781" id="viface" rx="2.5" ry="2.5" style="stroke:#888888;stroke-width:0.5;" width="341.2871" x="840.5" y="597.4844"/><ellipse cx="945.3257" cy="613.4844" fill="#A9DCDF" rx="11" ry="11" style="stroke:#181818;stroke-width:1;"/><path d="M945.4351,608.8281 L944.2788,613.9063 L946.6069,613.9063 L945.4351,608.8281 Z M943.9507,606.5938 L946.9351,606.5938 L950.2944,618.9844 L947.8413,618.9844 L947.0757,615.9219 L943.7944,615.9219 L943.0444,618.9844 L940.6069,618.9844 L943.9507,606.5938 Z " fill="#000000"/><text fill="#000000" font-family="sans-serif" font-size="14" font-style="italic" lengthAdjust="spacing" textLength="123.1357" x="965.8257" y="618.3311">VehicleClockIface</text><line style="stroke:#888888;stroke-width:0.5;" x1="841.5" x2="1180.7871" y1="629.4844" y2="629.4844"/><line style="stroke:#888888;stroke-width:0.5;" x1="841.5" x2="1180.7871" y1="637.4844" y2="637.4844"/><ellipse cx="851.5" cy="651.1328" fill="#84BE84" rx="3" ry="3" style="stroke:#038048;stroke-width:1;"/><text fill="#000000" font-family="sans-serif" font-size="14" font-style="italic" lengthAdjust="spacing" textLength="120.4766" x="860.5" y="654.4795">Now() : Snapshot</text><ellipse cx="851.5" cy="667.4297" fill="#84BE84" rx="3" ry="3" style="stroke:#038048;stroke-width:1;"/><text fill="#000000" font-family="sans-serif" font-size="14" font-style="italic" lengthAdjust="spacing" textLength="130.0605" x="860.5" y="670.7764">IsAvailable() : bool</text><ellipse cx="851.5" cy="683.7266" fill="#84BE84" rx="3" ry="3" style="stroke:#038048;stroke-width:1;"/><text fill="#000000" font-family="sans-serif" font-size="14" font-style="italic" lengthAdjust="spacing" textLength="262.3906" x="860.5" y="687.0732">WaitUntilAvailable(token, until) : bool</text><ellipse cx="851.5" cy="700.0234" fill="#84BE84" rx="3" ry="3" style="stroke:#038048;stroke-width:1;"/><text fill="#000000" font-family="sans-serif" font-size="14" font-style="italic" lengthAdjust="spacing" textLength="314.3438" x="860.5" y="703.3701">SetTimeSlaveSyncDataReceivedCallback(cb)</text><ellipse cx="851.5" cy="716.3203" fill="#84BE84" rx="3" ry="3" style="stroke:#038048;stroke-width:1;"/><text fill="#000000" font-family="sans-serif" font-size="14" font-style="italic" lengthAdjust="spacing" textLength="315.2871" x="860.5" y="719.667">UnsetTimeSlaveSyncDataReceivedCallback()</text><ellipse cx="851.5" cy="732.6172" fill="#84BE84" rx="3" ry="3" style="stroke:#038048;stroke-width:1;"/><text fill="#000000" font-family="sans-serif" font-size="14" font-style="italic" lengthAdjust="spacing" textLength="313.2842" x="860.5" y="735.9639">SetPDelayMeasurementFinishedCallback(cb)</text><ellipse cx="851.5" cy="748.9141" fill="#84BE84" rx="3" ry="3" style="stroke:#038048;stroke-width:1;"/><text fill="#000000" font-family="sans-serif" font-size="14" font-style="italic" lengthAdjust="spacing" textLength="314.2275" x="860.5" y="752.2607">UnsetPDelayMeasurementFinishedCallback()</text></g><!--class hiface--><g id="elem_hiface"><rect codeLine="102" fill="#F08080" height="64.2969" id="hiface" rx="2.5" ry="2.5" style="stroke:#888888;stroke-width:0.5;" width="146.4766" x="1217" y="646.4844"/><ellipse cx="1237.3534" cy="662.4844" fill="#A9DCDF" rx="11" ry="11" style="stroke:#181818;stroke-width:1;"/><path d="M1237.4628,657.8281 L1236.3065,662.9063 L1238.6347,662.9063 L1237.4628,657.8281 Z M1235.9784,655.5938 L1238.9628,655.5938 L1242.3222,667.9844 L1239.869,667.9844 L1239.1034,664.9219 L1235.8222,664.9219 L1235.0722,667.9844 L1232.6347,667.9844 L1235.9784,655.5938 Z " fill="#000000"/><text fill="#000000" font-family="sans-serif" font-size="14" font-style="italic" lengthAdjust="spacing" textLength="102.5801" x="1252.5431" y="667.3311">HplsClockIface</text><line style="stroke:#888888;stroke-width:0.5;" x1="1218" x2="1362.4766" y1="678.4844" y2="678.4844"/><line style="stroke:#888888;stroke-width:0.5;" x1="1218" x2="1362.4766" y1="686.4844" y2="686.4844"/><ellipse cx="1228" cy="700.1328" fill="#84BE84" rx="3" ry="3" style="stroke:#038048;stroke-width:1;"/><text fill="#000000" font-family="sans-serif" font-size="14" font-style="italic" lengthAdjust="spacing" textLength="120.4766" x="1237" y="703.4795">Now() : Snapshot</text></g><!--class vmock--><g id="elem_vmock"><rect codeLine="106" fill="#F08080" height="145.7813" id="vmock" rx="2.5" ry="2.5" style="stroke:#888888;stroke-width:0.5;" width="320.8135" x="918.5" y="836.4844"/><ellipse cx="1013.5093" cy="852.4844" fill="#ADD1B2" rx="11" ry="11" style="stroke:#181818;stroke-width:1;"/><path d="M1016.478,858.125 Q1015.8999,858.4219 1015.2593,858.5625 Q1014.6187,858.7188 1013.9155,858.7188 Q1011.4155,858.7188 1010.0874,857.0781 Q1008.7749,855.4219 1008.7749,852.2969 Q1008.7749,849.1719 1010.0874,847.5156 Q1011.4155,845.8594 1013.9155,845.8594 Q1014.6187,845.8594 1015.2593,846.0156 Q1015.9155,846.1719 1016.478,846.4688 L1016.478,849.1875 Q1015.853,848.6094 1015.2593,848.3438 Q1014.6655,848.0625 1014.0405,848.0625 Q1012.6968,848.0625 1012.0093,849.1406 Q1011.3218,850.2031 1011.3218,852.2969 Q1011.3218,854.3906 1012.0093,855.4688 Q1012.6968,856.5313 1014.0405,856.5313 Q1014.6655,856.5313 1015.2593,856.2656 Q1015.853,855.9844 1016.478,855.4063 L1016.478,858.125 Z " fill="#000000"/><text fill="#000000" font-family="sans-serif" font-size="14" lengthAdjust="spacing" textLength="122.2949" x="1034.0093" y="857.3311">VehicleTimeMock</text><line style="stroke:#888888;stroke-width:0.5;" x1="919.5" x2="1238.3135" y1="868.4844" y2="868.4844"/><text fill="#000000" font-family="sans-serif" font-size="14" lengthAdjust="spacing" textLength="239.4766" x="924.5" y="885.4795">MOCK_METHOD: Now, IsAvailable,</text><text fill="#000000" font-family="sans-serif" font-size="14" lengthAdjust="spacing" textLength="132.8291" x="924.5" y="901.7764">WaitUntilAvailable,</text><text fill="#000000" font-family="sans-serif" font-size="14" lengthAdjust="spacing" textLength="291.2861" x="924.5" y="918.0732">SetTimeSlaveSyncDataReceivedCallback,</text><text fill="#000000" font-family="sans-serif" font-size="14" lengthAdjust="spacing" textLength="308.8135" x="924.5" y="934.3701">UnsetTimeSlaveSyncDataReceivedCallback,</text><text fill="#000000" font-family="sans-serif" font-size="14" lengthAdjust="spacing" textLength="290.2266" x="924.5" y="950.667">SetPDelayMeasurementFinishedCallback,</text><text fill="#000000" font-family="sans-serif" font-size="14" lengthAdjust="spacing" textLength="303.3037" x="924.5" y="966.9639">UnsetPDelayMeasurementFinishedCallback</text><line style="stroke:#888888;stroke-width:0.5;" x1="919.5" x2="1238.3135" y1="974.2656" y2="974.2656"/></g><!--link clock to viface--><g id="link_clock_viface"><path codeLine="116" d="M1011,532.5444 C1011,557.8744 1011,566.9044 1011,591.2744 " fill="transparent" id="clock-viface" style="stroke:#181818;stroke-width:1;"/><polygon fill="#181818" points="1011,520.5444,1007,526.5444,1011,532.5444,1015,526.5444,1011,520.5444" style="stroke:#181818;stroke-width:1;"/><polygon fill="#181818" points="1011,597.2744,1015,588.2744,1011,592.2744,1007,588.2744,1011,597.2744" style="stroke:#181818;stroke-width:1;"/><text fill="#000000" font-family="sans-serif" font-size="13" lengthAdjust="spacing" textLength="128.6289" x="1012" y="563.5513">impl_ (VehicleTime)</text><text fill="#000000" font-family="sans-serif" font-size="13" lengthAdjust="spacing" textLength="8.271" x="1002.7116" y="540.3435">1</text><text fill="#000000" font-family="sans-serif" font-size="13" lengthAdjust="spacing" textLength="8.271" x="1002.643" y="586.443">1</text></g><!--link clock to hiface--><g id="link_clock_hiface"><path codeLine="117" d="M1126.1514,528.6141 C1175.2814,573.2541 1216.9198,611.0789 1251.3698,642.3889 " fill="transparent" id="clock-hiface" style="stroke:#181818;stroke-width:1;"/><polygon fill="#181818" points="1117.27,520.5444,1119.0208,527.5397,1126.1514,528.6141,1124.4006,521.6188,1117.27,520.5444" style="stroke:#181818;stroke-width:1;"/><polygon fill="#181818" points="1255.81,646.4244,1251.8401,637.4111,1252.1099,643.0615,1246.4594,643.3313,1255.81,646.4244" style="stroke:#181818;stroke-width:1;"/><text fill="#000000" font-family="sans-serif" font-size="13" lengthAdjust="spacing" textLength="109.5415" x="1169" y="563.5513">impl_ (HplsTime)</text><text fill="#000000" font-family="sans-serif" font-size="13" lengthAdjust="spacing" textLength="8.271" x="1116.7858" y="540.3435">1</text><text fill="#000000" font-family="sans-serif" font-size="13" lengthAdjust="spacing" textLength="8.271" x="1239.9121" y="635.3151">1</text></g><!--link guard to clock--><g id="link_guard_clock"><path codeLine="118" d="M1011,248.6644 C1011,271.1244 1011,292.7744 1011,319.3344 " fill="transparent" id="guard-to-clock" style="stroke:#181818;stroke-width:1;stroke-dasharray:7.0,7.0;"/><polygon fill="#181818" points="1011,325.3344,1015,316.3344,1011,320.3344,1007,316.3344,1011,325.3344" style="stroke:#181818;stroke-width:1;"/><text fill="#000000" font-family="sans-serif" font-size="13" lengthAdjust="spacing" textLength="211.0786" x="1012" y="291.5513">OverrideForTest / ResetOverride</text></g><!--link clock to snapshot--><g id="link_clock_snapshot"><path codeLine="120" d="M796.96,466.3644 C665.47,495.7644 495.03,539.9744 350,597.4844 C322.05,608.5744 297.8935,620.8122 272.8035,634.9922 " fill="transparent" id="clock-to-snapshot" style="stroke:#181818;stroke-width:1;"/><polygon fill="#181818" points="267.58,637.9444,277.3833,636.9985,271.9329,635.4843,273.4471,630.0338,267.58,637.9444" style="stroke:#181818;stroke-width:1;"/><text fill="#000000" font-family="sans-serif" font-size="13" lengthAdjust="spacing" textLength="124.2935" x="474" y="563.5513">returns from Now()</text></g><!--reverse link snapshot to vstatus--><g id="link_snapshot_vstatus"><path codeLine="121" d="M203,731.1144 C203,765.6744 203,804.4444 203,844.7244 " fill="transparent" id="snapshot-backto-vstatus" style="stroke:#181818;stroke-width:1;"/><polygon fill="#181818" points="203,719.1144,199,725.1144,203,731.1144,207,725.1144,203,719.1144" style="stroke:#181818;stroke-width:1;"/><text fill="#000000" font-family="sans-serif" font-size="13" lengthAdjust="spacing" textLength="51.5684" x="204" y="802.5513">Status()</text></g><!--reverse link viface to vmock--><g id="link_viface_vmock"><path codeLine="123" d="M1039.9042,776.8296 C1047.3342,801.8496 1050.36,812.0344 1057.62,836.4644 " fill="transparent" id="viface-backto-vmock" style="stroke:#181818;stroke-width:1;"/><polygon fill="transparent" points="1034.78,759.5744,1034.1524,778.5377,1045.6559,775.1216,1034.78,759.5744" style="stroke:#181818;stroke-width:1;"/><text fill="#000000" font-family="sans-serif" font-size="13" lengthAdjust="spacing" textLength="73.4043" x="1049" y="802.5513">test double</text></g><!--link vtag to vstatus--><g id="link_vtag_vstatus"><path codeLine="125" d="M454.78,743.2744 C406.48,774.9744 353.2866,809.873 305.0166,841.543 " fill="transparent" id="vtag-to-vstatus" style="stroke:#181818;stroke-width:1;"/><polygon fill="#181818" points="300,844.8344,309.7192,843.2417,304.1805,842.0915,305.3307,836.5528,300,844.8344" style="stroke:#181818;stroke-width:1;"/></g><!--link vtag to tss--><g id="link_vtag_tss"><path codeLine="126" d="M540.86,743.2744 C534.36,780.4644 527.3308,820.6836 521.3908,854.7436 " fill="transparent" id="vtag-to-tss" style="stroke:#181818;stroke-width:1;"/><polygon fill="#181818" points="520.36,860.6544,525.8468,852.4754,521.219,855.7287,517.9657,851.101,520.36,860.6544" style="stroke:#181818;stroke-width:1;"/></g><!--link vtag to pdm--><g id="link_vtag_pdm"><path codeLine="127" d="M611.33,743.2744 C648.75,783.5044 691.8233,829.8113 723.9633,864.3613 " fill="transparent" id="vtag-to-pdm" style="stroke:#181818;stroke-width:1;"/><polygon fill="#181818" points="728.05,868.7544,724.8487,859.4403,724.6445,865.0935,718.9913,864.8892,728.05,868.7544" style="stroke:#181818;stroke-width:1;"/></g><!--reverse link vstatus to status--><g id="link_vstatus_status"><path codeLine="128" d="M203,986.2244 C203,1008.0844 203,1020.7044 203,1043.1944 " fill="transparent" id="vstatus-backto-status" style="stroke:#181818;stroke-width:1;"/><polygon fill="#181818" points="203,974.2244,199,980.2244,203,986.2244,207,980.2244,203,974.2244" style="stroke:#181818;stroke-width:1;"/></g><!--SRC=[fLVTRjis5BxNKn3fnUmjJh6xGV0Cf4xI1bkQe7RRYw4mQEdO8aoH0aavS9iCUuWzuPvaXp_wiQNKngPSH2A_yyFl79vpR9ZXG7GY5SInOJcGV_xwcqmvrPhSRq5j6Jn6aTumKL15SxAaoMQjP2dIgUHIaSUC6MZj9rRopG7erSsb_Ul0f4f11SWlxeaY3ciGAJ6o81nM9YBuF97ngz_PEZDl5O2O-AM7SibPGbQe3XwbsX2pAq2JlUUf5l-S0JMJPeFCyQoZLEQK2MBeccYZoiHeCYYStk6-kBF-XfSm2U8FymSYf64hbb33f0ZMszA7ubEfA0_Etme3Ib1Ec7rPqSJAfc0eu_hri78UYV1qHD4FP3GQaPlwiFWLEHB9sPJBP3EUq_NaZ52DrE8dQV55lZa_VYBVj45VasVo5iojm0-Hm618Oj9e2CZtyj5jp0GjT2PDM9wLIvqejeJnzHQ4cUEH9uDaQP5RoTA0-YXq7-u0TQiljtXQkkJUXwMKd90_Fa764WusEaGAlliIu9yfCn-5ORoHCd83ufoKTlMe1gJB_ICiB_W2qJgZ2j95OTJOfYkIF0c8cYOME5eaDCd02Zq2tPmc8l7kA9R2IwQUextmtGVusvAgj8dbsdxsnh8hDUWnCmpeFtlWmpOlEVexicoTOrQBaO8HnarHOGuThJ9YRFaj9ARl_9pCyFIbddkVTK3qkcsb7goKYtcZeqemfyYddjVPiU-MnpUShgz5cLSstMglnLjjiPU9OLiOhF2rIfKc3yNkVcL1keNI7TXi9v9CIS6-GlfInke24aOv- -fgmfTQzXEkjOMgvmJXopIrljMkjwxGb0DLtStdgbfW6kbseMWPSwnjRTtpbR6c2v3KmBtL75PBpSIQN9NArxfVYQ12QaYaIFKUf8ueOcmtMRYFSSio9fYUT6Hcd6x1Cdn53Vq02M0SqYdbtFQRFVJ35N2wkmEgImKvPkaD4qndBNIJCIsp_aZ-s5Msx9_SHRqgXY7DMWhYk66byX_fW4KAM-PfYKagiVp3zrFcXQGucgxDiTuLNDT1p7g2-7_3LHdmiKB3sEd06XCcf8GsQHoxiyaurWPekblunaD5seFO8IQl40frSIqTR6j9i9aQ6gYTFfObusQ4VNd_HdZN2oMtMCDIijpvLhV0EiMCliXikxGz6QhyjptQQsrTWawsDTNMwAg4s4vVi-c8qLPaeL5caQ9Gs2gaCWlq1bkGsRNWc65vqOfO9sdt3HTftcUuIAtKGe4kkUcrM5_rUfwm9wLB76PeOiZ-DN29VMjd3NyDc7qbhTca6HGg3SylJG8jH5yZxw9ExDzTmHcOemN2pY1TIPn3Jf4TzjeyMcQ-O_EuxD16xZ1CzjOTn2ZxRp7ghO1tgDa7Fcy6nBREk_lfRukxw_cx-wlOwZnlX_RSGRfHzEkd1CaZJmjAhVKebIsj9tK6Vrq-8DALb8mLLNMmf9pzV4P-78qcxYLSa3YCZ8CMbyC-V7Q0hwheCF9ZtCN590pdCQb6iHkfvbWjo6jq2OzGBKT1lrLTprCnKM1A9JJ-vf6vZtfKxw8RTMUBwq4gYi8fnazsF_VMZJKPUbNafW1hA4Wt2rWFcm-iKL6btzeAuCZrdmjruNl3lm00]--></g></svg>