<svg xmlns="http://www.w3.org/2000/svg" xmlns:xlink="http://www.w3.org/1999/xlink" contentStyleType="text/css" data-diagram-type="TIMING" height="261px" preserveAspectRatio="none" style="width:635px;height:261px;background:#FFFFFF;" version="1.1" viewBox="0 0 635 261" width="635px" zoomAndPan="magnify"><title>gPTP Engine Threading Model</title><defs/><g><text fill="#000000" font-family="Verdana" font-size="22" font-weight="bold" lengthAdjust="spacing" textLength="371.7441" x="123.6279" y="35.4209">gPTP Engine Threading Model</text><line style="stroke:#000000;stroke-width:1;" x1="5" x2="5" y1="51.6094" y2="236.7969"/><line style="stroke:#000000;stroke-width:1;" x1="615" x2="615" y1="51.6094" y2="236.7969"/><line style="stroke:#000000;stroke-width:0.5;stroke-dasharray:3.0,5.0;" x1="10" x2="10" y1="51.6094" y2="236.7969"/><line style="stroke:#000000;stroke-width:0.5;stroke-dasharray:3.0,5.0;" x1="60" x2="60" y1="51.6094" y2="236.7969"/><line style="stroke:#000000;stroke-width:0.5;stroke-dasharray:3.0,5.0;" x1="110" x2="110" y1="51.6094" y2="236.7969"/><line style="stroke:#000000;stroke-width:0.5;stroke-dasharray:3.0,5.0;" x1="160" x2="160" y1="51.6094" y2="236.7969"/><line style="stroke:#000000;stroke-width:0.5;stroke-dasharray:3.0,5.0;" x1="210" x2="210" y1="51.6094" y2="236.7969"/><line style="stroke:#000000;stroke-width:0.5;stroke-dasharray:3.0,5.0;" x1="260" x2="260" y1="51.6094" y2="236.7969"/><line style="stroke:#000000;stroke-width:0.5;stroke-dasharray:3.0,5.0;" x1="310" x2="310" y1="51.6094" y2="236.7969"/><line style="stroke:#000000;stroke-width:0.5;stroke-dasharray:3.0,5.0;" x1="360" x2="360" y1="51.6094" y2="236.7969"/><line style="stroke:#000000;stroke-width:0.5;stroke-dasharray:3.0,5.0;" x1="410" x2="410" y1="51.6094" y2="236.7969"/><line style="stroke:#000000;stroke-width:0.5;stroke-dasharray:3.0,5.0;" x1="460" x2="460" y1="51.6094" y2="236.7969"/><line style="stroke:#000000;stroke-width:0.5;stroke-dasharray:3.0,5.0;" x1="510" x2="510" y1="51.6094" y2="236.7969"/><line style="stroke:#000000;stroke-width:0.5;stroke-dasharray:3.0,5.0;" x1="560" x2="560" y1="51.6094" y2="236.7969"/><line style="stroke:#000000;stroke-width:0.5;stroke-dasharray:3.0,5.0;" x1="610" x2="610" y1="51.6094" y2="236.7969"/><line style="stroke:#000000;stroke-width:1;" x1="5" x2="615" y1="51.6094" y2="51.6094"/><text fill="#000000" font-family="Verdana" font-size="14" font-weight="bold" lengthAdjust="spacing" textLength="75.1953" x="10" y="64.6045">RxThread</text><line style="stroke:#000000;stroke-width:1;" x1="5" x2="86.1953" y1="68.9063" y2="68.9063"/><line style="stroke:#000000;stroke-width:1;" x1="86.1953" x2="96.1953" y1="68.9063" y2="51.6094"/><polygon fill="#FFFFFF" points="72,73.9063,98,73.9063,110,85.9063,98,97.9063,72,97.9063,60,85.9063" style="stroke:#000000;stroke-width:1;"/><polygon fill="#FFFFFF" points="122,73.9063,148,73.9063,160,85.9063,148,97.9063,122,97.9063,110,85.9063" style="stroke:#000000;stroke-width:1;"/><polygon fill="#FFFFFF" points="172,73.9063,198,73.9063,210,85.9063,198,97.9063,172,97.9063,160,85.9063" style="stroke:#000000;stroke-width:1;"/><polygon fill="#FFFFFF" points="222,73.9063,248,73.9063,260,85.9063,248,97.9063,222,97.9063,210,85.9063" style="stroke:#000000;stroke-width:1;"/><polygon fill="#FFFFFF" points="272,73.9063,298,73.9063,310,85.9063,298,97.9063,272,97.9063,260,85.9063" style="stroke:#000000;stroke-width:1;"/><polygon fill="#FFFFFF" points="322,73.9063,348,73.9063,360,85.9063,348,97.9063,322,97.9063,310,85.9063" style="stroke:#000000;stroke-width:1;"/><polygon fill="#FFFFFF" points="372,73.9063,498,73.9063,510,85.9063,498,97.9063,372,97.9063,360,85.9063" style="stroke:#000000;stroke-width:1;"/><polygon fill="#FFFFFF" points="522,73.9063,610,73.9063,610,97.9063,522,97.9063,510,85.9063" style="stroke:#FFFFFF;stroke-width:1;"/><path d="M610,73.9063 L522,73.9063 L510,85.9063 L522,97.9063 L610,97.9063 " fill="#FFFFFF" style="stroke:#000000;stroke-width:1;"/><text fill="#000000" font-family="Verdana" font-size="12" font-weight="bold" lengthAdjust="spacing" textLength="52.4297" x="58.7852" y="90.0605">Waiting</text><text fill="#000000" font-family="Verdana" font-size="12" font-weight="bold" lengthAdjust="spacing" textLength="68.6133" x="100.6934" y="90.0605">Recv Sync</text><text fill="#000000" font-family="Verdana" font-size="12" font-weight="bold" lengthAdjust="spacing" textLength="85.7285" x="142.1357" y="90.0605">Parse + SSM</text><text fill="#000000" font-family="Verdana" font-size="12" font-weight="bold" lengthAdjust="spacing" textLength="98.8242" x="185.5879" y="90.0605">Recv FollowUp</text><text fill="#000000" font-family="Verdana" font-size="12" font-weight="bold" lengthAdjust="spacing" textLength="85.7285" x="233.625" y="83.0762">Parse + SSM</text><text fill="#000000" font-family="Verdana" font-size="12" font-weight="bold" lengthAdjust="spacing" textLength="102.75" x="233.625" y="97.0449">compute offset</text><text fill="#000000" font-family="Verdana" font-size="12" font-weight="bold" lengthAdjust="spacing" textLength="115.1133" x="277.4434" y="90.0605">Update snapshot</text><text fill="#000000" font-family="Verdana" font-size="12" font-weight="bold" lengthAdjust="spacing" textLength="52.4297" x="408.7852" y="90.0605">Waiting</text><text fill="#000000" font-family="Verdana" font-size="12" font-weight="bold" lengthAdjust="spacing" textLength="52.4297" x="522" y="90.0605">Waiting</text><line style="stroke:#000000;stroke-width:1;" x1="5" x2="615" y1="107.9063" y2="107.9063"/><text fill="#000000" font-family="Verdana" font-size="14" font-weight="bold" lengthAdjust="spacing" textLength="108.5342" x="10" y="120.9014">PdelayThread</text><line style="stroke:#000000;stroke-width:1;" x1="5" x2="119.5342" y1="125.2031" y2="125.2031"/><line style="stroke:#000000;stroke-width:1;" x1="119.5342" x2="129.5342" y1="125.2031" y2="107.9063"/><polygon fill="#FFFFFF" points="72,130.2031,98,130.2031,110,142.2031,98,154.2031,72,154.2031,60,142.2031" style="stroke:#000000;stroke-width:1;"/><polygon fill="#FFFFFF" points="122,130.2031,298,130.2031,310,142.2031,298,154.2031,122,154.2031,110,142.2031" style="stroke:#000000;stroke-width:1;"/><polygon fill="#FFFFFF" points="322,130.2031,348,130.2031,360,142.2031,348,154.2031,322,154.2031,310,142.2031" style="stroke:#000000;stroke-width:1;"/><polygon fill="#FFFFFF" points="372,130.2031,398,130.2031,410,142.2031,398,154.2031,372,154.2031,360,142.2031" style="stroke:#000000;stroke-width:1;"/><polygon fill="#FFFFFF" points="422,130.2031,448,130.2031,460,142.2031,448,154.2031,422,154.2031,410,142.2031" style="stroke:#000000;stroke-width:1;"/><polygon fill="#FFFFFF" points="472,130.2031,498,130.2031,510,142.2031,498,154.2031,472,154.2031,460,142.2031" style="stroke:#000000;stroke-width:1;"/><polygon fill="#FFFFFF" points="522,130.2031,610,130.2031,610,154.2031,522,154.2031,510,142.2031" style="stroke:#FFFFFF;stroke-width:1;"/><path d="M610,130.2031 L522,130.2031 L510,142.2031 L522,154.2031 L610,154.2031 " fill="#FFFFFF" style="stroke:#000000;stroke-width:1;"/><text fill="#000000" font-family="Verdana" font-size="12" font-weight="bold" lengthAdjust="spacing" textLength="52.4297" x="58.7852" y="146.3574">Waiting</text><text fill="#000000" font-family="Verdana" font-size="12" font-weight="bold" lengthAdjust="spacing" textLength="37.623" x="178.2744" y="139.373">Sleep</text><text fill="#000000" font-family="Verdana" font-size="12" font-weight="bold" lengthAdjust="spacing" textLength="63.4512" x="178.2744" y="153.3418">(interval)</text><text fill="#000000" font-family="Verdana" font-size="12" font-weight="bold" lengthAdjust="spacing" textLength="89.4434" x="290.2783" y="146.3574">SendRequest</text><text fill="#000000" font-family="Verdana" font-size="12" font-weight="bold" lengthAdjust="spacing" textLength="69.6035" x="350.1982" y="146.3574">Recv Resp</text><text fill="#000000" font-family="Verdana" font-size="12" font-weight="bold" lengthAdjust="spacing" textLength="96.1348" x="385.0957" y="139.373">Recv RespFUp</text><text fill="#000000" font-family="Verdana" font-size="12" font-weight="bold" lengthAdjust="spacing" textLength="99.8086" x="385.0957" y="153.3418">compute delay</text><text fill="#000000" font-family="Verdana" font-size="12" font-weight="bold" lengthAdjust="spacing" textLength="92.666" x="438.667" y="146.3574">Update result</text><text fill="#000000" font-family="Verdana" font-size="12" font-weight="bold" lengthAdjust="spacing" textLength="37.623" x="522" y="139.373">Sleep</text><text fill="#000000" font-family="Verdana" font-size="12" font-weight="bold" lengthAdjust="spacing" textLength="63.4512" x="522" y="153.3418">(interval)</text><line style="stroke:#000000;stroke-width:1;" x1="5" x2="615" y1="164.2031" y2="164.2031"/><text fill="#000000" font-family="Verdana" font-size="14" font-weight="bold" lengthAdjust="spacing" textLength="98.4033" x="10" y="177.1982">Main Thread</text><text fill="#000000" font-family="Verdana" font-size="14" font-weight="bold" lengthAdjust="spacing" textLength="94.1787" x="10" y="193.4951">(TimeSlave)</text><line style="stroke:#000000;stroke-width:1;" x1="5" x2="109.4033" y1="197.7969" y2="197.7969"/><line style="stroke:#000000;stroke-width:1;" x1="109.4033" x2="119.4033" y1="197.7969" y2="164.2031"/><polygon fill="#FFFFFF" points="22,202.7969,48,202.7969,60,214.7969,48,226.7969,22,226.7969,10,214.7969" style="stroke:#000000;stroke-width:1;"/><polygon fill="#FFFFFF" points="72,202.7969,498,202.7969,510,214.7969,498,226.7969,72,226.7969,60,214.7969" style="stroke:#000000;stroke-width:1;"/><polygon fill="#FFFFFF" points="522,202.7969,548,202.7969,560,214.7969,548,226.7969,522,226.7969,510,214.7969" style="stroke:#000000;stroke-width:1;"/><polygon fill="#FFFFFF" points="572,202.7969,610,202.7969,610,226.7969,572,226.7969,560,214.7969" style="stroke:#FFFFFF;stroke-width:1;"/><path d="M610,202.7969 L572,202.7969 L560,214.7969 L572,226.7969 L610,226.7969 " fill="#FFFFFF" style="stroke:#000000;stroke-width:1;"/><text fill="#000000" font-family="Verdana" font-size="12" font-weight="bold" lengthAdjust="spacing" textLength="58.418" x="5.791" y="218.9512">Initialize</text><text fill="#000000" font-family="Verdana" font-size="12" font-weight="bold" lengthAdjust="spacing" textLength="56.1152" x="256.9424" y="218.9512">Running</text><text fill="#000000" font-family="Verdana" font-size="12" font-weight="bold" lengthAdjust="spacing" textLength="123.3809" x="473.3096" y="211.9668">ReadPTPSnapshot</text><text fill="#000000" font-family="Verdana" font-size="12" font-weight="bold" lengthAdjust="spacing" textLength="90.3164" x="473.3096" y="225.9355">&#8594; Publish IPC</text><text fill="#000000" font-family="Verdana" font-size="12" font-weight="bold" lengthAdjust="spacing" textLength="56.1152" x="572" y="218.9512">Running</text><line style="stroke:#000000;stroke-width:1;" x1="10" x2="10" y1="236.7969" y2="241.7969"/><line style="stroke:#000000;stroke-width:1;" x1="60" x2="60" y1="236.7969" y2="241.7969"/><line style="stroke:#000000;stroke-width:1;" x1="110" x2="110" y1="236.7969" y2="241.7969"/><line style="stroke:#000000;stroke-width:1;" x1="160" x2="160" y1="236.7969" y2="241.7969"/><line style="stroke:#000000;stroke-width:1;" x1="210" x2="210" y1="236.7969" y2="241.7969"/><line style="stroke:#000000;stroke-width:1;" x1="260" x2="260" y1="236.7969" y2="241.7969"/><line style="stroke:#000000;stroke-width:1;" x1="310" x2="310" y1="236.7969" y2="241.7969"/><line style="stroke:#000000;stroke-width:1;" x1="360" x2="360" y1="236.7969" y2="241.7969"/><line style="stroke:#000000;stroke-width:1;" x1="410" x2="410" y1="236.7969" y2="241.7969"/><line style="stroke:#000000;stroke-width:1;" x1="460" x2="460" y1="236.7969" y2="241.7969"/><line style="stroke:#000000;stroke-width:1;" x1="510" x2="510" y1="236.7969" y2="241.7969"/><line style="stroke:#000000;stroke-width:1;" x1="560" x2="560" y1="236.7969" y2="241.7969"/><line style="stroke:#000000;stroke-width:1;" x1="610" x2="610" y1="236.7969" y2="241.7969"/><line style="stroke:#000000;stroke-width:1;" x1="10" x2="610" y1="236.7969" y2="236.7969"/><text fill="#000000" font-family="Verdana" font-size="11" lengthAdjust="spacing" textLength="6.9985" x="6.5007" y="253.0073">0</text><text fill="#000000" font-family="Verdana" font-size="11" lengthAdjust="spacing" textLength="13.9971" x="53.0015" y="253.0073">50</text><text fill="#000000" font-family="Verdana" font-size="11" lengthAdjust="spacing" textLength="20.9956" x="99.5022" y="253.0073">100</text><text fill="#000000" font-family="Verdana" font-size="11" lengthAdjust="spacing" textLength="20.9956" x="149.5022" y="253.0073">150</text><text fill="#000000" font-family="Verdana" font-size="11" lengthAdjust="spacing" textLength="20.9956" x="199.5022" y="253.0073">200</text><text fill="#000000" font-family="Verdana" font-size="11" lengthAdjust="spacing" textLength="20.9956" x="249.5022" y="253.0073">250</text><text fill="#000000" font-family="Verdana" font-size="11" lengthAdjust="spacing" textLength="20.9956" x="299.5022" y="253.0073">300</text><text fill="#000000" font-family="Verdana" font-size="11" lengthAdjust="spacing" textLength="20.9956" x="349.5022" y="253.0073">350</text><text fill="#000000" font-family="Verdana" font-size="11" lengthAdjust="spacing" textLength="20.9956" x="399.5022" y="253.0073">400</text><text fill="#000000" font-family="Verdana" font-size="11" lengthAdjust="spacing" textLength="20.9956" x="449.5022" y="253.0073">450</text><text fill="#000000" font-family="Verdana" font-size="11" lengthAdjust="spacing" textLength="20.9956" x="499.5022" y="253.0073">500</text><text fill="#000000" font-family="Verdana" font-size="11" lengthAdjust="spacing" textLength="20.9956" x="549.5022" y="253.0073">550</text><!--SRC=[TP9DRi8m48NtFiKqgw9kqf_igKgHMAIo751Pi76J8R5a9cxiqD83z00zOazInw248jZPyzuRV_RuobMuGJ1QAcBCAQSHIZxdy4ob8eHvrQ0i59MGrWLgnlAQScKH8l6vroAG5iHo4BZtoTsHo2U3cFfp3arNT3rN6yoqtE8e6DF7sGjZuvXr2r0MeXaffwHMNnXv8OcPM8Rwg_HrAYF69__tVLAqHA72nhTndnEORo7RKTudCureF8eYXyrMwb5832TnsNZk6yYoj5FkJdfDQwthZuK9sjdKYl9wOrg7KA_N5btdl1-wB4mXlMP96blLRk12AWI-jsZtYSjt3nm2RM1uy9rFwzE56I32S88pwPq7XWPjgzt-eOzc8Foi_8_83eGh-lt-0Tw-QMKhcF6dw1BOsQTDalZCaFu0]--></g></svg>