<svg xmlns="http://www.w3.org/2000/svg" xmlns:xlink="http://www.w3.org/1999/xlink" contentStyleType="text/css" data-diagram-type="CLASS" height="1191px" preserveAspectRatio="none" style="width:1677px;height:1191px;background:#FFFFFF;" version="1.1" viewBox="0 0 1677 1191" width="1677px" zoomAndPan="magnify"><title>score::time &#8212; Class Overview</title><defs/><g><text fill="#000000" font-family="sans-serif" font-size="14" font-weight="bold" lengthAdjust="spacing" textLength="233.0098" x="715.1938" y="22.9951">score::time &#8212; Class Overview</text><rect fill="transparent" height="79.1875" id="_legend" rx="7.5" ry="7.5" style="stroke:#000000;stroke-width:1;" width="301.7236" x="12" y="49.2969"/><rect fill="#90EE90" height="16.2969" style="stroke:transparent;stroke-width:1;" width="40.0518" x="17" y="56.2969"/><text fill="#000000" font-family="sans-serif" font-size="14" lengthAdjust="spacing" textLength="17.8008" x="17" y="69.292">&#160;&#160;&#160;&#160;</text><text fill="#000000" font-family="sans-serif" font-size="14" lengthAdjust="spacing" textLength="164.541" x="61.502" y="69.292">Public framework types</text><rect fill="#F5DEB3" height="16.2969" style="stroke:transparent;stroke-width:1;" width="40.0518" x="17" y="72.5938"/><text fill="#000000" font-family="sans-serif" font-size="14" lengthAdjust="spacing" textLength="40.0518" x="17" y="85.5889">&#160;&#160;&#160;&#160;&#160;&#160;&#160;&#160;&#160;</text><text fill="#000000" font-family="sans-serif" font-size="14" lengthAdjust="spacing" textLength="229.4209" x="61.502" y="85.5889">Time-domain tag structs (public)</text><rect fill="#ADD8E6" height="16.2969" style="stroke:transparent;stroke-width:1;" width="40.0518" x="17" y="88.8906"/><text fill="#000000" font-family="sans-serif" font-size="14" lengthAdjust="spacing" textLength="22.251" x="17" y="101.8857">&#160;&#160;&#160;&#160;&#160;</text><text fill="#000000" font-family="sans-serif" font-size="14" lengthAdjust="spacing" textLength="209.1318" x="61.502" y="101.8857">PTP notification types (public)</text><rect fill="#F08080" height="16.2969" style="stroke:transparent;stroke-width:1;" width="40.0518" x="17" y="105.1875"/><text fill="#000000" font-family="sans-serif" font-size="14" lengthAdjust="spacing" textLength="17.8008" x="17" y="118.1826">&#160;&#160;&#160;&#160;</text><text fill="#000000" font-family="sans-serif" font-size="14" lengthAdjust="spacing" textLength="195.1182" x="61.502" y="118.1826">Internal interfaces (details/)</text><line style="stroke:#000000;stroke-width:1;" x1="17" x2="308.7236" y1="56.2969" y2="56.2969"/><line style="stroke:#000000;stroke-width:1;" x1="17" x2="308.7236" y1="72.5938" y2="72.5938"/><line style="stroke:#000000;stroke-width:1;" x1="17" x2="308.7236" y1="88.8906" y2="88.8906"/><line style="stroke:#000000;stroke-width:1;" x1="17" x2="308.7236" y1="105.1875" y2="105.1875"/><line style="stroke:#000000;stroke-width:1;" x1="17" x2="308.7236" y1="121.4844" y2="121.4844"/><line style="stroke:#000000;stroke-width:1;" x1="17" x2="17" y1="56.2969" y2="121.4844"/><line style="stroke:#000000;stroke-width:1;" x1="57.0518" x2="57.0518" y1="56.2969" y2="121.4844"/><line style="stroke:#000000;stroke-width:1;" x1="308.7236" x2="308.7236" y1="56.2969" y2="121.4844"/><!--class clock--><g id="elem_clock"><rect codeLine="16" fill="#90EE90" height="194.6719" id="clock" rx="2.5" ry="2.5" style="stroke:#888888;stroke-width:0.5;" width="428.124" x="987.5" y="325.4844"/><ellipse cx="1165.144" cy="341.4844" fill="#ADD1B2" rx="11" ry="11" style="stroke:#181818;stroke-width:1;"/><path d="M1168.1128,347.125 Q1167.5347,347.4219 1166.894,347.5625 Q1166.2534,347.7188 1165.5503,347.7188 Q1163.0503,347.7188 1161.7222,346.0781 Q1160.4097,344.4219 1160.4097,341.2969 Q1160.4097,338.1719 1161.7222,336.5156 Q1163.0503,334.8594 1165.5503,334.8594 Q1166.2534,334.8594 1166.894,335.0156 Q1167.5503,335.1719 1168.1128,335.4688 L1168.1128,338.1875 Q1167.4878,337.6094 1166.894,337.3438 Q1166.3003,337.0625 1165.6753,337.0625 Q1164.3315,337.0625 1163.644,338.1406 Q1162.9565,339.2031 1162.9565,341.2969 Q1162.9565,343.3906 1163.644,344.4688 Q1164.3315,345.5313 1165.6753,345.5313 Q1166.3003,345.5313 1166.894,345.2656 Q1167.4878,344.9844 1168.1128,344.4063 L1168.1128,347.125 Z " fill="#000000"/><text fill="#000000" font-family="sans-serif" font-size="14" lengthAdjust="spacing" textLength="38.0352" x="1185.644" y="346.3311">Clock</text><rect fill="#FAFAFA" height="15.9688" style="stroke:#888888;stroke-width:1;stroke-dasharray:2.0,2.0;" width="24.3008" x="1394.3232" y="322.4844"/><text fill="#000000" font-family="sans-serif" font-size="12" font-style="italic" lengthAdjust="spacing" textLength="22.3008" x="1395.3232" y="334.623">Tag</text><line style="stroke:#888888;stroke-width:0.5;" x1="988.5" x2="1414.624" y1="357.4844" y2="357.4844"/><ellipse cx="998.5" cy="371.1328" fill="#84BE84" rx="3" ry="3" style="stroke:#038048;stroke-width:1;"/><text fill="#000000" font-family="sans-serif" font-size="14" lengthAdjust="spacing" text-decoration="underline" textLength="196.5537" x="1007.5" y="374.4795">GetInstance() : Clock&lt;Tag&gt;</text><ellipse cx="998.5" cy="387.4297" fill="#84BE84" rx="3" ry="3" style="stroke:#038048;stroke-width:1;"/><text fill="#000000" font-family="sans-serif" font-size="14" lengthAdjust="spacing" textLength="120.4766" x="1007.5" y="390.7764">Now() : Snapshot</text><ellipse cx="998.5" cy="403.7266" fill="#84BE84" rx="3" ry="3" style="stroke:#038048;stroke-width:1;"/><text fill="#000000" font-family="sans-serif" font-size="14" lengthAdjust="spacing" textLength="237.4395" x="1007.5" y="407.0732">Subscribe&lt;EventType&gt;(cb) : void</text><ellipse cx="998.5" cy="420.0234" fill="#84BE84" rx="3" ry="3" style="stroke:#038048;stroke-width:1;"/><text fill="#000000" font-family="sans-serif" font-size="14" lengthAdjust="spacing" textLength="238.3828" x="1007.5" y="423.3701">Unsubscribe&lt;EventType&gt;() : void</text><ellipse cx="998.5" cy="436.3203" fill="#84BE84" rx="3" ry="3" style="stroke:#038048;stroke-width:1;"/><text fill="#000000" font-family="sans-serif" font-size="14" lengthAdjust="spacing" textLength="269.7939" x="1007.5" y="439.667">IsAvailable() : bool  [VehicleTime only]</text><ellipse cx="998.5" cy="452.6172" fill="#84BE84" rx="3" ry="3" style="stroke:#038048;stroke-width:1;"/><text fill="#000000" font-family="sans-serif" font-size="14" lengthAdjust="spacing" textLength="402.124" x="1007.5" y="455.9639">WaitUntilAvailable(token, until) : bool  [VehicleTime only]</text><line style="stroke:#888888;stroke-width:1;" x1="988.5" x2="1414.624" y1="463.2656" y2="463.2656"/><rect fill="transparent" height="6" style="stroke:#C82930;stroke-width:1;" width="6" x="995.5" y="473.9141"/><text fill="#000000" font-family="sans-serif" font-size="14" lengthAdjust="spacing" textLength="209.877" x="1007.5" y="480.2607">impl_ : shared_ptr&lt;Backend&gt;</text><rect fill="transparent" height="6" style="stroke:#C82930;stroke-width:1;" width="6" x="995.5" y="490.2109"/><text fill="#000000" font-family="sans-serif" font-size="14" lengthAdjust="spacing" text-decoration="underline" textLength="276.0898" x="1007.5" y="496.5576">instance_cache_ : weak_ptr&lt;Backend&gt;</text><rect fill="transparent" height="6" style="stroke:#C82930;stroke-width:1;" width="6" x="995.5" y="506.5078"/><text fill="#000000" font-family="sans-serif" font-size="14" lengthAdjust="spacing" text-decoration="underline" textLength="304.2471" x="1007.5" y="512.8545">instance_override_ : shared_ptr&lt;Backend&gt;</text></g><!--class guard--><g id="elem_guard"><rect codeLine="29" fill="#90EE90" height="96.8906" id="guard" rx="2.5" ry="2.5" style="stroke:#888888;stroke-width:0.5;" width="399.5566" x="787.5" y="151.4844"/><ellipse cx="858.3052" cy="167.4844" fill="#ADD1B2" rx="11" ry="11" style="stroke:#181818;stroke-width:1;"/><path d="M861.2739,173.125 Q860.6958,173.4219 860.0552,173.5625 Q859.4146,173.7188 858.7114,173.7188 Q856.2114,173.7188 854.8833,172.0781 Q853.5708,170.4219 853.5708,167.2969 Q853.5708,164.1719 854.8833,162.5156 Q856.2114,160.8594 858.7114,160.8594 Q859.4146,160.8594 860.0552,161.0156 Q860.7114,161.1719 861.2739,161.4688 L861.2739,164.1875 Q860.6489,163.6094 860.0552,163.3438 Q859.4614,163.0625 858.8364,163.0625 Q857.4927,163.0625 856.8052,164.1406 Q856.1177,165.2031 856.1177,167.2969 Q856.1177,169.3906 856.8052,170.4688 Q857.4927,171.5313 858.8364,171.5313 Q859.4614,171.5313 860.0552,171.2656 Q860.6489,170.9844 861.2739,170.4063 L861.2739,173.125 Z " fill="#000000"/><text fill="#000000" font-family="sans-serif" font-size="14" lengthAdjust="spacing" textLength="223.1455" x="878.8052" y="172.3311">test_utils::ScopedClockOverride</text><rect fill="#FAFAFA" height="15.9688" style="stroke:#888888;stroke-width:1;stroke-dasharray:2.0,2.0;" width="24.3008" x="1165.7559" y="148.4844"/><text fill="#000000" font-family="sans-serif" font-size="12" font-style="italic" lengthAdjust="spacing" textLength="22.3008" x="1166.7559" y="160.623">Tag</text><line style="stroke:#888888;stroke-width:0.5;" x1="788.5" x2="1186.0566" y1="183.4844" y2="183.4844"/><ellipse cx="798.5" cy="197.1328" fill="#84BE84" rx="3" ry="3" style="stroke:#038048;stroke-width:1;"/><text fill="#000000" font-family="sans-serif" font-size="14" lengthAdjust="spacing" textLength="373.5566" x="807.5" y="200.4795">ScopedClockOverride(const shared_ptr&lt;Backend&gt;&amp;)</text><ellipse cx="798.5" cy="213.4297" fill="#84BE84" rx="3" ry="3" style="stroke:#038048;stroke-width:1;"/><text fill="#000000" font-family="sans-serif" font-size="14" lengthAdjust="spacing" textLength="173.0449" x="807.5" y="216.7764">~ScopedClockOverride()</text><line style="stroke:#888888;stroke-width:1;" x1="788.5" x2="1186.0566" y1="224.0781" y2="224.0781"/><text fill="#000000" font-family="sans-serif" font-size="14" lengthAdjust="spacing" textLength="185.124" x="793.5" y="241.0732">move-only, non-re-entrant</text></g><!--class factory--><g id="elem_factory"><rect codeLine="36" fill="#90EE90" height="80.5938" id="factory" rx="2.5" ry="2.5" style="stroke:#888888;stroke-width:0.5;" width="387.6758" x="1222.5" y="159.4844"/><ellipse cx="1302.356" cy="175.4844" fill="#ADD1B2" rx="11" ry="11" style="stroke:#181818;stroke-width:1;"/><path d="M1305.3247,181.125 Q1304.7466,181.4219 1304.106,181.5625 Q1303.4653,181.7188 1302.7622,181.7188 Q1300.2622,181.7188 1298.9341,180.0781 Q1297.6216,178.4219 1297.6216,175.2969 Q1297.6216,172.1719 1298.9341,170.5156 Q1300.2622,168.8594 1302.7622,168.8594 Q1303.4653,168.8594 1304.106,169.0156 Q1304.7622,169.1719 1305.3247,169.4688 L1305.3247,172.1875 Q1304.6997,171.6094 1304.106,171.3438 Q1303.5122,171.0625 1302.8872,171.0625 Q1301.5435,171.0625 1300.856,172.1406 Q1300.1685,173.2031 1300.1685,175.2969 Q1300.1685,177.3906 1300.856,178.4688 Q1301.5435,179.5313 1302.8872,179.5313 Q1303.5122,179.5313 1304.106,179.2656 Q1304.6997,178.9844 1305.3247,178.4063 L1305.3247,181.125 Z " fill="#000000"/><text fill="#000000" font-family="sans-serif" font-size="14" lengthAdjust="spacing" textLength="193.1631" x="1322.856" y="180.3311">test_utils::ClockTestFactory</text><rect fill="#FAFAFA" height="15.9688" style="stroke:#888888;stroke-width:1;stroke-dasharray:2.0,2.0;" width="24.3008" x="1588.875" y="156.4844"/><text fill="#000000" font-family="sans-serif" font-size="12" font-style="italic" lengthAdjust="spacing" textLength="22.3008" x="1589.875" y="168.623">Tag</text><line style="stroke:#888888;stroke-width:0.5;" x1="1223.5" x2="1609.1758" y1="191.4844" y2="191.4844"/><ellipse cx="1233.5" cy="205.1328" fill="#84BE84" rx="3" ry="3" style="stroke:#038048;stroke-width:1;"/><text fill="#000000" font-family="sans-serif" font-size="14" lengthAdjust="spacing" text-decoration="underline" textLength="361.6758" x="1242.5" y="208.4795">Make(const shared_ptr&lt;Backend&gt;&amp;) : Clock&lt;Tag&gt;</text><line style="stroke:#888888;stroke-width:1;" x1="1223.5" x2="1609.1758" y1="215.7813" y2="215.7813"/><text fill="#000000" font-family="sans-serif" font-size="14" lengthAdjust="spacing" textLength="173.25" x="1228.5" y="232.7764">all-static, no global state</text></g><!--class snapshot--><g id="elem_snapshot"><rect codeLine="42" fill="#90EE90" height="80.5938" id="snapshot" rx="2.5" ry="2.5" style="stroke:#888888;stroke-width:0.5;" width="260.3496" x="195.5" y="637.9844"/><ellipse cx="210.5" cy="653.9844" fill="#ADD1B2" rx="11" ry="11" style="stroke:#181818;stroke-width:1;"/><path d="M213.4688,659.625 Q212.8906,659.9219 212.25,660.0625 Q211.6094,660.2188 210.9063,660.2188 Q208.4063,660.2188 207.0781,658.5781 Q205.7656,656.9219 205.7656,653.7969 Q205.7656,650.6719 207.0781,649.0156 Q208.4063,647.3594 210.9063,647.3594 Q211.6094,647.3594 212.25,647.5156 Q212.9063,647.6719 213.4688,647.9688 L213.4688,650.6875 Q212.8438,650.1094 212.25,649.8438 Q211.6563,649.5625 211.0313,649.5625 Q209.6875,649.5625 209,650.6406 Q208.3125,651.7031 208.3125,653.7969 Q208.3125,655.8906 209,656.9688 Q209.6875,658.0313 211.0313,658.0313 Q211.6563,658.0313 212.25,657.7656 Q212.8438,657.4844 213.4688,656.9063 L213.4688,659.625 Z " fill="#000000"/><text fill="#000000" font-family="sans-serif" font-size="14" lengthAdjust="spacing" textLength="103.4824" x="224.5" y="658.8311">ClockSnapshot</text><rect fill="#FAFAFA" height="15.9688" style="stroke:#888888;stroke-width:1;stroke-dasharray:2.0,2.0;" width="122.8672" x="335.9824" y="634.9844"/><text fill="#000000" font-family="sans-serif" font-size="12" font-style="italic" lengthAdjust="spacing" textLength="120.8672" x="336.9824" y="647.123">TimepointT, StatusT</text><line style="stroke:#888888;stroke-width:0.5;" x1="196.5" x2="454.8496" y1="669.9844" y2="669.9844"/><line style="stroke:#888888;stroke-width:0.5;" x1="196.5" x2="454.8496" y1="677.9844" y2="677.9844"/><ellipse cx="206.5" cy="691.6328" fill="#84BE84" rx="3" ry="3" style="stroke:#038048;stroke-width:1;"/><text fill="#000000" font-family="sans-serif" font-size="14" lengthAdjust="spacing" textLength="173.4414" x="215.5" y="694.9795">TimePoint() : TimepointT</text><ellipse cx="206.5" cy="707.9297" fill="#84BE84" rx="3" ry="3" style="stroke:#038048;stroke-width:1;"/><text fill="#000000" font-family="sans-serif" font-size="14" lengthAdjust="spacing" textLength="122.3154" x="215.5" y="711.2764">Status() : StatusT</text></g><!--class status--><g id="elem_status"><rect codeLine="47" fill="#90EE90" height="113.1875" id="status" rx="2.5" ry="2.5" style="stroke:#888888;stroke-width:0.5;" width="377.2646" x="137" y="1071.4844"/><ellipse cx="244.5493" cy="1087.4844" fill="#ADD1B2" rx="11" ry="11" style="stroke:#181818;stroke-width:1;"/><path d="M247.5181,1093.125 Q246.9399,1093.4219 246.2993,1093.5625 Q245.6587,1093.7188 244.9556,1093.7188 Q242.4556,1093.7188 241.1274,1092.0781 Q239.8149,1090.4219 239.8149,1087.2969 Q239.8149,1084.1719 241.1274,1082.5156 Q242.4556,1080.8594 244.9556,1080.8594 Q245.6587,1080.8594 246.2993,1081.0156 Q246.9556,1081.1719 247.5181,1081.4688 L247.5181,1084.1875 Q246.8931,1083.6094 246.2993,1083.3438 Q245.7056,1083.0625 245.0806,1083.0625 Q243.7368,1083.0625 243.0493,1084.1406 Q242.3618,1085.2031 242.3618,1087.2969 Q242.3618,1089.3906 243.0493,1090.4688 Q243.7368,1091.5313 245.0806,1091.5313 Q245.7056,1091.5313 246.2993,1091.2656 Q246.8931,1090.9844 247.5181,1090.4063 L247.5181,1093.125 Z " fill="#000000"/><text fill="#000000" font-family="sans-serif" font-size="14" lengthAdjust="spacing" textLength="82.6465" x="265.0493" y="1092.3311">ClockStatus</text><rect fill="#FAFAFA" height="15.9688" style="stroke:#888888;stroke-width:1;stroke-dasharray:2.0,2.0;" width="69.0195" x="448.2451" y="1068.4844"/><text fill="#000000" font-family="sans-serif" font-size="12" font-style="italic" lengthAdjust="spacing" textLength="67.0195" x="449.2451" y="1080.623">FlagEnumT</text><line style="stroke:#888888;stroke-width:0.5;" x1="138" x2="513.2646" y1="1103.4844" y2="1103.4844"/><line style="stroke:#888888;stroke-width:0.5;" x1="138" x2="513.2646" y1="1111.4844" y2="1111.4844"/><ellipse cx="148" cy="1125.1328" fill="#84BE84" rx="3" ry="3" style="stroke:#038048;stroke-width:1;"/><text fill="#000000" font-family="sans-serif" font-size="14" lengthAdjust="spacing" textLength="165.1152" x="157" y="1128.4795">IsFlagActive(flag) : bool</text><ellipse cx="148" cy="1141.4297" fill="#84BE84" rx="3" ry="3" style="stroke:#038048;stroke-width:1;"/><text fill="#000000" font-family="sans-serif" font-size="14" lengthAdjust="spacing" textLength="222.3867" x="157" y="1144.7764">IsAnyOfFlagsActive(flags) : bool</text><ellipse cx="148" cy="1157.7266" fill="#84BE84" rx="3" ry="3" style="stroke:#038048;stroke-width:1;"/><text fill="#000000" font-family="sans-serif" font-size="14" lengthAdjust="spacing" textLength="137.2109" x="157" y="1161.0732">AddFlag(flag) : void</text><ellipse cx="148" cy="1174.0234" fill="#84BE84" rx="3" ry="3" style="stroke:#038048;stroke-width:1;"/><text fill="#000000" font-family="sans-serif" font-size="14" lengthAdjust="spacing" textLength="351.2646" x="157" y="1177.3701">PrintTo() : ostringstream  [specialization required]</text></g><!--class vtag--><g id="elem_vtag"><rect codeLine="55" fill="#F5DEB3" height="129.4844" id="vtag" rx="2.5" ry="2.5" style="stroke:#888888;stroke-width:0.5;" width="368.002" x="490.5" y="613.9844"/><ellipse cx="627.3281" cy="629.9844" fill="#ADD1B2" rx="11" ry="11" style="stroke:#181818;stroke-width:1;"/><path d="M630.2969,635.625 Q629.7188,635.9219 629.0781,636.0625 Q628.4375,636.2188 627.7344,636.2188 Q625.2344,636.2188 623.9063,634.5781 Q622.5938,632.9219 622.5938,629.7969 Q622.5938,626.6719 623.9063,625.0156 Q625.2344,623.3594 627.7344,623.3594 Q628.4375,623.3594 629.0781,623.5156 Q629.7344,623.6719 630.2969,623.9688 L630.2969,626.6875 Q629.6719,626.1094 629.0781,625.8438 Q628.4844,625.5625 627.8594,625.5625 Q626.5156,625.5625 625.8281,626.6406 Q625.1406,627.7031 625.1406,629.7969 Q625.1406,631.8906 625.8281,632.9688 Q626.5156,634.0313 627.8594,634.0313 Q628.4844,634.0313 629.0781,633.7656 Q629.6719,633.4844 630.2969,632.9063 L630.2969,635.625 Z " fill="#000000"/><text fill="#000000" font-family="sans-serif" font-size="14" lengthAdjust="spacing" textLength="85.8457" x="647.8281" y="634.8311">VehicleTime</text><line style="stroke:#888888;stroke-width:0.5;" x1="491.5" x2="857.502" y1="645.9844" y2="645.9844"/><ellipse cx="501.5" cy="659.6328" fill="transparent" rx="3" ry="3" style="stroke:#038048;stroke-width:1;"/><text fill="#000000" font-family="sans-serif" font-size="14" lengthAdjust="spacing" textLength="118.4668" x="510.5" y="662.9795">enum StatusFlag</text><ellipse cx="501.5" cy="675.9297" fill="transparent" rx="3" ry="3" style="stroke:#038048;stroke-width:1;"/><text fill="#000000" font-family="sans-serif" font-size="14" lengthAdjust="spacing" textLength="215.8174" x="510.5" y="679.2764">using Duration = nanoseconds</text><ellipse cx="501.5" cy="692.2266" fill="transparent" rx="3" ry="3" style="stroke:#038048;stroke-width:1;"/><text fill="#000000" font-family="sans-serif" font-size="14" lengthAdjust="spacing" textLength="342.002" x="510.5" y="695.5732">using Timepoint = time_point&lt;VehicleTime, ns&gt;</text><ellipse cx="501.5" cy="708.5234" fill="transparent" rx="3" ry="3" style="stroke:#038048;stroke-width:1;"/><text fill="#000000" font-family="sans-serif" font-size="14" lengthAdjust="spacing" textLength="306.1133" x="510.5" y="711.8701">using TimeSlaveSyncDataReceivedCallback</text><ellipse cx="501.5" cy="724.8203" fill="transparent" rx="3" ry="3" style="stroke:#038048;stroke-width:1;"/><text fill="#000000" font-family="sans-serif" font-size="14" lengthAdjust="spacing" textLength="305.0537" x="510.5" y="728.167">using PDelayMeasurementFinishedCallback</text><line style="stroke:#888888;stroke-width:0.5;" x1="491.5" x2="857.502" y1="735.4688" y2="735.4688"/></g><!--class vstatus--><g id="elem_vstatus"><rect codeLine="63" fill="#F5DEB3" height="174.375" id="vstatus" rx="2.5" ry="2.5" style="stroke:#888888;stroke-width:0.5;" width="348.6016" x="151" y="836.4844"/><ellipse cx="255.8223" cy="852.4844" fill="#ADD1B2" rx="11" ry="11" style="stroke:#181818;stroke-width:1;"/><path d="M258.791,858.125 Q258.2129,858.4219 257.5723,858.5625 Q256.9316,858.7188 256.2285,858.7188 Q253.7285,858.7188 252.4004,857.0781 Q251.0879,855.4219 251.0879,852.2969 Q251.0879,849.1719 252.4004,847.5156 Q253.7285,845.8594 256.2285,845.8594 Q256.9316,845.8594 257.5723,846.0156 Q258.2285,846.1719 258.791,846.4688 L258.791,849.1875 Q258.166,848.6094 257.5723,848.3438 Q256.9785,848.0625 256.3535,848.0625 Q255.0098,848.0625 254.3223,849.1406 Q253.6348,850.2031 253.6348,852.2969 Q253.6348,854.3906 254.3223,855.4688 Q255.0098,856.5313 256.3535,856.5313 Q256.9785,856.5313 257.5723,856.2656 Q258.166,855.9844 258.791,855.4063 L258.791,858.125 Z " fill="#000000"/><text fill="#000000" font-family="sans-serif" font-size="14" lengthAdjust="spacing" textLength="130.457" x="276.3223" y="857.3311">VehicleTimeStatus</text><line style="stroke:#888888;stroke-width:0.5;" x1="152" x2="498.6016" y1="868.4844" y2="868.4844"/><ellipse cx="162" cy="882.1328" fill="transparent" rx="3" ry="3" style="stroke:#038048;stroke-width:1;"/><text fill="#000000" font-family="sans-serif" font-size="14" lengthAdjust="spacing" textLength="322.6016" x="171" y="885.4795">flags : ClockStatus&lt;VehicleTime::StatusFlag&gt;</text><ellipse cx="162" cy="898.4297" fill="transparent" rx="3" ry="3" style="stroke:#038048;stroke-width:1;"/><text fill="#000000" font-family="sans-serif" font-size="14" lengthAdjust="spacing" textLength="161.8408" x="171" y="901.7764">rate_deviation : double</text><ellipse cx="162" cy="935.0234" fill="#84BE84" rx="3" ry="3" style="stroke:#038048;stroke-width:1;"/><text fill="#000000" font-family="sans-serif" font-size="14" lengthAdjust="spacing" textLength="121.96" x="171" y="938.3701">IsReliable() : bool</text><ellipse cx="162" cy="951.3203" fill="#84BE84" rx="3" ry="3" style="stroke:#038048;stroke-width:1;"/><text fill="#000000" font-family="sans-serif" font-size="14" lengthAdjust="spacing" textLength="211.1006" x="171" y="954.667">HasBeenSynchronized() : bool</text><ellipse cx="162" cy="967.6172" fill="#84BE84" rx="3" ry="3" style="stroke:#038048;stroke-width:1;"/><text fill="#000000" font-family="sans-serif" font-size="14" lengthAdjust="spacing" textLength="140.0273" x="171" y="970.9639">IsConsistent() : bool</text><ellipse cx="162" cy="983.9141" fill="#84BE84" rx="3" ry="3" style="stroke:#038048;stroke-width:1;"/><text fill="#000000" font-family="sans-serif" font-size="14" lengthAdjust="spacing" textLength="171.6299" x="171" y="987.2607">RateDeviation() : double</text><ellipse cx="162" cy="1000.2109" fill="#84BE84" rx="3" ry="3" style="stroke:#038048;stroke-width:1;"/><text fill="#000000" font-family="sans-serif" font-size="14" lengthAdjust="spacing" textLength="165.1152" x="171" y="1003.5576">IsFlagActive(flag) : bool</text><line style="stroke:#888888;stroke-width:1;stroke-dasharray:1.0,2.0;" x1="152" x2="199.0444" y1="917.2266" y2="917.2266"/><text fill="#000000" font-family="sans-serif" font-size="14" lengthAdjust="spacing" textLength="252.5127" x="199.0444" y="921.5732">VehicleTime-specific quality queries</text><line style="stroke:#888888;stroke-width:1;stroke-dasharray:1.0,2.0;" x1="451.5571" x2="498.6016" y1="917.2266" y2="917.2266"/></g><!--class htag--><g id="elem_htag"><rect codeLine="74" fill="#F5DEB3" height="80.5938" id="htag" rx="2.5" ry="2.5" style="stroke:#888888;stroke-width:0.5;" width="423.4004" x="7" y="159.4844"/><ellipse cx="143.8281" cy="175.4844" fill="#ADD1B2" rx="11" ry="11" style="stroke:#181818;stroke-width:1;"/><path d="M146.7969,181.125 Q146.2188,181.4219 145.5781,181.5625 Q144.9375,181.7188 144.2344,181.7188 Q141.7344,181.7188 140.4063,180.0781 Q139.0938,178.4219 139.0938,175.2969 Q139.0938,172.1719 140.4063,170.5156 Q141.7344,168.8594 144.2344,168.8594 Q144.9375,168.8594 145.5781,169.0156 Q146.2344,169.1719 146.7969,169.4688 L146.7969,172.1875 Q146.1719,171.6094 145.5781,171.3438 Q144.9844,171.0625 144.3594,171.0625 Q143.0156,171.0625 142.3281,172.1406 Q141.6406,173.2031 141.6406,175.2969 Q141.6406,177.3906 142.3281,178.4688 Q143.0156,179.5313 144.3594,179.5313 Q144.9844,179.5313 145.5781,179.2656 Q146.1719,178.9844 146.7969,178.4063 L146.7969,181.125 Z " fill="#000000"/><text fill="#000000" font-family="sans-serif" font-size="14" lengthAdjust="spacing" textLength="141.2441" x="164.3281" y="180.3311">HighResSteadyTime</text><line style="stroke:#888888;stroke-width:0.5;" x1="8" x2="429.4004" y1="191.4844" y2="191.4844"/><ellipse cx="18" cy="205.1328" fill="transparent" rx="3" ry="3" style="stroke:#038048;stroke-width:1;"/><text fill="#000000" font-family="sans-serif" font-size="14" lengthAdjust="spacing" textLength="215.8174" x="27" y="208.4795">using Duration = nanoseconds</text><ellipse cx="18" cy="221.4297" fill="transparent" rx="3" ry="3" style="stroke:#038048;stroke-width:1;"/><text fill="#000000" font-family="sans-serif" font-size="14" lengthAdjust="spacing" textLength="397.4004" x="27" y="224.7764">using Timepoint = time_point&lt;HighResSteadyTime, ns&gt;</text><line style="stroke:#888888;stroke-width:0.5;" x1="8" x2="429.4004" y1="232.0781" y2="232.0781"/></g><g id="elem_ntag"><path d="M465,164.4844 L465,195.9844 L430.26,199.9844 L465,203.9844 L465,235.0156 A0,0 0 0 0 465,235.0156 L751.5605,235.0156 A0,0 0 0 0 751.5605,235.0156 L751.5605,174.4844 L741.5605,164.4844 L465,164.4844 A0,0 0 0 0 465,164.4844 " fill="#FEFFDD" style="stroke:#181818;stroke-width:0.5;"/><path d="M741.5605,164.4844 L741.5605,174.4844 L751.5605,174.4844 L741.5605,164.4844 " fill="#FEFFDD" style="stroke:#181818;stroke-width:0.5;"/><text fill="#000000" font-family="sans-serif" font-size="13" lengthAdjust="spacing" textLength="194.7778" x="471" y="181.5513">std::chrono::steady_clock and</text><text fill="#000000" font-family="sans-serif" font-size="13" lengthAdjust="spacing" textLength="225.2847" x="471" y="196.6841">std::chrono::system_clock are also</text><text fill="#000000" font-family="sans-serif" font-size="13" lengthAdjust="spacing" textLength="265.5605" x="471" y="211.8169">valid Tag types &#8212; built-in specializations</text><text fill="#000000" font-family="sans-serif" font-size="13" lengthAdjust="spacing" textLength="167.7178" x="471" y="226.9497">provided by clock_traits.h</text></g><!--class tss--><g id="elem_tss"><rect codeLine="87" fill="#ADD8E6" height="96.8906" id="tss" rx="2.5" ry="2.5" style="stroke:#888888;stroke-width:0.5;" width="198.417" x="535.5" y="874.9844"/><ellipse cx="550.5" cy="890.9844" fill="#ADD1B2" rx="11" ry="11" style="stroke:#181818;stroke-width:1;"/><path d="M553.4688,896.625 Q552.8906,896.9219 552.25,897.0625 Q551.6094,897.2188 550.9063,897.2188 Q548.4063,897.2188 547.0781,895.5781 Q545.7656,893.9219 545.7656,890.7969 Q545.7656,887.6719 547.0781,886.0156 Q548.4063,884.3594 550.9063,884.3594 Q551.6094,884.3594 552.25,884.5156 Q552.9063,884.6719 553.4688,884.9688 L553.4688,887.6875 Q552.8438,887.1094 552.25,886.8438 Q551.6563,886.5625 551.0313,886.5625 Q549.6875,886.5625 549,887.6406 Q548.3125,888.7031 548.3125,890.7969 Q548.3125,892.8906 549,893.9688 Q549.6875,895.0313 551.0313,895.0313 Q551.6563,895.0313 552.25,894.7656 Q552.8438,894.4844 553.4688,893.9063 L553.4688,896.625 Z " fill="#000000"/><text fill="#000000" font-family="sans-serif" font-size="14" lengthAdjust="spacing" textLength="140.1162" x="564.5" y="895.8311">TimeSlaveSyncData</text><rect fill="#FAFAFA" height="15.9688" style="stroke:#888888;stroke-width:1;stroke-dasharray:2.0,2.0;" width="24.3008" x="712.6162" y="871.9844"/><text fill="#000000" font-family="sans-serif" font-size="12" font-style="italic" lengthAdjust="spacing" textLength="22.3008" x="713.6162" y="884.123">Tag</text><line style="stroke:#888888;stroke-width:0.5;" x1="536.5" x2="732.917" y1="906.9844" y2="906.9844"/><ellipse cx="546.5" cy="920.6328" fill="transparent" rx="3" ry="3" style="stroke:#038048;stroke-width:1;"/><text fill="#000000" font-family="sans-serif" font-size="14" lengthAdjust="spacing" textLength="152.9746" x="555.5" y="923.9795">time_slave_sync_data</text><ellipse cx="546.5" cy="936.9297" fill="transparent" rx="3" ry="3" style="stroke:#038048;stroke-width:1;"/><text fill="#000000" font-family="sans-serif" font-size="14" lengthAdjust="spacing" textLength="89.1133" x="555.5" y="940.2764">port_identity</text><ellipse cx="546.5" cy="953.2266" fill="transparent" rx="3" ry="3" style="stroke:#038048;stroke-width:1;"/><text fill="#000000" font-family="sans-serif" font-size="14" lengthAdjust="spacing" textLength="75.5166" x="555.5" y="956.5732">timestamp</text><line style="stroke:#888888;stroke-width:0.5;" x1="536.5" x2="732.917" y1="963.875" y2="963.875"/></g><!--class pdm--><g id="elem_pdm"><rect codeLine="93" fill="#ADD8E6" height="80.5938" id="pdm" rx="2.5" ry="2.5" style="stroke:#888888;stroke-width:0.5;" width="236.7393" x="769" y="882.9844"/><ellipse cx="784" cy="898.9844" fill="#ADD1B2" rx="11" ry="11" style="stroke:#181818;stroke-width:1;"/><path d="M786.9688,904.625 Q786.3906,904.9219 785.75,905.0625 Q785.1094,905.2188 784.4063,905.2188 Q781.9063,905.2188 780.5781,903.5781 Q779.2656,901.9219 779.2656,898.7969 Q779.2656,895.6719 780.5781,894.0156 Q781.9063,892.3594 784.4063,892.3594 Q785.1094,892.3594 785.75,892.5156 Q786.4063,892.6719 786.9688,892.9688 L786.9688,895.6875 Q786.3438,895.1094 785.75,894.8438 Q785.1563,894.5625 784.5313,894.5625 Q783.1875,894.5625 782.5,895.6406 Q781.8125,896.7031 781.8125,898.7969 Q781.8125,900.8906 782.5,901.9688 Q783.1875,903.0313 784.5313,903.0313 Q785.1563,903.0313 785.75,902.7656 Q786.3438,902.4844 786.9688,901.9063 L786.9688,904.625 Z " fill="#000000"/><text fill="#000000" font-family="sans-serif" font-size="14" lengthAdjust="spacing" textLength="178.4385" x="798" y="903.8311">PDelayMeasurementData</text><rect fill="#FAFAFA" height="15.9688" style="stroke:#888888;stroke-width:1;stroke-dasharray:2.0,2.0;" width="24.3008" x="984.4385" y="879.9844"/><text fill="#000000" font-family="sans-serif" font-size="12" font-style="italic" lengthAdjust="spacing" textLength="22.3008" x="985.4385" y="892.123">Tag</text><line style="stroke:#888888;stroke-width:0.5;" x1="770" x2="1004.7393" y1="914.9844" y2="914.9844"/><ellipse cx="780" cy="928.6328" fill="transparent" rx="3" ry="3" style="stroke:#038048;stroke-width:1;"/><text fill="#000000" font-family="sans-serif" font-size="14" lengthAdjust="spacing" textLength="94.0557" x="789" y="931.9795">pdelay_result</text><ellipse cx="780" cy="944.9297" fill="transparent" rx="3" ry="3" style="stroke:#038048;stroke-width:1;"/><text fill="#000000" font-family="sans-serif" font-size="14" lengthAdjust="spacing" textLength="89.1133" x="789" y="948.2764">port_identity</text><line style="stroke:#888888;stroke-width:0.5;" x1="770" x2="1004.7393" y1="955.5781" y2="955.5781"/></g><!--class viface--><g id="elem_viface"><rect codeLine="99" fill="#F08080" height="162.0781" id="viface" rx="2.5" ry="2.5" style="stroke:#888888;stroke-width:0.5;" width="341.2871" x="1031" y="597.4844"/><ellipse cx="1122.6187" cy="613.4844" fill="#A9DCDF" rx="11" ry="11" style="stroke:#181818;stroke-width:1;"/><path d="M1122.728,608.8281 L1121.5718,613.9063 L1123.8999,613.9063 L1122.728,608.8281 Z M1121.2437,606.5938 L1124.228,606.5938 L1127.5874,618.9844 L1125.1343,618.9844 L1124.3687,615.9219 L1121.0874,615.9219 L1120.3374,618.9844 L1117.8999,618.9844 L1121.2437,606.5938 Z " fill="#000000"/><text fill="#000000" font-family="sans-serif" font-size="14" font-style="italic" lengthAdjust="spacing" textLength="149.5498" x="1143.1187" y="618.3311">VehicleClockBackend</text><line style="stroke:#888888;stroke-width:0.5;" x1="1032" x2="1371.2871" y1="629.4844" y2="629.4844"/><line style="stroke:#888888;stroke-width:0.5;" x1="1032" x2="1371.2871" y1="637.4844" y2="637.4844"/><ellipse cx="1042" cy="651.1328" fill="#84BE84" rx="3" ry="3" style="stroke:#038048;stroke-width:1;"/><text fill="#000000" font-family="sans-serif" font-size="14" font-style="italic" lengthAdjust="spacing" textLength="120.4766" x="1051" y="654.4795">Now() : Snapshot</text><ellipse cx="1042" cy="667.4297" fill="#84BE84" rx="3" ry="3" style="stroke:#038048;stroke-width:1;"/><text fill="#000000" font-family="sans-serif" font-size="14" font-style="italic" lengthAdjust="spacing" textLength="130.0605" x="1051" y="670.7764">IsAvailable() : bool</text><ellipse cx="1042" cy="683.7266" fill="#84BE84" rx="3" ry="3" style="stroke:#038048;stroke-width:1;"/><text fill="#000000" font-family="sans-serif" font-size="14" font-style="italic" lengthAdjust="spacing" textLength="262.3906" x="1051" y="687.0732">WaitUntilAvailable(token, until) : bool</text><ellipse cx="1042" cy="700.0234" fill="#84BE84" rx="3" ry="3" style="stroke:#038048;stroke-width:1;"/><text fill="#000000" font-family="sans-serif" font-size="14" font-style="italic" lengthAdjust="spacing" textLength="314.3438" x="1051" y="703.3701">SetTimeSlaveSyncDataReceivedCallback(cb)</text><ellipse cx="1042" cy="716.3203" fill="#84BE84" rx="3" ry="3" style="stroke:#038048;stroke-width:1;"/><text fill="#000000" font-family="sans-serif" font-size="14" font-style="italic" lengthAdjust="spacing" textLength="315.2871" x="1051" y="719.667">UnsetTimeSlaveSyncDataReceivedCallback()</text><ellipse cx="1042" cy="732.6172" fill="#84BE84" rx="3" ry="3" style="stroke:#038048;stroke-width:1;"/><text fill="#000000" font-family="sans-serif" font-size="14" font-style="italic" lengthAdjust="spacing" textLength="313.2842" x="1051" y="735.9639">SetPDelayMeasurementFinishedCallback(cb)</text><ellipse cx="1042" cy="748.9141" fill="#84BE84" rx="3" ry="3" style="stroke:#038048;stroke-width:1;"/><text fill="#000000" font-family="sans-serif" font-size="14" font-style="italic" lengthAdjust="spacing" textLength="314.2275" x="1051" y="752.2607">UnsetPDelayMeasurementFinishedCallback()</text></g><!--class hiface--><g id="elem_hiface"><rect codeLine="109" fill="#F08080" height="64.2969" id="hiface" rx="2.5" ry="2.5" style="stroke:#888888;stroke-width:0.5;" width="236.9482" x="1411" y="646.4844"/><ellipse cx="1426" cy="662.4844" fill="#A9DCDF" rx="11" ry="11" style="stroke:#181818;stroke-width:1;"/><path d="M1426.1094,657.8281 L1424.9531,662.9063 L1427.2813,662.9063 L1426.1094,657.8281 Z M1424.625,655.5938 L1427.6094,655.5938 L1430.9688,667.9844 L1428.5156,667.9844 L1427.75,664.9219 L1424.4688,664.9219 L1423.7188,667.9844 L1421.2813,667.9844 L1424.625,655.5938 Z " fill="#000000"/><text fill="#000000" font-family="sans-serif" font-size="14" font-style="italic" lengthAdjust="spacing" textLength="204.9482" x="1440" y="667.3311">HighResSteadyClockBackend</text><line style="stroke:#888888;stroke-width:0.5;" x1="1412" x2="1646.9482" y1="678.4844" y2="678.4844"/><line style="stroke:#888888;stroke-width:0.5;" x1="1412" x2="1646.9482" y1="686.4844" y2="686.4844"/><ellipse cx="1422" cy="700.1328" fill="#84BE84" rx="3" ry="3" style="stroke:#038048;stroke-width:1;"/><text fill="#000000" font-family="sans-serif" font-size="14" font-style="italic" lengthAdjust="spacing" textLength="120.4766" x="1431" y="703.4795">Now() : Snapshot</text></g><!--class vmock--><g id="elem_vmock"><rect codeLine="113" fill="#F08080" height="145.7813" id="vmock" rx="2.5" ry="2.5" style="stroke:#888888;stroke-width:0.5;" width="320.8135" x="1041" y="850.4844"/><ellipse cx="1134.3379" cy="866.4844" fill="#ADD1B2" rx="11" ry="11" style="stroke:#181818;stroke-width:1;"/><path d="M1137.3066,872.125 Q1136.7285,872.4219 1136.0879,872.5625 Q1135.4473,872.7188 1134.7441,872.7188 Q1132.2441,872.7188 1130.916,871.0781 Q1129.6035,869.4219 1129.6035,866.2969 Q1129.6035,863.1719 1130.916,861.5156 Q1132.2441,859.8594 1134.7441,859.8594 Q1135.4473,859.8594 1136.0879,860.0156 Q1136.7441,860.1719 1137.3066,860.4688 L1137.3066,863.1875 Q1136.6816,862.6094 1136.0879,862.3438 Q1135.4941,862.0625 1134.8691,862.0625 Q1133.5254,862.0625 1132.8379,863.1406 Q1132.1504,864.2031 1132.1504,866.2969 Q1132.1504,868.3906 1132.8379,869.4688 Q1133.5254,870.5313 1134.8691,870.5313 Q1135.4941,870.5313 1136.0879,870.2656 Q1136.6816,869.9844 1137.3066,869.4063 L1137.3066,872.125 Z " fill="#000000"/><text fill="#000000" font-family="sans-serif" font-size="14" lengthAdjust="spacing" textLength="125.6377" x="1154.8379" y="871.3311">VehicleClockMock</text><line style="stroke:#888888;stroke-width:0.5;" x1="1042" x2="1360.8135" y1="882.4844" y2="882.4844"/><text fill="#000000" font-family="sans-serif" font-size="14" lengthAdjust="spacing" textLength="239.4766" x="1047" y="899.4795">MOCK_METHOD: Now, IsAvailable,</text><text fill="#000000" font-family="sans-serif" font-size="14" lengthAdjust="spacing" textLength="132.8291" x="1047" y="915.7764">WaitUntilAvailable,</text><text fill="#000000" font-family="sans-serif" font-size="14" lengthAdjust="spacing" textLength="291.2861" x="1047" y="932.0732">SetTimeSlaveSyncDataReceivedCallback,</text><text fill="#000000" font-family="sans-serif" font-size="14" lengthAdjust="spacing" textLength="308.8135" x="1047" y="948.3701">UnsetTimeSlaveSyncDataReceivedCallback,</text><text fill="#000000" font-family="sans-serif" font-size="14" lengthAdjust="spacing" textLength="290.2266" x="1047" y="964.667">SetPDelayMeasurementFinishedCallback,</text><text fill="#000000" font-family="sans-serif" font-size="14" lengthAdjust="spacing" textLength="303.3037" x="1047" y="980.9639">UnsetPDelayMeasurementFinishedCallback</text><line style="stroke:#888888;stroke-width:0.5;" x1="1042" x2="1360.8135" y1="988.2656" y2="988.2656"/></g><!--class hmock--><g id="elem_hmock"><rect codeLine="122" fill="#F08080" height="64.2969" id="hmock" rx="2.5" ry="2.5" style="stroke:#888888;stroke-width:0.5;" width="273.3975" x="1397" y="891.4844"/><ellipse cx="1412" cy="907.4844" fill="#ADD1B2" rx="11" ry="11" style="stroke:#181818;stroke-width:1;"/><path d="M1414.9688,913.125 Q1414.3906,913.4219 1413.75,913.5625 Q1413.1094,913.7188 1412.4063,913.7188 Q1409.9063,913.7188 1408.5781,912.0781 Q1407.2656,910.4219 1407.2656,907.2969 Q1407.2656,904.1719 1408.5781,902.5156 Q1409.9063,900.8594 1412.4063,900.8594 Q1413.1094,900.8594 1413.75,901.0156 Q1414.4063,901.1719 1414.9688,901.4688 L1414.9688,904.1875 Q1414.3438,903.6094 1413.75,903.3438 Q1413.1563,903.0625 1412.5313,903.0625 Q1411.1875,903.0625 1410.5,904.1406 Q1409.8125,905.2031 1409.8125,907.2969 Q1409.8125,909.3906 1410.5,910.4688 Q1411.1875,911.5313 1412.5313,911.5313 Q1413.1563,911.5313 1413.75,911.2656 Q1414.3438,910.9844 1414.9688,910.4063 L1414.9688,913.125 Z " fill="#000000"/><text fill="#000000" font-family="sans-serif" font-size="14" lengthAdjust="spacing" textLength="241.3975" x="1426" y="912.3311">HighResSteadyClockBackendMock</text><line style="stroke:#888888;stroke-width:0.5;" x1="1398" x2="1669.3975" y1="923.4844" y2="923.4844"/><text fill="#000000" font-family="sans-serif" font-size="14" lengthAdjust="spacing" textLength="150.5137" x="1403" y="940.4795">MOCK_METHOD: Now</text><line style="stroke:#888888;stroke-width:0.5;" x1="1398" x2="1669.3975" y1="947.7813" y2="947.7813"/></g><!--link clock to viface--><g id="link_clock_viface"><path codeLine="127" d="M1201.5,532.5444 C1201.5,557.8744 1201.5,566.9044 1201.5,591.2744 " fill="transparent" id="clock-viface" style="stroke:#181818;stroke-width:1;"/><polygon fill="#181818" points="1201.5,520.5444,1197.5,526.5444,1201.5,532.5444,1205.5,526.5444,1201.5,520.5444" style="stroke:#181818;stroke-width:1;"/><polygon fill="#181818" points="1201.5,597.2744,1205.5,588.2744,1201.5,592.2744,1197.5,588.2744,1201.5,597.2744" style="stroke:#181818;stroke-width:1;"/><text fill="#000000" font-family="sans-serif" font-size="13" lengthAdjust="spacing" textLength="128.6289" x="1202.5" y="563.5513">impl_ (VehicleTime)</text><text fill="#000000" font-family="sans-serif" font-size="13" lengthAdjust="spacing" textLength="8.271" x="1193.2116" y="540.3435">1</text><text fill="#000000" font-family="sans-serif" font-size="13" lengthAdjust="spacing" textLength="8.271" x="1193.143" y="586.443">1</text></g><!--link clock to hiface--><g id="link_clock_hiface"><path codeLine="128" d="M1335.9342,527.8833 C1393.6842,572.5233 1444.0527,611.4452 1484.5627,642.7552 " fill="transparent" id="clock-hiface" style="stroke:#181818;stroke-width:1;"/><polygon fill="#181818" points="1326.44,520.5444,1328.7408,527.3786,1335.9342,527.8833,1333.6334,521.0491,1326.44,520.5444" style="stroke:#181818;stroke-width:1;"/><polygon fill="#181818" points="1489.31,646.4244,1484.6351,637.7557,1485.3539,643.3667,1479.7429,644.0855,1489.31,646.4244" style="stroke:#181818;stroke-width:1;"/><text fill="#000000" font-family="sans-serif" font-size="13" lengthAdjust="spacing" textLength="180.0703" x="1385.5" y="563.5513">impl_ (HighResSteadyTime)</text><text fill="#000000" font-family="sans-serif" font-size="13" lengthAdjust="spacing" textLength="8.271" x="1327.3269" y="540.3435">1</text><text fill="#000000" font-family="sans-serif" font-size="13" lengthAdjust="spacing" textLength="8.271" x="1472.2291" y="635.3151">1</text></g><!--link guard to clock--><g id="link_guard_clock"><path codeLine="129" d="M1033.67,248.6644 C1055.42,271.1244 1078.0161,294.4641 1103.7361,321.0241 " fill="transparent" id="guard-to-clock" style="stroke:#181818;stroke-width:1;stroke-dasharray:7.0,7.0;"/><polygon fill="#181818" points="1107.91,325.3344,1104.5226,316.0864,1104.4317,321.7425,1098.7756,321.6516,1107.91,325.3344" style="stroke:#181818;stroke-width:1;"/><text fill="#000000" font-family="sans-serif" font-size="13" lengthAdjust="spacing" textLength="211.0786" x="1076.5" y="291.5513">OverrideForTest / ResetOverride</text></g><!--link factory to clock--><g id="link_factory_clock"><path codeLine="130" d="M1378.06,240.4944 C1354.99,264.2044 1328.7433,291.1832 1299.6633,321.0832 " fill="transparent" id="factory-to-clock" style="stroke:#181818;stroke-width:1;stroke-dasharray:7.0,7.0;"/><polygon fill="#181818" points="1295.48,325.3844,1304.6224,321.7214,1298.966,321.8,1298.8874,316.1437,1295.48,325.3844" style="stroke:#181818;stroke-width:1;"/><text fill="#000000" font-family="sans-serif" font-size="13" lengthAdjust="spacing" textLength="194.0542" x="1341.5" y="291.5513">Make() &#8212; private ctor (friend)</text></g><!--link clock to snapshot--><g id="link_clock_snapshot"><path codeLine="132" d="M987.28,459.4844 C839.6,487.6644 640.45,533.1144 472.5,597.4844 C444.28,608.2944 419.948,620.5725 394.808,634.8425 " fill="transparent" id="clock-to-snapshot" style="stroke:#181818;stroke-width:1;"/><polygon fill="#181818" points="389.59,637.8044,399.3916,636.8403,393.9383,635.3362,395.4424,629.8829,389.59,637.8044" style="stroke:#181818;stroke-width:1;"/><text fill="#000000" font-family="sans-serif" font-size="13" lengthAdjust="spacing" textLength="124.2935" x="609.5" y="563.5513">returns from Now()</text></g><!--reverse link snapshot to vstatus--><g id="link_snapshot_vstatus"><path codeLine="133" d="M325.5,731.0644 C325.5,762.7344 325.5,796.3144 325.5,836.2944 " fill="transparent" id="snapshot-backto-vstatus" style="stroke:#181818;stroke-width:1;"/><polygon fill="#181818" points="325.5,719.0644,321.5,725.0644,325.5,731.0644,329.5,725.0644,325.5,719.0644" style="stroke:#181818;stroke-width:1;"/><text fill="#000000" font-family="sans-serif" font-size="13" lengthAdjust="spacing" textLength="51.5684" x="326.5" y="802.5513">Status()</text></g><!--reverse link viface to vmock--><g id="link_viface_vmock"><path codeLine="135" d="M1201.5,777.7244 C1201.5,806.8944 1201.5,821.6644 1201.5,850.1144 " fill="transparent" id="viface-backto-vmock" style="stroke:#181818;stroke-width:1;"/><polygon fill="transparent" points="1201.5,759.7244,1195.5,777.7244,1207.5,777.7244,1201.5,759.7244" style="stroke:#181818;stroke-width:1;"/><text fill="#000000" font-family="sans-serif" font-size="13" lengthAdjust="spacing" textLength="73.4043" x="1202.5" y="802.5513">test double</text></g><!--reverse link hiface to hmock--><g id="link_hiface_hmock"><path codeLine="136" d="M1530.307,728.7519 C1531.077,775.4119 1532.22,844.7444 1532.99,891.3344 " fill="transparent" id="hiface-backto-hmock" style="stroke:#181818;stroke-width:1;"/><polygon fill="transparent" points="1530.01,710.7544,1524.3078,728.8509,1536.3062,728.6529,1530.01,710.7544" style="stroke:#181818;stroke-width:1;"/><text fill="#000000" font-family="sans-serif" font-size="13" lengthAdjust="spacing" textLength="73.4043" x="1532.5" y="802.5513">test double</text></g><!--link vtag to vstatus--><g id="link_vtag_vstatus"><path codeLine="138" d="M583.26,743.0144 C542.26,771.5544 498.174,802.2559 453.954,833.0459 " fill="transparent" id="vtag-to-vstatus" style="stroke:#181818;stroke-width:1;"/><polygon fill="#181818" points="449.03,836.4744,458.7016,834.6143,453.1333,833.6173,454.1303,828.049,449.03,836.4744" style="stroke:#181818;stroke-width:1;"/></g><!--link vtag to tss--><g id="link_vtag_tss"><path codeLine="139" d="M664.04,743.0144 C657.26,784.2144 649.5449,831.1141 643.3449,868.7641 " fill="transparent" id="vtag-to-tss" style="stroke:#181818;stroke-width:1;"/><polygon fill="#181818" points="642.37,874.6844,647.7792,866.4539,643.1824,869.7508,639.8855,865.154,642.37,874.6844" style="stroke:#181818;stroke-width:1;"/></g><!--link vtag to pdm--><g id="link_vtag_pdm"><path codeLine="140" d="M730.19,743.0144 C769.01,787.3044 815.6548,840.5226 848.8448,878.3826 " fill="transparent" id="vtag-to-pdm" style="stroke:#181818;stroke-width:1;"/><polygon fill="#181818" points="852.8,882.8944,849.875,873.4899,849.504,879.1346,843.8593,878.7636,852.8,882.8944" style="stroke:#181818;stroke-width:1;"/></g><!--reverse link vstatus to status--><g id="link_vstatus_status"><path codeLine="141" d="M325.5,1022.6544 C325.5,1043.2144 325.5,1052.6244 325.5,1071.3844 " fill="transparent" id="vstatus-backto-status" style="stroke:#181818;stroke-width:1;"/><polygon fill="#181818" points="325.5,1010.6544,321.5,1016.6544,325.5,1022.6544,329.5,1016.6544,325.5,1010.6544" style="stroke:#181818;stroke-width:1;"/></g><!--SRC=[fLVRRjis6BxNKn0fiDbRx69tW-0PI9sc3ROiGUok5qLXqD9lYp1DQYJbm3qCUuWzuPvaFm-Iw4WvR7EGM2A__toCOOO3qPbKaAQ6xO3y_UTVPCQfrkHw3shFu2v9z9Q9aYgw8okQRJTALYAVIIuLkIkOWUW-ivIlxe5UN9pPdmvCgXnKWFpeFad2OGCY9qQMXCFQ90G_NyZanIziKvWt2a1C_T5DjU8i8sja1tTIROavbA39qUTBG_w-06gcxGLPeAsZNEue4yJG3T56LPdHP50wliDZSYVz5QzW6iXl5ZT4ICFMBAE6IH6anzJtoMTIKHwKlnG6bA2SCFkmffcbpS5GnlNBOQqyEiAx8qc-9QFHY5mqnk9Rufn8JcPSPjl9Wcwc9uHgT2s-aiXVvBFJutloMHlKDVjAte2v5FWYCXWCIKfQ3W7vgxnp5tD1Irr84uxdrKfdYgrWydeFmYpGvEaWMrdaNh8yeDu9tOUxXxhKPtkqbgwurs4b9IVamszGi8o3ZGwHWXy-1lXxoimxOHXlgOpSWZWbbJrzaWEwotqHjYlv4j6we0hoPMdKnAOhEdaQ48sRMF3HCgDP0PRe3kZsUIGIQqUn71uIzJMfmsT0csM5DkWqdMUoXDo5upemQ0ExgQZAUmFRGpR89AhI9_gROQ3weuzi67jhXrQCh0zFCTV5IC48ewceC0-exrWjyE22PaQgGwlxsXyydfPNTFketjrC3NfIpaUUYLMKRBXSOMdP4uWqTRHrHaziVfGIosznIkQ8hFJ2gwe3ebTNItLZgLpEjZpgG3X6ldGypuvyTpovu7JpMbIxMgOxxPLugItsB3Di3uCrFjQftjQHE5olBKX7A7qFTfRd5j9mY2hnHbaBfDDQOXjaOeD_0Riq-Q1Bo1Zbx9DlSWf-hnW6vgCroxSaZ8MEkr5KViwqlMskllqsDW5Q7XnabGgdbKR9vBnINjPFH50XDM12vFe8qhWTCNPaBTtB99ACQQ2d7PevftkO7qHsJWszXGpGMVaCaySEjIFqpJbmUhW2gYi5Eqpw2oQOBY9q6zP8h3V9crs7zDXo5vewZqCkH0om0pHUgVL7Ty0oXptpRab9Bd76WBiTZqb4FNBHmeb4VgymPkQ0tw0OZfRnkCcMM-3igEc6cxTKlyAyi-ufb1Ji4-I3JghDi3YPDX3oFxgxHItFQoNTPQJcOrdSEl8j9lyjwBa1cX-Q_2bwykV_Paf7aiyNL0L7EbYfmeIqr2PFK-SHcQRQ4IpzXAKYxq4S4BEh4GfvSIqTR8yHoMsrX4t1hbchYd4pmWNakCoy3QMIU-p8ELaT_4nVOkjbHeyBknVOvGFg6hJBYESQ5M8duzjkR7JTQ-nAqxZLUKXRagL6ccMEHE6gbCeiKHkSjUOGmJ7BTsKKmqxX70ikyrsVu3AtL4i5kkAcLsBJRfh5oLfALzYeSBAGur9qnHN6XYz6PZSi4grXxV2fUNnzQEc947qxInVrp5MbIpW7ysIRikjMbn9NhkVG3djbFjdi7f7vDEtGnkv-e8uAi1Ekuh-5gzEI7UCh_FL9i6ltufZfrVNiv-NLwyNRw_FKCZsDmtpg8Ds8-lFd1CmZdnUWXkkJResu_fjPzQ3V6oyLp_HIMv4uK7pNAbXPDo3Bu-I74_BTQ3Hr3w42qx1-3wAfDUp35_VmdOuzJFmwF1vFmtyyAQcNs0kfx19ANg9kwA3wEAcNq9Z6xPn3rurBnVOunOW5aS4Q1wV8XqdGpYhMR8OfBaAcKWBtMYLtFXEJvXQDQCP_sgo4IH9yCFbYxtTUlDsUwqbPHFT5pttYLYchIE3U7c13Rr-moIQrVAjB02TkaexLs0-tVm00]--></g></svg>