<svg xmlns="http://www.w3.org/2000/svg" xmlns:xlink="http://www.w3.org/1999/xlink" contentStyleType="text/css" data-diagram-type="DESCRIPTION" height="893px" preserveAspectRatio="none" style="width:1905px;height:893px;background:#FFFFFF;" version="1.1" viewBox="0 0 1905 893" width="1905px" zoomAndPan="magnify"><title>score::time &#8212; Architecture Layers</title><defs/><g><text fill="#000000" font-family="sans-serif" font-size="14" font-weight="bold" lengthAdjust="spacing" textLength="268.6182" x="811.1909" y="22.9951">score::time &#8212; Architecture Layers</text><rect fill="transparent" height="79.1875" id="_legend" rx="7.5" ry="7.5" style="stroke:#000000;stroke-width:1;" width="341.3926" x="12" y="49.2969"/><rect fill="#ADD8E6" height="16.2969" style="stroke:transparent;stroke-width:1;" width="31.1514" x="17" y="56.2969"/><text fill="#000000" font-family="sans-serif" font-size="14" lengthAdjust="spacing" textLength="13.3506" x="17" y="69.292">&#160;&#160;&#160;</text><text fill="#000000" font-family="sans-serif" font-size="14" lengthAdjust="spacing" textLength="262.3701" x="52.6016" y="69.292">Public headers (clients include these)</text><rect fill="#90EE90" height="16.2969" style="stroke:transparent;stroke-width:1;" width="31.1514" x="17" y="72.5938"/><text fill="#000000" font-family="sans-serif" font-size="14" lengthAdjust="spacing" textLength="8.9004" x="17" y="85.5889">&#160;&#160;</text><text fill="#000000" font-family="sans-serif" font-size="14" lengthAdjust="spacing" textLength="237.9385" x="52.6016" y="85.5889">Framework layer (clock/ package)</text><rect fill="#F5DEB3" height="16.2969" style="stroke:transparent;stroke-width:1;" width="31.1514" x="17" y="88.8906"/><text fill="#000000" font-family="sans-serif" font-size="14" lengthAdjust="spacing" textLength="31.1514" x="17" y="101.8857">&#160;&#160;&#160;&#160;&#160;&#160;&#160;</text><text fill="#000000" font-family="sans-serif" font-size="14" lengthAdjust="spacing" textLength="190.6748" x="52.6016" y="101.8857">Time-domain tag packages</text><rect fill="#F08080" height="16.2969" style="stroke:transparent;stroke-width:1;" width="31.1514" x="17" y="105.1875"/><text fill="#000000" font-family="sans-serif" font-size="14" lengthAdjust="spacing" textLength="8.9004" x="17" y="118.1826">&#160;&#160;</text><text fill="#000000" font-family="sans-serif" font-size="14" lengthAdjust="spacing" textLength="266.1777" x="52.6016" y="118.1826">Internal details (clients never include)</text><line style="stroke:#000000;stroke-width:1;" x1="17" x2="348.3926" y1="56.2969" y2="56.2969"/><line style="stroke:#000000;stroke-width:1;" x1="17" x2="348.3926" y1="72.5938" y2="72.5938"/><line style="stroke:#000000;stroke-width:1;" x1="17" x2="348.3926" y1="88.8906" y2="88.8906"/><line style="stroke:#000000;stroke-width:1;" x1="17" x2="348.3926" y1="105.1875" y2="105.1875"/><line style="stroke:#000000;stroke-width:1;" x1="17" x2="348.3926" y1="121.4844" y2="121.4844"/><line style="stroke:#000000;stroke-width:1;" x1="17" x2="17" y1="56.2969" y2="121.4844"/><line style="stroke:#000000;stroke-width:1;" x1="48.1514" x2="48.1514" y1="56.2969" y2="121.4844"/><line style="stroke:#000000;stroke-width:1;" x1="348.3926" x2="348.3926" y1="56.2969" y2="121.4844"/><!--cluster Client Code--><g id="cluster_Client Code"><rect fill="#FFFFE0" height="97" rx="2.5" ry="2.5" style="stroke:#181818;stroke-width:1;" width="289" x="1104" y="148.4844"/><text fill="#000000" font-family="sans-serif" font-size="14" font-weight="bold" lengthAdjust="spacing" textLength="90.3096" x="1203.3452" y="163.4795">Client Code</text></g><!--cluster Public Interface ? clock/--><g id="cluster_Public Interface &#8212; clock/"><rect fill="#90EE90" height="203" rx="2.5" ry="2.5" style="stroke:#181818;stroke-width:1;" width="778" x="433" y="269.4844"/><text fill="#000000" font-family="sans-serif" font-size="14" font-weight="bold" lengthAdjust="spacing" textLength="193.8057" x="725.0972" y="284.4795">Public Interface &#8212; clock/</text></g><!--cluster Test utilities ? clock/ (testonly)--><g id="cluster_Test utilities &#8212; clock/ (testonly)"><rect fill="#FFFFE0" height="97" rx="2.5" ry="2.5" style="stroke:#181818;stroke-width:1;" width="664" x="1235" y="269.4844"/><text fill="#000000" font-family="sans-serif" font-size="14" font-weight="bold" lengthAdjust="spacing" textLength="250.8994" x="1441.5503" y="284.4795">Test utilities &#8212; clock/ (testonly)</text></g><!--cluster Time-Domain Tags--><g id="cluster_Time-Domain Tags"><rect fill="#F5DEB3" height="391" rx="2.5" ry="2.5" style="stroke:#181818;stroke-width:1;" width="1253" x="7" y="496.4844"/><text fill="#000000" font-family="sans-serif" font-size="14" font-weight="bold" lengthAdjust="spacing" textLength="146.5078" x="560.2461" y="511.4795">Time-Domain Tags</text></g><!--cluster vehicle_time/--><g id="cluster_vehicle_time/"><rect fill="transparent" height="203" rx="2.5" ry="2.5" style="stroke:#181818;stroke-width:1;" width="407" x="829" y="539.4844"/><text fill="#000000" font-family="sans-serif" font-size="14" font-weight="bold" lengthAdjust="spacing" textLength="103.667" x="980.6665" y="554.4795">vehicle_time/</text></g><!--cluster hpls_time/--><g id="cluster_hpls_time/"><rect fill="transparent" height="97" rx="2.5" ry="2.5" style="stroke:#181818;stroke-width:1;" width="166" x="639" y="539.4844"/><text fill="#000000" font-family="sans-serif" font-size="14" font-weight="bold" lengthAdjust="spacing" textLength="80.8076" x="681.5962" y="554.4795">hpls_time/</text></g><!--cluster steady_time/--><g id="cluster_steady_time/"><rect fill="transparent" height="97" rx="2.5" ry="2.5" style="stroke:#181818;stroke-width:1;" width="278" x="337" y="539.4844"/><text fill="#000000" font-family="sans-serif" font-size="14" font-weight="bold" lengthAdjust="spacing" textLength="100.8027" x="425.5986" y="554.4795">steady_time/</text></g><!--cluster system_time/--><g id="cluster_system_time/"><rect fill="transparent" height="97" rx="2.5" ry="2.5" style="stroke:#181818;stroke-width:1;" width="282" x="31" y="539.4844"/><text fill="#000000" font-family="sans-serif" font-size="14" font-weight="bold" lengthAdjust="spacing" textLength="104.2549" x="119.8726" y="554.4795">system_time/</text></g><!--cluster ptp/--><g id="cluster_ptp/"><rect fill="transparent" height="97" rx="2.5" ry="2.5" style="stroke:#181818;stroke-width:1;" width="565" x="671" y="766.4844"/><text fill="#000000" font-family="sans-serif" font-size="14" font-weight="bold" lengthAdjust="spacing" textLength="31.8486" x="937.5757" y="781.4795">ptp/</text></g><!--cluster Internal ? details/ (never included by clients)--><g id="cluster_Internal &#8212; details/ (never included by clients)"><rect fill="#F08080" height="203" rx="2.5" ry="2.5" style="stroke:#181818;stroke-width:1;" width="383" x="1284" y="539.4844"/><text fill="#000000" font-family="sans-serif" font-size="14" font-weight="bold" lengthAdjust="spacing" textLength="361.1084" x="1294.9458" y="554.4795">Internal &#8212; details/ (never included by clients)</text></g><!--entity app--><g id="elem_app"><rect fill="#F1F1F1" height="46.2969" rx="2.5" ry="2.5" style="stroke:#181818;stroke-width:0.5;" width="118.2236" x="1120" y="183.4844"/><rect fill="#F1F1F1" height="10" style="stroke:#181818;stroke-width:0.5;" width="15" x="1218.2236" y="188.4844"/><rect fill="#F1F1F1" height="2" style="stroke:#181818;stroke-width:0.5;" width="4" x="1216.2236" y="190.4844"/><rect fill="#F1F1F1" height="2" style="stroke:#181818;stroke-width:0.5;" width="4" x="1216.2236" y="194.4844"/><text fill="#000000" font-family="sans-serif" font-size="14" lengthAdjust="spacing" textLength="78.2236" x="1135" y="216.4795">Application</text></g><!--entity test--><g id="elem_test"><rect fill="#F1F1F1" height="46.2969" rx="2.5" ry="2.5" style="stroke:#181818;stroke-width:0.5;" width="102.8975" x="1273.5" y="183.4844"/><rect fill="#F1F1F1" height="10" style="stroke:#181818;stroke-width:0.5;" width="15" x="1356.3975" y="188.4844"/><rect fill="#F1F1F1" height="2" style="stroke:#181818;stroke-width:0.5;" width="4" x="1354.3975" y="190.4844"/><rect fill="#F1F1F1" height="2" style="stroke:#181818;stroke-width:0.5;" width="4" x="1354.3975" y="194.4844"/><text fill="#000000" font-family="sans-serif" font-size="14" lengthAdjust="spacing" textLength="62.8975" x="1288.5" y="216.4795">Unit Test</text></g><!--entity clock--><g id="elem_clock"><rect fill="#F1F1F1" height="46.2969" rx="2.5" ry="2.5" style="stroke:#181818;stroke-width:0.5;" width="127.5137" x="762" y="410.4844"/><rect fill="#F1F1F1" height="10" style="stroke:#181818;stroke-width:0.5;" width="15" x="869.5137" y="415.4844"/><rect fill="#F1F1F1" height="2" style="stroke:#181818;stroke-width:0.5;" width="4" x="867.5137" y="417.4844"/><rect fill="#F1F1F1" height="2" style="stroke:#181818;stroke-width:0.5;" width="4" x="867.5137" y="421.4844"/><text fill="#000000" font-family="sans-serif" font-size="14" lengthAdjust="spacing" textLength="87.5137" x="777" y="443.4795">Clock&lt;Tag&gt;</text></g><!--entity vclock--><g id="elem_vclock"><rect fill="#F1F1F1" height="46.2969" rx="2.5" ry="2.5" style="stroke:#181818;stroke-width:0.5;" width="165.8701" x="1029" y="304.4844"/><rect fill="#F1F1F1" height="10" style="stroke:#181818;stroke-width:0.5;" width="15" x="1174.8701" y="309.4844"/><rect fill="#F1F1F1" height="2" style="stroke:#181818;stroke-width:0.5;" width="4" x="1172.8701" y="311.4844"/><rect fill="#F1F1F1" height="2" style="stroke:#181818;stroke-width:0.5;" width="4" x="1172.8701" y="315.4844"/><text fill="#000000" font-family="sans-serif" font-size="14" lengthAdjust="spacing" textLength="125.8701" x="1044" y="337.4795">VehicleClock alias</text></g><!--entity hclock--><g id="elem_hclock"><rect fill="#F1F1F1" height="46.2969" rx="2.5" ry="2.5" style="stroke:#181818;stroke-width:0.5;" width="145.3145" x="848.5" y="304.4844"/><rect fill="#F1F1F1" height="10" style="stroke:#181818;stroke-width:0.5;" width="15" x="973.8145" y="309.4844"/><rect fill="#F1F1F1" height="2" style="stroke:#181818;stroke-width:0.5;" width="4" x="971.8145" y="311.4844"/><rect fill="#F1F1F1" height="2" style="stroke:#181818;stroke-width:0.5;" width="4" x="971.8145" y="315.4844"/><text fill="#000000" font-family="sans-serif" font-size="14" lengthAdjust="spacing" textLength="105.3145" x="863.5" y="337.4795">HplsClock alias</text></g><!--entity sclock--><g id="elem_sclock"><rect fill="#F1F1F1" height="46.2969" rx="2.5" ry="2.5" style="stroke:#181818;stroke-width:0.5;" width="163.457" x="650.5" y="304.4844"/><rect fill="#F1F1F1" height="10" style="stroke:#181818;stroke-width:0.5;" width="15" x="793.957" y="309.4844"/><rect fill="#F1F1F1" height="2" style="stroke:#181818;stroke-width:0.5;" width="4" x="791.957" y="311.4844"/><rect fill="#F1F1F1" height="2" style="stroke:#181818;stroke-width:0.5;" width="4" x="791.957" y="315.4844"/><text fill="#000000" font-family="sans-serif" font-size="14" lengthAdjust="spacing" textLength="123.457" x="665.5" y="337.4795">SteadyClock alias</text></g><!--entity sysclock--><g id="elem_sysclock"><rect fill="#F1F1F1" height="46.2969" rx="2.5" ry="2.5" style="stroke:#181818;stroke-width:0.5;" width="166.9229" x="448.5" y="304.4844"/><rect fill="#F1F1F1" height="10" style="stroke:#181818;stroke-width:0.5;" width="15" x="595.4229" y="309.4844"/><rect fill="#F1F1F1" height="2" style="stroke:#181818;stroke-width:0.5;" width="4" x="593.4229" y="311.4844"/><rect fill="#F1F1F1" height="2" style="stroke:#181818;stroke-width:0.5;" width="4" x="593.4229" y="315.4844"/><text fill="#000000" font-family="sans-serif" font-size="14" lengthAdjust="spacing" textLength="126.9229" x="463.5" y="337.4795">SystemClock alias</text></g><!--entity guard--><g id="elem_guard"><rect fill="#F1F1F1" height="46.2969" rx="2.5" ry="2.5" style="stroke:#181818;stroke-width:0.5;" width="312.624" x="1569.5" y="304.4844"/><rect fill="#F1F1F1" height="10" style="stroke:#181818;stroke-width:0.5;" width="15" x="1862.124" y="309.4844"/><rect fill="#F1F1F1" height="2" style="stroke:#181818;stroke-width:0.5;" width="4" x="1860.124" y="311.4844"/><rect fill="#F1F1F1" height="2" style="stroke:#181818;stroke-width:0.5;" width="4" x="1860.124" y="315.4844"/><text fill="#000000" font-family="sans-serif" font-size="14" lengthAdjust="spacing" textLength="272.624" x="1584.5" y="337.4795">test_utils::ScopedClockOverride&lt;Tag&gt;</text></g><!--entity factory--><g id="elem_factory"><rect fill="#F1F1F1" height="46.2969" rx="2.5" ry="2.5" style="stroke:#181818;stroke-width:0.5;" width="282.6416" x="1251.5" y="304.4844"/><rect fill="#F1F1F1" height="10" style="stroke:#181818;stroke-width:0.5;" width="15" x="1514.1416" y="309.4844"/><rect fill="#F1F1F1" height="2" style="stroke:#181818;stroke-width:0.5;" width="4" x="1512.1416" y="311.4844"/><rect fill="#F1F1F1" height="2" style="stroke:#181818;stroke-width:0.5;" width="4" x="1512.1416" y="315.4844"/><text fill="#000000" font-family="sans-serif" font-size="14" lengthAdjust="spacing" textLength="242.6416" x="1266.5" y="337.4795">test_utils::ClockTestFactory&lt;Tag&gt;</text></g><!--entity vtag--><g id="elem_vtag"><rect fill="#F1F1F1" height="46.2969" rx="2.5" ry="2.5" style="stroke:#181818;stroke-width:0.5;" width="153.251" x="853.5" y="574.4844"/><rect fill="#F1F1F1" height="10" style="stroke:#181818;stroke-width:0.5;" width="15" x="986.751" y="579.4844"/><rect fill="#F1F1F1" height="2" style="stroke:#181818;stroke-width:0.5;" width="4" x="984.751" y="581.4844"/><rect fill="#F1F1F1" height="2" style="stroke:#181818;stroke-width:0.5;" width="4" x="984.751" y="585.4844"/><text fill="#000000" font-family="sans-serif" font-size="14" lengthAdjust="spacing" textLength="113.251" x="868.5" y="607.4795">VehicleTime tag</text></g><!--entity vstatus--><g id="elem_vstatus"><rect fill="#F1F1F1" height="46.2969" rx="2.5" ry="2.5" style="stroke:#181818;stroke-width:0.5;" width="170.457" x="845" y="680.4844"/><rect fill="#F1F1F1" height="10" style="stroke:#181818;stroke-width:0.5;" width="15" x="995.457" y="685.4844"/><rect fill="#F1F1F1" height="2" style="stroke:#181818;stroke-width:0.5;" width="4" x="993.457" y="687.4844"/><rect fill="#F1F1F1" height="2" style="stroke:#181818;stroke-width:0.5;" width="4" x="993.457" y="691.4844"/><text fill="#000000" font-family="sans-serif" font-size="14" lengthAdjust="spacing" textLength="130.457" x="860" y="713.4795">VehicleTimeStatus</text></g><!--entity vcb--><g id="elem_vcb"><rect fill="#F1F1F1" height="46.2969" rx="2.5" ry="2.5" style="stroke:#181818;stroke-width:0.5;" width="170.2314" x="1050" y="680.4844"/><rect fill="#F1F1F1" height="10" style="stroke:#181818;stroke-width:0.5;" width="15" x="1200.2314" y="685.4844"/><rect fill="#F1F1F1" height="2" style="stroke:#181818;stroke-width:0.5;" width="4" x="1198.2314" y="687.4844"/><rect fill="#F1F1F1" height="2" style="stroke:#181818;stroke-width:0.5;" width="4" x="1198.2314" y="691.4844"/><text fill="#000000" font-family="sans-serif" font-size="14" lengthAdjust="spacing" textLength="130.2314" x="1065" y="713.4795">PTP callback types</text></g><!--entity htag--><g id="elem_htag"><rect fill="#F1F1F1" height="46.2969" rx="2.5" ry="2.5" style="stroke:#181818;stroke-width:0.5;" width="132.6953" x="655.5" y="574.4844"/><rect fill="#F1F1F1" height="10" style="stroke:#181818;stroke-width:0.5;" width="15" x="768.1953" y="579.4844"/><rect fill="#F1F1F1" height="2" style="stroke:#181818;stroke-width:0.5;" width="4" x="766.1953" y="581.4844"/><rect fill="#F1F1F1" height="2" style="stroke:#181818;stroke-width:0.5;" width="4" x="766.1953" y="585.4844"/><text fill="#000000" font-family="sans-serif" font-size="14" lengthAdjust="spacing" textLength="92.6953" x="670.5" y="607.4795">HplsTime tag</text></g><!--entity stag--><g id="elem_stag"><rect fill="#F1F1F1" height="46.2969" rx="2.5" ry="2.5" style="stroke:#181818;stroke-width:0.5;" width="246.377" x="353" y="574.4844"/><rect fill="#F1F1F1" height="10" style="stroke:#181818;stroke-width:0.5;" width="15" x="579.377" y="579.4844"/><rect fill="#F1F1F1" height="2" style="stroke:#181818;stroke-width:0.5;" width="4" x="577.377" y="581.4844"/><rect fill="#F1F1F1" height="2" style="stroke:#181818;stroke-width:0.5;" width="4" x="577.377" y="585.4844"/><text fill="#000000" font-family="sans-serif" font-size="14" lengthAdjust="spacing" textLength="206.377" x="368" y="607.4795">std::chrono::steady_clock tag</text></g><!--entity systag--><g id="elem_systag"><rect fill="#F1F1F1" height="46.2969" rx="2.5" ry="2.5" style="stroke:#181818;stroke-width:0.5;" width="249.8428" x="47" y="574.4844"/><rect fill="#F1F1F1" height="10" style="stroke:#181818;stroke-width:0.5;" width="15" x="276.8428" y="579.4844"/><rect fill="#F1F1F1" height="2" style="stroke:#181818;stroke-width:0.5;" width="4" x="274.8428" y="581.4844"/><rect fill="#F1F1F1" height="2" style="stroke:#181818;stroke-width:0.5;" width="4" x="274.8428" y="585.4844"/><text fill="#000000" font-family="sans-serif" font-size="14" lengthAdjust="spacing" textLength="209.8428" x="62" y="607.4795">std::chrono::system_clock tag</text></g><!--entity tss--><g id="elem_tss"><rect fill="#F1F1F1" height="46.2969" rx="2.5" ry="2.5" style="stroke:#181818;stroke-width:0.5;" width="229.5947" x="990" y="801.4844"/><rect fill="#F1F1F1" height="10" style="stroke:#181818;stroke-width:0.5;" width="15" x="1199.5947" y="806.4844"/><rect fill="#F1F1F1" height="2" style="stroke:#181818;stroke-width:0.5;" width="4" x="1197.5947" y="808.4844"/><rect fill="#F1F1F1" height="2" style="stroke:#181818;stroke-width:0.5;" width="4" x="1197.5947" y="812.4844"/><text fill="#000000" font-family="sans-serif" font-size="14" lengthAdjust="spacing" textLength="189.5947" x="1005" y="834.4795">TimeSlaveSyncData&lt;Tag&gt;</text></g><!--entity pdm--><g id="elem_pdm"><rect fill="#F1F1F1" height="46.2969" rx="2.5" ry="2.5" style="stroke:#181818;stroke-width:0.5;" width="267.917" x="687" y="801.4844"/><rect fill="#F1F1F1" height="10" style="stroke:#181818;stroke-width:0.5;" width="15" x="934.917" y="806.4844"/><rect fill="#F1F1F1" height="2" style="stroke:#181818;stroke-width:0.5;" width="4" x="932.917" y="808.4844"/><rect fill="#F1F1F1" height="2" style="stroke:#181818;stroke-width:0.5;" width="4" x="932.917" y="812.4844"/><text fill="#000000" font-family="sans-serif" font-size="14" lengthAdjust="spacing" textLength="227.917" x="702" y="834.4795">PDelayMeasurementData&lt;Tag&gt;</text></g><!--entity viface--><g id="elem_viface"><rect fill="#F1F1F1" height="46.2969" rx="2.5" ry="2.5" style="stroke:#181818;stroke-width:0.5;" width="163.1357" x="1478.5" y="574.4844"/><rect fill="#F1F1F1" height="10" style="stroke:#181818;stroke-width:0.5;" width="15" x="1621.6357" y="579.4844"/><rect fill="#F1F1F1" height="2" style="stroke:#181818;stroke-width:0.5;" width="4" x="1619.6357" y="581.4844"/><rect fill="#F1F1F1" height="2" style="stroke:#181818;stroke-width:0.5;" width="4" x="1619.6357" y="585.4844"/><text fill="#000000" font-family="sans-serif" font-size="14" lengthAdjust="spacing" textLength="123.1357" x="1493.5" y="607.4795">VehicleClockIface</text></g><!--entity hiface--><g id="elem_hiface"><rect fill="#F1F1F1" height="46.2969" rx="2.5" ry="2.5" style="stroke:#181818;stroke-width:0.5;" width="142.5801" x="1300.5" y="574.4844"/><rect fill="#F1F1F1" height="10" style="stroke:#181818;stroke-width:0.5;" width="15" x="1423.0801" y="579.4844"/><rect fill="#F1F1F1" height="2" style="stroke:#181818;stroke-width:0.5;" width="4" x="1421.0801" y="581.4844"/><rect fill="#F1F1F1" height="2" style="stroke:#181818;stroke-width:0.5;" width="4" x="1421.0801" y="585.4844"/><text fill="#000000" font-family="sans-serif" font-size="14" lengthAdjust="spacing" textLength="102.5801" x="1315.5" y="607.4795">HplsClockIface</text></g><!--entity prod--><g id="elem_prod"><rect fill="#F1F1F1" height="46.2969" rx="2.5" ry="2.5" style="stroke:#181818;stroke-width:0.5;" width="179.1318" x="1300.5" y="680.4844"/><rect fill="#F1F1F1" height="10" style="stroke:#181818;stroke-width:0.5;" width="15" x="1459.6318" y="685.4844"/><rect fill="#F1F1F1" height="2" style="stroke:#181818;stroke-width:0.5;" width="4" x="1457.6318" y="687.4844"/><rect fill="#F1F1F1" height="2" style="stroke:#181818;stroke-width:0.5;" width="4" x="1457.6318" y="691.4844"/><text fill="#000000" font-family="sans-serif" font-size="14" lengthAdjust="spacing" textLength="139.1318" x="1315.5" y="713.4795">Production backend</text></g><!--entity stub--><g id="elem_stub"><rect fill="#F1F1F1" height="46.2969" rx="2.5" ry="2.5" style="stroke:#181818;stroke-width:0.5;" width="136.2295" x="1515" y="680.4844"/><rect fill="#F1F1F1" height="10" style="stroke:#181818;stroke-width:0.5;" width="15" x="1631.2295" y="685.4844"/><rect fill="#F1F1F1" height="2" style="stroke:#181818;stroke-width:0.5;" width="4" x="1629.2295" y="687.4844"/><rect fill="#F1F1F1" height="2" style="stroke:#181818;stroke-width:0.5;" width="4" x="1629.2295" y="691.4844"/><text fill="#000000" font-family="sans-serif" font-size="14" lengthAdjust="spacing" textLength="96.2295" x="1530" y="713.4795">Stub backend</text></g><!--link app to vclock--><g id="link_app_vclock"><path d="M1157.5,229.5244 C1157.5,250.9244 1157.5,276.6144 1157.5,298.1144 " fill="transparent" id="app-to-vclock" style="stroke:#181818;stroke-width:1;"/><polygon fill="#181818" points="1157.5,304.1144,1161.5,295.1144,1157.5,299.1144,1153.5,295.1144,1157.5,304.1144" style="stroke:#181818;stroke-width:1;"/><polygon fill="transparent" points="1000.5,253.8908,1004.5,257.8908,1000.5,261.8908,996.5,257.8908" style="stroke:#B38D22;stroke-width:1;"/><text fill="#000000" font-family="sans-serif" font-size="13" lengthAdjust="spacing" textLength="149.792" x="1007.5" y="262.8913">include vehicle_clock.h</text></g><!--link app to hclock--><g id="link_app_hclock"><path d="M1119.81,206.4844 C1043.64,206.4844 921,206.4844 921,206.4844 C921,206.4844 921,263.3344 921,298.4444 " fill="transparent" id="app-to-hclock" style="stroke:#181818;stroke-width:1;"/><polygon fill="#181818" points="921,304.4444,925,295.4444,921,299.4444,917,295.4444,921,304.4444" style="stroke:#181818;stroke-width:1;"/><polygon fill="transparent" points="833.43,193.5508,837.43,197.5508,833.43,201.5508,829.43,197.5508" style="stroke:#B38D22;stroke-width:1;"/><text fill="#000000" font-family="sans-serif" font-size="13" lengthAdjust="spacing" textLength="130.3682" x="840.43" y="202.5513">include hpls_clock.h</text></g><!--link test to guard--><g id="link_test_guard"><path d="M1376.6,206.4844 C1484.91,206.4844 1726,206.4844 1726,206.4844 C1726,206.4844 1726,263.3344 1726,298.4444 " fill="transparent" id="test-to-guard" style="stroke:#181818;stroke-width:1;"/><polygon fill="#181818" points="1726,304.4444,1730,295.4444,1726,299.4444,1722,295.4444,1726,304.4444" style="stroke:#181818;stroke-width:1;"/><text fill="#000000" font-family="sans-serif" font-size="13" lengthAdjust="spacing" textLength="241.1475" x="1601.28" y="202.5513">ScopedClockOverride&lt;VehicleTime&gt;</text></g><!--link test to factory--><g id="link_test_factory"><path d="M1325,229.5244 C1325,250.9244 1325,276.6144 1325,298.1144 " fill="transparent" id="test-to-factory" style="stroke:#181818;stroke-width:1;"/><polygon fill="#181818" points="1325,304.1144,1329,295.1144,1325,299.1144,1321,295.1144,1325,304.1144" style="stroke:#181818;stroke-width:1;"/><text fill="#000000" font-family="sans-serif" font-size="13" lengthAdjust="spacing" textLength="283.1245" x="1041" y="279.8913">ClockTestFactory&lt;HplsTime&gt;::Make(mock)</text></g><!--link vclock to clock--><g id="link_vclock_clock"><path d="M1039.5,350.9644 C1039.5,379.1044 1039.5,422.4844 1039.5,422.4844 C1039.5,422.4844 958.94,422.4844 896.06,422.4844 " fill="transparent" id="vclock-to-clock" style="stroke:#181818;stroke-width:1;"/><polygon fill="#181818" points="890.06,422.4844,899.06,426.4844,895.06,422.4844,899.06,418.4844,890.06,422.4844" style="stroke:#181818;stroke-width:1;"/></g><!--link hclock to clock--><g id="link_hclock_clock"><path d="M869.25,350.4844 C869.25,368.1444 869.25,386.4244 869.25,404.1644 " fill="transparent" id="hclock-to-clock" style="stroke:#181818;stroke-width:1;"/><polygon fill="#181818" points="869.25,410.1644,873.25,401.1644,869.25,405.1644,865.25,401.1644,869.25,410.1644" style="stroke:#181818;stroke-width:1;"/></g><!--link sclock to clock--><g id="link_sclock_clock"><path d="M787.75,350.4844 C787.75,368.1444 787.75,386.4244 787.75,404.1644 " fill="transparent" id="sclock-to-clock" style="stroke:#181818;stroke-width:1;"/><polygon fill="#181818" points="787.75,410.1644,791.75,401.1644,787.75,405.1644,783.75,401.1644,787.75,410.1644" style="stroke:#181818;stroke-width:1;"/></g><!--link sysclock to clock--><g id="link_sysclock_clock"><path d="M607.25,350.9644 C607.25,379.1044 607.25,422.4844 607.25,422.4844 C607.25,422.4844 691.3,422.4844 755.85,422.4844 " fill="transparent" id="sysclock-to-clock" style="stroke:#181818;stroke-width:1;"/><polygon fill="#181818" points="761.85,422.4844,752.85,418.4844,756.85,422.4844,752.85,426.4844,761.85,422.4844" style="stroke:#181818;stroke-width:1;"/></g><!--link clock to vtag--><g id="link_clock_vtag"><path d="M871.75,456.6344 C871.75,487.8944 871.75,537.2544 871.75,568.4544 " fill="transparent" id="clock-to-vtag" style="stroke:#181818;stroke-width:1;"/><polygon fill="#181818" points="871.75,574.4544,875.75,565.4544,871.75,569.4544,867.75,565.4544,871.75,574.4544" style="stroke:#181818;stroke-width:1;"/></g><!--link clock to htag--><g id="link_clock_htag"><path d="M775.25,456.6344 C775.25,487.8944 775.25,537.2544 775.25,568.4544 " fill="transparent" id="clock-to-htag" style="stroke:#181818;stroke-width:1;"/><polygon fill="#181818" points="775.25,574.4544,779.25,565.4544,775.25,569.4544,771.25,565.4544,775.25,574.4544" style="stroke:#181818;stroke-width:1;"/></g><!--link clock to stag--><g id="link_clock_stag"><path d="M761.9,445.4844 C673.18,445.4844 523.75,445.4844 523.75,445.4844 C523.75,445.4844 523.75,525.8744 523.75,568.3944 " fill="transparent" id="clock-to-stag" style="stroke:#181818;stroke-width:1;"/><polygon fill="#181818" points="523.75,574.3944,527.75,565.3944,523.75,569.3944,519.75,565.3944,523.75,574.3944" style="stroke:#181818;stroke-width:1;"/></g><!--link clock to systag--><g id="link_clock_systag"><path d="M761.8,433.4844 C597.02,433.4844 172,433.4844 172,433.4844 C172,433.4844 172,523.1244 172,568.3344 " fill="transparent" id="clock-to-systag" style="stroke:#181818;stroke-width:1;"/><polygon fill="#181818" points="172,574.3344,176,565.3344,172,569.3344,168,565.3344,172,574.3344" style="stroke:#181818;stroke-width:1;"/></g><!--link vtag to vstatus--><g id="link_vtag_vstatus"><path d="M930,620.4844 C930,638.1444 930,656.4244 930,674.1644 " fill="transparent" id="vtag-to-vstatus" style="stroke:#181818;stroke-width:1;"/><polygon fill="#181818" points="930,680.1644,934,671.1644,930,675.1644,926,671.1644,930,680.1644" style="stroke:#181818;stroke-width:1;"/></g><!--link vtag to vcb--><g id="link_vtag_vcb"><path d="M1006.63,597.4844 C1060.32,597.4844 1122.5,597.4844 1122.5,597.4844 C1122.5,597.4844 1122.5,643.3044 1122.5,674.4844 " fill="transparent" id="vtag-to-vcb" style="stroke:#181818;stroke-width:1;"/><polygon fill="#181818" points="1122.5,680.4844,1126.5,671.4844,1122.5,675.4844,1118.5,671.4844,1122.5,680.4844" style="stroke:#181818;stroke-width:1;"/></g><!--link vcb to tss--><g id="link_vcb_tss"><path d="M1163.33,726.5244 C1163.33,747.9244 1163.33,773.6144 1163.33,795.1144 " fill="transparent" id="vcb-to-tss" style="stroke:#181818;stroke-width:1;"/><polygon fill="#181818" points="1163.33,801.1144,1167.33,792.1144,1163.33,796.1144,1159.33,792.1144,1163.33,801.1144" style="stroke:#181818;stroke-width:1;"/></g><!--link vcb to pdm--><g id="link_vcb_pdm"><path d="M1106.67,726.5444 C1106.67,743.8244 1106.67,764.4844 1106.67,764.4844 C1106.67,764.4844 900,764.4844 900,764.4844 C900,764.4844 900,778.5344 900,795.4544 " fill="transparent" id="vcb-to-pdm" style="stroke:#181818;stroke-width:1;"/><polygon fill="#181818" points="900,801.4544,904,792.4544,900,796.4544,896,792.4544,900,801.4544" style="stroke:#181818;stroke-width:1;"/></g><!--link clock to viface--><g id="link_clock_viface"><path d="M890.02,433.4844 C1059.42,433.4844 1506.5,433.4844 1506.5,433.4844 C1506.5,433.4844 1506.5,523.1244 1506.5,568.3344 " fill="transparent" id="clock-to-viface" style="stroke:#181818;stroke-width:1;stroke-dasharray:7.0,7.0;"/><polygon fill="#181818" points="1506.5,574.3344,1510.5,565.3344,1506.5,569.3344,1502.5,565.3344,1506.5,574.3344" style="stroke:#181818;stroke-width:1;"/><text fill="#000000" font-family="sans-serif" font-size="13" lengthAdjust="spacing" textLength="137.23" x="1130.69" y="429.5513">uses (via shared_ptr)</text></g><!--link clock to hiface--><g id="link_clock_hiface"><path d="M890.24,445.4844 C1034.57,445.4844 1372,445.4844 1372,445.4844 C1372,445.4844 1372,525.8744 1372,568.3944 " fill="transparent" id="clock-to-hiface" style="stroke:#181818;stroke-width:1;stroke-dasharray:7.0,7.0;"/><polygon fill="#181818" points="1372,574.3944,1376,565.3944,1372,569.3944,1368,565.3944,1372,574.3944" style="stroke:#181818;stroke-width:1;"/><text fill="#000000" font-family="sans-serif" font-size="13" lengthAdjust="spacing" textLength="137.23" x="1057.58" y="458.5513">uses (via shared_ptr)</text></g><!--reverse link viface to prod--><g id="link_viface_prod"><path d="M1460.24,597.4844 C1460.24,597.4844 1461,649.3044 1461,680.4844 " fill="transparent" id="viface-backto-prod" style="stroke:#181818;stroke-width:1;"/><polygon fill="transparent" points="1478.24,597.4844,1460.24,591.4844,1460.24,603.4844,1478.24,597.4844" style="stroke:#181818;stroke-width:1;"/></g><!--reverse link viface to stub--><g id="link_viface_stub"><path d="M1578.25,638.4844 C1578.25,656.1444 1578.25,662.4244 1578.25,680.1644 " fill="transparent" id="viface-backto-stub" style="stroke:#181818;stroke-width:1;"/><polygon fill="transparent" points="1578.25,620.4844,1572.25,638.4844,1584.25,638.4844,1578.25,620.4844" style="stroke:#181818;stroke-width:1;"/></g><!--SRC=[XLJRQXj947sVhoYI5-j1tlV1218PPmC9Qv1tmnA2QSsKrOrQtKDtZSom3kGZyeNx9Qc-ZEOY9H48UgfEdReNAT88lh8EovBK0U7_Rz_XZQka8goeTGWVH8VE5uNVAzC89mxGY6elThYXZcqTmuJPQHm1jWpOETkQUcsrTV0Ss4PwhGnIro1OHz8MXSOTcXh8Dg3nYGhWtmlSlFwWTfBUwXPNKN3VRhMgGAAeEIAughH2GnwKgNHR8v14Zmj8lvSfopk7Q5P1SCSHuBDrUz0Xiq1Zg_qVVLQz_Ppb4xkbLI-61wxLihO7eGoGsFNM7YxzPh6ihHCwnlBU43eZDDH8GkbHJWQF75lER95Pk4YfL4MH_S6hTJI0jQtn5IJ-Vr5h-mp_HQ-VtpGDLqsGikOB20-YQPBYRwC87j1J51C_YgyZubpj6EAJgD9af5hrZc9HUp_heBfv4BjLv8l8fFa7fQeqHW08hOIFYEC8ycUZ_LmlH_eDSTExESAF4PqdF9mXkemPPnPoXfQKLgIuOqDUS1MgO8tk5fTh6TIFmTANvQQo3TRHuL_SAwTg7BBVjSBLvpOH7TpVYOgiwmQ3foIOnXbcx3RD60CznnIdC4TpmXrJVH_3_d9ladPS-K0KfZILdHyN4HiIrERM-FWUOFSFzr09hSDcGrZTleNRYFaw3KXoDoz44vey2KNseSpiVUps1GPFTLbMqbbZopAZOkjEbFvdb74yVakPK3FAxcUa3JLJibX6BOwuwKnrAqWC3IO_BkSjyl7vYCBpXJtm_awnJNt8xiRZS3eMOM3pmU2HdLoA6hOTv1jock5uR_eH7Y_Z-x3NgP4gF6UxEAZbI7tlRDrMuPp4Ey_NACNCudvNs-r4vLaGCk7B0ylbAYy-bF2wlzpz14V5jJmXvHaoZbOF2wiLSN7T67Pf9qSJlXeiyhwnpTbEzcEwAikFOezN1zOlYY977OpJIP5pWJyJT6UYOX34HHm-vVJJppxJ41R1A5dd5Hq4l8lyZ-ymRFqx35CckhvUvKvptgtdstTrL0Ay50xhnuRSOWIKlmPcdfkNvJBrVYo87Vy1]--></g></svg>