<svg xmlns="http://www.w3.org/2000/svg" xmlns:xlink="http://www.w3.org/1999/xlink" contentStyleType="text/css" data-diagram-type="CLASS" height="1010px" preserveAspectRatio="none" style="width:2547px;height:1010px;background:#FFFFFF;" version="1.1" viewBox="0 0 2547 1010" width="2547px" zoomAndPan="magnify"><title>TimeSlave Class Diagram</title><defs/><g><text fill="#000000" font-family="Verdana" font-size="22" font-weight="bold" lengthAdjust="spacing" textLength="312.9414" x="1112.5293" y="35.4209">TimeSlave Class Diagram</text><rect fill="transparent" height="128.0781" id="_legend" rx="7.5" ry="7.5" style="stroke:#000000;stroke-width:1;" width="290.6016" x="10" y="56.6094"/><text fill="#000000" font-family="Verdana" font-size="14" font-weight="bold" lengthAdjust="spacing" textLength="41.2139" x="19.874" y="76.6045">Color</text><text fill="#000000" font-family="Verdana" font-size="14" font-weight="bold" lengthAdjust="spacing" textLength="90.5488" x="114.7021" y="76.6045">Description</text><rect fill="#E0FFFF" height="16.2969" style="stroke:transparent;stroke-width:1;" width="94.8281" x="15" y="79.9063"/><text fill="#000000" font-family="Verdana" font-size="14" lengthAdjust="spacing" textLength="17.8008" x="15" y="92.9014">&#160;&#160;&#160;&#160;</text><text fill="#000000" font-family="Verdana" font-size="14" lengthAdjust="spacing" textLength="154.6221" x="114.2783" y="92.9014">TimeSlave application</text><rect fill="#FFA07A" height="16.2969" style="stroke:transparent;stroke-width:1;" width="94.8281" x="15" y="96.2031"/><text fill="#000000" font-family="Verdana" font-size="14" lengthAdjust="spacing" textLength="8.9004" x="15" y="109.1982">&#160;&#160;</text><text fill="#000000" font-family="Verdana" font-size="14" lengthAdjust="spacing" textLength="121.8369" x="114.2783" y="109.1982">gPTP Engine core</text><rect fill="#F5DEB3" height="16.2969" style="stroke:transparent;stroke-width:1;" width="94.8281" x="15" y="112.5"/><text fill="#000000" font-family="Verdana" font-size="14" lengthAdjust="spacing" textLength="35.6016" x="15" y="125.4951">&#160;&#160;&#160;&#160;&#160;&#160;&#160;&#160;</text><text fill="#000000" font-family="Verdana" font-size="14" lengthAdjust="spacing" textLength="137.1768" x="114.2783" y="125.4951">Protocol processing</text><rect fill="#E6E6FA" height="16.2969" style="stroke:transparent;stroke-width:1;" width="94.8281" x="15" y="128.7969"/><text fill="#000000" font-family="Verdana" font-size="14" lengthAdjust="spacing" textLength="22.251" x="15" y="141.792">&#160;&#160;&#160;&#160;&#160;</text><text fill="#000000" font-family="Verdana" font-size="14" lengthAdjust="spacing" textLength="112.8203" x="114.2783" y="141.792">PHC adjustment</text><rect fill="#FFB6C1" height="16.2969" style="stroke:transparent;stroke-width:1;" width="94.8281" x="15" y="145.0938"/><text fill="#000000" font-family="Verdana" font-size="14" lengthAdjust="spacing" textLength="17.8008" x="15" y="158.0889">&#160;&#160;&#160;&#160;</text><text fill="#000000" font-family="Verdana" font-size="14" lengthAdjust="spacing" textLength="113.292" x="114.2783" y="158.0889">IPC components</text><rect fill="#F5F5DC" height="16.2969" style="stroke:transparent;stroke-width:1;" width="94.8281" x="15" y="161.3906"/><text fill="#000000" font-family="Verdana" font-size="14" lengthAdjust="spacing" textLength="35.6016" x="15" y="174.3857">&#160;&#160;&#160;&#160;&#160;&#160;&#160;&#160;</text><text fill="#000000" font-family="Verdana" font-size="14" lengthAdjust="spacing" textLength="109.0127" x="114.2783" y="174.3857">Data structures</text><line style="stroke:#000000;stroke-width:1;" x1="15" x2="295.6016" y1="63.6094" y2="63.6094"/><line style="stroke:#000000;stroke-width:1;" x1="15" x2="295.6016" y1="79.9063" y2="79.9063"/><line style="stroke:#000000;stroke-width:1;" x1="15" x2="295.6016" y1="96.2031" y2="96.2031"/><line style="stroke:#000000;stroke-width:1;" x1="15" x2="295.6016" y1="112.5" y2="112.5"/><line style="stroke:#000000;stroke-width:1;" x1="15" x2="295.6016" y1="128.7969" y2="128.7969"/><line style="stroke:#000000;stroke-width:1;" x1="15" x2="295.6016" y1="145.0938" y2="145.0938"/><line style="stroke:#000000;stroke-width:1;" x1="15" x2="295.6016" y1="161.3906" y2="161.3906"/><line style="stroke:#000000;stroke-width:1;" x1="15" x2="295.6016" y1="177.6875" y2="177.6875"/><line style="stroke:#000000;stroke-width:1;" x1="15" x2="15" y1="63.6094" y2="177.6875"/><line style="stroke:#000000;stroke-width:1;" x1="109.8281" x2="109.8281" y1="63.6094" y2="177.6875"/><line style="stroke:#000000;stroke-width:1;" x1="295.6016" x2="295.6016" y1="63.6094" y2="177.6875"/><!--cluster score::ts--><g id="cluster_score::ts"><path d="M1105.5,196.6875 L1175.3721,196.6875 A3.75,3.75 0 0 1 1177.8721,199.1875 L1184.8721,218.9844 L1779.5,218.9844 A2.5,2.5 0 0 1 1782,221.4844 L1782,752.1875 A2.5,2.5 0 0 1 1779.5,754.6875 L1105.5,754.6875 A2.5,2.5 0 0 1 1103,752.1875 L1103,199.1875 A2.5,2.5 0 0 1 1105.5,196.6875 " fill="#FFFFFF" style="stroke:#000000;stroke-width:1;"/><line style="stroke:#000000;stroke-width:1;" x1="1103" x2="1184.8721" y1="218.9844" y2="218.9844"/><text fill="#000000" font-family="Verdana" font-size="14" font-weight="bold" lengthAdjust="spacing" textLength="68.8721" x="1107" y="211.6826">score::ts</text></g><!--cluster score::ts::gptp::details--><g id="cluster_score::ts::gptp::details"><path d="M13.5,778.6875 L196.1104,778.6875 A3.75,3.75 0 0 1 198.6104,781.1875 L205.6104,800.9844 L2006.5,800.9844 A2.5,2.5 0 0 1 2009,803.4844 L2009,1001.1875 A2.5,2.5 0 0 1 2006.5,1003.6875 L13.5,1003.6875 A2.5,2.5 0 0 1 11,1001.1875 L11,781.1875 A2.5,2.5 0 0 1 13.5,778.6875 " fill="#FFFFFF" style="stroke:#000000;stroke-width:1;"/><line style="stroke:#000000;stroke-width:1;" x1="11" x2="205.6104" y1="800.9844" y2="800.9844"/><text fill="#000000" font-family="Verdana" font-size="14" font-weight="bold" lengthAdjust="spacing" textLength="181.6104" x="15" y="793.6826">score::ts::gptp::details</text></g><!--cluster score::ts::gptp::phc--><g id="cluster_score::ts::gptp::phc"><path d="M2035.5,803.1875 L2192.8105,803.1875 A3.75,3.75 0 0 1 2195.3105,805.6875 L2202.3105,825.4844 L2537.5,825.4844 A2.5,2.5 0 0 1 2540,827.9844 L2540,976.6875 A2.5,2.5 0 0 1 2537.5,979.1875 L2035.5,979.1875 A2.5,2.5 0 0 1 2033,976.6875 L2033,805.6875 A2.5,2.5 0 0 1 2035.5,803.1875 " fill="#FFFFFF" style="stroke:#000000;stroke-width:1;"/><line style="stroke:#000000;stroke-width:1;" x1="2033" x2="2202.3105" y1="825.4844" y2="825.4844"/><text fill="#000000" font-family="Verdana" font-size="14" font-weight="bold" lengthAdjust="spacing" textLength="156.3105" x="2037" y="818.1826">score::ts::gptp::phc</text></g><!--class TimeSlave--><g id="elem_TimeSlave"><rect codeLine="17" fill="#E0FFFF" height="141.7813" id="TimeSlave" rx="2.5" ry="2.5" style="stroke:#000000;stroke-width:1;" width="353.335" x="1412.5" y="231.6875"/><ellipse cx="1548.9443" cy="245.6875" fill="#FFFFFF" rx="9" ry="9" style="stroke:#000000;stroke-width:1;"/><path d="M1551.9131,251.3281 Q1551.335,251.625 1550.6943,251.7656 Q1550.0537,251.9219 1549.3506,251.9219 Q1546.8506,251.9219 1545.5225,250.2813 Q1544.21,248.625 1544.21,245.5 Q1544.21,242.375 1545.5225,240.7188 Q1546.8506,239.0625 1549.3506,239.0625 Q1550.0537,239.0625 1550.6943,239.2188 Q1551.3506,239.375 1551.9131,239.6719 L1551.9131,242.3906 Q1551.2881,241.8125 1550.6943,241.5469 Q1550.1006,241.2656 1549.4756,241.2656 Q1548.1318,241.2656 1547.4443,242.3438 Q1546.7568,243.4063 1546.7568,245.5 Q1546.7568,247.5938 1547.4443,248.6719 Q1548.1318,249.7344 1549.4756,249.7344 Q1550.1006,249.7344 1550.6943,249.4688 Q1551.2881,249.1875 1551.9131,248.6094 L1551.9131,251.3281 Z " fill="#000000"/><text fill="#000000" font-family="Verdana" font-size="14" lengthAdjust="spacing" textLength="72.9463" x="1566.4443" y="250.5342">TimeSlave</text><line style="stroke:#000000;stroke-width:1;" x1="1413.5" x2="1764.835" y1="259.6875" y2="259.6875"/><rect fill="transparent" height="6" style="stroke:#000000;stroke-width:1;" width="6" x="1420.5" y="270.3359"/><text fill="#000000" font-family="Verdana" font-size="14" lengthAdjust="spacing" textLength="150.459" x="1430.5" y="276.6826">engine_ : GptpEngine</text><rect fill="transparent" height="6" style="stroke:#000000;stroke-width:1;" width="6" x="1420.5" y="286.6328"/><text fill="#000000" font-family="Verdana" font-size="14" lengthAdjust="spacing" textLength="204.9209" x="1430.5" y="292.9795">publisher_ : GptpIpcPublisher</text><rect fill="transparent" height="6" style="stroke:#000000;stroke-width:1;" width="6" x="1420.5" y="302.9297"/><text fill="#000000" font-family="Verdana" font-size="14" lengthAdjust="spacing" textLength="275.0781" x="1430.5" y="309.2764">clock_ : HighPrecisionLocalSteadyClock</text><line style="stroke:#000000;stroke-width:1;" x1="1413.5" x2="1764.835" y1="316.5781" y2="316.5781"/><ellipse cx="1423.5" cy="330.2266" fill="#FFFFFF" rx="3" ry="3" style="stroke:#000000;stroke-width:1;"/><text fill="#000000" font-family="Verdana" font-size="14" lengthAdjust="spacing" textLength="283.5684" x="1430.5" y="333.5732">Initialize() : score::cpp::expected&lt;void&gt;</text><ellipse cx="1423.5" cy="346.5234" fill="#FFFFFF" rx="3" ry="3" style="stroke:#000000;stroke-width:1;"/><text fill="#000000" font-family="Verdana" font-size="14" lengthAdjust="spacing" textLength="329.335" x="1430.5" y="349.8701">Run(stop_token) : score::cpp::expected&lt;void&gt;</text><ellipse cx="1423.5" cy="362.8203" fill="#FFFFFF" rx="3" ry="3" style="stroke:#000000;stroke-width:1;"/><text fill="#000000" font-family="Verdana" font-size="14" lengthAdjust="spacing" textLength="302.7227" x="1430.5" y="366.167">Deinitialize() : score::cpp::expected&lt;void&gt;</text></g><!--class GptpEngine--><g id="elem_GptpEngine"><rect codeLine="26" fill="#FFA07A" height="304.75" id="GptpEngine" rx="2.5" ry="2.5" style="stroke:#000000;stroke-width:1;" width="284.5039" x="1246.5" y="433.6875"/><ellipse cx="1343.9556" cy="447.6875" fill="#FFFFFF" rx="9" ry="9" style="stroke:#000000;stroke-width:1;"/><path d="M1346.9243,453.3281 Q1346.3462,453.625 1345.7056,453.7656 Q1345.0649,453.9219 1344.3618,453.9219 Q1341.8618,453.9219 1340.5337,452.2813 Q1339.2212,450.625 1339.2212,447.5 Q1339.2212,444.375 1340.5337,442.7188 Q1341.8618,441.0625 1344.3618,441.0625 Q1345.0649,441.0625 1345.7056,441.2188 Q1346.3618,441.375 1346.9243,441.6719 L1346.9243,444.3906 Q1346.2993,443.8125 1345.7056,443.5469 Q1345.1118,443.2656 1344.4868,443.2656 Q1343.1431,443.2656 1342.4556,444.3438 Q1341.7681,445.4063 1341.7681,447.5 Q1341.7681,449.5938 1342.4556,450.6719 Q1343.1431,451.7344 1344.4868,451.7344 Q1345.1118,451.7344 1345.7056,451.4688 Q1346.2993,451.1875 1346.9243,450.6094 L1346.9243,453.3281 Z " fill="#000000"/><text fill="#000000" font-family="Verdana" font-size="14" lengthAdjust="spacing" textLength="82.0928" x="1361.4556" y="452.5342">GptpEngine</text><line style="stroke:#000000;stroke-width:1;" x1="1247.5" x2="1530.0039" y1="461.6875" y2="461.6875"/><rect fill="transparent" height="6" style="stroke:#000000;stroke-width:1;" width="6" x="1254.5" y="472.3359"/><text fill="#000000" font-family="Verdana" font-size="14" lengthAdjust="spacing" textLength="208.291" x="1264.5" y="478.6826">options_ : GptpEngineOptions</text><rect fill="transparent" height="6" style="stroke:#000000;stroke-width:1;" width="6" x="1254.5" y="488.6328"/><text fill="#000000" font-family="Verdana" font-size="14" lengthAdjust="spacing" textLength="165.1563" x="1264.5" y="494.9795">rx_thread_ : std::thread</text><rect fill="transparent" height="6" style="stroke:#000000;stroke-width:1;" width="6" x="1254.5" y="504.9297"/><text fill="#000000" font-family="Verdana" font-size="14" lengthAdjust="spacing" textLength="198.2559" x="1264.5" y="511.2764">pdelay_thread_ : std::thread</text><rect fill="transparent" height="6" style="stroke:#000000;stroke-width:1;" width="6" x="1254.5" y="521.2266"/><text fill="#000000" font-family="Verdana" font-size="14" lengthAdjust="spacing" textLength="210.1025" x="1264.5" y="527.5732">sync_sm_ : SyncStateMachine</text><rect fill="transparent" height="6" style="stroke:#000000;stroke-width:1;" width="6" x="1254.5" y="537.5234"/><text fill="#000000" font-family="Verdana" font-size="14" lengthAdjust="spacing" textLength="204.8936" x="1264.5" y="543.8701">pdelay_ : PeerDelayMeasurer</text><rect fill="transparent" height="6" style="stroke:#000000;stroke-width:1;" width="6" x="1254.5" y="553.8203"/><text fill="#000000" font-family="Verdana" font-size="14" lengthAdjust="spacing" textLength="147.6289" x="1264.5" y="560.167">socket_ : IRawSocket</text><rect fill="transparent" height="6" style="stroke:#000000;stroke-width:1;" width="6" x="1254.5" y="570.1172"/><text fill="#000000" font-family="Verdana" font-size="14" lengthAdjust="spacing" textLength="150.2539" x="1264.5" y="576.4639">codec_ : FrameCodec</text><rect fill="transparent" height="6" style="stroke:#000000;stroke-width:1;" width="6" x="1254.5" y="586.4141"/><text fill="#000000" font-family="Verdana" font-size="14" lengthAdjust="spacing" textLength="171.3018" x="1264.5" y="592.7607">parser_ : MessageParser</text><rect fill="transparent" height="6" style="stroke:#000000;stroke-width:1;" width="6" x="1254.5" y="602.7109"/><text fill="#000000" font-family="Verdana" font-size="14" lengthAdjust="spacing" textLength="129.4658" x="1264.5" y="609.0576">phc_ : PhcAdjuster</text><rect fill="transparent" height="6" style="stroke:#000000;stroke-width:1;" width="6" x="1254.5" y="619.0078"/><text fill="#000000" font-family="Verdana" font-size="14" lengthAdjust="spacing" textLength="212.3721" x="1264.5" y="625.3545">snapshot_mutex_ : std::mutex</text><rect fill="transparent" height="6" style="stroke:#000000;stroke-width:1;" width="6" x="1254.5" y="635.3047"/><text fill="#000000" font-family="Verdana" font-size="14" lengthAdjust="spacing" textLength="214.833" x="1264.5" y="641.6514">latest_snapshot_ : PtpTimeInfo</text><line style="stroke:#000000;stroke-width:1;" x1="1247.5" x2="1530.0039" y1="648.9531" y2="648.9531"/><ellipse cx="1257.5" cy="662.6016" fill="#FFFFFF" rx="3" ry="3" style="stroke:#000000;stroke-width:1;"/><text fill="#000000" font-family="Verdana" font-size="14" lengthAdjust="spacing" textLength="113.0391" x="1264.5" y="665.9482">Initialize() : bool</text><ellipse cx="1257.5" cy="678.8984" fill="#FFFFFF" rx="3" ry="3" style="stroke:#000000;stroke-width:1;"/><text fill="#000000" font-family="Verdana" font-size="14" lengthAdjust="spacing" textLength="131.9131" x="1264.5" y="682.2451">Deinitialize() : void</text><ellipse cx="1257.5" cy="695.1953" fill="#FFFFFF" rx="3" ry="3" style="stroke:#000000;stroke-width:1;"/><text fill="#000000" font-family="Verdana" font-size="14" lengthAdjust="spacing" textLength="235.2383" x="1264.5" y="698.542">ReadPTPSnapshot() : PtpTimeInfo</text><rect fill="#FFFFFF" height="6" style="stroke:#000000;stroke-width:1;" width="6" x="1254.5" y="708.4922"/><text fill="#000000" font-family="Verdana" font-size="14" lengthAdjust="spacing" textLength="231.8203" x="1264.5" y="714.8389">RxThreadFunc(stop_token) : void</text><rect fill="#FFFFFF" height="6" style="stroke:#000000;stroke-width:1;" width="6" x="1254.5" y="724.7891"/><text fill="#000000" font-family="Verdana" font-size="14" lengthAdjust="spacing" textLength="260.5039" x="1264.5" y="731.1357">PdelayThreadFunc(stop_token) : void</text></g><!--class GptpEngineOptions--><g id="elem_GptpEngineOptions"><rect codeLine="45" fill="#F5F5DC" height="141.7813" id="GptpEngineOptions" rx="2.5" ry="2.5" style="stroke:#000000;stroke-width:1;" width="258.1992" x="1119" y="231.6875"/><ellipse cx="1176.2944" cy="245.6875" fill="#FFFFFF" rx="9" ry="9" style="stroke:#000000;stroke-width:1;"/><path d="M1175.7788,246.25 Q1173.9194,245.5469 1173.2632,244.7813 Q1172.6226,244 1172.6226,242.6875 Q1172.6226,241 1173.7007,240.0313 Q1174.7788,239.0625 1176.6538,239.0625 Q1177.5132,239.0625 1178.3569,239.2656 Q1179.2163,239.4531 1180.0601,239.8438 L1180.0601,242.2344 Q1179.2788,241.6719 1178.4507,241.3906 Q1177.6382,241.0938 1176.8413,241.0938 Q1175.9663,241.0938 1175.4819,241.4531 Q1175.0132,241.8125 1175.0132,242.4688 Q1175.0132,242.9844 1175.3569,243.3281 Q1175.7007,243.6563 1176.7944,244.0625 L1177.8569,244.4688 Q1179.3413,245.0156 1180.0444,245.9219 Q1180.7632,246.8281 1180.7632,248.2031 Q1180.7632,250.0781 1179.6538,251 Q1178.5444,251.9219 1176.2944,251.9219 Q1175.3726,251.9219 1174.4507,251.7031 Q1173.5288,251.4844 1172.6694,251.0625 L1172.6694,248.5313 Q1173.6382,249.2188 1174.5601,249.5625 Q1175.4819,249.9063 1176.3726,249.9063 Q1177.2788,249.9063 1177.7788,249.5 Q1178.2788,249.0781 1178.2788,248.3438 Q1178.2788,247.7813 1177.9351,247.375 Q1177.6069,246.9531 1176.9819,246.7031 L1175.7788,246.25 Z " fill="#000000"/><text fill="#000000" font-family="Verdana" font-size="14" lengthAdjust="spacing" textLength="136.1104" x="1193.7944" y="250.5342">GptpEngineOptions</text><line style="stroke:#000000;stroke-width:1;" x1="1120" x2="1376.1992" y1="259.6875" y2="259.6875"/><ellipse cx="1130" cy="273.3359" fill="transparent" rx="3" ry="3" style="stroke:#000000;stroke-width:1;"/><text fill="#000000" font-family="Verdana" font-size="14" lengthAdjust="spacing" textLength="194.0518" x="1137" y="276.6826">interface_name : std::string</text><ellipse cx="1130" cy="289.6328" fill="transparent" rx="3" ry="3" style="stroke:#000000;stroke-width:1;"/><text fill="#000000" font-family="Verdana" font-size="14" lengthAdjust="spacing" textLength="206.4932" x="1137" y="292.9795">pdelay_interval_ms : uint32_t</text><ellipse cx="1130" cy="305.9297" fill="transparent" rx="3" ry="3" style="stroke:#000000;stroke-width:1;"/><text fill="#000000" font-family="Verdana" font-size="14" lengthAdjust="spacing" textLength="192.6846" x="1137" y="309.2764">sync_timeout_ms : uint32_t</text><ellipse cx="1130" cy="322.2266" fill="transparent" rx="3" ry="3" style="stroke:#000000;stroke-width:1;"/><text fill="#000000" font-family="Verdana" font-size="14" lengthAdjust="spacing" textLength="220.1787" x="1137" y="325.5732">time_jump_forward_ns : int64_t</text><ellipse cx="1130" cy="338.5234" fill="transparent" rx="3" ry="3" style="stroke:#000000;stroke-width:1;"/><text fill="#000000" font-family="Verdana" font-size="14" lengthAdjust="spacing" textLength="234.1992" x="1137" y="341.8701">time_jump_backward_ns : int64_t</text><ellipse cx="1130" cy="354.8203" fill="transparent" rx="3" ry="3" style="stroke:#000000;stroke-width:1;"/><text fill="#000000" font-family="Verdana" font-size="14" lengthAdjust="spacing" textLength="158.8467" x="1137" y="358.167">phc_config : PhcConfig</text><line style="stroke:#000000;stroke-width:1;" x1="1120" x2="1376.1992" y1="365.4688" y2="365.4688"/></g><!--class GptpIpcPublisher--><g id="elem_GptpIpcPublisher"><rect fill="#FFFFFF" height="44" id="GptpIpcPublisher" rx="2.5" ry="2.5" style="stroke:#000000;stroke-width:1;" width="147.3418" x="1566.5" y="564.1875"/><ellipse cx="1579.5" cy="578.1875" fill="#FFFFFF" rx="9" ry="9" style="stroke:#000000;stroke-width:1;"/><path d="M1582.4688,583.8281 Q1581.8906,584.125 1581.25,584.2656 Q1580.6094,584.4219 1579.9063,584.4219 Q1577.4063,584.4219 1576.0781,582.7813 Q1574.7656,581.125 1574.7656,578 Q1574.7656,574.875 1576.0781,573.2188 Q1577.4063,571.5625 1579.9063,571.5625 Q1580.6094,571.5625 1581.25,571.7188 Q1581.9063,571.875 1582.4688,572.1719 L1582.4688,574.8906 Q1581.8438,574.3125 1581.25,574.0469 Q1580.6563,573.7656 1580.0313,573.7656 Q1578.6875,573.7656 1578,574.8438 Q1577.3125,575.9063 1577.3125,578 Q1577.3125,580.0938 1578,581.1719 Q1578.6875,582.2344 1580.0313,582.2344 Q1580.6563,582.2344 1581.25,581.9688 Q1581.8438,581.6875 1582.4688,581.1094 L1582.4688,583.8281 Z " fill="#000000"/><text fill="#000000" font-family="Verdana" font-size="14" lengthAdjust="spacing" textLength="119.3418" x="1591.5" y="583.0342">GptpIpcPublisher</text><line style="stroke:#000000;stroke-width:1;" x1="1567.5" x2="1712.8418" y1="592.1875" y2="592.1875"/><line style="stroke:#000000;stroke-width:1;" x1="1567.5" x2="1712.8418" y1="600.1875" y2="600.1875"/></g><!--class FrameCodec--><g id="elem_FrameCodec"><rect codeLine="59" fill="#F5DEB3" height="76.5938" id="FrameCodec" rx="2.5" ry="2.5" style="stroke:#000000;stroke-width:1;" width="373.7813" x="1619" y="862.1875"/><ellipse cx="1758.0522" cy="876.1875" fill="#FFFFFF" rx="9" ry="9" style="stroke:#000000;stroke-width:1;"/><path d="M1761.021,881.8281 Q1760.4429,882.125 1759.8022,882.2656 Q1759.1616,882.4219 1758.4585,882.4219 Q1755.9585,882.4219 1754.6304,880.7813 Q1753.3179,879.125 1753.3179,876 Q1753.3179,872.875 1754.6304,871.2188 Q1755.9585,869.5625 1758.4585,869.5625 Q1759.1616,869.5625 1759.8022,869.7188 Q1760.4585,869.875 1761.021,870.1719 L1761.021,872.8906 Q1760.396,872.3125 1759.8022,872.0469 Q1759.2085,871.7656 1758.5835,871.7656 Q1757.2397,871.7656 1756.5522,872.8438 Q1755.8647,873.9063 1755.8647,876 Q1755.8647,878.0938 1756.5522,879.1719 Q1757.2397,880.2344 1758.5835,880.2344 Q1759.2085,880.2344 1759.8022,879.9688 Q1760.396,879.6875 1761.021,879.1094 L1761.021,881.8281 Z " fill="#000000"/><text fill="#000000" font-family="Verdana" font-size="14" lengthAdjust="spacing" textLength="88.1768" x="1775.5522" y="881.0342">FrameCodec</text><line style="stroke:#000000;stroke-width:1;" x1="1620" x2="1991.7813" y1="890.1875" y2="890.1875"/><line style="stroke:#000000;stroke-width:1;" x1="1620" x2="1991.7813" y1="898.1875" y2="898.1875"/><ellipse cx="1630" cy="911.8359" fill="#FFFFFF" rx="3" ry="3" style="stroke:#000000;stroke-width:1;"/><text fill="#000000" font-family="Verdana" font-size="14" lengthAdjust="spacing" textLength="308.9707" x="1637" y="915.1826">ParseEthernetHeader(buf) : EthernetHeader</text><ellipse cx="1630" cy="928.1328" fill="#FFFFFF" rx="3" ry="3" style="stroke:#000000;stroke-width:1;"/><text fill="#000000" font-family="Verdana" font-size="14" lengthAdjust="spacing" textLength="349.7813" x="1637" y="931.4795">AddEthernetHeader(buf, dst_mac, src_mac) : void</text></g><!--class MessageParser--><g id="elem_MessageParser"><rect codeLine="64" fill="#F5DEB3" height="60.2969" id="MessageParser" rx="2.5" ry="2.5" style="stroke:#000000;stroke-width:1;" width="390.0029" x="1194" y="870.6875"/><ellipse cx="1332.3516" cy="884.6875" fill="#FFFFFF" rx="9" ry="9" style="stroke:#000000;stroke-width:1;"/><path d="M1335.3203,890.3281 Q1334.7422,890.625 1334.1016,890.7656 Q1333.4609,890.9219 1332.7578,890.9219 Q1330.2578,890.9219 1328.9297,889.2813 Q1327.6172,887.625 1327.6172,884.5 Q1327.6172,881.375 1328.9297,879.7188 Q1330.2578,878.0625 1332.7578,878.0625 Q1333.4609,878.0625 1334.1016,878.2188 Q1334.7578,878.375 1335.3203,878.6719 L1335.3203,881.3906 Q1334.6953,880.8125 1334.1016,880.5469 Q1333.5078,880.2656 1332.8828,880.2656 Q1331.5391,880.2656 1330.8516,881.3438 Q1330.1641,882.4063 1330.1641,884.5 Q1330.1641,886.5938 1330.8516,887.6719 Q1331.5391,888.7344 1332.8828,888.7344 Q1333.5078,888.7344 1334.1016,888.4688 Q1334.6953,888.1875 1335.3203,887.6094 L1335.3203,890.3281 Z " fill="#000000"/><text fill="#000000" font-family="Verdana" font-size="14" lengthAdjust="spacing" textLength="105.7998" x="1349.8516" y="889.5342">MessageParser</text><line style="stroke:#000000;stroke-width:1;" x1="1195" x2="1583.0029" y1="898.6875" y2="898.6875"/><line style="stroke:#000000;stroke-width:1;" x1="1195" x2="1583.0029" y1="906.6875" y2="906.6875"/><ellipse cx="1205" cy="920.3359" fill="#FFFFFF" rx="3" ry="3" style="stroke:#000000;stroke-width:1;"/><text fill="#000000" font-family="Verdana" font-size="14" lengthAdjust="spacing" textLength="366.0029" x="1212" y="923.6826">Parse(payload, hw_ts) : std::optional&lt;PTPMessage&gt;</text></g><!--class SyncStateMachine--><g id="elem_SyncStateMachine"><rect codeLine="68" fill="#F5DEB3" height="174.375" id="SyncStateMachine" rx="2.5" ry="2.5" style="stroke:#000000;stroke-width:1;" width="350.7305" x="807.5" y="813.6875"/><ellipse cx="914.4131" cy="827.6875" fill="#FFFFFF" rx="9" ry="9" style="stroke:#000000;stroke-width:1;"/><path d="M917.3818,833.3281 Q916.8037,833.625 916.1631,833.7656 Q915.5225,833.9219 914.8193,833.9219 Q912.3193,833.9219 910.9912,832.2813 Q909.6787,830.625 909.6787,827.5 Q909.6787,824.375 910.9912,822.7188 Q912.3193,821.0625 914.8193,821.0625 Q915.5225,821.0625 916.1631,821.2188 Q916.8193,821.375 917.3818,821.6719 L917.3818,824.3906 Q916.7568,823.8125 916.1631,823.5469 Q915.5693,823.2656 914.9443,823.2656 Q913.6006,823.2656 912.9131,824.3438 Q912.2256,825.4063 912.2256,827.5 Q912.2256,829.5938 912.9131,830.6719 Q913.6006,831.7344 914.9443,831.7344 Q915.5693,831.7344 916.1631,831.4688 Q916.7568,831.1875 917.3818,830.6094 L917.3818,833.3281 Z " fill="#000000"/><text fill="#000000" font-family="Verdana" font-size="14" lengthAdjust="spacing" textLength="129.4043" x="931.9131" y="832.5342">SyncStateMachine</text><line style="stroke:#000000;stroke-width:1;" x1="808.5" x2="1157.2305" y1="841.6875" y2="841.6875"/><rect fill="transparent" height="6" style="stroke:#000000;stroke-width:1;" width="6" x="815.5" y="852.3359"/><text fill="#000000" font-family="Verdana" font-size="14" lengthAdjust="spacing" textLength="171.8145" x="825.5" y="858.6826">last_sync_ : PTPMessage</text><rect fill="transparent" height="6" style="stroke:#000000;stroke-width:1;" width="6" x="815.5" y="868.6328"/><text fill="#000000" font-family="Verdana" font-size="14" lengthAdjust="spacing" textLength="164.4111" x="825.5" y="874.9795">last_offset_ns_ : int64_t</text><rect fill="transparent" height="6" style="stroke:#000000;stroke-width:1;" width="6" x="815.5" y="884.9297"/><text fill="#000000" font-family="Verdana" font-size="14" lengthAdjust="spacing" textLength="205.3926" x="825.5" y="891.2764">neighbor_rate_ratio_ : double</text><rect fill="transparent" height="6" style="stroke:#000000;stroke-width:1;" width="6" x="815.5" y="901.2266"/><text fill="#000000" font-family="Verdana" font-size="14" lengthAdjust="spacing" textLength="207.5049" x="825.5" y="907.5732">timeout_ : std::atomic&lt;bool&gt;</text><line style="stroke:#000000;stroke-width:1;" x1="808.5" x2="1157.2305" y1="914.875" y2="914.875"/><ellipse cx="818.5" cy="928.5234" fill="#FFFFFF" rx="3" ry="3" style="stroke:#000000;stroke-width:1;"/><text fill="#000000" font-family="Verdana" font-size="14" lengthAdjust="spacing" textLength="137.6211" x="825.5" y="931.8701">OnSync(msg) : void</text><ellipse cx="818.5" cy="944.8203" fill="#FFFFFF" rx="3" ry="3" style="stroke:#000000;stroke-width:1;"/><text fill="#000000" font-family="Verdana" font-size="14" lengthAdjust="spacing" textLength="326.7305" x="825.5" y="948.167">OnFollowUp(msg) : std::optional&lt;SyncResult&gt;</text><ellipse cx="818.5" cy="961.1172" fill="#FFFFFF" rx="3" ry="3" style="stroke:#000000;stroke-width:1;"/><text fill="#000000" font-family="Verdana" font-size="14" lengthAdjust="spacing" textLength="123.4912" x="825.5" y="964.4639">IsTimeout() : bool</text><ellipse cx="818.5" cy="977.4141" fill="#FFFFFF" rx="3" ry="3" style="stroke:#000000;stroke-width:1;"/><text fill="#000000" font-family="Verdana" font-size="14" lengthAdjust="spacing" textLength="229.8105" x="825.5" y="980.7607">GetNeighborRateRatio() : double</text></g><!--class PeerDelayMeasurer--><g id="elem_PeerDelayMeasurer"><rect codeLine="79" fill="#F5DEB3" height="141.7813" id="PeerDelayMeasurer" rx="2.5" ry="2.5" style="stroke:#000000;stroke-width:1;" width="259.293" x="513.5" y="829.6875"/><ellipse cx="570.8286" cy="843.6875" fill="#FFFFFF" rx="9" ry="9" style="stroke:#000000;stroke-width:1;"/><path d="M573.7974,849.3281 Q573.2192,849.625 572.5786,849.7656 Q571.938,849.9219 571.2349,849.9219 Q568.7349,849.9219 567.4067,848.2813 Q566.0942,846.625 566.0942,843.5 Q566.0942,840.375 567.4067,838.7188 Q568.7349,837.0625 571.2349,837.0625 Q571.938,837.0625 572.5786,837.2188 Q573.2349,837.375 573.7974,837.6719 L573.7974,840.3906 Q573.1724,839.8125 572.5786,839.5469 Q571.9849,839.2656 571.3599,839.2656 Q570.0161,839.2656 569.3286,840.3438 Q568.6411,841.4063 568.6411,843.5 Q568.6411,845.5938 569.3286,846.6719 Q570.0161,847.7344 571.3599,847.7344 Q571.9849,847.7344 572.5786,847.4688 Q573.1724,847.1875 573.7974,846.6094 L573.7974,849.3281 Z " fill="#000000"/><text fill="#000000" font-family="Verdana" font-size="14" lengthAdjust="spacing" textLength="137.1357" x="588.3286" y="848.5342">PeerDelayMeasurer</text><line style="stroke:#000000;stroke-width:1;" x1="514.5" x2="771.793" y1="857.6875" y2="857.6875"/><rect fill="transparent" height="6" style="stroke:#000000;stroke-width:1;" width="6" x="521.5" y="868.3359"/><text fill="#000000" font-family="Verdana" font-size="14" lengthAdjust="spacing" textLength="141.5176" x="531.5" y="874.6826">mutex_ : std::mutex</text><rect fill="transparent" height="6" style="stroke:#000000;stroke-width:1;" width="6" x="521.5" y="884.6328"/><text fill="#000000" font-family="Verdana" font-size="14" lengthAdjust="spacing" textLength="153.0088" x="531.5" y="890.9795">result_ : PDelayResult</text><line style="stroke:#000000;stroke-width:1;" x1="514.5" x2="771.793" y1="898.2813" y2="898.2813"/><ellipse cx="524.5" cy="911.9297" fill="#FFFFFF" rx="3" ry="3" style="stroke:#000000;stroke-width:1;"/><text fill="#000000" font-family="Verdana" font-size="14" lengthAdjust="spacing" textLength="192.6914" x="531.5" y="915.2764">SendRequest(socket) : void</text><ellipse cx="524.5" cy="928.2266" fill="#FFFFFF" rx="3" ry="3" style="stroke:#000000;stroke-width:1;"/><text fill="#000000" font-family="Verdana" font-size="14" lengthAdjust="spacing" textLength="171.7461" x="531.5" y="931.5732">OnResponse(msg) : void</text><ellipse cx="524.5" cy="944.5234" fill="#FFFFFF" rx="3" ry="3" style="stroke:#000000;stroke-width:1;"/><text fill="#000000" font-family="Verdana" font-size="14" lengthAdjust="spacing" textLength="235.293" x="531.5" y="947.8701">OnResponseFollowUp(msg) : void</text><ellipse cx="524.5" cy="960.8203" fill="#FFFFFF" rx="3" ry="3" style="stroke:#000000;stroke-width:1;"/><text fill="#000000" font-family="Verdana" font-size="14" lengthAdjust="spacing" textLength="185.8555" x="531.5" y="964.167">GetResult() : PDelayResult</text></g><!--class SyncResult--><g id="elem_SyncResult"><rect codeLine="88" fill="#F5F5DC" height="125.4844" id="SyncResult" rx="2.5" ry="2.5" style="stroke:#000000;stroke-width:1;" width="230.9717" x="247.5" y="838.1875"/><ellipse cx="320.4214" cy="852.1875" fill="#FFFFFF" rx="9" ry="9" style="stroke:#000000;stroke-width:1;"/><path d="M319.9058,852.75 Q318.0464,852.0469 317.3901,851.2813 Q316.7495,850.5 316.7495,849.1875 Q316.7495,847.5 317.8276,846.5313 Q318.9058,845.5625 320.7808,845.5625 Q321.6401,845.5625 322.4839,845.7656 Q323.3433,845.9531 324.187,846.3438 L324.187,848.7344 Q323.4058,848.1719 322.5776,847.8906 Q321.7651,847.5938 320.9683,847.5938 Q320.0933,847.5938 319.6089,847.9531 Q319.1401,848.3125 319.1401,848.9688 Q319.1401,849.4844 319.4839,849.8281 Q319.8276,850.1563 320.9214,850.5625 L321.9839,850.9688 Q323.4683,851.5156 324.1714,852.4219 Q324.8901,853.3281 324.8901,854.7031 Q324.8901,856.5781 323.7808,857.5 Q322.6714,858.4219 320.4214,858.4219 Q319.4995,858.4219 318.5776,858.2031 Q317.6558,857.9844 316.7964,857.5625 L316.7964,855.0313 Q317.7651,855.7188 318.687,856.0625 Q319.6089,856.4063 320.4995,856.4063 Q321.4058,856.4063 321.9058,856 Q322.4058,855.5781 322.4058,854.8438 Q322.4058,854.2813 322.062,853.875 Q321.7339,853.4531 321.1089,853.2031 L319.9058,852.75 Z " fill="#000000"/><text fill="#000000" font-family="Verdana" font-size="14" lengthAdjust="spacing" textLength="77.6289" x="337.9214" y="857.0342">SyncResult</text><line style="stroke:#000000;stroke-width:1;" x1="248.5" x2="477.4717" y1="866.1875" y2="866.1875"/><ellipse cx="258.5" cy="879.8359" fill="transparent" rx="3" ry="3" style="stroke:#000000;stroke-width:1;"/><text fill="#000000" font-family="Verdana" font-size="14" lengthAdjust="spacing" textLength="134.709" x="265.5" y="883.1826">master_ns : int64_t</text><ellipse cx="258.5" cy="896.1328" fill="transparent" rx="3" ry="3" style="stroke:#000000;stroke-width:1;"/><text fill="#000000" font-family="Verdana" font-size="14" lengthAdjust="spacing" textLength="125.1592" x="265.5" y="899.4795">offset_ns : int64_t</text><ellipse cx="258.5" cy="912.4297" fill="transparent" rx="3" ry="3" style="stroke:#000000;stroke-width:1;"/><text fill="#000000" font-family="Verdana" font-size="14" lengthAdjust="spacing" textLength="206.9717" x="265.5" y="915.7764">sync_fup_data : SyncFupData</text><ellipse cx="258.5" cy="928.7266" fill="transparent" rx="3" ry="3" style="stroke:#000000;stroke-width:1;"/><text fill="#000000" font-family="Verdana" font-size="14" lengthAdjust="spacing" textLength="178.3633" x="265.5" y="932.0732">time_jump_forward : bool</text><ellipse cx="258.5" cy="945.0234" fill="transparent" rx="3" ry="3" style="stroke:#000000;stroke-width:1;"/><text fill="#000000" font-family="Verdana" font-size="14" lengthAdjust="spacing" textLength="192.3838" x="265.5" y="948.3701">time_jump_backward : bool</text><line style="stroke:#000000;stroke-width:1;" x1="248.5" x2="477.4717" y1="955.6719" y2="955.6719"/></g><!--class PDelayResult--><g id="elem_PDelayResult"><rect codeLine="96" fill="#F5F5DC" height="76.5938" id="PDelayResult" rx="2.5" ry="2.5" style="stroke:#000000;stroke-width:1;" width="186.4219" x="27" y="862.1875"/><ellipse cx="70.2227" cy="876.1875" fill="#FFFFFF" rx="9" ry="9" style="stroke:#000000;stroke-width:1;"/><path d="M69.707,876.75 Q67.8477,876.0469 67.1914,875.2813 Q66.5508,874.5 66.5508,873.1875 Q66.5508,871.5 67.6289,870.5313 Q68.707,869.5625 70.582,869.5625 Q71.4414,869.5625 72.2852,869.7656 Q73.1445,869.9531 73.9883,870.3438 L73.9883,872.7344 Q73.207,872.1719 72.3789,871.8906 Q71.5664,871.5938 70.7695,871.5938 Q69.8945,871.5938 69.4102,871.9531 Q68.9414,872.3125 68.9414,872.9688 Q68.9414,873.4844 69.2852,873.8281 Q69.6289,874.1563 70.7227,874.5625 L71.7852,874.9688 Q73.2695,875.5156 73.9727,876.4219 Q74.6914,877.3281 74.6914,878.7031 Q74.6914,880.5781 73.582,881.5 Q72.4727,882.4219 70.2227,882.4219 Q69.3008,882.4219 68.3789,882.2031 Q67.457,881.9844 66.5977,881.5625 L66.5977,879.0313 Q67.5664,879.7188 68.4883,880.0625 Q69.4102,880.4063 70.3008,880.4063 Q71.207,880.4063 71.707,880 Q72.207,879.5781 72.207,878.8438 Q72.207,878.2813 71.8633,877.875 Q71.5352,877.4531 70.9102,877.2031 L69.707,876.75 Z " fill="#000000"/><text fill="#000000" font-family="Verdana" font-size="14" lengthAdjust="spacing" textLength="92.4766" x="87.7227" y="881.0342">PDelayResult</text><line style="stroke:#000000;stroke-width:1;" x1="28" x2="212.4219" y1="890.1875" y2="890.1875"/><ellipse cx="38" cy="903.8359" fill="transparent" rx="3" ry="3" style="stroke:#000000;stroke-width:1;"/><text fill="#000000" font-family="Verdana" font-size="14" lengthAdjust="spacing" textLength="162.4219" x="45" y="907.1826">path_delay_ns : int64_t</text><ellipse cx="38" cy="920.1328" fill="transparent" rx="3" ry="3" style="stroke:#000000;stroke-width:1;"/><text fill="#000000" font-family="Verdana" font-size="14" lengthAdjust="spacing" textLength="77.0547" x="45" y="923.4795">valid : bool</text><line style="stroke:#000000;stroke-width:1;" x1="28" x2="212.4219" y1="930.7813" y2="930.7813"/></g><!--class PhcAdjuster--><g id="elem_PhcAdjuster"><rect codeLine="103" fill="#E6E6FA" height="125.4844" id="PhcAdjuster" rx="2.5" ry="2.5" style="stroke:#000000;stroke-width:1;" width="227.4375" x="2296.5" y="838.1875"/><ellipse cx="2364.7729" cy="852.1875" fill="#FFFFFF" rx="9" ry="9" style="stroke:#000000;stroke-width:1;"/><path d="M2367.7417,857.8281 Q2367.1636,858.125 2366.5229,858.2656 Q2365.8823,858.4219 2365.1792,858.4219 Q2362.6792,858.4219 2361.3511,856.7813 Q2360.0386,855.125 2360.0386,852 Q2360.0386,848.875 2361.3511,847.2188 Q2362.6792,845.5625 2365.1792,845.5625 Q2365.8823,845.5625 2366.5229,845.7188 Q2367.1792,845.875 2367.7417,846.1719 L2367.7417,848.8906 Q2367.1167,848.3125 2366.5229,848.0469 Q2365.9292,847.7656 2365.3042,847.7656 Q2363.9604,847.7656 2363.2729,848.8438 Q2362.5854,849.9063 2362.5854,852 Q2362.5854,854.0938 2363.2729,855.1719 Q2363.9604,856.2344 2365.3042,856.2344 Q2365.9292,856.2344 2366.5229,855.9688 Q2367.1167,855.6875 2367.7417,855.1094 L2367.7417,857.8281 Z " fill="#000000"/><text fill="#000000" font-family="Verdana" font-size="14" lengthAdjust="spacing" textLength="83.3916" x="2382.2729" y="857.0342">PhcAdjuster</text><line style="stroke:#000000;stroke-width:1;" x1="2297.5" x2="2522.9375" y1="866.1875" y2="866.1875"/><rect fill="transparent" height="6" style="stroke:#000000;stroke-width:1;" width="6" x="2304.5" y="876.8359"/><text fill="#000000" font-family="Verdana" font-size="14" lengthAdjust="spacing" textLength="133.3896" x="2314.5" y="883.1826">config_ : PhcConfig</text><rect fill="transparent" height="6" style="stroke:#000000;stroke-width:1;" width="6" x="2304.5" y="893.1328"/><text fill="#000000" font-family="Verdana" font-size="14" lengthAdjust="spacing" textLength="52.6846" x="2314.5" y="899.4795">fd_ : int</text><line style="stroke:#000000;stroke-width:1;" x1="2297.5" x2="2522.9375" y1="906.7813" y2="906.7813"/><ellipse cx="2307.5" cy="920.4297" fill="#FFFFFF" rx="3" ry="3" style="stroke:#000000;stroke-width:1;"/><text fill="#000000" font-family="Verdana" font-size="14" lengthAdjust="spacing" textLength="122.4453" x="2314.5" y="923.7764">IsEnabled() : bool</text><ellipse cx="2307.5" cy="936.7266" fill="#FFFFFF" rx="3" ry="3" style="stroke:#000000;stroke-width:1;"/><text fill="#000000" font-family="Verdana" font-size="14" lengthAdjust="spacing" textLength="203.4375" x="2314.5" y="940.0732">AdjustOffset(offset_ns) : void</text><ellipse cx="2307.5" cy="953.0234" fill="#FFFFFF" rx="3" ry="3" style="stroke:#000000;stroke-width:1;"/><text fill="#000000" font-family="Verdana" font-size="14" lengthAdjust="spacing" textLength="198.4883" x="2314.5" y="956.3701">AdjustFrequency(ppb) : void</text></g><!--class PhcConfig--><g id="elem_PhcConfig"><rect codeLine="111" fill="#F5F5DC" height="92.8906" id="PhcConfig" rx="2.5" ry="2.5" style="stroke:#000000;stroke-width:1;" width="212.8633" x="2048.5" y="854.1875"/><ellipse cx="2116.2158" cy="868.1875" fill="#FFFFFF" rx="9" ry="9" style="stroke:#000000;stroke-width:1;"/><path d="M2115.7002,868.75 Q2113.8408,868.0469 2113.1846,867.2813 Q2112.5439,866.5 2112.5439,865.1875 Q2112.5439,863.5 2113.6221,862.5313 Q2114.7002,861.5625 2116.5752,861.5625 Q2117.4346,861.5625 2118.2783,861.7656 Q2119.1377,861.9531 2119.9814,862.3438 L2119.9814,864.7344 Q2119.2002,864.1719 2118.3721,863.8906 Q2117.5596,863.5938 2116.7627,863.5938 Q2115.8877,863.5938 2115.4033,863.9531 Q2114.9346,864.3125 2114.9346,864.9688 Q2114.9346,865.4844 2115.2783,865.8281 Q2115.6221,866.1563 2116.7158,866.5625 L2117.7783,866.9688 Q2119.2627,867.5156 2119.9658,868.4219 Q2120.6846,869.3281 2120.6846,870.7031 Q2120.6846,872.5781 2119.5752,873.5 Q2118.4658,874.4219 2116.2158,874.4219 Q2115.2939,874.4219 2114.3721,874.2031 Q2113.4502,873.9844 2112.5908,873.5625 L2112.5908,871.0313 Q2113.5596,871.7188 2114.4814,872.0625 Q2115.4033,872.4063 2116.2939,872.4063 Q2117.2002,872.4063 2117.7002,872 Q2118.2002,871.5781 2118.2002,870.8438 Q2118.2002,870.2813 2117.8564,869.875 Q2117.5283,869.4531 2116.9033,869.2031 L2115.7002,868.75 Z " fill="#000000"/><text fill="#000000" font-family="Verdana" font-size="14" lengthAdjust="spacing" textLength="69.9316" x="2133.7158" y="873.0342">PhcConfig</text><line style="stroke:#000000;stroke-width:1;" x1="2049.5" x2="2260.3633" y1="882.1875" y2="882.1875"/><ellipse cx="2059.5" cy="895.8359" fill="transparent" rx="3" ry="3" style="stroke:#000000;stroke-width:1;"/><text fill="#000000" font-family="Verdana" font-size="14" lengthAdjust="spacing" textLength="99.8662" x="2066.5" y="899.1826">enabled : bool</text><ellipse cx="2059.5" cy="912.1328" fill="transparent" rx="3" ry="3" style="stroke:#000000;stroke-width:1;"/><text fill="#000000" font-family="Verdana" font-size="14" lengthAdjust="spacing" textLength="169.7227" x="2066.5" y="915.4795">device_path : std::string</text><ellipse cx="2059.5" cy="928.4297" fill="transparent" rx="3" ry="3" style="stroke:#000000;stroke-width:1;"/><text fill="#000000" font-family="Verdana" font-size="14" lengthAdjust="spacing" textLength="188.8633" x="2066.5" y="931.7764">step_threshold_ns : int64_t</text><line style="stroke:#000000;stroke-width:1;" x1="2049.5" x2="2260.3633" y1="939.0781" y2="939.0781"/></g><!--reverse link TimeSlave to GptpEngine--><g id="link_TimeSlave_GptpEngine"><path codeLine="54" d="M1532.0984,383.7789 C1519.0784,402.0989 1511.49,412.7775 1496.72,433.5675 " fill="transparent" id="TimeSlave-backto-GptpEngine" style="stroke:#000000;stroke-width:1;"/><polygon fill="#000000" points="1539.05,373.9975,1532.3137,376.571,1532.0984,383.7789,1538.8347,381.2054,1539.05,373.9975" style="stroke:#000000;stroke-width:1;"/></g><!--reverse link TimeSlave to GptpIpcPublisher--><g id="link_TimeSlave_GptpIpcPublisher"><path codeLine="55" d="M1603.8795,385.8052 C1615.2095,448.3352 1628.93,524.0575 1636.15,563.9175 " fill="transparent" id="TimeSlave-backto-GptpIpcPublisher" style="stroke:#000000;stroke-width:1;"/><polygon fill="#000000" points="1601.74,373.9975,1598.8738,380.6145,1603.8795,385.8052,1606.7457,379.1882,1601.74,373.9975" style="stroke:#000000;stroke-width:1;"/><text fill="#000000" font-family="Verdana" font-size="13" lengthAdjust="spacing" textLength="8.271" x="1626.0308" y="553.0016">1</text></g><!--reverse link GptpEngine to FrameCodec--><g id="link_GptpEngine_FrameCodec"><path codeLine="118" d="M1522.3489,746.3119 C1533.8389,755.2819 1536.45,755.9875 1549,762.6875 C1570.01,773.9175 1579.68,762.3675 1602,770.6875 C1660.31,792.4275 1719.61,832.3475 1759.14,862.0475 " fill="transparent" id="GptpEngine-backto-FrameCodec" style="stroke:#000000;stroke-width:1;"/><polygon fill="#000000" points="1512.89,738.9275,1515.158,745.7727,1522.3489,746.3119,1520.0809,739.4667,1512.89,738.9275" style="stroke:#000000;stroke-width:1;"/></g><!--reverse link GptpEngine to MessageParser--><g id="link_GptpEngine_MessageParser"><path codeLine="119" d="M1389,750.8575 C1389,801.0875 1389,839.9475 1389,870.6575 " fill="transparent" id="GptpEngine-backto-MessageParser" style="stroke:#000000;stroke-width:1;"/><polygon fill="#000000" points="1389,738.8575,1385,744.8575,1389,750.8575,1393,744.8575,1389,738.8575" style="stroke:#000000;stroke-width:1;"/></g><!--reverse link GptpEngine to SyncStateMachine--><g id="link_GptpEngine_SyncStateMachine"><path codeLine="120" d="M1236.9203,704.2463 C1187.2203,742.4963 1141.72,777.5175 1094.88,813.5775 " fill="transparent" id="GptpEngine-backto-SyncStateMachine" style="stroke:#000000;stroke-width:1;"/><polygon fill="#000000" points="1246.43,696.9275,1239.2355,697.417,1236.9203,704.2463,1244.1148,703.7568,1246.43,696.9275" style="stroke:#000000;stroke-width:1;"/></g><!--reverse link GptpEngine to PeerDelayMeasurer--><g id="link_GptpEngine_PeerDelayMeasurer"><path codeLine="121" d="M1234.6653,615.6068 C1108.8653,642.5068 935.21,689.6975 790,770.6875 C761.83,786.3975 734.32,808.2175 710.87,829.4375 " fill="transparent" id="GptpEngine-backto-PeerDelayMeasurer" style="stroke:#000000;stroke-width:1;"/><polygon fill="#000000" points="1246.4,613.0975,1239.6962,610.4406,1234.6653,615.6068,1241.3691,618.2637,1246.4,613.0975" style="stroke:#000000;stroke-width:1;"/></g><!--reverse link GptpEngine to PhcAdjuster--><g id="link_GptpEngine_PhcAdjuster"><path codeLine="122" d="M1518.7329,746.0503 C1531.2729,755.4203 1534.98,756.4075 1549,762.6875 C1586.01,779.2675 2241.55,755.1075 2279,770.6875 C2312.74,784.7275 2342.51,812.0175 2365.1,837.8875 " fill="transparent" id="GptpEngine-backto-PhcAdjuster" style="stroke:#000000;stroke-width:1;"/><polygon fill="#000000" points="1509.12,738.8675,1511.5322,745.6632,1518.7329,746.0503,1516.3207,739.2546,1509.12,738.8675" style="stroke:#000000;stroke-width:1;"/></g><!--SRC=[bLRBSYCd5DthAuYpqMIiHHwLXSfnrKIonweQZxiafxBiGlHLDsCQ2D2sbNZ-FHVGWtv8a_H29U1Sk9nxEF2Tgw06eWNbSZHot0aWZxo6bQ3FG6Q2Malcd9Q6rgEHW19aGPpIHC36ZGX-Rx-HcHBAaCE7FNEmp73jk9AazRt567Br_ITULcwsfV8wzXmNfLeBpkWnk1Eqeg9MFkoDbDbZHcvaoIKGfWmChlHd1THT7_f9PfHJJ0cYZM9WBPVbG7gOYIp0NE-3xcQ45byQwsgGxjoUCYwVTdjQP3DCgzPAOemz4VGxy1AIzERKKMATQPXh3DXs4EOKYp0QQSgUQ0damlgTJwVENf1_Hc5Q5ifsPFH8DYBsaqq81E9oCYKVjTEHncHODsl1RGLcZrXebktx4XmJYZrvp1skaXbWt6BfFYb6nSe1BROp3pW4l2SBoHsdWlyDutSOjikVQJsTmgi6vg2uUbQyk4vYbeqSMnHUxjGJoFySDWV-lnRxcX9uP8Maocjng8B8RPl4XzYPmCnhxYg3P7YWTGMMApHJkWiGTFjDcDrAbjlQ0rRuT-MeWtlAgaxjucG8oW3Ct3VkWLeKL5evYtK1vr6B9NrPXLPQM5K0ywEtUFfXvblf4jJOg8rxF4Ien2nqf8WgH6SL-n1EJdjjIRMjbClhni7hOR-XbS04Ri-w_83sypdjfRsG6tLQL6kbn3aT-9AdyaAIqKjMksK2P6YT2Lc-FeQIt3QITHJPcdD2ib23RwDtcej7lgyY4XqYKTrxmYMIkQ4CSecLsNE7Cw2N9R2T2WBwcOgyjWXjiFdpJxbBS45J3lUg6dSIvCVpBqsjyuqoBzGKkVH81FxwomdW6Ytg7D8BX2cvuMMKoIpyJqavUjWFaqdNfjg35pzUz5tgwv1FJgSbugRJ0Xpb8jZcyT0VjKxYpT4YFcZy1kzC8y7TOM71ZDVDnjUptPl4V2YAViGbAL3MDMMNn1hc_mnf8gRKEbydinfhkXMA5fUaUicTVRTNHNGeAgvGtxkP1hokwoNzPVnPz2VHQyMNwp1R5w4s6ukk4asnM_G9aQZcQgrCRd0r_yEL1nOAYvREjTVZVX_KgPgpAt-mKuT_a3xrSMtBWMFz86-L4Ehb3xq7j2dneKkmZN3fb0lx6DSUSfAFu3xlTh343Inz_W6NRA35RC-0XwWzRu8cf1XO3pF5b9EaLlWYMC9V3LhbE9hw81aOXsyHbCefjlQ0BciT878GKuW-sSsfRMX7ZeUShAR-NZXb40Sf3Ou6AMuQdHV-oHJlmzj6-mVKET_grxJlM2cclPrqjqCRqjHLUVJT4scZ4_FE0cTj2bsoRL79XKeE3zMMdAAfvZrNZQEROdSoMvg_aHJrMmnfFgxs48enFjHaG1WHU6ky52NRZhLUdxdg3haDyGWndNuo1JnplFWypoSlFgH6XvSKNkPYuFe9Z2VFEtz_98-SpaZxVTCPx3t2EkFzzrSNa3oF_WK0]--></g></svg>