<svg xmlns="http://www.w3.org/2000/svg" xmlns:xlink="http://www.w3.org/1999/xlink" contentStyleType="text/css" data-diagram-type="DESCRIPTION" height="893px" preserveAspectRatio="none" style="width:1673px;height:893px;background:#FFFFFF;" version="1.1" viewBox="0 0 1673 893" width="1673px" zoomAndPan="magnify"><title>score::time &#8212; Architecture Layers</title><defs/><g><text fill="#000000" font-family="sans-serif" font-size="14" font-weight="bold" lengthAdjust="spacing" textLength="268.6182" x="695.1909" y="22.9951">score::time &#8212; Architecture Layers</text><rect fill="transparent" height="79.1875" id="_legend" rx="7.5" ry="7.5" style="stroke:#000000;stroke-width:1;" width="341.3926" x="12" y="49.2969"/><rect fill="#ADD8E6" height="16.2969" style="stroke:transparent;stroke-width:1;" width="31.1514" x="17" y="56.2969"/><text fill="#000000" font-family="sans-serif" font-size="14" lengthAdjust="spacing" textLength="13.3506" x="17" y="69.292">&#160;&#160;&#160;</text><text fill="#000000" font-family="sans-serif" font-size="14" lengthAdjust="spacing" textLength="262.3701" x="52.6016" y="69.292">Public headers (clients include these)</text><rect fill="#90EE90" height="16.2969" style="stroke:transparent;stroke-width:1;" width="31.1514" x="17" y="72.5938"/><text fill="#000000" font-family="sans-serif" font-size="14" lengthAdjust="spacing" textLength="8.9004" x="17" y="85.5889">&#160;&#160;</text><text fill="#000000" font-family="sans-serif" font-size="14" lengthAdjust="spacing" textLength="237.9385" x="52.6016" y="85.5889">Framework layer (clock/ package)</text><rect fill="#F5DEB3" height="16.2969" style="stroke:transparent;stroke-width:1;" width="31.1514" x="17" y="88.8906"/><text fill="#000000" font-family="sans-serif" font-size="14" lengthAdjust="spacing" textLength="31.1514" x="17" y="101.8857">&#160;&#160;&#160;&#160;&#160;&#160;&#160;</text><text fill="#000000" font-family="sans-serif" font-size="14" lengthAdjust="spacing" textLength="190.6748" x="52.6016" y="101.8857">Time-domain tag packages</text><rect fill="#F08080" height="16.2969" style="stroke:transparent;stroke-width:1;" width="31.1514" x="17" y="105.1875"/><text fill="#000000" font-family="sans-serif" font-size="14" lengthAdjust="spacing" textLength="8.9004" x="17" y="118.1826">&#160;&#160;</text><text fill="#000000" font-family="sans-serif" font-size="14" lengthAdjust="spacing" textLength="266.1777" x="52.6016" y="118.1826">Internal details (clients never include)</text><line style="stroke:#000000;stroke-width:1;" x1="17" x2="348.3926" y1="56.2969" y2="56.2969"/><line style="stroke:#000000;stroke-width:1;" x1="17" x2="348.3926" y1="72.5938" y2="72.5938"/><line style="stroke:#000000;stroke-width:1;" x1="17" x2="348.3926" y1="88.8906" y2="88.8906"/><line style="stroke:#000000;stroke-width:1;" x1="17" x2="348.3926" y1="105.1875" y2="105.1875"/><line style="stroke:#000000;stroke-width:1;" x1="17" x2="348.3926" y1="121.4844" y2="121.4844"/><line style="stroke:#000000;stroke-width:1;" x1="17" x2="17" y1="56.2969" y2="121.4844"/><line style="stroke:#000000;stroke-width:1;" x1="48.1514" x2="48.1514" y1="56.2969" y2="121.4844"/><line style="stroke:#000000;stroke-width:1;" x1="348.3926" x2="348.3926" y1="56.2969" y2="121.4844"/><!--cluster Client Code--><g id="cluster_Client Code"><rect fill="#FFFFE0" height="97" rx="2.5" ry="2.5" style="stroke:#181818;stroke-width:1;" width="289" x="753" y="148.4844"/><text fill="#000000" font-family="sans-serif" font-size="14" font-weight="bold" lengthAdjust="spacing" textLength="90.3096" x="852.3452" y="163.4795">Client Code</text></g><!--cluster Public Interface ? clock/--><g id="cluster_Public Interface &#8212; clock/"><rect fill="#90EE90" height="203" rx="2.5" ry="2.5" style="stroke:#181818;stroke-width:1;" width="1045" x="202" y="269.4844"/><text fill="#000000" font-family="sans-serif" font-size="14" font-weight="bold" lengthAdjust="spacing" textLength="193.8057" x="627.5972" y="284.4795">Public Interface &#8212; clock/</text></g><!--cluster Time-Domain Tags--><g id="cluster_Time-Domain Tags"><rect fill="#F5DEB3" height="391" rx="2.5" ry="2.5" style="stroke:#181818;stroke-width:1;" width="1253" x="7" y="496.4844"/><text fill="#000000" font-family="sans-serif" font-size="14" font-weight="bold" lengthAdjust="spacing" textLength="146.5078" x="560.2461" y="511.4795">Time-Domain Tags</text></g><!--cluster vehicle_time/--><g id="cluster_vehicle_time/"><rect fill="transparent" height="203" rx="2.5" ry="2.5" style="stroke:#181818;stroke-width:1;" width="407" x="829" y="539.4844"/><text fill="#000000" font-family="sans-serif" font-size="14" font-weight="bold" lengthAdjust="spacing" textLength="103.667" x="980.6665" y="554.4795">vehicle_time/</text></g><!--cluster hpls_time/--><g id="cluster_hpls_time/"><rect fill="transparent" height="97" rx="2.5" ry="2.5" style="stroke:#181818;stroke-width:1;" width="166" x="639" y="539.4844"/><text fill="#000000" font-family="sans-serif" font-size="14" font-weight="bold" lengthAdjust="spacing" textLength="80.8076" x="681.5962" y="554.4795">hpls_time/</text></g><!--cluster steady_time/--><g id="cluster_steady_time/"><rect fill="transparent" height="97" rx="2.5" ry="2.5" style="stroke:#181818;stroke-width:1;" width="278" x="337" y="539.4844"/><text fill="#000000" font-family="sans-serif" font-size="14" font-weight="bold" lengthAdjust="spacing" textLength="100.8027" x="425.5986" y="554.4795">steady_time/</text></g><!--cluster system_time/--><g id="cluster_system_time/"><rect fill="transparent" height="97" rx="2.5" ry="2.5" style="stroke:#181818;stroke-width:1;" width="282" x="31" y="539.4844"/><text fill="#000000" font-family="sans-serif" font-size="14" font-weight="bold" lengthAdjust="spacing" textLength="104.2549" x="119.8726" y="554.4795">system_time/</text></g><!--cluster ptp/--><g id="cluster_ptp/"><rect fill="transparent" height="97" rx="2.5" ry="2.5" style="stroke:#181818;stroke-width:1;" width="565" x="671" y="766.4844"/><text fill="#000000" font-family="sans-serif" font-size="14" font-weight="bold" lengthAdjust="spacing" textLength="31.8486" x="937.5757" y="781.4795">ptp/</text></g><!--cluster Internal ? details/ (never included by clients)--><g id="cluster_Internal &#8212; details/ (never included by clients)"><rect fill="#F08080" height="203" rx="2.5" ry="2.5" style="stroke:#181818;stroke-width:1;" width="383" x="1284" y="539.4844"/><text fill="#000000" font-family="sans-serif" font-size="14" font-weight="bold" lengthAdjust="spacing" textLength="361.1084" x="1294.9458" y="554.4795">Internal &#8212; details/ (never included by clients)</text></g><!--entity app--><g id="elem_app"><rect fill="#F1F1F1" height="46.2969" rx="2.5" ry="2.5" style="stroke:#181818;stroke-width:0.5;" width="118.2236" x="908" y="183.4844"/><rect fill="#F1F1F1" height="10" style="stroke:#181818;stroke-width:0.5;" width="15" x="1006.2236" y="188.4844"/><rect fill="#F1F1F1" height="2" style="stroke:#181818;stroke-width:0.5;" width="4" x="1004.2236" y="190.4844"/><rect fill="#F1F1F1" height="2" style="stroke:#181818;stroke-width:0.5;" width="4" x="1004.2236" y="194.4844"/><text fill="#000000" font-family="sans-serif" font-size="14" lengthAdjust="spacing" textLength="78.2236" x="923" y="216.4795">Application</text></g><!--entity test--><g id="elem_test"><rect fill="#F1F1F1" height="46.2969" rx="2.5" ry="2.5" style="stroke:#181818;stroke-width:0.5;" width="102.8975" x="769.5" y="183.4844"/><rect fill="#F1F1F1" height="10" style="stroke:#181818;stroke-width:0.5;" width="15" x="852.3975" y="188.4844"/><rect fill="#F1F1F1" height="2" style="stroke:#181818;stroke-width:0.5;" width="4" x="850.3975" y="190.4844"/><rect fill="#F1F1F1" height="2" style="stroke:#181818;stroke-width:0.5;" width="4" x="850.3975" y="194.4844"/><text fill="#000000" font-family="sans-serif" font-size="14" lengthAdjust="spacing" textLength="62.8975" x="784.5" y="216.4795">Unit Test</text></g><!--entity clock--><g id="elem_clock"><rect fill="#F1F1F1" height="46.2969" rx="2.5" ry="2.5" style="stroke:#181818;stroke-width:0.5;" width="127.5137" x="762" y="410.4844"/><rect fill="#F1F1F1" height="10" style="stroke:#181818;stroke-width:0.5;" width="15" x="869.5137" y="415.4844"/><rect fill="#F1F1F1" height="2" style="stroke:#181818;stroke-width:0.5;" width="4" x="867.5137" y="417.4844"/><rect fill="#F1F1F1" height="2" style="stroke:#181818;stroke-width:0.5;" width="4" x="867.5137" y="421.4844"/><text fill="#000000" font-family="sans-serif" font-size="14" lengthAdjust="spacing" textLength="87.5137" x="777" y="443.4795">Clock&lt;Tag&gt;</text></g><!--entity guard--><g id="elem_guard"><rect fill="#F1F1F1" height="46.2969" rx="2.5" ry="2.5" style="stroke:#181818;stroke-width:0.5;" width="231.2764" x="617.5" y="304.4844"/><rect fill="#F1F1F1" height="10" style="stroke:#181818;stroke-width:0.5;" width="15" x="828.7764" y="309.4844"/><rect fill="#F1F1F1" height="2" style="stroke:#181818;stroke-width:0.5;" width="4" x="826.7764" y="311.4844"/><rect fill="#F1F1F1" height="2" style="stroke:#181818;stroke-width:0.5;" width="4" x="826.7764" y="315.4844"/><text fill="#000000" font-family="sans-serif" font-size="14" lengthAdjust="spacing" textLength="191.2764" x="632.5" y="337.4795">ClockOverrideGuard&lt;Tag&gt;</text></g><!--entity vclock--><g id="elem_vclock"><rect fill="#F1F1F1" height="46.2969" rx="2.5" ry="2.5" style="stroke:#181818;stroke-width:0.5;" width="165.8701" x="884" y="304.4844"/><rect fill="#F1F1F1" height="10" style="stroke:#181818;stroke-width:0.5;" width="15" x="1029.8701" y="309.4844"/><rect fill="#F1F1F1" height="2" style="stroke:#181818;stroke-width:0.5;" width="4" x="1027.8701" y="311.4844"/><rect fill="#F1F1F1" height="2" style="stroke:#181818;stroke-width:0.5;" width="4" x="1027.8701" y="315.4844"/><text fill="#000000" font-family="sans-serif" font-size="14" lengthAdjust="spacing" textLength="125.8701" x="899" y="337.4795">VehicleClock alias</text></g><!--entity hclock--><g id="elem_hclock"><rect fill="#F1F1F1" height="46.2969" rx="2.5" ry="2.5" style="stroke:#181818;stroke-width:0.5;" width="145.3145" x="1085.5" y="304.4844"/><rect fill="#F1F1F1" height="10" style="stroke:#181818;stroke-width:0.5;" width="15" x="1210.8145" y="309.4844"/><rect fill="#F1F1F1" height="2" style="stroke:#181818;stroke-width:0.5;" width="4" x="1208.8145" y="311.4844"/><rect fill="#F1F1F1" height="2" style="stroke:#181818;stroke-width:0.5;" width="4" x="1208.8145" y="315.4844"/><text fill="#000000" font-family="sans-serif" font-size="14" lengthAdjust="spacing" textLength="105.3145" x="1100.5" y="337.4795">HplsClock alias</text></g><!--entity sclock--><g id="elem_sclock"><rect fill="#F1F1F1" height="46.2969" rx="2.5" ry="2.5" style="stroke:#181818;stroke-width:0.5;" width="163.457" x="419.5" y="304.4844"/><rect fill="#F1F1F1" height="10" style="stroke:#181818;stroke-width:0.5;" width="15" x="562.957" y="309.4844"/><rect fill="#F1F1F1" height="2" style="stroke:#181818;stroke-width:0.5;" width="4" x="560.957" y="311.4844"/><rect fill="#F1F1F1" height="2" style="stroke:#181818;stroke-width:0.5;" width="4" x="560.957" y="315.4844"/><text fill="#000000" font-family="sans-serif" font-size="14" lengthAdjust="spacing" textLength="123.457" x="434.5" y="337.4795">SteadyClock alias</text></g><!--entity sysclock--><g id="elem_sysclock"><rect fill="#F1F1F1" height="46.2969" rx="2.5" ry="2.5" style="stroke:#181818;stroke-width:0.5;" width="166.9229" x="217.5" y="304.4844"/><rect fill="#F1F1F1" height="10" style="stroke:#181818;stroke-width:0.5;" width="15" x="364.4229" y="309.4844"/><rect fill="#F1F1F1" height="2" style="stroke:#181818;stroke-width:0.5;" width="4" x="362.4229" y="311.4844"/><rect fill="#F1F1F1" height="2" style="stroke:#181818;stroke-width:0.5;" width="4" x="362.4229" y="315.4844"/><text fill="#000000" font-family="sans-serif" font-size="14" lengthAdjust="spacing" textLength="126.9229" x="232.5" y="337.4795">SystemClock alias</text></g><!--entity vtag--><g id="elem_vtag"><rect fill="#F1F1F1" height="46.2969" rx="2.5" ry="2.5" style="stroke:#181818;stroke-width:0.5;" width="153.251" x="853.5" y="574.4844"/><rect fill="#F1F1F1" height="10" style="stroke:#181818;stroke-width:0.5;" width="15" x="986.751" y="579.4844"/><rect fill="#F1F1F1" height="2" style="stroke:#181818;stroke-width:0.5;" width="4" x="984.751" y="581.4844"/><rect fill="#F1F1F1" height="2" style="stroke:#181818;stroke-width:0.5;" width="4" x="984.751" y="585.4844"/><text fill="#000000" font-family="sans-serif" font-size="14" lengthAdjust="spacing" textLength="113.251" x="868.5" y="607.4795">VehicleTime tag</text></g><!--entity vstatus--><g id="elem_vstatus"><rect fill="#F1F1F1" height="46.2969" rx="2.5" ry="2.5" style="stroke:#181818;stroke-width:0.5;" width="170.457" x="845" y="680.4844"/><rect fill="#F1F1F1" height="10" style="stroke:#181818;stroke-width:0.5;" width="15" x="995.457" y="685.4844"/><rect fill="#F1F1F1" height="2" style="stroke:#181818;stroke-width:0.5;" width="4" x="993.457" y="687.4844"/><rect fill="#F1F1F1" height="2" style="stroke:#181818;stroke-width:0.5;" width="4" x="993.457" y="691.4844"/><text fill="#000000" font-family="sans-serif" font-size="14" lengthAdjust="spacing" textLength="130.457" x="860" y="713.4795">VehicleTimeStatus</text></g><!--entity vcb--><g id="elem_vcb"><rect fill="#F1F1F1" height="46.2969" rx="2.5" ry="2.5" style="stroke:#181818;stroke-width:0.5;" width="170.2314" x="1050" y="680.4844"/><rect fill="#F1F1F1" height="10" style="stroke:#181818;stroke-width:0.5;" width="15" x="1200.2314" y="685.4844"/><rect fill="#F1F1F1" height="2" style="stroke:#181818;stroke-width:0.5;" width="4" x="1198.2314" y="687.4844"/><rect fill="#F1F1F1" height="2" style="stroke:#181818;stroke-width:0.5;" width="4" x="1198.2314" y="691.4844"/><text fill="#000000" font-family="sans-serif" font-size="14" lengthAdjust="spacing" textLength="130.2314" x="1065" y="713.4795">PTP callback types</text></g><!--entity htag--><g id="elem_htag"><rect fill="#F1F1F1" height="46.2969" rx="2.5" ry="2.5" style="stroke:#181818;stroke-width:0.5;" width="132.6953" x="655.5" y="574.4844"/><rect fill="#F1F1F1" height="10" style="stroke:#181818;stroke-width:0.5;" width="15" x="768.1953" y="579.4844"/><rect fill="#F1F1F1" height="2" style="stroke:#181818;stroke-width:0.5;" width="4" x="766.1953" y="581.4844"/><rect fill="#F1F1F1" height="2" style="stroke:#181818;stroke-width:0.5;" width="4" x="766.1953" y="585.4844"/><text fill="#000000" font-family="sans-serif" font-size="14" lengthAdjust="spacing" textLength="92.6953" x="670.5" y="607.4795">HplsTime tag</text></g><!--entity stag--><g id="elem_stag"><rect fill="#F1F1F1" height="46.2969" rx="2.5" ry="2.5" style="stroke:#181818;stroke-width:0.5;" width="246.377" x="353" y="574.4844"/><rect fill="#F1F1F1" height="10" style="stroke:#181818;stroke-width:0.5;" width="15" x="579.377" y="579.4844"/><rect fill="#F1F1F1" height="2" style="stroke:#181818;stroke-width:0.5;" width="4" x="577.377" y="581.4844"/><rect fill="#F1F1F1" height="2" style="stroke:#181818;stroke-width:0.5;" width="4" x="577.377" y="585.4844"/><text fill="#000000" font-family="sans-serif" font-size="14" lengthAdjust="spacing" textLength="206.377" x="368" y="607.4795">std::chrono::steady_clock tag</text></g><!--entity systag--><g id="elem_systag"><rect fill="#F1F1F1" height="46.2969" rx="2.5" ry="2.5" style="stroke:#181818;stroke-width:0.5;" width="249.8428" x="47" y="574.4844"/><rect fill="#F1F1F1" height="10" style="stroke:#181818;stroke-width:0.5;" width="15" x="276.8428" y="579.4844"/><rect fill="#F1F1F1" height="2" style="stroke:#181818;stroke-width:0.5;" width="4" x="274.8428" y="581.4844"/><rect fill="#F1F1F1" height="2" style="stroke:#181818;stroke-width:0.5;" width="4" x="274.8428" y="585.4844"/><text fill="#000000" font-family="sans-serif" font-size="14" lengthAdjust="spacing" textLength="209.8428" x="62" y="607.4795">std::chrono::system_clock tag</text></g><!--entity tss--><g id="elem_tss"><rect fill="#F1F1F1" height="46.2969" rx="2.5" ry="2.5" style="stroke:#181818;stroke-width:0.5;" width="229.5947" x="990" y="801.4844"/><rect fill="#F1F1F1" height="10" style="stroke:#181818;stroke-width:0.5;" width="15" x="1199.5947" y="806.4844"/><rect fill="#F1F1F1" height="2" style="stroke:#181818;stroke-width:0.5;" width="4" x="1197.5947" y="808.4844"/><rect fill="#F1F1F1" height="2" style="stroke:#181818;stroke-width:0.5;" width="4" x="1197.5947" y="812.4844"/><text fill="#000000" font-family="sans-serif" font-size="14" lengthAdjust="spacing" textLength="189.5947" x="1005" y="834.4795">TimeSlaveSyncData&lt;Tag&gt;</text></g><!--entity pdm--><g id="elem_pdm"><rect fill="#F1F1F1" height="46.2969" rx="2.5" ry="2.5" style="stroke:#181818;stroke-width:0.5;" width="267.917" x="687" y="801.4844"/><rect fill="#F1F1F1" height="10" style="stroke:#181818;stroke-width:0.5;" width="15" x="934.917" y="806.4844"/><rect fill="#F1F1F1" height="2" style="stroke:#181818;stroke-width:0.5;" width="4" x="932.917" y="808.4844"/><rect fill="#F1F1F1" height="2" style="stroke:#181818;stroke-width:0.5;" width="4" x="932.917" y="812.4844"/><text fill="#000000" font-family="sans-serif" font-size="14" lengthAdjust="spacing" textLength="227.917" x="702" y="834.4795">PDelayMeasurementData&lt;Tag&gt;</text></g><!--entity viface--><g id="elem_viface"><rect fill="#F1F1F1" height="46.2969" rx="2.5" ry="2.5" style="stroke:#181818;stroke-width:0.5;" width="163.1357" x="1478.5" y="574.4844"/><rect fill="#F1F1F1" height="10" style="stroke:#181818;stroke-width:0.5;" width="15" x="1621.6357" y="579.4844"/><rect fill="#F1F1F1" height="2" style="stroke:#181818;stroke-width:0.5;" width="4" x="1619.6357" y="581.4844"/><rect fill="#F1F1F1" height="2" style="stroke:#181818;stroke-width:0.5;" width="4" x="1619.6357" y="585.4844"/><text fill="#000000" font-family="sans-serif" font-size="14" lengthAdjust="spacing" textLength="123.1357" x="1493.5" y="607.4795">VehicleClockIface</text></g><!--entity hiface--><g id="elem_hiface"><rect fill="#F1F1F1" height="46.2969" rx="2.5" ry="2.5" style="stroke:#181818;stroke-width:0.5;" width="142.5801" x="1300.5" y="574.4844"/><rect fill="#F1F1F1" height="10" style="stroke:#181818;stroke-width:0.5;" width="15" x="1423.0801" y="579.4844"/><rect fill="#F1F1F1" height="2" style="stroke:#181818;stroke-width:0.5;" width="4" x="1421.0801" y="581.4844"/><rect fill="#F1F1F1" height="2" style="stroke:#181818;stroke-width:0.5;" width="4" x="1421.0801" y="585.4844"/><text fill="#000000" font-family="sans-serif" font-size="14" lengthAdjust="spacing" textLength="102.5801" x="1315.5" y="607.4795">HplsClockIface</text></g><!--entity prod--><g id="elem_prod"><rect fill="#F1F1F1" height="46.2969" rx="2.5" ry="2.5" style="stroke:#181818;stroke-width:0.5;" width="179.1318" x="1300.5" y="680.4844"/><rect fill="#F1F1F1" height="10" style="stroke:#181818;stroke-width:0.5;" width="15" x="1459.6318" y="685.4844"/><rect fill="#F1F1F1" height="2" style="stroke:#181818;stroke-width:0.5;" width="4" x="1457.6318" y="687.4844"/><rect fill="#F1F1F1" height="2" style="stroke:#181818;stroke-width:0.5;" width="4" x="1457.6318" y="691.4844"/><text fill="#000000" font-family="sans-serif" font-size="14" lengthAdjust="spacing" textLength="139.1318" x="1315.5" y="713.4795">Production backend</text></g><!--entity stub--><g id="elem_stub"><rect fill="#F1F1F1" height="46.2969" rx="2.5" ry="2.5" style="stroke:#181818;stroke-width:0.5;" width="136.2295" x="1515" y="680.4844"/><rect fill="#F1F1F1" height="10" style="stroke:#181818;stroke-width:0.5;" width="15" x="1631.2295" y="685.4844"/><rect fill="#F1F1F1" height="2" style="stroke:#181818;stroke-width:0.5;" width="4" x="1629.2295" y="687.4844"/><rect fill="#F1F1F1" height="2" style="stroke:#181818;stroke-width:0.5;" width="4" x="1629.2295" y="691.4844"/><text fill="#000000" font-family="sans-serif" font-size="14" lengthAdjust="spacing" textLength="96.2295" x="1530" y="713.4795">Stub backend</text></g><!--link app to vclock--><g id="link_app_vclock"><path d="M967,229.5244 C967,250.9244 967,276.6144 967,298.1144 " fill="transparent" id="app-to-vclock" style="stroke:#181818;stroke-width:1;"/><polygon fill="#181818" points="967,304.1144,971,295.1144,967,299.1144,963,295.1144,967,304.1144" style="stroke:#181818;stroke-width:1;"/><polygon fill="transparent" points="810,253.8908,814,257.8908,810,261.8908,806,257.8908" style="stroke:#B38D22;stroke-width:1;"/><text fill="#000000" font-family="sans-serif" font-size="13" lengthAdjust="spacing" textLength="149.792" x="817" y="262.8913">include vehicle_clock.h</text></g><!--link app to hclock--><g id="link_app_hclock"><path d="M1026.13,206.4844 C1082.22,206.4844 1158,206.4844 1158,206.4844 C1158,206.4844 1158,263.3344 1158,298.4444 " fill="transparent" id="app-to-hclock" style="stroke:#181818;stroke-width:1;"/><polygon fill="#181818" points="1158,304.4444,1162,295.4444,1158,299.4444,1154,295.4444,1158,304.4444" style="stroke:#181818;stroke-width:1;"/><polygon fill="transparent" points="1147.04,193.5508,1151.04,197.5508,1147.04,201.5508,1143.04,197.5508" style="stroke:#B38D22;stroke-width:1;"/><text fill="#000000" font-family="sans-serif" font-size="13" lengthAdjust="spacing" textLength="130.3682" x="1154.04" y="202.5513">include hpls_clock.h</text></g><!--link test to guard--><g id="link_test_guard"><path d="M809,229.5244 C809,250.9244 809,276.6144 809,298.1144 " fill="transparent" id="test-to-guard" style="stroke:#181818;stroke-width:1;"/><polygon fill="#181818" points="809,304.1144,813,295.1144,809,299.1144,805,295.1144,809,304.1144" style="stroke:#181818;stroke-width:1;"/><text fill="#000000" font-family="sans-serif" font-size="13" lengthAdjust="spacing" textLength="233.1685" x="575" y="262.8913">ClockOverrideGuard&lt;VehicleTime&gt;</text></g><!--link vclock to clock--><g id="link_vclock_clock"><path d="M883.8,327.4844 C880.31,327.4844 878.25,327.4844 878.25,327.4844 C878.25,327.4844 878.25,373.3044 878.25,404.4844 " fill="transparent" id="vclock-to-clock" style="stroke:#181818;stroke-width:1;"/><polygon fill="#181818" points="878.25,410.4844,882.25,401.4844,878.25,405.4844,874.25,401.4844,878.25,410.4844" style="stroke:#181818;stroke-width:1;"/></g><!--link hclock to clock--><g id="link_hclock_clock"><path d="M1152.75,350.9644 C1152.75,379.1044 1152.75,422.4844 1152.75,422.4844 C1152.75,422.4844 991.32,422.4844 896.17,422.4844 " fill="transparent" id="hclock-to-clock" style="stroke:#181818;stroke-width:1;"/><polygon fill="#181818" points="890.17,422.4844,899.17,426.4844,895.17,422.4844,899.17,418.4844,890.17,422.4844" style="stroke:#181818;stroke-width:1;"/></g><!--link sclock to clock--><g id="link_sclock_clock"><path d="M501,350.9544 C501,378.5044 501,420.4844 501,420.4844 C501,420.4844 661.08,420.4844 755.79,420.4844 " fill="transparent" id="sclock-to-clock" style="stroke:#181818;stroke-width:1;"/><polygon fill="#181818" points="761.79,420.4844,752.79,416.4844,756.79,420.4844,752.79,424.4844,761.79,420.4844" style="stroke:#181818;stroke-width:1;"/></g><!--link sysclock to clock--><g id="link_sysclock_clock"><path d="M368.75,350.6344 C368.75,380.7244 368.75,429.4844 368.75,429.4844 C368.75,429.4844 630.1,429.4844 755.94,429.4844 " fill="transparent" id="sysclock-to-clock" style="stroke:#181818;stroke-width:1;"/><polygon fill="#181818" points="761.94,429.4844,752.94,425.4844,756.94,429.4844,752.94,433.4844,761.94,429.4844" style="stroke:#181818;stroke-width:1;"/></g><!--link clock to vtag--><g id="link_clock_vtag"><path d="M871.75,456.6344 C871.75,487.8944 871.75,537.2544 871.75,568.4544 " fill="transparent" id="clock-to-vtag" style="stroke:#181818;stroke-width:1;"/><polygon fill="#181818" points="871.75,574.4544,875.75,565.4544,871.75,569.4544,867.75,565.4544,871.75,574.4544" style="stroke:#181818;stroke-width:1;"/></g><!--link clock to htag--><g id="link_clock_htag"><path d="M775.25,456.6344 C775.25,487.8944 775.25,537.2544 775.25,568.4544 " fill="transparent" id="clock-to-htag" style="stroke:#181818;stroke-width:1;"/><polygon fill="#181818" points="775.25,574.4544,779.25,565.4544,775.25,569.4544,771.25,565.4544,775.25,574.4544" style="stroke:#181818;stroke-width:1;"/></g><!--link clock to stag--><g id="link_clock_stag"><path d="M761.72,447.4844 C692.06,447.4844 590.75,447.4844 590.75,447.4844 C590.75,447.4844 590.75,526.3044 590.75,568.3744 " fill="transparent" id="clock-to-stag" style="stroke:#181818;stroke-width:1;"/><polygon fill="#181818" points="590.75,574.3744,594.75,565.3744,590.75,569.3744,586.75,565.3744,590.75,574.3744" style="stroke:#181818;stroke-width:1;"/></g><!--link clock to systag--><g id="link_clock_systag"><path d="M761.86,438.4844 C613.12,438.4844 257.25,438.4844 257.25,438.4844 C257.25,438.4844 257.25,524.2644 257.25,568.3644 " fill="transparent" id="clock-to-systag" style="stroke:#181818;stroke-width:1;"/><polygon fill="#181818" points="257.25,574.3644,261.25,565.3644,257.25,569.3644,253.25,565.3644,257.25,574.3644" style="stroke:#181818;stroke-width:1;"/></g><!--link vtag to vstatus--><g id="link_vtag_vstatus"><path d="M930,620.4844 C930,638.1444 930,656.4244 930,674.1644 " fill="transparent" id="vtag-to-vstatus" style="stroke:#181818;stroke-width:1;"/><polygon fill="#181818" points="930,680.1644,934,671.1644,930,675.1644,926,671.1644,930,680.1644" style="stroke:#181818;stroke-width:1;"/></g><!--link vtag to vcb--><g id="link_vtag_vcb"><path d="M1006.53,597.4844 C1038.23,597.4844 1067.75,597.4844 1067.75,597.4844 C1067.75,597.4844 1067.75,643.3044 1067.75,674.4844 " fill="transparent" id="vtag-to-vcb" style="stroke:#181818;stroke-width:1;"/><polygon fill="#181818" points="1067.75,680.4844,1071.75,671.4844,1067.75,675.4844,1063.75,671.4844,1067.75,680.4844" style="stroke:#181818;stroke-width:1;"/></g><!--link vcb to tss--><g id="link_vcb_tss"><path d="M1163.33,726.5244 C1163.33,747.9244 1163.33,773.6144 1163.33,795.1144 " fill="transparent" id="vcb-to-tss" style="stroke:#181818;stroke-width:1;"/><polygon fill="#181818" points="1163.33,801.1144,1167.33,792.1144,1163.33,796.1144,1159.33,792.1144,1163.33,801.1144" style="stroke:#181818;stroke-width:1;"/></g><!--link vcb to pdm--><g id="link_vcb_pdm"><path d="M1106.67,726.5444 C1106.67,743.8244 1106.67,764.4844 1106.67,764.4844 C1106.67,764.4844 900,764.4844 900,764.4844 C900,764.4844 900,778.5344 900,795.4544 " fill="transparent" id="vcb-to-pdm" style="stroke:#181818;stroke-width:1;"/><polygon fill="#181818" points="900,801.4544,904,792.4544,900,796.4544,896,792.4544,900,801.4544" style="stroke:#181818;stroke-width:1;"/></g><!--link clock to viface--><g id="link_clock_viface"><path d="M890.17,433.4844 C1069.02,433.4844 1560,433.4844 1560,433.4844 C1560,433.4844 1560,523.1244 1560,568.3344 " fill="transparent" id="clock-to-viface" style="stroke:#181818;stroke-width:1;stroke-dasharray:7.0,7.0;"/><polygon fill="#181818" points="1560,574.3344,1564,565.3344,1560,569.3344,1556,565.3344,1560,574.3344" style="stroke:#181818;stroke-width:1;"/><text fill="#000000" font-family="sans-serif" font-size="13" lengthAdjust="spacing" textLength="137.23" x="1157.51" y="429.5513">uses (via shared_ptr)</text></g><!--link clock to hiface--><g id="link_clock_hiface"><path d="M890.24,445.4844 C1034.57,445.4844 1372,445.4844 1372,445.4844 C1372,445.4844 1372,525.8744 1372,568.3944 " fill="transparent" id="clock-to-hiface" style="stroke:#181818;stroke-width:1;stroke-dasharray:7.0,7.0;"/><polygon fill="#181818" points="1372,574.3944,1376,565.3944,1372,569.3944,1368,565.3944,1372,574.3944" style="stroke:#181818;stroke-width:1;"/><text fill="#000000" font-family="sans-serif" font-size="13" lengthAdjust="spacing" textLength="137.23" x="1057.58" y="458.5513">uses (via shared_ptr)</text></g><!--reverse link viface to prod--><g id="link_viface_prod"><path d="M1497.25,638.4844 C1497.25,669.6644 1497.25,703.4844 1497.25,703.4844 C1497.25,703.4844 1490.12,703.4844 1479.54,703.4844 " fill="transparent" id="viface-backto-prod" style="stroke:#181818;stroke-width:1;"/><polygon fill="transparent" points="1497.25,620.4844,1491.25,638.4844,1503.25,638.4844,1497.25,620.4844" style="stroke:#181818;stroke-width:1;"/></g><!--reverse link viface to stub--><g id="link_viface_stub"><path d="M1578.25,638.4844 C1578.25,656.1444 1578.25,662.4244 1578.25,680.1644 " fill="transparent" id="viface-backto-stub" style="stroke:#181818;stroke-width:1;"/><polygon fill="transparent" points="1578.25,620.4844,1572.25,638.4844,1584.25,638.4844,1578.25,620.4844" style="stroke:#181818;stroke-width:1;"/></g><!--SRC=[XLJRQXin47tVhnYIb_Z1oRi9XjIXQI2b1hijfPGWxquiOLbQ9At3qWJw4Vt2Vab7bxMrQwSr6BGpHqSpHtFaX9C8jjG69nCdjWX_Vls66rDouR1qZK5uO2qQMnHs8rJD3Dj2pSeDM-F2jRJN48ofjSGCi2B0skX6LJCjjO5dpvRbfL3esXf16yTrKKXSewh0wHeaFha2wFS2r-SFOitTEzdWD0JcpKgA4ZYoYYg2Yr8ALCw2KALiAWJ7qU88uk-bpt9d4DNK1zvJ1VYipGQaxypJw79prNNLxH-oVALZtRGBmvAq6bTwouG2nzRTRWkdVeDQPjem6MgvLmwDOX8gT4p8h2U5EwejTJPAB2HIbAeeqdbmDWiROAOhF8F8_msbrC_mCvpw_QQkIJNcX5O_W5bWTHqJdvLmi4JhGjZHedZDY9FQeSGdLiR9Y5fr1mLHktDcFdMzPEjfu0l8BFE9-Z6Ymhk6cUe0M_lF2Fk2N9GI0ngO5Cm6n2vZ-b1BEyppBBzmD1lj465pH6iTReyGRSBa0eGhlerNJFLQwZeCGMfuZzl5kX-zVKYQcCqxyaH-I68xj3Y9M3ZccjIo3Ui3RBwSGycazCO2xvnEcbN0lFOBugJIYMgyUBrIU5VAOByDAfvWiAwQJ4fkjDAJIK85tVQKzYtA8Fj_AIDgGDc-HLgxkayMP9HiXujMbRVCiSESEPlBUOla_O_8B3rmMx9F7rjNstHSFWvxhteV9BzUmKNFg1MiMaWM7dKk2NRlN98F-RstLRn8uPU36J-aUPQU6rqrfNTpU6RfCOWrKxZpGBFgfIm5V2TaV1YFfybGC87pxk7i9ZWaBlaUoO-GORGwc7yo0YwOc60dZ9uD-BGeqj5-J_GR7mRiKQ0z2XM7G73JuPFtF-tWCqvIuJV5tSbdXm0PYlvXxIUcM_k9I4INbzDqNTHmO-d5lzW91fOpWzLZxSme0_9_0nFFzSju72ym3uHh-mi0]--></g></svg>